<?xml version="1.0" encoding="utf-8"?>
<!-- Generator: Adobe Illustrator 19.0.0, SVG Export Plug-In . SVG Version: 6.00 Build 0)  -->
<svg version="1.1" id="レイヤー_1" xmlns="http://www.w3.org/2000/svg" xmlns:xlink="http://www.w3.org/1999/xlink" x="0px"
	 y="0px" viewBox="288 1235 1536 532" style="enable-background:new 288 1235 1536 532;" xml:space="preserve">
<style type="text/css">
	.st0{fill:none;}
	.st1{fill:#FFFFFF;}
	.st2{fill:#F49AC1;}
	.st3{fill:#88D5F7;}
	.st4{fill:#68C0C3;fill-opacity:0.6;}
	.st5{fill:#008BCE;fill-opacity:0.4;}
	.st6{fill:#0990D0;}
</style>
<pattern  x="288" y="1767" width="24" height="468" patternUnits="userSpaceOnUse" id="新規パターンスウォッチ_1" viewBox="0 -468 24 468" style="overflow:visible;">
	<g>
		<polygon class="st0" points="0,0 24,0 24,-468 0,-468 		"/>
		<polygon class="st1" points="12,0 0,0 0,-468 12,-468 		"/>
		<polygon class="st0" points="24,0 0,0 0,-468 24,-468 		"/>
	</g>
</pattern>
<rect x="288" y="1235" class="st0" width="1540.4" height="540.5"/>
<path class="st2" d="M1824,1435H288v-136l64-64l64,64l64-64l64,64l64-64l64,64l64-64l64,64l64-64l64,64l64-64l64,64l64-64l64,64
	l64-64l64,64l64-64l64,64l64-64l64,64l64-64l64,64l64-64l64,64V1435z"/>
<path class="st1" d="M1824,1435H288v-128l64-64l64,64l64-64l64,64l64-64l64,64l64-64l64,64l64-64l64,64l64-64l64,64l64-64l64,64
	l64-64l64,64l64-64l64,64l64-64l64,64l64-64l64,64l64-64l64,64V1435z"/>
<path class="st3" d="M1824,1435H288v-116l64-64l64,64l64-64l64,64l64-64l64,64l64-64l64,64l64-64l64,64l64-64l64,64l64-64l64,64
	l64-64l64,64l64-64l64,64l64-64l64,64l64-64l64,64l64-64l64,64V1435z"/>
<path class="st4" d="M1824,1638.6v121.8c-130.2,14.1-268-5.7-397.1-45.1c-178.1-54.4-284.6-58.7-401.4-27.1
	c-116.8,31.6-227.8,29-323.9,5.9c-59.1-14.2-113-21.1-164-10.5c-69.6,14.4-118.4,64.1-249.6,76.8v-124.3l462.4-69.2l376.9,47.8
	l332.2-37L1824,1638.6L1824,1638.6z"/>
<path class="st5" d="M288,1625.9v104.9c133.5,15.1,269.3-6.2,389.6-44.5c182.2-57.9,362.6-19.4,435.9,2.9
	c76.8,23.4,184.3,24.8,263.1,10.5c78.8-14.3,167.5-11.7,259.5,4.9c48.6,8.8,115.7,17.5,187.9,26.2V1646l-396.5-69.3l-293.8,35.1
	L743.9,1567L288,1625.9L288,1625.9z"/>
<path class="st6" d="M288,1663.1V1363l64-64l64,64l64-64l64,64l64-64l64,64l64-64l64,64l64-64l64,64l64-64l64,64l64-64l64,64l64-64
	l64,64l64-64l64,64l64-64l64,64l64-64l64,64l64-64l64,64v300.1c-64.7,0.1-130.2-8.1-181.8-21.8c-106.9-28.2-201.1-35.4-310.1-15.7
	c-109,19.7-276.3,27.4-451.4-10.5c-111.8-24.2-231.8-14.5-373.9,20.3C435.3,1653,359.3,1663,288,1663.1L288,1663.1z"/>
<g>
	<defs>
		<path id="SVGID_1_" d="M288,1760.5V1363l64-64l64,64l64-64l64,64l64-64l64,64l64-64l64,64l64-64l64,64l64-64l64,64l64-64l64,64
			l64-64l64,64l64-64l64,64l64-64l64,64l64-64l64,64l64-64l64,64v46.1v254.1v97.4c-130.2,14-268-5.7-397.1-45.1
			c-18.4-5.6-36.1-10.7-53-15.3c-78.6,13.8-184.5,12.2-260.4-10.9c-11.6-3.5-25.9-7.5-42.5-11.4c-15.1,2.9-30.3,6.4-45.6,10.5
			c-116.8,31.6-227.8,29-323.9,5.9c-9.8-2.4-19.5-4.5-29-6.4c-84.1,26.3-175.5,44.3-268.4,47.3
			C373.2,1746.3,336.1,1755.9,288,1760.5L288,1760.5z"/>
	</defs>
	<use xlink:href="#SVGID_1_"  style="overflow:visible;opacity:0.1;fill:url(#新規パターンスウォッチ_1);"/>
	<clipPath id="SVGID_2_">
		<use xlink:href="#SVGID_1_"  style="overflow:visible;opacity:0.1;"/>
	</clipPath>
</g>
</svg>
