<?xml version="1.0" standalone="no"?><!DOCTYPE svg PUBLIC "-//W3C//DTD SVG 1.1//EN" "http://www.w3.org/Graphics/SVG/1.1/DTD/svg11.dtd"><svg width="100%" height="100%" viewBox="0 0 1438 56" version="1.1" xmlns="http://www.w3.org/2000/svg" xmlns:xlink="http://www.w3.org/1999/xlink" xml:space="preserve" style="fill-rule:evenodd;clip-rule:evenodd;stroke-linejoin:round;stroke-miterlimit:1.41421;"><g id="event-desc" transform="matrix(0.686688,-3.23117e-27,2.22143e-27,0.684297,667.551,-79.7992)"><path d="M-959.857,149.612c0,-4.337 -4.174,-4.337 -4.501,-4.337c-2.619,0 -4.419,1.637 -4.419,4.337l0,38.381c0,4.42 4.092,4.42 4.501,4.42c2.537,0 4.419,-1.637 4.419,-4.42l0,-38.381ZM-964.358,125.471c-3.355,0 -6.138,2.7 -6.138,6.138c0,3.355 2.783,6.137 6.138,6.137c3.437,0 6.138,-2.782 6.138,-6.137c0,-3.438 -2.783,-6.138 -6.138,-6.138Z" style="fill:#000;fill-rule:nonzero;"/><path d="M-937.352,163.197l17.349,0c9.329,0 19.559,-4.664 19.559,-18.331c0,-11.13 -6.875,-18.168 -19.395,-18.168l-19.314,0c-5.319,0 -7.938,2.456 -7.938,7.448l0,53.438c0,4.829 4.501,4.829 4.91,4.829c0.246,0 4.829,0 4.829,-4.829l0,-24.387ZM-937.352,133.573c0,-1.392 1.227,-2.537 2.537,-2.537l12.439,0c10.802,0 11.457,9.575 11.457,13.666c0,4.174 -1.146,14.158 -12.03,14.158l-14.403,0l0,-25.287Z" style="fill:#000;fill-rule:nonzero;"/><path d="M-865.009,163.688c-10.557,0.328 -29.298,0.982 -29.298,16.122c0,11.048 9.821,12.603 14.894,12.603c1.883,0 8.593,0 15.222,-5.074c0.491,1.718 1.637,5.074 4.992,5.074c2.046,0 4.419,-1.555 4.419,-3.437c0,-0.492 -0.655,-2.046 -0.982,-3.274c-0.327,-1.227 -0.409,-2.537 -0.409,-3.192l0,-20.868c0,-13.912 -10.966,-16.367 -17.84,-16.367c-12.03,0 -18.168,7.693 -18.168,11.539c0,2.128 2.046,3.928 4.501,3.928c3.683,0 4.337,-2.537 4.747,-4.173c0.818,-3.519 3.191,-7.038 8.92,-7.038c8.101,0 9.002,6.71 9.002,10.72l0,3.437ZM-865.009,183.411c-2.947,2.455 -7.529,4.337 -11.376,4.337c-1.391,0 -8.674,0 -8.674,-8.102c0,-11.211 13.339,-11.784 20.05,-12.03l0,15.795Z" style="fill:#000;fill-rule:nonzero;"/><path d="M-816.644,152.477c-4.256,-5.401 -8.02,-7.202 -13.012,-7.202c-11.785,0 -18.004,9.575 -18.004,23.323c0,14.976 7.119,23.815 18.331,23.815c7.938,0 10.148,-3.519 12.685,-6.629l0,2.7c0,2.128 1.882,3.929 4.419,3.929c0.245,0 4.419,0 4.419,-4.42l0,-58.185c0,-4.337 -4.092,-4.337 -4.501,-4.337c-0.164,0 -4.337,0 -4.337,4.337l0,22.669ZM-816.644,179.728c-1.064,2.701 -3.11,8.265 -10.721,8.265c-6.874,0 -10.639,-5.646 -10.639,-19.558c0,-4.665 0.246,-18.659 10.394,-18.659c7.201,0 9.656,6.302 10.966,9.82l0,20.132Z" style="fill:#000;fill-rule:nonzero;"/><path d="M-769.589,148.876c4.419,-1.146 10.148,-2.537 17.513,-2.537c10.311,0 15.303,4.419 15.303,10.802c0,7.529 -6.628,11.621 -14.485,11.621c-1.064,0 -3.764,-0.409 -5.237,-0.409c-1.555,0 -2.21,1.064 -2.21,2.291c0,2.046 1.555,2.783 8.02,2.783c8.184,0 23.733,-2.701 23.733,-16.613c0,-15.14 -18.332,-15.549 -21.769,-15.631c4.419,-5.646 6.793,-9.984 6.793,-11.702c0,-2.619 -2.783,-4.01 -5.074,-4.01c-2.619,0 -3.11,0.736 -4.747,5.319c-1.964,5.565 -3.928,9.33 -5.81,11.13c-6.056,0.9 -8.184,1.309 -13.012,2.619c-0.164,-0.655 -2.291,-9.984 -2.619,-11.457c-0.982,-4.911 -1.473,-6.711 -4.992,-6.711c-2.291,0 -4.746,1.146 -4.746,3.683c0,0.9 0.409,2.455 3.928,16.776c-2.046,0.491 -11.866,3.601 -14.076,4.256c-3.273,0.982 -4.501,1.473 -4.501,3.191c0,1.473 1.146,3.355 2.865,3.355c0.654,0 3.109,-1.063 4.582,-1.636c3.11,-1.228 8.511,-3.437 12.194,-4.583c1.227,5.237 7.283,30.852 8.511,36.744c1.391,6.383 1.8,7.611 5.237,7.611c1.719,0 4.747,-0.737 4.747,-4.01c0,-0.818 -0.082,-1.473 -1.146,-5.729c-2.537,-10.311 -6.547,-26.842 -9.002,-37.153Z" style="fill:#000;fill-rule:nonzero;"/><path d="M-663.775,141.102c2.619,0 2.619,2.209 2.619,2.782c0,2.619 -3.028,14.976 -9.002,23.487c-0.328,-4.337 -20.132,-13.585 -22.014,-13.585c-1.228,0 -2.292,1.064 -2.292,2.373c0,1.228 0.573,1.555 1.801,2.292c4.583,2.782 8.511,5.155 13.339,10.884c2.619,3.192 3.028,3.683 4.992,3.764c-13.339,12.93 -28.561,15.14 -34.371,16.04c-2.291,0.328 -3.683,0.491 -3.683,2.455c0,0.982 0.737,2.373 2.374,2.373c0.736,0 1.718,-0.163 3.437,-0.409c10.475,-1.636 25.123,-4.664 36.417,-14.403c16.203,-13.994 19.231,-36.826 19.231,-37.153c0,-1.719 -1.064,-5.401 -5.81,-5.401l-29.298,0c0.41,-0.737 2.619,-5.074 2.619,-7.202c0,-2.946 -2.946,-4.337 -5.237,-4.337c-3.601,0 -4.256,2.291 -5.156,5.565c-4.01,15.057 -11.621,22.423 -18.004,26.924c-2.455,1.718 -2.7,1.882 -2.7,2.946c0,1.391 1.145,2.373 2.209,2.373c1.31,0 4.91,-2.373 6.547,-3.519c10.721,-7.283 14.894,-14.076 17.431,-18.249l24.551,0Z" style="fill:#000;fill-rule:nonzero;"/><path d="M-570.401,119.497c-1.391,-0.246 -2.536,0.736 -2.536,1.964c0,0.818 2.618,4.01 3.6,5.565c2.128,3.273 2.455,3.682 3.601,3.682c1.555,0 2.783,-1.227 2.783,-2.7c0,-2.128 -6.302,-8.266 -7.448,-8.511ZM-578.339,122.607c-1.391,-0.328 -2.618,0.654 -2.618,1.964c0,0.818 3.273,5.074 3.764,5.974c2.21,3.846 2.455,4.255 3.765,4.255c1.718,0 3.027,-1.391 3.027,-2.864c0,-2.046 -6.628,-9.002 -7.938,-9.329ZM-631.696,132.591c-0.9,0 -3.027,0 -3.027,2.209c0,2.21 2.127,2.21 3.027,2.21l42.228,0c2.127,0 3.11,1.555 3.11,3.028c0,1.718 -2.619,13.83 -9.084,24.141c-10.312,16.449 -25.451,21.359 -32.325,23.242c-4.174,1.145 -4.992,1.473 -4.992,3.109c0,0.573 0.245,2.128 2.127,2.128c0.41,0 18.741,-2.373 32.98,-14.321c16.858,-14.158 21.523,-37.235 21.523,-39.2c0,-3.682 -2.782,-6.546 -6.629,-6.546l-48.938,0Z" style="fill:#000;fill-rule:nonzero;"/><path d="M-547.323,185.457c0,4.419 3.437,6.71 6.629,6.71c1.8,0 22.341,-4.01 36.089,-18.904c8.921,-9.738 11.867,-20.132 11.867,-20.623c0,-0.982 -0.982,-2.127 -2.374,-2.127c-1.391,0 -1.718,0.736 -2.536,2.537c-1.801,3.846 -4.583,9.984 -12.931,16.776c-11.211,9.247 -25.041,11.702 -25.369,11.702c-2.209,0 -2.209,-1.636 -2.209,-2.536l0,-48.447c0,-1.719 0,-4.829 -4.665,-4.829c-4.501,0 -4.501,3.192 -4.501,4.911l0,54.83Z" style="fill:#000;fill-rule:nonzero;"/><path d="M-460.168,168.353c1.637,0 3.683,-1.228 3.683,-3.683c0,-1.882 -3.683,-7.938 -7.447,-12.439c-1.309,-1.555 -4.01,-4.828 -5.074,-4.828c-0.982,0 -1.882,0.736 -1.882,1.8c0,0.573 0.245,0.982 0.9,2.046c2.046,3.274 4.092,6.629 5.974,12.767c0.9,2.864 1.309,4.255 3.846,4.337ZM-442.409,162.379c0.9,0 3.355,-0.982 3.355,-3.519c0,-3.028 -9.247,-14.812 -11.048,-14.812c-1.064,0 -1.882,0.818 -1.882,1.718c0,0.491 0.164,0.737 1.146,2.537c1.8,3.192 2.618,4.747 4.01,8.92c1.554,4.501 1.8,5.156 4.419,5.156ZM-423.178,142.575c-3.682,0 -3.846,1.718 -4.337,7.037c-2.701,29.707 -20.459,39.2 -30.525,42.637c-2.046,0.736 -2.782,0.9 -2.782,2.21c0,0.982 0.9,1.8 1.8,1.8c0.655,0 2.291,-0.573 3.11,-0.818c15.385,-5.074 23.487,-13.012 28.315,-21.114c6.629,-11.293 8.511,-26.76 8.511,-27.824c0,-2.455 -1.719,-3.928 -4.092,-3.928Z" style="fill:#000;fill-rule:nonzero;"/><path d="M-368.839,154.441c4.91,1.8 12.848,4.746 21.932,13.012c2.046,1.882 3.11,2.864 5.074,2.864c2.782,0 4.501,-2.537 4.501,-4.91c0,-1.882 -0.164,-3.355 -9.329,-7.938c-7.366,-3.683 -16.613,-6.711 -22.178,-7.775l0,-19.313c0,-1.718 0,-4.828 -4.665,-4.828c-4.501,0 -4.501,3.191 -4.501,4.91l0,59.331c0,1.718 0,4.828 4.583,4.828c4.583,0 4.583,-3.191 4.583,-4.91l0,-35.271Z" style="fill:#000;fill-rule:nonzero;"/><path d="M-254.514,142.084c-1.391,-0.246 -2.455,0.818 -2.455,1.882c0,0.491 0.163,1.064 0.654,1.555c2.046,2.291 2.21,2.455 3.274,3.928c2.291,3.11 2.537,3.437 3.601,3.437c1.636,0 2.864,-1.309 2.864,-2.783c0,-2.209 -6.874,-7.856 -7.938,-8.019ZM-262.289,145.439c-1.473,-0.327 -2.618,0.655 -2.618,1.882c0,0.655 0.491,1.309 0.9,1.8c1.309,1.555 3.028,4.256 3.682,5.32c1.555,2.619 1.801,3.028 3.192,3.028c1.637,0 3.028,-1.31 3.028,-2.865c0,-2.045 -6.874,-8.838 -8.184,-9.165ZM-279.147,135.291c-5.565,2.864 -21.605,11.212 -21.605,29.707c0,21.359 20.05,27.415 34.372,27.415c1.063,0 3.518,0 3.518,-2.701c0,-2.373 -2.209,-2.455 -3.764,-2.537c-16.122,-0.409 -24.223,-10.557 -24.223,-24.141c0,-14.813 10.147,-27.579 32.488,-28.234c4.501,-0.163 5.729,-0.163 5.729,-2.455c0,-2.537 -2.373,-2.537 -3.028,-2.537c-1.719,0 -12.848,0.655 -16.04,0.9c-5.892,0.41 -31.67,1.637 -37.562,1.964c-9.903,0.655 -10.639,0.573 -10.639,2.947c0,1.391 1.064,2.373 2.291,2.373c0.328,0 10.148,-0.819 12.112,-0.982c0.573,0 19.477,-1.473 26.351,-1.719Z" style="fill:#000;fill-rule:nonzero;"/><path d="M-173.333,119.251c-4.092,0 -7.856,3.356 -7.856,7.938c0,4.42 3.6,7.857 7.856,7.857c4.419,0 7.938,-3.683 7.938,-7.857c-0.082,-4.419 -3.601,-7.938 -7.938,-7.938ZM-173.333,122.852c2.291,0 4.337,1.882 4.337,4.337c0,2.292 -1.882,4.256 -4.337,4.256c-2.373,0 -4.256,-1.882 -4.256,-4.256c0,-2.536 2.046,-4.337 4.256,-4.337ZM-234.874,132.509c-0.9,0 -2.946,0 -2.946,2.209c0,2.292 2.046,2.292 2.946,2.292l42.309,0c2.128,0 3.028,1.473 3.028,3.028c0,2.046 -2.537,11.948 -6.792,20.049c-11.048,21.196 -29.543,26.106 -36.826,27.906c-1.064,0.246 -2.783,0.655 -2.783,2.456c0,1.309 1.064,2.209 2.128,2.209c0.573,0 1.719,-0.327 2.128,-0.409c10.639,-2.537 16.531,-4.583 23.487,-8.675c24.878,-14.812 28.888,-44.355 28.888,-44.518c0,-3.601 -2.701,-6.547 -6.629,-6.547l-48.938,0Z" style="fill:#000;fill-rule:nonzero;"/><path d="M-100.745,138.483c0,-4.01 -3.028,-6.711 -6.792,-6.711l-43.7,0c-4.01,0 -6.793,2.946 -6.793,6.711l0,43.045c0,4.092 3.11,6.711 6.793,6.711l43.7,0c3.846,0 6.792,-2.782 6.792,-6.711l0,-43.045ZM-113.184,136.273c1.882,0 3.274,1.228 3.274,3.274l0,40.999c0,1.637 -1.064,3.274 -3.274,3.274l-32.407,0c-2.046,0 -3.273,-1.391 -3.273,-3.274l0,-40.999c0,-2.046 1.309,-3.274 3.273,-3.274l32.407,0Z" style="fill:#000;fill-rule:nonzero;"/><path d="M-20.055,119.661c-1.391,-0.246 -2.455,0.818 -2.455,1.882c0,0.818 0.409,1.309 0.737,1.637c1.064,1.227 2.946,3.6 3.11,3.846c2.291,3.191 2.536,3.519 3.764,3.519c1.473,0 2.782,-1.228 2.782,-2.619c0,-2.373 -6.874,-8.102 -7.938,-8.265ZM-57.535,137.173c0.572,-1.227 3.273,-7.365 3.273,-9.329c0,-2.946 -3.11,-4.092 -5.238,-4.092c-3.682,0 -4.337,2.537 -4.91,4.992c-4.255,18.577 -13.666,25.369 -19.067,28.97c-1.883,1.228 -2.292,1.473 -2.292,2.701c0,1.227 0.9,2.209 2.21,2.209c1.391,0 6.71,-3.191 9.329,-5.073c6.711,-4.665 10.884,-9.657 14.321,-15.958l24.715,0c0.409,0 2.046,0.163 2.046,2.373c0,0.491 -0.901,11.293 -7.611,22.668c-9.984,17.022 -24.715,21.032 -37.89,23.078c-2.373,0.327 -3.683,0.573 -3.683,2.537c0,1.309 1.064,2.21 2.21,2.21c0.736,0 4.501,-0.492 5.565,-0.655c11.375,-1.555 19.804,-4.501 26.76,-8.92c21.686,-13.667 24.878,-41.737 24.878,-42.391c0,-1.964 -1.391,-5.32 -6.301,-5.32l-28.315,0ZM-27.829,123.098c-1.146,-0.246 -2.455,0.654 -2.455,1.882c0,0.655 0.327,1.146 0.736,1.637c1.228,1.473 2.619,3.355 3.928,5.483c1.555,2.537 1.883,2.946 3.192,2.946c1.637,0 3.028,-1.392 3.028,-2.946c0,-2.128 -7.12,-8.757 -8.429,-9.002Z" style="fill:#000;fill-rule:nonzero;"/><path d="M4.169,129.808c-0.982,0 -2.946,0 -2.946,2.292c0,2.209 2.046,2.209 2.946,2.209l41.245,0c0.9,0 2.946,0 2.946,-2.291c0,-2.21 -2.046,-2.21 -2.946,-2.21l-41.245,0ZM-4.751,146.912c-0.901,0 -3.028,0 -3.028,2.291c0,2.21 2.127,2.21 3.028,2.21l47.055,0c1.801,0 2.455,1.146 2.455,2.537c0,2.864 -1.882,9.493 -5.319,15.303c-6.056,9.984 -15.14,16.204 -29.87,18.004c-2.864,0.327 -4.256,0.491 -4.256,2.455c0,1.309 1.064,2.21 2.292,2.21c6.547,0 16.612,-2.537 22.914,-5.565c19.64,-9.411 24.469,-29.052 24.469,-34.044c0,-3.192 -2.128,-5.401 -5.401,-5.401l-54.339,0Z" style="fill:#000;fill-rule:nonzero;"/><path d="M118.33,141.593c2.373,0 3.846,-2.374 3.846,-4.338c0,-3.682 -2.537,-4.583 -12.603,-5.974c-11.539,-1.636 -24.796,-1.964 -28.724,-1.964c-0.818,0 -2.783,0.164 -2.783,2.292c0,2.291 1.473,2.373 6.956,2.537c0.41,0 14.731,0.654 28.97,6.137c3.028,1.146 3.356,1.31 4.338,1.31ZM115.629,163.688c2.946,0 4.01,-2.537 4.01,-4.337c0,-3.437 -2.046,-4.092 -10.557,-6.22c-12.357,-3.028 -25.778,-4.173 -26.433,-4.173c-1.964,0 -2.455,1.227 -2.455,2.128c0,1.882 1.719,2.209 3.437,2.536c14.24,2.537 21.932,5.893 26.188,7.775c1.064,0.491 5.155,2.291 5.81,2.291ZM123.485,191.267c4.01,-0.082 4.829,-3.601 4.829,-4.992c0,-3.192 -0.901,-3.601 -9.084,-6.956c-14.976,-6.138 -38.299,-8.92 -43.455,-8.92c-0.573,0 -2.701,0 -2.701,2.128c0,2.045 1.555,2.209 4.174,2.618c18.086,2.619 30.525,7.529 39.445,12.603c5.892,3.437 5.974,3.519 6.792,3.519Z" style="fill:#000;fill-rule:nonzero;"/><path d="M174.469,144.866c2.128,0 4.665,-2.046 4.665,-5.074c0,-2.128 -0.328,-3.601 -10.23,-8.674c-8.183,-4.256 -14.812,-5.811 -15.63,-5.811c-0.982,0 -2.046,0.9 -2.046,2.046c0,1.146 0.9,1.637 2.209,2.373c4.992,2.701 10.312,5.729 14.813,10.803c3.109,3.6 3.764,4.337 6.219,4.337ZM148.854,188.566c0,2.046 1.228,5.238 4.583,5.238c1.801,0 25.206,-5.32 42.146,-21.114c11.784,-11.048 17.103,-24.223 17.103,-25.533c0,-1.063 -0.9,-2.045 -2.127,-2.045c-1.392,0 -1.883,0.982 -2.374,2.045c-1.882,3.847 -6.792,10.557 -10.556,14.485c-15.877,16.613 -35.354,20.541 -41.737,21.851c-4.419,0.9 -7.038,1.473 -7.038,5.073Z" style="fill:#000;fill-rule:nonzero;"/><path d="M287.648,119.661c-1.391,-0.246 -2.455,0.818 -2.455,1.882c0,0.818 0.409,1.309 0.736,1.637c1.064,1.227 2.946,3.6 3.11,3.846c2.292,3.191 2.537,3.519 3.765,3.519c1.473,0 2.782,-1.228 2.782,-2.619c0,-2.373 -6.874,-8.102 -7.938,-8.265ZM250.167,137.173c0.573,-1.227 3.274,-7.365 3.274,-9.329c0,-2.946 -3.11,-4.092 -5.238,-4.092c-3.683,0 -4.337,2.537 -4.91,4.992c-4.256,18.577 -13.667,25.369 -19.068,28.97c-1.882,1.228 -2.291,1.473 -2.291,2.701c0,1.227 0.9,2.209 2.209,2.209c1.392,0 6.711,-3.191 9.33,-5.073c6.71,-4.665 10.884,-9.657 14.321,-15.958l24.714,0c0.41,0 2.046,0.163 2.046,2.373c0,0.491 -0.9,11.293 -7.611,22.668c-9.983,17.022 -24.714,21.032 -37.889,23.078c-2.374,0.327 -3.683,0.573 -3.683,2.537c0,1.309 1.064,2.21 2.209,2.21c0.737,0 4.501,-0.492 5.565,-0.655c11.375,-1.555 19.805,-4.501 26.761,-8.92c21.686,-13.667 24.878,-41.737 24.878,-42.391c0,-1.964 -1.392,-5.32 -6.302,-5.32l-28.315,0ZM279.874,123.098c-1.146,-0.246 -2.456,0.654 -2.456,1.882c0,0.655 0.328,1.146 0.737,1.637c1.228,1.473 2.619,3.355 3.928,5.483c1.555,2.537 1.882,2.946 3.192,2.946c1.636,0 3.028,-1.392 3.028,-2.946c0,-2.128 -7.12,-8.757 -8.429,-9.002Z" style="fill:#000;fill-rule:nonzero;"/><path d="M335.767,142.902c-2.946,11.784 -11.129,27.579 -20.377,36.744c-0.573,0.573 -0.982,1.228 -0.982,1.719c0,0.982 0.819,1.882 1.882,1.882c1.474,0 13.667,-9.575 21.769,-26.187l0,21.686l-9.657,0c-0.736,0 -2.291,0.164 -2.291,1.882c0,1.555 1.473,1.801 2.291,1.801l9.657,0l0,9.656c0,2.946 0.654,5.647 4.337,5.647c3.928,0 4.337,-3.11 4.337,-5.647l0,-9.656l10.803,0c0.818,0 2.291,-0.164 2.291,-1.883c0,-1.554 -1.391,-1.8 -2.291,-1.8l-10.803,0l0,-21.523c8.102,15.467 20.623,25.533 22.178,25.533c0.982,0 1.8,-0.9 1.8,-1.964c0,-0.573 -0.409,-1.146 -0.9,-1.637c-11.211,-10.884 -18.249,-25.533 -21.195,-36.253l18.822,0c0.736,0 2.291,-0.164 2.291,-1.882c0,-1.555 -1.473,-1.801 -2.291,-1.801l-20.705,0l0,-11.293c0,-3.11 -0.736,-5.647 -4.337,-5.647c-4.01,0 -4.337,3.437 -4.337,5.647l0,11.293l-19.15,0c-0.736,0 -2.291,0.164 -2.291,1.883c0,1.636 1.555,1.8 2.291,1.8l16.858,0ZM312.935,140.12c0.9,-1.555 6.138,-10.721 6.138,-13.34c0,-2.537 -2.864,-4.337 -5.647,-4.337c-3.519,0 -4.092,2.291 -4.746,4.91c-4.092,16.122 -10.393,24.715 -14.158,29.788c-1.064,1.392 -1.146,1.801 -1.146,2.21c0,0.9 0.737,1.8 1.801,1.8c1.718,0 6.792,-6.056 9.084,-8.756l0,39.936c0,1.555 0,5.401 4.337,5.401c4.255,0 4.337,-3.928 4.337,-5.401l0,-52.211Z" style="fill:#000;fill-rule:nonzero;"/><path d="M395.18,137.828l0,-9.247l6.056,0c0.737,0 2.291,-0.164 2.291,-1.883c0,-1.636 -1.473,-1.882 -2.291,-1.882l-20.132,0c-5.483,0 -7.447,2.046 -7.447,6.465l0,30.852c0,4.174 1.637,6.465 7.447,6.465l11.048,0c2.21,0 2.701,0.573 2.701,3.356c0,1.882 -0.082,3.846 -0.164,5.483c-0.736,-2.21 -2.455,-6.875 -4.01,-6.875c-0.736,0 -1.555,0.573 -1.555,1.555c0,0.491 1.392,4.91 1.555,5.811c0.573,2.7 0.9,3.764 2.21,3.764c0.818,0 1.309,-0.491 1.637,-0.818c-1.064,12.602 -2.783,12.766 -5.975,12.766l-5.155,0c-0.655,0 -2.292,0.164 -2.292,1.882c0,1.801 1.719,1.883 2.292,1.883l6.465,0c4.01,0 7.201,0 9.411,-4.42c2.128,-4.173 2.946,-17.512 2.946,-22.177c0,-2.455 -0.491,-4.174 -2.537,-5.238c-0.9,-0.491 -2.291,-0.736 -4.501,-0.736l0,-10.148l4.419,0c0.737,0 2.292,-0.163 2.292,-1.8c0,-1.719 -1.473,-1.882 -2.292,-1.882l-4.419,0l0,-9.411l4.419,0c0.737,0 2.292,-0.246 2.292,-1.883c0,-1.718 -1.555,-1.882 -2.292,-1.882l-4.419,0ZM387.488,141.593l0,9.411l-5.974,0l0,-9.411l5.974,0ZM381.514,137.828l0,-5.892c0,-2.701 0.572,-3.355 3.437,-3.355l2.537,0l0,9.247l-5.974,0ZM387.488,154.686l0,10.148l-2.537,0c-2.865,0 -3.437,-0.573 -3.437,-3.355l0,-6.793l5.974,0ZM419.976,154.032l-7.692,0c-5.156,0 -7.447,1.8 -7.447,6.465l0,7.201c0,3.846 1.391,6.465 7.447,6.465l6.629,0c-2.21,6.956 -7.447,14.813 -16.122,19.559c-1.391,0.737 -1.882,1.391 -1.882,2.128c0,1.145 0.9,1.882 1.8,1.882c0.9,0 13.339,-4.665 21.441,-16.776c2.128,3.109 5.319,7.528 11.539,11.866c4.01,2.782 8.675,4.91 9.738,4.91c0.982,0 1.883,-0.737 1.883,-1.882c0,-0.737 -0.41,-1.228 -1.637,-1.883c-4.337,-2.209 -13.012,-8.592 -16.285,-19.804l6.874,0c5.155,0 7.447,-1.718 7.447,-6.465l0,-7.201c0,-4.338 -1.882,-6.465 -7.447,-6.465l-7.856,0l0,-7.202l6.219,0c0.655,0 2.291,-0.082 2.291,-1.882c0,-1.719 -1.636,-1.882 -2.291,-1.882l-20.868,0c-0.573,0 -2.291,0.163 -2.291,1.882c0,1.718 1.636,1.882 2.291,1.882l6.219,0l0,7.202ZM428.406,157.796l4.255,0c2.864,0 3.437,0.655 3.437,3.355l0,5.893c0,2.7 -0.573,3.355 -3.437,3.355l-4.255,0l0,-12.603ZM419.976,170.399l-4.173,0c-2.783,0 -3.355,-0.655 -3.355,-3.355l0,-5.893c0,-2.7 0.572,-3.355 3.355,-3.355l4.173,0l0,12.603ZM380.286,173.427c-0.573,0 -1.637,0.409 -1.637,1.555c0,0.409 0.164,1.554 0.164,1.718c0.246,2.701 0.246,6.301 0.246,9.329c0,1.473 0.409,2.783 2.373,2.783c1.637,0 2.7,-1.31 2.7,-2.783c0,-0.9 -0.654,-5.073 -1.555,-8.838c-0.818,-3.273 -1.227,-3.764 -2.291,-3.764ZM385.687,172.363c-0.9,0 -1.636,0.655 -1.636,1.555c0,0.654 0.982,4.992 1.145,5.974c0.655,4.992 0.655,5.81 2.292,5.81c1.473,0 2.537,-0.982 2.537,-2.373c0,-1.064 -1.965,-10.966 -4.338,-10.966ZM374.558,173.427c-1.228,0 -1.637,0.818 -1.719,1.882c-0.245,3.928 -0.655,7.447 -1.146,9.575c-0.163,0.654 -1.064,3.682 -1.064,4.501c0,1.555 1.555,2.782 3.11,2.782c2.783,0 3.028,-2.619 3.028,-8.183c0,-3.028 -0.245,-8.266 -0.409,-9.084c-0.246,-0.9 -0.9,-1.473 -1.8,-1.473ZM424.068,122.361c-2.7,0 -4.828,0 -6.71,3.519c-3.274,5.974 -6.138,10.966 -14.24,17.677c-1.473,1.145 -1.718,1.473 -1.718,2.373c0,1.146 0.9,1.882 1.8,1.882c1.637,0 12.439,-7.201 19.559,-16.449c0.573,-0.736 0.9,-0.9 1.309,-0.9c0.491,0 0.737,0.245 1.391,0.982c8.184,10.229 18.823,16.367 20.05,16.367c1.064,0 1.801,-0.818 1.801,-1.8c0,-0.9 -0.573,-1.392 -0.982,-1.719c-6.302,-5.237 -10.639,-8.838 -14.813,-17.022c-2.127,-4.091 -3.028,-4.91 -7.447,-4.91Z" style="fill:#000;fill-rule:nonzero;"/><path d="M481.926,139.792c12.767,-0.818 14.158,-0.9 22.505,-1.637c1.8,-0.163 3.519,-0.327 3.519,-2.455c0,-1.473 -1.064,-2.373 -2.21,-2.373c-2.373,0 -6.137,0.655 -8.511,0.819c-3.846,0.327 -8.92,0.736 -12.357,0.9c3.847,-6.056 4.256,-6.793 4.256,-7.938c0,-2.946 -3.437,-4.01 -5.156,-4.01c-2.782,0 -3.355,1.064 -9.575,12.602c-1.8,0.164 -11.948,0.491 -15.549,0.573c-1.391,0 -3.437,0 -3.437,2.292c0,2.373 2.21,2.373 2.865,2.373c2.373,0 11.211,-0.409 13.584,-0.491c-1.964,3.682 -11.538,21.605 -13.666,25.778c-2.701,5.401 -2.783,5.892 -2.783,6.874c0,1.964 2.128,3.519 4.256,3.519c2.537,0 2.782,-0.654 5.565,-6.547c1.8,-3.928 7.365,-15.794 17.431,-15.794c6.137,0 7.038,5.81 7.447,8.675c-15.385,8.183 -20.705,14.485 -20.705,21.277c0,10.884 14.158,11.539 25.697,11.539c6.792,0 12.111,-0.164 17.676,-0.655c1.555,-0.163 3.601,-0.327 3.601,-2.864c0,-1.637 -0.982,-2.782 -2.701,-2.782c-1.063,0 -5.974,0.818 -7.119,0.982c-4.174,0.491 -9.084,0.818 -11.703,0.818c-5.81,0 -16.694,-0.491 -16.694,-8.838c0,-6.956 6.383,-11.13 12.111,-14.322c0,1.555 -0.245,9.166 -0.245,10.885c0,1.309 0,4.255 4.337,4.255c4.256,0 4.256,-3.192 4.256,-6.301c0,-3.356 -0.082,-9.166 -0.246,-12.276c6.22,-2.291 7.12,-2.455 13.012,-3.682c2.864,-0.655 5.074,-1.146 5.074,-3.765c0,-1.145 -0.655,-3.519 -3.274,-3.519c-2.291,0 -12.602,4.419 -15.712,5.729c-2.291,-7.938 -8.429,-9.984 -13.257,-9.984c-5.074,0 -7.693,1.964 -10.312,3.764c2.619,-4.501 5.238,-9.002 8.02,-13.421Z" style="fill:#000;fill-rule:nonzero;"/><path d="M591.586,162.624c-1.637,0 -1.964,0.901 -2.619,2.946c-2.864,8.675 -9.002,21.687 -25.041,21.687c-13.994,0 -15.795,-7.202 -15.795,-17.022c0,-6.465 1.801,-38.872 1.801,-40.672c0,-1.637 0,-4.992 -4.665,-4.992c-4.501,0 -4.665,3.355 -4.746,5.319c-0.328,6.792 -1.473,35.189 -1.473,41.245c0,8.92 0.572,23.487 22.341,23.487c16.531,0 23.405,-9.493 26.351,-14.239c2.619,-4.256 6.056,-13.012 6.056,-15.713c0,-0.982 -0.819,-2.046 -2.21,-2.046Z" style="fill:#000;fill-rule:nonzero;"/><path d="M646.743,135.291c-5.564,2.864 -21.604,11.212 -21.604,29.707c0,21.359 20.05,27.415 34.371,27.415c1.064,0 3.519,0 3.519,-2.701c0,-2.373 -2.21,-2.455 -3.765,-2.537c-16.121,-0.409 -24.223,-10.557 -24.223,-24.141c0,-14.813 10.148,-27.579 32.489,-28.234c4.501,-0.163 5.728,-0.163 5.728,-2.455c0,-2.537 -2.373,-2.537 -3.028,-2.537c-1.718,0 -12.848,0.655 -16.039,0.9c-5.893,0.41 -31.671,1.637 -37.563,1.964c-9.902,0.655 -10.639,0.573 -10.639,2.947c0,1.391 1.064,2.373 2.292,2.373c0.327,0 10.147,-0.819 12.111,-0.982c0.573,0 19.477,-1.473 26.351,-1.719Z" style="fill:#000;fill-rule:nonzero;"/><path d="M739.545,169.662c3.765,2.946 4.174,3.274 6.629,5.647c1.309,1.309 2.373,1.964 3.764,1.964c2.701,0 3.929,-2.864 3.929,-4.746c0,-2.21 -1.228,-3.192 -2.374,-4.01c-4.582,-3.274 -6.056,-4.01 -9.82,-6.056c1.964,-7.529 4.01,-19.477 4.01,-20.95c0,-3.437 -3.437,-4.256 -4.992,-4.256c-4.01,0 -4.419,3.274 -4.665,5.647c-0.736,7.283 -1.555,11.457 -2.455,15.958c-9.329,-4.092 -14.648,-5.156 -19.395,-5.483c1.637,-4.01 9.084,-23.078 9.084,-24.469c0,-1.882 -1.555,-3.601 -3.355,-3.601c-0.573,0 -4.583,0.491 -5.647,0.655c-1.064,0.164 -5.81,0.655 -14.239,1.064c-4.665,0.163 -5.811,0.327 -5.811,2.619c0,1.227 1.064,2.455 2.864,2.455c0.246,0 4.992,-0.328 15.713,-1.473c-0.982,4.419 -4.092,14.239 -7.529,22.177c-4.01,0.164 -7.692,0.409 -12.439,2.701c-11.784,5.728 -12.685,16.776 -12.685,20.377c0,7.283 3.438,12.193 9.412,12.193c5.728,0 9.493,-4.501 12.029,-8.183c3.274,-4.91 7.448,-13.667 10.885,-22.014c9.984,1.555 17.185,5.483 19.804,6.956c-3.519,13.912 -7.283,21.605 -16.776,25.287c-2.865,1.146 -3.601,1.391 -3.601,3.028c0,1.719 1.473,2.455 2.373,2.455c0.982,0 6.138,-1.555 10.639,-4.419c9.656,-6.219 12.848,-15.794 14.648,-21.523ZM703.456,157.387c-3.847,9.329 -7.775,17.267 -9.411,20.213c-2.701,4.992 -4.256,5.074 -4.992,5.074c-2.947,0 -2.947,-4.91 -2.947,-5.974c0,-3.355 1.719,-17.104 17.35,-19.313Z" style="fill:#000;fill-rule:nonzero;"/><path d="M798.958,151.658c0,-1.555 0,-9.083 -0.082,-10.802c3.11,-0.082 13.176,-0.164 19.477,-0.573c1.801,-0.163 3.601,-0.245 3.601,-2.373c0,-1.228 -0.9,-2.291 -2.21,-2.291c-0.982,0 -7.447,0.409 -8.838,0.409c-1.637,0.082 -5.728,0.245 -12.03,0.245c0.082,-2.209 0.082,-5.074 0.082,-7.365c0,-1.8 0,-4.992 -4.583,-4.992c-1.555,0 -4.092,0.655 -4.337,3.846c-0.082,0.901 -0.082,1.719 0,8.593c-5.074,0 -13.257,0.164 -18.413,0c-1.719,-0.082 -4.747,-0.245 -6.22,-0.245c-1.8,0 -2.291,1.473 -2.291,2.291c0,1.555 1.146,2.21 2.619,2.291c3.437,0.082 20.459,0.164 24.387,0.164c0,2.619 0.163,8.429 0.082,10.884l-9.821,0c-1.8,0 -10.638,-0.327 -12.602,-0.327c-1.473,0 -2.292,1.146 -2.292,2.373c0,2.046 1.882,2.292 2.701,2.292c4.583,0.245 13.748,0.163 22.177,0.163c0,1.801 0.164,10.475 0.164,12.439c-12.603,-0.818 -26.351,4.092 -26.351,14.076c0,8.102 9.738,12.194 18.986,12.194c4.583,0 13.257,-0.983 15.794,-8.43c0.737,-2.209 0.737,-5.237 0.655,-10.147c6.219,2.537 9.575,5.401 14.157,9.411c1.637,1.391 2.865,2.537 4.747,2.537c2.373,0 4.092,-2.455 4.092,-4.665c0,-2.619 -3.683,-4.828 -6.956,-6.792c-7.447,-4.501 -11.703,-5.647 -16.286,-6.956c0,-0.737 -0.327,-11.866 -0.327,-13.667c2.128,0 13.257,-0.327 19.068,-0.655c0.818,-0.081 2.537,-0.163 2.537,-2.373c0,-1.555 -1.228,-2.291 -2.21,-2.291c-0.655,0 -5.401,0.245 -6.465,0.327c-6.711,0.246 -9.084,0.328 -13.012,0.409ZM790.611,173.672c0.082,8.347 0.163,9.248 -0.573,11.457c-1.555,4.829 -6.629,4.829 -7.856,4.829c-5.483,0 -9.984,-2.619 -9.984,-6.957c0,-5.483 8.02,-9.574 15.549,-9.574c1.063,0 2.045,0.163 2.864,0.245Z" style="fill:#000;fill-rule:nonzero;"/><path d="M851.333,147.321c-1.8,0.082 -10.393,0.491 -12.357,0.573c-1.064,0 -3.028,0.082 -3.028,2.373c0,1.146 0.736,2.373 2.373,2.373c0.982,0 10.966,-0.654 13.012,-0.654c-0.164,3.846 -0.409,14.075 -0.409,18.331c0,21.277 9.329,23.159 27.497,23.159c6.056,0 15.876,-0.409 16.776,-0.491c2.046,-0.245 2.619,-1.473 2.619,-2.455c0,-0.654 -0.491,-2.537 -2.701,-2.537c-0.9,0 -5.483,0.491 -6.465,0.573c-2.128,0.164 -7.12,0.491 -9.984,0.491c-16.04,0 -18.986,-5.81 -18.986,-20.131c0,-4.092 0.328,-13.094 0.491,-17.268c15.631,-0.409 17.349,-0.491 22.26,-0.572c0.081,3.191 0.081,15.548 -0.901,17.594c-1.227,2.373 -3.028,2.373 -6.383,2.373c-2.209,0 -2.537,1.637 -2.537,2.374c0,2.455 2.21,2.455 3.601,2.455c8.02,0 10.721,-0.409 13.012,-3.683c1.882,-2.7 1.882,-7.12 1.8,-21.113l11.048,0c1.228,0 3.192,0 3.192,-2.292c0,-1.637 -0.819,-2.128 -2.373,-2.291c-0.737,-0.082 -5.647,-0.082 -11.867,-0.082c0.082,-4.01 0.082,-9.002 0.082,-13.094c0,-6.383 0,-9.247 -4.583,-9.247c-4.501,0 -4.501,3.764 -4.501,4.828c0,2.537 0.41,14.894 0.41,17.677c-1.473,0 -16.368,0.327 -22.178,0.491c0.082,-1.473 0.573,-15.058 0.573,-15.304c0,-1.555 0,-4.664 -4.583,-4.664c-4.664,0 -4.664,3.028 -4.746,6.628c0,2.292 -0.164,9.984 -0.164,13.585Z" style="fill:#000;fill-rule:nonzero;"/><path d="M934.396,160.66c2.21,-5.074 14.076,-30.197 14.076,-31.834c0,-2.864 -3.191,-4.419 -5.483,-4.419c-2.455,0 -2.864,0.982 -4.337,4.501c-4.992,11.703 -13.667,32.243 -15.876,37.808c-8.348,21.359 -8.348,21.605 -8.348,23.16c0,3.273 3.274,4.01 4.665,4.01c3.028,0 3.846,-2.128 4.092,-2.865c0.491,-1.309 2.537,-7.692 3.11,-9.083c2.127,-5.565 8.838,-23.16 20.704,-23.16c4.256,0 5.401,3.11 5.401,6.711c0,2.618 -1.636,15.712 -1.636,18.658c0,9.657 6.383,11.294 10.72,11.294c13.503,0 21.686,-16.531 21.686,-18.414c0,-1.145 -0.982,-2.291 -2.618,-2.291c-1.473,0 -1.555,0.409 -3.274,3.355c-2.291,4.092 -7.201,10.475 -13.421,10.475c-2.291,0 -4.01,-0.818 -4.01,-5.81c0,-2.537 1.637,-15.303 1.637,-18.168c0,-10.147 -8.347,-10.966 -11.293,-10.966c-7.12,0 -11.294,3.438 -15.795,7.038Z" style="fill:#000;fill-rule:nonzero;"/><path d="M1016.56,141.593c1.064,-3.028 2.701,-7.857 3.192,-9.166c0.491,-1.473 1.228,-3.519 1.228,-4.583c0,-2.619 -2.701,-3.928 -4.665,-3.928c-2.701,0 -3.519,2.046 -3.928,3.192c-0.818,2.209 -4.419,13.339 -5.238,15.794c-4.828,0.9 -7.856,1.555 -12.848,2.782c-3.191,0.737 -4.746,1.064 -4.746,3.274c0,1.145 0.818,2.537 2.455,2.537c0.327,0 11.293,-3.028 13.339,-3.601c-7.202,20.623 -8.02,22.914 -12.439,34.698c-1.146,3.11 -1.882,5.074 -1.882,6.302c0,2.864 2.782,4.173 4.828,4.173c2.946,0 3.928,-2.455 4.501,-4.01c0.409,-1.064 10.802,-31.261 14.73,-43.127c2.537,-0.573 4.747,-0.818 7.284,-0.818c5.319,0 8.429,1.473 8.429,15.057c0,13.258 -4.583,27.988 -9.411,27.988c-1.801,0 -5.156,-1.555 -6.711,-2.537c-1.309,-0.818 -1.718,-1.064 -2.373,-1.064c-1.146,0 -2.373,0.901 -2.373,2.374c0,1.227 0.736,1.882 3.519,3.355c2.7,1.391 6.874,3.601 10.966,3.601c12.111,0 15.221,-23.815 15.221,-34.617c0,-10.966 -2.373,-18.331 -14.567,-18.331c-2.7,0 -4.828,0.245 -8.511,0.655ZM1044.38,131.854c-1.064,0 -2.537,0.818 -2.537,2.455c0,0.737 0.491,1.473 1.555,3.028c4.337,6.465 5.892,10.148 7.61,15.631c1.964,6.383 2.292,7.283 5.32,7.283c2.7,0 5.319,-1.964 5.319,-4.91c0,-3.437 -7.12,-12.685 -10.884,-17.349c-2.292,-2.864 -4.91,-6.138 -6.383,-6.138Z" style="fill:#000;fill-rule:nonzero;"/><path d="M1100.69,175.473c4.583,0 4.828,-3.765 4.91,-6.056c0.327,-6.22 0.409,-9.002 6.71,-14.813c5.074,-4.664 8.757,-8.101 8.757,-14.73c0,-11.866 -11.457,-14.403 -19.313,-14.403c-13.994,0 -19.968,8.593 -19.968,13.421c0,3.764 3.028,4.828 4.91,4.828c4.337,0 4.746,-3.109 5.155,-6.301c0.737,-5.974 4.829,-7.693 9.412,-7.693c9.411,0 9.984,7.775 9.984,9.657c0,4.255 -1.064,5.319 -7.857,12.357c-4.746,4.992 -7.283,11.621 -7.283,18.986c0,2.946 1.8,4.747 4.583,4.747ZM1100.69,180.055c-3.356,0 -6.138,2.783 -6.138,6.22c0,3.355 2.782,6.138 6.138,6.138c3.355,0 6.219,-2.701 6.219,-6.138c0,-3.601 -2.864,-6.22 -6.219,-6.22Z" style="fill:#000;fill-rule:nonzero;"/></g></svg>
