<?xml version="1.0" encoding="UTF-8" standalone="no"?><!DOCTYPE svg PUBLIC "-//W3C//DTD SVG 1.1//EN" "http://www.w3.org/Graphics/SVG/1.1/DTD/svg11.dtd"><svg width="380px" height="150px" version="1.1" xmlns="http://www.w3.org/2000/svg" xmlns:xlink="http://www.w3.org/1999/xlink" xml:space="preserve" style="fill-rule:evenodd;clip-rule:evenodd;stroke-linejoin:round;stroke-miterlimit:1.41421;"><g id="footer-img"><clipPath id="_clip1"><path d="M392.013,0l-435.978,0l0,150l435.978,0l0,-150Z"/></clipPath><g clip-path="url(#_clip1)"><path d="M0,128.375l259.594,-79.894l120.406,19.029l-255.378,122.556l-124.622,-61.691Z" style="fill:#ffcf82;"/><path d="M47.747,115.823l60.715,9.72l30.317,-14.815l13.105,2.123l19.669,-8.15c0,0 31.014,9.99 32.924,9.99c1.91,0 12.33,-6.838 15.416,-8.879c1.296,-0.858 -10.857,-17.676 -10.857,-17.676c0,0 11.131,-3.122 16.844,-3.25c6.327,-0.141 21.116,2.402 21.116,2.402c0,0 -10.457,2.808 -11.656,4.722c-1.199,1.914 4.46,5.466 7.432,7.178c3.574,2.058 11.111,5.935 14.012,5.172c8.559,-2.253 37.983,-16.906 48.628,-22.869c0.975,-0.546 1.726,-2.908 1.726,-2.908l3.399,0l25.116,-14.817l-1.543,-3.61l-70.413,-12.247l-215.95,67.914Z" style="fill:#ebb256;"/><g><path d="M255.337,85.095c0,0 19.168,-6.733 21.315,-7.552c2.146,-0.818 2.562,-2.001 0.505,-2.911c-2.056,-0.909 -5.844,-2.156 -6.112,-5.249c-0.268,-3.092 -22.51,5.399 -22.599,8.583c-0.089,3.185 -0.805,3.671 0.895,5.763c1.699,2.093 3.765,2.061 5.996,1.366Z" style="fill:#ff60aa;"/><g><path d="M304.438,75.881c0.939,0.565 1.511,1.597 1.5,2.707c-0.011,1.111 -0.604,2.13 -1.555,2.676c-13.732,7.768 -31.852,16.432 -46.156,21.741c-1.912,0.693 -4.031,0.46 -5.753,-0.634c-3.205,-2.407 -7.356,-6.114 -9.886,-8.433c-0.489,-0.437 -0.715,-1.105 -0.595,-1.756c0.121,-0.652 0.57,-1.19 1.183,-1.416c9.761,-3.613 41.552,-15.368 49.198,-18.196c1.134,-0.419 2.376,-0.428 3.516,-0.026c2.075,0.727 5.562,1.973 8.548,3.337Z" style="fill:#ff9ecb;"/><path d="M302.959,76.359c0.62,0.292 1.024,0.916 1.043,1.611c0.019,0.695 -0.349,1.341 -0.951,1.668c-11.093,5.893 -29.009,14.227 -43.099,19.631c-3.136,1.166 -6.647,0.509 -9.171,-1.716c-1.954,-1.726 -4.082,-3.614 -5.478,-4.853c-0.324,-0.287 -0.474,-0.726 -0.396,-1.156c0.078,-0.429 0.374,-0.784 0.777,-0.934c8.508,-3.163 42.502,-15.798 47.754,-17.75c0.44,-0.163 0.925,-0.156 1.36,0.022c1.471,0.603 5.075,2.091 8.161,3.477Z" style="fill:#ffdfee;"/><path d="M253.852,89.26c-0.25,-0.269 -0.711,-0.391 -1.029,-0.273l-2.315,0.861c-0.317,0.118 -0.372,0.432 -0.122,0.7l0.907,0.973c0.25,0.269 0.711,0.391 1.029,0.273l2.315,-0.861c0.318,-0.118 0.373,-0.432 0.122,-0.7l-0.907,-0.973Z" style="fill:#ffb3d7;"/><path d="M284.72,77.603c-0.444,-0.196 -0.547,-0.452 -0.23,-0.57l2.315,-0.86c0.318,-0.118 0.937,-0.055 1.382,0.142l1.611,0.711c0.445,0.196 0.548,0.451 0.23,0.569l-2.315,0.861c-0.318,0.118 -0.937,0.054 -1.381,-0.142l-1.612,-0.711Z" style="fill:#ffb3d7;"/><path d="M260.097,89.755c-0.251,-0.268 -0.712,-0.39 -1.029,-0.272l-2.315,0.86c-0.318,0.118 -0.373,0.432 -0.123,0.701l0.907,0.973c0.251,0.268 0.712,0.39 1.029,0.272l2.316,-0.86c0.317,-0.118 0.372,-0.432 0.122,-0.701l-0.907,-0.973Z" style="fill:#ffb3d7;"/><path d="M292.259,77.617c-0.45,-0.194 -0.558,-0.448 -0.24,-0.566l2.315,-0.86c0.318,-0.118 0.941,-0.056 1.391,0.138l1.632,0.704c0.45,0.194 0.558,0.447 0.24,0.565l-2.315,0.861c-0.318,0.118 -0.941,0.056 -1.391,-0.138l-1.632,-0.704Z" style="fill:#ffb3d7;"/><path d="M267.976,83.892c-0.322,-0.242 -0.842,-0.342 -1.16,-0.224l-2.315,0.861c-0.318,0.118 -0.314,0.41 0.009,0.651l1.169,0.876c0.323,0.241 0.843,0.342 1.161,0.224l2.315,-0.861c0.317,-0.118 0.313,-0.41 -0.009,-0.652l-1.17,-0.875Z" style="fill:#ffb3d7;"/><path d="M272.119,82.352c-0.333,-0.238 -0.861,-0.335 -1.179,-0.217l-2.315,0.861c-0.317,0.118 -0.305,0.407 0.028,0.644l1.207,0.862c0.333,0.238 0.861,0.335 1.179,0.217l2.315,-0.861c0.318,-0.118 0.305,-0.407 -0.028,-0.644l-1.207,-0.862Z" style="fill:#ffb3d7;"/><path d="M283.387,84.117c-0.355,-0.23 -0.901,-0.321 -1.218,-0.203l-2.42,0.9c-0.318,0.118 -0.288,0.4 0.067,0.63l1.285,0.832c0.354,0.23 0.9,0.321 1.218,0.203l2.42,-0.9c0.317,-0.118 0.287,-0.4 -0.067,-0.63l-1.285,-0.832Z" style="fill:#ffb3d7;"/></g><path d="M269.196,59.739c-0.307,-0.135 -0.521,-0.426 -0.562,-0.763c-0.629,-5.16 -5.535,-45.383 -6.316,-51.784c-0.059,-0.487 0.252,-0.942 0.723,-1.054c4.233,-1.01 23.374,-5.576 25.622,-6.113c0.142,-0.033 0.289,-0.033 0.431,0c3.103,0.74 38.721,9.228 44.484,10.601c0.453,0.108 0.761,0.534 0.727,1.006c-0.443,6.219 -3.271,45.91 -3.613,50.713c-0.022,0.3 -0.179,0.572 -0.427,0.736c-2.675,1.774 -18.2,12.069 -20.981,13.913c-0.266,0.176 -0.601,0.205 -0.893,0.076c-4.165,-1.842 -34.912,-15.437 -39.195,-17.331Z" style="fill:#ff8fc1;"/><path d="M271.28,59.012c-0.313,-0.132 -0.533,-0.425 -0.575,-0.767c-0.609,-4.873 -5.054,-40.475 -6.036,-48.335c-0.041,-0.329 0.088,-0.657 0.342,-0.867c0.253,-0.209 0.595,-0.271 0.904,-0.163c6.931,2.425 36.775,12.866 41.477,14.511c0.375,0.131 0.63,0.486 0.638,0.89c0.104,5.377 0.807,41.421 0.958,49.183c0.007,0.325 -0.149,0.631 -0.412,0.814c-0.264,0.182 -0.6,0.218 -0.895,0.093c-6.245,-2.635 -32.427,-13.682 -36.401,-15.359Z" style="fill:#ff64ac;"/><path d="M309.14,21.699c0.498,0.176 1.043,0.159 1.53,-0.048c3.003,-1.272 14.179,-6.005 19.349,-8.194c0.377,-0.16 0.61,-0.547 0.579,-0.962c-0.031,-0.414 -0.321,-0.76 -0.717,-0.86c-9.125,-2.278 -37.636,-9.399 -40.393,-10.088c-0.141,-0.035 -0.289,-0.037 -0.431,-0.005c-1.74,0.395 -13.558,3.072 -19.402,4.396c-0.413,0.094 -0.715,0.455 -0.739,0.884c-0.024,0.43 0.236,0.823 0.636,0.964c9.057,3.183 34.794,12.229 39.588,13.913Z" style="fill:#ffabd1;"/><path d="M292.333,18.876c-0.092,-1.342 -0.882,-2.532 -2.071,-3.122c-3.027,-1.433 -6.671,-2.689 -9.151,-3.068c-19.118,3.471 -34.187,8.064 -53.349,16.102c-1.32,0.554 -2.205,1.838 -2.266,3.29c-0.664,16.116 -0.529,31.92 0.762,47.375c3.218,1.84 5.859,3.038 8.799,3.889c0.406,0.116 0.837,0.103 1.236,-0.039c5.534,-1.967 47.473,-16.884 55.283,-19.662c0.752,-0.267 1.259,-0.982 1.273,-1.792c0.199,-13.369 -0.003,-33.62 -0.516,-42.973Z" style="fill:#ff8fc1;"/><path d="M291.119,20.637c-0.038,-1.091 -0.539,-2.111 -1.374,-2.797c-0.835,-0.686 -1.922,-0.969 -2.978,-0.776c-17.68,3.245 -33.478,7.48 -51.335,14.886c-1.327,0.551 -2.217,1.839 -2.277,3.296c-0.606,15.119 -0.277,29.905 1.008,44.349c0.058,0.641 0.403,1.218 0.934,1.567c0.532,0.348 1.192,0.429 1.789,0.218c9.861,-3.481 46.162,-16.294 53.485,-18.878c0.771,-0.273 1.285,-1.016 1.276,-1.847c-0.162,-14.852 -0.036,-25.862 -0.528,-40.018Z" style="fill:#fff;"/><path d="M289.924,24.195c-0.039,-1.08 -0.533,-2.092 -1.356,-2.776c-0.823,-0.684 -1.896,-0.975 -2.945,-0.799c-16.196,2.752 -30.898,6.792 -47.444,13.578c-1.332,0.547 -2.227,1.835 -2.29,3.295c-0.545,13.016 -0.242,25.731 0.924,38.137c0.062,0.638 0.407,1.212 0.938,1.558c0.531,0.346 1.189,0.425 1.784,0.215c9.38,-3.31 42.721,-15.079 49.752,-17.56c0.778,-0.275 1.294,-1.029 1.276,-1.868c-0.272,-12.614 -0.196,-21.776 -0.639,-33.78Z" style="fill:url(#_Linear2);"/><path d="M287.268,26.418c-0.045,-1.069 -0.536,-2.069 -1.35,-2.748c-0.813,-0.679 -1.873,-0.974 -2.913,-0.811c-15.131,2.404 -28.691,5.988 -44.117,12.425c-1.32,0.552 -2.206,1.833 -2.27,3.283c-0.497,11.737 -0.218,23.198 0.855,34.375c0.063,0.637 0.409,1.21 0.939,1.555c0.531,0.345 1.188,0.423 1.782,0.213c8.976,-3.167 39.851,-14.065 46.555,-16.432c0.772,-0.272 1.286,-1.016 1.277,-1.847c-0.125,-11.335 -0.301,-19.321 -0.758,-30.013Z" style="fill:#0df2f2;"/><path d="M286.298,27.85c-0.045,-1.095 -0.556,-2.116 -1.401,-2.796c-0.845,-0.681 -1.94,-0.952 -2.998,-0.745c-14.08,2.758 -27.29,5.657 -41.997,11.547c-1.343,0.54 -2.249,1.832 -2.315,3.3c-0.467,10.903 -0.2,21.545 0.815,31.92c0.064,0.636 0.411,1.208 0.941,1.552c0.53,0.344 1.186,0.422 1.78,0.212c8.719,-3.077 38.095,-13.446 44.687,-15.773c0.785,-0.277 1.302,-1.041 1.276,-1.886c-0.291,-9.427 -0.385,-17.421 -0.788,-27.331Z" style="fill:#7bfafa;"/><path d="M239.205,73.203c-0.779,-0.653 -0.763,-1.491 -0.975,-3.395c-0.945,-8.476 -0.912,-25.4 -0.875,-28.466c0.037,-3.048 1.414,-4.993 3.38,-5.838c10.058,-4.326 30.425,-9.452 41.333,-11.162c-11.873,8.374 -38.66,33.595 -42.863,48.861Z" style="fill:url(#_Linear3);"/><path d="M228.125,29.972c9.587,-5.882 38.396,-15.043 53.152,-16.316c5.276,1.124 6.49,2.746 3.845,3.098c-9.569,1.273 -37.348,8.817 -50.142,14.769c-3.211,1.493 -5.978,0.145 -6.855,-1.551Z" style="fill:#ffc2dd;"/><path d="M251.692,81.374c0.684,1.478 2.487,2.096 4.877,1.341c2.39,-0.754 17.719,-6.176 19.12,-6.679c1.401,-0.504 0.948,-1.692 -2.101,-1.902c-3.049,-0.209 -15.724,3.42 -18.091,4.207c-2.143,0.713 -4.572,1.376 -3.805,3.033Z" style="fill:#ff91c4;"/></g><g><g><path d="M181.225,88.886c-0.761,-0.336 -1.289,-1.048 -1.39,-1.874c-0.399,-3.278 -1.433,-11.752 -1.906,-15.631c-0.14,-1.148 0.572,-2.229 1.683,-2.553c3.232,-0.944 9.589,-2.8 11.565,-3.377c0.394,-0.115 0.811,-0.126 1.21,-0.031c2.225,0.531 9.981,2.379 13.649,3.253c1.125,0.268 1.891,1.312 1.809,2.466c-0.273,3.832 -0.863,12.108 -1.088,15.27c-0.056,0.789 -0.504,1.497 -1.192,1.887c-2.369,1.342 -7.917,4.484 -10.223,5.79c-0.65,0.368 -1.436,0.407 -2.12,0.105c-2.614,-1.156 -9.244,-4.088 -11.997,-5.305Z" style="fill:#f93;"/><path d="M181.993,88.617c-0.777,-0.328 -1.321,-1.047 -1.425,-1.884c-0.337,-2.696 -1.102,-8.822 -1.603,-12.835c-0.101,-0.811 0.224,-1.617 0.86,-2.13c0.636,-0.514 1.492,-0.662 2.264,-0.392c3.279,1.147 7.967,2.787 10.37,3.628c0.932,0.326 1.563,1.197 1.582,2.183c0.057,2.915 0.176,9.059 0.253,13.014c0.016,0.799 -0.374,1.553 -1.036,2.001c-0.663,0.449 -1.507,0.532 -2.244,0.221c-2.918,-1.231 -6.989,-2.949 -9.021,-3.806Z" style="fill:#ff8000;"/><path d="M192.74,74.279c1.252,0.44 2.623,0.401 3.848,-0.109c1.98,-0.823 5.117,-2.128 7.5,-3.119c0.471,-0.196 0.763,-0.671 0.725,-1.179c-0.038,-0.508 -0.398,-0.934 -0.892,-1.058c-3.768,-0.941 -9.506,-2.374 -11.384,-2.843c-0.405,-0.101 -0.83,-0.093 -1.231,0.023c-1.524,0.442 -5.584,1.62 -8.59,2.491c-0.493,0.143 -0.837,0.588 -0.851,1.102c-0.015,0.513 0.304,0.977 0.789,1.147c3.112,1.094 7.561,2.657 10.086,3.545Z" style="fill:#ffb066;"/></g><g><g><g><path d="M149.872,90.459c-0.855,0.439 -0.999,0.833 -0.999,1.461c0,0.628 0,2.211 0,2.869c0,0.659 0.278,0.931 0.768,1.185c0.49,0.254 11.766,8.36 12.399,8.741c0.632,0.382 0.558,0.475 1.91,-0.255c1.202,-0.65 6.343,-3.913 7.119,-4.546c0.506,-0.413 0.86,-0.853 0.944,-1.447c0.09,-0.64 0.152,-1.42 0.137,-2.101c-0.013,-0.571 -0.273,-1.106 -0.935,-1.379c-0.663,-0.272 -8.4,-3.59 -8.4,-3.59c0,0 -11.485,-1.685 -12.943,-0.938Z" style="fill:#fe7600;"/><path d="M150.217,93.092c0.457,0.402 11.48,6.572 12.009,6.857c0.53,0.285 1.29,0.138 2.067,-0.393c1.044,-0.714 5.557,-3.051 6.542,-3.615c0.515,-0.295 0.124,-0.668 -0.623,-1.048c-0.746,-0.38 -4.79,-2.366 -4.79,-2.366c0,0 -14.823,-1.899 -15.539,-1.678c-0.715,0.222 -0.635,1.392 0.334,2.243Z" style="fill:#ff9030;"/><path d="M162.876,103.915c0,0 0.155,-2.269 0.155,-2.778c0,-0.509 0.829,-0.951 1.61,-1.482c0.782,-0.532 5.148,-3.016 5.796,-3.321c0.739,-0.347 1.395,-0.428 1.444,0.072c0.078,0.778 0.031,1.633 -0.02,2.053c-0.05,0.419 -0.297,0.773 -0.798,1.198c-0.798,0.675 -6.019,4.201 -7.392,4.828c-0.422,0.193 -0.802,0.149 -0.795,-0.57Z" style="fill:#de6700;"/></g><path d="M151.041,84.67l-0.181,6.632c0,0 7.583,5.429 8.665,5.672c1.083,0.244 6.409,-2.452 7.176,-2.944c0.782,-0.501 0.602,-0.85 0.752,-2.763c0.151,-1.913 -16.412,-11.57 -16.412,-6.597Z" style="fill:#c30f3c;"/><path d="M159.012,95.371c-0.075,1.005 0.92,1.545 2.04,1.081c2.221,-0.92 4.599,-1.961 5.285,-2.429c0.467,-0.319 0.843,-0.508 0.843,-1.69c0,-1.182 -0.271,-2.794 -0.271,-2.794c0,0 -7.616,-5.808 -7.767,-2.644c-0.15,3.165 -0.021,7.003 -0.13,8.476Z" style="fill:#9b0c2f;"/></g><g><g><path d="M139.258,95.207c-0.884,0.51 -1.033,0.967 -1.033,1.697c0,0.73 0,2.571 0,3.336c0,0.766 0.288,1.082 0.794,1.378c0.506,0.295 12.162,9.719 12.815,10.162c0.654,0.443 0.578,0.552 1.976,-0.297c1.241,-0.755 6.556,-4.548 7.358,-5.285c0.523,-0.48 0.873,-0.519 0.959,-1.21c0.093,-0.744 0.234,-2.639 0.218,-3.43c-0.013,-0.665 -0.342,-0.771 -1.027,-1.087c-0.684,-0.317 -8.682,-4.174 -8.682,-4.174c0,0 -11.872,-1.959 -13.378,-1.09Z" style="fill:#fe7600;"/><path d="M139.569,98.075c0.457,0.401 11.742,7.873 12.271,8.158c0.529,0.284 1.057,0.345 1.834,-0.186c1.044,-0.714 6.837,-3.79 7.821,-4.355c0.515,-0.295 0.415,-0.579 -0.331,-0.959c-0.747,-0.379 -6.39,-3.223 -6.39,-3.223c0,0 -14.823,-1.9 -15.539,-1.678c-0.716,0.222 -0.635,1.391 0.334,2.243Z" style="fill:#ff9030;"/><path d="M152.228,111.001c0,0 0.167,-2.673 0.167,-3.274c0,-0.601 0.894,-1.094 1.738,-1.695c0.843,-0.601 6.287,-3.69 6.986,-4.028c0.797,-0.385 1.077,-0.105 1.024,0.483c-0.073,0.806 -0.165,1.887 -0.22,2.38c-0.054,0.493 -0.254,0.677 -0.795,1.16c-0.861,0.771 -6.561,4.98 -8.042,5.675c-0.455,0.213 -0.866,0.147 -0.858,-0.701Z" style="fill:#de6700;"/></g><path d="M138.934,89.652l-0.205,6.632c0,0 8.619,5.429 9.85,5.673c1.23,0.243 7.284,-2.453 8.156,-2.944c0.889,-0.502 0.684,-0.851 0.855,-2.764c0.171,-1.912 -18.656,-11.57 -18.656,-6.597Z" style="fill:#c30f3c;"/><path d="M147.995,100.354c-0.086,1.004 1.046,1.545 2.319,1.081c2.524,-0.921 5.227,-1.962 6.007,-2.43c0.531,-0.318 0.958,-0.507 0.958,-1.69c0,-1.182 -0.308,-2.794 -0.308,-2.794c0,0 -8.657,-5.808 -8.828,-2.643c-0.171,3.164 -0.023,7.003 -0.148,8.476Z" style="fill:#9b0c2f;"/></g><g><path d="M158.739,62.814c0.259,-2.983 6.557,-3.711 6.821,0.503c0.263,4.213 1.07,6.913 2.491,8.055c1.422,1.141 5.735,0.674 7.761,0.415c2.027,-0.259 4.194,4.987 1.223,5.587c-2.971,0.601 -8.089,1.243 -11.125,0.927c-1.482,-0.154 -3.991,-1.474 -5.233,-4.072c-1.243,-2.598 -2.385,-6.26 -1.938,-11.415Z" style="fill:#c6ff40;"/><path d="M159.406,63.423c0.253,-1.273 2.009,-2.204 2.212,-0.072c0.202,2.131 1.037,6.255 2.541,9.084c0.763,1.435 -2.144,3.82 -3.27,0.934c-1.126,-2.886 -2.019,-7.248 -1.483,-9.946Z" style="fill:#d8ff7d;"/><path d="M174.874,77.555c-0.174,-0.014 -4.948,0.506 -6.75,0.356c-1.801,-0.151 -1.675,-1.025 0.148,-1.269c2.415,-0.324 6.237,-0.815 6.237,-0.815c0,0 0.538,1.741 0.365,1.728Z" style="fill:#b1c30f;"/><path d="M173.185,76.718c-2.582,-3.839 -1.971,-7.835 0.177,-10.56c2.766,-3.509 8.445,-4.234 12.137,-1.967c-0.054,0.666 -0.96,3.214 -0.96,3.214c0,0 -1.716,1.028 -2.861,1.661c-1.302,-0.831 -3.093,-1.32 -4.131,-0.537c-0.521,0.393 -1.141,2.252 0.952,5.291c1.96,2.845 4.918,3.143 5.269,2.614c0.352,-0.53 0.153,-2.134 -0.63,-3.464c0.531,-1.148 2.645,-2.922 2.645,-2.922c0,0 2.489,0.338 3.496,0.743c0.274,0.826 0.121,6.717 -4.036,8.995c-4.729,2.591 -9.925,0.102 -12.058,-3.068Z" style="fill:#004fd7;"/><path d="M172.077,69.681c0.269,-2.22 2.022,-4.407 4.635,-5.672c2.614,-1.264 5.671,-0.972 8.338,0.26c-0.644,0.416 -3.258,1.851 -3.492,1.955c-3.886,-3.327 -9.15,0.725 -9.481,3.457Z" style="fill:#5e99ff;"/><path d="M177.256,76.666c-1.894,-1.536 0.031,-2.996 1.714,-1.62c1.683,1.376 3.57,2.481 4.524,1.793c-1.175,1.065 -3.65,1.926 -6.238,-0.173Z" style="fill:#3680ff;"/><path d="M183.551,72.81c0.914,0.257 3.079,0.435 3.079,0.435l2.344,-2.251l-3.104,-0.671c0,0 -1.855,1.284 -2.319,2.487Z" style="fill:#8fb8ff;"/></g><path d="M136.95,87.275c0,0 1.35,-24.778 1.35,-27.525c0,-2.747 1.515,-4.234 4.801,-5.548c8.402,-3.357 12.557,-2.441 18.109,1.069c5.552,3.51 5.551,4.326 5.851,7.226c0.301,2.901 1.853,18.315 2.454,22.894c0.6,4.579 0.397,5.342 -6.654,9.005c-7.052,3.663 -10.105,4.121 -18.807,-0.152c-5.145,-2.527 -7.456,-4.008 -7.104,-6.969Z" style="fill:#65d1ff;"/><path d="M153.308,94.161c-0.017,-4.048 -0.402,-25.029 -2.994,-29.6c-1.509,-2.66 -4.083,-3.929 -5.985,-6.039c-1.901,-2.11 15.296,-2.844 18.494,-1.262c3.197,1.582 3.314,3.082 3.487,5.631c0.173,2.549 1.469,20.575 1.728,23.652c0.26,3.077 0.229,4.396 -4.783,6.77c-5.012,2.373 -9.925,5.916 -9.947,0.848Z" style="fill:#23bdff;"/><ellipse cx="154.168" cy="40.931" rx="18.321" ry="18.637" style="fill:#66d1ff;"/><ellipse cx="153.218" cy="38.909" rx="15.556" ry="15.824" style="fill:#99e0ff;"/><ellipse cx="145.765" cy="30.509" rx="2.788" ry="2.836" style="fill:#fff;"/><ellipse cx="154.968" cy="45.612" rx="5.725" ry="5.824" style="fill:#ff7811;"/><ellipse cx="168.286" cy="41.381" rx="3.69" ry="4.789" style="fill:#ff7811;"/><ellipse cx="155.535" cy="45.507" rx="4.861" ry="4.945" style="fill:#ffb53e;"/><path d="M156.156,41.145c2.033,0.635 3.143,2.942 2.477,5.147c-0.666,2.205 -2.857,3.48 -4.891,2.844c-2.034,-0.635 -3.144,-2.941 -2.478,-5.147c0.666,-2.205 2.858,-3.48 4.892,-2.844Z" style="fill:#ffc363;"/><ellipse cx="168.651" cy="41.295" rx="3.133" ry="4.066" style="fill:#ffaf2f;"/><path d="M169.152,37.409c1.372,0.344 2.108,2.186 1.642,4.111c-0.467,1.925 -1.959,3.208 -3.332,2.864c-1.372,-0.344 -2.108,-2.186 -1.642,-4.111c0.467,-1.925 1.959,-3.208 3.332,-2.864Z" style="fill:#ffc363;"/><path d="M150.519,24.082c-0.153,1.02 2.831,1.318 2.946,0.147c0.115,-1.172 0.093,-3.423 -2.009,-4.828c-2.101,-1.406 -2.898,0.262 -1.862,1.258c1.036,0.996 1.126,2.078 0.925,3.423Z" style="fill:#ff7811;"/><path d="M151.296,24.049c-0.136,0.51 1.324,0.602 1.424,0.064c0.223,-1.189 0.052,-2.407 -0.762,-2.95c-0.553,-0.369 -1.074,0.28 -0.907,0.622c0.3,0.611 0.597,0.951 0.245,2.264Z" style="fill:#ff9340;"/><ellipse cx="147.469" cy="16.992" rx="4.657" ry="4.737" style="fill:#ffa30e;"/><ellipse cx="146.716" cy="15.822" rx="2.82" ry="2.869" style="fill:#ffc260;"/><g><path d="M138.308,63.119c1.665,-2.469 7.503,0.043 5.698,3.846c-1.804,3.802 -2.406,6.557 -1.718,8.261c0.687,1.705 4.67,3.453 6.56,4.239c1.89,0.787 1.246,6.439 -1.633,5.478c-2.878,-0.961 -7.646,-2.958 -10.138,-4.75c-1.216,-0.875 -2.765,-3.278 -2.593,-6.162c0.172,-2.884 0.945,-6.645 3.824,-10.912Z" style="fill:#c6ff40;"/><path d="M138.594,63.983c0.835,-0.983 2.815,-0.916 1.962,1.042c-0.852,1.958 -2.117,5.967 -2.172,9.183c-0.028,1.631 -3.712,2.256 -3.299,-0.821c0.412,-3.076 1.74,-7.322 3.509,-9.404Z" style="fill:#d8ff7d;"/><path d="M145.246,84.02c-0.145,-0.098 -4.555,-2.03 -6.052,-3.061c-1.496,-1.032 -0.964,-1.729 0.741,-1.032c2.261,0.925 5.827,2.407 5.827,2.407c0,0 -0.372,1.785 -0.516,1.686Z" style="fill:#b1c30f;"/><path d="M144.178,82.448c0.128,-4.65 1.304,-7.752 5.253,-9.11c4.764,-1.64 9.357,0.149 11.522,4.35c-0.369,0.553 -2.388,2.32 -2.388,2.32c0,0 -1.991,0.038 -3.294,0.017c-0.733,-1.374 -2.057,-2.694 -3.34,-2.531c-0.643,0.082 -2.08,1.392 -1.724,5.085c0.333,3.457 2.767,5.194 3.328,4.909c0.561,-0.286 1.163,-1.783 1.123,-3.333c1.016,-0.734 3.715,-1.224 3.715,-1.224c0,0 2.005,1.538 2.686,2.395c-0.16,0.856 -1.924,5.615 -7.858,5.819c-5.935,0.203 -9.155,-3.869 -9.023,-8.697Z" style="fill:#004fd7;"/><path d="M146.61,75.765c1.307,-1.8 3.89,-2.829 6.777,-2.625c2.887,0.204 5.613,1.617 7.137,4.391c-0.762,0.041 -3.731,-0.014 -3.986,-0.041c-1.778,-4.84 -8.32,-3.94 -9.928,-1.725Z" style="fill:#5e99ff;"/><path d="M147.75,84.437c-0.908,-2.284 1.473,-2.594 2.275,-0.555c0.802,2.039 1.912,3.944 3.075,3.822c-1.538,0.34 -4.109,-0.146 -5.35,-3.267Z" style="fill:#3680ff;"/><path d="M155.095,84.222c0.672,0.682 2.473,1.918 2.473,1.918l3.127,-0.79l-2.379,-2.135c0,0 -2.236,0.192 -3.221,1.007Z" style="fill:#8fb8ff;"/></g><ellipse cx="145.986" cy="14.747" rx="0.858" ry="0.839" style="fill:#fff;"/><ellipse cx="167.098" cy="39.918" rx="0.568" ry="0.555" style="fill:#fff;"/><ellipse cx="153.549" cy="43.859" rx="1.226" ry="1.247" style="fill:#fff;"/></g><g><path d="M77.28,110.236c-0.761,-0.336 -1.289,-1.048 -1.389,-1.874c-0.772,-6.329 -4.071,-33.37 -4.997,-40.966c-0.14,-1.148 0.572,-2.229 1.683,-2.553c6.382,-1.864 26.649,-7.782 30.402,-8.877c0.393,-0.115 0.81,-0.126 1.209,-0.031c4.144,0.988 28.243,6.731 35.317,8.416c1.125,0.269 1.891,1.312 1.808,2.466c-0.535,7.516 -2.418,33.943 -2.853,40.044c-0.056,0.789 -0.504,1.498 -1.192,1.888c-4.604,2.607 -22.27,12.613 -26.742,15.146c-0.65,0.368 -1.436,0.407 -2.119,0.105c-5.006,-2.214 -25.835,-11.423 -31.127,-13.764Z" style="fill:#ff8fc1;"/><path d="M79.036,109.623c-0.778,-0.328 -1.321,-1.046 -1.426,-1.884c-0.712,-5.703 -3.483,-27.895 -4.601,-36.853c-0.102,-0.811 0.224,-1.617 0.86,-2.13c0.636,-0.514 1.492,-0.662 2.264,-0.392c7.743,2.709 25.726,9 31.11,10.884c0.931,0.325 1.562,1.196 1.581,2.183c0.122,6.245 0.558,28.617 0.73,37.463c0.016,0.799 -0.374,1.553 -1.036,2.001c-0.662,0.449 -1.507,0.532 -2.244,0.221c-6.954,-2.934 -22.685,-9.572 -27.238,-11.493Z" style="fill:#ff64ac;"/><path d="M108.427,77.742c1.252,0.44 2.623,0.402 3.849,-0.108c4.19,-1.743 14.378,-5.981 21.179,-8.81c0.941,-0.391 1.525,-1.341 1.449,-2.357c-0.077,-1.016 -0.795,-1.869 -1.784,-2.116c-9.363,-2.338 -25.274,-6.312 -28.594,-7.141c-0.405,-0.101 -0.829,-0.093 -1.23,0.023c-2.775,0.805 -14.375,4.169 -22.082,6.403c-0.987,0.286 -1.675,1.177 -1.704,2.203c-0.028,1.027 0.61,1.954 1.578,2.295c8.47,2.976 22.272,7.827 27.339,9.608Z" style="fill:#ffabd1;"/></g><g><path d="M189.349,107.182c-0.761,-0.336 -1.289,-1.048 -1.389,-1.874c-0.455,-3.727 -1.741,-14.275 -2.281,-18.699c-0.14,-1.148 0.572,-2.229 1.683,-2.553c3.694,-1.079 11.608,-3.39 13.846,-4.044c0.394,-0.114 0.811,-0.125 1.21,-0.03c2.508,0.598 12.105,2.885 16.273,3.878c1.125,0.268 1.891,1.312 1.809,2.466c-0.312,4.372 -1.046,14.676 -1.302,18.27c-0.056,0.789 -0.504,1.497 -1.192,1.887c-2.697,1.528 -9.6,5.437 -12.223,6.923c-0.651,0.369 -1.437,0.407 -2.12,0.105c-2.966,-1.311 -11.188,-4.947 -14.314,-6.329Z" style="fill:#ffd500;"/><path d="M190.237,106.871c-0.778,-0.328 -1.321,-1.046 -1.426,-1.884c-0.392,-3.139 -1.374,-11.009 -1.965,-15.743c-0.102,-0.811 0.224,-1.617 0.86,-2.131c0.636,-0.513 1.492,-0.661 2.264,-0.391c3.928,1.374 10.04,3.512 12.881,4.506c0.932,0.326 1.563,1.197 1.582,2.184c0.066,3.405 0.22,11.306 0.311,15.974c0.016,0.799 -0.374,1.553 -1.037,2.001c-0.662,0.449 -1.506,0.532 -2.243,0.221c-3.505,-1.479 -8.824,-3.723 -11.227,-4.737Z" style="fill:#e6bf00;"/><path d="M203.241,90.409c1.253,0.44 2.624,0.401 3.849,-0.109c2.414,-1.004 6.616,-2.752 9.556,-3.974c0.47,-0.196 0.762,-0.671 0.724,-1.179c-0.038,-0.508 -0.398,-0.934 -0.892,-1.058c-4.413,-1.102 -11.728,-2.929 -13.887,-3.468c-0.405,-0.101 -0.83,-0.094 -1.231,0.023c-1.78,0.516 -7.059,2.047 -10.652,3.089c-0.493,0.143 -0.838,0.588 -0.852,1.101c-0.014,0.513 0.305,0.977 0.789,1.147c3.749,1.318 9.585,3.369 12.596,4.428Z" style="fill:#ffe666;"/></g></g><path d="M0,128.796l0,72.826l124.436,0l0,-11.858l-124.436,-60.968Z" style="fill:#ffa310;"/><path d="M124.436,201.622l0,-11.556l255.564,-122.471l0,134.027l-255.564,0Z" style="fill:#ffb641;"/></g></g><defs><linearGradient id="_Linear2" x1="0" y1="0" x2="1" y2="0" gradientUnits="userSpaceOnUse" gradientTransform="matrix(-1.68036e-12,-26.5971,21.3251,-7.52706,277.197,46.1873)"><stop offset="0%" style="stop-color:#fffffe;stop-opacity:1"/><stop offset="100%" style="stop-color:#e2ddee;stop-opacity:1"/></linearGradient><linearGradient id="_Linear3" x1="0" y1="0" x2="1" y2="0" gradientUnits="userSpaceOnUse" gradientTransform="matrix(15.3174,55.7652,-49.0466,36.4159,240.379,13.4738)"><stop offset="0%" style="stop-color:#fff;stop-opacity:1"/><stop offset="47%" style="stop-color:#fff;stop-opacity:0.733333"/><stop offset="100%" style="stop-color:#fff;stop-opacity:0"/></linearGradient></defs></svg>