<?xml version="1.0" standalone="no"?><!DOCTYPE svg PUBLIC "-//W3C//DTD SVG 1.1//EN" "http://www.w3.org/Graphics/SVG/1.1/DTD/svg11.dtd"><svg width="100%" height="100%" viewBox="0 0 1024 95" version="1.1" xmlns="http://www.w3.org/2000/svg" xmlns:xlink="http://www.w3.org/1999/xlink" xml:space="preserve" style="fill-rule:evenodd;clip-rule:evenodd;stroke-linejoin:round;stroke-miterlimit:1.41421;"><g id="news-bg"><g opacity="0.5"><path d="M78.096,86.987l0.922,-8.457l-7.992,-3.523l7.992,-3.524l-0.946,-8.685l7.046,5.162l7.051,-5.162l-0.942,8.685l7.988,3.524l-7.988,3.523l0.942,8.681l-7.051,-5.158l-5.916,4.331l-2.014,2.608l3.545,0.729l-3.588,0.461l1.995,3.025l-2.869,-2.215l-0.726,3.547l-0.462,-3.591l-3.019,1.994l2.208,-2.865l-3.545,-0.726l3.59,-0.464l-1.996,-3.021l2.869,2.213l0.725,-3.546l0.462,3.588l1.719,-1.134ZM626.756,88.059l3.025,-1.995l-2.215,2.868l3.552,0.726l-3.594,0.465l1.996,3.02l-2.868,-2.214l-0.727,3.547l-0.465,-3.59l-3.02,1.993l2.21,-2.863l-3.538,-0.728l3.588,-0.462l-1.995,-3.023l2.861,2.211l0.725,-3.548l0.465,3.593ZM721.601,86.123l3.022,-1.993l-2.213,2.864l3.55,0.726l-3.59,0.465l1.993,3.02l-2.868,-2.211l-0.723,3.544l-0.465,-3.592l-3.02,1.994l2.209,-2.862l-3.546,-0.728l3.591,-0.462l-1.989,-3.023l2.862,2.212l0.728,-3.545l0.459,3.591ZM737.486,81.123l5.291,-3.489l-3.872,5.018l6.209,1.272l-6.286,0.809l3.491,5.287l-5.017,-3.872l-1.269,6.205l-0.809,-6.282l-5.287,3.49l3.866,-5.015l-6.203,-1.274l6.283,-0.807l-3.487,-5.293l5.012,3.876l1.269,-6.205l0.809,6.28ZM458.554,84.378l3.021,-1.997l-2.212,2.868l3.549,0.726l-3.589,0.465l1.995,3.021l-2.87,-2.211l-0.728,3.543l-0.462,-3.588l-3.02,1.995l2.215,-2.867l-3.547,-0.732l3.586,-0.458l-1.989,-3.023l2.862,2.211l0.725,-3.544l0.464,3.591ZM470.959,87.409l-3.919,1.366l1.631,-3.813l-3.144,-2.707l4.12,-0.497l0.778,-4.078l2.489,3.318l3.914,-1.367l-1.632,3.813l3.145,2.708l-4.124,0.496l-0.77,4.082l-2.488,-3.321ZM942.464,84.592l-5.819,-1.076l4.717,-3.57l-1.984,-5.579l5.457,2.3l3.838,-4.507l0.736,5.874l5.819,1.072l-4.717,3.573l1.984,5.575l-5.453,-2.296l-3.838,4.503l-0.74,-5.869ZM759.926,84.172l-5.579,-1.968l5.217,-2.796l-1.089,-5.818l5.029,3.123l4.494,-3.851l-0.189,5.916l5.583,1.967l-5.218,2.792l1.089,5.818l-5.028,-3.123l-4.494,3.855l0.185,-5.915ZM115.389,83.54l3.022,-1.996l-2.213,2.867l3.55,0.732l-3.594,0.459l1.997,3.022l-2.867,-2.213l-0.728,3.546l-0.465,-3.591l-3.02,1.993l2.215,-2.866l-3.548,-0.729l3.589,-0.461l-1.991,-3.02l2.86,2.211l0.726,-3.543l0.467,3.589ZM920.612,83.438l2.197,-2.878l-1.146,3.434l3.589,-0.482l-3.237,1.618l2.875,2.195l-3.434,-1.146l0.483,3.588l-1.621,-3.233l-2.197,2.876l1.146,-3.434l-3.588,0.483l3.241,-1.621l-2.88,-2.192l3.431,1.14l-0.479,-3.587l1.62,3.239ZM60.59,78.467l5.285,-3.49l-3.87,5.015l6.212,1.275l-6.288,0.809l3.488,5.287l-5.01,-3.869l-1.271,6.202l-0.813,-6.283l-5.287,3.491l3.87,-5.015l-6.203,-1.274l6.281,-0.81l-3.486,-5.29l5.01,3.873l1.267,-6.202l0.815,6.281ZM491.534,81.41l-8.556,1.753l4.482,-7.501l-5.793,-6.533l8.732,0.13l2.758,-8.286l4.259,7.622l8.555,-1.749l-4.482,7.5l5.794,6.534l-8.732,-0.131l-2.762,8.287l-4.255,-7.626ZM397.322,81.607l-4.788,7.303l-2.161,-8.467l-8.72,-0.505l6.256,-6.096l-3.927,-7.799l8.404,2.363l4.797,-7.303l2.157,8.463l8.72,0.505l-6.252,6.1l3.922,7.799l-8.408,-2.363ZM29.359,82.463l3.156,-1.781l-2.407,2.705l3.492,0.974l-3.622,0.21l1.78,3.153l-2.706,-2.409l-0.972,3.49l-0.21,-3.616l-3.154,1.774l2.409,-2.699l-3.489,-0.975l3.617,-0.21l-1.776,-3.158l2.7,2.412l0.975,-3.488l0.207,3.618ZM617.435,82.078l3.021,-1.997l-2.212,2.869l3.549,0.726l-3.589,0.464l1.995,3.021l-2.871,-2.211l-0.728,3.544l-0.461,-3.59l-3.02,1.992l2.213,-2.862l-3.545,-0.728l3.588,-0.462l-1.991,-3.028l2.862,2.214l0.724,-3.542l0.465,3.59ZM423.861,77.182l5.291,-3.491l-3.874,5.019l6.207,1.274l-6.281,0.809l3.486,5.287l-5.015,-3.869l-1.271,6.203l-0.809,-6.281l-5.283,3.489l3.866,-5.016l-6.207,-1.278l6.281,-0.806l-3.486,-5.29l5.015,3.873l1.271,-6.206l0.809,6.283ZM684.341,81.664l3.02,-1.995l-2.214,2.868l3.551,0.727l-3.59,0.464l1.993,3.021l-2.867,-2.21l-0.728,3.543l-0.462,-3.592l-3.019,1.994l2.21,-2.863l-3.547,-0.732l3.591,-0.458l-1.989,-3.023l2.861,2.211l0.725,-3.548l0.465,3.593ZM270.539,81.632l3.02,-1.992l-2.213,2.866l3.55,0.728l-3.593,0.462l1.995,3.023l-2.865,-2.211l-0.725,3.544l-0.465,-3.592l-3.02,1.995l2.209,-2.867l-3.547,-0.728l3.592,-0.462l-1.99,-3.023l2.862,2.214l0.729,-3.543l0.461,3.586ZM184.304,78.9l-8.19,-3.027l7.761,-4.007l-1.48,-8.61l7.349,4.717l6.718,-5.587l-0.412,8.727l8.194,3.023l-7.757,4.007l1.476,8.61l-7.349,-4.713l-6.714,5.579l0.404,-8.719ZM890.027,80.976l3.021,-1.992l-2.209,2.865l3.546,0.725l-3.591,0.465l1.993,3.02l-2.865,-2.208l-0.725,3.545l-0.465,-3.59l-3.021,1.993l2.21,-2.866l-3.547,-0.729l3.592,-0.462l-1.99,-3.023l2.861,2.211l0.725,-3.544l0.465,3.59ZM1007.98,82.053l-7.046,5.158l0.946,-8.681l-7.992,-3.523l7.992,-3.524l-0.946,-8.685l7.046,5.162l7.046,-5.162l-0.942,8.685l7.993,3.524l-7.993,3.523l0.942,8.681l-7.046,-5.158ZM698.246,82.053l-7.042,5.158l0.942,-8.681l-7.992,-3.523l7.992,-3.524l-0.942,-8.685l7.042,5.162l7.046,-5.162l-0.942,8.685l7.989,3.524l-7.989,3.523l0.942,8.681l-7.046,-5.158ZM902.923,82.053l-7.046,5.158l0.946,-8.681l-7.992,-3.523l7.992,-3.524l-0.946,-8.685l7.046,5.162l7.046,-5.162l-0.941,8.685l7.988,3.524l-7.988,3.523l0.941,8.681l-7.046,-5.158ZM599.536,82.053l-7.051,5.158l0.946,-8.681l-7.992,-3.523l7.992,-3.524l-0.946,-8.685l7.051,5.162l7.046,-5.162l-0.946,8.685l7.992,3.524l-7.992,3.523l0.946,8.681l-7.046,-5.158ZM289.8,82.053l-7.051,5.158l0.946,-8.681l-7.996,-3.523l7.996,-3.524l-0.946,-8.685l7.051,5.162l7.046,-5.162l-0.946,8.685l7.992,3.524l-7.992,3.523l0.946,8.681l-7.046,-5.158ZM246.301,75.892l5.291,-3.488l-3.871,5.016l6.208,1.274l-6.286,0.806l3.491,5.29l-5.017,-3.874l-1.269,6.207l-0.812,-6.282l-5.288,3.486l3.869,-5.014l-6.198,-1.271l6.28,-0.81l-3.489,-5.29l5.011,3.872l1.271,-6.201l0.809,6.279ZM38.737,80.712l-5.587,1.955l2.329,-5.445l-4.49,-3.859l5.878,-0.707l1.105,-5.814l3.549,4.734l5.583,-1.951l-2.321,5.44l4.482,3.86l-5.878,0.706l-1.097,5.819l-3.553,-4.738ZM672.725,78.436l2.293,-2.803l-1.259,3.395l3.601,-0.36l-3.289,1.51l2.797,2.291l-3.391,-1.259l0.359,3.601l-1.507,-3.288l-2.293,2.8l1.258,-3.391l-3.6,0.36l3.29,-1.512l-2.802,-2.293l3.395,1.26l-0.36,-3.602l1.508,3.291ZM780.816,78.376l3.023,-1.995l-2.215,2.866l3.552,0.729l-3.594,0.461l1.992,3.02l-2.865,-2.211l-0.725,3.544l-0.462,-3.59l-3.019,1.996l2.209,-2.865l-3.546,-0.729l3.59,-0.462l-1.992,-3.024l2.864,2.214l0.726,-3.546l0.462,3.592ZM861.717,73.525l5.29,-3.492l-3.871,5.02l6.208,1.274l-6.286,0.806l3.491,5.29l-5.017,-3.874l-1.269,6.207l-0.81,-6.283l-5.286,3.487l3.87,-5.015l-6.207,-1.274l6.284,-0.807l-3.489,-5.289l5.015,3.874l1.271,-6.208l0.806,6.284ZM847.804,78.019l3.021,-1.995l-2.21,2.866l3.547,0.729l-3.592,0.461l1.994,3.02l-2.865,-2.209l-0.725,3.546l-0.462,-3.593l-3.024,1.995l2.213,-2.866l-3.549,-0.729l3.59,-0.461l-1.989,-3.02l2.864,2.213l0.723,-3.545l0.464,3.588ZM564.655,72.234l5.291,-3.492l-3.868,5.016l6.202,1.274l-6.284,0.809l3.488,5.287l-5.013,-3.873l-1.272,6.206l-0.809,-6.277l-5.287,3.486l3.87,-5.015l-6.208,-1.275l6.287,-0.81l-3.491,-5.286l5.014,3.872l1.271,-6.205l0.809,6.283ZM798.201,77.588l-7.046,5.158l0.941,-8.681l-7.988,-3.523l7.988,-3.523l-0.941,-8.682l7.046,5.158l7.046,-5.158l-0.946,8.682l7.992,3.523l-7.992,3.523l0.946,8.681l-7.046,-5.158ZM987.805,75.206l3.024,-1.995l-2.214,2.871l3.547,0.728l-3.592,0.459l1.994,3.022l-2.865,-2.211l-0.725,3.544l-0.465,-3.587l-3.021,1.989l2.213,-2.865l-3.545,-0.729l3.588,-0.459l-1.991,-3.022l2.862,2.212l0.729,-3.545l0.461,3.588ZM172.582,75.206l3.023,-1.995l-2.213,2.87l3.55,0.729l-3.595,0.459l1.993,3.022l-2.863,-2.212l-0.723,3.545l-0.462,-3.591l-3.023,1.993l2.209,-2.866l-3.546,-0.728l3.591,-0.459l-1.993,-3.022l2.868,2.216l0.726,-3.549l0.458,3.588ZM976.823,75.2l3.159,-1.778l-2.41,2.704l3.486,0.974l-3.615,0.21l1.778,3.154l-2.703,-2.407l-0.971,3.487l-0.21,-3.616l-3.154,1.779l2.405,-2.704l-3.485,-0.975l3.612,-0.21l-1.775,-3.153l2.702,2.408l0.968,-3.489l0.213,3.616ZM453.764,72.405l4.229,-2.792l-3.097,4.011l4.968,1.017l-5.03,0.647l2.793,4.234l-4.012,-3.098l-1.016,4.96l-0.648,-5.025l-4.233,2.793l3.1,-4.012l-4.963,-1.021l5.023,-0.644l-2.79,-4.232l4.011,3.1l1.017,-4.967l0.648,5.029ZM155.45,74.563l3.023,-1.995l-2.218,2.869l3.551,0.726l-3.592,0.462l1.994,3.023l-2.865,-2.212l-0.725,3.545l-0.465,-3.592l-3.016,1.994l2.209,-2.866l-3.55,-0.728l3.592,-0.46l-1.991,-3.022l2.862,2.212l0.729,-3.549l0.462,3.593ZM329.751,74.5l3.024,-1.995l-2.211,2.867l3.544,0.728l-3.591,0.462l1.993,3.023l-2.865,-2.212l-0.725,3.545l-0.465,-3.587l-3.016,1.989l2.209,-2.866l-3.551,-0.729l3.591,-0.462l-1.989,-3.019l2.863,2.21l0.728,-3.547l0.461,3.593ZM512.474,74.5l3.024,-1.995l-2.213,2.866l3.55,0.729l-3.595,0.462l1.993,3.023l-2.863,-2.213l-0.723,3.546l-0.465,-3.592l-3.025,1.994l2.213,-2.866l-3.545,-0.729l3.589,-0.461l-1.992,-3.02l2.865,2.211l0.726,-3.548l0.461,3.593ZM349,73.648l3.026,-1.996l-2.215,2.865l3.548,0.729l-3.593,0.462l1.995,3.019l-2.867,-2.215l-0.723,3.552l-0.465,-3.592l-3.021,1.995l2.213,-2.866l-3.545,-0.729l3.591,-0.462l-1.998,-3.023l2.866,2.215l0.729,-3.544l0.459,3.59ZM652.974,72.565l3.024,-1.998l-2.215,2.87l3.548,0.729l-3.589,0.461l1.995,3.02l-2.869,-2.21l-0.725,3.542l-0.465,-3.59l-3.021,1.993l2.213,-2.863l-3.545,-0.732l3.586,-0.458l-1.989,-3.023l2.862,2.212l0.729,-3.545l0.461,3.592ZM525.752,72.446l-5.81,-1.131l4.75,-3.527l-1.925,-5.592l5.432,2.35l3.884,-4.469l0.677,5.882l5.811,1.127l-4.755,3.527l1.929,5.596l-5.436,-2.354l-3.876,4.469l-0.681,-5.878ZM874.415,67.952l-5.584,1.955l2.325,-5.445l-4.486,-3.859l5.874,-0.706l1.105,-5.819l3.549,4.738l5.583,-1.955l-2.321,5.445l4.486,3.859l-5.877,0.706l-1.106,5.819l-3.548,-4.738ZM979.473,67.952l-5.587,1.955l2.329,-5.445l-4.486,-3.859l5.878,-0.706l1.097,-5.819l3.553,4.738l5.587,-1.955l-2.329,5.445l4.486,3.859l-5.874,0.706l-1.101,5.819l-3.553,-4.738ZM669.742,67.952l-5.592,1.955l2.329,-5.445l-4.486,-3.859l5.873,-0.706l1.102,-5.819l3.553,4.738l5.587,-1.955l-2.325,5.445l4.482,3.859l-5.874,0.706l-1.101,5.819l-3.548,-4.738ZM774.796,67.952l-5.583,1.955l2.325,-5.445l-4.486,-3.859l5.877,-0.706l1.102,-5.819l3.548,4.738l5.588,-1.955l-2.329,5.445l4.485,3.859l-5.873,0.706l-1.101,5.819l-3.553,-4.738ZM161.668,67.952l-5.587,1.955l2.329,-5.445l-4.482,-3.859l5.874,-0.706l1.101,-5.819l3.553,4.738l5.583,-1.955l-2.325,5.445l4.482,3.859l-5.87,0.706l-1.105,5.819l-3.553,-4.738ZM366.346,67.952l-5.584,1.955l2.325,-5.445l-4.486,-3.859l5.882,-0.706l1.097,-5.819l3.549,4.738l5.587,-1.955l-2.325,5.445l4.486,3.859l-5.877,0.706l-1.098,5.819l-3.556,-4.738ZM261.291,67.952l-5.583,1.955l2.321,-5.445l-4.482,-3.859l5.869,-0.706l1.106,-5.819l3.552,4.738l5.583,-1.955l-2.325,5.445l4.486,3.859l-5.877,0.706l-1.102,5.819l-3.548,-4.738ZM414.521,64.847l3.023,-1.995l-2.214,2.865l3.551,0.73l-3.598,0.462l1.996,3.019l-2.864,-2.211l-0.726,3.548l-0.465,-3.592l-3.02,1.994l2.212,-2.866l-3.545,-0.728l3.59,-0.462l-1.992,-3.024l2.861,2.217l0.729,-3.549l0.462,3.592ZM820.447,59.32l5.291,-3.493l-3.871,5.02l6.209,1.274l-6.286,0.806l3.49,5.29l-5.017,-3.872l-1.268,6.205l-0.81,-6.283l-5.286,3.487l3.869,-5.014l-6.207,-1.271l6.282,-0.81l-3.486,-5.29l5.013,3.873l1.268,-6.207l0.809,6.285ZM934.846,64.05l-5.81,-1.131l4.754,-3.523l-1.929,-5.595l5.432,2.35l3.884,-4.469l0.677,5.877l5.81,1.131l-4.75,3.532l1.925,5.591l-5.432,-2.35l-3.88,4.469l-0.681,-5.882ZM321.718,64.05l-5.806,-1.131l4.755,-3.523l-1.93,-5.595l5.428,2.35l3.884,-4.469l0.681,5.877l5.807,1.131l-4.747,3.532l1.921,5.591l-5.427,-2.35l-3.885,4.469l-0.681,-5.882ZM117.041,64.05l-5.806,-1.131l4.75,-3.523l-1.929,-5.595l5.432,2.35l3.884,-4.469l0.677,5.877l5.81,1.131l-4.75,3.532l1.925,5.591l-5.432,-2.35l-3.88,4.469l-0.681,-5.882ZM56.614,64.769l-5.588,1.955l2.329,-5.444l-4.49,-3.86l5.878,-0.71l1.101,-5.81l3.553,4.734l5.583,-1.955l-2.325,5.444l4.486,3.86l-5.877,0.71l-1.102,5.81l-3.548,-4.734ZM575.963,64.437l-5.592,1.955l2.338,-5.444l-4.49,-3.86l5.873,-0.706l1.101,-5.819l3.553,4.734l5.587,-1.951l-2.329,5.441l4.486,3.863l-5.877,0.707l-1.102,5.818l-3.548,-4.738ZM716.895,61.586l3.024,-1.992l-2.214,2.865l3.551,0.725l-3.595,0.465l1.993,3.021l-2.865,-2.214l-0.726,3.546l-0.464,-3.589l-3.017,1.992l2.207,-2.863l-3.544,-0.728l3.592,-0.462l-1.994,-3.023l2.862,2.212l0.728,-3.545l0.462,3.59ZM210.857,58.324l-7.235,-1.021l5.634,-4.65l-2.733,-6.773l6.844,2.552l4.499,-5.756l1.211,7.202l7.231,1.022l-5.63,4.645l2.733,6.773l-6.84,-2.547l-4.503,5.751l-1.211,-7.198ZM729.811,58.408l-5.806,-1.126l4.751,-3.528l-1.926,-5.595l5.428,2.35l3.885,-4.469l0.677,5.881l5.81,1.127l-4.751,3.532l1.93,5.591l-5.436,-2.35l-3.881,4.469l-0.681,-5.882ZM956.438,56.422l3.023,-1.995l-2.212,2.866l3.545,0.729l-3.59,0.461l1.992,3.02l-2.865,-2.209l-0.725,3.546l-0.464,-3.591l-3.021,1.993l2.212,-2.866l-3.545,-0.729l3.588,-0.461l-1.99,-3.024l2.862,2.212l0.728,-3.545l0.462,3.593ZM753.28,48.826l5.288,-3.489l-3.872,5.019l6.209,1.271l-6.281,0.809l3.486,5.287l-5.015,-3.869l-1.271,6.202l-0.809,-6.282l-5.287,3.491l3.868,-5.016l-6.205,-1.274l6.284,-0.807l-3.489,-5.293l5.014,3.872l1.268,-6.201l0.812,6.28ZM426.837,52.421l3.156,-1.778l-2.407,2.701l3.492,0.974l-3.621,0.209l1.779,3.154l-2.706,-2.409l-0.973,3.489l-0.209,-3.614l-3.15,1.777l2.406,-2.702l-3.49,-0.976l3.617,-0.211l-1.776,-3.153l2.699,2.409l0.975,-3.489l0.208,3.619ZM534.425,51.904l3.023,-1.997l-2.21,2.867l3.547,0.728l-3.589,0.461l1.996,3.02l-2.873,-2.215l-0.726,3.552l-0.462,-3.59l-3.019,1.992l2.212,-2.865l-3.549,-0.729l3.593,-0.462l-1.991,-3.023l2.861,2.211l0.725,-3.54l0.462,3.59ZM30.287,50.167l3.149,-1.777l-2.408,2.704l3.488,0.974l-3.612,0.21l1.775,3.158l-2.701,-2.408l-0.973,3.48l-0.213,-3.611l-3.151,1.778l2.407,-2.703l-3.491,-0.976l3.616,-0.21l-1.775,-3.153l2.702,2.405l0.977,-3.485l0.21,3.614ZM254.634,47.978l3.02,-1.997l-2.213,2.87l3.55,0.729l-3.59,0.461l1.993,3.024l-2.867,-2.213l-0.728,3.541l-0.461,-3.587l-3.02,1.994l2.212,-2.866l-3.549,-0.729l3.591,-0.462l-1.989,-3.023l2.861,2.211l0.725,-3.544l0.465,3.591ZM395.067,45.244l3.155,-1.777l-2.405,2.701l3.485,0.977l-3.618,0.207l1.781,3.157l-2.704,-2.408l-0.975,3.484l-0.209,-3.611l-3.15,1.774l2.406,-2.703l-3.486,-0.972l3.611,-0.213l-1.774,-3.154l2.699,2.411l0.971,-3.488l0.213,3.615ZM614.456,45.046l3.158,-1.781l-2.408,2.705l3.488,0.973l-3.618,0.21l1.781,3.154l-2.707,-2.41l-0.972,3.49l-0.21,-3.614l-3.153,1.777l2.408,-2.702l-3.489,-0.972l3.617,-0.213l-1.775,-3.155l2.699,2.408l0.971,-3.488l0.21,3.618ZM337.676,43.193l3.158,-1.778l-2.408,2.705l3.485,0.974l-3.614,0.212l1.776,3.155l-2.703,-2.412l-0.975,3.488l-0.207,-3.613l-3.157,1.776l2.406,-2.701l-3.486,-0.977l3.618,-0.21l-1.777,-3.15l2.703,2.407l0.972,-3.487l0.209,3.611ZM85.168,30.954l4.226,-2.791l-3.094,4.012l4.965,1.017l-5.026,0.647l2.793,4.229l-4.013,-3.096l-1.019,4.967l-0.648,-5.027l-4.229,2.791l3.098,-4.013l-4.965,-1.02l5.026,-0.645l-2.789,-4.232l4.008,3.097l1.016,-4.959l0.651,5.023ZM699.247,25.452l4.229,-2.792l-3.095,4.013l4.966,1.019l-5.028,0.645l2.795,4.232l-4.016,-3.098l-1.016,4.965l-0.647,-5.026l-4.226,2.789l3.095,-4.011l-4.966,-1.017l5.025,-0.647l-2.788,-4.234l4.008,3.099l1.016,-4.966l0.648,5.029ZM874.823,24.327l4.233,-2.794l-3.102,4.017l4.969,1.02l-5.027,0.644l2.79,4.229l-4.012,-3.095l-1.016,4.961l-0.648,-5.025l-4.229,2.793l3.096,-4.013l-4.963,-1.02l5.025,-0.644l-2.788,-4.232l4.008,3.096l1.016,-4.963l0.648,5.026ZM647.593,23.426l4.23,-2.792l-3.093,4.013l4.964,1.019l-5.027,0.651l2.79,4.226l-4.012,-3.095l-1.016,4.962l-0.65,-5.022l-4.227,2.785l3.093,-4.006l-4.959,-1.022l5.021,-0.647l-2.785,-4.226l4.005,3.094l1.019,-4.961l0.647,5.021ZM494.212,20.542l4.229,-2.792l-3.097,4.016l4.968,1.02l-5.028,0.642l2.792,4.231l-4.013,-3.093l-1.016,4.959l-0.647,-5.026l-4.229,2.794l3.097,-4.015l-4.968,-1.017l5.025,-0.645l-2.789,-4.236l4.012,3.1l1.017,-4.963l0.647,5.025ZM562.518,17.787l4.229,-2.795l-3.101,4.013l4.968,1.019l-5.029,0.645l2.788,4.232l-4.005,-3.092l-1.019,4.959l-0.648,-5.028l-4.229,2.795l3.103,-4.015l-4.978,-1.022l5.029,-0.644l-2.784,-4.232l4.01,3.098l1.018,-4.961l0.648,5.028ZM254.975,14.082l4.231,-2.794l-3.098,4.015l4.969,1.017l-5.028,0.648l2.791,4.233l-4.013,-3.101l-1.02,4.964l-0.644,-5.025l-4.228,2.792l3.096,-4.014l-4.963,-1.022l5.024,-0.642l-2.791,-4.231l4.011,3.097l1.013,-4.964l0.65,5.027ZM1017.9,5.212l4.231,-2.791l-3.098,4.013l4.969,1.019l-5.028,0.648l2.791,4.229l-4.012,-3.097l-1.016,4.964l-0.651,-5.027l-4.226,2.79l3.094,-4.01l-4.965,-1.022l5.027,-0.645l-2.79,-4.232l4.009,3.097l1.015,-4.959l0.65,5.023Z" style="fill:#f39c12;"/><path d="M451.005,93.959c2.208,-0.42 3.662,-2.552 3.233,-4.759c-0.42,-2.212 -2.552,-3.662 -4.763,-3.237c-2.207,0.42 -3.658,2.556 -3.233,4.767c0.425,2.207 2.552,3.654 4.763,3.229ZM726.191,90.411c-0.899,0 -1.627,0.731 -1.627,1.631c0,0.9 0.728,1.627 1.627,1.627c0.9,0 1.632,-0.727 1.632,-1.627c0,-0.9 -0.732,-1.631 -1.632,-1.631ZM64.61,93.366c0.9,0 1.631,-0.727 1.631,-1.627c0,-0.899 -0.731,-1.631 -1.631,-1.631c-0.891,0 -1.623,0.732 -1.623,1.631c0,0.9 0.732,1.627 1.623,1.627ZM428.639,93.143c0.9,0 1.631,-0.727 1.631,-1.627c0,-0.899 -0.731,-1.631 -1.631,-1.631c-0.895,0 -1.627,0.732 -1.627,1.631c0,0.9 0.732,1.627 1.627,1.627ZM243.116,92.929c0.896,0 1.627,-0.732 1.627,-1.631c0,-0.896 -0.731,-1.627 -1.627,-1.627c-0.9,0 -1.631,0.731 -1.631,1.627c0,0.899 0.731,1.631 1.631,1.631ZM264.083,92.824c1.828,0 3.317,-1.488 3.317,-3.317c0,-1.833 -1.489,-3.322 -3.317,-3.322c-1.838,0 -3.318,1.489 -3.318,3.322c0,1.829 1.48,3.317 3.318,3.317ZM924.142,88.212c0,2.249 1.82,4.07 4.074,4.07c2.249,0 4.069,-1.821 4.069,-4.07c0,-2.249 -1.82,-4.07 -4.069,-4.07c-2.254,0 -4.074,1.821 -4.074,4.07ZM608.869,92.176c1.829,0 3.317,-1.484 3.317,-3.317c0,-1.833 -1.488,-3.321 -3.317,-3.321c-1.833,0 -3.317,1.488 -3.317,3.321c0,1.833 1.484,3.317 3.317,3.317ZM908.326,91.983c0.895,0 1.627,-0.727 1.627,-1.627c0,-0.9 -0.732,-1.631 -1.627,-1.631c-0.904,0 -1.632,0.731 -1.632,1.631c0,0.9 0.728,1.627 1.632,1.627ZM635.645,91.777c0.9,0 1.627,-0.727 1.627,-1.627c0,-0.9 -0.727,-1.631 -1.627,-1.631c-0.899,0 -1.627,0.731 -1.627,1.631c0,0.9 0.728,1.627 1.627,1.627ZM252.117,91.777c0.904,0 1.632,-0.727 1.632,-1.627c0,-0.9 -0.728,-1.631 -1.632,-1.631c-0.899,0 -1.627,0.731 -1.627,1.631c0,0.9 0.728,1.627 1.627,1.627ZM87.166,91.777c0.899,0 1.627,-0.727 1.627,-1.627c0,-0.9 -0.728,-1.631 -1.627,-1.631c-0.9,0 -1.627,0.731 -1.627,1.631c0,0.9 0.727,1.627 1.627,1.627ZM437.119,91.638c2.249,0 4.07,-1.82 4.07,-4.069c0,-2.25 -1.821,-4.074 -4.07,-4.074c-2.249,0 -4.074,1.824 -4.074,4.074c0,2.249 1.825,4.069 4.074,4.069ZM900.788,91.134c0.899,0 1.627,-0.732 1.627,-1.627c0,-0.9 -0.728,-1.631 -1.627,-1.631c-0.9,0 -1.632,0.731 -1.632,1.631c0,0.895 0.732,1.627 1.632,1.627ZM279.264,91.134c0.904,0 1.631,-0.732 1.631,-1.627c0,-0.9 -0.727,-1.631 -1.631,-1.631c-0.9,0 -1.627,0.731 -1.627,1.631c0,0.895 0.727,1.627 1.627,1.627ZM880.111,89.242c0,0.9 0.732,1.631 1.627,1.631c0.9,0 1.632,-0.731 1.632,-1.631c0,-0.9 -0.732,-1.627 -1.632,-1.627c-0.895,0 -1.627,0.727 -1.627,1.627ZM709.976,90.348c2.253,0 4.074,-1.825 4.074,-4.07c0,-2.253 -1.821,-4.074 -4.074,-4.074c-2.245,0 -4.07,1.821 -4.07,4.074c0,2.245 1.825,4.07 4.07,4.07ZM230.949,89.704c2.249,0 4.074,-1.824 4.074,-4.073c0,-2.25 -1.825,-4.07 -4.074,-4.07c-2.245,0 -4.074,1.82 -4.074,4.07c0,2.249 1.829,4.073 4.074,4.073ZM588.857,89.398c0.9,0 1.627,-0.732 1.627,-1.632c0,-0.899 -0.727,-1.627 -1.627,-1.627c-0.904,0 -1.631,0.728 -1.631,1.627c0,0.9 0.727,1.632 1.631,1.632ZM102.145,89.128c2.249,-0.428 3.729,-2.606 3.296,-4.855c-0.429,-2.254 -2.606,-3.734 -4.856,-3.301c-2.257,0.429 -3.733,2.603 -3.3,4.86c0.429,2.25 2.602,3.729 4.86,3.296ZM44.552,89.196c0.899,0 1.627,-0.728 1.627,-1.627c0,-0.9 -0.728,-1.632 -1.627,-1.632c-0.9,0 -1.627,0.732 -1.627,1.632c0,0.899 0.727,1.627 1.627,1.627ZM482.47,88.952c0.904,0 1.631,-0.732 1.631,-1.627c0,-0.9 -0.727,-1.631 -1.631,-1.631c-0.896,0 -1.627,0.731 -1.627,1.631c0,0.895 0.731,1.627 1.627,1.627ZM409.354,88.948c1.833,0 3.322,-1.484 3.322,-3.317c0,-1.833 -1.489,-3.318 -3.322,-3.318c-1.828,0 -3.317,1.485 -3.317,3.318c0,1.833 1.489,3.317 3.317,3.317ZM216.579,85.408c-0.895,0 -1.627,0.731 -1.627,1.631c0,0.9 0.732,1.627 1.627,1.627c0.904,0 1.631,-0.727 1.631,-1.627c0,-0.9 -0.727,-1.631 -1.631,-1.631ZM125.344,88.262c0.895,0 1.627,-0.727 1.627,-1.627c0,-0.899 -0.732,-1.627 -1.627,-1.627c-0.904,0 -1.635,0.728 -1.635,1.627c0,0.9 0.731,1.627 1.635,1.627ZM963.724,84.34c0,1.833 1.485,3.317 3.317,3.317c1.834,0 3.318,-1.484 3.318,-3.317c0,-1.833 -1.484,-3.317 -3.318,-3.317c-1.832,0 -3.317,1.484 -3.317,3.317ZM305.532,87.279c1.833,0 3.317,-1.484 3.317,-3.318c0,-1.828 -1.484,-3.317 -3.317,-3.317c-1.833,0 -3.322,1.489 -3.322,3.317c0,1.834 1.489,3.318 3.322,3.318ZM749.987,86.64c2.249,0 4.07,-1.825 4.07,-4.074c0,-2.25 -1.821,-4.07 -4.07,-4.07c-2.249,0 -4.07,1.82 -4.07,4.07c0,2.249 1.821,4.074 4.07,4.074ZM773.589,86.614c0.9,0 1.627,-0.731 1.627,-1.631c0,-0.895 -0.727,-1.627 -1.627,-1.627c-0.899,0 -1.627,0.732 -1.627,1.627c0,0.9 0.728,1.631 1.627,1.631ZM954.996,83.356c-0.903,0 -1.631,0.732 -1.631,1.627c0,0.9 0.728,1.631 1.631,1.631c0.9,0 1.627,-0.731 1.627,-1.631c0,-0.895 -0.727,-1.627 -1.627,-1.627ZM787.808,86.202c0.896,0 1.627,-0.731 1.627,-1.631c0,-0.9 -0.731,-1.627 -1.627,-1.627c-0.9,0 -1.631,0.727 -1.631,1.627c0,0.9 0.731,1.631 1.631,1.631ZM134.639,82.566c-0.903,0 -1.631,0.731 -1.631,1.627c0,0.899 0.728,1.631 1.631,1.631c0.896,0 1.623,-0.732 1.623,-1.631c0,-0.896 -0.727,-1.627 -1.623,-1.627ZM205.972,79.085c-1.833,0 -3.321,1.484 -3.321,3.317c0,1.833 1.488,3.317 3.321,3.317c1.829,0 3.317,-1.484 3.317,-3.317c0,-1.833 -1.488,-3.317 -3.317,-3.317ZM875.916,85.353c2.699,0 4.889,-2.19 4.889,-4.889c0,-2.7 -2.19,-4.886 -4.889,-4.886c-2.7,0 -4.886,2.186 -4.886,4.886c0,2.699 2.186,4.889 4.886,4.889ZM583.038,84.676c0.896,0 1.627,-0.731 1.627,-1.627c0,-0.9 -0.731,-1.631 -1.627,-1.631c-0.904,0 -1.631,0.731 -1.631,1.631c0,0.896 0.727,1.627 1.631,1.627ZM513.219,80.792c-0.9,0 -1.631,0.731 -1.631,1.631c0,0.899 0.731,1.627 1.631,1.627c0.896,0 1.627,-0.728 1.627,-1.627c0,-0.9 -0.731,-1.631 -1.627,-1.631ZM144.368,83.924c2.249,0 4.074,-1.821 4.074,-4.074c0,-2.245 -1.825,-4.07 -4.074,-4.07c-2.249,0 -4.074,1.825 -4.074,4.07c0,2.253 1.825,4.074 4.074,4.074ZM833.096,82.86c2.699,0 4.885,-2.186 4.885,-4.89c0,-2.694 -2.186,-4.885 -4.885,-4.885c-2.704,0 -4.89,2.191 -4.89,4.885c0,2.704 2.186,4.89 4.89,4.89ZM548.085,79.173c0,1.833 1.479,3.317 3.317,3.317c1.833,0 3.317,-1.484 3.317,-3.317c0,-1.829 -1.484,-3.317 -3.317,-3.317c-1.838,0 -3.317,1.488 -3.317,3.317ZM816.695,81.935c1.829,0 3.313,-1.484 3.313,-3.317c0,-1.833 -1.484,-3.317 -3.313,-3.317c-1.833,0 -3.321,1.484 -3.321,3.317c0,1.833 1.488,3.317 3.321,3.317ZM372.866,81.801c0.9,0 1.627,-0.732 1.627,-1.632c0,-0.899 -0.727,-1.631 -1.627,-1.631c-0.904,0 -1.631,0.732 -1.631,1.631c0,0.9 0.727,1.632 1.631,1.632ZM521.3,81.775c0.904,0 1.635,-0.731 1.635,-1.631c0,-0.9 -0.731,-1.631 -1.635,-1.631c-0.892,0 -1.623,0.731 -1.623,1.631c0,0.9 0.731,1.631 1.623,1.631ZM576.585,81.452c0.891,0 1.623,-0.732 1.623,-1.636c0,-0.895 -0.732,-1.627 -1.623,-1.627c-0.904,0 -1.64,0.732 -1.64,1.627c0,0.904 0.736,1.636 1.64,1.636ZM1.631,81.452c0.896,0 1.627,-0.732 1.627,-1.636c0,-0.895 -0.731,-1.627 -1.627,-1.627c-0.904,0 -1.631,0.732 -1.631,1.627c0,0.904 0.727,1.636 1.631,1.636ZM363.764,81.267c1.829,0 3.317,-1.485 3.317,-3.318c0,-1.833 -1.488,-3.321 -3.317,-3.321c-1.837,0 -3.321,1.488 -3.321,3.321c0,1.833 1.484,3.318 3.321,3.318ZM353.96,81.094c0.9,0 1.627,-0.731 1.627,-1.631c0,-0.9 -0.727,-1.627 -1.627,-1.627c-0.9,0 -1.631,0.727 -1.631,1.627c0,0.9 0.731,1.631 1.631,1.631ZM660.597,80.8c0.904,0 1.632,-0.727 1.632,-1.627c0,-0.9 -0.728,-1.631 -1.632,-1.631c-0.899,0 -1.627,0.731 -1.627,1.631c0,0.9 0.728,1.627 1.627,1.627ZM257.961,80.8c0.9,0 1.627,-0.727 1.627,-1.627c0,-0.9 -0.727,-1.631 -1.627,-1.631c-0.9,0 -1.631,0.731 -1.631,1.631c0,0.9 0.731,1.627 1.631,1.627ZM341.217,76.898c-0.895,0 -1.623,0.728 -1.623,1.627c0,0.9 0.728,1.632 1.623,1.632c0.904,0 1.631,-0.732 1.631,-1.632c0,-0.899 -0.727,-1.627 -1.631,-1.627ZM626.194,79.728c2.695,0 4.886,-2.186 4.886,-4.885c0,-2.7 -2.191,-4.886 -4.886,-4.886c-2.703,0 -4.885,2.186 -4.885,4.886c0,2.699 2.182,4.885 4.885,4.885ZM316.454,79.728c2.699,0 4.886,-2.186 4.886,-4.885c0,-2.7 -2.187,-4.886 -4.886,-4.886c-2.695,0 -4.885,2.186 -4.885,4.886c0,2.699 2.19,4.885 4.885,4.885ZM111.777,79.728c2.703,0 4.885,-2.186 4.885,-4.885c0,-2.7 -2.182,-4.886 -4.885,-4.886c-2.699,0 -4.885,2.186 -4.885,4.886c0,2.699 2.186,4.885 4.885,4.885ZM216.84,69.957c-2.699,0 -4.894,2.186 -4.894,4.886c0,2.699 2.195,4.885 4.894,4.885c2.695,0 4.885,-2.186 4.885,-4.885c0,-2.7 -2.19,-4.886 -4.885,-4.886ZM9.867,79.358c2.704,0 4.885,-2.186 4.885,-4.89c0,-2.699 -2.181,-4.885 -4.885,-4.885c-2.699,0 -4.885,2.186 -4.885,4.885c0,2.704 2.186,4.89 4.885,4.89ZM954.042,78.277c2.249,0 4.07,-1.82 4.07,-4.073c0,-2.246 -1.821,-4.07 -4.07,-4.07c-2.249,0 -4.074,1.824 -4.074,4.07c0,2.253 1.825,4.073 4.074,4.073ZM642.242,77.693c2.249,0 4.074,-1.825 4.074,-4.07c0,-2.249 -1.825,-4.074 -4.074,-4.074c-2.249,0 -4.07,1.825 -4.07,4.074c0,2.245 1.821,4.07 4.07,4.07ZM233.795,77.693c2.245,0 4.066,-1.825 4.066,-4.07c0,-2.249 -1.821,-4.074 -4.066,-4.074c-2.249,0 -4.073,1.825 -4.073,4.074c0,2.245 1.824,4.07 4.073,4.07ZM438.469,77.693c2.249,0 4.073,-1.825 4.073,-4.07c0,-2.249 -1.824,-4.074 -4.073,-4.074c-2.25,0 -4.066,1.825 -4.066,4.074c0,2.245 1.816,4.07 4.066,4.07ZM542.241,77.693c2.249,0 4.069,-1.825 4.069,-4.07c0,-2.249 -1.82,-4.074 -4.069,-4.074c-2.25,0 -4.074,1.825 -4.074,4.074c0,2.245 1.824,4.07 4.074,4.07ZM134.173,77.693c2.253,0 4.074,-1.825 4.074,-4.07c0,-2.249 -1.821,-4.074 -4.074,-4.074c-2.249,0 -4.066,1.825 -4.066,4.074c0,2.245 1.817,4.07 4.066,4.07ZM722.891,77.605c2.699,0 4.885,-2.186 4.885,-4.89c0,-2.699 -2.186,-4.885 -4.885,-4.885c-2.699,0 -4.885,2.186 -4.885,4.885c0,2.704 2.186,4.89 4.885,4.89ZM923.129,77.146c2.699,0 4.885,-2.186 4.885,-4.885c0,-2.703 -2.186,-4.889 -4.885,-4.889c-2.699,0 -4.89,2.186 -4.89,4.889c0,2.699 2.191,4.885 4.89,4.885ZM375.469,76.928c0.903,0 1.631,-0.727 1.631,-1.627c0,-0.9 -0.728,-1.627 -1.631,-1.627c-0.896,0 -1.627,0.727 -1.627,1.627c0,0.9 0.731,1.627 1.627,1.627ZM21.66,76.751c2.245,0 4.065,-1.82 4.065,-4.069c0,-2.25 -1.82,-4.074 -4.065,-4.074c-2.249,0 -4.074,1.824 -4.074,4.074c0,2.249 1.825,4.069 4.074,4.069ZM663.183,75.637c0.895,0 1.627,-0.731 1.627,-1.627c0,-0.9 -0.732,-1.631 -1.627,-1.631c-0.9,0 -1.631,0.731 -1.631,1.631c0,0.896 0.731,1.627 1.631,1.627ZM476.84,75.368c2.254,-0.429 3.729,-2.602 3.296,-4.856c-0.428,-2.253 -2.602,-3.729 -4.856,-3.296c-2.253,0.425 -3.733,2.603 -3.296,4.856c0.429,2.253 2.603,3.729 4.856,3.296ZM340.145,75.112c2.249,0 4.07,-1.825 4.07,-4.074c0,-2.249 -1.821,-4.07 -4.07,-4.07c-2.254,0 -4.074,1.821 -4.074,4.07c0,2.249 1.82,4.074 4.074,4.074ZM748.07,72.715c0.904,0 1.631,-0.727 1.631,-1.627c0,-0.899 -0.727,-1.631 -1.631,-1.631c-0.896,0 -1.623,0.732 -1.623,1.631c0,0.9 0.727,1.627 1.623,1.627ZM846.087,71.643c2.249,0 4.069,-1.82 4.069,-4.074c0,-2.245 -1.82,-4.069 -4.069,-4.069c-2.25,0 -4.07,1.824 -4.07,4.069c0,2.254 1.82,4.074 4.07,4.074ZM832.86,67.464c0,0.9 0.732,1.631 1.631,1.631c0.9,0 1.628,-0.731 1.628,-1.631c0,-0.895 -0.728,-1.627 -1.628,-1.627c-0.899,0 -1.631,0.732 -1.631,1.627ZM963.081,68.843c0.9,0 1.627,-0.727 1.627,-1.627c0,-0.9 -0.727,-1.631 -1.627,-1.631c-0.9,0 -1.631,0.731 -1.631,1.631c0,0.9 0.731,1.627 1.631,1.627ZM513.585,67.275c2.699,0 4.885,-2.19 4.885,-4.889c0,-2.7 -2.186,-4.89 -4.885,-4.89c-2.699,0 -4.89,2.19 -4.89,4.89c0,2.699 2.191,4.889 4.89,4.889ZM857.19,65.614c0.9,0 1.631,-0.727 1.631,-1.627c0,-0.899 -0.731,-1.627 -1.631,-1.627c-0.9,0 -1.631,0.728 -1.631,1.627c0,0.9 0.731,1.627 1.631,1.627ZM759.695,64.967c0.899,0 1.631,-0.727 1.631,-1.627c0,-0.9 -0.732,-1.627 -1.631,-1.627c-0.9,0 -1.627,0.727 -1.627,1.627c0,0.9 0.727,1.627 1.627,1.627ZM83.937,64.828c0.899,0 1.631,-0.731 1.631,-1.631c0,-0.9 -0.732,-1.627 -1.631,-1.627c-0.9,0 -1.631,0.727 -1.631,1.627c0,0.9 0.731,1.631 1.631,1.631ZM698.019,64.404c0.9,0 1.627,-0.732 1.627,-1.627c0,-0.9 -0.727,-1.628 -1.627,-1.628c-0.9,0 -1.631,0.728 -1.631,1.628c0,0.895 0.731,1.627 1.631,1.627ZM655.493,62.772c0,0.9 0.732,1.627 1.632,1.627c0.895,0 1.627,-0.727 1.627,-1.627c0,-0.904 -0.732,-1.631 -1.627,-1.631c-0.9,0 -1.632,0.727 -1.632,1.631ZM548.009,63.033c0.9,0 1.631,-0.727 1.631,-1.627c0,-0.9 -0.731,-1.627 -1.631,-1.627c-0.9,0 -1.631,0.727 -1.631,1.627c0,0.9 0.731,1.627 1.631,1.627ZM238.273,63.033c0.895,0 1.627,-0.727 1.627,-1.627c0,-0.9 -0.732,-1.627 -1.627,-1.627c-0.904,0 -1.627,0.727 -1.627,1.627c0,0.9 0.723,1.627 1.627,1.627ZM343.328,63.033c0.903,0 1.631,-0.727 1.631,-1.627c0,-0.9 -0.728,-1.627 -1.631,-1.627c-0.892,0 -1.623,0.727 -1.623,1.627c0,0.9 0.731,1.627 1.623,1.627ZM442.95,63.033c0.9,0 1.627,-0.727 1.627,-1.627c0,-0.9 -0.727,-1.627 -1.627,-1.627c-0.9,0 -1.627,0.727 -1.627,1.627c0,0.9 0.727,1.627 1.627,1.627ZM138.654,63.033c0.9,0 1.632,-0.727 1.632,-1.627c0,-0.9 -0.732,-1.627 -1.632,-1.627c-0.899,0 -1.627,0.727 -1.627,1.627c0,0.9 0.728,1.627 1.627,1.627ZM33.6,63.033c0.891,0 1.623,-0.727 1.623,-1.627c0,-0.9 -0.732,-1.627 -1.623,-1.627c-0.904,0 -1.635,0.727 -1.635,1.627c0,0.9 0.731,1.627 1.635,1.627ZM560.441,62.583c2.245,0 4.069,-1.82 4.069,-4.07c0,-2.249 -1.824,-4.073 -4.069,-4.073c-2.249,0 -4.07,1.824 -4.07,4.073c0,2.25 1.821,4.07 4.07,4.07ZM299.591,62.474c1.833,0 3.317,-1.484 3.317,-3.317c0,-1.833 -1.484,-3.317 -3.317,-3.317c-1.833,0 -3.321,1.484 -3.321,3.317c0,1.833 1.488,3.317 3.321,3.317ZM646.366,62.381c0.896,0 1.627,-0.727 1.627,-1.627c0,-0.904 -0.731,-1.627 -1.627,-1.627c-0.9,0 -1.631,0.723 -1.631,1.627c0,0.9 0.731,1.627 1.631,1.627ZM102.738,62.297c2.699,0 4.889,-2.186 4.889,-4.889c0,-2.695 -2.19,-4.886 -4.889,-4.886c-2.699,0 -4.885,2.191 -4.885,4.886c0,2.703 2.186,4.889 4.885,4.889ZM12.915,62.079c0.896,0 1.623,-0.732 1.623,-1.627c0,-0.9 -0.727,-1.632 -1.623,-1.632c-0.904,0 -1.627,0.732 -1.627,1.632c0,0.895 0.723,1.627 1.627,1.627ZM614.805,61.364c2.25,-0.433 3.725,-2.607 3.301,-4.856c-0.438,-2.253 -2.611,-3.733 -4.86,-3.3c-2.258,0.429 -3.73,2.606 -3.301,4.856c0.433,2.253 2.607,3.729 4.86,3.3ZM835.467,61.103c2.253,0 4.074,-1.82 4.074,-4.069c0,-2.254 -1.821,-4.074 -4.074,-4.074c-2.249,0 -4.07,1.82 -4.07,4.074c0,2.249 1.821,4.069 4.07,4.069ZM83.937,59.749c0.899,0 1.631,-0.731 1.631,-1.631c0,-0.899 -0.732,-1.627 -1.631,-1.627c-0.9,0 -1.631,0.728 -1.631,1.627c0,0.9 0.731,1.631 1.631,1.631ZM460.671,59.493c0.895,0 1.623,-0.727 1.623,-1.627c0,-0.9 -0.728,-1.627 -1.623,-1.627c-0.904,0 -1.627,0.727 -1.627,1.627c0,0.9 0.723,1.627 1.627,1.627ZM492.98,59.493c0.904,0 1.636,-0.727 1.636,-1.627c0,-0.9 -0.732,-1.627 -1.636,-1.627c-0.895,0 -1.627,0.727 -1.627,1.627c0,0.9 0.732,1.627 1.627,1.627ZM698.019,59.321c0.9,0 1.627,-0.728 1.627,-1.627c0,-0.9 -0.727,-1.627 -1.627,-1.627c-0.9,0 -1.631,0.727 -1.631,1.627c0,0.899 0.731,1.627 1.631,1.627ZM847.84,58.85c0.904,0 1.631,-0.732 1.631,-1.627c0,-0.9 -0.727,-1.631 -1.631,-1.631c-0.896,0 -1.627,0.731 -1.627,1.631c0,0.895 0.731,1.627 1.627,1.627ZM864.291,57.895c0.9,0 1.631,-0.731 1.631,-1.631c0,-0.895 -0.731,-1.627 -1.631,-1.627c-0.9,0 -1.627,0.732 -1.627,1.627c0,0.9 0.727,1.631 1.627,1.631ZM1016.02,57.589c2.699,0 4.885,-2.187 4.885,-4.886c0,-2.699 -2.186,-4.889 -4.885,-4.889c-2.699,0 -4.886,2.19 -4.886,4.889c0,2.699 2.187,4.886 4.886,4.886ZM646.366,57.298c0.896,0 1.627,-0.723 1.627,-1.622c0,-0.904 -0.731,-1.632 -1.627,-1.632c-0.9,0 -1.631,0.728 -1.631,1.632c0,0.899 0.731,1.622 1.631,1.622ZM997.585,56.516c0.9,0 1.631,-0.727 1.631,-1.627c0,-0.899 -0.731,-1.627 -1.631,-1.627c-0.9,0 -1.627,0.728 -1.627,1.627c0,0.9 0.727,1.627 1.627,1.627ZM589.134,56.516c0.904,0 1.632,-0.727 1.632,-1.627c0,-0.899 -0.728,-1.627 -1.632,-1.627c-0.895,0 -1.627,0.728 -1.627,1.627c0,0.9 0.732,1.627 1.627,1.627ZM792.908,56.516c0.899,0 1.631,-0.727 1.631,-1.627c0,-0.899 -0.732,-1.627 -1.631,-1.627c-0.9,0 -1.627,0.728 -1.627,1.627c0,0.9 0.727,1.627 1.627,1.627ZM687.849,56.516c0.9,0 1.627,-0.727 1.627,-1.627c0,-0.899 -0.727,-1.627 -1.627,-1.627c-0.9,0 -1.627,0.728 -1.627,1.627c0,0.9 0.727,1.627 1.627,1.627ZM892.526,56.516c0.9,0 1.627,-0.727 1.627,-1.627c0,-0.899 -0.727,-1.627 -1.627,-1.627c-0.899,0 -1.627,0.728 -1.627,1.627c0,0.9 0.728,1.627 1.627,1.627ZM179.784,53.262c-0.904,0 -1.631,0.728 -1.631,1.627c0,0.9 0.727,1.627 1.631,1.627c0.896,0 1.627,-0.727 1.627,-1.627c0,-0.899 -0.731,-1.627 -1.627,-1.627ZM279.398,56.516c0.9,0 1.632,-0.727 1.632,-1.627c0,-0.899 -0.732,-1.627 -1.632,-1.627c-0.899,0 -1.627,0.728 -1.627,1.627c0,0.9 0.728,1.627 1.627,1.627ZM384.461,56.516c0.896,0 1.623,-0.727 1.623,-1.627c0,-0.899 -0.727,-1.627 -1.623,-1.627c-0.899,0 -1.627,0.728 -1.627,1.627c0,0.9 0.728,1.627 1.627,1.627ZM74.725,56.516c0.9,0 1.627,-0.727 1.627,-1.627c0,-0.899 -0.727,-1.627 -1.627,-1.627c-0.899,0 -1.631,0.728 -1.631,1.627c0,0.9 0.732,1.627 1.631,1.627ZM412.89,55.621c0.9,0 1.627,-0.727 1.627,-1.631c0,-0.896 -0.727,-1.627 -1.627,-1.627c-0.9,0 -1.627,0.731 -1.627,1.627c0,0.904 0.727,1.631 1.627,1.631ZM354.784,54.974c0.895,0 1.627,-0.728 1.627,-1.628c0,-0.899 -0.732,-1.627 -1.627,-1.627c-0.904,0 -1.635,0.728 -1.635,1.627c0,0.9 0.731,1.628 1.635,1.628ZM83.937,54.667c0.899,0 1.631,-0.728 1.631,-1.627c0,-0.9 -0.732,-1.627 -1.631,-1.627c-0.9,0 -1.631,0.727 -1.631,1.627c0,0.899 0.731,1.627 1.631,1.627ZM492.98,54.414c0.904,0 1.636,-0.727 1.636,-1.627c0,-0.899 -0.732,-1.627 -1.636,-1.627c-0.895,0 -1.627,0.728 -1.627,1.627c0,0.9 0.732,1.627 1.627,1.627ZM698.019,54.242c0.9,0 1.627,-0.727 1.627,-1.627c0,-0.9 -0.727,-1.627 -1.627,-1.627c-0.9,0 -1.631,0.727 -1.631,1.627c0,0.9 0.731,1.627 1.631,1.627ZM873.595,53.119c0.899,0 1.627,-0.727 1.627,-1.627c0,-0.899 -0.728,-1.631 -1.627,-1.631c-0.9,0 -1.627,0.732 -1.627,1.631c0,0.9 0.727,1.627 1.627,1.627ZM516.2,53.04c0.895,0 1.627,-0.732 1.627,-1.627c0,-0.904 -0.732,-1.632 -1.627,-1.632c-0.9,0 -1.631,0.728 -1.631,1.632c0,0.895 0.731,1.627 1.631,1.627ZM964.679,52.392c0.899,0 1.631,-0.727 1.631,-1.627c0,-0.9 -0.732,-1.627 -1.631,-1.627c-0.9,0 -1.627,0.727 -1.627,1.627c0,0.9 0.727,1.627 1.627,1.627ZM599.489,52.392c0.896,0 1.627,-0.727 1.627,-1.627c0,-0.9 -0.731,-1.627 -1.627,-1.627c-0.904,0 -1.627,0.727 -1.627,1.627c0,0.9 0.723,1.627 1.627,1.627ZM646.366,52.224c0.896,0 1.627,-0.732 1.627,-1.631c0,-0.9 -0.731,-1.627 -1.627,-1.627c-0.9,0 -1.631,0.727 -1.631,1.627c0,0.899 0.731,1.631 1.631,1.631ZM654.758,51.749c0.899,0 1.631,-0.732 1.631,-1.631c0,-0.9 -0.732,-1.627 -1.631,-1.627c-0.896,0 -1.627,0.727 -1.627,1.627c0,0.899 0.731,1.631 1.627,1.631ZM561.282,51.656c0.904,0 1.631,-0.727 1.631,-1.627c0,-0.899 -0.727,-1.631 -1.631,-1.631c-0.896,0 -1.627,0.732 -1.627,1.631c0,0.9 0.731,1.627 1.627,1.627ZM83.937,49.588c0.899,0 1.631,-0.732 1.631,-1.631c0,-0.9 -0.732,-1.627 -1.631,-1.627c-0.9,0 -1.631,0.727 -1.631,1.627c0,0.899 0.731,1.631 1.631,1.631ZM492.98,49.336c0.904,0 1.636,-0.732 1.636,-1.627c0,-0.9 -0.732,-1.627 -1.636,-1.627c-0.895,0 -1.627,0.727 -1.627,1.627c0,0.895 0.732,1.627 1.627,1.627ZM698.019,49.163c0.9,0 1.627,-0.727 1.627,-1.627c0,-0.899 -0.727,-1.627 -1.627,-1.627c-0.9,0 -1.631,0.728 -1.631,1.627c0,0.9 0.731,1.627 1.631,1.627ZM873.595,48.041c0.899,0 1.627,-0.728 1.627,-1.627c0,-0.9 -0.728,-1.631 -1.627,-1.631c-0.9,0 -1.627,0.731 -1.627,1.631c0,0.899 0.727,1.627 1.627,1.627ZM197.883,43.971c-0.9,0 -1.627,0.727 -1.627,1.627c0,0.9 0.727,1.631 1.627,1.631c0.904,0 1.627,-0.731 1.627,-1.631c0,-0.9 -0.723,-1.627 -1.627,-1.627ZM646.366,47.141c0.896,0 1.627,-0.727 1.627,-1.627c0,-0.9 -0.731,-1.627 -1.627,-1.627c-0.9,0 -1.631,0.727 -1.631,1.627c0,0.9 0.731,1.627 1.631,1.627ZM561.282,46.578c0.904,0 1.631,-0.732 1.631,-1.632c0,-0.895 -0.727,-1.627 -1.631,-1.627c-0.896,0 -1.627,0.732 -1.627,1.627c0,0.9 0.731,1.632 1.627,1.632ZM769.154,45.766c0.9,0 1.631,-0.769 1.631,-1.723c0,-0.959 -0.731,-1.733 -1.631,-1.733c-0.9,0 -1.627,0.774 -1.627,1.733c0,0.954 0.727,1.723 1.627,1.723ZM83.937,44.509c0.899,0 1.631,-0.731 1.631,-1.631c0,-0.9 -0.732,-1.627 -1.631,-1.627c-0.9,0 -1.631,0.727 -1.631,1.627c0,0.9 0.731,1.631 1.631,1.631ZM492.98,44.257c0.904,0 1.636,-0.732 1.636,-1.631c0,-0.9 -0.732,-1.627 -1.636,-1.627c-0.895,0 -1.627,0.727 -1.627,1.627c0,0.899 0.732,1.631 1.627,1.631ZM1016.67,44.169c0.896,0 1.627,-0.732 1.627,-1.627c0,-0.904 -0.731,-1.636 -1.627,-1.636c-0.9,0 -1.631,0.732 -1.631,1.636c0,0.895 0.731,1.627 1.631,1.627ZM698.019,44.085c0.9,0 1.627,-0.732 1.627,-1.632c0,-0.899 -0.727,-1.627 -1.627,-1.627c-0.9,0 -1.631,0.728 -1.631,1.627c0,0.9 0.731,1.632 1.631,1.632ZM873.595,42.958c0.899,0 1.627,-0.727 1.627,-1.623c0,-0.904 -0.728,-1.631 -1.627,-1.631c-0.9,0 -1.627,0.727 -1.627,1.631c0,0.896 0.727,1.623 1.627,1.623ZM253.749,42.874c0.899,0 1.627,-0.727 1.627,-1.631c0,-0.896 -0.728,-1.627 -1.627,-1.627c-0.9,0 -1.632,0.731 -1.632,1.627c0,0.904 0.732,1.631 1.632,1.631ZM646.366,42.067c0.896,0 1.627,-0.732 1.627,-1.632c0,-0.899 -0.731,-1.631 -1.627,-1.631c-0.9,0 -1.631,0.732 -1.631,1.631c0,0.9 0.731,1.632 1.631,1.632ZM561.282,41.499c0.904,0 1.631,-0.731 1.631,-1.631c0,-0.9 -0.727,-1.631 -1.631,-1.631c-0.896,0 -1.627,0.731 -1.627,1.631c0,0.9 0.731,1.631 1.627,1.631ZM492.98,39.174c0.904,0 1.636,-0.727 1.636,-1.627c0,-0.904 -0.732,-1.627 -1.636,-1.627c-0.895,0 -1.627,0.723 -1.627,1.627c0,0.9 0.732,1.627 1.627,1.627ZM1016.67,39.086c0.896,0 1.627,-0.732 1.627,-1.627c0,-0.9 -0.731,-1.631 -1.627,-1.631c-0.9,0 -1.631,0.731 -1.631,1.631c0,0.895 0.731,1.627 1.631,1.627ZM698.019,39.002c0.9,0 1.627,-0.728 1.627,-1.627c0,-0.9 -0.727,-1.623 -1.627,-1.623c-0.9,0 -1.631,0.723 -1.631,1.623c0,0.899 0.731,1.627 1.631,1.627ZM873.595,37.879c0.899,0 1.627,-0.723 1.627,-1.627c0,-0.895 -0.728,-1.627 -1.627,-1.627c-0.9,0 -1.627,0.732 -1.627,1.627c0,0.904 0.727,1.627 1.627,1.627ZM253.749,37.795c0.899,0 1.627,-0.731 1.627,-1.627c0,-0.904 -0.728,-1.635 -1.627,-1.635c-0.9,0 -1.632,0.731 -1.632,1.635c0,0.896 0.732,1.627 1.632,1.627ZM646.366,36.984c0.896,0 1.627,-0.732 1.627,-1.627c0,-0.904 -0.731,-1.636 -1.627,-1.636c-0.9,0 -1.631,0.732 -1.631,1.636c0,0.895 0.731,1.627 1.631,1.627ZM561.282,36.416c0.904,0 1.631,-0.727 1.631,-1.627c0,-0.904 -0.727,-1.631 -1.631,-1.631c-0.896,0 -1.627,0.727 -1.627,1.631c0,0.9 0.731,1.627 1.627,1.627ZM492.98,34.095c0.904,0 1.636,-0.727 1.636,-1.631c0,-0.895 -0.732,-1.623 -1.636,-1.623c-0.895,0 -1.627,0.728 -1.627,1.623c0,0.904 0.732,1.631 1.627,1.631ZM1016.67,34.007c0.896,0 1.627,-0.727 1.627,-1.631c0,-0.896 -0.731,-1.627 -1.627,-1.627c-0.9,0 -1.631,0.731 -1.631,1.627c0,0.904 0.731,1.631 1.631,1.631ZM253.749,32.716c0.899,0 1.627,-0.731 1.627,-1.631c0,-0.904 -0.728,-1.631 -1.627,-1.631c-0.9,0 -1.632,0.727 -1.632,1.631c0,0.9 0.732,1.631 1.632,1.631ZM561.282,31.338c0.904,0 1.631,-0.728 1.631,-1.628c0,-0.899 -0.727,-1.631 -1.631,-1.631c-0.896,0 -1.627,0.732 -1.627,1.631c0,0.9 0.731,1.628 1.627,1.628ZM1016.67,28.928c0.896,0 1.627,-0.731 1.627,-1.631c0,-0.899 -0.731,-1.631 -1.627,-1.631c-0.9,0 -1.631,0.732 -1.631,1.631c0,0.9 0.731,1.631 1.631,1.631ZM253.749,27.634c0.899,0 1.627,-0.728 1.627,-1.627c0,-0.9 -0.728,-1.632 -1.627,-1.632c-0.9,0 -1.632,0.732 -1.632,1.632c0,0.899 0.732,1.627 1.632,1.627ZM1016.67,23.846c0.896,0 1.627,-0.728 1.627,-1.627c0,-0.9 -0.731,-1.632 -1.627,-1.632c-0.9,0 -1.631,0.732 -1.631,1.632c0,0.899 0.731,1.627 1.631,1.627ZM1016.67,18.767c0.896,0 1.627,-0.727 1.627,-1.631c0,-0.896 -0.731,-1.627 -1.627,-1.627c-0.9,0 -1.631,0.731 -1.631,1.627c0,0.904 0.731,1.631 1.631,1.631Z" style="fill:#70b9d5;"/></g></g></svg>