<?xml version="1.0" encoding="UTF-8" standalone="no"?><!DOCTYPE svg PUBLIC "-//W3C//DTD SVG 1.1//EN" "http://www.w3.org/Graphics/SVG/1.1/DTD/svg11.dtd"><svg width="100%" height="100%" viewBox="0 0 224 74" version="1.1" xmlns="http://www.w3.org/2000/svg" xmlns:xlink="http://www.w3.org/1999/xlink" xml:space="preserve" style="fill-rule:evenodd;clip-rule:evenodd;stroke-linejoin:round;stroke-miterlimit:1.41421;"><g id="news-title"><path d="M100.144,12.652c0.521,0.015 1.042,0.033 1.56,0.093c0.715,0.083 1.423,0.225 2.114,0.426c2.246,0.653 4.292,1.93 5.871,3.654c0.582,0.637 1.089,1.33 1.538,2.065l0.007,0.011c0.157,-0.074 0.315,-0.145 0.475,-0.214c0.179,-0.075 0.36,-0.147 0.541,-0.216c0.691,-0.252 1.396,-0.454 2.12,-0.589c0.885,-0.166 1.783,-0.227 2.68,-0.283c0.788,-0.05 1.575,-0.095 2.363,-0.135c2.613,-0.135 5.228,-0.243 7.843,-0.342c8.886,-0.337 17.777,-0.557 26.67,-0.634l1.209,-0.009l0,-0.819c0.004,-0.18 0.009,-0.36 0.014,-0.539c0.026,-0.448 0.066,-0.893 0.134,-1.336c0.132,-0.86 0.352,-1.707 0.656,-2.522c0.754,-2.024 2.029,-3.844 3.668,-5.25c0.98,-0.842 2.087,-1.533 3.274,-2.043c0.918,-0.394 1.884,-0.681 2.869,-0.852c0.289,-0.051 0.579,-0.084 0.87,-0.119c0.726,-0.07 1.452,-0.139 2.178,-0.207c6.305,-0.539 12.621,-0.918 18.942,-1.209c5.807,-0.268 11.617,-0.471 17.43,-0.5l0.319,0.002c0.185,0.003 0.37,0.003 0.554,0.01c0.319,0.013 0.645,0.043 0.961,0.083c0.768,0.095 1.527,0.259 2.265,0.491c2.209,0.692 4.216,1.989 5.75,3.723c0.917,1.037 1.663,2.223 2.202,3.498c0.448,1.057 0.753,2.173 0.905,3.311c0.185,1.377 0.141,2.783 -0.128,4.146c-0.164,0.839 -0.413,1.662 -0.741,2.451c-0.249,0.6 -0.556,1.176 -0.853,1.753c-0.41,0.793 -0.826,1.582 -1.25,2.368c-1.811,3.348 -3.747,6.625 -5.751,9.861c0.559,0.614 1.115,1.232 1.668,1.852c1.91,2.157 3.784,4.345 5.602,6.579c1.1,1.351 2.185,2.716 3.217,4.12c0.809,1.102 1.609,2.217 2.195,3.458c1.072,2.271 1.439,4.858 1.066,7.339c-0.22,1.464 -0.698,2.888 -1.403,4.189c-0.542,0.999 -1.217,1.925 -2.001,2.747c-0.202,0.211 -0.415,0.41 -0.628,0.61l-5.645,5.092c-0.218,0.188 -0.435,0.377 -0.662,0.554c-0.886,0.688 -1.863,1.26 -2.897,1.695c-1.05,0.441 -2.161,0.745 -3.292,0.891c-2.79,0.361 -5.666,-0.21 -8.1,-1.624c-0.597,-0.346 -1.161,-0.743 -1.695,-1.179c-0.46,-0.376 -0.897,-0.78 -1.33,-1.187c-0.462,-0.434 -0.918,-0.875 -1.368,-1.321c-1.977,-1.96 -3.878,-3.995 -5.757,-6.048l-0.213,-0.235c-0.31,0.324 -0.621,0.647 -0.933,0.969c-0.424,0.435 -0.849,0.867 -1.276,1.299c-1.205,1.206 -2.425,2.397 -3.671,3.561c-0.703,0.657 -1.406,1.318 -2.135,1.946l-0.196,0.166c-0.266,0.213 -0.535,0.42 -0.815,0.614c-0.71,0.492 -1.469,0.912 -2.263,1.25c-2.812,1.201 -6.031,1.35 -8.942,0.415c-1.04,-0.334 -2.035,-0.802 -2.957,-1.387c-0.246,-0.157 -0.482,-0.327 -0.72,-0.496l-6.09,-4.54c-0.233,-0.182 -0.466,-0.362 -0.689,-0.556c-0.817,-0.711 -1.544,-1.526 -2.157,-2.419c-1.625,-2.366 -2.415,-5.26 -2.216,-8.123c0.083,-1.204 0.342,-2.382 0.749,-3.517c-1.198,0.067 -2.397,0.124 -3.595,0.183c-3.457,0.16 -6.914,0.307 -10.372,0.441c-1.027,0.04 -2.054,0.078 -3.081,0.118c-0.655,0.025 -1.309,0.056 -1.964,0.077c-0.896,0.023 -1.793,0.027 -2.688,0.038c-4.092,0.044 -8.184,0.069 -12.277,0.078l-1.394,0.001l0,4.448c-0.003,0.163 -0.007,0.326 -0.011,0.49c-0.024,0.456 -0.064,0.91 -0.132,1.362c-0.144,0.949 -0.395,1.882 -0.747,2.776c-0.442,1.122 -1.044,2.182 -1.781,3.136c-0.604,0.78 -1.297,1.491 -2.063,2.112c-1.396,1.132 -3.029,1.963 -4.766,2.426c-0.501,0.134 -1.01,0.238 -1.524,0.309c-0.854,0.118 -1.719,0.164 -2.58,0.216c-1.783,0.108 -3.568,0.194 -5.353,0.274c-3.336,0.151 -6.672,0.277 -10.009,0.387c-2.956,0.098 -5.913,0.182 -8.87,0.245c-4.132,0.087 -8.266,0.142 -12.398,0.041c-0.226,-0.007 -0.451,-0.017 -0.676,-0.03c-0.776,-0.055 -1.543,-0.163 -2.299,-0.349c-1.592,-0.394 -3.096,-1.098 -4.427,-2.054c-0.112,0.022 -0.224,0.037 -0.337,0.055c-0.997,0.131 -2.001,0.206 -3.004,0.273c-1.342,0.09 -2.684,0.158 -4.027,0.215c-3.428,0.148 -6.859,0.247 -10.289,0.329c-5.418,0.131 -10.837,0.23 -16.257,0.301c-4.318,0.056 -8.637,0.105 -12.956,0.111c-0.18,-0.004 -0.359,-0.008 -0.538,-0.013c-0.447,-0.025 -0.892,-0.064 -1.334,-0.132c-1.004,-0.152 -1.989,-0.425 -2.928,-0.81c-1.577,-0.646 -3.021,-1.608 -4.222,-2.816c-1.383,-1.391 -2.438,-3.1 -3.061,-4.96c-0.338,-1.01 -0.55,-2.063 -0.629,-3.126c-0.022,-0.29 -0.027,-0.58 -0.033,-0.871l0,-7.366c0.006,-0.289 0.011,-0.577 0.032,-0.866c0.082,-1.092 0.302,-2.174 0.657,-3.209c0.85,-2.482 2.476,-4.674 4.598,-6.216c0.946,-0.687 1.983,-1.238 3.079,-1.646c-0.095,-0.096 -0.185,-0.196 -0.277,-0.295c-0.452,-0.514 -0.874,-1.047 -1.246,-1.622c-0.865,-1.332 -1.478,-2.822 -1.797,-4.378c-0.112,-0.54 -0.188,-1.088 -0.229,-1.638c-0.022,-0.29 -0.027,-0.58 -0.033,-0.871l0,-7.365c0.006,-0.285 0.011,-0.569 0.032,-0.853c0.081,-1.108 0.305,-2.204 0.668,-3.254c0.752,-2.182 2.102,-4.147 3.872,-5.63c0.639,-0.536 1.33,-1.009 2.061,-1.41c0.915,-0.503 1.892,-0.895 2.902,-1.16c1.481,-0.388 3.018,-0.465 4.54,-0.555c1.695,-0.099 3.392,-0.176 5.088,-0.247c2.989,-0.125 5.978,-0.226 8.968,-0.304c3.116,-0.08 6.232,-0.134 9.349,-0.133c2.978,0.007 5.956,0.042 8.935,0.054l1.213,0.002l0.56,0.015c0.315,0.023 0.63,0.044 0.943,0.084c1.193,0.151 2.373,0.467 3.475,0.949c0.844,0.367 1.647,0.82 2.394,1.358c1.571,1.132 2.88,2.621 3.8,4.325c0.469,0.867 0.831,1.785 1.09,2.736c0.196,-0.096 0.196,-0.095 0.394,-0.187c0.779,-0.341 1.579,-0.619 2.41,-0.805c1.15,-0.257 2.331,-0.348 3.502,-0.452c2.169,-0.192 4.342,-0.34 6.515,-0.468c3.385,-0.201 6.773,-0.357 10.161,-0.485c3.176,-0.119 6.353,-0.211 9.531,-0.244c0.577,0 1.153,0.001 1.73,0.013Z" style="fill:#b3d6ff;fill-rule:nonzero;"/><path d="M161.136,23.163l-0.001,-0.042l0,-7.394c0.008,-0.306 0.004,-0.383 0.035,-0.689c0.047,-0.458 0.14,-0.911 0.278,-1.35c0.556,-1.768 1.841,-3.259 3.507,-4.07c0.517,-0.252 1.067,-0.438 1.631,-0.552c0.301,-0.061 0.378,-0.064 0.682,-0.102c0.688,-0.067 1.377,-0.133 2.065,-0.196c5.851,-0.51 11.715,-0.861 17.582,-1.14c5.877,-0.28 11.759,-0.496 17.643,-0.542c0.608,-0.002 0.607,-0.009 1.214,0.005c0.307,0.023 0.385,0.023 0.69,0.069c0.686,0.104 1.355,0.314 1.978,0.62c0.623,0.306 1.198,0.708 1.7,1.188c1.432,1.369 2.205,3.341 2.086,5.319c-0.041,0.693 -0.19,1.378 -0.438,2.026c-0.111,0.288 -0.149,0.356 -0.281,0.634c-0.29,0.572 -0.583,1.141 -0.879,1.709c-2.648,5.023 -5.584,9.887 -8.668,14.653l-0.123,0.189c0.318,0.324 0.633,0.651 0.948,0.979c0.38,0.4 0.759,0.801 1.136,1.204c1.198,1.294 2.379,2.603 3.541,3.929c0.98,1.12 1.949,2.25 2.905,3.39c0.889,1.06 1.768,2.129 2.63,3.212c0.8,1.004 1.589,2.019 2.341,3.061c0.549,0.76 1.11,1.527 1.463,2.402c0.519,1.286 0.631,2.72 0.32,4.071c-0.13,0.561 -0.331,1.105 -0.597,1.616c-0.267,0.511 -0.598,0.987 -0.985,1.414c-0.206,0.228 -0.266,0.277 -0.489,0.488l-5.545,5.002c-0.23,0.197 -0.284,0.251 -0.528,0.431c-0.459,0.336 -0.959,0.615 -1.487,0.827c-0.527,0.212 -1.081,0.358 -1.645,0.433c-1.584,0.209 -3.22,-0.156 -4.565,-1.02c-0.612,-0.393 -1.144,-0.897 -1.673,-1.393c-0.678,-0.635 -1.339,-1.29 -1.992,-1.951c-0.986,-0.998 -1.956,-2.014 -2.915,-3.039c-0.847,-0.905 -1.686,-1.818 -2.518,-2.738c-1.259,-1.394 -2.498,-2.806 -3.72,-4.232l-0.203,-0.24c-0.398,0.448 -0.798,0.895 -1.198,1.341c-0.572,0.628 -1.145,1.255 -1.723,1.878c-1.594,1.707 -3.218,3.387 -4.885,5.022c-1.196,1.174 -2.416,2.322 -3.655,3.45l-0.405,0.364c-0.233,0.2 -0.288,0.255 -0.536,0.436c-0.372,0.272 -0.772,0.506 -1.192,0.698c-1.581,0.721 -3.414,0.806 -5.056,0.234c-0.435,-0.152 -0.855,-0.348 -1.251,-0.584c-0.264,-0.158 -0.324,-0.207 -0.574,-0.385l-5.981,-4.458c-0.244,-0.192 -0.31,-0.236 -0.539,-0.447c-0.43,-0.395 -0.808,-0.846 -1.123,-1.338c-0.567,-0.886 -0.924,-1.903 -1.034,-2.949c-0.111,-1.046 0.025,-2.115 0.395,-3.1c0.205,-0.547 0.481,-1.067 0.818,-1.543c0.181,-0.255 0.235,-0.311 0.434,-0.55c0.454,-0.518 0.903,-1.039 1.351,-1.561c2.447,-2.876 4.862,-5.779 7.265,-8.691c2.603,-3.157 5.189,-6.327 7.754,-9.514c-1.114,0.05 -2.229,0.096 -3.344,0.139c-1.247,0.045 -2.494,0.088 -3.742,0.113c-0.573,0.012 -1.147,0.021 -1.72,0.021c-0.489,-0.001 -0.974,-0.011 -1.457,-0.088c-0.67,-0.107 -1.318,-0.315 -1.921,-0.612l0.001,0.044l0,7.122c-0.007,0.289 -0.004,0.362 -0.031,0.65c-0.042,0.432 -0.125,0.86 -0.248,1.276c-0.557,1.886 -1.94,3.469 -3.735,4.274c-0.495,0.222 -1.016,0.385 -1.549,0.483c-0.285,0.053 -0.358,0.056 -0.645,0.087c-0.564,0.049 -1.128,0.093 -1.692,0.134c-2.356,0.159 -4.714,0.281 -7.073,0.394c-2.411,0.114 -4.822,0.217 -7.234,0.316c-2.057,0.084 -4.113,0.163 -6.17,0.241c-0.724,0.027 -1.447,0.065 -2.171,0.081c-0.36,0.008 -4.102,0.05 -5.112,0.06c-4.185,0.04 -8.371,0.047 -12.558,0.05l-0.333,-0.008c-0.296,-0.021 -0.371,-0.021 -0.664,-0.065c-0.55,-0.081 -1.091,-0.23 -1.605,-0.443c-0.926,-0.383 -1.763,-0.972 -2.436,-1.714c-0.673,-0.742 -1.178,-1.633 -1.469,-2.592c-0.129,-0.426 -0.217,-0.864 -0.26,-1.307c-0.029,-0.295 -0.026,-0.37 -0.033,-0.666l0,-7.177c0.007,-0.294 0.004,-0.369 0.032,-0.662c0.054,-0.551 0.176,-1.094 0.361,-1.615c0.222,-0.625 0.537,-1.218 0.93,-1.752c0.328,-0.445 0.711,-0.85 1.136,-1.203c0.853,-0.707 1.877,-1.199 2.961,-1.423c0.684,-0.141 1.392,-0.173 2.086,-0.218c1.018,-0.067 2.037,-0.119 3.056,-0.17c1.866,-0.092 3.732,-0.171 5.599,-0.245c1.865,-0.074 3.73,-0.141 5.596,-0.203c2.096,-0.07 4.191,-0.134 6.287,-0.191c2.8,-0.076 5.599,-0.141 8.399,-0.192c3.381,-0.062 6.762,-0.099 10.143,-0.115c0.653,-0.001 1.306,-0.01 1.959,0.005c0.296,0.022 0.371,0.022 0.664,0.065c0.551,0.081 1.092,0.23 1.606,0.442c0.135,0.055 0.267,0.115 0.398,0.18ZM65.051,44.302c0.578,-0.32 1.203,-0.557 1.854,-0.697c0.44,-0.094 0.884,-0.131 1.332,-0.162c0.496,-0.034 0.992,-0.064 1.488,-0.093c1.824,-0.107 3.648,-0.198 5.472,-0.286c1.567,-0.076 3.134,-0.147 4.701,-0.217l1.522,-0.067l1.26,-0.053c0.218,-0.959 0.438,-1.918 0.658,-2.876l0.153,-0.661c-1.257,0.054 -2.513,0.101 -3.77,0.144c-1.467,0.047 -2.934,0.088 -4.402,0.111c-1.335,0.02 -2.669,0.026 -4.003,-0.018l-0.316,-0.018c-0.28,-0.029 -0.351,-0.031 -0.628,-0.08c-0.52,-0.091 -1.029,-0.242 -1.514,-0.451c-1.759,-0.755 -3.141,-2.253 -3.754,-4.066c-0.17,-0.5 -0.28,-1.019 -0.329,-1.545c-0.026,-0.28 -0.023,-0.351 -0.03,-0.632l0,-5.872c0.007,-0.275 0.003,-0.344 0.029,-0.619c0.047,-0.514 0.153,-1.024 0.315,-1.514c0.195,-0.589 0.47,-1.151 0.817,-1.665c0.87,-1.291 2.181,-2.257 3.671,-2.707c0.772,-0.233 1.576,-0.293 2.375,-0.371c1.054,-0.104 2.11,-0.19 3.167,-0.268c1.758,-0.131 3.517,-0.24 5.278,-0.338c1.512,-0.084 3.024,-0.159 4.536,-0.228c1.856,-0.085 3.712,-0.16 5.568,-0.225c2.648,-0.092 5.296,-0.168 7.945,-0.189c0.582,-0.001 0.581,-0.001 1.163,0.003c0.257,0.005 0.513,0.011 0.77,0.02l0.191,0.009c0.277,0.019 0.346,0.02 0.621,0.058c0.515,0.072 1.021,0.204 1.506,0.392c1.362,0.526 2.535,1.495 3.309,2.732c0.387,0.618 0.673,1.296 0.844,2.004c0.147,0.606 0.21,1.233 0.187,1.856c-0.011,0.277 -0.023,0.346 -0.052,0.621c-0.05,0.381 -0.1,0.761 -0.152,1.141c-0.661,4.597 -1.594,9.149 -2.566,13.689l-0.226,1.042c0.614,0.018 1.228,0.037 1.842,0.055l0.317,0.016c0.281,0.029 0.352,0.031 0.63,0.078c0.521,0.09 1.032,0.24 1.519,0.448c1.764,0.752 3.153,2.251 3.769,4.068c0.17,0.501 0.281,1.022 0.33,1.549c0.027,0.281 0.024,0.351 0.03,0.633l0,5.763c-0.006,0.279 -0.003,0.349 -0.029,0.627c-0.048,0.521 -0.157,1.036 -0.323,1.532c-0.199,0.595 -0.482,1.162 -0.836,1.68c-0.296,0.432 -0.641,0.829 -1.027,1.181c-0.774,0.706 -1.71,1.228 -2.717,1.515c-0.302,0.086 -0.61,0.151 -0.92,0.195c-0.44,0.062 -0.888,0.087 -1.33,0.118c-1.054,0.073 -2.11,0.129 -3.165,0.183c-1.92,0.098 -3.842,0.183 -5.763,0.262c-1.856,0.076 -3.712,0.146 -5.568,0.21c-1.982,0.069 -3.964,0.132 -5.947,0.186c-2.891,0.08 -5.783,0.145 -8.676,0.18c-1.668,0.02 -3.336,0.03 -5.004,0.017c-0.71,-0.005 -1.421,-0.015 -2.131,-0.033c-0.416,-0.01 -0.836,-0.013 -1.251,-0.046c-0.316,-0.025 -0.629,-0.073 -0.938,-0.142c-1.552,-0.346 -2.955,-1.244 -3.92,-2.507c-0.182,-0.238 -0.347,-0.487 -0.496,-0.747c-0.361,0.249 -0.746,0.462 -1.152,0.637c-0.422,0.181 -0.862,0.319 -1.311,0.412c-0.3,0.061 -0.377,0.065 -0.68,0.104c-0.408,0.042 -0.815,0.078 -1.224,0.112c-2.585,0.195 -5.178,0.296 -7.769,0.387c-3.227,0.114 -6.455,0.198 -9.683,0.271c-4.589,0.103 -9.179,0.181 -13.769,0.243c-3.988,0.053 -7.976,0.095 -11.964,0.109l-0.854,0.001c-0.306,-0.007 -0.383,-0.003 -0.688,-0.034c-0.457,-0.046 -0.909,-0.138 -1.348,-0.276c-0.988,-0.308 -1.901,-0.845 -2.651,-1.557c-0.751,-0.713 -1.334,-1.596 -1.694,-2.567c-0.199,-0.538 -0.33,-1.102 -0.388,-1.674c-0.031,-0.305 -0.028,-0.382 -0.035,-0.688l0,-7.23c0.007,-0.305 0.004,-0.381 0.034,-0.684c0.046,-0.455 0.138,-0.905 0.274,-1.341c0.583,-1.867 1.977,-3.422 3.771,-4.204c0.523,-0.229 1.075,-0.39 1.639,-0.481c0.301,-0.048 0.378,-0.049 0.681,-0.074c1.002,-0.059 2.004,-0.112 3.007,-0.165c3.967,-0.197 7.936,-0.364 11.906,-0.509c3.615,-0.132 7.23,-0.246 10.848,-0.311c2.191,-0.04 4.383,-0.05 6.574,-0.054c2.422,-0.004 4.844,-0.005 7.266,-0.006c1.906,0 3.813,-0.039 5.719,0.009c0.305,0.023 0.382,0.023 0.685,0.069c0.454,0.07 0.9,0.186 1.331,0.345c1.844,0.683 3.33,2.168 4.013,4.013c0.026,0.072 0.052,0.145 0.076,0.218ZM44.395,11.759c3.052,0.022 6.105,0.051 9.158,0.054l0.344,0.009c0.305,0.024 0.382,0.024 0.684,0.07c0.567,0.088 1.123,0.247 1.65,0.474c1.805,0.776 3.211,2.334 3.799,4.21c0.138,0.437 0.231,0.889 0.277,1.346c0.031,0.304 0.027,0.381 0.035,0.687l0,7.285c-0.008,0.307 -0.004,0.385 -0.036,0.691c-0.058,0.575 -0.191,1.141 -0.392,1.682c-0.202,0.541 -0.473,1.056 -0.804,1.529c-0.933,1.329 -2.337,2.295 -3.912,2.689c-0.491,0.124 -0.992,0.179 -1.496,0.216c-0.568,0.042 -1.138,0.073 -1.707,0.101c-1.408,0.069 -2.818,0.117 -4.227,0.163c-2.361,0.077 -4.722,0.136 -7.083,0.195c-3.124,0.078 -6.248,0.155 -9.374,0.191c-4.167,0.048 -8.335,0.044 -12.502,0.045l-0.345,-0.009c-0.305,-0.023 -0.382,-0.023 -0.685,-0.069c-0.567,-0.087 -1.123,-0.246 -1.651,-0.472c-1.808,-0.775 -3.216,-2.334 -3.805,-4.211c-0.138,-0.438 -0.231,-0.89 -0.277,-1.347c-0.031,-0.305 -0.027,-0.382 -0.035,-0.688l0,-7.23c0.007,-0.3 0.004,-0.376 0.033,-0.674c0.056,-0.56 0.182,-1.113 0.374,-1.642c0.192,-0.53 0.45,-1.035 0.766,-1.5c0.316,-0.466 0.69,-0.892 1.111,-1.266c0.758,-0.673 1.666,-1.172 2.641,-1.451c0.694,-0.199 1.41,-0.262 2.127,-0.315c0.916,-0.069 1.833,-0.118 2.75,-0.166c1.605,-0.083 3.211,-0.152 4.817,-0.216c1.278,-0.051 2.556,-0.097 3.834,-0.139c1.704,-0.056 3.408,-0.104 5.112,-0.144c2.331,-0.054 4.663,-0.089 6.996,-0.101c0.607,0 1.215,0.001 1.823,0.003Z" style="fill:#fff;"/><path d="M53.546,18.609c-0.979,0 -1.794,0 -9.188,-0.055c-9.079,-0.054 -24.029,0.598 -25.551,0.816l0,7.23c13.482,0 14.569,-0.054 25.334,-0.326c1.957,-0.054 7.774,-0.217 9.405,-0.38l0,-7.285ZM58.602,46.444c-16.201,0 -16.581,0 -21.529,0.109c-3.044,0.054 -15.766,0.489 -23.051,0.924l0,7.23c8.373,0 38.056,-0.38 44.58,-1.087l0,-7.176Z" style="fill:#6e6bff;fill-rule:nonzero;"/><path d="M105.682,49.053c-1.957,-0.054 -3.153,-0.108 -5.11,-0.108c-2.12,0 -3.425,0.054 -5.056,0.108c0.163,-0.652 0.924,-3.968 1.087,-4.675c1.305,-5.872 2.936,-13.32 3.643,-18.919c-2.881,-0.163 -21.583,0.489 -28.705,1.305l0,5.871c4.023,0.163 16.473,-0.381 20.659,-0.761c-0.381,1.413 -3.371,14.298 -4.023,17.451c-2.61,0.055 -16.201,0.653 -19.844,0.924l0,5.6c8.862,0.326 34.088,-0.707 37.349,-1.033l0,-5.763Z" style="fill:#6e6bff;fill-rule:nonzero;"/><path d="M158.145,29.264c-17.071,0 -39.089,0.925 -41.426,1.196l0,7.177c9.35,0 13.102,-0.055 17.505,-0.109c4.349,-0.163 19.191,-0.707 23.921,-1.142l0,-7.122Z" style="fill:#6e6bff;fill-rule:nonzero;"/><path d="M171.845,58.35c8.372,-7.503 15.929,-16.745 18.539,-20.278c3.968,-5.22 10.764,-15.658 15.059,-24.193c-8.753,0 -27.292,0.815 -37.512,1.848l0,7.394c3.86,0.054 19.843,-0.707 23.812,-1.305c-4.132,6.089 -22.127,27.835 -25.878,32.076l5.98,4.458ZM189.079,41.279c2.229,3.751 12.558,15.059 15.875,17.941l5.545,-5.002c-2.392,-3.642 -11.145,-13.917 -15.44,-17.832l-5.98,4.893Z" style="fill:#6e6bff;fill-rule:nonzero;"/></g></svg>