<?xml version="1.0" standalone="no"?><!DOCTYPE svg PUBLIC "-//W3C//DTD SVG 1.1//EN" "http://www.w3.org/Graphics/SVG/1.1/DTD/svg11.dtd"><svg width="100%" height="100%" viewBox="0 0 70 19" version="1.1" xmlns="http://www.w3.org/2000/svg" xmlns:xlink="http://www.w3.org/1999/xlink" xml:space="preserve" style="fill-rule:evenodd;clip-rule:evenodd;stroke-linejoin:round;stroke-miterlimit:1.41421;"><g id="news-btn-all"><path d="M69.807,9.275c0,-5.101 -4.141,-9.241 -9.241,-9.241l-51.127,0c-5.1,0 -9.241,4.14 -9.241,9.241c0,5.1 4.141,9.241 9.241,9.241l51.127,0c5.1,0 9.241,-4.141 9.241,-9.241Z" style="fill:#f49ec2;"/><path d="M59.18,11.907l4.7,-3.145l-4.7,-3.145l0,6.29Z" style="fill:#fff;"/><path d="M10.975,12.983c0.643,-1.683 2.175,-6.12 2.829,-8.488l-1.532,0c-0.451,1.189 -1.404,4.115 -1.822,5.487c-0.397,-1.404 -0.847,-2.797 -1.286,-4.18c-0.14,-0.428 -0.29,-0.964 -0.429,-1.307l-1.522,0c0.129,0.461 0.697,2.508 0.815,2.915c0.128,0.418 1.629,5.198 1.757,5.573l1.19,0Z" style="fill:#fff;fill-rule:nonzero;"/><path d="M16.558,12.983c0.043,-1.769 0.075,-2.68 0.075,-5.069c0,-0.547 0,-0.879 -0.01,-1.201c-0.043,-1.757 -0.043,-1.961 -0.054,-2.218l-1.404,0c-0.053,1.629 -0.075,3.236 -0.075,4.865c0,0.751 0.011,1.361 0.054,3.623l1.414,0Z" style="fill:#fff;fill-rule:nonzero;"/><path d="M23.085,11.504c-1.297,-0.011 -1.34,-0.011 -3.397,0.053c0,-0.353 0.021,-0.953 0.021,-1.875c0,-1.018 -0.021,-2.658 -0.021,-3.676c0.482,0 2.99,-0.064 3.397,-0.129l0,-1.382c-0.879,-0.022 -3.462,0 -4.79,0.096c-0.054,1.469 -0.086,2.337 -0.086,4.137c0,2.058 0,2.915 0.053,4.255c0.311,0.021 0.408,0.032 0.772,0.032c0.514,0 3.269,-0.064 4.051,-0.129l0,-1.382ZM19.999,9.221c0.514,0.022 1.854,0.022 2.711,-0.086l0,-1.382c-0.868,-0.032 -1.886,-0.011 -2.711,0.086l0,1.382Z" style="fill:#fff;fill-rule:nonzero;"/><path d="M26.729,12.983c0.536,-1.833 1.029,-3.719 1.425,-5.391c0.15,0.59 0.707,3.215 0.836,3.751c0.322,1.265 0.354,1.404 0.407,1.64l1.34,0c0.193,-0.686 0.439,-1.758 0.643,-2.637c0.45,-1.939 0.9,-3.879 1.232,-5.851l-1.404,0c-0.107,0.471 -0.589,2.551 -0.685,2.968c-0.065,0.29 -0.343,1.565 -0.397,1.822c-0.032,0.129 -0.075,0.322 -0.086,0.375c-0.375,-1.95 -0.396,-2.025 -0.493,-2.486c-0.096,-0.429 -0.546,-2.293 -0.643,-2.679l-1.339,0c-0.065,0.279 -0.375,1.447 -0.44,1.693c-0.139,0.547 -0.728,2.979 -0.846,3.472c-0.065,-0.321 -0.333,-1.736 -0.386,-2.025c-0.086,-0.407 -0.654,-3.022 -0.686,-3.14l-1.458,0c0.086,0.493 0.997,5.358 1.844,8.488l1.136,0Z" style="fill:#fff;fill-rule:nonzero;"/><path d="M43.383,12.972c-0.654,-2.411 -2.219,-7.159 -2.669,-8.477l-1.2,0c-0.321,1.018 -0.429,1.189 -1.415,4.255l-0.728,2.272c-0.204,0.643 -0.44,1.403 -0.6,1.95l1.489,0c0.193,-0.504 0.375,-1.007 0.557,-1.522c0.14,0 1.361,-0.021 2.005,-0.096l0,-1.372c-0.236,-0.011 -0.429,-0.021 -0.751,-0.021c-0.343,0 -0.589,0.021 -0.782,0.042c0.439,-1.404 0.504,-1.618 0.632,-2.036c0.065,-0.225 0.107,-0.396 0.161,-0.611c0.139,0.45 0.761,2.465 0.89,2.872c0.3,0.922 0.61,1.833 0.943,2.744l1.468,0Z" style="fill:#fff;fill-rule:nonzero;"/><path d="M49.352,11.439c-1.114,-0.042 -2.25,0.022 -3.365,0.086c0,-0.493 0.021,-2.679 0.021,-3.129c0,-1.008 0,-1.018 -0.042,-3.901l-1.361,0c-0.054,1.222 -0.097,3.483 -0.097,3.708c0,0.289 0.011,3.965 0.022,4.469c0,0.118 0.01,0.3 0.01,0.343c0.247,0.011 0.461,0.021 0.772,0.021c0.396,0 2.818,-0.053 4.04,-0.16l0,-1.437Z" style="fill:#fff;fill-rule:nonzero;"/><path d="M55.311,11.439c-1.115,-0.042 -2.251,0.022 -3.365,0.086c0,-0.493 0.021,-2.679 0.021,-3.129c0,-1.008 0,-1.018 -0.043,-3.901l-1.361,0c-0.053,1.222 -0.096,3.483 -0.096,3.708c0,0.289 0.01,3.965 0.021,4.469c0,0.118 0.011,0.3 0.011,0.343c0.246,0.011 0.461,0.021 0.772,0.021c0.396,0 2.818,-0.053 4.04,-0.16l0,-1.437Z" style="fill:#fff;fill-rule:nonzero;"/></g></svg>