<?xml version="1.0" standalone="no"?><!DOCTYPE svg PUBLIC "-//W3C//DTD SVG 1.1//EN" "http://www.w3.org/Graphics/SVG/1.1/DTD/svg11.dtd"><svg width="100%" height="100%" viewBox="0 0 376 88" version="1.1" xmlns="http://www.w3.org/2000/svg" xmlns:xlink="http://www.w3.org/1999/xlink" xml:space="preserve" style="fill-rule:evenodd;clip-rule:evenodd;stroke-linejoin:round;stroke-miterlimit:1.41421;"><g id="btn-txt-contact"><g transform="matrix(0.655774,-8.68378e-27,8.07794e-27,0.655774,742.346,-57.7905)"><path d="M-1068.52,140.779c7.898,-0.355 8.785,-0.444 10.205,-0.799c0.799,-0.266 3.55,-1.331 3.55,-5.946c0,-6.478 -4.881,-6.478 -6.833,-6.478c-1.154,0 -2.663,0.089 -6.922,0.266l0,-3.638c0,-2.84 -0.178,-7.1 -6.745,-7.1c-6.567,0 -6.744,4.083 -6.744,7.189l0,4.17c-4.082,0.089 -17.305,0.355 -18.015,0.444c-2.308,0.355 -5.059,1.509 -5.059,6.212c0,6.478 4.97,6.478 7.189,6.478l3.461,0c1.774,0 10.383,-0.177 12.424,-0.266l0,8.786c-6.212,2.307 -23.695,8.963 -23.695,26.445c0,10.117 6.922,19.613 19.967,19.613c17.217,0 17.217,-15.175 17.217,-22.985l0,-13.755c2.13,-0.355 3.549,-0.533 6.922,-0.533c8.253,0 18.015,1.598 18.015,12.602c0,12.424 -12.868,12.424 -16.684,12.424c-2.84,0 -7.721,0 -7.721,5.768c0,6.834 5.68,6.834 8.52,6.834c19.612,0 30.882,-9.94 30.882,-25.203c0,-6.124 -2.041,-12.957 -7.454,-17.483c-7.455,-6.389 -19.879,-7.188 -24.848,-7.188c-3.55,0 -6.035,0.355 -7.632,0.532l0,-6.389ZM-1081.83,172.638c0,6.389 -1.065,10.471 -4.881,10.471c-3.549,0 -5.946,-3.372 -5.946,-7.365c0,-7.721 7.721,-11.359 10.827,-12.779l0,9.673ZM-1053.35,122.409c-0.266,0.177 -1.864,2.13 -1.864,3.993c0,0.267 0,2.751 2.485,4.615c5.768,4.348 7.721,5.857 12.158,11.98c1.952,2.663 3.195,4.438 6.123,4.438c3.55,0 7.455,-2.84 7.455,-7.011c0,-2.929 -2.041,-5.768 -5.591,-9.496c-4.082,-4.348 -11.448,-10.649 -15.797,-10.649c-2.484,0 -4.437,1.686 -4.969,2.13Z" style="fill:none;stroke-width:42.7px;stroke:#f49ac1;"/><path d="M-971.169,190.475c2.13,0 2.751,-0.089 3.639,-0.089c-0.266,1.598 -0.178,3.816 0.532,5.414c1.686,3.638 4.97,3.638 10.827,3.638c2.396,0 9.407,-0.089 11.448,-0.621c3.905,-0.976 5.591,-5.058 5.591,-9.229l0,-61.322c0,-7.632 -3.195,-10.56 -10.561,-10.56l-16.062,0c-7.011,0 -10.561,2.573 -10.561,10.56l0,16.329c0,8.253 3.905,10.56 10.561,10.56l13.489,0l0,27.422c0,1.42 0,2.928 -2.041,2.928c-0.888,0 -5.148,-0.177 -6.124,-0.177c0.444,-1.952 0.444,-3.372 0.444,-6.123l0,-9.318c0,-9.407 -1.775,-11.182 -11.182,-11.182l-14.642,0c-9.496,0 -11.182,1.952 -11.182,11.182l0,9.318c0,9.495 1.864,11.27 11.182,11.27l14.642,0ZM-963.626,132.614l0,-2.218c0,-1.065 0.533,-1.686 1.687,-1.686l7.986,0c1.065,0 1.687,0.532 1.687,1.686l0,2.218l-11.36,0ZM-961.939,145.305c-1.154,0 -1.687,-0.621 -1.687,-1.686l0,-2.396l11.36,0l0,4.082l-9.673,0ZM-972.234,177.252c0,1.065 -0.532,1.775 -1.775,1.775l-8.963,0c-1.242,0 -1.774,-0.621 -1.774,-1.775l0,-5.857c0,-1.153 0.532,-1.863 1.774,-1.863l8.963,0c1.154,0 1.775,0.621 1.775,1.863l0,5.857ZM-1004.8,155.155l13.578,0c7.011,0 10.472,-2.573 10.472,-10.56l0,-16.329c0,-7.632 -3.195,-10.56 -10.472,-10.56l-16.151,0c-7.011,0 -10.472,2.573 -10.472,10.56l0,64.871c0,3.461 1.065,6.567 6.745,6.567c6.3,0 6.3,-5.147 6.3,-6.567l0,-37.982ZM-1004.8,132.614l0,-2.218c0,-1.065 0.444,-1.686 1.687,-1.686l7.987,0c1.153,0 1.686,0.621 1.686,1.686l0,2.218l-11.36,0ZM-1004.8,141.223l11.36,0l0,2.396c0,1.419 -0.977,1.686 -1.686,1.686l-9.674,0l0,-4.082Z" style="fill:none;stroke-width:42.7px;stroke:#f49ac1;"/><path d="M-919.431,120.9c-3.373,0 -6.39,0.267 -7.632,4.792c-0.976,3.373 -1.331,18.104 -1.331,22.807c0,10.383 0,46.325 21.298,46.325c8.874,0 13.578,-6.035 15.441,-8.431c2.574,-3.372 7.189,-11.625 7.189,-17.571c0,-4.171 -3.461,-6.479 -7.544,-6.479c-4.259,0 -4.88,1.953 -6.389,6.834c-1.686,5.236 -4.082,9.318 -7.987,9.318c-2.041,0 -3.461,-1.243 -4.171,-2.396c-2.041,-3.461 -3.905,-11.892 -3.905,-24.582c0,-6.567 0.533,-13.844 0.799,-17.039c0.089,-0.976 0.621,-5.946 0.621,-7.011c0,-1.242 0,-6.567 -6.389,-6.567ZM-857.577,188.612c7.188,0 7.454,-5.591 7.454,-8.875c0,-14.82 -1.42,-33.722 -7.099,-43.04c-5.68,-9.318 -15.885,-11.36 -20.589,-11.36c-5.857,0 -7.277,3.728 -7.277,7.1c0,4.615 2.13,5.946 4.171,6.478c0.888,0.178 5.059,0.799 5.946,1.065c9.762,3.284 9.762,23.34 9.762,40.378c0,3.106 0,8.254 7.632,8.254Z" style="fill:none;stroke-width:42.7px;stroke:#f49ac1;"/><path d="M-784.719,153.025c4.437,0 6.478,-1.952 6.478,-6.3c4.083,2.751 8.964,5.945 13.223,5.945c3.461,0 6.479,-3.549 6.479,-7.986c0,-4.083 -2.13,-5.414 -4.615,-6.568c-8.431,-3.993 -14.554,-7.099 -25.647,-17.304c-5.058,-4.615 -6.922,-6.301 -12.247,-6.301c-5.324,0 -7.277,1.775 -11.98,6.212c-10.472,9.673 -14.288,11.625 -26.357,17.748c-2.041,0.977 -4.082,2.397 -4.082,6.124c0,3.993 2.662,8.075 6.745,8.075c3.727,0 9.318,-3.638 12.867,-5.857c0,3.728 1.42,6.212 6.479,6.212l32.657,0ZM-815.158,140.779c7.543,-5.68 9.939,-8.165 11.981,-10.294c0.266,-0.267 1.331,-1.332 2.218,-1.332c0.799,0 1.509,0.622 2.751,1.953c3.284,3.461 7.366,6.567 11.448,9.673l-28.398,0ZM-766.171,170.064c0,-9.318 -4.438,-11.803 -11.892,-11.803l-45.437,0c-7.365,0 -11.891,2.396 -11.891,11.803l0,16.506c0,9.23 4.348,11.892 11.891,11.892l45.437,0c7.721,0 11.892,-2.751 11.892,-11.892l0,-16.506ZM-780.193,183.287c0,1.597 -0.799,2.751 -2.662,2.751l-35.764,0c-1.863,0 -2.84,-0.976 -2.84,-2.751l0,-10.028c0,-1.509 0.71,-2.751 2.751,-2.751l35.853,0c1.686,0 2.662,0.976 2.662,2.751l0,10.028Z" style="fill:none;stroke-width:42.7px;stroke:#f49ac1;"/><path d="M-733.78,147.79c-4.082,6.833 -9.229,13.045 -14.643,18.813c-3.816,4.082 -4.703,5.059 -4.703,7.721c0,3.905 3.816,7.188 7.543,7.188c2.041,0 3.55,-1.242 4.881,-2.84c1.42,-1.775 1.509,-1.952 6.656,-9.939c-0.089,6.301 -0.178,12.602 -0.178,18.902c0,3.728 0.089,5.236 0.888,6.656c1.242,2.13 3.194,3.017 6.212,3.017c6.922,0 6.922,-5.502 6.922,-8.608c0,-1.686 -0.178,-9.85 -0.178,-11.714c0,-8.519 0,-17.216 0.178,-25.735c8.874,-7.721 14.997,-8.342 18.636,-8.342c3.017,0 8.253,0.71 11.359,4.703c3.55,4.526 3.638,10.915 3.638,12.424c0,2.396 -0.355,6.478 -2.218,10.206c-2.574,5.235 -7.81,8.696 -14.022,9.85c-0.887,0.178 -6.478,0.621 -7.454,0.71c-1.952,0.178 -6.656,0.621 -6.656,6.39c0,7.01 6.035,7.01 7.898,7.01c1.154,0 3.728,-0.177 6.834,-0.621c9.14,-1.331 14.465,-4.082 18.458,-7.011c10.206,-7.632 11.271,-22.718 11.271,-28.664c0,-21.476 -14.732,-27.954 -26.89,-27.954c-6.833,0 -12.867,1.775 -20.233,6.922c0.089,-0.799 0.089,-1.864 0.177,-3.106c0.533,-7.632 0.533,-8.519 0.533,-9.762c0,-4.703 -2.662,-6.567 -7.1,-6.567c-4.437,0 -6.389,2.041 -6.922,4.97c-0.266,1.154 -0.532,7.188 -0.532,8.963l-11.004,0.532c-2.574,0.089 -7.189,0.799 -7.189,6.656c0,7.1 6.39,6.745 7.899,6.656l10.028,-0.621l-0.089,3.195Z" style="fill:none;stroke-width:42.7px;stroke:#f49ac1;"/><path d="M-636.961,149.653c12.335,-0.355 13.666,-0.444 25.824,-0.71c0,1.243 -0.088,7.455 -0.088,8.076c-0.178,2.307 -0.71,4.703 -3.816,4.703c-1.598,0 -3.018,-0.443 -4.793,-1.065c-1.863,-0.621 -3.017,-1.065 -4.525,-1.065c-3.195,0 -5.769,2.663 -5.769,6.479c0,8.164 15.087,8.785 17.216,8.785c15.531,0 15.708,-8.519 16.063,-26.268c8.342,-0.177 9.318,-0.089 11.004,-0.621c1.598,-0.444 3.639,-2.041 3.639,-6.123c0,-6.567 -4.526,-6.567 -7.277,-6.567c-1.598,0 -3.195,0 -7.543,0.088c-0.178,-7.365 -0.178,-8.874 -0.267,-10.826c-0.177,-5.857 -2.662,-7.188 -7.277,-7.188c-7.01,0 -7.01,5.147 -7.01,7.809c0,2.13 0.177,7.011 0.355,10.56c-12.957,0.267 -14.377,0.355 -25.647,0.71l0.088,-10.294c0,-4.26 -1.331,-7.366 -7.01,-7.366c-6.301,0 -7.011,3.994 -7.011,7.366l0,10.738c-8.519,0.266 -8.697,0.266 -10.205,0.71c-0.888,0.266 -3.639,1.509 -3.639,6.123c0,6.39 4.97,6.656 6.833,6.656c0.976,0 5.946,-0.266 7.011,-0.266l0,18.547c0,2.13 0,2.663 0.444,8.165c1.331,16.417 14.997,18.458 32.746,18.458c6.478,0 17.926,-0.532 21.831,-1.597c1.597,-0.444 5.147,-1.331 5.147,-6.656c0,-3.106 -1.597,-6.656 -6.123,-6.656c-2.485,0 -5.68,0.444 -6.39,0.533c-3.372,0.532 -9.14,1.153 -16.772,1.153c-16.24,0 -17.305,-3.017 -17.216,-14.287l0.177,-18.104Z" style="fill:none;stroke-width:42.7px;stroke:#f49ac1;"/><path d="M-1068.52,140.779c7.898,-0.355 8.785,-0.444 10.205,-0.799c0.799,-0.266 3.55,-1.331 3.55,-5.946c0,-6.478 -4.881,-6.478 -6.833,-6.478c-1.154,0 -2.663,0.089 -6.922,0.266l0,-3.638c0,-2.84 -0.178,-7.1 -6.745,-7.1c-6.567,0 -6.744,4.083 -6.744,7.189l0,4.17c-4.082,0.089 -17.305,0.355 -18.015,0.444c-2.308,0.355 -5.059,1.509 -5.059,6.212c0,6.478 4.97,6.478 7.189,6.478l3.461,0c1.774,0 10.383,-0.177 12.424,-0.266l0,8.786c-6.212,2.307 -23.695,8.963 -23.695,26.445c0,10.117 6.922,19.613 19.967,19.613c17.217,0 17.217,-15.175 17.217,-22.985l0,-13.755c2.13,-0.355 3.549,-0.533 6.922,-0.533c8.253,0 18.015,1.598 18.015,12.602c0,12.424 -12.868,12.424 -16.684,12.424c-2.84,0 -7.721,0 -7.721,5.768c0,6.834 5.68,6.834 8.52,6.834c19.612,0 30.882,-9.94 30.882,-25.203c0,-6.124 -2.041,-12.957 -7.454,-17.483c-7.455,-6.389 -19.879,-7.188 -24.848,-7.188c-3.55,0 -6.035,0.355 -7.632,0.532l0,-6.389ZM-1081.83,172.638c0,6.389 -1.065,10.471 -4.881,10.471c-3.549,0 -5.946,-3.372 -5.946,-7.365c0,-7.721 7.721,-11.359 10.827,-12.779l0,9.673ZM-1053.35,122.409c-0.266,0.177 -1.864,2.13 -1.864,3.993c0,0.267 0,2.751 2.485,4.615c5.768,4.348 7.721,5.857 12.158,11.98c1.952,2.663 3.195,4.438 6.123,4.438c3.55,0 7.455,-2.84 7.455,-7.011c0,-2.929 -2.041,-5.768 -5.591,-9.496c-4.082,-4.348 -11.448,-10.649 -15.797,-10.649c-2.484,0 -4.437,1.686 -4.969,2.13Z" style="fill:#ec1c24;fill-rule:nonzero;"/><path d="M-971.169,190.475c2.13,0 2.751,-0.089 3.639,-0.089c-0.266,1.598 -0.178,3.816 0.532,5.414c1.686,3.638 4.97,3.638 10.827,3.638c2.396,0 9.407,-0.089 11.448,-0.621c3.905,-0.976 5.591,-5.058 5.591,-9.229l0,-61.322c0,-7.632 -3.195,-10.56 -10.561,-10.56l-16.062,0c-7.011,0 -10.561,2.573 -10.561,10.56l0,16.329c0,8.253 3.905,10.56 10.561,10.56l13.489,0l0,27.422c0,1.42 0,2.928 -2.041,2.928c-0.888,0 -5.148,-0.177 -6.124,-0.177c0.444,-1.952 0.444,-3.372 0.444,-6.123l0,-9.318c0,-9.407 -1.775,-11.182 -11.182,-11.182l-14.642,0c-9.496,0 -11.182,1.952 -11.182,11.182l0,9.318c0,9.495 1.864,11.27 11.182,11.27l14.642,0ZM-963.626,132.614l0,-2.218c0,-1.065 0.533,-1.686 1.687,-1.686l7.986,0c1.065,0 1.687,0.532 1.687,1.686l0,2.218l-11.36,0ZM-961.939,145.305c-1.154,0 -1.687,-0.621 -1.687,-1.686l0,-2.396l11.36,0l0,4.082l-9.673,0ZM-972.234,177.252c0,1.065 -0.532,1.775 -1.775,1.775l-8.963,0c-1.242,0 -1.774,-0.621 -1.774,-1.775l0,-5.857c0,-1.153 0.532,-1.863 1.774,-1.863l8.963,0c1.154,0 1.775,0.621 1.775,1.863l0,5.857ZM-1004.8,155.155l13.578,0c7.011,0 10.472,-2.573 10.472,-10.56l0,-16.329c0,-7.632 -3.195,-10.56 -10.472,-10.56l-16.151,0c-7.011,0 -10.472,2.573 -10.472,10.56l0,64.871c0,3.461 1.065,6.567 6.745,6.567c6.3,0 6.3,-5.147 6.3,-6.567l0,-37.982ZM-1004.8,132.614l0,-2.218c0,-1.065 0.444,-1.686 1.687,-1.686l7.987,0c1.153,0 1.686,0.621 1.686,1.686l0,2.218l-11.36,0ZM-1004.8,141.223l11.36,0l0,2.396c0,1.419 -0.977,1.686 -1.686,1.686l-9.674,0l0,-4.082Z" style="fill:#ec1c24;fill-rule:nonzero;"/><path d="M-919.431,120.9c-3.373,0 -6.39,0.267 -7.632,4.792c-0.976,3.373 -1.331,18.104 -1.331,22.807c0,10.383 0,46.325 21.298,46.325c8.874,0 13.578,-6.035 15.441,-8.431c2.574,-3.372 7.189,-11.625 7.189,-17.571c0,-4.171 -3.461,-6.479 -7.544,-6.479c-4.259,0 -4.88,1.953 -6.389,6.834c-1.686,5.236 -4.082,9.318 -7.987,9.318c-2.041,0 -3.461,-1.243 -4.171,-2.396c-2.041,-3.461 -3.905,-11.892 -3.905,-24.582c0,-6.567 0.533,-13.844 0.799,-17.039c0.089,-0.976 0.621,-5.946 0.621,-7.011c0,-1.242 0,-6.567 -6.389,-6.567ZM-857.577,188.612c7.188,0 7.454,-5.591 7.454,-8.875c0,-14.82 -1.42,-33.722 -7.099,-43.04c-5.68,-9.318 -15.885,-11.36 -20.589,-11.36c-5.857,0 -7.277,3.728 -7.277,7.1c0,4.615 2.13,5.946 4.171,6.478c0.888,0.178 5.059,0.799 5.946,1.065c9.762,3.284 9.762,23.34 9.762,40.378c0,3.106 0,8.254 7.632,8.254Z" style="fill:#ec1c24;fill-rule:nonzero;"/><path d="M-784.719,153.025c4.437,0 6.478,-1.952 6.478,-6.3c4.083,2.751 8.964,5.945 13.223,5.945c3.461,0 6.479,-3.549 6.479,-7.986c0,-4.083 -2.13,-5.414 -4.615,-6.568c-8.431,-3.993 -14.554,-7.099 -25.647,-17.304c-5.058,-4.615 -6.922,-6.301 -12.247,-6.301c-5.324,0 -7.277,1.775 -11.98,6.212c-10.472,9.673 -14.288,11.625 -26.357,17.748c-2.041,0.977 -4.082,2.397 -4.082,6.124c0,3.993 2.662,8.075 6.745,8.075c3.727,0 9.318,-3.638 12.867,-5.857c0,3.728 1.42,6.212 6.479,6.212l32.657,0ZM-815.158,140.779c7.543,-5.68 9.939,-8.165 11.981,-10.294c0.266,-0.267 1.331,-1.332 2.218,-1.332c0.799,0 1.509,0.622 2.751,1.953c3.284,3.461 7.366,6.567 11.448,9.673l-28.398,0ZM-766.171,170.064c0,-9.318 -4.438,-11.803 -11.892,-11.803l-45.437,0c-7.365,0 -11.891,2.396 -11.891,11.803l0,16.506c0,9.23 4.348,11.892 11.891,11.892l45.437,0c7.721,0 11.892,-2.751 11.892,-11.892l0,-16.506ZM-780.193,183.287c0,1.597 -0.799,2.751 -2.662,2.751l-35.764,0c-1.863,0 -2.84,-0.976 -2.84,-2.751l0,-10.028c0,-1.509 0.71,-2.751 2.751,-2.751l35.853,0c1.686,0 2.662,0.976 2.662,2.751l0,10.028Z" style="fill:#ec1c24;fill-rule:nonzero;"/><path d="M-733.78,147.79c-4.082,6.833 -9.229,13.045 -14.643,18.813c-3.816,4.082 -4.703,5.059 -4.703,7.721c0,3.905 3.816,7.188 7.543,7.188c2.041,0 3.55,-1.242 4.881,-2.84c1.42,-1.775 1.509,-1.952 6.656,-9.939c-0.089,6.301 -0.178,12.602 -0.178,18.902c0,3.728 0.089,5.236 0.888,6.656c1.242,2.13 3.194,3.017 6.212,3.017c6.922,0 6.922,-5.502 6.922,-8.608c0,-1.686 -0.178,-9.85 -0.178,-11.714c0,-8.519 0,-17.216 0.178,-25.735c8.874,-7.721 14.997,-8.342 18.636,-8.342c3.017,0 8.253,0.71 11.359,4.703c3.55,4.526 3.638,10.915 3.638,12.424c0,2.396 -0.355,6.478 -2.218,10.206c-2.574,5.235 -7.81,8.696 -14.022,9.85c-0.887,0.178 -6.478,0.621 -7.454,0.71c-1.952,0.178 -6.656,0.621 -6.656,6.39c0,7.01 6.035,7.01 7.898,7.01c1.154,0 3.728,-0.177 6.834,-0.621c9.14,-1.331 14.465,-4.082 18.458,-7.011c10.206,-7.632 11.271,-22.718 11.271,-28.664c0,-21.476 -14.732,-27.954 -26.89,-27.954c-6.833,0 -12.867,1.775 -20.233,6.922c0.089,-0.799 0.089,-1.864 0.177,-3.106c0.533,-7.632 0.533,-8.519 0.533,-9.762c0,-4.703 -2.662,-6.567 -7.1,-6.567c-4.437,0 -6.389,2.041 -6.922,4.97c-0.266,1.154 -0.532,7.188 -0.532,8.963l-11.004,0.532c-2.574,0.089 -7.189,0.799 -7.189,6.656c0,7.1 6.39,6.745 7.899,6.656l10.028,-0.621l-0.089,3.195Z" style="fill:#ec1c24;fill-rule:nonzero;"/><path d="M-636.961,149.653c12.335,-0.355 13.666,-0.444 25.824,-0.71c0,1.243 -0.088,7.455 -0.088,8.076c-0.178,2.307 -0.71,4.703 -3.816,4.703c-1.598,0 -3.018,-0.443 -4.793,-1.065c-1.863,-0.621 -3.017,-1.065 -4.525,-1.065c-3.195,0 -5.769,2.663 -5.769,6.479c0,8.164 15.087,8.785 17.216,8.785c15.531,0 15.708,-8.519 16.063,-26.268c8.342,-0.177 9.318,-0.089 11.004,-0.621c1.598,-0.444 3.639,-2.041 3.639,-6.123c0,-6.567 -4.526,-6.567 -7.277,-6.567c-1.598,0 -3.195,0 -7.543,0.088c-0.178,-7.365 -0.178,-8.874 -0.267,-10.826c-0.177,-5.857 -2.662,-7.188 -7.277,-7.188c-7.01,0 -7.01,5.147 -7.01,7.809c0,2.13 0.177,7.011 0.355,10.56c-12.957,0.267 -14.377,0.355 -25.647,0.71l0.088,-10.294c0,-4.26 -1.331,-7.366 -7.01,-7.366c-6.301,0 -7.011,3.994 -7.011,7.366l0,10.738c-8.519,0.266 -8.697,0.266 -10.205,0.71c-0.888,0.266 -3.639,1.509 -3.639,6.123c0,6.39 4.97,6.656 6.833,6.656c0.976,0 5.946,-0.266 7.011,-0.266l0,18.547c0,2.13 0,2.663 0.444,8.165c1.331,16.417 14.997,18.458 32.746,18.458c6.478,0 17.926,-0.532 21.831,-1.597c1.597,-0.444 5.147,-1.331 5.147,-6.656c0,-3.106 -1.597,-6.656 -6.123,-6.656c-2.485,0 -5.68,0.444 -6.39,0.533c-3.372,0.532 -9.14,1.153 -16.772,1.153c-16.24,0 -17.305,-3.017 -17.216,-14.287l0.177,-18.104Z" style="fill:#ec1c24;fill-rule:nonzero;"/></g><g transform="matrix(0.655774,-8.88573e-27,7.87599e-27,0.655774,742.346,-57.7905)"><path d="M-1068.52,140.779c7.898,-0.355 8.785,-0.444 10.205,-0.799c0.799,-0.266 3.55,-1.331 3.55,-5.946c0,-6.478 -4.881,-6.478 -6.833,-6.478c-1.154,0 -2.663,0.089 -6.922,0.266l0,-3.638c0,-2.84 -0.178,-7.1 -6.745,-7.1c-6.567,0 -6.744,4.083 -6.744,7.189l0,4.17c-4.082,0.089 -17.305,0.355 -18.015,0.444c-2.308,0.355 -5.059,1.509 -5.059,6.212c0,6.478 4.97,6.478 7.189,6.478l3.461,0c1.774,0 10.383,-0.177 12.424,-0.266l0,8.786c-6.212,2.307 -23.695,8.963 -23.695,26.445c0,10.117 6.922,19.613 19.967,19.613c17.217,0 17.217,-15.175 17.217,-22.985l0,-13.755c2.13,-0.355 3.549,-0.533 6.922,-0.533c8.253,0 18.015,1.598 18.015,12.602c0,12.424 -12.868,12.424 -16.684,12.424c-2.84,0 -7.721,0 -7.721,5.768c0,6.834 5.68,6.834 8.52,6.834c19.612,0 30.882,-9.94 30.882,-25.203c0,-6.124 -2.041,-12.957 -7.454,-17.483c-7.455,-6.389 -19.879,-7.188 -24.848,-7.188c-3.55,0 -6.035,0.355 -7.632,0.532l0,-6.389ZM-1081.83,172.638c0,6.389 -1.065,10.471 -4.881,10.471c-3.549,0 -5.946,-3.372 -5.946,-7.365c0,-7.721 7.721,-11.359 10.827,-12.779l0,9.673ZM-1053.35,122.409c-0.266,0.177 -1.864,2.13 -1.864,3.993c0,0.267 0,2.751 2.485,4.615c5.768,4.348 7.721,5.857 12.158,11.98c1.952,2.663 3.195,4.438 6.123,4.438c3.55,0 7.455,-2.84 7.455,-7.011c0,-2.929 -2.041,-5.768 -5.591,-9.496c-4.082,-4.348 -11.448,-10.649 -15.797,-10.649c-2.484,0 -4.437,1.686 -4.969,2.13Z" style="fill:none;stroke-width:24.4px;stroke:#fff;"/><path d="M-971.169,190.475c2.13,0 2.751,-0.089 3.639,-0.089c-0.266,1.598 -0.178,3.816 0.532,5.414c1.686,3.638 4.97,3.638 10.827,3.638c2.396,0 9.407,-0.089 11.448,-0.621c3.905,-0.976 5.591,-5.058 5.591,-9.229l0,-61.322c0,-7.632 -3.195,-10.56 -10.561,-10.56l-16.062,0c-7.011,0 -10.561,2.573 -10.561,10.56l0,16.329c0,8.253 3.905,10.56 10.561,10.56l13.489,0l0,27.422c0,1.42 0,2.928 -2.041,2.928c-0.888,0 -5.148,-0.177 -6.124,-0.177c0.444,-1.952 0.444,-3.372 0.444,-6.123l0,-9.318c0,-9.407 -1.775,-11.182 -11.182,-11.182l-14.642,0c-9.496,0 -11.182,1.952 -11.182,11.182l0,9.318c0,9.495 1.864,11.27 11.182,11.27l14.642,0ZM-963.626,132.614l0,-2.218c0,-1.065 0.533,-1.686 1.687,-1.686l7.986,0c1.065,0 1.687,0.532 1.687,1.686l0,2.218l-11.36,0ZM-961.939,145.305c-1.154,0 -1.687,-0.621 -1.687,-1.686l0,-2.396l11.36,0l0,4.082l-9.673,0ZM-972.234,177.252c0,1.065 -0.532,1.775 -1.775,1.775l-8.963,0c-1.242,0 -1.774,-0.621 -1.774,-1.775l0,-5.857c0,-1.153 0.532,-1.863 1.774,-1.863l8.963,0c1.154,0 1.775,0.621 1.775,1.863l0,5.857ZM-1004.8,155.155l13.578,0c7.011,0 10.472,-2.573 10.472,-10.56l0,-16.329c0,-7.632 -3.195,-10.56 -10.472,-10.56l-16.151,0c-7.011,0 -10.472,2.573 -10.472,10.56l0,64.871c0,3.461 1.065,6.567 6.745,6.567c6.3,0 6.3,-5.147 6.3,-6.567l0,-37.982ZM-1004.8,132.614l0,-2.218c0,-1.065 0.444,-1.686 1.687,-1.686l7.987,0c1.153,0 1.686,0.621 1.686,1.686l0,2.218l-11.36,0ZM-1004.8,141.223l11.36,0l0,2.396c0,1.419 -0.977,1.686 -1.686,1.686l-9.674,0l0,-4.082Z" style="fill:none;stroke-width:24.4px;stroke:#fff;"/><path d="M-919.431,120.9c-3.373,0 -6.39,0.267 -7.632,4.792c-0.976,3.373 -1.331,18.104 -1.331,22.807c0,10.383 0,46.325 21.298,46.325c8.874,0 13.578,-6.035 15.441,-8.431c2.574,-3.372 7.189,-11.625 7.189,-17.571c0,-4.171 -3.461,-6.479 -7.544,-6.479c-4.259,0 -4.88,1.953 -6.389,6.834c-1.686,5.236 -4.082,9.318 -7.987,9.318c-2.041,0 -3.461,-1.243 -4.171,-2.396c-2.041,-3.461 -3.905,-11.892 -3.905,-24.582c0,-6.567 0.533,-13.844 0.799,-17.039c0.089,-0.976 0.621,-5.946 0.621,-7.011c0,-1.242 0,-6.567 -6.389,-6.567ZM-857.577,188.612c7.188,0 7.454,-5.591 7.454,-8.875c0,-14.82 -1.42,-33.722 -7.099,-43.04c-5.68,-9.318 -15.885,-11.36 -20.589,-11.36c-5.857,0 -7.277,3.728 -7.277,7.1c0,4.615 2.13,5.946 4.171,6.478c0.888,0.178 5.059,0.799 5.946,1.065c9.762,3.284 9.762,23.34 9.762,40.378c0,3.106 0,8.254 7.632,8.254Z" style="fill:none;stroke-width:24.4px;stroke:#fff;"/><path d="M-784.719,153.025c4.437,0 6.478,-1.952 6.478,-6.3c4.083,2.751 8.964,5.945 13.223,5.945c3.461,0 6.479,-3.549 6.479,-7.986c0,-4.083 -2.13,-5.414 -4.615,-6.568c-8.431,-3.993 -14.554,-7.099 -25.647,-17.304c-5.058,-4.615 -6.922,-6.301 -12.247,-6.301c-5.324,0 -7.277,1.775 -11.98,6.212c-10.472,9.673 -14.288,11.625 -26.357,17.748c-2.041,0.977 -4.082,2.397 -4.082,6.124c0,3.993 2.662,8.075 6.745,8.075c3.727,0 9.318,-3.638 12.867,-5.857c0,3.728 1.42,6.212 6.479,6.212l32.657,0ZM-815.158,140.779c7.543,-5.68 9.939,-8.165 11.981,-10.294c0.266,-0.267 1.331,-1.332 2.218,-1.332c0.799,0 1.509,0.622 2.751,1.953c3.284,3.461 7.366,6.567 11.448,9.673l-28.398,0ZM-766.171,170.064c0,-9.318 -4.438,-11.803 -11.892,-11.803l-45.437,0c-7.365,0 -11.891,2.396 -11.891,11.803l0,16.506c0,9.23 4.348,11.892 11.891,11.892l45.437,0c7.721,0 11.892,-2.751 11.892,-11.892l0,-16.506ZM-780.193,183.287c0,1.597 -0.799,2.751 -2.662,2.751l-35.764,0c-1.863,0 -2.84,-0.976 -2.84,-2.751l0,-10.028c0,-1.509 0.71,-2.751 2.751,-2.751l35.853,0c1.686,0 2.662,0.976 2.662,2.751l0,10.028Z" style="fill:none;stroke-width:24.4px;stroke:#fff;"/><path d="M-733.78,147.79c-4.082,6.833 -9.229,13.045 -14.643,18.813c-3.816,4.082 -4.703,5.059 -4.703,7.721c0,3.905 3.816,7.188 7.543,7.188c2.041,0 3.55,-1.242 4.881,-2.84c1.42,-1.775 1.509,-1.952 6.656,-9.939c-0.089,6.301 -0.178,12.602 -0.178,18.902c0,3.728 0.089,5.236 0.888,6.656c1.242,2.13 3.194,3.017 6.212,3.017c6.922,0 6.922,-5.502 6.922,-8.608c0,-1.686 -0.178,-9.85 -0.178,-11.714c0,-8.519 0,-17.216 0.178,-25.735c8.874,-7.721 14.997,-8.342 18.636,-8.342c3.017,0 8.253,0.71 11.359,4.703c3.55,4.526 3.638,10.915 3.638,12.424c0,2.396 -0.355,6.478 -2.218,10.206c-2.574,5.235 -7.81,8.696 -14.022,9.85c-0.887,0.178 -6.478,0.621 -7.454,0.71c-1.952,0.178 -6.656,0.621 -6.656,6.39c0,7.01 6.035,7.01 7.898,7.01c1.154,0 3.728,-0.177 6.834,-0.621c9.14,-1.331 14.465,-4.082 18.458,-7.011c10.206,-7.632 11.271,-22.718 11.271,-28.664c0,-21.476 -14.732,-27.954 -26.89,-27.954c-6.833,0 -12.867,1.775 -20.233,6.922c0.089,-0.799 0.089,-1.864 0.177,-3.106c0.533,-7.632 0.533,-8.519 0.533,-9.762c0,-4.703 -2.662,-6.567 -7.1,-6.567c-4.437,0 -6.389,2.041 -6.922,4.97c-0.266,1.154 -0.532,7.188 -0.532,8.963l-11.004,0.532c-2.574,0.089 -7.189,0.799 -7.189,6.656c0,7.1 6.39,6.745 7.899,6.656l10.028,-0.621l-0.089,3.195Z" style="fill:none;stroke-width:24.4px;stroke:#fff;"/><path d="M-636.961,149.653c12.335,-0.355 13.666,-0.444 25.824,-0.71c0,1.243 -0.088,7.455 -0.088,8.076c-0.178,2.307 -0.71,4.703 -3.816,4.703c-1.598,0 -3.018,-0.443 -4.793,-1.065c-1.863,-0.621 -3.017,-1.065 -4.525,-1.065c-3.195,0 -5.769,2.663 -5.769,6.479c0,8.164 15.087,8.785 17.216,8.785c15.531,0 15.708,-8.519 16.063,-26.268c8.342,-0.177 9.318,-0.089 11.004,-0.621c1.598,-0.444 3.639,-2.041 3.639,-6.123c0,-6.567 -4.526,-6.567 -7.277,-6.567c-1.598,0 -3.195,0 -7.543,0.088c-0.178,-7.365 -0.178,-8.874 -0.267,-10.826c-0.177,-5.857 -2.662,-7.188 -7.277,-7.188c-7.01,0 -7.01,5.147 -7.01,7.809c0,2.13 0.177,7.011 0.355,10.56c-12.957,0.267 -14.377,0.355 -25.647,0.71l0.088,-10.294c0,-4.26 -1.331,-7.366 -7.01,-7.366c-6.301,0 -7.011,3.994 -7.011,7.366l0,10.738c-8.519,0.266 -8.697,0.266 -10.205,0.71c-0.888,0.266 -3.639,1.509 -3.639,6.123c0,6.39 4.97,6.656 6.833,6.656c0.976,0 5.946,-0.266 7.011,-0.266l0,18.547c0,2.13 0,2.663 0.444,8.165c1.331,16.417 14.997,18.458 32.746,18.458c6.478,0 17.926,-0.532 21.831,-1.597c1.597,-0.444 5.147,-1.331 5.147,-6.656c0,-3.106 -1.597,-6.656 -6.123,-6.656c-2.485,0 -5.68,0.444 -6.39,0.533c-3.372,0.532 -9.14,1.153 -16.772,1.153c-16.24,0 -17.305,-3.017 -17.216,-14.287l0.177,-18.104Z" style="fill:none;stroke-width:24.4px;stroke:#fff;"/><path d="M-1068.52,140.779c7.898,-0.355 8.785,-0.444 10.205,-0.799c0.799,-0.266 3.55,-1.331 3.55,-5.946c0,-6.478 -4.881,-6.478 -6.833,-6.478c-1.154,0 -2.663,0.089 -6.922,0.266l0,-3.638c0,-2.84 -0.178,-7.1 -6.745,-7.1c-6.567,0 -6.744,4.083 -6.744,7.189l0,4.17c-4.082,0.089 -17.305,0.355 -18.015,0.444c-2.308,0.355 -5.059,1.509 -5.059,6.212c0,6.478 4.97,6.478 7.189,6.478l3.461,0c1.774,0 10.383,-0.177 12.424,-0.266l0,8.786c-6.212,2.307 -23.695,8.963 -23.695,26.445c0,10.117 6.922,19.613 19.967,19.613c17.217,0 17.217,-15.175 17.217,-22.985l0,-13.755c2.13,-0.355 3.549,-0.533 6.922,-0.533c8.253,0 18.015,1.598 18.015,12.602c0,12.424 -12.868,12.424 -16.684,12.424c-2.84,0 -7.721,0 -7.721,5.768c0,6.834 5.68,6.834 8.52,6.834c19.612,0 30.882,-9.94 30.882,-25.203c0,-6.124 -2.041,-12.957 -7.454,-17.483c-7.455,-6.389 -19.879,-7.188 -24.848,-7.188c-3.55,0 -6.035,0.355 -7.632,0.532l0,-6.389ZM-1081.83,172.638c0,6.389 -1.065,10.471 -4.881,10.471c-3.549,0 -5.946,-3.372 -5.946,-7.365c0,-7.721 7.721,-11.359 10.827,-12.779l0,9.673ZM-1053.35,122.409c-0.266,0.177 -1.864,2.13 -1.864,3.993c0,0.267 0,2.751 2.485,4.615c5.768,4.348 7.721,5.857 12.158,11.98c1.952,2.663 3.195,4.438 6.123,4.438c3.55,0 7.455,-2.84 7.455,-7.011c0,-2.929 -2.041,-5.768 -5.591,-9.496c-4.082,-4.348 -11.448,-10.649 -15.797,-10.649c-2.484,0 -4.437,1.686 -4.969,2.13Z" style="fill:#ec1c24;fill-rule:nonzero;"/><path d="M-971.169,190.475c2.13,0 2.751,-0.089 3.639,-0.089c-0.266,1.598 -0.178,3.816 0.532,5.414c1.686,3.638 4.97,3.638 10.827,3.638c2.396,0 9.407,-0.089 11.448,-0.621c3.905,-0.976 5.591,-5.058 5.591,-9.229l0,-61.322c0,-7.632 -3.195,-10.56 -10.561,-10.56l-16.062,0c-7.011,0 -10.561,2.573 -10.561,10.56l0,16.329c0,8.253 3.905,10.56 10.561,10.56l13.489,0l0,27.422c0,1.42 0,2.928 -2.041,2.928c-0.888,0 -5.148,-0.177 -6.124,-0.177c0.444,-1.952 0.444,-3.372 0.444,-6.123l0,-9.318c0,-9.407 -1.775,-11.182 -11.182,-11.182l-14.642,0c-9.496,0 -11.182,1.952 -11.182,11.182l0,9.318c0,9.495 1.864,11.27 11.182,11.27l14.642,0ZM-963.626,132.614l0,-2.218c0,-1.065 0.533,-1.686 1.687,-1.686l7.986,0c1.065,0 1.687,0.532 1.687,1.686l0,2.218l-11.36,0ZM-961.939,145.305c-1.154,0 -1.687,-0.621 -1.687,-1.686l0,-2.396l11.36,0l0,4.082l-9.673,0ZM-972.234,177.252c0,1.065 -0.532,1.775 -1.775,1.775l-8.963,0c-1.242,0 -1.774,-0.621 -1.774,-1.775l0,-5.857c0,-1.153 0.532,-1.863 1.774,-1.863l8.963,0c1.154,0 1.775,0.621 1.775,1.863l0,5.857ZM-1004.8,155.155l13.578,0c7.011,0 10.472,-2.573 10.472,-10.56l0,-16.329c0,-7.632 -3.195,-10.56 -10.472,-10.56l-16.151,0c-7.011,0 -10.472,2.573 -10.472,10.56l0,64.871c0,3.461 1.065,6.567 6.745,6.567c6.3,0 6.3,-5.147 6.3,-6.567l0,-37.982ZM-1004.8,132.614l0,-2.218c0,-1.065 0.444,-1.686 1.687,-1.686l7.987,0c1.153,0 1.686,0.621 1.686,1.686l0,2.218l-11.36,0ZM-1004.8,141.223l11.36,0l0,2.396c0,1.419 -0.977,1.686 -1.686,1.686l-9.674,0l0,-4.082Z" style="fill:#ec1c24;fill-rule:nonzero;"/><path d="M-919.431,120.9c-3.373,0 -6.39,0.267 -7.632,4.792c-0.976,3.373 -1.331,18.104 -1.331,22.807c0,10.383 0,46.325 21.298,46.325c8.874,0 13.578,-6.035 15.441,-8.431c2.574,-3.372 7.189,-11.625 7.189,-17.571c0,-4.171 -3.461,-6.479 -7.544,-6.479c-4.259,0 -4.88,1.953 -6.389,6.834c-1.686,5.236 -4.082,9.318 -7.987,9.318c-2.041,0 -3.461,-1.243 -4.171,-2.396c-2.041,-3.461 -3.905,-11.892 -3.905,-24.582c0,-6.567 0.533,-13.844 0.799,-17.039c0.089,-0.976 0.621,-5.946 0.621,-7.011c0,-1.242 0,-6.567 -6.389,-6.567ZM-857.577,188.612c7.188,0 7.454,-5.591 7.454,-8.875c0,-14.82 -1.42,-33.722 -7.099,-43.04c-5.68,-9.318 -15.885,-11.36 -20.589,-11.36c-5.857,0 -7.277,3.728 -7.277,7.1c0,4.615 2.13,5.946 4.171,6.478c0.888,0.178 5.059,0.799 5.946,1.065c9.762,3.284 9.762,23.34 9.762,40.378c0,3.106 0,8.254 7.632,8.254Z" style="fill:#ec1c24;fill-rule:nonzero;"/><path d="M-784.719,153.025c4.437,0 6.478,-1.952 6.478,-6.3c4.083,2.751 8.964,5.945 13.223,5.945c3.461,0 6.479,-3.549 6.479,-7.986c0,-4.083 -2.13,-5.414 -4.615,-6.568c-8.431,-3.993 -14.554,-7.099 -25.647,-17.304c-5.058,-4.615 -6.922,-6.301 -12.247,-6.301c-5.324,0 -7.277,1.775 -11.98,6.212c-10.472,9.673 -14.288,11.625 -26.357,17.748c-2.041,0.977 -4.082,2.397 -4.082,6.124c0,3.993 2.662,8.075 6.745,8.075c3.727,0 9.318,-3.638 12.867,-5.857c0,3.728 1.42,6.212 6.479,6.212l32.657,0ZM-815.158,140.779c7.543,-5.68 9.939,-8.165 11.981,-10.294c0.266,-0.267 1.331,-1.332 2.218,-1.332c0.799,0 1.509,0.622 2.751,1.953c3.284,3.461 7.366,6.567 11.448,9.673l-28.398,0ZM-766.171,170.064c0,-9.318 -4.438,-11.803 -11.892,-11.803l-45.437,0c-7.365,0 -11.891,2.396 -11.891,11.803l0,16.506c0,9.23 4.348,11.892 11.891,11.892l45.437,0c7.721,0 11.892,-2.751 11.892,-11.892l0,-16.506ZM-780.193,183.287c0,1.597 -0.799,2.751 -2.662,2.751l-35.764,0c-1.863,0 -2.84,-0.976 -2.84,-2.751l0,-10.028c0,-1.509 0.71,-2.751 2.751,-2.751l35.853,0c1.686,0 2.662,0.976 2.662,2.751l0,10.028Z" style="fill:#ec1c24;fill-rule:nonzero;"/><path d="M-733.78,147.79c-4.082,6.833 -9.229,13.045 -14.643,18.813c-3.816,4.082 -4.703,5.059 -4.703,7.721c0,3.905 3.816,7.188 7.543,7.188c2.041,0 3.55,-1.242 4.881,-2.84c1.42,-1.775 1.509,-1.952 6.656,-9.939c-0.089,6.301 -0.178,12.602 -0.178,18.902c0,3.728 0.089,5.236 0.888,6.656c1.242,2.13 3.194,3.017 6.212,3.017c6.922,0 6.922,-5.502 6.922,-8.608c0,-1.686 -0.178,-9.85 -0.178,-11.714c0,-8.519 0,-17.216 0.178,-25.735c8.874,-7.721 14.997,-8.342 18.636,-8.342c3.017,0 8.253,0.71 11.359,4.703c3.55,4.526 3.638,10.915 3.638,12.424c0,2.396 -0.355,6.478 -2.218,10.206c-2.574,5.235 -7.81,8.696 -14.022,9.85c-0.887,0.178 -6.478,0.621 -7.454,0.71c-1.952,0.178 -6.656,0.621 -6.656,6.39c0,7.01 6.035,7.01 7.898,7.01c1.154,0 3.728,-0.177 6.834,-0.621c9.14,-1.331 14.465,-4.082 18.458,-7.011c10.206,-7.632 11.271,-22.718 11.271,-28.664c0,-21.476 -14.732,-27.954 -26.89,-27.954c-6.833,0 -12.867,1.775 -20.233,6.922c0.089,-0.799 0.089,-1.864 0.177,-3.106c0.533,-7.632 0.533,-8.519 0.533,-9.762c0,-4.703 -2.662,-6.567 -7.1,-6.567c-4.437,0 -6.389,2.041 -6.922,4.97c-0.266,1.154 -0.532,7.188 -0.532,8.963l-11.004,0.532c-2.574,0.089 -7.189,0.799 -7.189,6.656c0,7.1 6.39,6.745 7.899,6.656l10.028,-0.621l-0.089,3.195Z" style="fill:#ec1c24;fill-rule:nonzero;"/><path d="M-636.961,149.653c12.335,-0.355 13.666,-0.444 25.824,-0.71c0,1.243 -0.088,7.455 -0.088,8.076c-0.178,2.307 -0.71,4.703 -3.816,4.703c-1.598,0 -3.018,-0.443 -4.793,-1.065c-1.863,-0.621 -3.017,-1.065 -4.525,-1.065c-3.195,0 -5.769,2.663 -5.769,6.479c0,8.164 15.087,8.785 17.216,8.785c15.531,0 15.708,-8.519 16.063,-26.268c8.342,-0.177 9.318,-0.089 11.004,-0.621c1.598,-0.444 3.639,-2.041 3.639,-6.123c0,-6.567 -4.526,-6.567 -7.277,-6.567c-1.598,0 -3.195,0 -7.543,0.088c-0.178,-7.365 -0.178,-8.874 -0.267,-10.826c-0.177,-5.857 -2.662,-7.188 -7.277,-7.188c-7.01,0 -7.01,5.147 -7.01,7.809c0,2.13 0.177,7.011 0.355,10.56c-12.957,0.267 -14.377,0.355 -25.647,0.71l0.088,-10.294c0,-4.26 -1.331,-7.366 -7.01,-7.366c-6.301,0 -7.011,3.994 -7.011,7.366l0,10.738c-8.519,0.266 -8.697,0.266 -10.205,0.71c-0.888,0.266 -3.639,1.509 -3.639,6.123c0,6.39 4.97,6.656 6.833,6.656c0.976,0 5.946,-0.266 7.011,-0.266l0,18.547c0,2.13 0,2.663 0.444,8.165c1.331,16.417 14.997,18.458 32.746,18.458c6.478,0 17.926,-0.532 21.831,-1.597c1.597,-0.444 5.147,-1.331 5.147,-6.656c0,-3.106 -1.597,-6.656 -6.123,-6.656c-2.485,0 -5.68,0.444 -6.39,0.533c-3.372,0.532 -9.14,1.153 -16.772,1.153c-16.24,0 -17.305,-3.017 -17.216,-14.287l0.177,-18.104Z" style="fill:#ec1c24;fill-rule:nonzero;"/></g></g></svg>