<?xml version="1.0" standalone="no"?><!DOCTYPE svg PUBLIC "-//W3C//DTD SVG 1.1//EN" "http://www.w3.org/Graphics/SVG/1.1/DTD/svg11.dtd"><svg width="100%" height="100%" viewBox="0 0 896 266" version="1.1" xmlns="http://www.w3.org/2000/svg" xmlns:xlink="http://www.w3.org/1999/xlink" xml:space="preserve" style="fill-rule:evenodd;clip-rule:evenodd;stroke-linejoin:round;stroke-miterlimit:1.41421;"><g id="contact-title" transform="matrix(0.577958,-4.03897e-27,1.00974e-27,0.575945,664.388,-53.6325)"><path d="M-908.735,138.291c-6.334,0 -7.334,0.111 -16.113,0.222c-0.333,-18.557 -0.333,-20.668 -1,-39.781l-13.223,0c-0.111,6 -0.445,19.78 -0.445,24.891l0,15.557c-2.666,0.111 -8.667,0.556 -17.335,1.334c0,-11.224 0,-13.002 -0.777,-27.447l-12.779,0c-0.223,5 -0.445,12.334 -0.445,17.89c0,5.89 0.222,11.779 0.778,21.78c16.001,-0.333 17.779,-0.333 30.67,-0.889c0.333,15.779 0.333,17.557 0.666,32.336c-15.112,1.001 -18.001,1.112 -25.224,2.001c0.222,-9.89 0.222,-10.89 -0.556,-25.114l-12.557,0.222c-0.222,3.667 -0.444,8.112 -0.444,15.557c0,4.89 0.111,9.223 0.555,21.225c23.336,-0.223 31.003,-0.334 44.671,-0.889c29.448,-1.223 36.115,-1.556 44.782,-2.334c0.111,-3.889 0.223,-9.779 0.223,-14.223c0,-5.334 -0.112,-9.779 -0.667,-20.225l-12.668,0c-0.556,12.446 -0.556,13.224 -0.444,22.447c-3.445,0.111 -20.225,0.556 -24.003,0.667c0.111,-17.002 0.111,-18.891 0.222,-32.448c7.446,-0.444 8.335,-0.555 16.113,-1.222l0,-11.557ZM-905.735,112.289c-0.222,5.556 -0.333,10.223 -0.333,17.001c0,6.334 0.111,11.668 0.667,23.78l12.334,-0.111c0.223,-4.778 0.445,-12.001 0.445,-18.224c0,-6.334 -0.222,-12.001 -0.778,-22.557l-12.335,0.111Z" style="fill:#ff006f;fill-rule:nonzero;"/><path d="M-772.944,192.852c-9.001,-11.223 -18.669,-21.78 -29.225,-31.448c9.556,-0.555 19.668,-1.222 28.558,-1.889l-0.111,-10.334c-12.335,-0.111 -29.336,0.333 -42.226,1.111c0,-3.444 0.333,-19.557 0.333,-21.668c0,-3.112 -0.111,-8.112 -0.222,-15.557c10.556,-0.556 24.558,-1.445 38.337,-2.556l0,-10.668c-15.78,-0.222 -34.892,0.445 -50.894,1.778c-0.667,13.779 -0.667,25.891 -0.667,31.003c0,10.334 0.223,15.557 0.334,18.446c-2.334,0.111 -4.112,0.334 -8.779,0.778l0,10.445c6.89,0 14.89,-0.111 24.225,-0.444c1.333,0 8.334,-0.333 9.889,-0.445l-8.111,5.89c9.334,12.557 17.112,21.224 30.225,32.447l8.334,-6.889ZM-851.729,127.846c-7.668,-0.556 -14.557,0.444 -17.224,0.778c-2.778,13.556 -4.334,24.78 -5.001,38.67c6.445,0.222 11.223,0.111 19.891,-0.333c-1.111,6.445 -1.889,11.334 -2.778,19.224c-5.001,-0.556 -8.334,-0.667 -12.001,-0.667l-2.223,11.223c8.112,1.667 16.335,2.556 24.669,2.667c3.223,-12.001 5.445,-25.336 6.557,-45.226c-8.112,-0.112 -12.002,0.111 -19.891,0.889c0.778,-5.223 1.333,-10.557 1.778,-15.78c2.111,0 3.667,-0.222 5.778,-0.666l0.445,-10.779ZM-838.617,142.18c3.222,-14.223 4.778,-28.558 5.111,-41.003c-13.779,-0.112 -24.224,0.222 -37.336,1.889l0.111,11.223c10.779,0 19.113,-0.556 24.002,-1c-1.445,9.334 -2.445,18.668 -2.889,28.114l11.001,0.777ZM-781.945,163.071c-4.112,0 -7.334,3.556 -7.334,7.112c0,3.778 3.556,7.001 7.334,7.001c3.889,0 7.001,-3.223 7.001,-6.89c0,-3.556 -3.001,-7.223 -7.001,-7.223ZM-805.281,178.851c-2.778,0.666 -4.667,1.222 -9.778,2.555c0.111,-6 0,-10.112 -0.556,-16.89l-12.223,0.444c-0.223,3.112 -0.556,7.334 -0.556,13.446c0,3.778 0.111,5.556 0.222,7.112c-7.667,2.778 -10.334,3.889 -12.445,4.778l3,10.112c12.334,-3 22.447,-6.112 35.448,-11.556l-3.112,-10.001ZM-785.834,118.178c-8.668,0 -17.446,0.445 -26.114,1.445l0.111,9.223c9.112,0 15.446,-0.334 26.114,-1.445l-0.111,-9.223ZM-785.39,132.846c-8.001,-0.111 -15.335,0.111 -26.78,1.445l0.111,9.334c9.334,0 16.001,-0.222 26.669,-1.445l0,-9.334Z" style="fill:#ff006f;fill-rule:nonzero;"/><path d="M-663.934,177.517c-0.778,0 -5,0.111 -5.889,0.111c0,-10.779 -0.334,-20.224 -0.445,-24.002c-4.556,0 -9.779,0.111 -19.113,0.667c0,-1.445 -0.111,-3.89 -0.111,-5.334c11.334,-0.556 12.668,-0.667 25.002,-1.556l0,-9.556c-0.889,0 -7,0.111 -13.668,0.222c0,-3.445 0.112,-4.556 0.112,-6.112c0.666,-0.111 7.445,-0.555 7.445,-0.555l0,-8.557l-7.445,0c0,-1.222 -0.112,-4.445 -0.112,-5.222c1.556,-0.112 8.557,-0.556 10.224,-0.667l0,-9.334c-4.445,0 -7.445,0 -10.335,0.111c-0.222,-5.445 -0.333,-8.334 -0.444,-11.112l-11.779,0.222c-0.111,4.334 -0.222,7.334 -0.333,11.223c-1.556,0.111 -8.668,0.333 -9.668,0.445c0,-2.001 -0.222,-10.335 -0.222,-11.557l-11.335,0c-0.222,3.334 -0.444,8.334 -0.555,12.334c-3.223,0.223 -7.112,0.556 -10.557,0.889l0,9.779c1,0 8.779,-0.333 10.335,-0.444l0,4.778c-5.445,0.444 -6.668,0.555 -8.557,0.778l0,9.001c0.222,0 7.89,-0.334 8.668,-0.334c0.111,3.667 0.111,4.778 0.222,5.89c-1.334,0.111 -9.334,0.666 -15.002,1.111l0,9.779c9.89,-0.223 10.001,-0.223 26.225,-0.889l-0.111,5.556c-2.889,0.333 -3.111,0.333 -4.556,0.444l0,8.668c1,0 3.667,-0.111 4.445,-0.111l0,3.778c-1,0 -5.778,0.333 -6.89,0.333c0,-3.445 -0.111,-7.001 -0.333,-14.224l-11.223,0.223c-0.445,15.446 -0.445,21.224 -0.445,25.78c-1.111,0 -5.889,0.333 -7,0.444l0,10.001c1.111,0 4.667,-0.111 7,-0.222c0,2 0.111,4.778 0.334,11.557l11.334,-0.111c0.222,-6.001 0.222,-8.779 0.333,-11.89c13.224,-0.556 14.557,-0.667 26.67,-1.334c0.111,0.334 0.111,2.667 0.111,3.223c-3.445,0.111 -4.445,0.111 -8.557,0.444l-0.222,8.445c8.001,0.445 13.668,0.667 20.113,0.445c0.111,-2.667 0.222,-5.223 0.445,-13.446c1.111,-0.111 5,-0.333 5.889,-0.444l0,-9.668ZM-689.492,178.295l0.111,-4.223c0.778,-0.111 4.334,-0.333 5.001,-0.333l0,-6.445c-0.778,0 -4.334,0.111 -5.001,0.111l0.111,-3.778c2.334,-0.222 3.667,-0.222 7.334,-0.556c-0.111,9.668 0,11.335 0,15.002l-7.556,0.222ZM-708.383,179.295l0,-4.334c1.223,0 2.556,-0.111 6.89,-0.222l0,4.112l-6.89,0.444ZM-690.936,118.4l0,4.668c-1.445,0.111 -8.223,0.333 -9.557,0.444l0,-4.556c3.778,-0.222 4.334,-0.222 9.557,-0.556ZM-690.825,132.735c0.111,3.556 0.111,4.445 0.111,5.667c-1.556,0.111 -8.668,0.445 -10.112,0.445c0,-2.556 0.111,-4.001 0.111,-5.667c3.333,-0.112 6.667,-0.223 9.89,-0.445ZM-727.051,113.956c-16.891,0 -29.781,0.555 -42.226,1.444l-0.111,11.335c14.779,-0.112 30.114,-1.001 42.337,-2.112l0,-10.667ZM-732.274,149.07c-9.89,0 -19.002,0.444 -31.003,1.667l0,10.112c9.446,-0.111 20.78,-0.556 31.003,-1.778l0,-10.001ZM-747.72,96.176c-2.667,0 -8.223,1.889 -8.223,7.667c0,4.001 3.223,8.557 8.779,8.557c5,0 8.445,-3.556 8.445,-7.668c0,-3.667 -3.333,-8.556 -9.001,-8.556ZM-731.829,132.846c-6.445,-0.111 -17.669,-0.111 -31.781,1.445l0,10.223c10.001,0 19.668,-0.333 31.781,-1.445l0,-10.223ZM-763.499,165.96c-0.222,3.223 -0.556,8.223 -0.556,16.78c0,8.667 0.334,14.112 0.556,16.89c11.223,0.111 20.891,-0.222 31.892,-1.444c0.111,-2.667 0.222,-6.334 0.222,-11.779c0,-8.668 -0.333,-15.557 -0.555,-20.335c-3.89,0.111 -10.224,0.222 -17.78,1.333l0.222,10.445c3.223,0 3.556,0 6.334,-0.222l0,10.112c-4.111,0.111 -6.222,0.223 -9.001,0.445c0,-8.001 -0.111,-11.112 -0.555,-22.225l-10.779,0Z" style="fill:#ff006f;fill-rule:nonzero;"/><path d="M-623.708,130.624c-5.889,6.778 -15.557,21.669 -17.446,24.558c3.334,-17.78 4.667,-32.781 5.445,-44.893l-11.112,-1.334c-1.111,6.445 -15.002,85.564 -15.446,89.008l10.779,2.445c4.445,-15.668 5.111,-18.779 9.667,-41.448l7.668,5.556c1.889,-2.111 4.222,-5.445 6.667,-8.779c3.222,2.223 6.667,4.445 10.223,6.223l5.667,-9.112c-3.111,-2.333 -6.445,-4.334 -9.778,-6.334c4.111,-6.223 5.333,-8.556 6.334,-10.334l-8.668,-5.556ZM-579.037,130.513c-4.334,4.778 -15.224,20.113 -18.557,27.336c-0.111,-21.225 -0.111,-23.558 -0.445,-27.114l-11.668,0.333c-0.222,1.667 -1,20.113 -1,37.115c-10.112,0.556 -15.001,0.778 -21.557,1.444l0.111,10.224l3.556,0c2.111,-0.111 13.112,-0.445 18.001,-0.556l0.112,6.89c-21.225,1 -21.891,1 -30.559,1.555l0,10.89c23.78,-0.222 27.225,-0.333 58.117,-1.333c5.889,-0.334 13.557,-0.556 19.224,-1l0,-11.335c-11.779,0 -14.891,0.111 -34.003,0.667l0,-6.778c14.668,-0.778 17.779,-0.889 23.446,-1.445l-0.111,-10.112c-2.222,0 -16.335,0 -23.224,0.333l0,-9.445l8.334,5.556c2.333,-2.778 6.111,-8.223 7.556,-10.334c-0.667,4.667 3.334,8.889 8.001,8.889c4.445,0 7,-3.555 7,-6.778c0,-3.667 -3.444,-8.001 -8.334,-8.001c-1.666,0 -2.667,0.556 -3.222,0.889c1.778,-2.778 5.778,-8.778 7.556,-12.112l-8.334,-5.778ZM-604.817,94.065c-6.556,0 -8.223,5.222 -8.223,7.667c0,4.223 3.889,8.668 9.89,8.668c6.111,0 8.667,-4.556 8.667,-7.334c0,-3.89 -3.889,-9.001 -10.334,-9.001ZM-563.813,111.177c-26.558,0 -59.895,2.223 -69.118,3.112l0.111,11.001c22.558,-0.111 62.006,-2.445 69.229,-3.111l-0.222,-11.002Z" style="fill:#ff006f;fill-rule:nonzero;"/><path d="M-522.921,190.518c-5.445,-6.556 -14.668,-15.779 -19.557,-19.557l-8.667,8.223c5.778,7.667 13.556,14.89 19.335,19.78l8.889,-8.446Z" style="fill:#ff006f;fill-rule:nonzero;"/><path d="M-353.127,103.288c-14.779,6.667 -62.45,32.114 -90.897,50.338l5.778,10.557c16.891,-8.335 17.557,-8.668 42.449,-22.114c-0.778,12.557 -1.334,20.447 -1.334,33.003c0,8.557 0.111,16.224 0.667,24.892l13.779,0c0.889,-18.224 1,-20.336 1,-40.004c0,-7.779 -0.333,-14.224 -0.444,-18.002l-13.557,0c11.556,-6.223 39.448,-23.002 47.893,-28.669l-5.334,-10.001Z" style="fill:#ff006f;fill-rule:nonzero;"/><path d="M-330.791,171.85c10.89,-8.445 26.113,-23.225 34.336,-31.336c7.445,6.556 19.335,16.668 25.114,21.446c21.668,17.446 26.336,21.224 31.669,25.002l8.112,-9.778c-17.001,-16.224 -53.227,-45.782 -65.45,-54.783c-14.446,11.668 -36.115,32.558 -42.782,40.337l9.001,9.112ZM-269.897,107.844c-3.556,0 -6.667,3.556 -6.667,6.778c0,3.223 3.334,7.001 7.223,7.001c3.111,0 6.556,-2.334 6.556,-6.556c0,-3.556 -2.778,-7.223 -7.112,-7.223ZM-259.562,121.623c-5.556,0 -6.89,5.445 -6.89,6.334c0,1.556 1.556,7.334 7.445,7.334c3.445,0 6.223,-3.667 6.223,-7.001c0,-3.667 -3.111,-6.667 -6.778,-6.667Z" style="fill:#ff006f;fill-rule:nonzero;"/><path d="M-135.328,138.736c-13.779,8.556 -33.115,20.002 -40.671,24.224c-2.778,1.667 -30.114,16.891 -44.004,24.114l5.778,11.112c17.78,-7.001 36.004,-16.335 45.005,-21.447c5.111,-2.889 27.558,-16.446 40.337,-27.669l-6.445,-10.334ZM-218.447,114.4c5.334,5.556 22.668,20.113 28.558,23.891l8.667,-9.779c-6,-6.333 -20.001,-18.335 -28.336,-23.78l-8.889,9.668Z" style="fill:#ff006f;fill-rule:nonzero;"/><path d="M-98.214,100.176c-0.889,10.779 -1.333,59.784 -1.333,65.673c0,16.113 0.333,27.781 0.555,33.448l14.113,0c0.889,-15.668 1.222,-35.448 1.222,-51.338c0,-9.779 -0.111,-39.115 -1,-47.783l-13.557,0ZM-24.318,154.182c-17.335,-6.89 -35.448,-11.446 -53.672,-15.335l-3.889,12.112c19.335,6.778 44.893,13.224 54.005,14.89l3.556,-11.667Z" style="fill:#ff006f;fill-rule:nonzero;"/><path d="M71.469,113.178c-0.111,7.334 -0.111,8 -0.111,14.557c-4.889,-0.112 -15.668,0.444 -18.113,0.555c-0.111,-3.889 -0.222,-12.557 -0.222,-15.89c-0.111,-7.779 -0.222,-10.334 -0.445,-12.89l-11.001,0.111c-0.222,3.111 -0.333,6 -0.333,14.112c0,5.223 0,15.113 0.556,26.003c9.334,0 20.113,-0.445 29.447,-0.778c0,13.89 -0.111,23.669 0.333,46.893c-1.444,0 -8.445,-0.111 -10.112,-0.111l-1.111,11.001c16.224,1.667 18.002,1.889 23.446,1.889c0.334,-8.112 1.112,-27.447 1.112,-53.338c0,-14.89 -0.223,-29.892 -0.778,-44.893c-5.223,0 -19.891,0.222 -28.447,1.111l0.111,10.223c2.111,0.333 13.001,0.111 15.668,-0.222l0,1.667ZM64.246,164.96c-1.222,0 -2.333,0 -11.89,0.223c0,-4.667 -0.111,-6.445 -0.222,-7.89c1,-0.111 6.112,-0.445 7.223,-0.445l0,-9.556c-19.558,0.222 -26.336,0.556 -45.671,2.111l0.111,9.668c6.667,-0.222 21.224,-0.667 26.78,-1c0,0.222 -0.111,5 -0.222,7.445c-2.222,0.111 -4.445,0.222 -6.667,0.333c0.333,-1.666 0.444,-2.111 0.889,-4.111l-10.001,-2.778c-0.445,0.889 -0.667,1.222 -1,2.111c-0.334,0.778 -1.778,4.556 -2.112,5.445l-4.889,0.222c-4.334,0.223 -4.889,0.334 -7.445,0.445l0,10.112c0.555,0 7,-0.111 8.001,-0.111c-0.889,1.889 -4.89,11.334 -5.779,13.445c-0.555,1.223 -0.889,2.112 -1.333,3.445l9.334,4.556c4.889,-7.778 8.001,-14.223 10.89,-21.78c3.445,-0.111 6.778,-0.222 10.223,-0.333c0.111,3.111 0.222,18.446 0.556,21.891l11.112,0c0.222,-3.223 0.111,-19.002 0.222,-22.669c1.667,-0.111 10.112,-0.778 12.001,-0.889l-0.111,-9.89ZM61.135,114.067c-2.667,0 -6.112,1.666 -6.112,5.778c0,4 3.445,5.556 5.778,5.556c2.778,0 6.445,-1.889 6.445,-5.223c0,-1.889 -1.333,-6.111 -6.111,-6.111ZM22.242,121.178c0.111,5.334 0.111,6.001 0.111,7.112c-4,0.111 -4.556,0.222 -18.557,1.111c-0.111,-6.667 -0.111,-7.334 -0.111,-14.779c-0.334,-12.001 -0.334,-13.334 -0.334,-15.557l-12.001,0.222c-0.555,19.78 -0.666,25.558 -0.666,42.449c0,19.446 0,38.893 0.777,58.339l11.668,-0.445c0.667,-19.668 1,-39.337 0.778,-59.005c6.778,-0.445 17.668,-1 24.336,-1.445c1.555,-0.111 3.111,-0.222 5.778,-0.555c0.111,-4.223 0.222,-8.668 0.222,-15.557c0,-11.557 -0.333,-19.002 -0.555,-23.003c-6.334,0 -20.336,0.556 -27.67,1.445l0.111,9.779c3.667,0 12.891,-0.445 16.113,-0.778l0,10.667ZM11.797,113.4c-0.556,0 -6.334,0.111 -6.334,6c0,3.445 2.667,6.334 6.556,6.334c3.556,0 6.223,-2.555 6.223,-6.111c0,-4.334 -3.89,-6.223 -6.445,-6.223Z" style="fill:#ff006f;fill-rule:nonzero;"/><path d="M143.92,132.179c-7.778,7.668 -15.446,15.78 -25.113,27.225c0,-2.444 -0.111,-14.446 -0.222,-17.224l-7.557,0c11.668,-18.335 12.557,-19.668 20.224,-33.114c-0.111,2 -0.222,5.779 -0.222,10.779c0,5.667 0.222,9.779 0.334,11.779c15.445,-0.111 29.225,-0.556 47.448,-1.889l0,-10.89c-1.111,0.111 -2.222,0.111 -12.445,0.444c0.111,-1.333 0.222,-4.667 0.222,-9c0,-6.89 -0.222,-11.335 -0.444,-13.557l-11.779,0c-0.111,2.111 -0.334,5.667 -0.334,11.112c0,6 0.223,10.223 0.334,11.89c-3.778,0.111 -8.112,0.444 -11.779,0.778c0.111,-4.112 -0.111,-10.557 -0.222,-14.335l-9.557,0c0.445,-0.667 0.556,-0.889 1.556,-2.778l-9.668,-5.889c-12.112,17.112 -23.891,35.781 -34.003,54.116l9.445,6.223c3.223,-4.445 4.667,-6.445 6.223,-8.779c-0.444,21.891 -0.444,24.336 -0.444,28.003c0,6.889 0.111,14.779 0.444,24.002l12.001,0c0.667,-20.224 0.556,-25.78 0.445,-35.226l4.778,4.556c2.111,-2.111 5.223,-5.222 7.779,-7.889l-0.112,6.334c-0.111,7.778 -0.111,8.667 -0.111,10.89c0,5.445 0.223,13.001 0.445,20.446c20.78,0.111 44.004,-0.556 61.45,-1.556l0,-9.445l-3.222,0c-2.667,0.111 -15.446,0.333 -18.336,0.333c0.112,-2.889 0.112,-3.556 0.112,-4.445c3.444,-0.222 11.556,-0.666 14.557,-0.889l0,-7.889c-5.001,0 -9.224,0 -14.446,0.222l0,-3.556c3.111,-0.111 6.556,-0.222 14.446,-0.778l0.111,-8.223c-1.667,0 -3.001,0.111 -14.891,0.445c-0.111,-1.667 -0.111,-1.889 -0.222,-3.112l-11.334,0c0,0.556 -0.111,3.112 -0.111,3.667c-1.89,0.111 -11.113,0.556 -13.224,0.667l0,8.112c1.889,0 11.001,-0.333 13.112,-0.333l0,3.667c-7.334,0.444 -10.556,0.666 -12.779,0.889l-0.111,7.889c7.334,-0.111 10.335,-0.222 13.113,-0.333c0,1 0,1.556 0.222,4.334c-8.223,0.333 -13.446,0.666 -16.891,0.889c0.223,-11.779 0.112,-21.447 -0.111,-30.892c17.224,-0.445 27.336,-0.889 49.116,-2l0,-10.335c-2.889,0 -16.89,0.334 -20.113,0.445c3.334,-1.111 5.667,-3.89 5.667,-7.112c0,-4.223 -4.222,-7.445 -8.334,-7.445c-4.445,0 -8.223,3.556 -8.223,8.001c0,5 4.001,6.334 5.223,6.667c-1.778,0.111 -2,0.111 -5.778,0.222c-1.334,-0.111 -14.557,0.778 -17.335,0.889c5,-6.112 6.889,-8.556 8.223,-10.223l-7.557,-6.779ZM181.924,105.177c-0.111,2.889 -0.333,6.889 -0.333,12.446c0,7.334 0.333,12.223 0.555,14.556l10.89,0c0.111,-3 0.333,-6.889 0.333,-13.334c0,-6.556 -0.222,-11.112 -0.333,-13.668l-11.112,0Z" style="fill:#ff006f;fill-rule:nonzero;"/><path d="M231.595,190.518c-5.445,-6.556 -14.668,-15.779 -19.557,-19.557l-8.668,8.223c5.779,7.667 13.557,14.89 19.336,19.78l8.889,-8.446Z" style="fill:#ff006f;fill-rule:nonzero;"/><path d="M-986.798,312.113c-0.778,11.112 -1,22.224 -1,33.336c0,4.445 0,5.556 0.333,16.113c-19.335,0.667 -21.891,0.667 -36.336,1.556l-0.111,11.779c38.337,0 55.56,-0.667 85.785,-2.334l-0.111,-11.223c-3.222,0 -12.112,-0.223 -18.557,-0.223c-2,0 -3.445,0 -16.89,0.223c0.222,-5.001 0.222,-12.335 0.222,-17.557c0,-10.446 -0.334,-21.002 -0.889,-31.67l-12.446,0ZM-979.686,269.442c-18.891,15.446 -49.116,45.227 -55.894,53.227l7.223,7.89c16.557,-13.223 44.448,-39.893 56.005,-53.561l-7.334,-7.556ZM-959.795,328.559c-5.556,0 -9.334,4.334 -9.334,8.556c0,4.445 4.333,8.223 9.111,8.223c3.668,0 9.001,-2.667 9.001,-8.112c0,-2.222 -1.555,-8.667 -8.778,-8.667ZM-927.903,320.558c-7.668,-9.556 -41.004,-36.337 -44.116,-38.559l-7.889,8.556c12.001,11.89 37.114,32.892 44.671,38.337l7.334,-8.334ZM-1010.36,329.559c-0.222,2.889 -0.555,8.556 -0.555,17.224c0,6.223 0.222,9.778 0.333,12.557l12.335,-0.223c0.333,-3.778 0.666,-8.556 0.666,-16.112c0,-6.779 -0.333,-11.113 -0.555,-13.779l-12.224,0.333Z" style="fill:#ff006f;fill-rule:nonzero;"/><path d="M-867.12,322.447c15.557,-0.889 17.335,-1 33.448,-2.222l0,-9.557c-7.445,0.111 -11.668,0.222 -20.224,0.445c3.333,-3.778 3.667,-4.223 4.889,-6.112l-5.889,-4.223c4.111,-0.111 24.002,-1.222 28.558,-1.444l-0.111,-10.001c-3.556,0 -4.334,0 -11.335,0.111l-9.001,0.111c7.223,-4.222 10.668,-7.223 13.668,-10.001l-5.889,-7.778c-8.001,4.445 -11.668,7.111 -18.113,12.668l3.889,5.111l-6.111,0.222c0.222,-5.222 0,-10.334 -0.223,-18.112l-11.112,0c-0.333,9.112 -0.333,9.445 -0.222,18.446c-2.778,0.111 -3,0.111 -5.889,0.222c0.222,-7.223 0.111,-9.779 -0.223,-18.557l-11.112,-0.111c-0.555,9.778 -0.555,11.112 -0.333,19.112c-11.001,0.445 -21.891,1.112 -32.781,1.778l0.111,10.335c7.334,0 14.001,0 28.003,-0.556c-1.889,1.334 -3.001,3.112 -3.001,5.445c0,2.889 1.889,4.334 2.89,5.001c-16.113,1 -17.891,1.111 -20.558,1.222l0.222,10.112c6.779,0 10.668,-0.222 32.892,-1l-0.111,3.334c-9.223,0.555 -18.557,1.111 -27.78,1.777l-0.111,8.223c12.89,-0.111 24.002,-0.444 27.78,-0.555c-0.111,0.889 -0.111,1.111 -0.111,3.667c-18.891,0.889 -23.113,1.111 -41.337,2.222l-0.111,10.668c4.889,-0.111 29.002,-0.667 34.447,-0.889c-12.223,5 -24.891,11.446 -35.336,16.891l4.667,10c11.668,-4 13.334,-4.778 37.892,-17.001c0,1.667 0.222,10.334 0.222,12.223c0,1.111 0,1.889 0.112,3.667l12.556,0c0.111,-3.889 0.889,-22.446 1,-26.669c20.447,-1.111 22.669,-1.222 42.782,-2.556l-0.111,-10.556c-14.223,0.333 -28.447,0.889 -42.671,1.333l-0.111,-3.778c17.335,-1 20.669,-1.445 26.114,-2l0,-7.779c-11.557,0.111 -14.89,0.223 -26.114,0.556l-0.111,-3.445ZM-885.566,302.112c12.334,-0.445 13.668,-0.445 25.447,-1c-3.112,3.333 -6.112,6.778 -8.89,10.445c-6.223,0.334 -7.001,0.334 -14.001,0.667c1.444,-1.778 1.444,-3.223 1.444,-3.889c0,-2 -1.111,-4.445 -4,-6.223ZM-901.123,275.109c-5.334,0 -7.556,4.112 -7.556,7.334c0,3.89 3.111,7.89 8.112,7.89c5.333,0 7.556,-4.334 7.556,-7.445c0,-5.334 -5.112,-7.779 -8.112,-7.779ZM-822.671,366.785c-15.113,-8.001 -21.113,-10.557 -37.559,-16.335l-4.667,9.223c15.557,8.334 19.224,10.112 37.448,16.779l4.778,-9.667Z" style="fill:#ff006f;fill-rule:nonzero;"/><path d="M-748.331,372.563c9.668,1.556 18.891,1.889 26.225,2c0.889,-14.557 1.222,-29.003 1.222,-43.559c0,-16.113 -0.444,-28.559 -0.666,-34.226c-24.336,0 -28.67,0.111 -46.005,1.111c4.223,-5.111 10.001,-12.112 14.335,-20.668l-10.001,-6.557c-5.112,5.223 -11.446,14.891 -14.557,20.669l9.668,6.556c-13.78,0.778 -14.002,0.778 -25.447,1.667l0,11.557c15.334,-0.111 50.56,-1.667 58.339,-2.223c0.111,2.556 0.111,3.334 0.111,4.556c0,15.891 0,31.781 0.111,47.783l-1.445,0l-4.667,-0.223c-4.334,0.111 -4.778,0.111 -5.889,0.111l-1.334,11.446ZM-810.114,295.222c-0.445,7.668 -1.001,18.78 -1.001,47.227c0,20.78 0.445,27.225 0.778,32.225l12.446,0c1,-13.112 1,-26.891 1,-40.226c0,-9.667 0,-31.003 -0.778,-39.559l-12.445,0.333ZM-785.557,326.892c-0.111,4.556 -0.444,10.557 -0.444,17.779c0,7.223 0.222,11.89 0.556,16.558c1.444,0 29.447,-0.556 38.003,-1.556c0.111,-4 0.334,-8.112 0.334,-14.335c0,-8.223 -0.334,-13.779 -0.556,-18.335c-5.89,-0.111 -9.334,0 -22.558,0.667l0,11.112c1.445,-0.111 9.001,-0.444 10.112,-0.444c0.111,3.555 0.111,7 0.111,10.556c-1.889,0 -10.778,0.333 -12.89,0.445c0,-6.779 0,-12.113 -0.333,-22.669l-12.335,0.222Z" style="fill:#ff006f;fill-rule:nonzero;"/><path d="M-640.654,304.445c-6.889,0.223 -26.114,1.223 -33.559,2.112l0,11.668c4.556,0.111 21.336,-0.112 32.892,-0.778c0,1.222 -0.333,7.445 -0.444,8.889c-1.667,14.113 -5.778,31.781 -11.446,45.671l11.224,3.89c7.222,-12.89 14.445,-39.337 14.779,-55.45l0,-3.778c2,-0.111 2.778,-0.222 5.222,-0.334c6.557,-0.444 7.668,-0.555 10.446,-0.889l0,-11.556c-4.556,0 -10.779,0.111 -15.446,0.222c-0.222,-2.556 -0.222,-3.556 -0.778,-12.557c-0.333,-8 -1,-11.334 -1.556,-14.223l-11.778,0.778c0,0.333 0,1.666 0.111,2.555c0.333,10.335 0.333,11.446 0.333,20.558l0,3.222ZM-700.437,279.776c-0.112,2.223 -0.223,3.556 -1,15.335c-0.556,8.112 -1.112,24.78 -1.112,34.337c0,4.667 0.111,11.89 0.667,21.78c0.556,12.223 1.556,17.446 2.222,21.446c7.001,-2.778 19.891,-8.445 28.67,-13.334l-3.778,-11.335c-5.556,1.667 -10.446,3.667 -12.89,4.889c-0.445,-7.889 -0.889,-33.447 -0.889,-39.781c0,-3.445 0.333,-28.114 0.333,-33.337l-12.223,0Z" style="fill:#ff006f;fill-rule:nonzero;"/><path d="M-582.204,366.785c0.445,-13.224 0.778,-24.669 0.778,-49.116c0,-12.112 -0.111,-14.779 -0.667,-38.893l-12.557,0c-0.666,16.002 -0.777,31.892 -0.777,47.894c0,13.89 0.111,19.891 0.666,40.115l12.557,0Z" style="fill:#ff006f;fill-rule:nonzero;"/><path d="M-571.314,292.444c3.667,0.111 21.669,0.111 25.669,0.223c-0.222,15.89 -0.556,31.891 -0.556,47.893c0,13.335 0.223,20.891 0.445,26.225l12.668,0c0.778,-21.669 0.889,-37.004 0.889,-41.671c0,-4.445 -0.111,-9.556 -0.334,-32.559c8.557,-0.222 17.446,-0.333 25.447,-1.222l0,-12.446c-3,-0.111 -6.111,-0.222 -10.445,-0.222c-10.668,0 -40.004,0.111 -53.783,1.334l0,12.445Z" style="fill:#ff006f;fill-rule:nonzero;"/><path d="M-433.301,309.557c-5.778,-0.222 -10.668,0 -19.669,0.556c-0.222,-8.112 -0.444,-10.335 -0.666,-12.779l-11.112,0.222c-0.223,3.445 -0.334,5.223 -0.334,12.89c0,5.889 0.222,24.78 0.334,25.891c11.89,0.223 41.892,-1.333 51.56,-2.444c0.222,-5.223 0.445,-9.779 0.445,-18.558c0,-8.556 -0.334,-14.668 -0.445,-18.668c-2.778,0 -15.89,0.556 -18.891,0.667c0.334,-0.667 1.778,-3.778 2.112,-4.445c18.446,-1 20.446,-1.111 23.557,-1.667l0,-8.445c-2.555,0 -14.89,0.444 -17.668,0.444c1.778,-2.111 4.223,-4.778 5.89,-7.334l-7.446,-5.889c-2.444,2.111 -4.111,4.111 -9.667,11.112l3.222,2.333c-13.89,0.445 -35.447,2.001 -38.67,2.445l0,8.89c1.445,0 1.889,0 3.556,-0.111c6.778,-0.334 17.779,-0.778 24.558,-1.111c-0.667,1.111 -0.889,1.666 -2.112,4.556c-3.444,0.222 -4.333,0.333 -5.667,0.555l0,8.001c3.556,0 21.336,-0.556 25.336,-0.667c-0.111,13.779 0,17.557 0,20.558c-6.001,0.222 -22.447,0.889 -27.78,1.333l0,-2.778c16.001,-0.889 17.779,-0.889 19.89,-1.222l0,-5.556c-5.556,-0.223 -13.334,0.444 -20.002,1l0,-3.001c12.779,-0.555 16.78,-0.777 19.669,-1.222l0,-5.556ZM-451.303,270.22c-3.556,0 -6.445,2.778 -6.445,6.556c0,2.445 1.667,7.445 7.445,7.445c6.001,0 7.001,-5.334 7.001,-6.556c0,-2.667 -2.334,-7.445 -8.001,-7.445ZM-403.076,351.339c-5.112,0 -8.334,0.111 -23.558,0.444c0,-0.889 0,-1.222 -0.111,-3.111c9.89,-0.556 18.002,-1.111 24.447,-2.556l0.556,-9.112c-7.334,0.445 -29.448,1.778 -35.226,1.778c-11.334,0 -29.669,-1.778 -38.67,-3.445c0.111,-2.667 0.111,-5.445 0.111,-9.001c0,-2.778 -0.334,-16.779 -0.334,-20.001c-2,0 -20.668,0.666 -25.335,1.555l0,11.223c0.111,0 10.112,-0.111 12.89,-0.444l0,7.001c0.111,4.889 0.111,5.445 0.111,6.778c-1.556,0.889 -6.112,3.223 -7.001,3.778c-5.889,3.667 -6.556,4.112 -7.556,4.667l5.556,9.446c1.778,-1 10.112,-5.556 12.112,-6.556c14.668,3.778 29.781,5.667 44.893,5.667l0,2.778c-37.003,0.889 -47.893,1.222 -57.449,2.333l0,9.446c4,0 23.224,-0.556 27.558,-0.667c-1.111,0.667 -3.001,1.889 -3.001,5.445c0,4.445 4.112,7.334 8.223,7.334c6.001,0 7.557,-4.778 7.557,-7.001c0,-1.444 -0.667,-4.334 -3.778,-6.111l20.89,-0.667c0,0.889 0.112,3.778 0.112,4.778c-5.001,-0.222 -5.668,-0.222 -10.89,-0.111l-0.889,9.001c7.667,1 17.224,1.555 24.78,1.444c0.222,-3.889 0.333,-6.667 0.555,-15.668c16.002,-0.555 17.113,-0.555 23.447,-1.111l0,-9.334ZM-489.195,284.444c-6.779,0 -7.779,5.667 -7.779,7.556c0,4.222 3.445,9.112 8.779,9.112c5,0 7.89,-4.223 7.89,-7.89c0,-3 -2.445,-8.778 -8.89,-8.778Z" style="fill:#ff006f;fill-rule:nonzero;"/><path d="M-291.954,367.674c-24.447,-40.115 -31.559,-52.783 -52.561,-90.898c-14.557,0.445 -17.113,0.667 -29.447,2.111l0.222,12.335c10.446,-0.222 11.557,-0.222 21.336,-1c15.557,32.003 23.78,49.116 50.115,83.563l10.335,-6.111ZM-351.738,311.335c-17.446,21.002 -31.781,40.226 -43.671,57.005l9.335,7.557c16.89,-16.78 32.447,-38.782 44.004,-57.117l-9.668,-7.445Z" style="fill:#ff006f;fill-rule:nonzero;"/><path d="M-250.617,310.224c-1.111,9.445 -1.778,14.779 -4.889,24.002c-0.556,1.445 -3.445,9.89 -8.446,9.89c-1.222,0 -5.333,-1.111 -5.333,-9.223c0,-16.668 16.001,-36.559 37.559,-36.559c15.779,0 27.224,12.89 27.224,30.558c0,10.446 -4.667,23.336 -16.334,38.115l9.445,7.445c14.557,-14.668 21.113,-31.336 21.113,-46.004c0,-22.669 -15.113,-43.338 -41.559,-43.338c-27.892,0 -51.116,22.891 -51.116,50.005c0,5.223 0.889,11.557 4.444,16.668c3.112,4.445 8.89,6.89 13.002,6.89c8.556,0 16.89,-6.445 21.446,-16.891c2.889,-6.778 5.334,-16.001 5.445,-31.558l-12.001,0Z" style="fill:#ff006f;fill-rule:nonzero;"/><path d="M-88.491,271.665c-3.778,0 -6.889,2.666 -6.889,6.445c0,3.556 3.556,7.556 7.001,7.556c3.778,0 6.556,-3.889 6.556,-6.89c0,-4.667 -4.112,-7.111 -6.668,-7.111ZM-95.047,282.777c-23.335,0 -46.671,0.444 -69.784,3.111l0,12.112c7.556,0.112 44.448,-1.111 69.784,-3.444l0,-11.779ZM-80.712,286.777c-3.556,0 -6.556,3 -6.556,6.779c0,3.778 3.445,6.889 7.223,6.889c4.778,0 6.222,-4.889 6.222,-7.112c0,-1.555 -0.555,-6.556 -6.889,-6.556ZM-158.497,329.226c-5.89,7.334 -8.89,15.334 -8.89,21.891c0,20.557 29.892,20.89 37.448,20.89c15.446,0 33.448,-4.222 40.226,-6.667l-2.222,-12.001c-18.558,3.778 -28.781,4.445 -37.559,4.445c-5.779,0 -10.001,-0.334 -14.446,-1.334c-6.556,-1.555 -7.89,-4.667 -7.89,-8.112c0,-4.333 2.889,-10.556 4.445,-13.445l-11.112,-5.667Z" style="fill:#ff006f;fill-rule:nonzero;"/><path d="M-54.932,274.665c-0.555,7.001 -0.555,12.001 -0.778,28.669c-5.334,0.334 -11.89,0.778 -16.001,1l-0.111,11.779l2.222,0c2,0 11.557,-0.333 13.779,-0.333c0,2.889 -0.111,5.778 -0.111,8.778c-3.445,3.556 -7.556,8.223 -9.334,10.113c-7.112,8.111 -9.223,10.889 -11.112,13.445l7.778,8.001c5.223,-4.889 8.334,-8.112 12.779,-13.001l0.222,14.779c0.223,13.335 0.223,14.89 0.334,17.891l12.445,0c0.667,-13.113 0.889,-51.339 0.889,-60.562c6.668,-0.333 10.779,-0.778 14.113,-1.111l0.111,-11.557c-4.889,0 -9.445,0 -14.335,0.223c0,-13.002 -0.111,-18.558 -0.778,-28.114l-12.112,0ZM8.185,312.224c-10.667,-0.111 -16.335,0.111 -19.224,0.333c0,-5.222 -0.222,-27.891 -0.444,-32.003l-12.001,0c-0.445,18.335 -0.556,37.448 -0.556,43.115c0,15.891 0,33.226 0.556,49.005c6.111,0 38.114,-0.555 50.338,-1.667c0.444,-18.446 0.666,-29.447 0.666,-46.226c0,-18.891 -0.444,-35.004 -0.777,-43.115c-4.112,0 -13.891,0.333 -18.447,0.444c-9.889,0.333 -13.556,0.889 -16.668,1.445l0,12.112c3.889,0.111 18.224,-0.667 22.669,-0.889c-0.222,21.335 -0.222,42.559 -0.111,63.784c-6.668,0 -19.669,0.555 -25.558,1c0,-1.778 0,-3.001 0.111,-13.557c15.335,-0.778 17.002,-0.889 19.668,-1.334l0,-11.667c-6.556,0.111 -13.001,0.444 -19.557,0.889l0.111,-8.89c8.223,-0.111 14.557,-0.778 19.224,-1.111l0,-11.668ZM-34.485,325.225c-3.667,0 -6.334,3.112 -6.334,7.334c0,5.334 4.111,8.334 7.667,8.334c3.334,0 6.223,-2.778 6.223,-7.111c0,-4.556 -3.223,-8.557 -7.556,-8.557Z" style="fill:#ff006f;fill-rule:nonzero;"/><path d="M72.08,323.558c-7.889,0 -17.335,0.223 -30.892,1.556l0,10.001c11.89,-0.222 19.891,-0.556 30.892,-1.667l0,-9.89ZM40.744,339.893c-0.222,3.223 -0.556,10.112 -0.556,19.002c0,7.445 0.222,13.112 0.445,15.89c10.223,0 19.446,-0.333 31.669,-1.444c0.112,-3 0.223,-7.556 0.223,-15.113c0,-8.556 -0.223,-14.668 -0.334,-17.779c-7.556,0 -13.668,0.555 -17.668,1l0,10.334c0.889,0 5.223,-0.222 6.223,-0.222c-0.111,3.445 -0.111,6.89 0.111,11.001c-3.445,0 -6.223,0.111 -8.89,0.222c0.111,-6.889 0.111,-13.557 -0.222,-22.891l-11.001,0ZM84.859,332.004c17.78,-23.114 26.78,-41.893 32.892,-55.339l-9.89,-5c-8.778,15.223 -23.446,39.225 -32.447,54.338l9.445,6.001ZM75.525,289.889c-14.446,0.222 -26.336,0.777 -38.782,2.111l0,11.112c12.557,0 35.893,-2 38.782,-2.222l0,-11.001ZM83.859,285.221c-4,0 -6.889,3.112 -6.889,7.112c0,4.778 4,8.112 8,8.112c3.89,0 6.779,-3 6.779,-6.667c0,-4.556 -3.667,-8.557 -7.89,-8.557ZM55.19,271.553c-3.445,0 -7.557,2.667 -7.557,7.334c0,3.779 3.112,8.557 8.779,8.557c4.556,0 8.001,-3.223 8.001,-7.556c0,-3.667 -2.667,-8.335 -9.223,-8.335ZM72.302,308.001c-11.445,-0.333 -21.002,0.223 -31.336,1.556l0,9.89c9.779,0 18.78,-0.445 31.336,-1.778l0,-9.668ZM130.53,285.444c-6.112,4 -8.667,5.889 -14.779,11.112l6.223,8.778c5.778,-4 9.112,-6.556 14.223,-11.001l-5.667,-8.889ZM83.081,334.115c-2.111,0 -7.112,1.889 -7.112,7.445c0,4.667 3.89,8.001 7.89,8.001c4.112,0 7.112,-3.556 7.112,-7.89c0,-3.778 -2.334,-7.556 -7.89,-7.556ZM128.419,333.893c-2.667,1.555 -8.112,4.889 -13.779,9.778l5.667,8.89c4.778,-2.667 8.556,-5.223 13.779,-9.556l-5.667,-9.112ZM102.639,353.895c7.111,6.778 15.112,13.89 27.002,22.557l7.223,-7.889c-9.668,-9.557 -16.89,-15.669 -26.669,-23.114l-7.556,8.446ZM136.642,323.669c-9.112,-9.667 -15.446,-15.557 -25.003,-23.557l-8,7.778c7.778,8.445 14.001,14.335 25.335,23.447l7.668,-7.668ZM82.859,376.897c7.445,-8.445 18.557,-22.447 29.225,-44.782l-9.445,-5.334c-11.557,18.557 -16.891,26.891 -28.559,43.782l8.779,6.334Z" style="fill:#ff006f;fill-rule:nonzero;"/><path d="M194.092,281.221c-10.112,-0.222 -16.113,-0.111 -24.669,0.333c0.889,-1.555 1.555,-2.778 3.222,-6l-9.778,-5.89c-3.89,5.001 -16.113,23.114 -20.113,32.115l9.445,5.444c2.333,-3.222 5.667,-7.778 10.223,-14.445c22.002,-0.778 25.891,-1 31.336,-1.445c-1.555,2.778 -2,3.778 -2.667,5.334l5.779,3.222l-10.668,0c-0.222,2.112 -0.444,4.001 -0.556,9.335c-15.223,0.666 -19.112,0.889 -26.335,1.666l0,10.113c3.222,0.111 5.556,0 26.335,-0.667l0,4.889c-28.891,1.445 -32.114,1.556 -39.559,2.111l0,9.89c19.78,-0.222 39.559,-0.555 59.339,-1.444l-0.111,6.667c-15.446,0.333 -35.003,1.334 -50.783,2.222l0,10.89c10.335,0 42.227,-1.111 50.672,-1.444c0,1.444 0.111,8.223 0.111,9.779c-0.778,0 -10.557,-0.334 -11.89,-0.334l-1.111,11.112c9.778,1.445 21.446,1.889 25.891,2.001c0.445,-4.89 0.889,-10.89 0.889,-23.003c14.001,-0.555 17.113,-0.778 21.335,-1l0,-10.779c-6,0 -15.557,0.223 -21.557,0.334c-0.111,-3.778 -0.222,-5.112 -0.445,-7.001c4.89,-0.222 21.225,-0.889 25.003,-1.333l-0.111,-10.001c-18.335,0.111 -20.447,0.222 -44.116,0.778c0.111,-0.667 0.111,-4.001 0.111,-4.779c5.668,-0.222 24.225,-1 28.892,-1.555l-0.111,-9.89c-4.889,-0.111 -6.667,-0.111 -28.781,0.333c-0.111,-2.111 -0.111,-5.667 -0.222,-7.556l1.223,0.667c1.666,-2.112 3.889,-4.89 7,-9.446c7.112,0.111 24.336,-0.778 32.892,-1.444l0,-10.223c-4.778,-0.223 -6.889,-0.112 -26.002,0.555c0.889,-1.556 1.555,-2.556 3.444,-6l-9.334,-5.779c-5.222,6.001 -11.445,16.224 -14.112,21.002l-0.111,-9.334ZM224.984,299.334c0,-3.778 -3.556,-6.89 -7.446,-6.89c-4.444,0 -6.889,3.556 -6.889,6.556c0,2.445 2,7.112 7.334,7.112c1.444,0 7.001,-0.666 7.001,-6.778ZM179.979,372.674c2.667,0 8.445,-1.778 8.445,-7.89c0,-5.667 -5.333,-7.667 -9.334,-7.667c-6.667,0 -7.889,5.334 -7.889,7.334c0,4.556 4.222,8.223 8.778,8.223ZM181.202,299.778c0,-1.555 -1.334,-6.667 -7.334,-6.667c-1.223,0 -7.223,0.445 -7.223,6.445c0,5.778 5.445,7.223 7.223,7.223c2.555,0 7.334,-2.334 7.334,-7.001Z" style="fill:#ff006f;fill-rule:nonzero;"/><path d="M280.767,366.118c-5.445,-6.556 -14.668,-15.779 -19.558,-19.557l-8.667,8.223c5.778,7.667 13.557,14.89 19.335,19.779l8.89,-8.445Z" style="fill:#ff006f;fill-rule:nonzero;"/><path d="M-1042.41,461.599c-31.336,0 -63.34,2.667 -65.784,3c4.445,-7.001 4.889,-7.667 6,-10.001l-9.667,-6c-9.557,11.667 -13.224,16.668 -25.336,35.003c-7.89,12.001 -10.445,16.446 -12.223,20.557l8.778,6.445c2.112,-2.111 3.223,-3.333 9.112,-11.556c-0.333,8.667 -0.555,17.335 -0.555,26.002c0,12.113 0.333,19.558 0.555,24.558l12.113,0c0.444,-11.668 0.555,-22.669 0.555,-29.669c0,-16.224 -0.333,-22.002 -0.555,-26.669l-8.223,0.111c5.222,-7.446 6.445,-9.112 16.89,-24.78l0,7.778c15.557,0 58.005,-2.222 68.562,-3.445l-0.222,-11.334ZM-1080.2,548.274c6.779,1.111 12.891,1.667 26.447,1.889c0.334,-8.668 0.334,-14.446 0.334,-31.67c0,-5.334 -0.334,-32.114 -0.889,-40.782l-12.224,0.223c-0.222,7.112 -0.222,24.558 -0.222,32.669c0,0.223 0.111,16.669 0.445,26.67c-2.445,-0.111 -11.224,-0.334 -12.779,-0.334l-1.112,11.335ZM-1109.09,496.936c-0.111,3.333 -0.222,6.333 -0.222,11.334c0,9.001 0.444,15.89 0.777,20.78c11.557,0 23.225,-0.223 34.782,-1.223c0.111,-3.111 0.222,-5.556 0.222,-10.89c0,-3.222 0,-10.667 -0.445,-19.668c-3.445,0 -12.89,0.111 -20.557,1.111l0.333,10.89c0.556,0 6.667,-0.222 8.668,-0.444l0,8c-2.556,0 -9.223,0.334 -11.668,0.556c0,-2.334 -0.556,-18.335 -0.778,-20.669l-11.112,0.223Z" style="fill:#ff006f;fill-rule:nonzero;"/><path d="M-945.85,474.822c-4.222,0 -6.556,3.667 -6.556,6.668c0,4 3.556,7.445 6.89,7.445c2.222,0 6.667,-1.889 6.667,-6.779c0,-5.445 -5.111,-7.334 -7.001,-7.334ZM-938.627,489.602c-3.333,0 -6.111,3.222 -6.111,6.667c0,5.111 4.667,7.112 6.778,7.112c0.556,0 6.001,-0.556 6.001,-6.779c0,-5.556 -4.89,-7 -6.668,-7ZM-1031.3,481.379c26.447,-1.667 54.116,-4.445 62.006,-5.779c-6.334,8.779 -11.112,16.224 -12.668,18.669c-9.112,14.445 -10.779,21.002 -10.779,26.335c0,5.779 3.445,12.224 10.446,20.447c4.111,4.667 8,8.001 10.89,10.556l8.889,-9c-5.889,-5.668 -15.001,-15.335 -15.001,-22.003c0,-6.333 3.778,-13.223 13.668,-28.891c2.667,-4.334 16.557,-25.558 19.668,-30.448c-31.003,0.778 -76.007,5.445 -87.564,7.223l0.445,12.891Z" style="fill:#ff006f;fill-rule:nonzero;"/><path d="M-884.621,450.153c-3.89,8.223 -6.112,13.557 -8.779,21.113c-11.335,0.667 -17.113,1.001 -25.447,2.001l0,11.779c5.001,0 8.89,0 21.224,-0.556c-2.667,8.89 -3.889,16.446 -4,17.557c-3.445,-0.222 -6.779,-0.444 -6.779,-3.778c0,-0.444 0,-1.778 0.778,-3.556l-10.556,-1.222c-1.889,2.778 -2.889,5.889 -2.889,9.223c0,8.778 8.556,12.223 18.224,13.001c-0.112,3.889 -0.223,14.001 4,21.002c5.778,9.557 15.89,13.112 27.669,13.112c27.114,0 34.67,-17.223 37.559,-24.002l-10.667,-5.778c-3.001,5.223 -8.89,15.89 -25.892,15.89c-12.223,0 -16.112,-6.111 -17.112,-9.89c-0.778,-3.444 -0.778,-7.223 -0.778,-10.223c12.223,-0.444 28.002,-3.667 38.448,-7.223l-2,-11.556c-6.223,1.555 -23.114,4.667 -35.226,5.111c0.889,-6.334 2.667,-13.112 4.223,-18.446c3,-0.111 24.78,-1.667 36.892,-3.222l0,-11.113c-2.556,0.111 -3.334,0.111 -4.889,0.111c-4.001,0.223 -23.336,0.889 -27.67,1.001c2.667,-8.223 3.445,-10.446 5.668,-15.669l-12.001,-4.667Z" style="fill:#ff006f;fill-rule:nonzero;"/><path d="M-811.837,484.268c4.89,0 8.223,-0.223 17.891,-0.778c2.111,-0.111 12.445,-0.556 16.112,-0.778c0,7.001 0,7.778 -0.111,11.223c-17.446,2.445 -35.114,16.224 -35.114,35.115c0,10.223 7.445,20.668 20.446,20.668c10.557,0 26.892,-6.889 28.558,-43.004c4.556,0.111 7.557,0.667 10.446,1.889c7.223,3.112 11.334,9.89 11.334,17.224c0,5.001 -1.444,11.001 -6.334,20.224l10.89,5.112c6.556,-8.334 9.779,-17.557 9.779,-26.003c0,-16.001 -10.223,-24.891 -19.335,-28.669c-5.778,-2.334 -9.668,-2.667 -16.446,-3.222c0,-6.112 -0.222,-10.224 -0.222,-11.335c8.556,-0.667 12.89,-0.889 24.224,-2.333l-0.222,-11.557c-7.779,-0.222 -17.002,0.111 -24.891,0.556c-0.667,-6.334 -1.445,-14.002 -2.223,-19.113l-12.445,1.111c0.555,6.223 1,12.445 1.222,18.668c-1.556,0.111 -21.891,1.556 -33.559,2.889l0,12.113ZM-778.611,507.825c-0.445,6.89 -0.889,12.224 -3.334,18.891c-3,8.001 -7.223,9.89 -10.112,9.89c-2.778,0 -7.112,-2.334 -7.112,-8.001c0,-9.223 8.445,-17.779 20.558,-20.78ZM-733.163,480.267c-6.556,0 -8.556,5.334 -8.556,8.668c0,4.667 3.556,9.001 8.89,9.001c4.778,0 9.112,-3.556 9.112,-8.89c0,-6.112 -5.334,-8.779 -9.446,-8.779Z" style="fill:#ff006f;fill-rule:nonzero;"/><path d="M-697.382,504.047c14.891,-0.222 28.781,-1.222 45.783,-2.555c-0.112,0.222 -1.112,0.888 -9.446,7.667c-5,4 -5.556,4.334 -10.112,8.001c-3.222,-2.556 -4.222,-3.445 -13.223,-10.001l-7.668,8.112c2.334,2.667 5.112,5.111 10.668,10.001c-14.779,11.667 -15.779,12.556 -23.224,18.557l6.667,9.112c13.001,-8.112 21.78,-14.446 27.225,-18.78c15.89,12.89 16.779,13.446 21.002,16.224l7.556,-8.779c-2.445,-2.555 -3.334,-3.222 -18.446,-15.89c6,-5.334 11.001,-10.445 17.001,-16.779l-6.445,-7.445l5.779,-0.556c5.111,-0.445 5.667,-0.556 7.445,-0.667c1.333,8.557 2.889,18.446 4.667,25.447c4.556,18.002 6.445,22.558 7.667,25.447c6.668,-2.778 11.557,-5.667 16.78,-9.223l-3.556,-9.446c-1.889,0.667 -4.112,1.445 -5.334,2.001c-0.667,-3.334 -4.334,-19.558 -5.112,-23.225c-1.555,-7.667 -3.111,-15.335 -4.556,-23.002c-8.778,0.222 -17.446,0.667 -26.224,1.222c-12.113,0.556 -36.448,2.667 -44.894,3.667l0,10.89ZM-622.819,458.043c-19.557,0.111 -39.226,1 -58.672,2.556c0.778,-1.556 4.778,-8.779 5.111,-9.446l-9.334,-5.556c-12.89,16.891 -23.224,35.448 -32.114,54.783l9.334,5.334c4.223,-5.889 12.113,-18.557 20.447,-33.336c16.668,-0.556 35.003,-1.223 65.228,-3.778l0,-10.557ZM-638.154,474.6c-9.667,-0.111 -33.67,1.111 -44.115,2.445l0,9.334c11.668,0 32.003,-1.333 44.115,-2.889l0,-8.89Z" style="fill:#ff006f;fill-rule:nonzero;"/><path d="M-588.038,497.158c-0.778,0 -4.889,0.333 -5.778,0.333c0.111,-5 -0.111,-10.223 -0.222,-14.557l-9.89,0c-0.111,3.112 -0.445,10.668 -0.445,21.002c0,8.001 0.222,14.335 0.334,16.891l15.779,0l0,6.556c-4.112,0.222 -12.89,0.778 -19.335,1.444l0,10.113c7.223,0.111 15.446,-0.112 19.557,-0.223c0,2 0.222,11.335 0.222,13.446l12.002,0c0.111,-2.556 0.222,-6.001 0.444,-13.89c2.445,-0.111 7.334,-0.222 17.002,-0.889l0,-10.557c-3.223,0 -8.557,0 -17.002,0.111c0,-2.444 -0.111,-4 -0.111,-6.556c2.333,0 6.445,-0.222 15.446,-0.889c0.333,-7.556 0.555,-15.335 0.444,-23.002l7.001,7.556c3,-2 9.668,-6.778 18.446,-14.89c7.89,5.778 16.002,11.223 24.225,16.335l7.445,-9.001c-8.668,-6.667 -10.001,-7.667 -22.447,-16.446c6.334,-6.556 13.779,-15.224 22.225,-27.669c-3.89,-0.111 -10.113,-0.445 -19.224,-0.445c-17.78,0 -30.337,1.223 -34.559,1.556l0,11.557c8.667,-0.111 20.446,-0.445 29.78,-1c-2.444,2.333 -5.222,5.111 -8.889,8.778c-2.89,-1.889 -6.557,-4.222 -9.112,-5.889l-7.446,8.445c1.889,1.667 4.001,3.222 7.557,6.112l-15.002,14.112c0,-4 -0.222,-9.334 -0.333,-13.001c-3.667,0 -7.334,0 -15.446,0.555l0,-8.111c3.889,-0.223 11.334,-0.667 16.89,-1.112l0,-10.445c-2.666,0 -7.667,-0.222 -16.89,0c0,-2.223 -0.222,-13.224 -0.222,-15.668l-12.224,0c-0.111,2.111 -0.222,13.557 -0.333,16.001c-2.778,0.111 -8.112,0.334 -18.224,1.223l0,10.778c5.223,0 12.779,-0.111 18.113,-0.222l0,8.557c-0.445,0 -2.778,0.333 -3.334,0.333l0,9.001c0.334,0 3.001,0 3.667,-0.111c0,1 -0.111,2.889 -0.111,3.778ZM-588.038,510.715c-0.667,0 -5.223,0.444 -6,0.444c0.111,-1.778 0.111,-2.111 0.111,-5.556c1,0 4.556,-0.222 5.889,-0.222l0,5.334ZM-571.37,496.713c-2,0 -3.556,0 -4.667,0.111c0,-1.333 -0.111,-2.333 -0.111,-3.667c1.667,0 3,-0.111 6.556,-0.333c-0.222,7.445 -0.111,11.89 0.111,17.113c-4.444,0.111 -5.445,0.111 -6.778,0.222c0,-2.111 0.111,-3.667 0.111,-5.445c0.778,-0.111 4.112,-0.333 4.778,-0.333l0,-7.668ZM-538.7,500.825c-0.222,4.222 -0.333,8.89 -0.444,12.89c-2.445,0 -7.223,0.222 -15.891,1l0,11.001c7.334,0 11.89,-0.111 15.78,-0.222c0,3.556 0.222,8.556 0.333,12.001c-4.667,0.111 -11.89,0.222 -22.224,1l0,10.779c20.001,0.222 36.892,0.111 56.894,-1.111l0,-10.89c-3.112,-0.111 -18.113,0 -21.558,0c0.111,-2.667 0.222,-10.224 0.222,-12.446c2.112,-0.111 12.779,-0.667 15.224,-0.778l0,-10.556c-8.445,-0.334 -12.223,-0.334 -15.335,-0.223c-0.111,-7 -0.333,-10.445 -0.444,-12.445l-12.557,0Z" style="fill:#ff006f;fill-rule:nonzero;"/><path d="M-452.581,509.27c-2.444,4.112 -5.556,11.001 -5.556,17.668c0,7.557 4.556,11.557 8.334,13.557c7.223,3.778 16.002,4.334 20.669,4.334c12.001,0 21.78,-3.223 28.669,-5.556l-2.555,-11.557c-13.779,3.445 -23.336,3.445 -24.669,3.445c-1.445,0 -8.001,0 -12.557,-1.889c-3.556,-1.445 -4.112,-3.889 -4.112,-6.556c0,-2.112 0.445,-4.778 2.778,-10.779l-11.001,-2.667ZM-460.581,480.045c9.112,-0.444 40.337,-2.778 56.672,-5.667l-0.667,-11.557c-17.557,0.556 -45.56,3.778 -56.672,6.112l0.667,11.112ZM-488.473,455.043c-2.111,19.113 -3.111,36.781 -3.111,46.893c0,0.778 0.333,30.114 2.444,44.893c11.779,-4.556 21.002,-8.667 26.114,-11.223l-3.334,-10.557c-2.111,0.556 -6.778,1.889 -10.556,3.445c-0.445,-8.223 -0.667,-14.335 -0.667,-28.336c0,-12.446 0.667,-29.669 1.333,-44.56l-12.223,-0.555Z" style="fill:#ff006f;fill-rule:nonzero;"/><path d="M-299.344,447.264c-3.778,0 -6.889,2.667 -6.889,6.445c0,3.556 3.555,7.556 7,7.556c3.778,0 6.556,-3.889 6.556,-6.889c0,-4.667 -4.111,-7.112 -6.667,-7.112ZM-305.9,458.376c-23.336,0 -46.671,0.445 -69.784,3.112l0,12.112c7.556,0.111 44.448,-1.111 69.784,-3.445l0,-11.779ZM-291.565,462.377c-3.556,0 -6.557,3 -6.557,6.778c0,3.778 3.445,6.89 7.223,6.89c4.779,0 6.223,-4.89 6.223,-7.112c0,-1.556 -0.555,-6.556 -6.889,-6.556ZM-369.351,504.825c-5.889,7.334 -8.889,15.335 -8.889,21.891c0,20.558 29.891,20.891 37.448,20.891c15.446,0 33.447,-4.223 40.226,-6.667l-2.223,-12.001c-18.557,3.778 -28.78,4.444 -37.559,4.444c-5.778,0 -10.001,-0.333 -14.446,-1.333c-6.556,-1.556 -7.889,-4.667 -7.889,-8.112c0,-4.334 2.889,-10.556 4.445,-13.446l-11.113,-5.667Z" style="fill:#ff006f;fill-rule:nonzero;"/><path d="M-265.785,450.264c-0.556,7.001 -0.556,12.002 -0.778,28.67c-5.334,0.333 -11.89,0.778 -16.002,1l-0.111,11.779l2.223,0c2,0 11.556,-0.334 13.779,-0.334c0,2.89 -0.111,5.779 -0.111,8.779c-3.445,3.556 -7.557,8.223 -9.334,10.112c-7.112,8.112 -9.224,10.89 -11.113,13.446l7.779,8.001c5.223,-4.89 8.334,-8.112 12.779,-13.002l0.222,14.78c0.222,13.334 0.222,14.89 0.333,17.89l12.446,0c0.667,-13.112 0.889,-51.338 0.889,-60.561c6.667,-0.334 10.779,-0.778 14.113,-1.111l0.111,-11.557c-4.89,0 -9.446,0 -14.335,0.222c0,-13.001 -0.111,-18.557 -0.778,-28.114l-12.112,0ZM-202.668,487.824c-10.668,-0.112 -16.335,0.111 -19.224,0.333c0,-5.223 -0.222,-27.892 -0.445,-32.003l-12.001,0c-0.444,18.335 -0.555,37.448 -0.555,43.115c0,15.89 0,33.225 0.555,49.005c6.112,0 38.115,-0.556 50.338,-1.667c0.445,-18.446 0.667,-29.447 0.667,-46.227c0,-18.89 -0.444,-35.003 -0.778,-43.115c-4.111,0 -13.89,0.333 -18.446,0.445c-9.89,0.333 -13.557,0.889 -16.668,1.444l0,12.112c3.889,0.112 18.224,-0.666 22.669,-0.889c-0.223,21.336 -0.223,42.56 -0.111,63.784c-6.668,0 -19.669,0.556 -25.558,1c0,-1.778 0,-3 0.111,-13.556c15.334,-0.778 17.001,-0.889 19.668,-1.334l0,-11.668c-6.556,0.111 -13.001,0.445 -19.557,0.889l0.111,-8.889c8.223,-0.112 14.557,-0.778 19.224,-1.112l0,-11.667ZM-245.339,500.825c-3.667,0 -6.334,3.111 -6.334,7.334c0,5.334 4.112,8.334 7.668,8.334c3.333,0 6.223,-2.778 6.223,-7.112c0,-4.556 -3.223,-8.556 -7.557,-8.556Z" style="fill:#ff006f;fill-rule:nonzero;"/><path d="M-138.773,499.158c-7.89,0 -17.335,0.222 -30.892,1.556l0,10.001c11.89,-0.223 19.891,-0.556 30.892,-1.667l0,-9.89ZM-170.109,515.493c-0.223,3.222 -0.556,10.112 -0.556,19.002c0,7.445 0.222,13.112 0.444,15.89c10.224,0 19.447,-0.333 31.67,-1.445c0.111,-3 0.222,-7.556 0.222,-15.112c0,-8.556 -0.222,-14.668 -0.333,-17.78c-7.556,0 -13.668,0.556 -17.668,1.001l0,10.334c0.889,0 5.222,-0.222 6.222,-0.222c-0.111,3.444 -0.111,6.889 0.112,11.001c-3.445,0 -6.223,0.111 -8.89,0.222c0.111,-6.89 0.111,-13.557 -0.222,-22.891l-11.001,0ZM-125.994,507.603c17.779,-23.113 26.78,-41.893 32.892,-55.338l-9.89,-5.001c-8.779,15.224 -23.447,39.226 -32.447,54.339l9.445,6ZM-135.328,465.488c-14.446,0.222 -26.336,0.778 -38.782,2.111l0,11.113c12.557,0 35.892,-2.001 38.782,-2.223l0,-11.001ZM-126.994,460.821c-4.001,0 -6.89,3.111 -6.89,7.112c0,4.778 4.001,8.112 8.001,8.112c3.889,0 6.778,-3.001 6.778,-6.668c0,-4.556 -3.667,-8.556 -7.889,-8.556ZM-155.664,447.153c-3.444,0 -7.556,2.667 -7.556,7.334c0,3.778 3.112,8.556 8.779,8.556c4.556,0 8,-3.222 8,-7.556c0,-3.667 -2.666,-8.334 -9.223,-8.334ZM-138.551,483.601c-11.445,-0.333 -21.002,0.222 -31.336,1.556l0,9.889c9.779,0 18.779,-0.444 31.336,-1.777l0,-9.668ZM-80.323,461.043c-6.112,4.001 -8.668,5.89 -14.779,11.112l6.222,8.779c5.779,-4 9.112,-6.556 14.224,-11.001l-5.667,-8.89ZM-127.772,509.715c-2.111,0 -7.112,1.889 -7.112,7.445c0,4.667 3.889,8 7.89,8c4.111,0 7.112,-3.555 7.112,-7.889c0,-3.778 -2.334,-7.556 -7.89,-7.556ZM-82.434,509.492c-2.667,1.556 -8.112,4.89 -13.78,9.779l5.668,8.89c4.778,-2.667 8.556,-5.223 13.779,-9.557l-5.667,-9.112ZM-108.215,529.494c7.112,6.779 15.113,13.89 27.003,22.558l7.223,-7.89c-9.668,-9.556 -16.891,-15.668 -26.669,-23.113l-7.557,8.445ZM-74.211,499.269c-9.112,-9.667 -15.446,-15.557 -25.003,-23.558l-8.001,7.779c7.779,8.445 14.002,14.335 25.336,23.446l7.668,-7.667ZM-127.994,552.496c7.445,-8.445 18.557,-22.446 29.225,-44.782l-9.446,-5.334c-11.556,18.558 -16.89,26.892 -28.558,43.782l8.779,6.334Z" style="fill:#ff006f;fill-rule:nonzero;"/><path d="M-11.983,448.375c-3.667,4.223 -17.558,21.336 -21.891,27.447c-14.224,19.891 -15.78,22.558 -18.335,26.781c18.446,21.224 46.671,44.448 52.671,49.227l8.557,-8.223c-14.78,-16.335 -39.337,-38.448 -44.005,-42.56c2.223,-2.889 26.003,-34.559 32.781,-45.671l-9.778,-7.001Z" style="fill:#ff006f;fill-rule:nonzero;"/><path d="M76.692,449.375c-4.667,13.557 -6.112,18.336 -8.001,24.781c-11.223,1.222 -15.557,1.666 -22.78,3l0.889,11.89c4.111,-0.222 5.445,-0.333 17.891,-1.445c-2.89,10.001 -13.224,48.894 -15.557,59.673l11.667,3.111c7.112,-21.113 13.335,-42.448 19.113,-64.006c12.224,-1.111 24.114,-2.667 31.337,-3.889l-1.223,-11.446c-6.223,0.222 -8.223,0.334 -26.447,1.667c1.778,-7.001 3.556,-14.001 4.778,-20.557l-11.667,-2.779ZM122.474,453.709c-2.778,0 -6.556,1.778 -6.556,6.334c0,4.001 3.889,7.556 7.111,7.556c2.667,0 6.779,-2.555 6.779,-6.889c0,-3.778 -3.667,-7.001 -7.334,-7.001ZM133.808,493.935c-13.445,0.222 -37.337,2.334 -49.227,4.223l0.445,11.112c15.446,-0.444 21.557,-1.111 36.448,-2.667c3.111,-0.333 9.778,-1 12.556,-1.444l-0.222,-11.224ZM88.915,518.271c-1.778,2.222 -5.334,8.89 -5.334,14.89c0,15.891 21.113,15.891 25.225,15.891c9.667,0 19.78,-2.223 28.225,-5.334l-3.112,-11.446c-7.889,2.112 -15.779,3.445 -23.113,3.445c-4.556,0 -7.112,-0.445 -9.334,-1.111c-3.445,-1.111 -3.667,-3.112 -3.667,-4.445c0,-3.112 1.444,-6.89 2.222,-8.779l-11.112,-3.111ZM134.142,465.377c-4.445,0 -6.445,4.111 -6.445,6.778c0,4.779 4.222,7.112 6.667,7.112c1.889,0 6.778,-1.333 6.778,-6.889c0,-4.445 -4.222,-7.001 -7,-7.001Z" style="fill:#ff006f;fill-rule:nonzero;"/><path d="M189.48,452.931c0.778,2.556 4.445,14.668 5.334,17.446c-2.445,0.334 -14.224,2.445 -16.89,2.89c-12.113,2 -18.113,3.444 -21.558,4.222l2,11.112c6.001,-0.666 13.446,-1.555 28.114,-3.778c1.778,-0.222 10.556,-1.667 12.445,-1.889c0.778,1.889 1.556,4.001 2.223,5.667c2.556,7.001 2.889,7.779 3.778,10.001c-12.334,3.778 -38.559,13.113 -38.559,32.226c0,5.667 3.556,11.445 10.001,14.89c4.889,2.556 11.112,4.223 20.224,4.223c14.557,0 27.336,-4.556 33.781,-6.89l-3,-11.223c-3.89,1 -19.113,4.556 -28.67,4.556c-4,0 -16.112,-0.223 -16.112,-6.89c0,-5.889 9.334,-10.89 14.112,-13.112c8.445,-4.001 14.001,-5.445 25.114,-8.445c-2.223,-8.89 -3.556,-13.113 -8.223,-27.336c14.001,-2.334 18.557,-3.112 26.224,-5.001l-1.889,-11.223c-10.445,1.222 -13.446,1.667 -28.447,3.778c-2.334,-6.223 -5.334,-14.335 -7.112,-18.668l-12.89,3.444Z" style="fill:#ff006f;fill-rule:nonzero;"/><path d="M266.932,460.043c-0.222,3.334 -0.445,6.112 -0.445,15.668c0,18.446 0.112,42.115 12.335,72.452c9.779,-4.445 26.447,-14.78 31.558,-18.335l-5,-10.446c-4.889,2 -15.446,7.445 -18.891,9.445c-1.666,-6.667 -4.333,-19.557 -5.445,-30.558c-1.222,-11.668 -1.889,-32.67 -1.889,-38.337l-12.223,0.111ZM331.716,474.378c0.667,2.778 1,4.222 2.111,11.112c2.334,14.224 3.112,19.557 3.667,31.336c0.111,3.001 0.222,17.669 0.334,21.002l11.667,0.667c1.556,-7.223 1.889,-14.668 1.889,-22.113c0,-18.669 -6,-39.671 -7.778,-45.004l-11.89,3Z" style="fill:#ff006f;fill-rule:nonzero;"/><path d="M382.054,550.274c8.112,0 15.335,-6.334 15.335,-15.557c0,-8.334 -6.779,-16.002 -15.668,-16.002c-8.779,0 -16.669,6.668 -16.669,15.78c0,8.445 7.334,15.779 17.002,15.779ZM381.721,542.384c-3.779,0 -8.446,-3.111 -8.446,-7.778c0,-4.334 3.556,-8.112 7.89,-8.112c2.889,0 8.223,2 8.223,8.223c0,6 -4.889,7.667 -7.667,7.667Z" style="fill:#ff006f;fill-rule:nonzero;"/></g></svg>