<?xml version="1.0" standalone="no"?><!DOCTYPE svg PUBLIC "-//W3C//DTD SVG 1.1//EN" "http://www.w3.org/Graphics/SVG/1.1/DTD/svg11.dtd"><svg width="100%" height="100%" viewBox="0 0 128 580" version="1.1" xmlns="http://www.w3.org/2000/svg" xmlns:xlink="http://www.w3.org/1999/xlink" xml:space="preserve" style="fill-rule:evenodd;clip-rule:evenodd;stroke-linejoin:round;stroke-miterlimit:1.41421;"><g id="contact-title-bg"><path d="M128,64l0,136l-128,0l0,-136l64,-64l64,64Z" style="fill:#f49ac1;"/><path d="M128,72l0,128l-128,0l0,-128l64,-64l64,64Z" style="fill:#fff;"/><path d="M128,84l0,116l-128,0l0,-116l64,-64l64,64Z" style="fill:#ffb3d5;"/><path d="M128,128l0,452l-128,0l0,-452l64,-64l64,64Z" style="fill:#ffdbec;"/><path d="M128,574l0,6l-128,0l0,-6l64,-64l64,64Z" style="fill:#ffebf4;"/></g></svg>