<?xml version="1.0" standalone="no"?><!DOCTYPE svg PUBLIC "-//W3C//DTD SVG 1.1//EN" "http://www.w3.org/Graphics/SVG/1.1/DTD/svg11.dtd"><svg width="100%" height="100%" viewBox="0 0 448 54" version="1.1" xmlns="http://www.w3.org/2000/svg" xmlns:xlink="http://www.w3.org/1999/xlink" xml:space="preserve" style="fill-rule:evenodd;clip-rule:evenodd;stroke-linejoin:round;stroke-miterlimit:1.41421;"><g id="contact-about"><path d="M292.142,24.46c0,6.468 0.66,12.144 2.332,16.72l3.916,-1.144c-1.804,-4.312 -2.376,-9.636 -2.376,-15.664c0,-6.952 0.88,-14.256 2.464,-20.064l-3.96,-0.704c-1.408,6.072 -2.376,13.684 -2.376,20.812l0,0.044ZM317.706,9.676c-4.796,0 -10.12,0.176 -14.212,0.572l0.22,3.52c3.784,-0.396 8.58,-0.66 12.892,-0.66c2.64,0 5.368,0.088 7.524,0.264l0.088,-3.608c-1.848,-0.044 -4.268,-0.088 -6.468,-0.088l-0.044,0ZM325.186,34.36c-2.772,0.396 -5.808,0.66 -8.58,0.66c-6.292,0 -9.812,-0.748 -9.812,-3.256c0,-1.232 0.484,-2.684 1.672,-4.972l-3.432,-0.66c-1.364,2.86 -1.98,5.06 -1.98,6.732c0,4.4 5.808,5.676 13.64,5.676c2.596,0 5.72,-0.176 8.492,-0.44l0,-3.74Z" style="fill:#ff006f;fill-rule:nonzero;"/><path d="M329.806,12.756l0.924,4.048c7.392,-2.112 16.06,-4.224 20.548,-4.224c7.348,0 11.44,4.18 11.44,10.296c0,7.964 -5.632,12.232 -21.076,12.408l0.748,3.872c17.6,-0.484 24.42,-6.292 24.42,-16.5c0,-8.492 -5.852,-13.86 -14.828,-13.86c-5.28,0 -14.168,2.2 -22.176,3.96Z" style="fill:#ff006f;fill-rule:nonzero;"/><path d="M397.038,10.028c5.808,5.72 7.876,12.012 7.964,21.692l4.18,-0.352c-0.352,-9.856 -2.508,-16.984 -8.932,-23.496l-3.212,2.156ZM373.718,8.708c-0.264,3.564 -0.352,6.952 -0.352,9.9c0,13.288 5.544,20.636 10.34,20.636c3.344,0 5.764,-3.652 7.436,-10.428l-3.256,-1.452c-1.012,4.488 -2.596,7.656 -4.356,7.656c-2.904,0 -6.336,-6.424 -6.336,-16.544c0,-2.772 0.176,-6.028 0.528,-9.416l-4.004,-0.352Z" style="fill:#ff006f;fill-rule:nonzero;"/><path d="M413.494,9.148l0.264,3.696c5.808,-0.264 15.4,-0.88 20.284,-1.32c-5.764,4.048 -9.46,9.504 -9.46,15.4c0,8.712 7.392,13.376 19.536,13.904l0.484,-3.784c-10.78,-0.528 -16.104,-4.18 -16.104,-10.296c0,-5.588 3.828,-10.428 9.372,-13.992c0.968,-0.616 2.376,-1.276 3.344,-1.452c1.54,-0.264 4.796,-0.66 6.732,-0.748l-0.44,-3.784c-3.036,0.352 -7.304,0.792 -10.692,1.056c-4.136,0.352 -17.336,1.144 -23.32,1.32Z" style="fill:#ff006f;fill-rule:nonzero;"/><g><g transform="matrix(2.66987,-3.15039e-26,6.05845e-26,2.66987,-105.352,-31.5332)"><path d="M54.278,15.418l-1.181,0.906c-0.652,-0.849 -1.434,-1.492 -2.347,-1.929c-0.913,-0.438 -1.916,-0.657 -3.008,-0.657c-1.195,0 -2.301,0.287 -3.319,0.86c-1.019,0.574 -1.808,1.344 -2.368,2.311c-0.56,0.968 -0.84,2.055 -0.84,3.263c0,1.826 0.627,3.35 1.879,4.572c1.252,1.221 2.832,1.832 4.739,1.832c2.098,0 3.852,-0.821 5.264,-2.464l1.181,0.896c-0.747,0.951 -1.678,1.685 -2.795,2.205c-1.116,0.519 -2.364,0.779 -3.741,0.779c-2.62,0 -4.687,-0.873 -6.201,-2.617c-1.269,-1.473 -1.904,-3.251 -1.904,-5.335c0,-2.192 0.769,-4.037 2.306,-5.533c1.538,-1.497 3.464,-2.245 5.778,-2.245c1.398,0 2.661,0.276 3.788,0.829c1.126,0.554 2.049,1.329 2.769,2.327Z" style="fill:#ff006f;fill-rule:nonzero;"/><path d="M61.456,16.253c1.704,0 3.116,0.617 4.236,1.853c1.018,1.126 1.527,2.46 1.527,4.001c0,1.547 -0.538,2.9 -1.614,4.057c-1.076,1.157 -2.458,1.736 -4.149,1.736c-1.696,0 -3.083,-0.579 -4.159,-1.736c-1.075,-1.157 -1.613,-2.51 -1.613,-4.057c0,-1.534 0.509,-2.865 1.527,-3.991c1.12,-1.242 2.535,-1.863 4.245,-1.863ZM61.456,17.647c-1.181,0 -2.195,0.438 -3.044,1.314c-0.848,0.875 -1.272,1.934 -1.272,3.176c0,0.801 0.193,1.548 0.58,2.24c0.387,0.693 0.909,1.227 1.568,1.604c0.658,0.376 1.381,0.565 2.168,0.565c0.788,0 1.511,-0.189 2.169,-0.565c0.658,-0.377 1.181,-0.911 1.568,-1.604c0.387,-0.692 0.58,-1.439 0.58,-2.24c0,-1.242 -0.426,-2.301 -1.277,-3.176c-0.852,-0.876 -1.865,-1.314 -3.04,-1.314Z" style="fill:#ff006f;fill-rule:nonzero;"/><path d="M80.089,12.262l0,15.353l-1.405,0l0,-1.904c-0.598,0.726 -1.268,1.273 -2.011,1.639c-0.743,0.367 -1.556,0.55 -2.438,0.55c-1.568,0 -2.907,-0.569 -4.017,-1.705c-1.11,-1.137 -1.664,-2.52 -1.664,-4.149c0,-1.595 0.559,-2.96 1.679,-4.093c1.12,-1.134 2.468,-1.7 4.042,-1.7c0.91,0 1.733,0.193 2.469,0.58c0.737,0.387 1.383,0.967 1.94,1.741l0,-6.312l1.405,0ZM74.387,17.627c-0.794,0 -1.527,0.195 -2.199,0.586c-0.672,0.39 -1.206,0.938 -1.603,1.644c-0.397,0.706 -0.596,1.452 -0.596,2.24c0,0.78 0.2,1.527 0.601,2.239c0.4,0.713 0.938,1.268 1.613,1.665c0.676,0.397 1.4,0.596 2.174,0.596c0.781,0 1.521,-0.197 2.22,-0.591c0.699,-0.393 1.237,-0.926 1.613,-1.598c0.377,-0.672 0.565,-1.429 0.565,-2.271c0,-1.282 -0.422,-2.355 -1.267,-3.217c-0.845,-0.862 -1.885,-1.293 -3.121,-1.293Z" style="fill:#ff006f;fill-rule:nonzero;"/><path d="M82.981,11.977c0.326,0 0.604,0.115 0.835,0.346c0.231,0.23 0.346,0.509 0.346,0.835c0,0.319 -0.115,0.593 -0.346,0.824c-0.231,0.231 -0.509,0.346 -0.835,0.346c-0.319,0 -0.594,-0.115 -0.825,-0.346c-0.23,-0.231 -0.346,-0.505 -0.346,-0.824c0,-0.326 0.116,-0.605 0.346,-0.835c0.231,-0.231 0.506,-0.346 0.825,-0.346ZM82.268,16.538l1.436,0l0,11.077l-1.436,0l0,-11.077Z" style="fill:#ff006f;fill-rule:nonzero;"/><path d="M85.822,16.538l1.426,0l0,1.985c0.57,-0.76 1.201,-1.329 1.893,-1.705c0.693,-0.377 1.446,-0.565 2.261,-0.565c0.828,0 1.562,0.21 2.204,0.631c0.641,0.421 1.115,0.987 1.42,1.7c0.306,0.713 0.458,1.823 0.458,3.329l0,5.702l-1.415,0l0,-5.284c0,-1.276 -0.054,-2.128 -0.163,-2.556c-0.169,-0.733 -0.488,-1.284 -0.957,-1.654c-0.468,-0.37 -1.079,-0.555 -1.832,-0.555c-0.862,0 -1.635,0.285 -2.317,0.855c-0.682,0.57 -1.131,1.276 -1.349,2.118c-0.135,0.55 -0.203,1.554 -0.203,3.014l0,4.062l-1.426,0l0,-11.077Z" style="fill:#ff006f;fill-rule:nonzero;"/><path d="M107.244,16.538l1.436,0l0,8.827c0,1.554 -0.136,2.691 -0.407,3.41c-0.374,1.019 -1.022,1.803 -1.945,2.352c-0.923,0.55 -2.033,0.825 -3.329,0.825c-0.95,0 -1.804,-0.134 -2.561,-0.402c-0.757,-0.268 -1.373,-0.628 -1.848,-1.079c-0.475,-0.452 -0.913,-1.112 -1.313,-1.981l1.548,0c0.42,0.733 0.963,1.276 1.629,1.629c0.665,0.353 1.489,0.53 2.474,0.53c0.97,0 1.79,-0.182 2.458,-0.545c0.669,-0.363 1.146,-0.819 1.431,-1.369c0.285,-0.55 0.427,-1.436 0.427,-2.658l0,-0.57c-0.536,0.679 -1.191,1.2 -1.965,1.563c-0.773,0.363 -1.595,0.545 -2.463,0.545c-1.019,0 -1.976,-0.253 -2.872,-0.759c-0.895,-0.505 -1.588,-1.186 -2.077,-2.041c-0.488,-0.855 -0.733,-1.795 -0.733,-2.82c0,-1.025 0.255,-1.98 0.764,-2.866c0.509,-0.886 1.213,-1.587 2.113,-2.103c0.899,-0.515 1.848,-0.773 2.845,-0.773c0.828,0 1.6,0.171 2.316,0.514c0.717,0.343 1.407,0.908 2.072,1.695l0,-1.924ZM103.04,17.627c-0.808,0 -1.558,0.195 -2.251,0.586c-0.692,0.39 -1.235,0.929 -1.629,1.618c-0.393,0.689 -0.59,1.434 -0.59,2.235c0,1.215 0.407,2.22 1.222,3.014c0.814,0.794 1.87,1.191 3.166,1.191c1.31,0 2.364,-0.394 3.161,-1.181c0.798,-0.787 1.197,-1.823 1.197,-3.105c0,-0.835 -0.184,-1.58 -0.55,-2.235c-0.367,-0.655 -0.886,-1.173 -1.558,-1.553c-0.672,-0.38 -1.395,-0.57 -2.168,-0.57Z" style="fill:#ff006f;fill-rule:nonzero;"/><path d="M111.134,12.638l1.528,0l0,5.62l5.976,-5.62l2.026,0l-7.198,6.72l7.758,8.257l-1.985,0l-6.577,-6.984l0,6.984l-1.528,0l0,-14.977Z" style="fill:#ff006f;fill-rule:nonzero;"/><path d="M122.884,11.977c0.326,0 0.604,0.115 0.835,0.346c0.231,0.23 0.346,0.509 0.346,0.835c0,0.319 -0.115,0.593 -0.346,0.824c-0.231,0.231 -0.509,0.346 -0.835,0.346c-0.319,0 -0.594,-0.115 -0.824,-0.346c-0.231,-0.231 -0.347,-0.505 -0.347,-0.824c0,-0.326 0.116,-0.605 0.347,-0.835c0.23,-0.231 0.505,-0.346 0.824,-0.346ZM122.172,16.538l1.435,0l0,11.077l-1.435,0l0,-11.077Z" style="fill:#ff006f;fill-rule:nonzero;"/><path d="M136.782,12.262l0,15.353l-1.405,0l0,-1.904c-0.597,0.726 -1.267,1.273 -2.01,1.639c-0.744,0.367 -1.556,0.55 -2.439,0.55c-1.568,0 -2.907,-0.569 -4.016,-1.705c-1.11,-1.137 -1.665,-2.52 -1.665,-4.149c0,-1.595 0.56,-2.96 1.68,-4.093c1.12,-1.134 2.467,-1.7 4.042,-1.7c0.909,0 1.732,0.193 2.469,0.58c0.736,0.387 1.383,0.967 1.939,1.741l0,-6.312l1.405,0ZM131.081,17.627c-0.794,0 -1.527,0.195 -2.199,0.586c-0.672,0.39 -1.207,0.938 -1.604,1.644c-0.397,0.706 -0.595,1.452 -0.595,2.24c0,0.78 0.2,1.527 0.6,2.239c0.401,0.713 0.939,1.268 1.614,1.665c0.675,0.397 1.4,0.596 2.174,0.596c0.78,0 1.52,-0.197 2.219,-0.591c0.699,-0.393 1.237,-0.926 1.614,-1.598c0.377,-0.672 0.565,-1.429 0.565,-2.271c0,-1.282 -0.423,-2.355 -1.268,-3.217c-0.845,-0.862 -1.885,-1.293 -3.12,-1.293Z" style="fill:#ff006f;fill-rule:nonzero;"/><path d="M144.745,17.749l-0.917,0.947c-0.76,-0.74 -1.503,-1.11 -2.229,-1.11c-0.462,0 -0.857,0.153 -1.186,0.459c-0.329,0.305 -0.494,0.661 -0.494,1.069c0,0.359 0.136,0.702 0.407,1.028c0.272,0.332 0.842,0.723 1.711,1.171c1.058,0.549 1.778,1.079 2.158,1.588c0.373,0.516 0.56,1.096 0.56,1.741c0,0.909 -0.319,1.68 -0.957,2.311c-0.638,0.631 -1.436,0.947 -2.393,0.947c-0.638,0 -1.247,-0.139 -1.827,-0.418c-0.58,-0.278 -1.061,-0.661 -1.441,-1.15l0.896,-1.018c0.726,0.821 1.497,1.232 2.311,1.232c0.57,0 1.056,-0.183 1.456,-0.55c0.401,-0.367 0.601,-0.798 0.601,-1.293c0,-0.407 -0.132,-0.77 -0.397,-1.089c-0.265,-0.313 -0.862,-0.706 -1.792,-1.181c-0.998,-0.516 -1.677,-1.025 -2.036,-1.528c-0.36,-0.502 -0.54,-1.075 -0.54,-1.72c0,-0.842 0.287,-1.541 0.86,-2.098c0.574,-0.556 1.298,-0.834 2.174,-0.834c1.018,0 2.043,0.499 3.075,1.496Z" style="fill:#ff006f;fill-rule:nonzero;"/></g></g></g></svg>