<?xml version="1.0" encoding="utf-8"?>
<!-- Generator: Adobe Illustrator 19.0.0, SVG Export Plug-In . SVG Version: 6.00 Build 0)  -->
<svg version="1.1" id="レイヤー_1" xmlns="http://www.w3.org/2000/svg" xmlns:xlink="http://www.w3.org/1999/xlink" x="0px"
	 y="0px" viewBox="288 1350 384 300" style="enable-background:new 288 1350 384 300;" xml:space="preserve">
<style type="text/css">
	.st0{fill-rule:evenodd;clip-rule:evenodd;fill:#F49AC1;}
	.st1{fill-rule:evenodd;clip-rule:evenodd;fill:#FFFFFF;}
	.st2{fill-rule:evenodd;clip-rule:evenodd;fill:#D8ACEA;}
	.st3{fill-rule:evenodd;clip-rule:evenodd;fill:#B17FC7;}
	.st4{clip-path:url(#SVGID_2_);}
	.st5{fill:none;}
	.st6{opacity:0.1;}
	.st7{fill:#550080;}
</style>
<polygon class="st0" points="672,1450 288,1450 288,1382 320,1350 352,1382 384,1350 416,1382 448,1350 480,1382 512,1350 544,1382 
	576,1350 608,1382 640,1350 672,1382 "/>
<polygon class="st1" points="544,1386 576,1354 608,1386 640,1354 672,1386 672,1450 288,1450 288,1386 320,1354 352,1386 384,1354 
	416,1386 448,1354 480,1386 512,1354 "/>
<polygon class="st2" points="544,1392 576,1360 608,1392 640,1360 672,1392 672,1450 288,1450 288,1392 320,1360 352,1392 384,1360 
	416,1392 448,1360 480,1392 512,1360 "/>
<polygon class="st3" points="608,1414 640,1382 672,1414 672,1650 288,1650 288,1414 320,1382 352,1414 384,1382 416,1414 448,1382 
	480,1414 512,1382 544,1414 576,1382 "/>
<g>
	<defs>
		<polygon id="SVGID_1_" points="608,1414 640,1382 672,1414 672,1650 288,1650 288,1414 320,1382 352,1414 384,1382 416,1414 
			448,1382 480,1414 512,1382 544,1414 576,1382 		"/>
	</defs>
	<clipPath id="SVGID_2_">
		<use xlink:href="#SVGID_1_"  style="overflow:visible;"/>
	</clipPath>
	<g class="st4">
		<defs>
			<rect id="SVGID_3_" x="288" y="1382" width="384" height="268"/>
		</defs>
		<clipPath id="SVGID_4_">
			<use xlink:href="#SVGID_3_"  style="overflow:visible;"/>
		</clipPath>
	</g>
</g>
<rect x="288" y="1350" class="st5" width="384" height="300"/>
<g class="st6">
	<g>
		<path class="st7" d="M447.8,1533.3C447.8,1533.3,447.7,1533.3,447.8,1533.3L447.8,1533.3z"/>
		<path class="st7" d="M448.1,1533.4C448.1,1533.4,448.1,1533.4,448.1,1533.4L448.1,1533.4z"/>
		<path class="st7" d="M448,1533.3C448,1533.4,448,1533.3,448,1533.3L448,1533.3z"/>
		<path class="st7" d="M448,1533.3C448,1533.4,447.9,1533.3,448,1533.3L448,1533.3z"/>
		<path class="st7" d="M448,1533.4C448,1533.4,448,1533.3,448,1533.4L448,1533.4z"/>
		<path class="st7" d="M448.1,1533.4C448.1,1533.4,448.1,1533.4,448.1,1533.4L448.1,1533.4z"/>
		<path class="st7" d="M447.8,1533.3C447.9,1533.3,447.8,1533.3,447.8,1533.3L447.8,1533.3z"/>
		<path class="st7" d="M447.6,1533.2C447.7,1533.3,447.6,1533.2,447.6,1533.2L447.6,1533.2z"/>
		<path class="st7" d="M447.3,1533.2C447.4,1533.2,447.3,1533.2,447.3,1533.2L447.3,1533.2z"/>
		<path class="st7" d="M447.4,1533.2C447.5,1533.2,447.4,1533.2,447.4,1533.2L447.4,1533.2z"/>
		<path class="st7" d="M448.1,1533.4C448.1,1533.4,448.1,1533.4,448.1,1533.4L448.1,1533.4z"/>
		<path class="st7" d="M448.1,1533.4C448.1,1533.4,448.1,1533.4,448.1,1533.4L448.1,1533.4z"/>
		<path class="st7" d="M448.1,1533.4C448.1,1533.4,448.1,1533.4,448.1,1533.4L448.1,1533.4z"/>
		<path class="st7" d="M454.5,1534.8c-5.5-4.3-11.7-9.7-14-16.5c-1.6-4.9-0.9-10.4-2-15.5c-0.4-1.8-0.8-3.9-1.7-5.5
			c-0.3-0.6-3.6-3.3-3.5-3.3c-1.7,3.2,0.6,9.9,1.1,13.3c0.8,4.8,1.5,9.7,3.2,14.3C440.5,1529.5,446.6,1532.7,454.5,1534.8
			C454,1534.4,454.3,1534.7,454.5,1534.8z"/>
		<path class="st7" d="M448,1533.4C448.1,1533.4,448,1533.4,448,1533.4L448,1533.4z"/>
		<path class="st7" d="M624.3,1558.3c0-2.3-3.9-0.8-5.7-1.4c-2-0.6-3.9-2.2-5.7-3.4c0.5,2.6,1.4,5.1,1.9,7.6
			c0.2,1.1-0.4,3.4,0.6,4.3c3.1,2.7,2.1-2.7,3.2-3.2c0.4-0.2,0.6,3.3,0.7,3.5c2.9-1.7,0.6-6.9,5.4-4
			C624.6,1560.7,624.3,1559.4,624.3,1558.3C624.3,1557.9,624.3,1558.6,624.3,1558.3z"/>
		<path class="st7" d="M534.9,1428.4c0.6-4.3,0.9-8.6,0.9-12.9c0-2.9,0.7-7.9-0.6-10.4c-0.7-1.3-2.7-2.7-3.8-3.8
			C529.3,1409.8,527.7,1421.9,534.9,1428.4z"/>
		<path class="st7" d="M573.5,1436c-1.7,2.2-4.4,1.1-6.8,2.1c-1.3,0.5-5.6,2.9-6.5,3.8c-2.2,2.1,0.5,5,0.2,7.4
			c-0.3,2.6-2.9,2.9-0.5,4.9c1.3,1.1,5.3,1.2,7,1.5c3,0.7,4.4,0.1,7.4,0.1c4.2,0,3.1,0.4,6.1-1.2c-1.3-0.5-15.4-6.9-14.4-8.3
			c0.9-1.2,15.5,10.8,17.6,8.1c0.6-0.8-6.2-4.4-5.6-5.2c1.1-1.4,6.9,5.3,7.7,5.1c0.8-3.9-8.6-6.5-10-9.7c-1.6-3.7,0.8-2.9,4.1-3.5
			c-2.3-2.3-0.9-4.7,1.8-5c-4.8-1.2-2.8,2.7-4.6,2.8c-2.6,0.1-0.4-4.6,0.3-5.2C575.7,1433,574.4,1434.9,573.5,1436
			C572.9,1436.8,575.7,1433.2,573.5,1436z"/>
		<path class="st7" d="M498,1396c9,0.7,17.9,1.5,26.9,2.2c-1.8,0.8-3.5,1.6-5.2,2.5c1.6-2-10.7-2.6-12.8-2.3
			c-4.1,0.6-8,2.3-11.4,4.7c-3.7,2.6-7.1,6.1-9.5,10c5.9,2.1,12.2,1.9,18-0.3c-2.5,2.5-5.5,7.3-8.6,8.2c-1.9,0.6-4.8,0-6.9,0.4
			c-7.3,1.4-13.1,6.1-16.1,12.9c13.8,5.1,27.2-15.1,36.1-22.4c-3.8,6.3-11,21.5,0.2,25c-5.2-2.3-0.7-16.9,0.2-20.6
			c1.1-4.7,1.9-6.5,6.1-9.3c4.7-3.1,9.8-5,15-7.1c-4.5-4.5-9.3-4.5-15.6-5.5c-2.9-0.5-10.3-2.9-13-1.9
			C500.3,1393,498.8,1395.2,498,1396z"/>
		<path class="st7" d="M583.5,1432.9c-2,0.7-3.7-0.3-5.2,0.8c-1,0.7-2.4,3.4-1.6,4.3c0.6-3.9,2.4-1.7,5.2-2.5c1.9-0.5,0.6-1.2,3-2.8
			C584.5,1432.6,584,1432.7,583.5,1432.9C582.6,1433.3,584,1432.8,583.5,1432.9z"/>
		<path class="st7" d="M540.8,1410.8c-0.5-0.6-1.1-1.1-1.6-1.6c0.2,0.9,0.4,1.7,0.7,2.5C540.1,1411.4,540.4,1411.1,540.8,1410.8z"/>
		<path class="st7" d="M508.7,1437c0.4,0.1,0.7,0.2,0.7,0.2C509.2,1437.1,508.9,1437.1,508.7,1437z"/>
		<path class="st7" d="M612,1483.5c-0.5-2.8-1.4-11.4-3.9-13.2c0.7,2,4,18.4,4,18.4c0,0-4.7-0.9-5-1c-1.8-0.9-3.1-4.2-5-4.2
			c0.6,2.2,0.4,13.1,4.4,13.4c0.2,0,5.3-4.3,5.5-4.5C613.5,1489.8,612.5,1486.1,612,1483.5C611.5,1480.2,613,1489,612,1483.5z"/>
		<path class="st7" d="M447.2,1533.1C447.3,1533.2,447.2,1533.1,447.2,1533.1L447.2,1533.1z"/>
		<path class="st7" d="M582.1,1524.1c0.1,0.7,0.5,1.2,1.1,1.5c-0.8,0.7-1.1,1.5-1.1,2.6c0.2,1.1,1.3,3.2,2.2,3.9
			c2.8,1.9,8.4-0.8,6-4.4c4.2,1,6.9-3.7,5.4-7.2c-1.2-2.7-1.3-1.5-3.5-2.2c-0.9-0.2-1.7-0.1-2.6,0.4c-0.2-0.8-0.6-1.4-1.1-1.9
			c-3-1.8-4.7-3.6-7.5-0.3C579.2,1518.6,577.9,1523.6,582.1,1524.1C582.1,1524.5,578.2,1523.6,582.1,1524.1z M591.3,1518.8
			c3.9,0.8,1.2,4.2,1,1.3c-0.9,0.2-1.5-0.2-2.4,0.2C589.4,1519.1,589.9,1518.6,591.3,1518.8C591.7,1518.9,590.8,1518.7,591.3,1518.8
			z M585.7,1526.1c3.6-0.5,2.2,2.1,2,2.1C587.5,1528.2,585.7,1526.1,585.7,1526.1C586,1526.1,585.5,1526.5,585.7,1526.1z M580,1519
			c0.8-1.5,3.2-4.8,4.9-2.2c1,1.6-1,1.6-1.4,1.8c-0.4,0.2-0.3-1.2-0.3-1.2C582.8,1517.9,579.3,1520.4,580,1519
			C580.4,1518.3,579.7,1519.7,580,1519z"/>
		<path class="st7" d="M612.2,1555.3c-0.7-3.1-4.1-20.1-9.1-16.6c-3,2.1,0.2,5.7-0.9,8c-1.5,3.2-4.2,0.5-6.5,1.5
			c-1.4,0.6-4.8,5.1-4,6.5c0.3,0.5,1.3,0.2,1.6,0.6c1.3,1.5,3,1.8,4.2,4c2.2,3.9,3.3,7.3,8.1,5.9c-0.7-1.5-9.8-14.3-9.3-14.9
			c1.3-1.3,7.3,9.5,7.6,10.1c0.8,1.5,1.7,3.9,3,4.2c1.1,0.3,2.6-1.8,4.1-1c1.2,0.7,1.1,2.7,1.2,3.8
			C616.1,1565.7,612.9,1558.6,612.2,1555.3C612,1554.3,612.3,1555.7,612.2,1555.3z"/>
		<path class="st7" d="M445,1415.3c7.2,4.6,16.1,0.7,22.4-4.5c-7.4,4.2-20.4,1.4-28-1.1c5,7.1,19.7,12.7,20.5,21.8
			c1-6.5,0.2-12.2-6.7-13.3C451.8,1418,445,1418.1,445,1415.3z"/>
		<path class="st7" d="M466.3,1613.4c1.6,0.3,7.9-0.1,8.8,1.1c-0.3-1-2-1.9-2.8-2.8c-1.1-1.3-2.5-6-4.6-5.4
			c-0.7,0.2-1.9,3.2-2.7,3.9c-3,2.7-2.7,0.6-2.7,3.2c0-2.5,3.3,6.2,2,3.9c0.2,0.3-0.6,0.9-0.4,1.2c0.6,1,3.7,1.9,4.7,1.9
			c-0.1,0,2.2,0.3,2.4,0.2c0.9-0.8-0.6-2.6,0-3.2c0.8-0.8,2.1-1.2,3.3-1.5c-1-1-10.2-2.3-10-2.6
			C464.5,1613,466.4,1613.4,466.3,1613.4C467.6,1613.6,465.4,1613.2,466.3,1613.4z"/>
		<path class="st7" d="M466.3,1596.6c-0.2,0.2-1.3,1.4-1.4,1.8c-0.1,0.3,6.1-0.3,6.8-0.9c-0.4-0.4-4.6-5.6-3.6-5.6
			c1,0,2.5,3.5,3.3,4.2c1.5,1.2,0.9,0.1,2.6,1.3c2.2,1.4,2.1,2.1,4.9,2.2c-1.1-2.2-2-3.6-3.9-5.1c-2.3-1.8-2.4-1.9-4.2-4.2
			c-2.9-3.7-6.5-3-10.5-0.6C462.7,1590.7,469.7,1593.2,466.3,1596.6z"/>
		<path class="st7" d="M475,1561.9c-0.1-2.5-1.3-4.6-2.7-6.6c4.7,11.3-8.8,17.9-10,27.4C467.1,1577,474.8,1569.8,475,1561.9
			C475,1559,474.8,1568.6,475,1561.9z"/>
		<path class="st7" d="M466.6,1535.7c1.6-2.2,5.5-5.1,8.5-4.1c-2.9-4.6-6.3-5.8-11.5-6.5c-2.4-0.3-4.8-0.3-7.2-0.8
			c-2.9-0.6-4.5-2.3-7.1-3.3C454.5,1525.6,456.5,1541.2,466.6,1535.7C467.7,1534.2,465.4,1536.3,466.6,1535.7z"/>
		<path class="st7" d="M485.7,1604c0.3-1.1-2.8,0.9-3.2,0.7c-1.8-0.8-0.2-3.3-2.2-4.4c-0.5-0.3-2.6-0.2-2.7-0.2
			c-0.5,0-1.5-0.2-2-0.1c-4.2,1.4-0.1-0.7-1.5,2c-0.3,0.6-1.3,2.9-1.7,3.8c-0.4,0.9-1.6,1.1-1.6,2.3c0,2.4,6.2,8.2,9,7.9
			c1.3-2.3-5-4.4-4.1-6.1c-0.1,0.1,4.3,4.3,4.9,3.7c1.3-1-4.1-10.1-1.9-10.1c0.4,0,2.1,5.4,2.4,5.9
			C483.4,1608.4,483.6,1604.9,485.7,1604C485.8,1603.7,485.5,1604.1,485.7,1604z"/>
		<path class="st7" d="M452.9,1399.4c-3.4-4.8-7.8-4.3-11.9-0.8c2.1,1.2,5.7,0.5,8.2,1.4c2.8,1,4.5,3.5,7.2,4.6
			c-0.8-0.9-1.5-1.9-2-2.9c4.7,1.8,10.3,2.9,15.3,2C465.6,1399.6,458.6,1401.2,452.9,1399.4C452.4,1398.7,456.8,1400.7,452.9,1399.4
			z"/>
		<path class="st7" d="M445,1415.3C445,1415.3,445,1415.3,445,1415.3C445,1415.3,445,1415.3,445,1415.3z"/>
		<path class="st7" d="M482,1518.1c5.5-2,8.7-1.1,14.3-1.3c-4.3-1.7-6.7-4.9-11.8-3.9c-5.6,1.1-5.4,3.7-7.2,7.8
			C478.7,1519.7,480.3,1518.8,482,1518.1C484.9,1517,480.1,1518.9,482,1518.1z"/>
		<path class="st7" d="M458.3,1537.1c-3.2,0.6-2.9,3.1-2.8,5.7c0.9-2.7,2.6-4.5,5.4-5.3C460,1537,459.2,1536.9,458.3,1537.1
			C456.9,1537.4,458.5,1537.1,458.3,1537.1z"/>
		<path class="st7" d="M476.9,1498.5c-1.7-6.6-6.1,0.7-7.2,3.6c-2,5.5-1.4,11.9-0.1,17.5c0.5-2,6.5-10,7.9-4.9
			C477.9,1509.4,478.2,1503.6,476.9,1498.5C476.5,1497,477.3,1500,476.9,1498.5z"/>
		<path class="st7" d="M447.7,1533.3C447.8,1533.3,447.8,1533.3,447.7,1533.3L447.7,1533.3z"/>
		<path class="st7" d="M447.5,1533.2C447.6,1533.2,447.5,1533.2,447.5,1533.2L447.5,1533.2z"/>
		<path class="st7" d="M447.6,1533.2C447.7,1533.3,447.6,1533.2,447.6,1533.2L447.6,1533.2z"/>
		<path class="st7" d="M447.8,1533.3C447.9,1533.3,447.8,1533.3,447.8,1533.3L447.8,1533.3z"/>
		<path class="st7" d="M447.7,1533.2C447.7,1533.3,447.7,1533.3,447.7,1533.2L447.7,1533.2z"/>
		<path class="st7" d="M447.5,1533.2C447.6,1533.2,447.5,1533.2,447.5,1533.2L447.5,1533.2z"/>
		<path class="st7" d="M447.7,1533.3C447.8,1533.3,447.7,1533.3,447.7,1533.3L447.7,1533.3z"/>
		<path class="st7" d="M447,1533.1C447.1,1533.1,447,1533.1,447,1533.1L447,1533.1z"/>
		<path class="st7" d="M447.4,1533.2C447.6,1533.2,447.5,1533.2,447.4,1533.2L447.4,1533.2z"/>
		<path class="st7" d="M447.3,1533.2C447.4,1533.2,447.3,1533.2,447.3,1533.2L447.3,1533.2z"/>
		<path class="st7" d="M446.9,1533.1C447.1,1533.1,446.9,1533.1,446.9,1533.1L446.9,1533.1z"/>
		<path class="st7" d="M447.4,1533.2C447.5,1533.2,447.4,1533.2,447.4,1533.2L447.4,1533.2z"/>
		<path class="st7" d="M445.5,1533C445.5,1533,445.3,1533,445.5,1533L445.5,1533z"/>
		<path class="st7" d="M448.1,1533.4C448.1,1533.4,448.1,1533.4,448.1,1533.4L448.1,1533.4z"/>
		<path class="st7" d="M448.1,1533.4C448.1,1533.4,448.1,1533.4,448.1,1533.4L448.1,1533.4z"/>
		<path class="st7" d="M445.2,1533C445.2,1533,445.2,1533,445.2,1533L445.2,1533z"/>
		<path class="st7" d="M445.3,1533C445.3,1533,445.2,1533,445.3,1533L445.3,1533z"/>
		<path class="st7" d="M448,1533.4C448.1,1533.4,448,1533.4,448,1533.4L448,1533.4z"/>
		<path class="st7" d="M447.9,1533.3C448,1533.3,447.9,1533.3,447.9,1533.3L447.9,1533.3z"/>
		<path class="st7" d="M448.1,1533.4C448.1,1533.4,448.1,1533.4,448.1,1533.4L448.1,1533.4z"/>
		<path class="st7" d="M447.9,1533.3C448,1533.3,447.9,1533.3,447.9,1533.3L447.9,1533.3z"/>
		<path class="st7" d="M447.2,1533.1C447.2,1533.1,447.1,1533.1,447.2,1533.1L447.2,1533.1z"/>
		<path class="st7" d="M447.9,1533.3C447.9,1533.3,447.9,1533.3,447.9,1533.3L447.9,1533.3z"/>
		<path class="st7" d="M446.6,1533C446.6,1533,446.4,1533,446.6,1533L446.6,1533z"/>
		<path class="st7" d="M446.3,1533C446.5,1533,446.3,1533,446.3,1533L446.3,1533z"/>
		<path class="st7" d="M446.7,1533.1C446.9,1533.1,446.8,1533.1,446.7,1533.1L446.7,1533.1z"/>
		<path class="st7" d="M445.2,1533C445.3,1533,445.1,1533,445.2,1533L445.2,1533z"/>
		<path class="st7" d="M445.6,1533C445.8,1533,445.6,1533,445.6,1533L445.6,1533z"/>
		<path class="st7" d="M445.7,1533C445.8,1533,445.5,1533,445.7,1533L445.7,1533z"/>
		<path class="st7" d="M447.1,1533.1C447.2,1533.1,447.1,1533.1,447.1,1533.1L447.1,1533.1z"/>
		<path class="st7" d="M446.9,1533.1C446.9,1533.1,446.7,1533.1,446.9,1533.1L446.9,1533.1z"/>
		<path class="st7" d="M447.1,1533.1C447.1,1533.1,446.9,1533.1,447.1,1533.1L447.1,1533.1z"/>
		<path class="st7" d="M446.9,1533.1C447,1533.1,446.8,1533.1,446.9,1533.1L446.9,1533.1z"/>
		<path class="st7" d="M446.2,1533C446.4,1533,446.2,1533,446.2,1533L446.2,1533z"/>
		<path class="st7" d="M446.5,1533C446.6,1533,446.5,1533,446.5,1533L446.5,1533z"/>
		<path class="st7" d="M446.3,1533C446.4,1533,446.3,1533,446.3,1533L446.3,1533z"/>
		<path class="st7" d="M446.4,1533C446.6,1533,446.4,1533,446.4,1533L446.4,1533z"/>
		<path class="st7" d="M446.6,1533C446.7,1533.1,446.6,1533,446.6,1533L446.6,1533z"/>
		<path class="st7" d="M446.7,1533.1C446.8,1533.1,446.7,1533.1,446.7,1533.1L446.7,1533.1z"/>
		<path class="st7" d="M446,1533C446.2,1533,446,1533,446,1533L446,1533z"/>
		<path class="st7" d="M445.8,1533C446,1533,445.8,1533,445.8,1533L445.8,1533z"/>
		<path class="st7" d="M446.1,1533C446.3,1533,446.1,1533,446.1,1533L446.1,1533z"/>
		<path class="st7" d="M445.9,1533C446.1,1533,445.9,1533,445.9,1533L445.9,1533z"/>
		<path class="st7" d="M446,1533C446.2,1533,446.1,1533,446,1533L446,1533z"/>
		<path class="st7" d="M445.7,1533C445.9,1533,445.7,1533,445.7,1533L445.7,1533z"/>
		<path class="st7" d="M481.1,1619.5c1.1-1.4,4.1,1.6,5,2.1c3.8-6.5-8.5-5.6-11-5.2c-3.5,0.5-2.4,1.2-3.3,3.5
			c-0.2,0.4-1.9,4.2-1.9,4c0,2.2,2.3,1.8,3.1,3.6c0.9,2-0.4,3.5-0.2,5.4c0,0.5,0.9,3,1.2,3.5c2.2-1.5,3.9-5.4,6-7.3
			c1.6-1.5,3-2.7,4.3-4.6c-0.6,0.3-10.5,4.5-10.2,5.2c-1.7-3.7,13.8-4.5,10.7-8.5C484.4,1620.9,480.5,1620.1,481.1,1619.5
			C481.1,1619.5,481.1,1619.6,481.1,1619.5z"/>
		<path class="st7" d="M603,1495.9c0.2-3.9-0.7-8.6-1.7-12.5c-1.6,0.2-4,2.8-5.5,0.8c0.2,1.2,3.8,19.4,5.5,18.8
			C601,1503.1,602.9,1496,603,1495.9C603,1495.4,602.9,1496.7,603,1495.9z"/>
		<path class="st7" d="M454.8,1631.9c3.5,3.5,12.7-7.1,14.6-9c-1.8-3.3-13.1,5.2-13.5,4.6c-1.5-2.6,11.8-5,11.9-5.9
			c0.4-2.4-9.2-1.1-9.2-1.8c0-0.8,4.5-0.9,4.9-0.8c-0.3-0.4-0.1-1,0.1-1.3c-2.6,0.1-5.2,0.2-7.4-0.5c-2.1-0.7,0-2.7-3.8-1.4
			c3.9,3.3-0.6,4.1-0.7,6.9c-0.1,2.6,1.7,1.5,2.6,3.1C455.1,1627.3,453.6,1630.6,454.8,1631.9C454.9,1632,454.4,1631.4,454.8,1631.9
			z"/>
		<path class="st7" d="M408.3,1474.7c-3.1-2.1-5.8,3.1-3.7,5.1C408.6,1483.3,412,1474.7,408.3,1474.7
			C408.2,1474.6,409.1,1474.7,408.3,1474.7z M408.9,1476.2c-0.1,0.8-1.4,0.7-0.9-0.5c-0.4-0.1-2-0.4-2-0.8
			C406.1,1474,409,1474.9,408.9,1476.2C408.8,1476.9,408.9,1475.9,408.9,1476.2z"/>
		<path class="st7" d="M455.9,1601.6c-1.8,0.6-2.7,2.9-1.6,4.6c1.2,1.9,1.6,0.4,3.9,1c3.1,0.8,5.1,4.1,7.7,0.9
			c-1-0.6-10.5-4.2-10.4-4.7c0.2-1.2,7.6,2.8,8.1,2.9c1.4,0.5,2.2,0.7,2.9,0.7c1.7,0.1,0.9-3,3.7-0.1c1.7-2.9-6.7-8.7-8.7-10.3
			c-1.2-0.9-5.4-4.7-6.6-2C454.1,1597,460.2,1600.3,455.9,1601.6C455.8,1601.7,456.6,1601.4,455.9,1601.6z"/>
		<path class="st7" d="M495.8,1608.7c1.4-0.7,3.2-3.4,3.9-4.8c1.3-2.5,0.8-2.4,0.2-4.8c-0.5-1.9-0.6-4.9-2.2-5.8
			c1.8,1.1-6.2-1.3-4.4-1.4c-3.5,0.2-3.7,7.5-4.4,10.4c2.8-1.4,1.4,3.5,2.2,5.1c0.4-1.1,4.9-10.5,5-10.3c0.5,0.9-3.4,7.5-3.7,8.6
			c-0.7,2.7,0.4,5-0.6,7.3C494,1611.3,493.6,1609.8,495.8,1608.7C496,1608.6,494.7,1609.2,495.8,1608.7z"/>
		<path class="st7" d="M618.1,1594.9c0.7,1.5,1.2,3.2,1.9,4.8c2.2-1.1,3.2-6,2.3-8.1c-0.7-1.7-1.7-1.8-3.5-2.6
			c-3.9-1.8-5.9-4.2-9.5-5.8c-5-2.1-4.2,0.3-7.3,3.2c-0.9,0.9-4.6,1.7-5.1,2.5c-2,2.8,2.6,5.7,1,9.1c-1,2.2-3.7,2.2-4.9,4.5
			c-0.2,0.5,0.6,1.4,0.4,2c-0.4,1.3-1.5,2.5-1.7,3.8c3.6-0.1,7.8-3.3,11.5-3.9c4.1-0.7,7.9-1,11.8-2.5c-1.6-0.2-17.2-3.2-17.5-2
			c0.6-4,15.4,0.8,17.7,0.8c4.3,0,3.8-1.9,1.7-4.9c-0.2-0.3-2.1-1.8-2.1-2.2C615,1591,618,1594.3,618.1,1594.9z"/>
		<path class="st7" d="M551.9,1541.4c2.3-4.1,3.1-6.2-0.9-9.7C552.7,1534.5,552,1538.4,551.9,1541.4
			C552,1541.2,551.9,1540.9,551.9,1541.4z"/>
		<path class="st7" d="M632.7,1584.1c-0.4,1-4.2,11.4-4,11.5c4.3-1.8,7.7-3.6,8.9-8.2c0.3-1.4,0.3-2.7,0.8-4c0.6-1.3,3.3-3.6,3-5
			c-2.8-1.7-8-0.6-10.6,0.5c-3.2,1.4-5.3,1.2-8.3,1.5c-0.1,2.9-1.4,5.1-2.4,7.7c5,1.2,1.5,9.8,6.5,6.9c1.9-1.1,5.3-12.9,6.3-12.3
			C632.9,1583.3,632.9,1583.6,632.7,1584.1z"/>
		<path class="st7" d="M653.6,1561.6c1.4-0.4,4.3,0.7,5.3,1.8c1.3-2.7-2.6-3.7-3.9-5.5c-1.3-1.9-0.8-3.6-1.4-5.7
			c-0.6-2.2-1.6-3.2-2.8-5c-0.7-1-1.4-2-2.1-3c-2-3.2,0-1.9-2.5-2.7c-1.2-0.3-4.1,0.1-5,0.2c-1.3,0.1-1.8,1-3.4,0.9
			c-0.9-0.1-1.8-1.9-2.6-1.8c-3.5,0.1-3.2,5.2-3.8,8.3c-0.3,1.8-1.4,4.3-1.3,6.2c0.1,1.5,1,3.3,1,5.1c0,1.1-0.9,4.6-0.5,5.6
			c0.3,0.7,1.7,1.3,2.2,2.1c0.7-1.7,8.2-19.6,9.9-18.4c1.6,1.1-13,19.9-9.6,22.4c1,0.7,5.4-7.9,6.3-7.2c0.7,0.5-11.6,17.4-2,6.7
			c2.1-2.3,5.4-9.7,8.7-10.6c3.8-1,3,2.9,3.6,5.8c2.8-3,5.9-1.3,6.3,2.1c0.2-1.1,0.5-3.5-0.2-4.4c-0.2-0.3-2.6-0.9-2.5-0.8
			C653.1,1563.3,650.8,1562.4,653.6,1561.6C653.9,1561.5,652.6,1561.9,653.6,1561.6z"/>
		<path class="st7" d="M556.2,1541.9c0.9,1.3,2.6,2.2,4,2.6c-3.7-4-2.9-15.1-10-13.9C555.7,1533.7,553.9,1537.2,556.2,1541.9
			C557,1543.1,555.5,1540.5,556.2,1541.9z"/>
		<path class="st7" d="M358.7,1443.8c3.9,0.8,5.3-14.7,6-14.5c3.3,0.7-4.5,13.4-3.8,14.2c1.6,1.9,7.6-6.8,8.2-6.3
			c0.7,0.6-2.5,4.4-2.9,4.7c0.5,0,0.9,0.6,1.1,1c2-2.5,3.8-4.6,6.2-5.6c1.9-0.9,2.5,0.5,3.6-2.2c-6,0.6-2.6-5.7-7.3-6.7
			c-1.1-0.2-2.3,1.4-3.8,1c-1.5-0.4-1.6-3.2-3.1-3.6c-1.4-0.4-3.1,0.5-3.3,2.4c-1.8-6.5-2.5-13-1.7-19.8c-2.7,1.7-1.7,5.6-1.4,8.3
			c-0.5-1.8-1-3.6-1.5-5.4c-2.5,1.7,3.4,13.9,3.9,17.2c0.3,2.1-0.9,2.4-1.2,4.4C357.1,1435.9,358.5,1440.7,358.7,1443.8
			C359.1,1443.9,358.5,1440.9,358.7,1443.8z"/>
		<path class="st7" d="M402.4,1509.6c2.9-3.8,1.3-10.5-3.9-9.8c-1.5,0.2-3.1,1.2-4,2.3c-2.2,2.9,0.2,3.3,0.5,5.7
			c0.3,2.9-3.9,6.4,0.2,9.4c4.3,3,8.3-3.1,5.1-6.3C401.2,1510.7,401.9,1510.2,402.4,1509.6C403.7,1507.9,402,1510.1,402.4,1509.6z
			 M399.5,1513.6c-0.6,0.7-2.3-2.2-2-2.5C398.7,1511.4,401,1511.9,399.5,1513.6C399.3,1513.9,399.9,1513.2,399.5,1513.6z
			 M398.6,1503.6c-0.9-0.4,0.1-1.2,0-1.6c-0.4,0.2-3.5,1.2-3.6,1c-0.7-1.2,3-2.8,3.9-2.6C400.9,1501.2,400.9,1504.5,398.6,1503.6
			C398.4,1503.5,399.8,1504.1,398.6,1503.6z"/>
		<path class="st7" d="M372.9,1448.8c1.1-1.1,2-1.6,3.4-2.4c3.5-1.9,4.7-0.7,3.9-4c-0.1-0.6-1.6-2.2-1.9-3.1
			c-0.6-2.1,1.2-2.3-0.4-4.8c-1.4,2.1-0.9,2.5-3,3.6c-1,0.5-1.7-0.6-2.5-0.3c-1,0.4-2.4,2.5-3,3.3c-1.6,2.5-2.6,2.2,0.2,3.4
			c0.9,0.4,2.7-0.9,3.7,0.1C374.4,1445.7,373,1447.6,372.9,1448.8C373,1448.7,373,1448.1,372.9,1448.8z"/>
		<path class="st7" d="M377.2,1469.5c1.1-0.6,2.2-1.4,3.5-1.5c2.2-0.3,3.5,1.5,5.5,1.4c4.1-0.2,5.5-5.6,6.3-8.9
			c-2.6,1.3-7.1,4.1-9.4,1.5c-0.9-1-0.3-3-1-4.1c0,0-4.2,5-4.2,6.3c0.8-0.2,7.9,0.3,7.2,1.1c-0.8,0.8-4.7-0.5-5.8-0.3
			c-1.6,0.3-1.1,1-2.6,1.3c-3,0.6-3.5,0.2-5.8,2.4C372.5,1469.1,375.6,1470.3,377.2,1469.5C377.4,1469.4,376.4,1469.9,377.2,1469.5z
			"/>
		<path class="st7" d="M392.7,1452.9c-0.3-2-3-1.3-4.1-1.8c-3-1.4-1.3,0.7-2.5-2.9c-0.5-1.4-0.3-6-4-5.2c-0.3,0.1-1.8,2.8-2.3,3.1
			c-1,0.7-2.6,0.6-3.7,1.1c-2.3,1.2-3,2.2-2.7,4.6c1.1-0.3,11.1-5.6,11.4-5.1c0.9,1.1-8.4,4.5-8.7,4.7c-0.4,0.2-1.9,0.4-2.2,0.8
			c-0.4,0.5,0.4,1.1,0.1,1.6c-1.1,1.8,0.3,2.3-2.9,2.4C372.1,1460,393.3,1456.7,392.7,1452.9
			C392.6,1452.5,392.7,1453.2,392.7,1452.9z"/>
		<path class="st7" d="M373.5,1461.3c-0.6,0-1.3,0-1.9,0c0.9,2.2,5,0.9,2.3,4.2c3.8,0.1,2,0.1,3.4-1.8c1.3-1.8,2.1-3.9,3.6-5.8
			c-1.2,0-8-0.2-8.8,0.6C370.4,1460.5,374.6,1461.4,373.5,1461.3C372.6,1461.2,374,1461.3,373.5,1461.3z"/>
		<path class="st7" d="M364,1467.9c1.2-1.3,2.5,1.7,3.4,1.8c1.2,0.1,1.1-0.2,2.2-0.8c0.9-0.5,2.1-1.9,2.7-2.8
			c2.8-3.9,0.4-1.5-1.5-4.8c-0.7-1.2,0.2-3.2-0.4-4.4c-1.3-2.7-10.2-2.8-12.5-0.9c-4.3,3.6,6.5,1.4,6.8,2.3c0-0.1-6.6,0.4-6.7,1.4
			c-0.2,1.5,11.3,4.5,9.7,5.8c-0.3,0.3-6-2.2-6.6-2.3c-0.5,1.7,2.4,7.6,1.6,8.1C363.6,1470.5,363.2,1468.8,364,1467.9
			C364.2,1467.7,363.9,1468,364,1467.9z"/>
		<path class="st7" d="M352.9,1442.8c1.4,0,3.8-2.1,5-0.2c-0.1-1.1-1.5-17.7-3.1-17.3c0.2,0-2.3,6.6-2.4,6.8
			C351.7,1435.1,352.5,1439.8,352.9,1442.8C353,1442.8,352.5,1440.3,352.9,1442.8z"/>
		<path class="st7" d="M512.9,1393.5c-1-2.9-2.4-5.7-4.4-8c-2.2,2.2-4.4,4.4-6.6,6.6C505.4,1393.2,509.2,1393.6,512.9,1393.5z"/>
		<path class="st7" d="M361.4,1451.8c-0.2,0.4-0.4,0.8-0.6,1.3c1.6,0,9.3-6.8,9.5-6.3c0.6,1.5-8.4,6.7-8.9,8
			c0.4,0.2,11.9,0.6,12,0.6c-0.2,0.4-1.4-10.9-0.5-10.1c1,1-6.3-1.2-5.8-1.1c-1.4-0.3,0-1.4-2.4-1c-1,0.1-4.2,2.1-4.5,3.1
			c-1.2,3.8-0.1-2.8,0.2,2C360.6,1450.7,363.2,1447.3,361.4,1451.8C361.3,1451.9,361.5,1451.6,361.4,1451.8z"/>
		<path class="st7" d="M363.2,1471.8c-1.3,1.4-0.4-1.7-1.3,1.3c-0.5,1.7,1.7,3.8,2.7,5.2c1.2,1.7,3.7,6,6.6,3.7
			C373.8,1479.7,362.2,1472.9,363.2,1471.8C363.1,1471.9,363.2,1471.8,363.2,1471.8z"/>
		<path class="st7" d="M362,1627.4c11.3,0.1,21.3-6.2,25.1-17.1c-9.8-2.8-19.4,6.6-24.7,13.6c1.2-7.7,3.5-15.4,7.3-22.2
			c2.4-4.2,4.1-7.2,8.8-8.6c6-1.8,12-3.7,18-5.7c-1.7,0.6-3.3,1.4-4.8,2.3c9.5,9.4,23.7,9.1,34.4,1.9c-7.2-6.9-17.3-8-26.6-5.2
			c4.2-1.5,8.5-2.9,12.6-4.7c1.9-0.8,4.2-2.7,6.1-3.4c1-2,2-1.9,3.2,0.3c0.6,0.5,1.2,0.9,1.8,1.4c1.6,1,3.3,2,5.1,2.4
			c3.2,0.8,6.3,0.3,9.2-1.1c1.6-0.8,4.3-2.3,5.2-3.9c1.3-2.2,1.6-1-0.4-3.8c-3.9-5.7-12.6-5-18.4-3.2c4.5-7.6,9.1-12.9,17.8-15.6
			c1.5-0.5,3.2-1.1,4.8-1.2c2.5-0.1,3.9,1.1,6.3,1.1c4.1,0.1,6.3-3.3,7.6-6.7c-2.5-0.1-5.4,2.2-8,2.6c-3.7,0.6-6.8-1.1-10.3-0.8
			c1.2,0.5,2.4,1.1,3.5,1.9c-9.5,1-17.2,5.2-22.7,12.9c-2.7,3.8-4.9,8.6-9,11.1c-4.3,2.7-9.9,4.2-14.6,6.2
			c-7.4,3.1-14.8,6.2-22.2,9.3c1.4-1.7,2.7-3.5,4-5.3c-0.5,2.9,12.2-3,14.1-4.3c3.7-2.7,6.6-6.4,8.8-10.5c2.3-4.5,3.8-9.6,4.3-14.6
			c-6.9,0.9-13.1,4.3-17.7,9.5c1.3-4,1.7-10.1,4.6-12.6c1.7-1.5,4.5-2.3,6.4-3.8c6.6-5.1,10-12.8,9.6-21.2
			c-16.4,1.8-19.4,29-24.5,40.6c0.6-8.2,0.1-27-12.9-24.8c6.4-0.4,9.4,16.6,10.4,20.8c1.3,5.5,1,7.9-1.9,12.9
			c-3.4,5.8-8.1,10.5-12.3,15.7c-2.1-10.1-6.5-24.6-17.9-27.6c2.1,5.4,4.7,10.6,7.5,15.7c1.4,2.5,2.8,4.9,4.3,7.4
			c0.9,1.5,4.5,5.3,4.4,6.7c-0.1,1.6-3.9,6.3-4.6,8.2c-0.4-6.8-2.9-14-7.9-18.8c-3.2,8-3.8,16.8-1.8,25.3c1.2,5.2,4.5,9.9,4.8,15
			c0.2,2.7-1.4,24.1,0.9,24.4c3.1,0.4,1.6-7,1.7-9.4C361.4,1636.2,361.5,1631.8,362,1627.4C367.2,1627.4,361.8,1629.2,362,1627.4z"
			/>
		<path class="st7" d="M373.7,1544.3c-0.3,0-0.5,0.1-0.8,0.2C372.9,1544.5,373.2,1544.4,373.7,1544.3z"/>
		<path class="st7" d="M288,1648.4c0.5,1.1-0.5,2.2,1.6,1.6C289.1,1649.5,288.5,1648.9,288,1648.4z"/>
		<path class="st7" d="M412.3,1645.5c-0.5-2.5-3-3-5.2-2.2c-2.2,0.8-4.8,4.6-2.7,6.7c0.5,0.5,4.6,0.2,5.2,0
			C412,1649.6,414.7,1649.3,412.3,1645.5C412.2,1645.1,412.8,1646.2,412.3,1645.5z M408.6,1646.3c-0.7-0.5,0.4-1,0.4-1.3
			c-0.3,0.1-3.2,0.2-3.2,0c-0.4-1.2,3-1.4,3.5-1.2C411.3,1644.7,410.1,1647.5,408.6,1646.3C408.4,1646.2,409.4,1647,408.6,1646.3z"
			/>
		<path class="st7" d="M309.2,1647.6c3.1-6.9,0.8-13.3-2.6-19.6c-4.2-7.8-14.2-10.8-18.1-19c-1.5,2.4-0.5,8-0.5,10.8
			c0,6.1,0,12.2,0,18.3c0,3.7-1.1,7.8,2,10.5c3,2.5,8.8,1.3,12.8,1.3c-0.5-4.3-0.9-6.1-4.8-8.4c-0.1,0-7.1-3.9-5.6-4.6
			c0.8-0.4,8.7,4.8,9.2,5.8c-0.9-4.4-1.3-9.3-5-12.1c-0.3-0.3-8.5-4.6-6.9-5.3c-0.2,0.1,7.6,3.7,8.1,4.2c-0.2-0.4-6.3-10.3-6.8-9.6
			c1.8-2.7,9.9,13.9,10.2,14.8c0.7,2.5,1,14.3,2,15.1C305.3,1651.4,308.5,1649.3,309.2,1647.6
			C310.1,1645.7,308.7,1648.9,309.2,1647.6z"/>
		<path class="st7" d="M669,1640.1c1.1,2,1.6,4,3,5.9c0-12.2,0-24.3,0-36.5c-1.5,1.7-1.5,4.4-2.3,6.3c-0.3,0.7-1.7,0.9-1.9,1.6
			c-0.4,1.2,0.3,2.9,0.3,4.1c0,2.9,0.1,5,0.5,7.9C669.1,1632.9,667.2,1636.9,669,1640.1C669.8,1641.4,667.3,1637,669,1640.1z"/>
		<path class="st7" d="M304,1589.6c-1.5-4.2-9.8,0.6-7.6,5.6C299.6,1602.1,306.1,1595.3,304,1589.6
			C303.5,1588.2,304.2,1590,304,1589.6z M300.6,1591.6c-0.7-0.5,0.4-1,0.4-1.3c-0.3,0.1-3.2,0.2-3.2,0c-0.4-1.2,3-1.4,3.5-1.2
			C303.4,1590,302.2,1592.8,300.6,1591.6C300.4,1591.4,301.5,1592.3,300.6,1591.6z"/>
		<path class="st7" d="M672,1509.9c-0.9,1.3-1.8,2.6-2.8,3.8c-2.6-4.2-7.7-6.6-12.5-4.6c-0.1-1.3,8,1.2,9,2.1
			c4.2,3.5,0.9,5.6-2.4,8.3c-5.4,4.4-11.7,7.4-18.3,9.4c-1.7,0.5-20.9,4.8-21.2,4.4c0.1,0,0.1,0,0.1,0c0-3,20.7,2.3,22.1,2.5
			c5,0.8,10.9,0,15.4-2c3.5-1.6,6.9-4.1,8.6-7.7c1.6-3.4,0.1-5.8,0.6-9.1C670.9,1514.5,672,1513,672,1509.9z M660.7,1532.2
			c0.2,1-9,2.3-9.6,2.3c-6.2,0.4-11.7-2.3-17.8-2.6c13.9-1.9,25.9-5.1,36.1-15.5C671.5,1522.9,667.4,1530.5,660.7,1532.2
			C660.7,1532.3,660.2,1532.3,660.7,1532.2z"/>
		<path class="st7" d="M641.8,1642c-2.1,0.6-10-8.7-11.2-10c-5.9-6.7-9.5-14.6-10.3-23.5c4.5,2.6,13.5-0.2,17.7-2.9
			c2.9-1.9,11.1-9.5,6.2-12.8c-2.4-1.6-6.2,1-8.5,1.6c-1.5,0.4-3.7-0.2-4.7,1.7c-1.3,2.5,0.5,1.6,2,2.9c0.4,0.3,4.9,3.4,1.6,3
			c-1.3-0.1-3.1-2.5-4.4-3.1c-3.5-1.8-5.4-0.4-8.3,1.1c-1.2,0.6-3.3,1-4.2,2c-1.4,1.5-0.6,1-0.2,3.3c0.2,1.1,1.5,1.6,1.7,2.5
			c0.4,1.5,0,3.9,0.2,5.5c0.8,7.5,4.1,14.3,8.7,20.2c-4.3-2.9-11.6-2.8-16.6-1.8c-3.3,0.6-6.4,2.7-9.3,4.1c-1.7,0.8-6.4,4.7-8.3,4.3
			c-1.8-0.3-3.9-6.6-5.4-8.5c-1.9-2.4-4.4-4.5-7-6.1c-2-1.2-4.2-2.1-6.6-2.5c-2.8-0.4-5.5-0.2-8,1.1c-1.5,0.8-2.3,2-3.5,3
			c-2.4,2.1,0,1.4-3.3,2.3c-2.9,0.8-10,1.9-12.8,1.2c-3.2-0.9-3.8-4.6-4.3-7.7c-0.9-5-1.6-6.6-5.8-9.3c-6-3.8-13-2.2-19.1-5.6
			c-0.4,6.3,3.8,11.3,7.6,16.3c1.8,2.4,5.5,4.5,8.5,5c3.2,0.5,7.7-1.4,10.2,1.4c-13.6,0-28.5-4.7-35.6-17.1c-5-8.7-3.7-19.6,3.1-27
			c9.4-10.3,27.5-12.4,35.6,0.6c2.9,4.7,3.7,10,1.5,15.1c-0.4,0.9-8.7,13.1-9.8,12.1c0-0.1,7.4-6.3,7.9-6.9c4.6-6.1,6-12.9,2.4-19.9
			c2.9,1.2,6.6,3.3,7.7,6.5c0.3,0.9,0.9,5.2-0.4,5.7c0-0.6,1.3-2.6,1.4-3.4c0.2-2.1-0.5-3.7-1.7-5.3c-2.1-2.8-5.2-3.5-7.8-5.4
			c-2-1.5-4-4.7-6.6-6.4c-3.7-2.4-7.9-3.2-12.3-3.2c2.1-1.7,4-3.8,5-6.2c0.1-0.3,1.1-4.9,0.9-4.9c1.2,0.2-4.9,8.6-5.4,9
			c-3.8,3.3-9.1,3.2-13.4,5.8c0.2-3.1,0.8-5.3,0.2-8.3c-0.6-3-2.1-5.9-1.7-9.1c-5.5,2.4-11.6,11-10,17.6c1.1,4.5,2.8,5.7,0.9,10.5
			c-2.4,5.8-4,11.5-2.4,17.8c4.2,16.9,23.1,24.4,39,24.6c-7.1,4.9-21.1,4.5-29.4,4c-9.1-0.5-17.8-3-23.7-10.4
			c5.2-0.3,8.8-7.7,9.2-12.1c0.3-2.8-0.2-6.2-3.6-4.3c-0.6,0.4-3.6,3.9-3.9,4.7c-1.7,4.7,4.5,0.4,4.1,2.5c-0.2,1-4.2,0.1-5.3,0.6
			c-1.8,0.8-1.9,2-2.7,3.3c-2.1,3-1.6,2.3-0.2,4.7c0.3,0.5,2.6,2.2,3.2,2.9c3.5,3.8,7.3,6.5,12.3,8.2c-6.7,0-12.2,7.6-14.6,13.1
			c3.7,0.7,4.4-1.8,6.9-3.8c1.5-1.2,13.4-7.3,13.8-5.8c0,0.1-4.3,2.1-4.6,2.4c-0.5,0.5-2.7,7-3.2,6.4c-0.4-0.5,1.6-5.9,2.4-6.6
			c-4.5,1.9-6.2,2.8-7.7,7.5c4.9,0,12.2,2,14.6-3.1c2.3-4.9,2.1-7.5,8.2-8.1c7.6-0.7,14.9-1.9,22.1-4.4c-2.3,2.4-7,17.5,0,15.6
			c-4.5-5.2-1.4-12.3,3.4-15.8c4.1-3,11.9-3,17.2-3.1c-1.3,4.3,0.1,9.2,4.3,11.3c-0.8,0.8-3.8-5.9-3.9-6.5c-0.8-6,3.2-4.9,7.7-4.1
			c7.4,1.4,14.3,4.8,20.4,9.2c-0.5,0.1-1,0.1-1.5,0.2c0.7,1.9,2.1,2,3.3,3.2c1.1,1,1.5,2.6,2.4,3.4c1.4,1.4,3.4,2.1,5.6,2.3
			c5.9,0.6,12.2,0,18.1,0c4.3,0,10.7,1.2,14.8,0c1.7-0.5,3.1-2.4,4.9-3c3.4-1.1,5.3,0.1,8.2,1.5c3.2,1.5,4.9,1.5,8.5,1.5
			C652.6,1649.3,642.6,1641.6,641.8,1642C642,1641.9,641.8,1642,641.8,1642z M541,1625.5c0,0-3.6-3.3-3.9-3.4
			c-0.7-0.3-7.5,0-7.1-0.6c0.4-0.6,6.1-0.7,7.1-0.2c-2.4-2.4-4.1-4.3-7.5-4.7c-0.2,0-5.7,0.4-5.1-0.5c0,0,5.4-0.8,5.9-0.6
			c-0.6-0.4-7.1-3-7.1-2.7c0-1.4,7.5,2,7.9,2.3C532.5,1615.9,542.2,1624.6,541,1625.5C541,1625.5,541.1,1625.5,541,1625.5z
			 M509.2,1574.7c-0.2,0.2,2.4,3.8,2.3,4.8c1.4-3.3,1.2-4.2,0.7-7.2c0.1,0.3-1.7-3.2-0.8-3c0,0,2.1,3.5,2.2,3.9
			c0.1-0.5-0.1-5.8-0.2-5.7c2-0.7-0.7,17.9-3.5,16C512.5,1584.4,509.1,1574.7,509.2,1574.7C509.2,1574.7,509.1,1574.8,509.2,1574.7z
			 M590.7,1640.8c-7.8-6.9-17.3-10.9-27.8-11.4c3.5-6.2,10.3-6.3,16-3.6c6.8,3.1,9.8,8.4,13.4,14.6
			C591.7,1640.5,591.2,1640.6,590.7,1640.8C590.3,1640.4,591.2,1640.7,590.7,1640.8z M632.8,1643.1c-0.4,0.3-3.7-0.9-3.8-0.9
			c-2.9-0.5-3.6-0.6-6,1c-0.4,0.2-7.4,6.2-7.5,4.5c-0.1-0.9,7.5-6.3,8.8-6.5c-4.9-0.9-9.4-2.3-13.6,0.6c-0.6,0.4-6.8,5.9-6.9,4.1
			c0,0.3,6.2-5.7,6.9-6c-0.4,0-11.9,2.1-11.4,2.8c-1.5-2.1,12.8-4.2,13.7-4.2c3.5,0,6.9,0.4,10.3,1.2
			C624.9,1640,632.5,1643.3,632.8,1643.1C632.8,1643.1,632.9,1643,632.8,1643.1z"/>
		<path class="st7" d="M554.6,1642.2c2.7-0.2,0.7,7.3,0.5,7.8C558.7,1649.7,556.1,1643.8,554.6,1642.2
			C554.2,1642.2,554.3,1641.9,554.6,1642.2z"/>
		<path class="st7" d="M320.8,1401.6c-3.1-2.1-5.8,3.1-3.7,5.1C321.1,1410.2,324.5,1401.7,320.8,1401.6
			C320.8,1401.6,321.6,1401.6,320.8,1401.6z M321.4,1403.2c-0.1,0.9-1.2,0.5-0.9-0.5c-0.4-0.1-2-0.4-2-0.8
			C318.6,1400.9,321.5,1401.9,321.4,1403.2C321.3,1403.9,321.4,1402.8,321.4,1403.2z"/>
		<path class="st7" d="M625.1,1540.1c-3.5-2.3-6.8-2.9-10.9-3.3c1.7,2.4,6.5,8.5,4.9,11.7c-1.2,2.4-4.8,1.7-6.5,3.2
			c-0.2,0.1,7.9,4.9,9.5,4.6c-0.2-0.8-1.2-11.2,0.2-10.2c0.8,0.6,0.4,5,0.5,5.9c0.1,1.2-0.1,2.9,0.4,4.1c0.1,0.1,1.5-0.2,1.8,0.6
			c0.6,1.7,0,4.2,0.9,5.7c0.4,0.7,3.3,2.4,3.9,2.8c0.8-6.1-0.2-7.5-2.4-12.3C625.1,1548.4,630.2,1543.5,625.1,1540.1
			C621.4,1537.7,628.6,1542.5,625.1,1540.1z"/>
		<path class="st7" d="M666.1,1483.2c1.9-0.5,4.1-0.3,5.9,0.4c1.1-3.9-6.2-2.3-8-1.6c-3.3,1.2-5.9,3.7-7.1,7
			c-2,5.8,1.8,11.2,7.8,11.2c-2,2.5-6.8-5.1-7.1-6.3C656.6,1488.7,661,1484,666.1,1483.2C668.2,1482.6,659.2,1484.3,666.1,1483.2z"
			/>
		<path class="st7" d="M297.7,1415.1c2.8,3.7,1.4,8.9-1.6,12c-2.1,2.1-8.7,2.9-8,5.7c6.3-0.6,12.2-5.7,12.4-12.3
			c0.1-4.4-4.6-11.8-9.7-9.3C293.7,1411,296.2,1412.5,297.7,1415.1C301.4,1419.9,295.4,1411.1,297.7,1415.1z"/>
		<path class="st7" d="M639.9,1505.6c-1.5-3.9-7.8,1.5-3.9,4.2C638.9,1511.7,640.8,1507.9,639.9,1505.6
			C639.6,1504.9,640,1505.9,639.9,1505.6z M639.6,1507.8c-0.5,0.7-1,0.8-1.4,0.1c0,0,1.1-1.7,0.9-1.7
			C639.7,1506.6,639.9,1507.1,639.6,1507.8C639.5,1508.2,639.8,1507.5,639.6,1507.8z"/>
		<path class="st7" d="M659.4,1421.9c-0.9-2.7-1.1-7.2-0.3-9.4c0.8-2.6,6.2-7,2.2-9.2c-1.6,3.2-3.3,7.8-6.6,8.4
			c-2.4,0.5-5.9-0.9-7.9-2c-3.3-1.8-6.1-3.9-10.2-2.8c-4.4,1.1-8.5,3.7-11.7,6.8c-3.5,3.5-6.5,8.1-11.1,10.1
			c1.4,1.6,2.9,0.8,4.5,1.6c1.8,1,1.7,1.8,3.6,2.3c1.7,0.5,4.9,0.1,6.7-0.1c2.7-0.2,5.3,0.3,7.9,0.1c3.2-0.3,8.1-2.9,10.4-5.2
			c2.8-2.9,3.5-8.5,8.3-9.1c-9.7,13.9-25.4,25.7-43.2,23.5c-8.7-1.1-16.4-6.1-20.8-13.8c-2.8-4.9-4-10.6-3.8-16.2
			c0.1-3.6,3.9-11.3,0.5-13.2c-1.7,3.6-2.7,7.5-3.1,11.5c-3.2-2.6-5-4.8-9-6.4c-3.2-1.3-6.9-2-9.5-4.4c-1.5,3.9,0.1,7.7,1.7,11.3
			c1.9,4.4,3.7,8.7,8.6,10.7c4.2,1.8,7.9,1.1,10.7,5.6c3.9,6.1,7.4,11.7,14.2,15.1c20.2,10.4,43.1-4,54.8-20.5
			c0,6.5-5.6,15-8.7,20.5c-2.4,4.2-5.1,8.1-8.1,11.8c-6.9,8.7-15.6,15.7-27.1,16.4c2.8-4.6-0.9-13-4-16.3c-1.8-1.9-5.9-6.7-8.1-2.7
			c-1,1.7,0.8,6.5,1.3,7.9c1.4,3.9,1.6,2.6,3.6,0.9c3.9-3.5,1.5-1,0,2c-1.4,2.6-0.9,4.1,0.3,6.6c0.4,0.8,1.2,3.1,1.8,3.6
			c1.7,1.3,3.2-0.5,5.5-1c7.4-1.6,13.1-1.7,19.7-6.6c-7.5,10.5,4.8,21.6,5.5,32c1.2-0.4,1.5-1.4,2.3-2c0.4-0.3,2.4-2,2.7-2.4
			c1.4-1.6,3-4.4,3.8-6.9c2-6.4,5-12.4,2-19.3c-2.8-6.4-7.4-8.5-3.2-15.8c4.6-8.1,8.6-16.3,11.2-25.3c0.6,3.3,2.1,6.4,4.5,8.7
			c1.6,1.5,8.7,6.3,11,4.1c2.1-2-5.1-2.7-5.7-3C663.1,1428.4,660.3,1425.3,659.4,1421.9C657.7,1416.6,660.6,1426.5,659.4,1421.9z
			 M647.9,1413.2c-0.6,0.9-4.8,0.3-6.1,1.3c-1.3,1-3.2,7.2-5.4,7c0.7,0.1,3.2-6.6,4.6-7.3c-3.2,0.5-7.1,0.8-9.4,3.2
			c-1.1,1.1-2.4,6.3-4.5,6c0.8,0.1,2.6-5.8,3.4-6.5c-0.3,0.1-8.3,4.7-7.7,5.2c-1.6-1.1,8.3-6.5,9-6.8c2.7-1,5.5-1.6,8.3-2
			C640.6,1413.1,647.8,1413.3,647.9,1413.2C647.8,1413.2,647.9,1413.1,647.9,1413.2z M583.7,1414.8c0.2-0.1-2.7-3.7-2.8-3.8
			c-0.5-0.4-6.7-1.6-6.3-1.9c0.3-0.4,5.6,0.6,6.4,1.2c-1.7-2.7-2.9-4.7-5.9-5.7c-0.1,0-5.2-0.7-4.5-1.4c0,0,5,0.3,5.4,0.6
			c-0.4-0.5-5.8-4.1-5.9-3.8c0.3-1.2,6.1,3.1,6.6,3.4C577.8,1404.3,584.9,1414.3,583.7,1414.8
			C583.7,1414.8,583.8,1414.7,583.7,1414.8z M643.5,1469.9c0.3-0.4-4.9-5.5-5.1-7c-0.7,3.1-1.8,6.9-0.4,9.9c0.7,1.4,4.9,4.5,3.9,6.4
			c0.4-0.7-4.5-4.6-4.8-5.5c0,0.4,1.4,9.5,2,9.1c-1.4,0.9-3-9.2-3-10c0-1.8,2.2-17.3,4-16.7c0.3,0.2-1.2,5.1-1.1,5.6
			C639.2,1463.5,644.5,1468,643.5,1469.9C643.5,1469.9,643.6,1469.7,643.5,1469.9z"/>
		<path class="st7" d="M337.9,1406.2c-3.4-2.6-9,5.3-3.3,6.8C338.3,1414,341.1,1408.6,337.9,1406.2
			C337,1405.5,338.7,1406.8,337.9,1406.2z M338.4,1409.9c-0.3,1.5-2.6,1.8-2.3,0.7C336.2,1410.4,338.8,1407.9,338.4,1409.9
			C338.3,1410.3,338.5,1409.1,338.4,1409.9z"/>
		<path class="st7" d="M350.8,1457.7c-1.1,0.3-2.2,0.5-3.3,0.8c1.1,3.2,5.6,2.5,7.4,1c1.4-1.2,4-4.8,5.1-6.5
			c2.3-3.5,0.6-3.1-1.2-5.8c-0.5-0.8-0.9-3.6-1.4-4c-1.8-1.5-3.9,1-6.1,0c-1.6-0.8-2-2.8-3.4-3.9c-0.5-0.4-3.1-1.4-3.8-1.6
			c-0.3,3,1.6,7.1,1.7,10.2c0.1,2.5,0,4.5,0.6,6.9c0.2-0.7,3.9-11.9,3.1-12.2c2.9,0.9-2.4,11.1-2.4,12.7c0.1,4.4,1.5,1.5,3.9,1.2
			c0.4-0.1,1.4-1.7,1.9-0.5C353.3,1457.1,351.2,1457.6,350.8,1457.7C350.4,1457.8,350.8,1457.7,350.8,1457.7z"/>
		<path class="st7" d="M326.9,1412.2c-3.2-2.4-7.2,5.7-1.7,5.4C327.8,1417.6,329.1,1413.9,326.9,1412.2
			C326.2,1411.7,327.5,1412.7,326.9,1412.2z M327.3,1415.1c-0.2,1.2-2,1.4-1.8,0.6C325.5,1415.5,327.6,1413.6,327.3,1415.1
			C327.2,1415.5,327.4,1414.5,327.3,1415.1z"/>
		<path class="st7" d="M350.8,1476.7c1.2,4.5,1.1,7.8,5.4,9.8c3.1,1.4,4.1,2.9,6.9,2.1c-2,0.6,5.6-4.2,4.2-2.4c2-2.6-4.4-9.1-5.8-11
			c-0.9,3.3-3.9-1.4-5.8-1.9c0.6,1.1,5.1,11.7,4.9,11.7c-1-0.2-3.7-8-4.1-8.8c-1.7-3.1-4.5-3.3-5.9-6.3
			C350.3,1472.1,352.5,1474.6,350.8,1476.7C350.9,1477.2,351,1476.5,350.8,1476.7z"/>
		<path class="st7" d="M305.7,1604.5c2.5,1.8,5.3-1.9,3.9-4.2C307.2,1596.4,302.3,1602.1,305.7,1604.5
			C306.5,1605,304.8,1603.8,305.7,1604.5z M308.3,1602.1c0.5,0-0.7-1.2,0.4-1.2c0.9,0,0.9,2.1-0.3,2.1
			C307.7,1602.8,307.7,1602.5,308.3,1602.1C308.3,1602.1,308,1602.1,308.3,1602.1z"/>
		<path class="st7" d="M486.9,1608c0.4,0.7,2.3,8.4,2.4,8.4c1.7-2.5,2.4-4.5,1.9-7.4c0-0.1-1.6-6.7-1.2-6.4
			c-3.8,0.1-7.1,5.9-9.5,7.9c1,1.6,1.1,3.3,1.4,5c2.6-1,3.3,1.4,4.7,2.6C489.2,1616.7,486.6,1608,486.9,1608z"/>
		<path class="st7" d="M544.5,1512.9c-1.3,5,5.2,5.6,4.5,9.9c2.7-2.4,3.1-4.6,3.1-8c0-3.8,0.4-6.4,1.2-10.1
			C551.1,1508.1,546.2,1509.1,544.5,1512.9C544.3,1513.6,545.9,1509.8,544.5,1512.9z"/>
		<path class="st7" d="M548.9,1523.3c1.9-0.7,4-1.1,5.8,0.2C553.6,1521.3,550.1,1520.9,548.9,1523.3
			C549.4,1523.1,548.9,1523.3,548.9,1523.3z"/>
		<path class="st7" d="M540.5,1519.2c2.3-0.6,5.3-0.5,7.2,1.1c-3.6-4.4-8.7-2-12.1,1.1C537.1,1520.4,538.8,1519.6,540.5,1519.2
			C543.5,1518.5,538.8,1519.6,540.5,1519.2z"/>
		<path class="st7" d="M543.6,1514.1c-0.1-2.8-1-3.6-4-3C541.3,1511.4,542.8,1512.5,543.6,1514.1
			C543.6,1513.6,543.4,1513.8,543.6,1514.1z"/>
		<path class="st7" d="M539.4,1517.4c0.4-0.2,0.7-0.3,1.1-0.5c-1-0.3-1.9-0.7-2.7-1.3C538,1516.5,538.4,1517.1,539.4,1517.4
			C539.8,1517.2,538.8,1517.2,539.4,1517.4z"/>
		<path class="st7" d="M536.8,1512.3c-0.4,0.1,1.6,2.8,1.8,3c1.9,1.8,4,1.2,6.2,2.2C541.7,1514.4,542.9,1511.6,536.8,1512.3
			C536.8,1512.3,539,1512,536.8,1512.3z"/>
		<path class="st7" d="M552.2,1519.6c3-3.5,3.1-5.8,0.6-9.7C552.7,1513,553.6,1516.7,552.2,1519.6
			C552.9,1518.8,552.2,1519.5,552.2,1519.6z"/>
		<path class="st7" d="M571.1,1456.9c-0.9,0.6-1.7,1.4-2.7,1.8c-2.7,1-3.9-0.6-6.5-0.4c-5.1,0.3-6.1,6.3-6.6,10.5
			c2.2-1.4,7-5.1,9.8-3.4c1.5,0.9,1,3.7,2.1,5c0-0.1,4.1-5.9,3.9-7.5c-1,0.5-8.7,0.5-8.1-0.3c0.8-1.1,5.3,0.1,6.5-0.4
			c1.6-0.6,1.2-1.3,2.7-1.7c3.2-1,3.9-0.6,6.1-3.4C576.4,1456.8,572.8,1455.8,571.1,1456.9C571,1457,572,1456.3,571.1,1456.9z"/>
		<path class="st7" d="M570.2,1467.7c-0.6,0.8-1.1,1.6-1.7,2.4c1.8-0.3,8.3-0.6,9.6-1.8c2.4-2.3-2.2-1.9-2.5-2.6
			c-0.2-0.3,4.4-0.7,2.8-0.5c-1.3-2.3-5.6-0.4-3-4.4C569.6,1461.4,573.1,1463.2,570.2,1467.7
			C569.7,1468.4,570.5,1467.3,570.2,1467.7z"/>
		<path class="st7" d="M547,1501.1c-1.6,2.5-2,5.6-2.3,8.5c2.2-4,5-8.5,9.1-10.8c3-1.7,6.5-1.8,9.7-3c1.1-0.4,2.6-0.9,3.5-1.6
			c0,0,2.6-3.1,2.3-3c-2.9-1-9,2.2-11.5,3.2C554,1495.8,549.3,1497.4,547,1501.1C545.1,1504,548.9,1498.1,547,1501.1z"/>
		<path class="st7" d="M553.2,1528c-2.2-0.2-4.3-1.6-4.8-3.9C546.3,1526.8,551.8,1528.4,553.2,1528
			C553,1528,552.3,1528.3,553.2,1528z"/>
		<path class="st7" d="M559.6,1513.5c2.7-2.9,1.7-6.7,2.8-10.2c1.1-3.4,3.4-6.3,5.4-9.3c-3.4,2.8-7.5,3.2-11.5,4.8
			c-4,1.6-7.2,5-9.8,8.4c1.3-1.2,6.7-4.9,7.8-2.5c0.4,0.9-1.3,4-0.9,5.4c0.9,3.2,3.9,3.8,1.3,7.7
			C556.5,1516.5,558.1,1515.1,559.6,1513.5C560.9,1512.2,558.6,1514.6,559.6,1513.5z"/>
		<path class="st7" d="M566,1498.5c-3,4.5-2.1,9.8-4.7,13.9c2-1.8,4.3-3.9,4.8-6.7C566.5,1503.3,565.4,1500.9,566,1498.5
			C565.1,1499.8,565.9,1499,566,1498.5z"/>
		<path class="st7" d="M580.5,1496.4c1,2.7,0.7,4.9,4.4,4.9c2.5,0,2.3-1.8,4.9-0.3c1.8,1,2,3.2,4.1,2.5c2.4-0.9,2.1-4.7,2.4-6.8
			c0.1-1.2,0.7-1.4,0.8-2.7c0-0.8-0.6-2.2-0.7-3c-0.6-2.6-1.1-5.3-1.5-7.9c-4.5-0.4-4.1,16.9-4.9,16.8c-3.9-0.3,3.5-15.2,2.5-16.1
			c-2.2-2-7.5,8.6-8.3,8c-0.8-0.6,2.3-5.1,2.7-5.5c-0.6,0.1-1-0.6-1.3-1c-1.4,2.3-2.9,5.9-5.3,7.2c-2.2,1.2-3-1.2-4.5,2.7
			C577.1,1494.8,579.8,1494.6,580.5,1496.4C580.9,1497.6,579.8,1494.6,580.5,1496.4z"/>
		<path class="st7" d="M554.5,1527c0.4,0,0.7,0,1.1-0.1c-0.4-1.8-5.2-5.9-6.7-3.4C547.2,1526.1,553.2,1527,554.5,1527
			C554.8,1527,553.9,1527,554.5,1527z"/>
		<path class="st7" d="M570.6,1516.4c0.5,0.3,0.9,0.7,1.4,1c-3.8-6.6-9.6-4.2-14.4-0.8C561.5,1514.7,566.7,1513.9,570.6,1516.4
			C571.2,1516.7,568.8,1515.3,570.6,1516.4z"/>
		<path class="st7" d="M549.1,1529.6c0.5,0,1.1-0.1,1.6-0.1c-2,0-2.6-2.5-2.7-4.1C547.9,1526.5,547.3,1529.4,549.1,1529.6
			C549.7,1529.8,547.5,1529.5,549.1,1529.6z"/>
		<path class="st7" d="M543.4,1519.5c0.8,0,1.5,0,2.3,0c-4.7-1.2-9.5,1.8-12.4,5.3C535.9,1522.6,539.9,1520.1,543.4,1519.5
			C544.1,1519.5,541.4,1519.8,543.4,1519.5z"/>
		<path class="st7" d="M563.9,1481.9c-0.9,2.2,3.2,5.5,5,5.1c0.5-0.1,0.4-1.2,0.6-1.3c0.3-0.2,2-2.5,2.7-3c3-2.1,6.6-2.2,5.4-6.6
			c-1.2,0.5-11.6,7.5-12,7.1c-1-1,8.2-5.8,8.8-6.2c1.9-1,2.2-1.1,2.6-2.3c0.3-0.7-0.5-2.1-0.1-3.1c0.2-0.6,2.1-0.5,2.6-0.6
			c-1.6-3.8-14.7,0.8-17.9,1.9c-2.4,0.8-8.1,3-4.2,5.5C559.5,1479.6,566.1,1476.5,563.9,1481.9
			C563.7,1482.3,563.9,1481.8,563.9,1481.9z"/>
		<path class="st7" d="M549,1488.7c-3.4,2.8-2.2,9.3-3,13.1c0.7-1.5,2.5-2.7,3.1-4c0.5-1.3,0.1-2.7,0.2-4
			C549.4,1492.9,550.6,1488.2,549,1488.7C548.7,1489.1,551.4,1488,549,1488.7z"/>
		<path class="st7" d="M546.1,1509.4c-0.2,0.3-0.4,0.6-0.5,0.9c2.2-2.2,4.7-4.1,7.2-5.8C550.2,1504.6,547.6,1507.4,546.1,1509.4
			C545.9,1509.6,547.5,1507.6,546.1,1509.4z"/>
		<path class="st7" d="M536,1511.3c2.1-0.9,6.7-3,7.9,0c0.7-2.1-9.5-16.8-11.8-17.3c-4.2-0.9-0.3,2.7,0.7,4.7
			c2.3,4.7,0.4,9.6,3.1,14.1C535.5,1512,535.9,1512,536,1511.3z"/>
		<path class="st7" d="M573.4,1492.3c-0.4,1.4,0.3,2.2,1.2,3.4c2-3.8,0.6-2.5,3.9-4.6c0.1-0.1,1.3,0.5,1.8,0.2
			c1.1-0.6,2.9-3.6,3.4-4.8c1.2-3.2,1.4-2.5-1.6-2.8c-5.2-0.6-3.5,0.8-3.6-4.5c-1.6,2.1-8.3,4.3-8.4,6.5
			C569.8,1487.9,575.4,1489.1,573.4,1492.3z"/>
		<path class="st7" d="M561,1535.2c1.4-6.7,2.5-10.1-4.6-12.1C560.4,1526.9,560.1,1530.2,561,1535.2
			C561.4,1533.2,560.9,1534.4,561,1535.2z"/>
		<path class="st7" d="M586.2,1568.6c0.4,1.6,6.1,4.7,7.4,5c2.4,0.6,2.7,1.2,2.8-2c0.1-1.7-1.9-3.6-0.4-5.3c1.3-1.5,4.1,0,5.7-0.1
			c-1.9-1.4-2.9-2.6-4-4.5c-0.9-1.5-1.4-4.6-3.1-5.4c-2.4-1.1-1.5-0.1-3.1,1c-2.6,1.8-1.9,2.3-4.9,3.2c-2.4,0.7-3-0.7-5.6,1.4
			c1.6,0.8,3.7,0.5,4.9,2C587.2,1565.7,585.9,1567.2,586.2,1568.6C586.3,1568.7,586.2,1568.6,586.2,1568.6z"/>
		<path class="st7" d="M557,1519.1c-2.2-1.1-3.7,0.8-5.1,2c3.1-0.7,5,2.9,8.3,0.4C559.5,1520.6,557.9,1519.5,557,1519.1
			C556,1518.5,558,1519.6,557,1519.1z"/>
		<path class="st7" d="M547,1527.1C547.2,1526.5,546.6,1527.5,547,1527.1C547.1,1527.1,547,1527.2,547,1527.1z"/>
		<path class="st7" d="M547.7,1524.9c-1.9,1.1-3.1-0.4-4.9,0.1c-2.4,0.6-1.3,0.6-3.3,1.6c-1.3,0.7-1.6,1.2-3,1.7
			c-1.2,0.4-2.4-0.2-3.8,0.6C537.5,1528.7,545,1530.8,547.7,1524.9C546.4,1525.6,547.6,1525,547.7,1524.9z"/>
		<path class="st7" d="M612,1580.5c-0.5-3.4-2-6.5-1.6-10.1c0.5-4.9,1.8-6.7-4.1-4.4c-2.8,1.1-4.9,0.2-7.5,0.8
			c-3.6,0.9-1.4,0.3-1.5,4.4c0,2.2-1,2.7-1.8,4.6c-1.1,2.5-1.2-0.5-0.5,2.8c0.3,1.4,3,4.3,4.2,5c1.9,1.2,1.4,2.1,3.5,0.7
			c0.9-0.7,0.7-2.4,1.7-2.9c1.4-0.8,4,0.4,5.5,0.9c-0.6-3.4-2.3-4.5-5.1-6.4c-0.6-0.4-7.4-4.4-5.5-5.5c0.6-0.3,12.7,9.8,12.7,10.8
			C611.9,1581.4,612.1,1580.2,612,1580.5z"/>
		<path class="st7" d="M592.7,1454.9c0.8,0.2,9.5,3.9,9.6,3.6c-1.4-3.5-2.7-5.9-6.3-7.2c-0.3-0.1-7.3-3.2-7.1-3.2
			c-1.8,2.8-0.3,6.4,0.6,9c1,2.9,0.6,3.7,0.7,6c2.3,0.2,4,1.2,6.1,2.1c1.1-4.1,8-0.8,5.5-5.1c-0.9-1.6-3.5-2.1-5-2.7
			C596.1,1457.1,591.4,1454.6,592.7,1454.9C592.8,1454.9,592.4,1454.8,592.7,1454.9z"/>
		<path class="st7" d="M601.8,1466.7c1.2-0.4,2.4-0.8,3.6-1.3c-1.6-3.4-6.8-2.4-8.4,0.1c-1.6,2.5-3.4,4.9-4.7,7.3
			c-2.1,4-0.5,3.9,1.9,6.4c0.8,0.9,1.2,3.4,2,4.1c2,1.7,3.6-0.9,6-0.6c2.9,0.3,2.3,2.7,4.3,4.1c0.2,0.2,4.6,1.2,5.1,1.3
			c0-3.2-2.6-7.7-3.1-11.1c-0.4-2.7-0.6-5-1.5-7.5c-0.2,0.9-2.9,13.6-2,13.9c-3.3-0.6,1.2-12.2,1-14.1c-0.3-4-1.3-2.6-4-1.4
			c-0.6,0.3-1.7,2.1-2.4,1.3C598.7,1468,601.4,1466.8,601.8,1466.7C602.3,1466.5,601.7,1466.7,601.8,1466.7z"/>
		<path class="st7" d="M590.8,1474.6c0.2-0.5,0.3-1,0.5-1.5c-1.6,0.2-9.6,8.4-9.7,8.2c-0.6-1.1,7.8-8.8,8.9-9.9
			c-1.2-0.4-3.3,0.6-4.7,0.8c-2.2,0.3-7.7-1.7-8.6,0.7c-0.2,0.6,1.8,4.5,2,5.5c0.3,2.3-1.6,4.2,0.7,5c1.2,0.4,2.3-0.9,3.4-0.7
			c1,0.2,1.4,0.9,2.3,1.2c2.5,0.8-0.6,1.8,2.9,0.8c1-0.3,3-1.9,3.6-2.9c0.3-0.3,0.6-0.7,0.9-1.1c1.1-0.8,0.9-1.6-0.6-2.1
			C591.8,1476,589.4,1479.5,590.8,1474.6C590.8,1474.4,590.7,1474.8,590.8,1474.6z"/>
		<path class="st7" d="M632.2,1569.1c-1.3-2.5-8.5-7.9-10.3-6.7c-1,0.7-0.9,3.4-2.4,4.4c-0.8,0.6-2.2,0.6-3.1,0.8
			c-1.7,0.4-3.5,0.2-4.6,1.7c-1.4,1.9,0.8,17.4,4.4,17.5c4.5,0.2-1.9-9.8,0.4-11c0.5-0.2,0.9,10.3,3.4,8.8c1.5-0.9,4-16,5.9-14.3
			c0.4,0.3-1.9,8.5-2,9.6c2,0.3,10.5-4.4,11-3.7c-1.2-0.9-3.2-0.1-4.3-1C627.3,1572.7,632.6,1571.7,632.2,1569.1
			C631.6,1568.1,632.2,1569.3,632.2,1569.1z"/>
		<path class="st7" d="M544.9,1505.3C544.9,1505.3,544.9,1505.3,544.9,1505.3C544.9,1505.3,544.9,1505.3,544.9,1505.3z"/>
		<path class="st7" d="M585.5,1457.4c-3.3,1.1-2.5-3.3-6.1-0.6c-0.8,0.7-2.3,2.7-2.8,3.7c-2,4.2,0.7,1.6,2.8,5.2
			c0.7,1.3,0.1,3.8,1,4.9c1.8,2.1,12.5,0.8,14.2-1.6c3-4.3-7.5,0-8.1-1.4c0.1,0.2,7.3-1.3,7.2-2.3c-0.2-1.8-13-3.3-11.4-5.3
			c0.3-0.3,7,1.7,7.6,1.8c0.3-1.5-3.1-8.6-2.7-8.8C586.2,1454.1,586.9,1456.9,585.5,1457.4C584.7,1457.7,585.6,1457.4,585.5,1457.4z
			"/>
		<path class="st7" d="M542.1,1498.9c-2.5-2.3-6.5-4.3-9.8-5.1c5.8,2.6,9.8,11.7,11.7,17.3c2.1-6.2-1.1-17.4,4-22
			c-3.6,1.9-7.2,4.7-5.8,9.1c0.9,2.7,3.5,3.7,2.6,7c0,0,0,0,0,0C545.9,1503.2,543.5,1500,542.1,1498.9
			C540.5,1497.4,545.6,1501.7,542.1,1498.9z"/>
		<path class="st7" d="M586.8,1452.3c3.5-0.9-6.7-14.4-10.6-9.8C574.8,1444.1,585.4,1452.7,586.8,1452.3
			C587.1,1452.2,586.7,1452.4,586.8,1452.3z"/>
		<path class="st7" d="M517.7,1519.8c4.6,1.1,8.2,5.2,13.4,3.9c3.7-0.9,4.3-3.8,7.5-5.8c-1.9,0-1.4-2.2-2.2-2.6
			c-1.5-0.7-5.5-0.3-7.1-0.3c-4.8,0.2-7.8,3.7-12.8,4.5C517,1519.6,517.4,1519.7,517.7,1519.8
			C519.7,1520.2,517.3,1519.7,517.7,1519.8z"/>
		<path class="st7" d="M548.1,1522c-2.6-4.9-16.9,1.6-16.8,6.5c1.8-0.9,3.4-0.6,5.1-1.2c1.7-0.6,1.5-1.7,3-2.6
			C540.9,1523.9,549.4,1525,548.1,1522C547.3,1520.6,548.3,1522.6,548.1,1522z"/>
		<path class="st7" d="M599.5,1445.7c-0.9-2.1-1.5-4.5-2.4-6.5c-1.5-3.4-2.4-2.8-5.5-3.7c-1-0.3-3.6-2.2-4.4-2.2
			c-2.2-0.1-1.2,0.4-3.1,1.8c-0.4,0.3-0.9,1.3-1.3,1.7c-0.6,0.5-2.5-0.1-3,0.7c-1.8,2.7,7.1,10.1,8.1,11.3c0.6-3.8,4.5,1.1,6.6,1.4
			c-0.5-0.7-7.4-12.4-6.8-12.3c1.1,0.1,4.7,7.9,5.4,8.9c0.8,1.1,1.6,2.8,2.6,3.6c1.8,1.5,3.1,0.1,4.9,3
			C600.6,1450.7,597.9,1448.3,599.5,1445.7C599.3,1445.1,599.3,1446,599.5,1445.7z"/>
		<path class="st7" d="M546.7,1527.4C547.1,1526.7,544.9,1529,546.7,1527.4C546.8,1527.3,546.5,1527.6,546.7,1527.4z"/>
		<path class="st7" d="M525.5,1514.7c2.6-0.9,6-0.1,8.8,0.2c-2.5-0.8-7.2-1.4-9.7-0.9c-2.9,0.6-4.3,2.7-6.8,4.3
			C521.3,1517.6,522.4,1516.2,525.5,1514.7C527,1514.2,524.1,1515.4,525.5,1514.7z"/>
		<path class="st7" d="M628.7,1526.1c4,2,5.6-4.6,2.5-6.8C625.4,1515.3,623.3,1525.5,628.7,1526.1C629,1526.3,628,1526,628.7,1526.1
			z M630.2,1523.2c0.7-0.2,0.4,0.8,0.6,0.9c0.1-0.3,1.6-2.2,1.7-2.1c1,0.4-0.6,2.5-1,2.8C629.8,1526.2,628.5,1523.6,630.2,1523.2
			C630.4,1523.2,629.3,1523.4,630.2,1523.2z"/>
		<path class="st7" d="M473.7,1527.6c0.5,0.9,1.3,3.7,2.1,4.3c-0.6-2.9-0.6-6.3,1.7-8.5C475.1,1524,474.3,1525.3,473.7,1527.6
			C474.6,1529.3,474,1526.4,473.7,1527.6z"/>
		<path class="st7" d="M478.4,1534.5c-0.6-0.4-0.6,3.3-0.9,4.7c-0.5,2.5-1.5,4-0.5,6.4c1,2.2,3.1,1.8,3.4,4.7c0.3,2.5-1.4,4.3-0.3,7
			C481.1,1549.4,485.6,1541.2,478.4,1534.5C478.2,1534.3,480.5,1536.4,478.4,1534.5z"/>
		<path class="st7" d="M440.9,1412c2.6,2.3,4.8,15.8,3.5,20.6c-1.1,4.1-3.5,7.7-4.5,11.9c-0.4,1.5-0.9,3.3-0.7,4.8
			c0.1,0.5,1.5,3.4,1.5,3.5c2.4-1.7,3-6.3,3.8-8.9c1.3-4,2.7-8.1,3.6-12.3C449.7,1423.1,447,1417.9,440.9,1412
			C440.8,1411.9,442.9,1413.9,440.9,1412z"/>
		<path class="st7" d="M475.8,1514C476,1514.4,475.9,1514.1,475.8,1514C475.8,1514.1,475.9,1514.1,475.8,1514z"/>
		<path class="st7" d="M453.8,1502.2c-3.6-0.4-7.3-0.2-10.7-1.6c2.9,2.7,6,5.2,9.7,6.5c3.4,1.2,6.9,1.3,9.7,3.8
			C460.5,1507.7,457.8,1503.2,453.8,1502.2C451.3,1501.9,456.3,1502.8,453.8,1502.2z"/>
		<path class="st7" d="M457.1,1509.3c-8.7-1.7-13.9-6.6-20.1-12.5c3.5,6,2.9,12.4,4.4,18.9c1.4,6,5.8,11.5,10,15.8
			c-2-3-6.5-13.2-0.2-11.3c1.3,0.4,2.1,2,3.6,2.2c2.1,0.3,2.1-0.6,3.9-1.2c4.1-1.5,6.7-2.8,10.5,0.7
			C466.5,1517,463.2,1510.3,457.1,1509.3C454.2,1508.8,460.1,1509.8,457.1,1509.3z"/>
		<path class="st7" d="M476.1,1515.6c-0.1-0.3-0.2-0.7-0.3-1c-5.5,3.8-5.7,7.1-2.5,12.3C472.9,1522.5,477.4,1520.5,476.1,1515.6
			C476,1515.2,476.3,1516.5,476.1,1515.6z"/>
		<path class="st7" d="M481,1535.8c0.3,0.4,0.6,0.9,1,1.3C481.8,1536.6,481.5,1536.1,481,1535.8
			C481.4,1536.2,481.1,1535.9,481,1535.8z"/>
		<path class="st7" d="M481,1535.5C480.1,1535.2,481.5,1536.3,481,1535.5C480.9,1535.5,481.1,1535.6,481,1535.5z"/>
		<path class="st7" d="M485.2,1533.1c0.3-0.8,0.4-1.6,0.2-2.5c-0.5,3-4.4,3.3-6.8,3C480.3,1534.2,484.5,1535.8,485.2,1533.1
			C485.6,1532.3,484.6,1535.4,485.2,1533.1z"/>
		<path class="st7" d="M478.4,1524.4c-2.4,1.7-4.5,8.5-0.3,7.7c3.9-0.8,4.4-6.2,4.5-9.1C481.2,1523,479.5,1523.5,478.4,1524.4
			C477.3,1525.2,479.5,1523.6,478.4,1524.4z"/>
		<path class="st7" d="M483.5,1527.4c-0.6,2.9-3.8,5.1-6.7,5.3c0.5,0.5,4.1-0.1,4.8-0.6c2.5-1.5,2.5-2.4,2.1-5.5
			C483.7,1526.9,483.6,1527.2,483.5,1527.4C483.1,1529.3,483.6,1527.2,483.5,1527.4z"/>
		<path class="st7" d="M464.3,1508.3c0.4,3.4,2.2,6,3.8,9c-2.2-7.2-1.6-16,4.6-21.1C468,1498,463.3,1503,464.3,1508.3
			C464.4,1509.6,463.4,1503.7,464.3,1508.3z"/>
		<path class="st7" d="M426.5,1525.4c4.7,3.7,11.5,3.5,16.9,5.6c-2.3-1.5-3.6-4.5-5.8-5.8c-2.1-1.2-4.6-0.7-6.9-1.2
			C428.9,1523.5,420.6,1521,426.5,1525.4C428.5,1526.9,425.6,1524.7,426.5,1525.4z"/>
		<path class="st7" d="M422.4,1487.2c7.4,0.8,7.3-13.2-0.5-11.1C416,1477.7,416.6,1486.6,422.4,1487.2
			C423.5,1487.3,420.8,1487.1,422.4,1487.2z M419.1,1478.3c1.3-1.1,4.9-3.2,5.4-0.1c0.3,1.9-1.6,1-2.1,1.1c-0.4,0.1,0.2-1.2,0.2-1.3
			C422,1478.4,417.9,1479.3,419.1,1478.3C419.7,1477.8,418.5,1478.7,419.1,1478.3z"/>
		<path class="st7" d="M428.1,1552.7c4.5-0.7,8.2-3.9,13-4.1c5.8-0.3,10.4,2.4,16.3,0.1c-4.5,1.2-5-11.3-0.5-12.3
			c-2.3-1.2-12.7,4.8-14.8,5.7C439.9,1543,424.9,1548.9,428.1,1552.7C428.1,1552.7,428,1552.5,428.1,1552.7z"/>
		<path class="st7" d="M413.3,1493.5c2.9,3.4,7-2,5-5.2C414.6,1482.3,408.6,1490.8,413.3,1493.5
			C413.6,1493.8,412.7,1493.1,413.3,1493.5z M415.8,1491.4c0.7,0.1,0.1,0.9,0.2,1.1c0.2-0.2,2.3-1.4,2.4-1.3
			c0.8,0.8-1.8,2.2-2.2,2.3C414.4,1494.1,414.1,1491.1,415.8,1491.4C416,1491.5,414.9,1491.3,415.8,1491.4z"/>
		<path class="st7" d="M453.1,1428.8c2.2,0.5,6.1,7.8,6.3,3.1c0.2-4.7-9-9.6-11.6-12.6C449.9,1423,448.8,1426.4,453.1,1428.8
			C456.1,1429.4,451.3,1427.7,453.1,1428.8z"/>
		<path class="st7" d="M462.8,1543.7c1.9-2.1,1.8-4.8,3.3-7.2c-2.3,1.7-5,0.8-7.2,3.1c-1.9,2-2.3,4.9-2.3,7.6
			C459,1546.8,461.2,1545.6,462.8,1543.7C463.4,1543,462,1544.7,462.8,1543.7z"/>
		<path class="st7" d="M413,1473.5c5.3-1.3,6.6-9.6,0.1-9.4C407,1464.3,407.3,1474.9,413,1473.5C414.8,1473,412,1473.7,413,1473.5z
			 M412.1,1464.6c3.1,0,3.4,0.8,3.4,3.2c0-0.2-1.4,0-0.9-1.5C414,1466.2,410.7,1464.7,412.1,1464.6
			C412.8,1464.6,411.5,1464.6,412.1,1464.6z"/>
		<path class="st7" d="M468.8,1408.5c0.1-0.6-10.5-1.8-11.9-2.3c-4.8-2-7.4-6.2-13.2-6.8c4,0.9-0.6,11-4.7,10
			c1.3,1.8,12.1,1.4,14,1.5C455.3,1411,469.2,1412.5,468.8,1408.5C468.9,1408.4,468.9,1408.9,468.8,1408.5z"/>
		<path class="st7" d="M461.6,1546.4c2.7-0.1,3.2-1.4,2.6-3.7C463.6,1544,462.7,1545.5,461.6,1546.4
			C461.8,1546.4,462.4,1545.7,461.6,1546.4z"/>
		<path class="st7" d="M401.6,1400c-4.1-1.8-7.4-2.2-11.4,0.6c6.3-0.8,10.8,3.3,16.4,4.2C405.3,1403.3,402.7,1401.6,401.6,1400
			C400.3,1399.4,402.2,1400.9,401.6,1400z"/>
		<path class="st7" d="M403.3,1409.9c2.6,2.8,8.2,3.4,11.8,3.3c-1.1-1.4-2.8-2.8-3.8-3.8c-3.6-3.6-7.3-4.5-12.1-6.2
			c-1.4-0.5-15.1-3.8-11.8,1.9c0.7,1.2,6.3,0.7,7.5,0.9C398,1406.5,401.2,1407.5,403.3,1409.9
			C405.5,1412.2,400.8,1407.1,403.3,1409.9z"/>
		<path class="st7" d="M450.2,1386.8c-1.1,3.6-4.7,6.7-7.2,9.3c2.6-2,11.4-9.5,7.2-11.9C450.2,1385.1,450.2,1385.9,450.2,1386.8
			C449.6,1388.8,450.4,1385.9,450.2,1386.8z"/>
		<path class="st7" d="M418.5,1411.5c2.5,0.5,3.7-2,3.8-3.8C421,1409,419.7,1410.3,418.5,1411.5z"/>
		<path class="st7" d="M424.5,1411.8c2.1,2.9,5.8,4.4,8.7,6.4c2.7,1.9,3.7,4.2,5.7,6.6c-2.1-5.5,2.3-16.9-5.8-18.6
			c-2.3-0.5-3.9,0.9-6.2,0.9c-0.7,0-2.4-0.8-2.9-0.5C422.4,1407.8,422.9,1409,424.5,1411.8C426,1413.9,423.6,1410.2,424.5,1411.8z"
			/>
		<path class="st7" d="M423.9,1412.2c0.1,0.1,1.1,4.7,2.5,6c1.9,1.8,4.8,1.8,7.2,2C430.5,1417.7,426.1,1415.7,423.9,1412.2
			C423.8,1412,425.5,1414.7,423.9,1412.2z"/>
		<path class="st7" d="M421.9,1428.7c1.1-2.9,0.7-5.7,0.7-8.7c-1.2,6.7-5.2,13.4-12.3,15C414.7,1435.5,420.5,1433.4,421.9,1428.7
			C422.3,1427.7,420.7,1432.8,421.9,1428.7z"/>
		<path class="st7" d="M424.3,1424.7c1,5.2,5.4,6.7,8.4,10.5c3.1,4,4.5,9.1,6.1,13.8c-0.3-5.7,2.2-10.4,3.8-15.7
			c1.7-5.8,0.7-12.1-1.1-17.8c0.4,3.1-0.1,12.4-4.1,9.6c-1.1-0.8-1.1-2.9-2.3-3.7c-1.8-1.2-1.4-0.3-3.6-0.6
			c-3.9-0.5-6.6-0.7-8.1-4.8C423.5,1418.9,423.8,1421.8,424.3,1424.7C424.8,1427.1,424,1422.7,424.3,1424.7z"/>
		<path class="st7" d="M417.3,1413C418.3,1412.4,416.3,1413.2,417.3,1413C417.4,1412.9,417.2,1413,417.3,1413z"/>
		<path class="st7" d="M427.7,1437.9c2.7,1.8,5.8,3.1,7.8,5.7c-1.2-3.4-2.7-6.5-5.1-9.2c-2.2-2.4-4.9-3.8-6.2-7
			C424.6,1430.8,425,1435.5,427.7,1437.9C429.6,1439.2,426,1436.4,427.7,1437.9z"/>
		<path class="st7" d="M430.8,1402.3c-0.5,0.9-1.2,1.7-1.9,2.4c2.4-2,4-5.1,4.6-8.2C431.5,1397.9,431.9,1400.2,430.8,1402.3
			C430.3,1403.1,431.6,1400.8,430.8,1402.3z"/>
		<path class="st7" d="M416.3,1415.8c-0.6,1-0.9,2.1-1,3.3c6-0.9,7.4-3.2,7-8.7C421.1,1413.3,417.6,1412.9,416.3,1415.8
			C415.9,1416.5,417,1414.3,416.3,1415.8z"/>
		<path class="st7" d="M483.5,1552.7c-0.2-0.4-0.4-0.7-0.7-1.1c-0.6,1.7-2.1,3.9-2.3,5.7c-0.1,0.9,0.5,2.2-0.2,3
			c6.2,1.3,11.5,6.6,13.3,12.7C496.2,1568.7,485.7,1556.5,483.5,1552.7C483.3,1552.3,484.2,1553.8,483.5,1552.7z"/>
		<path class="st7" d="M408.3,1434.6c7.3,2.1,12.7-12.1,13.8-17c-1.2,1.4-9.3,5.3-8.3,0.7C413.1,1419.6,405.2,1434.5,408.3,1434.6
			C408.7,1434.7,407.4,1434.5,408.3,1434.6z"/>
		<path class="st7" d="M415,1419.3C414.9,1419.4,414.9,1419.6,415,1419.3C415,1419.3,415,1419.4,415,1419.3z"/>
		<path class="st7" d="M468.4,1601.7c0.6,0.3,2.1,3.2,2.9,3.2c3.2-0.2-0.1-1.8,0.6-2.9c0.2-0.3,2.5,2.5,1.6,1.7c0.9-2-2.1-4,1.5-4.1
			c-3-3.5-4.7-0.1-9.4-0.2C466.4,1600.1,467.4,1601.2,468.4,1601.7C468.8,1601.9,467.7,1601.3,468.4,1601.7z"/>
		<path class="st7" d="M470.6,1546.9c-1-3.8-2.4-7.2-1.1-11.1c-2.9,6.7,0.3,14.5,4.8,19.6C472.7,1552.8,471.6,1549.8,470.6,1546.9
			C470,1544.6,471.7,1550.3,470.6,1546.9z"/>
		<path class="st7" d="M486.4,1603.7c2.3-1.3,5.6-13.7,0.9-12.6C485,1591.6,486.4,1602.9,486.4,1603.7
			C486.7,1603.5,486.4,1603.5,486.4,1603.7z"/>
		<path class="st7" d="M492.7,1590.9c1,0.7,1,0.4,1.7,1.2c-1.4-3.5-3.6-0.8-4.1-1.9c-0.9-1.7,2.9-2.4,3.7-2.2
			c-0.3-1.7-2.1-0.9-3.2-1.5c-2.3-1.1-3.8-2.9-6-4.2c-3.5-2-5.1-2.4-8-0.1c-0.5,0.4-0.1,1.4-0.9,1.8c-0.6,0.3-2.4,0.1-2.7,0.4
			c-1.5,1.5-0.1,3.2,0.8,5.3c1.6,4.1,4.1,8.3,7.7,10.2c-0.2-1.1-2.6-13.5-1.2-13.5c1.2,0,0.1,15.4,2.9,15.5c0.8,0,0.1-6.2,0.8-6.2
			c1.5,0-0.4,7.1,0.2,7.5c4.6-2-2.1-18,6-10.2C490.6,1591.9,491.4,1591.1,492.7,1590.9z"/>
		<path class="st7" d="M495.1,1592c0.6,1.5,1.5,0.8,3.3,0.7c0,0-6.3-7.9-7.4-3C493.1,1588.6,494.1,1589.8,495.1,1592z"/>
		<path class="st7" d="M486.4,1564.9c-3.2-3.7-8.6-3.8-12-7.3c1.4,2.3,0.1,6,1.1,7.7c0.9,1.5,6.1,2.2,7.3,2.5
			c1.2,0.3,11.4,4.9,10.9,5.3C491.9,1570,489,1567.2,486.4,1564.9C484.5,1562.8,490,1568.1,486.4,1564.9z"/>
		<path class="st7" d="M455.6,1533.6c-2.7-3.8-5-7.9-6.9-12.1C448.4,1525.7,452.5,1531.1,455.6,1533.6
			C454.9,1532.6,455.2,1533.3,455.6,1533.6z"/>
		<path class="st7" d="M444.5,1533C444.6,1533,444.4,1533,444.5,1533L444.5,1533z"/>
		<path class="st7" d="M432.8,1481.3c2.2-0.5,4.3-2.9,2.3-5C431.3,1472.2,428.1,1482.5,432.8,1481.3
			C433,1481.3,431.9,1481.5,432.8,1481.3z M433.3,1479.3c0,0,1.7-1.2,1.5-1.2C436.8,1478.8,432.8,1481,433.3,1479.3z"/>
		<path class="st7" d="M469.9,1551c-2.6-5.2-3.8-13.9,1.2-18.2C463.7,1537.3,466,1545.3,469.9,1551
			C468.6,1548.5,468.3,1548.7,469.9,1551z"/>
		<path class="st7" d="M476,1538.7c0.8-2.7,0.4-7.3-3.6-5.2c-2.5,1.4-2.5,6-2.3,8.3c0.5,4.4,3.2,16.6,9,17.4
			c-0.5-1.7-1.1-2.9-1.2-4.7c-0.1-1.7,1.2-3.4,0.7-5c-0.6-1.7-2.9-2.2-3.6-4.1C474.2,1543.1,475.4,1540.8,476,1538.7
			C476.4,1537.3,475.6,1540.2,476,1538.7z"/>
		<path class="st7" d="M387.3,1640.3c0.4,4.1,6,5.8,7.5,1.6c1.5-4.1-4.6-7.9-7-4c0.2-4.8-4.7-7.8-8.2-5c-1.2,0.9-2.1,1.7-2.4,3.3
			c-0.6,2.8,1,2.8,2.1,4.7c0.2,0.4,1.2,0.9,1.4,1.5c0.3,0.8-0.8,0.9-0.6,2c0.3,2,0.7,4.1,2.9,5c5.3,2.3,7.5-5.7,3.1-7.5
			C386.5,1641.4,386.9,1640.9,387.3,1640.3C387.4,1641.4,387.1,1640.9,387.3,1640.3z M392.1,1641.3c0.7-0.2,0.4,0.8,0.6,0.9
			c0.1-0.3,1.6-2.2,1.7-2.1c1,0.4-0.6,2.5-1,2.8C391.7,1644.3,390.4,1641.6,392.1,1641.3C392.2,1641.2,391.1,1641.5,392.1,1641.3z
			 M381.7,1635.9c-1,0-0.3-1.2-0.6-1.4c-0.3,0.3-2.7,2.5-2.9,2.4c-1.1-0.8,1.7-3.8,2.6-3.9C382.8,1632.7,384.1,1635.8,381.7,1635.9
			C381.4,1635.9,383,1635.8,381.7,1635.9z M386.4,1644.7c-0.3,0.2-0.5,0.4-0.8,0.5c-0.2,0-1.9-2.1-2-2.1
			C384.6,1643,387.2,1642.2,386.4,1644.7C386.3,1645,386.6,1644.1,386.4,1644.7z"/>
		<path class="st7" d="M319.2,1382.8c-1.5,1.3,0.1,4,1,5.4C319.9,1388.3,319.2,1383,319.2,1382.8z"/>
		<path class="st7" d="M350.3,1467.5c1.2,2.8,2.2,3.4,4.5,4.7c0.6,0.3,5.5,3.5,5.6,3.5c2.7-3.3,0.3-10,0.4-13.6
			c-2-0.4-3.5-1.5-5.2-2.5c-1.2,3-3.5,1.5-5.6,2c-0.6,3.1,8.3,7.4,8.2,7.6c-0.9-0.2-8.6-4.2-8.6-4.1
			C349.8,1465.8,349.9,1466.8,350.3,1467.5z"/>
		<path class="st7" d="M344.2,1449.4c0.2,1.4,0.1,3.5,1.3,4.5c-0.4-1.9-1.7-16.8-1.8-16.8c3.3-1.3,6.6,5.2,8.5,5.7
			c-0.4-2.7,0.5-7.7-0.7-10c-1.8-3.4-1.6-2-4-0.6C340.9,1435.8,343.2,1442.8,344.2,1449.4C344.4,1450.7,343.9,1447.6,344.2,1449.4z"
			/>
		<path class="st7" d="M363.8,1489.7c-0.1,0,9.7,0.6,6.6-3.8c-1,3.5-2.3,1.1-4.9,1.7c-1.5,0.4-0.8,1.1-3,2.2
			C362.9,1489.9,363.4,1489.9,363.8,1489.7C364.6,1489.5,363.4,1489.8,363.8,1489.7z"/>
		<path class="st7" d="M373.1,1487.9c1.7-1.7,5.6-1.1,7.8-1.9c0.5-0.2,5.3-2.1,5.4-2.3c0.1-0.1,0.4-3.6,0.4-3.8
			c0-0.3-0.8-1.5-0.7-1.8c0.2-0.6,0.9-2,0.9-2.3c-0.1-1.6,1.7-0.8,0.6-2.4c-0.7-1-6.5-2.4-7.6-2.7c-3.8-0.8-7.9-1.4-11.3-0.1
			c1,0.6,13.1,7.7,12.1,8.8c-0.9,1-12.8-11.1-15-8.9c-0.6,0.6,5,4.6,4.5,5.2c-1.2,1.3-5.3-5.5-6.4-5.3c-1.6,5.2,16.4,11.4,4,12.4
			c1.9,2.3,0.4,4.3-2.1,4.3c1.5,0.6,5.8-1.2,4.4-2c1.7,1,0.9,3.6-0.8,4.6C370.8,1490.4,372.2,1488.9,373.1,1487.9
			C373.7,1487.3,370.9,1490.2,373.1,1487.9z"/>
		<path class="st7" d="M635.1,1407.3c-0.2-0.1,0.1-4.6,0.1-5c-0.3-4.2-1.4-8.4-3.3-12.2c-1.8,1.6,1.9,8.3,2.4,10.8
			C634.3,1401,635.1,1407.3,635.1,1407.3C635,1407.2,634.5,1407.4,635.1,1407.3z"/>
		<path class="st7" d="M581,1603c2.9,1.2,3.2,4.2,5.4,5.7c2.3,1.6,5.1,1,7.6,0.6c4.4-0.7,17.3-2,20-6c-4,1.5-8.3,1.4-12.4,2.3
			c-1.9,0.4-8.9,4.5-10.2,3.4c-0.1-0.1,0.4-5.6,0.8-6.5c0.9-2.6,5.4-3.7,5.1-6.5c-4.2,1.2-9.6,0.8-13.5,2.8
			C583.2,1599.2,579,1602.2,581,1603C581.6,1603.3,580.6,1602.9,581,1603z"/>
		<path class="st7" d="M442.9,1637.7c-5.3-3.2-6.4,9.3,0.3,7.9C448,1644.5,445.4,1639.3,442.9,1637.7
			C441.9,1637.1,443.2,1637.9,442.9,1637.7z M443.6,1643.2c-0.1,0.3,1.7-2,1.8-2c1,0.4-0.7,2.9-1.3,3.2
			C440.6,1646.2,444,1640.5,443.6,1643.2C443.6,1643.2,443.6,1643,443.6,1643.2z"/>
		<path class="st7" d="M648.8,1567.7c-0.7-2.7,0.3-6.8-2.7-5.6c-1.7,0.7-3.1,3.7-4,5.1c-2.1,2.9-4.3,5.5-6.8,8
			c0.6,0.3,0.9,1,0.5,1.6C641.1,1577.3,645.2,1571.5,648.8,1567.7C648.4,1566,647.4,1569.2,648.8,1567.7z"/>
		<path class="st7" d="M626.9,1506.5c0.9-5.7-7.6-6.9-8.9-1.8C616.3,1511,625.8,1514,626.9,1506.5
			C627.1,1505.5,626.6,1508.3,626.9,1506.5z M622.6,1504.7c-0.7-0.5,0.4-1,0.4-1.3c-0.4,0.1-3.2,0.2-3.2,0c-0.4-1.2,3-1.4,3.5-1.2
			C625.3,1503.2,624.2,1505.9,622.6,1504.7C622.4,1504.6,623.5,1505.4,622.6,1504.7z"/>
		<path class="st7" d="M622.5,1514.3c-1-2.7-6.6,0.3-5,3.7C619.7,1522.3,624,1518.1,622.5,1514.3
			C622.2,1513.3,622.6,1514.5,622.5,1514.3z M620.3,1515.6c-0.4-0.3,0.3-0.6,0.2-0.8c-0.4,0.1-2,0.4-2.1,0
			C617,1509.8,624.7,1518.9,620.3,1515.6C620.2,1515.5,620.9,1516,620.3,1515.6z"/>
		<path class="st7" d="M458.5,1564.1c0.6,2,2.3,3.6,3,5.6c1.1,2.9,0.8,6,0.8,9c1.3-3.4,3.7-5.6,5.6-8.5c2.1-3.1,2.9-6.4,3.6-10.1
			c1.3-7.1-3.7-8.1-6.3-14.4c-0.5,3-3.3,1.2-4.3,2.4c-0.4,0.4-0.4,2.2-0.6,2.7C459,1554.3,457.6,1560.5,458.5,1564.1
			C459.1,1565.8,458.1,1562.4,458.5,1564.1z"/>
		<path class="st7" d="M332.7,1583.2c11,7.9,14.4,24,8.5,36c-3.1,6.3-8.6,9.8-14.9,12.4c-1,0.4-16,4.6-16.2,3.6
			c0.1-0.3,4.4,0.1,4.9,0.1c4.6-0.2,9.1-1.3,13.3-3.1c10.3-4.2,16.5-11.5,17.9-22.7c2.9,4.4,6.1,11,4,16.3c-0.5,1.2-3.5,5.8-4.9,5.8
			c2.8,0.1,5.9-4.6,6.6-6.7c1.9-5.9-1.6-11.8-4.1-16.9c-1.8-3.7-1.4-7.9-2.9-12.5c-2.4-7.5-7.6-13.2-14.1-17.4
			c4.3-0.4,8.6-1.5,12.2-4c0.2-0.1,5.2-5.2,4.9-5.2c1.2,1.1-13,6.8-14.1,6.9c-7.9,1.1-14.7-3.5-22.7-4c3.2-4.1,5.9-6.5,7.7-11.5
			c1.5-4.1,2.3-8.7,5.3-12.1c-1.4-0.7-4.4-0.2-5.9-0.1c-2.8,0.3,0.4-0.6-3.4,0.4c-1.1,0.3-2.4,0.7-3.4,1.2
			c-5.1,2.6-9.9,4.5-13.3,9.5c-2.6,3.8-1.4,7.4-3.3,11.4c-1.3,2.7-4.3,3.3-5.8,5.5c-1,1.6-1,2.5-1,4.9
			C301.4,1572.4,320.3,1573.2,332.7,1583.2C349,1594.9,319,1572.2,332.7,1583.2z M299,1570.8c0,0,4.5-3.2,4.5-3.1
			c1.2-1.7,0.1-7.9,2.2-8.6c-0.7,0.2-0.2,6.9-1.1,8.1c2.6-1.8,5.6-3.4,6.8-6.4c0.6-1.4-0.5-6.2,1.6-6.9c-0.7,0.2,0,6-0.4,6.9
			c0.2-0.2,5.2-7.4,4.6-7.5c1.6,0.4-4,8.2-4.5,8.8C311.6,1563.3,299.6,1572.3,299,1570.8C299,1570.8,299,1570.9,299,1570.8z"/>
		<path class="st7" d="M294.9,1492.1c2,9.2-6.9,12.7-6.9,21.2c1.9-2.4,3.5-5,5.3-7.5c2.4-3.3,3.2-5,7.5-3.7c4,1.2,6.8,5.6,11.3,5.6
			c10.5,0.2,14.9-10.2,23.7-13.1c-1.3-2-5.8-3.6-7.7-4.3c-2-0.7-3.9-0.4-5.9-0.5c-2.1-0.1-4.1-0.9-6.2-1c-3,0-7.5,1.8-9.8,3.7
			c-2.8,2.3-3.9,7.3-8.3,7.3c9.8-11.2,24.6-20.2,40.1-17c10.8,2.2,18.8,11.1,20,22.1c1.7,14.6-8.7,30.8-24.7,29.3
			c-6.3-0.6-12-3.6-14.9-9.3c-0.5-0.9-5-17.4-3.1-17.5c0.1,0.1,0.2,12.7,0.6,13.8c2.1,7.3,6.7,12.3,14.2,14.2
			c-3.4,1.6-8.2,3.2-11.8,1.3c-0.6-0.3-4.1-3.1-3.7-4.2c1.6,1.3,1.6,4.2,4.3,5.5c4.1,1.9,8.4-0.5,12.3-1.4c2.8-0.6,5.9-0.2,9.2-0.8
			c5.4-1,10-4.1,13.5-8.3c-0.2,3.1,0.2,6.4,1.7,9.1c0.2,0.4,3.1,4,3.2,3.9c-1,0.8-3.5-10.3-3.5-11c0.1-5.6,3.9-9.8,5-15.3
			c2.6,2.6,4,4.8,7.4,6.6c2.8,1.4,5.9,2.5,8.1,4.9c2.2-6-0.7-17.8-7.3-21.1c-4.3-2.2-6.7-1.8-9.2-6.6c-2.9-5.7-5.6-10.7-11.2-14.2
			c-17-10.7-38.5-0.2-50.5,13.3c0.6-5.3,5.7-11.5,8.7-15.9c2.8-4,6-7.8,9.4-11.3c7-7.1,15.5-12.6,25.9-12
			c-4.8,6.1,5.9,23.4,9.1,18.1c0.9-1.4-0.1-5.8-0.5-7.1c-0.7-2.7-0.9-2.7-2.7-1.8c-0.1,0.1-2.1,3.4-2.6,2.3
			c-0.6-1.2,1.7-2.3,2.3-3.2c1.5-2.3,1.4-3.4,0.6-6c-0.2-0.6-0.7-2.2-1.1-2.7c-2-2.6-1.4-0.8-4.5-0.4c-3.2,0.4-6.4-0.6-9.7,0.2
			c-3.2,0.7-6.4,2-9.3,3.7c7.8-8.7-2.2-19.8-1.8-29.1c-1.5,0.3-1.4,1.3-2.6,2.1c-0.2,0.1-2.9,1.3-3,1.4c-1.5,1.4-2.7,4.6-3.7,6.6
			c-2.5,5.3-5.4,10-3.5,16.2c1.6,5.2,5.7,7.8,2.2,13.4c-4.7,7.5-9.9,14.2-13.3,22.6c-0.4-5.6-3.9-10.7-9.4-12.5
			C287.3,1484.5,294.3,1488,294.9,1492.1C296,1497,294.4,1488.9,294.9,1492.1z M304.4,1501.1c0.7-0.8,4.5-0.1,5.6-0.7
			c1.5-0.8,3.6-6,5.6-5.5c-0.4-0.1-3.4,5.5-4.9,6.1c3-0.2,6.3-0.1,8.7-2c1.1-0.9,2.6-5.4,4.6-4.9c-0.7-0.2-2.7,4.8-3.7,5.5
			c0.3-0.1,7.9-3.5,7.4-3.9c1.2,1.1-7.9,5-8.5,5.1c-2.5,0.7-5.2,1-7.8,1C310.5,1501.8,304.4,1501.1,304.4,1501.1
			C304.4,1501,304.4,1501.1,304.4,1501.1z M361.9,1505.9c-1.4,0.7,6.5,6.8,7.6,6c-0.4,0.3-5-1.1-5.6-1.7c1.3,2.6,2.2,4.3,4.7,5.6
			c0.1,0,4.6,1.2,3.9,1.7c0,0-4.4-0.8-4.8-1c0.3,0.4,4.8,4.3,4.9,4c-0.5,1.2-5.4-3.6-5.8-4.1
			C365.7,1515.2,360.9,1506.2,361.9,1505.9C361.9,1505.9,361.8,1505.9,361.9,1505.9z M313.8,1450.8c-0.3,0.3,3.9,5.5,3.9,6.8
			c0.9-2.9,2.2-5.9,1.4-8.8c-0.4-1.4-4-4.4-2.9-6.1c-0.4,0.6,3.5,4.5,3.7,5.4c0-0.3-0.4-8.6-0.9-8.3c1.4-0.7,1.8,8.3,1.8,9.1
			c-0.2,1.9-3.8,15.4-5.2,14.7c-0.2-0.1,1.6-4.8,1.6-4.4C317.2,1456.8,312.6,1452.7,313.8,1450.8
			C313.9,1450.8,313.7,1451,313.8,1450.8z"/>
		<path class="st7" d="M664.9,1581.6c-8.3,7.1-12.9,17.3-13.2,28.2c-0.2,7.5,1.6,15.2,4.7,22.1c2.3,5.2,5.3,10.1,8.9,14.5
			c0.6,0.8,6.1,6.6,6.8,2.9c0.4-2.1-7.6-10.4-8.9-12.5c-2.5-4.5-4.6-9.2-5.9-14.2c-1.2-4.6-1.7-9.5-1.4-14.3
			c0.3-4.6,1.5-9.2,3.5-13.4c2.2-4.5,5.5-8.5,9.4-11.6c3.1-2.5,3.2-2.7,3.2-6.7C669.4,1577.9,667,1579.5,664.9,1581.6
			C651.8,1592.7,666.9,1579.6,664.9,1581.6z"/>
		<path class="st7" d="M660.5,1572.7c0.1-1.7-0.6-6.9-1.4-8c-0.8-1.1-4.5-3-5.5-2c5.3,0.7,1.6,3.7,3.1,7
			C657,1570.3,660.5,1573.1,660.5,1572.7C660.5,1572.3,660.5,1572.8,660.5,1572.7z"/>
		<path class="st7" d="M433.2,1613.2c-3.8-1-4.5,7.8,0.4,5.8C436.1,1617.9,435.9,1613.8,433.2,1613.2
			C432.3,1612.9,434,1613.4,433.2,1613.2z M434.7,1616.8c-0.5,0.7-1,0.7-1.4,0.1c0,0,1.1-1.7,0.9-1.7
			C434.7,1615.5,434.9,1616,434.7,1616.8C434.5,1617.1,434.8,1616.4,434.7,1616.8z"/>
		<path class="st7" d="M329,1617.3c1.8-1.3,2.9-5.3-0.4-5.8C323.8,1610.7,325.5,1619.9,329,1617.3
			C329.1,1617.2,328.3,1617.9,329,1617.3z M329.1,1614.7c0.5,0-0.7-1.2,0.4-1.2c0.9,0,0.9,2.1-0.3,2.1
			C328.5,1615.4,328.5,1615.1,329.1,1614.7C329.1,1614.7,328.8,1614.7,329.1,1614.7z"/>
		<path class="st7" d="M403.1,1636.5c-1.5-3.9-7.8,1.5-3.9,4.2C402.1,1642.6,404,1638.7,403.1,1636.5
			C402.8,1635.7,403.2,1636.8,403.1,1636.5z M402.8,1638.7c-0.5,0.7-1,0.8-1.4,0.1c0,0,1.1-1.7,0.9-1.7
			C402.9,1637.4,403.1,1638,402.8,1638.7C402.7,1639.1,402.9,1638.4,402.8,1638.7z"/>
		<path class="st7" d="M652.7,1588.5c3.5-0.8,3.9-2.9,4.4-6c0.3-1.7,0.1-3,0.9-4.5c0.2-0.5,1.2-1.1,1.3-1.6c0.9-4-1.4-2.1-3.8-5.3
			c-1.5-2,0.6-5-3.3-4.5c-3.7,0.5-9.4,8.4-11.9,10.7c4.7,0.6-1.2,5.7-1.6,8.3c0.7-0.5,15.3-9.8,15.3-8.9c-0.1,1.3-9.6,6.1-10.6,6.8
			c-1.4,1-4,2.2-4.9,3.7c-1.6,2.7,0,3.9-3.6,6.2c2.9-0.1,4.6-1.5,7-2.2c1.7-0.5,2.5,0.3,4.5-0.3
			C648.6,1590.3,650.5,1589,652.7,1588.5C654.5,1588.1,652.5,1588.5,652.7,1588.5z"/>
		<path class="st7" d="M404.6,1614.5c-0.5-2.4-2.3-2.7-4.5-2.2c-3.7,0.8-3.9,2.7-3.2,5.7C398.6,1625.7,407.7,1619.4,404.6,1614.5
			C404.5,1614.1,405.1,1615.3,404.6,1614.5z M400.9,1615.3c-0.7-0.5,0.4-1,0.4-1.3c-0.3,0.1-3.2,0.2-3.2,0c-0.4-1.2,3-1.4,3.5-1.2
			C403.6,1613.8,402.4,1616.6,400.9,1615.3C400.7,1615.2,401.7,1616,400.9,1615.3z"/>
		<path class="st7" d="M492.1,1649.6c-0.6,0.7,2.4,0.7,2.7,0.4c0.6-0.5,0.1-2.5,0.6-3.3C494.2,1647.5,493.1,1648.5,492.1,1649.6
			C492,1649.7,492.9,1648.7,492.1,1649.6z"/>
		<path class="st7" d="M574.6,1596.1c3-0.7,6.6,1.8,9.7,1.7c4.1-0.2,9-1.5,12.9-2.6c-0.3-1.9-3.7-4.9-1.2-6.9
			c-1.8,0.4-24.2,5.4-23.5,7.6C573.2,1596.2,573.9,1596.3,574.6,1596.1C576.3,1595.7,573.5,1596.3,574.6,1596.1z"/>
		<path class="st7" d="M429.9,1401.8c0.5-0.9,0.9-1.8,1.1-2.8c-2.1,2.1-4.3,4.3-6.4,6.4C426.8,1405.5,428.9,1403.5,429.9,1401.8
			C430.4,1400.9,428.9,1403.6,429.9,1401.8z"/>
		<path class="st7" d="M508.8,1534c0.3-0.3,0.6-0.7,1-1c-6.3,1.7-11.3-2.1-17.6-2c-3.3,0-3.6,1-5.5,2.7c-1.9,1.7-2.5,2.9-5.4,2
			c2.6,3.1,8.9,6.2,12.8,7.2C499.8,1544.3,504.9,1537.9,508.8,1534C509.2,1533.7,507.7,1535.1,508.8,1534z"/>
		<path class="st7" d="M500.3,1552.9c1.4,0.2,2.9,0.2,4.2-0.2c-5.2-6.7-15.3-10.6-22-15.7C487.1,1542.3,493,1551.5,500.3,1552.9
			C502.2,1553.3,497.3,1552.4,500.3,1552.9z"/>
		<path class="st7" d="M499.2,1543.4c-0.4,0.2-0.7,0.3-1.1,0.5c3.3,0.3,5.3-2.4,7.2-4.8C503.4,1540.7,501.4,1542.2,499.2,1543.4
			C498.9,1543.6,501.2,1542.3,499.2,1543.4z"/>
		<path class="st7" d="M498.8,1524.1c-5.6,1.1-11.8-0.2-11.7,7.6c3.5-4.4,5.8-5.4,11.1-5.4c5.4,0,9.1-0.7,11.8-6
			C506.7,1522.5,502.6,1523.3,498.8,1524.1C496.4,1524.6,503,1523.2,498.8,1524.1z"/>
		<path class="st7" d="M500.8,1531.3c0.8,0.2,1.7,0.4,2.5,0.6c-5.4-4.3-8.7-5.8-14.6-1C492.4,1529.3,497.2,1530.4,500.8,1531.3
			C501.7,1531.5,497.8,1530.6,500.8,1531.3z"/>
		<path class="st7" d="M466.2,1637.5c4.7-0.9,5,2.5,9.2-1.2c2.3-2,8.7-7.3,8.8-10.5c-1,1.4-10.2,11.4-10.4,11.3
			c-2.5-0.9-0.6-8-1.2-9.2c-1.7,2-5.2,4-6.3,6.4C466.2,1634.3,464.8,1637.8,466.2,1637.5C466.6,1637.4,465.9,1637.5,466.2,1637.5z"
			/>
		<path class="st7" d="M453.1,1613c-1.1,0.5-1.3,1.1-1.7,2.4c3.9-0.6,1.9-0.3,5.1,1c1.9,0.8,4.5,0.8,7.3,0.7
			c1.4-5.1-5.7-2.3,0.4-6.8c-2.4-0.1-5.5-3.1-7.4-2.8C454.2,1607.9,456.4,1612.9,453.1,1613z"/>
		<path class="st7" d="M456.3,1564.4c-1.6,4.7,2.8,8.4,4.6,12.3c0-5.3-2.4-7.6-3.4-12.3c-0.9-4,1.3-9.1,2.4-12.9
			C458,1555.3,457.1,1560.4,456.3,1564.4C454.8,1568.9,457.2,1559.9,456.3,1564.4z"/>
		<path class="st7" d="M504.6,1552.8c-9.6,4.8-18.3-8.9-22.4-15.3c2.3,3.8,1.9,7.1,1.5,11.3c-0.3,3.7,0,4.5,3.3,7.1
			c3.1,2.4,6.7,3.4,10.5,2.2C498.7,1557.7,505.3,1554.7,504.6,1552.8C503.8,1553.2,504.9,1553.6,504.6,1552.8z"/>
		<path class="st7" d="M460.3,1636c1.4-1.4,4.2-1.5,5.8-2.6c2.1-1.4,4.4-4.1,6-6c-0.8-1-3.8-1.2-3.1-3.3c-0.7,0.7-11.1,11.6-10,12.5
			C459.6,1636.6,460,1636.4,460.3,1636C461.1,1635.2,459.8,1636.6,460.3,1636z"/>
		<path class="st7" d="M510.9,1518.3c3-8-10-0.2-13.5,0c-6.2,0.3-16.2-3-20.9,3.7c2.1-0.3,6.2-1.3,7.6,0.2c0.9,0.9,1.9,5.9,2.4,7.2
			C488.7,1517.3,505.5,1526.5,510.9,1518.3C511,1518.1,510.7,1518.6,510.9,1518.3z"/>
		<path class="st7" d="M523.7,1539.5c5-4.1,4.8-9.8,8.2-14.4c-1.8,1.5-4.2,0.8-5.2,2.5c-0.8,1.3-0.4,3.7-0.6,5.2
			C525.9,1533.4,524.3,1539.9,523.7,1539.5C524.4,1539,523.7,1539.5,523.7,1539.5z"/>
		<path class="st7" d="M561.6,1545c5.7,1.1-0.7-6.1-1.3-8.2c-1.1-4.2,0.3-11.5-4.8-14c1.8,5.4,0.6,4.8-3.8,7.4
			C559.9,1530.3,555.6,1542.3,561.6,1545C561.8,1545,561.4,1544.9,561.6,1545z"/>
		<path class="st7" d="M516.5,1507.1c4.4-3.5,3.7-9.3,1.4-13.8c5.7,2.2,9.7,4.8,12.5,10.4c2.3,4.8-0.5,9.8,6.3,11.2
			c-0.2-1.5-1.8-3-2.4-4.4c-1-2.6-0.1-4.9-0.8-7.4c-0.9,5.2-2.2-1.7-3.5-3.8c-1.5-2.4-3.2-4.2-5.6-5.8c-3.7-2.4-8.4-3.3-11.4-6.7
			c-5.8-6.7-10-15.5-15.1-22.7c1.7,1,3.4,2,5.2,2.8c-1.9,0,2.8,7.2,4.1,8.5c2.2,2.2,4.9,3.8,7.9,4.8c3.3,1.1,6.8,1.5,10.3,1.3
			c-1.4-4.4-4.2-8.2-8.2-10.7c2.3,0.4,6.7,0,8.5,1.2c1.2,0.8,2.3,3.2,3.3,4.2c4.1,3.9,9.5,5.3,15.1,4.1c-3.2-10.6-21-9.6-29.3-11.8
			c5.5-0.5,18.4-3.2,14.7-11.6c1.4,4.7-9.7,8.6-12.7,9.7c-7.5,3-13.9-3.3-20.4-6.6c6.5-2.3,15.8-6.7,16.6-14.6
			c-3.1,1.8-6.1,3.8-8.9,5.9c-2.4,1.8-4.7,4.5-7.3,6.1c-2.6,1.6-1.2,1.6-4.6,0.5c-1-0.3-1.8-0.6-2.9-0.9c4.4-1,8.8-3.5,11.4-7.2
			c-5.4-1.2-11.1-0.7-16.2,1.3c-3,1.2-5.3,3.5-8.1,4.7c-1.8,0.8-28.1,4.3-27.6,6.1c0.1,0.4,23.5-4.2,25.1-2.7
			c1.2,1.2,1.8,5.5,2.9,7.2c2.6,3.7,6.5,6,10.9,6.8c0.6-6.8-6.3-12-11.6-14.8c5.1,0,10.5,0.6,15.3,2.4c6.7,2.4,7.8,8,11,14.1
			c-1.5-2.2-3.3,4.2-3.6,5.8c-0.5,2.9-0.2,5.7,0.7,8.4c1,2.8,2.6,5.5,4.6,7.7c3.4-4.9,3.5-10.9,1.4-16.3c1.6,2.9,5.1,6.5,6.3,9.6
			c1.5,0.4,1.7,1,0.8,1.9c-0.6,0.8-1,1.7-1.4,2.6c-0.5,1.4-0.9,2.9-0.7,4.4C510.9,1502.7,513.5,1505.5,516.5,1507.1z M507.7,1469.7
			c2.9,3,6.8,5.2,9.9,8.1C516.6,1477.4,506.6,1470.2,507.7,1469.7z M483.1,1454.9c3.6-2,8.3-4,12.4-3.2
			C495.5,1451.8,484.3,1454.7,483.1,1454.9z M504,1491c-1.2-3.9-2.3-8.9-0.7-12.8C502.9,1482.4,504,1486.8,504,1491z"/>
		<path class="st7" d="M543.4,1539.3c0.2,2.2,2.2,3.2,3.9,4.2C546,1542.4,544.2,1540.9,543.4,1539.3
			C543.4,1540,543.5,1539.5,543.4,1539.3z"/>
		<path class="st7" d="M571,1520.5c4-1.7-0.7-3.8-2.7-4.2c-4-0.9-8.3,0.2-12,1.7c1.5,0.1,7.2,3.3,4.1,4.7
			C563.9,1522.3,567.7,1521.9,571,1520.5C571.9,1520,570,1520.9,571,1520.5z"/>
		<path class="st7" d="M560.5,1521.5C560.6,1521.5,560.8,1521.4,560.5,1521.5C560.5,1521.5,560.6,1521.5,560.5,1521.5z"/>
		<path class="st7" d="M551,1545.3c0.2,0.2,0.5,0.4,0.8,0.5c-1.7-3.8,0.2-7-0.5-10.9c-0.5-3.1-4.7-4.9-4.3-7.5
			c-1.6,1.8-3.3,6.6-3.4,9.2C543.6,1540.7,547.8,1542.9,551,1545.3C551.3,1545.5,550.2,1544.7,551,1545.3z"/>
		<path class="st7" d="M538.3,1544.4c3.6-4.7,5.1-10.9,7.9-16c-2.5,2.9-5.5,5.9-7.2,9.3c-0.6,1.3-1.4,2.6-1.4,4
			C537.7,1542.1,538.2,1544.6,538.3,1544.4C541.1,1540.8,538.3,1544.4,538.3,1544.4z"/>
		<path class="st7" d="M529.1,1526c1.6-0.3,2.9-1.4,4.1-2.5c-7,4.3-12.8-3.8-19.1-3.6C518.3,1522.5,523.8,1526.7,529.1,1526
			C530.9,1525.7,524.6,1526.6,529.1,1526z"/>
		<path class="st7" d="M571.4,1586.4c1.2,0.3,1.4,1.9,2.6,2.4c1.6,0.6,4-0.2,5.7,0.2c2.7,0.6,2.5,1.3,5.4,0.8c2.5-0.4,5-1.2,7.5-1.8
			c2-0.4,5.5-0.1,4.3-2.6c-0.8-1.6-5.3-1.7-6.8-2.1c-0.9-0.2-13.9-2.6-13.9-1.9c0.3-5,19.2,3.9,20.4,2.6c2.3-2.8-11-9.2-10.3-10.2
			c0.7-1.1,6.7,2.8,7,3.2c-0.1-1,0.6-1.2,1.2-1.7c-2.5-1.5-8.2-3.5-9.3-6.5c-0.4-1.2,1-1.9,0.2-3.5c-0.8-1.6-2.2-1.6-3.7-2.1
			c1.6,7.9-5.7,4.5-7.5,9.7c-0.9,2.8,2.5,4.4,1.4,7.1C575.7,1580.3,569.5,1585.9,571.4,1586.4
			C571.7,1586.4,571.3,1586.3,571.4,1586.4z"/>
		<path class="st7" d="M524.6,1539.7c4.7-1.9,8.2-6.5,12.1-9.6c-1.2-0.2-4-1.4-5.3-0.6c-1.1,0.8-0.5,1.4-1.2,3.3
			c-1,2.7-3.8,5.5-6.4,6.8C524,1539.6,524.3,1539.6,524.6,1539.7C527.8,1538.4,524.4,1539.7,524.6,1539.7z"/>
		<path class="st7" d="M536,1543.2c0.6,0.7,1.3,1.2,2.2,1.4c-4.2-5.8,3.9-13,7.7-16.4c-3.9,3.3-8.1,0.5-11.1,4.4
			C532.2,1535.9,533.1,1540.4,536,1543.2C536.7,1543.7,535.2,1542.3,536,1543.2z"/>
		<path class="st7" d="M470.7,1525.8c1.9,1.1-1.8-2.2-2.2-2.5c-1.4-1.2-2.4-2.2-4.3-2.5c-2.5-0.4-5.1,1-7.3,2
			C461.3,1523.7,466.7,1523.4,470.7,1525.8C470.8,1525.9,467.8,1524.1,470.7,1525.8z"/>
		<path class="st7" d="M440.2,1534.4C440.1,1534.5,440.4,1534.3,440.2,1534.4L440.2,1534.4z"/>
		<path class="st7" d="M440.3,1534.3C440.2,1534.4,440.5,1534.2,440.3,1534.3L440.3,1534.3z"/>
		<path class="st7" d="M440.1,1534.4C439.9,1534.5,440.3,1534.4,440.1,1534.4L440.1,1534.4z"/>
		<path class="st7" d="M440.5,1534.3C440.5,1534.2,440.5,1534.3,440.5,1534.3L440.5,1534.3z"/>
		<path class="st7" d="M440,1534.5C440.1,1534.4,440,1534.5,440,1534.5L440,1534.5z"/>
		<path class="st7" d="M440.6,1534.2C440.4,1534.3,440.7,1534.1,440.6,1534.2L440.6,1534.2z"/>
		<path class="st7" d="M440.4,1534.3C440.6,1534.2,440.4,1534.3,440.4,1534.3L440.4,1534.3z"/>
		<path class="st7" d="M439.5,1534.8C439.4,1534.9,439.7,1534.7,439.5,1534.8L439.5,1534.8z"/>
		<path class="st7" d="M439.9,1534.6C440,1534.5,439.9,1534.6,439.9,1534.6L439.9,1534.6z"/>
		<path class="st7" d="M439.4,1534.9C439.3,1535,439.6,1534.8,439.4,1534.9L439.4,1534.9z"/>
		<path class="st7" d="M439.7,1534.7C439.7,1534.7,439.8,1534.7,439.7,1534.7L439.7,1534.7z"/>
		<path class="st7" d="M439.8,1534.7C439.6,1534.7,439.9,1534.6,439.8,1534.7L439.8,1534.7z"/>
		<path class="st7" d="M439.6,1534.8C439.7,1534.7,439.6,1534.8,439.6,1534.8L439.6,1534.8z"/>
		<path class="st7" d="M440.6,1534.2C440.7,1534.1,440.7,1534.1,440.6,1534.2L440.6,1534.2z"/>
		<path class="st7" d="M441.4,1533.8C441.5,1533.7,441.5,1533.7,441.4,1533.8L441.4,1533.8z"/>
		<path class="st7" d="M441.3,1533.8C441.4,1533.8,441.4,1533.8,441.3,1533.8L441.3,1533.8z"/>
		<path class="st7" d="M441.6,1533.7C441.7,1533.7,441.8,1533.7,441.6,1533.7L441.6,1533.7z"/>
		<path class="st7" d="M441.6,1533.7C441.6,1533.7,441.7,1533.7,441.6,1533.7L441.6,1533.7z"/>
		<path class="st7" d="M441.5,1533.7C441.7,1533.7,441.5,1533.7,441.5,1533.7L441.5,1533.7z"/>
		<path class="st7" d="M440.9,1534C441,1534,441,1534,440.9,1534L440.9,1534z"/>
		<path class="st7" d="M440.8,1534.1C440.6,1534.1,441,1534,440.8,1534.1L440.8,1534.1z"/>
		<path class="st7" d="M441.1,1533.9C441.2,1533.9,441.1,1533.9,441.1,1533.9L441.1,1533.9z"/>
		<path class="st7" d="M441.2,1533.9C441.1,1533.9,441.4,1533.8,441.2,1533.9L441.2,1533.9z"/>
		<path class="st7" d="M441,1534C441.1,1533.9,441,1534,441,1534L441,1534z"/>
		<path class="st7" d="M438.3,1535.8C437.9,1536,438.5,1535.6,438.3,1535.8L438.3,1535.8z"/>
		<path class="st7" d="M439.4,1534.9C439.4,1534.9,439.4,1534.9,439.4,1534.9L439.4,1534.9z"/>
		<path class="st7" d="M442.3,1533.4C442.5,1533.4,442.4,1533.4,442.3,1533.4L442.3,1533.4z"/>
		<path class="st7" d="M441.8,1533.6C441.9,1533.6,441.8,1533.6,441.8,1533.6L441.8,1533.6z"/>
		<path class="st7" d="M441,1534C441.2,1533.9,441,1534,441,1534L441,1534z"/>
		<path class="st7" d="M441.1,1533.9C441.3,1533.9,441.1,1533.9,441.1,1533.9L441.1,1533.9z"/>
		<path class="st7" d="M440.7,1534.1C440.8,1534.1,440.7,1534.1,440.7,1534.1L440.7,1534.1z"/>
		<path class="st7" d="M444.3,1533C444.3,1533,444.2,1533,444.3,1533L444.3,1533z"/>
		<path class="st7" d="M444.3,1533C444.4,1533,444.2,1533,444.3,1533L444.3,1533z"/>
		<path class="st7" d="M444,1533.1C444.1,1533.1,444,1533.1,444,1533.1L444,1533.1z"/>
		<polygon class="st7" points="444,1533.1 444,1533.1 444,1533.1 		"/>
		<path class="st7" d="M444.2,1533C444.3,1533,444.1,1533.1,444.2,1533L444.2,1533z"/>
		<path class="st7" d="M442.6,1533.4C442.7,1533.3,442.5,1533.4,442.6,1533.4L442.6,1533.4z"/>
		<path class="st7" d="M426.4,1406.4c6.3-0.3,8.8-6,8.6-11.4C432.6,1399,432.2,1405.1,426.4,1406.4
			C426.6,1406.3,428.9,1405.8,426.4,1406.4z"/>
		<path class="st7" d="M440.5,1534.2C440.6,1534.2,440.5,1534.2,440.5,1534.2L440.5,1534.2z"/>
		<path class="st7" d="M438.9,1535.2C439,1535.2,439,1535.2,438.9,1535.2L438.9,1535.2z"/>
		<path class="st7" d="M439.3,1535C439.4,1534.9,439.4,1534.9,439.3,1535L439.3,1535z"/>
		<path class="st7" d="M439.2,1535C439,1535.2,439.4,1534.9,439.2,1535L439.2,1535z"/>
		<path class="st7" d="M438.8,1535.3C438.9,1535.2,438.9,1535.2,438.8,1535.3L438.8,1535.3z"/>
		<path class="st7" d="M440,1534.5C440,1534.5,439.9,1534.6,440,1534.5L440,1534.5z"/>
		<path class="st7" d="M439.9,1534.6C439.9,1534.6,439.7,1534.7,439.9,1534.6L439.9,1534.6z"/>
		<path class="st7" d="M438.7,1535.4C438.6,1535.5,438.9,1535.2,438.7,1535.4L438.7,1535.4z"/>
		<path class="st7" d="M438.5,1535.6C438,1535.9,439.1,1535.1,438.5,1535.6L438.5,1535.6z"/>
		<path class="st7" d="M441.7,1533.7C441.9,1533.6,441.8,1533.7,441.7,1533.7L441.7,1533.7z"/>
		<path class="st7" d="M439,1535.2C439.1,1535.1,439.2,1535.1,439,1535.2L439,1535.2z"/>
		<path class="st7" d="M444.4,1533C444.5,1533,444.4,1533,444.4,1533L444.4,1533z"/>
		<path class="st7" d="M444.3,1533C444.3,1533,444.4,1533,444.3,1533L444.3,1533z"/>
		<path class="st7" d="M443.9,1533.1C443.8,1533.1,444,1533.1,443.9,1533.1L443.9,1533.1z"/>
		<path class="st7" d="M444.6,1533C444.7,1533,444.7,1533,444.6,1533L444.6,1533z"/>
		<path class="st7" d="M444.5,1533C444.6,1533,444.6,1533,444.5,1533L444.5,1533z"/>
		<path class="st7" d="M444.2,1533C444.3,1533,444.2,1533,444.2,1533L444.2,1533z"/>
		<path class="st7" d="M443.9,1533.1C444,1533.1,443.9,1533.1,443.9,1533.1L443.9,1533.1z"/>
		<path class="st7" d="M441.8,1533.6C441.8,1533.6,441.8,1533.6,441.8,1533.6L441.8,1533.6z"/>
		<path class="st7" d="M444.2,1533C444.2,1533,444.2,1533,444.2,1533L444.2,1533z"/>
		<path class="st7" d="M444.7,1533C444.6,1533,444.9,1533,444.7,1533L444.7,1533z"/>
		<path class="st7" d="M444.1,1533.1C444.2,1533,444.1,1533.1,444.1,1533.1L444.1,1533.1z"/>
		<path class="st7" d="M444.4,1533C444.5,1533,444.5,1533,444.4,1533L444.4,1533z"/>
		<path class="st7" d="M443.9,1400.9c-5.7-2.1-7.8,2.1-11.9,4.6c2.3-0.4,4,1.2,6.3,0.7C441,1405.6,442.5,1403.4,443.9,1400.9
			C443.7,1400.9,443.9,1400.9,443.9,1400.9z"/>
		<path class="st7" d="M439.7,1424.6c1.9-3.2,0.8-9.3-0.6-12.5C439.7,1416.2,439.9,1420.5,439.7,1424.6z"/>
		<path class="st7" d="M438.3,1406.9c-0.6,0-1.2-0.1-1.8-0.1c3.2,2.2,4.6,2,6.4-2C441.8,1406,440,1407.2,438.3,1406.9
			C437.6,1407,439.9,1407.1,438.3,1406.9z"/>
		<path class="st7" d="M439.1,1399.2c-2-1.3-2.9,0.9-3.2,2.1C436.6,1400.7,439.6,1399.5,439.1,1399.2
			C438.1,1398.5,439.2,1399.3,439.1,1399.2z"/>
		<path class="st7" d="M436.1,1393.9c0.3,1.5,0.4,3.1,0.3,4.7c1.4-1.8,3.6-0.2,4.9-0.8c1.7-0.8,3.7-4.5,4.7-6c1-1.3,6-9.5,1.8-9.6
			C445.4,1382.2,438,1392,436.1,1393.9z"/>
		<path class="st7" d="M445.1,1533C445.2,1533,445.1,1533,445.1,1533L445.1,1533z"/>
		<path class="st7" d="M411.7,1413.7c-5.4-0.7-7.2-2.6-11.9-4.8c2.7,3.1,3.3,6.6,7.8,7.9c4.9,1.4,5.8-0.8,9-3.3
			C415.3,1413.7,413.6,1413.9,411.7,1413.7C409,1413.4,413.2,1413.8,411.7,1413.7z"/>
		<path class="st7" d="M445,1533C444.9,1533,445.1,1533,445,1533L445,1533z"/>
		<path class="st7" d="M444.9,1533C444.8,1533,445,1533,444.9,1533L444.9,1533z"/>
		<path class="st7" d="M444.8,1533C444.7,1533,444.9,1533,444.8,1533L444.8,1533z"/>
		<path class="st7" d="M445,1533C445.1,1533,445.1,1533,445,1533L445,1533z"/>
		<path class="st7" d="M444.1,1533.1C444,1533.1,444.2,1533,444.1,1533.1L444.1,1533.1z"/>
		<path class="st7" d="M442.3,1533.5C442.4,1533.4,442.3,1533.5,442.3,1533.5L442.3,1533.5z"/>
		<path class="st7" d="M442.4,1533.4C442.3,1533.5,442.6,1533.4,442.4,1533.4L442.4,1533.4z"/>
		<path class="st7" d="M442.5,1533.4C442.6,1533.4,442.5,1533.4,442.5,1533.4L442.5,1533.4z"/>
		<path class="st7" d="M442.8,1533.3C442.6,1533.4,442.9,1533.3,442.8,1533.3L442.8,1533.3z"/>
		<path class="st7" d="M442.7,1533.4C442.5,1533.4,442.8,1533.3,442.7,1533.4L442.7,1533.4z"/>
		<path class="st7" d="M441.9,1533.6C442,1533.6,442,1533.6,441.9,1533.6L441.9,1533.6z"/>
		<path class="st7" d="M442.8,1533.3C442.9,1533.3,442.8,1533.3,442.8,1533.3L442.8,1533.3z"/>
		<path class="st7" d="M442.2,1533.5C442.1,1533.5,442.4,1533.4,442.2,1533.5L442.2,1533.5z"/>
		<path class="st7" d="M442,1533.6C442,1533.6,442.1,1533.5,442,1533.6L442,1533.6z"/>
		<path class="st7" d="M442,1533.6C442.1,1533.5,442,1533.5,442,1533.6L442,1533.6z"/>
		<path class="st7" d="M442.1,1533.5C442,1533.6,442.3,1533.5,442.1,1533.5L442.1,1533.5z"/>
		<path class="st7" d="M443.2,1533.2C443.2,1533.2,443.3,1533.2,443.2,1533.2L443.2,1533.2z"/>
		<path class="st7" d="M443.4,1533.2C443.5,1533.1,443.6,1533.1,443.4,1533.2L443.4,1533.2z"/>
		<path class="st7" d="M443.3,1533.2C443.4,1533.2,443.5,1533.2,443.3,1533.2L443.3,1533.2z"/>
		<path class="st7" d="M443.3,1533.2C443.4,1533.2,443.3,1533.2,443.3,1533.2L443.3,1533.2z"/>
		<path class="st7" d="M443.5,1533.1C443.6,1533.1,443.7,1533.1,443.5,1533.1L443.5,1533.1z"/>
		<path class="st7" d="M443.6,1533.1C443.7,1533.1,443.7,1533.1,443.6,1533.1L443.6,1533.1z"/>
		<path class="st7" d="M443.1,1533.2C442.9,1533.3,443.2,1533.2,443.1,1533.2L443.1,1533.2z"/>
		<path class="st7" d="M442.9,1533.3C443,1533.3,442.9,1533.3,442.9,1533.3L442.9,1533.3z"/>
		<path class="st7" d="M443.7,1533.1C443.8,1533.1,443.8,1533.1,443.7,1533.1L443.7,1533.1z"/>
		<path class="st7" d="M443,1533.3C443.1,1533.2,443,1533.3,443,1533.3L443,1533.3z"/>
		<path class="st7" d="M443.2,1533.2C443,1533.2,443.3,1533.2,443.2,1533.2L443.2,1533.2z"/>
		<path class="st7" d="M442.9,1533.3C443,1533.3,442.9,1533.3,442.9,1533.3L442.9,1533.3z"/>
	</g>
</g>
</svg>
