<?xml version="1.0" standalone="no"?><!DOCTYPE svg PUBLIC "-//W3C//DTD SVG 1.1//EN" "http://www.w3.org/Graphics/SVG/1.1/DTD/svg11.dtd"><svg width="100%" height="100%" viewBox="0 0 1228 244" version="1.1" xmlns="http://www.w3.org/2000/svg" xmlns:xlink="http://www.w3.org/1999/xlink" xml:space="preserve" style="fill-rule:evenodd;clip-rule:evenodd;stroke-linejoin:round;stroke-miterlimit:1.41421;"><g id="phone-desc" transform="matrix(0.7302,-3.02923e-27,2.01948e-27,0.727658,818.45,-83.0967)"><path d="M-1095.8,188.81c0,-0.89 -0.495,-1.385 -1.583,-1.385c-1.88,-0.099 -3.364,-0.396 -4.552,-0.792c-1.484,-0.692 -2.275,-2.473 -2.275,-5.442l0,-38.589c0,-1.089 -0.594,-1.583 -1.682,-1.385c-3.76,0.692 -7.718,1.088 -11.874,1.187c-1.089,0.099 -1.583,0.594 -1.583,1.484c0,1.089 0.494,1.583 1.583,1.583c2.276,0.099 3.859,0.297 4.65,0.594c1.584,0.594 2.375,2.375 2.375,5.541l0,29.585c0,3.167 -1.088,5.047 -3.265,5.64c-1.089,0.297 -2.375,0.495 -3.76,0.594c-1.089,0 -1.583,0.495 -1.583,1.286c0,0.99 0.494,1.485 1.583,1.485l20.383,0c1.088,0 1.583,-0.495 1.583,-1.386ZM-1107.48,120.141c-3.265,0 -4.947,1.682 -4.947,5.046c0,3.364 1.682,4.947 4.947,4.947c3.365,0 5.047,-1.583 5.047,-4.947c0,-1.385 -0.495,-2.474 -1.485,-3.562c-0.989,-0.99 -2.176,-1.484 -3.562,-1.484Z" style="fill:#00616a;fill-rule:nonzero;"/><path d="M-1074.43,131.223c0,-3.958 1.385,-6.234 4.057,-7.025c1.385,-0.297 2.968,-0.495 4.749,-0.495l3.068,0c13.654,0 20.581,5.343 20.581,16.029c0,10.588 -7.619,15.832 -22.857,15.832l-9.598,0l0,-24.341ZM-1091.35,121.823c0,0.89 0.594,1.385 1.484,1.484c3.463,0.396 5.739,0.989 6.728,1.781c1.287,0.891 1.88,2.87 1.88,6.135l0,48.484c0,3.463 -0.989,5.64 -2.968,6.531c-1.088,0.494 -2.968,0.791 -5.541,1.088c-0.989,0.099 -1.583,0.594 -1.583,1.385c0,0.99 0.594,1.485 1.583,1.485l24.44,0c0.99,0 1.484,-0.396 1.484,-1.188c0,-0.989 -0.494,-1.583 -1.484,-1.682c-3.067,-0.198 -5.145,-0.594 -6.333,-1.286c-1.88,-0.99 -2.77,-3.068 -2.77,-6.333l0,-20.383l12.467,0c18.503,0 27.706,-6.729 27.706,-20.185c0,-4.453 -1.386,-8.312 -4.255,-11.478c-4.255,-4.75 -11.577,-7.223 -21.868,-7.223l-29.387,0c-0.989,0 -1.583,0.494 -1.583,1.385Z" style="fill:#00616a;fill-rule:nonzero;"/><path d="M-976.468,188.81c0,-0.89 -0.594,-1.385 -1.583,-1.385c-1.979,-0.099 -3.562,-0.396 -4.75,-0.792c-1.484,-0.692 -2.275,-2.473 -2.275,-5.442l0,-22.164c0,-11.874 -5.443,-17.81 -16.228,-17.81c-6.827,0 -12.269,3.265 -16.524,9.597l0,-30.179c0,-1.088 -0.693,-1.583 -1.682,-1.385c-3.76,0.693 -7.718,0.99 -11.973,1.188c-0.989,0 -1.484,0.593 -1.484,1.484c0,1.088 0.495,1.583 1.583,1.583c2.276,0.099 3.859,0.297 4.75,0.594c1.484,0.692 2.275,2.473 2.275,5.442l0,51.65c0,3.167 -1.088,5.047 -3.166,5.64c-1.088,0.297 -2.375,0.495 -4.057,0.594c-0.989,0 -1.484,0.495 -1.484,1.286c0,0.99 0.495,1.485 1.484,1.485l20.779,0c0.99,0 1.583,-0.396 1.583,-1.188c0,-0.989 -0.593,-1.583 -1.583,-1.583c-2.078,-0.099 -3.562,-0.396 -4.749,-0.792c-1.583,-0.692 -2.276,-2.473 -2.276,-5.442l0,-23.846c2.869,-7.916 8.015,-11.874 15.139,-11.874c7.322,0 10.983,4.948 10.983,14.941l0,20.779c0,3.266 -1.088,5.245 -3.166,5.739c-1.188,0.297 -2.474,0.396 -3.859,0.495c-1.089,0 -1.583,0.495 -1.583,1.286c0,0.99 0.494,1.485 1.583,1.485l20.68,0c0.989,0 1.583,-0.495 1.583,-1.386Z" style="fill:#00616a;fill-rule:nonzero;"/><path d="M-948.664,144.086c4.75,0 8.51,1.781 11.478,5.64c3.167,4.057 4.75,9.499 4.75,16.524c0,5.343 -1.089,9.994 -3.266,14.051c-2.77,5.145 -7.025,7.718 -12.962,7.718c-4.65,0 -8.509,-1.781 -11.379,-5.541c-3.166,-3.958 -4.749,-9.4 -4.749,-16.327c0,-6.53 1.484,-11.873 4.354,-15.93c2.968,-4.156 6.926,-6.135 11.774,-6.135ZM-948.664,140.623c-6.431,0 -11.873,2.177 -16.227,6.53c-4.75,4.849 -7.223,11.083 -7.223,18.998c0,8.015 2.374,14.348 7.124,19.097c4.354,4.354 9.895,6.531 16.326,6.531c6.531,0 11.973,-2.177 16.426,-6.531c4.749,-4.749 7.124,-11.181 7.124,-19.295c0,-7.717 -2.375,-13.951 -7.124,-18.701c-4.354,-4.452 -9.895,-6.629 -16.426,-6.629Z" style="fill:#00616a;fill-rule:nonzero;"/><path d="M-862.085,188.81c0,-0.89 -0.593,-1.385 -1.583,-1.385c-1.781,-0.099 -3.166,-0.297 -4.155,-0.693c-1.88,-0.692 -2.87,-2.572 -2.87,-5.541l0,-22.164c0,-11.874 -5.442,-17.81 -16.227,-17.81c-7.125,0 -12.765,3.364 -16.821,10.092l0,-8.707c0,-1.089 -0.594,-1.583 -1.683,-1.385c-3.463,0.692 -7.421,1.088 -11.675,1.187c-1.089,0.099 -1.584,0.594 -1.584,1.484c0,1.089 0.495,1.583 1.584,1.583c2.275,0.099 3.859,0.297 4.749,0.594c1.583,0.594 2.375,2.375 2.375,5.541l0,29.585c0,3.167 -1.089,5.047 -3.265,5.64c-0.99,0.297 -2.276,0.495 -3.859,0.594c-1.089,0 -1.584,0.495 -1.584,1.286c0,0.99 0.495,1.485 1.584,1.485l20.68,0c0.989,0 1.583,-0.396 1.583,-1.188c0,-0.989 -0.594,-1.583 -1.583,-1.583c-1.781,-0.099 -3.266,-0.297 -4.255,-0.693c-1.781,-0.692 -2.672,-2.473 -2.672,-5.541l0,-23.846c2.87,-7.916 7.817,-11.874 15.04,-11.874c7.322,0 10.984,4.948 10.984,14.941l0,20.779c0,3.266 -1.089,5.245 -3.266,5.739c-1.088,0.198 -2.374,0.396 -3.76,0.495c-0.989,0 -1.583,0.495 -1.583,1.286c0,0.99 0.594,1.485 1.583,1.485l20.68,0c0.99,0 1.583,-0.495 1.583,-1.386Z" style="fill:#00616a;fill-rule:nonzero;"/><path d="M-850.409,161.204c0.495,-4.552 1.88,-8.213 4.057,-11.082c3.068,-3.958 6.926,-5.937 11.478,-5.937c3.859,0 7.223,1.187 9.796,3.76c3.166,3.166 4.749,7.619 4.947,13.259l-30.278,0ZM-813.402,163.183c0,-6.729 -2.276,-12.171 -6.333,-16.425c-3.859,-3.958 -8.806,-5.937 -15.04,-5.937c-6.333,0 -11.577,2.177 -15.733,6.332c-4.65,4.75 -7.124,11.181 -7.124,19.394c0,7.718 2.177,13.952 6.729,18.503c4.452,4.453 10.191,6.729 17.019,6.729c8.806,0 15.336,-3.76 19.591,-11.28c0.495,-0.891 0.297,-1.583 -0.495,-2.177l-0.197,-0.198c-0.891,-0.594 -1.584,-0.495 -2.177,0.396c-3.76,5.937 -9.005,8.905 -15.535,8.905c-4.75,0 -8.806,-1.583 -12.072,-4.947c-4.057,-3.958 -5.937,-9.301 -5.937,-15.832l0,-1.682l35.721,0c1.088,0 1.583,-0.297 1.583,-0.891l0,-0.89Z" style="fill:#00616a;fill-rule:nonzero;"/><path d="M-720.194,150.913c-1.583,-7.025 -9.004,-10.587 -16.227,-11.576c-4.255,-0.594 -8.411,-0.198 -12.467,0.296c-3.958,0.396 -7.817,1.089 -11.478,1.682c-7.421,1.188 -14.249,2.375 -20.186,2.969c-0.692,0 -1.385,0.099 -1.979,0.198c-0.296,0 -0.494,-0.198 -0.494,-0.396l-1.584,-8.806l-1.286,-6.432c-0.099,-0.594 0.495,-0.989 0.99,-0.792c4.254,1.386 8.311,3.365 13.358,4.75c2.374,0.495 4.749,1.088 7.322,0.891c6.431,-0.495 9.697,-5.047 8.806,-10.885c-0.495,-3.661 -6.333,-2.77 -5.64,0.891c0,0.495 0.099,0.989 0.198,1.484c0,0.594 0,1.781 -0.396,2.573c-1.385,3.067 -7.025,2.176 -9.598,1.682c-5.937,-1.089 -11.379,-3.562 -17.019,-6.135l-0.099,0c-0.791,-0.396 -1.682,-0.594 -2.473,-0.297c-1.683,0.495 -2.672,2.177 -2.276,3.958c1.088,3.76 2.671,12.27 2.671,12.27c0.396,1.583 0.792,3.463 1.188,5.244c0.099,0.198 -0.099,0.396 -0.297,0.396c-2.177,0.099 -4.057,0.197 -5.64,0.197c-1.88,0 -3.463,0 -5.442,-0.098l-0.099,0c-3.068,0.098 -2.87,4.749 0.198,4.749c1.979,-0.099 5.541,-0.297 5.541,-0.297l6.332,-0.495c0.198,0 0.396,0.198 0.495,0.396c2.969,13.16 5.739,26.914 8.806,41.558l0,0.099c0.891,3.958 7.224,2.573 6.234,-1.484c-3.166,-13.556 -6.135,-27.211 -9.301,-40.766c0,-0.198 0.099,-0.396 0.297,-0.495c0.594,0 1.088,-0.099 1.682,-0.198c5.937,-0.693 12.962,-1.88 20.284,-3.067c3.661,-0.693 7.421,-1.287 11.28,-1.485c3.76,-0.198 7.619,-0.099 11.28,0.792c4.552,0.989 11.874,3.958 10.786,9.895c-1.188,6.53 -9.697,8.608 -15.139,8.905c-5.64,0.396 -10.489,-0.495 -13.655,-1.385c-1.682,-0.495 -3.166,-1.188 -4.849,-1.88l-0.098,0c-1.88,-0.891 -3.365,2.078 -1.485,3.067c1.781,0.693 3.463,1.583 5.343,2.375c3.365,1.187 8.51,2.572 14.843,2.572c7.52,0 16.821,-1.88 20.482,-9.301c1.088,-2.275 1.385,-5.046 0.791,-7.619Z" style="fill:#00616a;fill-rule:nonzero;"/><path d="M-627.381,180.202c-7.322,-9.202 -17.612,-15.931 -28.991,-19.097c-0.198,-0.099 -0.297,-0.396 -0.099,-0.495c7.619,-7.619 12.467,-16.722 13.16,-27.309l0,-0.198c0.099,-1.781 -1.386,-3.562 -3.167,-3.562l-3.76,-0.099l-34.137,0c-1.088,0 -1.979,0.989 -1.979,2.078c0,1.088 0.891,2.078 1.979,2.078l33.049,0c0.693,0 1.187,0.494 1.088,1.187c-1.187,13.457 -9.795,22.956 -20.284,30.674c-6.629,4.947 -13.853,9.004 -21.175,12.764c-4.551,2.177 -9.103,4.65 -13.951,6.53c-2.177,0.891 -1.485,4.156 1.286,3.266c13.061,-5.244 26.419,-11.082 37.897,-19.295c2.078,-1.385 4.057,-2.968 5.937,-4.552c0.198,-0.198 0.495,-0.198 0.692,-0.099c10.984,3.464 20.977,10.687 27.211,20.285c2.771,3.463 7.817,-0.693 5.244,-4.156Z" style="fill:#00616a;fill-rule:nonzero;"/><path d="M-602.347,135.082c-2.771,0 -2.672,4.057 0,4.057l60.16,0c0.594,0 0.99,0.593 0.891,1.187c-3.859,11.775 -14.546,18.305 -25.529,21.867c-2.572,0.891 -5.343,0.594 -7.718,-0.593l-10.389,-5.047c-1.979,-0.989 -3.463,1.88 -1.682,2.969c5.739,3.463 11.577,6.728 16.92,10.686c3.067,2.375 6.233,4.948 8.212,8.411c1.089,1.979 1.287,3.859 1.682,6.036c0.693,4.056 7.125,3.067 6.432,-1.089c-1.385,-7.916 -6.728,-13.259 -13.358,-17.514c-0.198,-0.198 -0.099,-0.494 0.099,-0.593c6.036,-1.089 11.973,-2.87 17.118,-6.432c6.926,-4.551 12.863,-11.28 15.337,-19.69c0.495,-1.88 -0.495,-4.255 -3.068,-4.255l-65.107,0Z" style="fill:#00616a;fill-rule:nonzero;"/><path d="M-450.462,157.84c10.686,0 13.951,-7.223 14.149,-7.52c0.99,-2.87 -3.067,-4.453 -4.552,-1.781c-0.098,0.198 -2.374,4.353 -9.597,4.353l-56.203,0c-3.067,0 -3.067,4.948 0,4.948l56.203,0Z" style="fill:#00616a;fill-rule:nonzero;"/><path d="M-351.02,156.059c-13.655,0.297 -24.44,-2.474 -32.851,-9.005c-0.593,-0.494 -0.989,-1.187 -0.989,-1.979l0,-18.8c-0.297,-5.442 -3.068,-8.806 -8.51,-8.806l-2.869,0c-2.474,0 -2.375,3.76 0,3.76l2.572,0c1.485,0 2.573,1.484 2.672,3.265l0.099,66.196c0,4.156 6.036,4.255 6.036,0.198l0,-38.688c0,-0.594 0.594,-0.891 0.989,-0.594c8.51,6.135 19.295,11.082 33.049,10.686c4.156,-0.198 3.859,-6.431 -0.198,-6.233Z" style="fill:#00616a;fill-rule:nonzero;"/><path d="M-305.108,129.442c-2.672,0 -2.474,4.057 0,4.057l44.031,0c0.594,0 1.188,0.593 1.089,1.187c-0.297,5.145 -1.386,10.192 -3.661,14.842c-3.167,6.531 -7.817,12.27 -13.061,17.217c-9.302,9.004 -20.186,15.634 -31.763,21.373c-1.88,0.989 -0.494,3.958 1.485,3.067c13.061,-5.937 25.825,-12.962 36.412,-22.758c10.291,-9.697 17.316,-21.175 18.108,-35.324l0,-0.099c0.099,-1.88 -1.287,-3.562 -3.167,-3.562l-49.473,0Z" style="fill:#00616a;fill-rule:nonzero;"/><path d="M-171.232,151.111c-0.198,0 -0.297,-0.099 -0.297,-0.297l0,-14.743c0,-3.661 -5.64,-3.562 -5.64,0l0,14.743c0,0.198 -0.099,0.297 -0.297,0.297l-28.101,0c-2.276,0 -2.375,3.463 0,3.463l18.998,0c0.198,0 0.198,0.198 0.198,0.396c-0.495,15.238 -16.129,26.914 -27.409,33.939c-1.484,0.891 -0.099,3.562 1.583,2.573l0.099,-0.099c13.358,-8.015 29.784,-18.998 31.664,-36.413c0,-0.198 0.099,-0.396 0.296,-0.396l2.672,0c0.198,0 0.297,0.198 0.297,0.396l0,26.518c0,0.693 -0.693,1.089 -1.286,0.693c-1.089,-0.891 -2.276,-1.583 -3.662,-2.573c-1.583,-1.286 -3.858,1.385 -1.978,2.573l2.473,1.781c2.771,1.979 4.354,3.067 4.453,4.947l0,0.198c0,3.562 5.64,3.661 5.64,0l0,-34.137c0,-0.198 0.099,-0.396 0.297,-0.396l14.545,0c2.375,0 2.276,-3.463 0,-3.463l-14.545,0Z" style="fill:#00616a;fill-rule:nonzero;"/><path d="M-113.051,178.817c-4.354,0 -4.057,6.926 0.396,6.728c14.248,-0.89 27.309,-6.036 37.6,-16.326c9.499,-9.697 16.425,-21.472 22.857,-33.346c0.989,-1.781 -1.781,-3.463 -2.87,-1.682c-6.629,9.994 -12.962,20.383 -21.669,28.794c-5.343,5.145 -11.379,9.598 -18.306,12.368c-5.838,2.375 -11.774,3.464 -18.008,3.464ZM-119.878,130.926c-1.782,-0.891 -3.167,1.88 -1.485,2.869c3.266,2.078 6.63,4.057 9.598,6.432c2.573,2.078 4.651,4.552 7.026,6.728c1.385,1.188 3.364,0.99 4.551,-0.296c1.187,-1.386 1.089,-3.365 -0.297,-4.552c-5.64,-5.046 -12.467,-8.213 -19.393,-11.181Z" style="fill:#00616a;fill-rule:nonzero;"/><path d="M40.12,179.41c-1.583,0.099 -4.156,0.495 -4.156,0.495c-6.827,0.594 -15.436,1.385 -23.451,-1.385c-4.551,-1.979 -7.816,-5.442 -7.322,-10.884c0.495,-5.443 4.552,-9.895 8.807,-13.952c6.233,-5.937 13.753,-10.983 21.57,-15.634c1.781,-1.088 4.948,-2.473 4.948,-5.145c-0.099,-1.583 -1.584,-2.87 -3.365,-2.672c-9.499,0.891 -18.8,2.177 -28.595,-2.275c-2.474,-1.089 -4.354,2.374 -2.177,3.661c6.728,4.353 13.951,5.145 22.56,4.452c0.89,-0.099 1.088,1.287 0.396,1.781c-5.443,3.859 -11.28,7.52 -17.712,13.061c-4.849,3.859 -9.499,9.598 -10.884,16.03c-1.386,7.025 1.88,13.754 9.4,16.92c8.509,3.463 18.008,3.364 26.32,2.474c0,0 2.671,-0.396 4.156,-0.594c4.056,-0.396 3.661,-6.432 -0.495,-6.333ZM-14.301,175.848c-1.287,1.287 -2.375,2.375 -3.266,3.562c-0.593,0.693 -1.682,0.594 -1.979,-0.297c-6.134,-16.722 -2.671,-35.126 2.771,-51.65c1.187,-3.958 -4.75,-5.937 -6.135,-1.979c-6.53,20.68 -8.905,42.547 1.287,62.436c1.286,2.375 5.343,1.682 5.343,-1.287c0,-3.463 1.484,-4.947 4.65,-8.014l1.188,-1.287c1.88,-1.583 -0.594,-4.65 -2.672,-2.671l-1.187,1.187Z" style="fill:#00616a;fill-rule:nonzero;"/><path d="M118.882,189.701c-14.842,2.375 -20.185,-13.655 -20.185,-25.628l0,-37.897c0,-5.541 -3.166,-8.608 -8.708,-8.608l-2.869,0c-2.375,0 -2.474,3.76 0,3.76l3.067,0c1.287,0.099 2.177,1.088 2.177,2.276l0,40.766c0,16.03 9.4,33.148 27.211,28.893c2.078,-0.594 1.583,-4.057 -0.693,-3.562Z" style="fill:#00616a;fill-rule:nonzero;"/><path d="M187.552,134.785c-0.297,0 -0.396,-0.198 -0.396,-0.495c0.099,-2.968 0.297,-5.937 0.297,-8.905l0,-3.166c0,-4.255 -6.63,-4.156 -6.63,0.099c0,1.088 0.099,3.067 0.099,3.067c0,2.968 0,5.937 -0.099,8.905c0,0.297 -0.198,0.495 -0.494,0.495l-14.546,0c-2.473,0 -2.473,3.562 0,3.562l14.447,0c0.198,0 0.395,0.198 0.395,0.495c-0.395,6.135 -1.187,12.17 -2.869,18.305c-2.87,10.093 -7.52,19.493 -14.842,29.091l-0.099,0.099c-2.474,3.166 2.671,7.025 5.046,3.661c6.927,-9.499 12.27,-20.186 15.535,-31.466c1.979,-6.53 2.869,-13.061 3.463,-19.69c0,-0.297 0.198,-0.495 0.396,-0.495l13.358,0c2.276,0 2.276,-3.562 0,-3.562l-13.061,0ZM232.474,183.269c-0.099,0 -0.099,-0.099 -0.099,-0.099l-0.693,0c-5.145,0.099 -16.524,0.891 -21.174,-2.968c-5.047,-4.156 -3.562,-11.478 -0.198,-16.03c4.947,-6.728 11.577,-11.478 18.008,-16.128c1.781,-1.286 5.244,-3.463 2.474,-6.036c-5.64,-5.541 -14.249,-6.827 -21.769,-7.025c-2.176,-0.198 -2.473,3.265 -0.296,3.463c6.332,0.693 11.478,2.474 16.227,6.135c0.792,0.593 0.792,1.88 0,2.473c-1.385,0.99 -3.859,2.771 -5.64,4.156c-7.025,5.442 -14.842,11.874 -16.128,21.472c-0.891,5.937 1.781,11.478 7.223,14.149c4.848,2.375 10.884,2.672 16.128,2.672c1.88,0 4.849,0.396 6.63,-0.495c2.572,-1.385 1.88,-5.145 -0.693,-5.739Z" style="fill:#00616a;fill-rule:nonzero;"/><path d="M334.39,137.061c1.088,-2.276 -2.573,-4.255 -3.76,-1.88c0,0.099 0,0.099 -0.297,0.593c-2.078,2.771 -5.64,4.156 -9.301,4.156l-3.661,0c-0.297,0 -0.495,-0.198 -0.495,-0.396l0,-20.68c0,-4.056 -5.937,-3.958 -5.937,0l0,20.68c0,0.297 -0.197,0.396 -0.494,0.396l-3.068,0c-5.343,0 -10.785,0 -16.128,1.781c-5.145,1.88 -9.895,5.146 -13.358,9.994c-3.067,4.255 -4.848,8.905 -5.937,12.863c-0.396,1.484 -0.791,2.87 -1.088,4.354c-0.198,0.791 -1.287,0.89 -1.583,0.099c-3.662,-11.28 -1.782,-24.143 0,-35.522c0.692,-3.76 -5.245,-4.453 -5.739,-0.693c-0.792,6.531 -1.781,13.061 -1.781,19.691c0,9.202 2.077,17.414 5.738,25.924c1.089,2.671 4.453,1.88 4.849,-1.089c0.495,-3.76 1.286,-7.619 2.671,-11.774c1.188,-3.76 2.969,-7.916 5.838,-11.676c2.771,-3.859 6.729,-6.927 11.577,-8.51c4.453,-1.484 9.301,-1.484 14.941,-1.484l3.068,0c0.297,0 0.494,0.198 0.494,0.396l0,8.608c0,7.817 -1.088,16.228 -4.947,23.154c-3.265,6.036 -8.905,10.587 -14.149,14.842c-1.485,1.484 0.099,4.552 2.275,3.167c6.234,-4.057 12.369,-8.411 16.426,-14.744c4.947,-7.718 6.332,-17.217 6.332,-26.221l0,-8.806c0,-0.198 0.198,-0.396 0.495,-0.396l3.859,0c4.848,0 9.301,-1.88 12.467,-5.739c0.396,-0.594 0.594,-1.088 0.693,-1.088Z" style="fill:#00616a;fill-rule:nonzero;"/><path d="M436.207,174.958c1.484,-1.781 -0.692,-3.958 -2.474,-2.474c-2.077,2.672 -6.629,5.145 -11.675,6.333c-4.651,1.187 -8.213,-0.792 -8.411,-5.937c0,-3.068 0.693,-7.124 1.089,-10.39c0.791,-7.124 2.374,-14.941 0.098,-22.065c-1.583,-4.255 -5.145,-6.926 -10.092,-6.63c-3.859,0.198 -6.63,1.386 -9.499,3.266c-7.52,5.244 -11.478,9.301 -16.623,13.457c-0.198,0.197 -0.495,0 -0.495,-0.198l0,-31.861c0,-3.958 -5.64,-3.958 -5.64,0l0,36.709c0,0.297 -0.198,0.594 -0.396,0.693c-4.848,4.353 -8.509,7.718 -12.467,11.775c-0.396,0.395 -1.089,-0.099 -0.891,-0.594c2.771,-5.046 5.64,-10.192 8.015,-15.535c1.583,-3.463 2.77,-7.421 2.474,-11.379c-0.198,-4.057 -3.068,-7.52 -7.224,-8.806c-3.166,-0.891 -6.728,-0.99 -10.686,-0.594c-3.265,0.396 -2.573,5.145 0.594,5.046c4.452,-0.099 12.665,-0.791 13.16,4.75c0.297,2.869 -0.495,6.234 -1.88,9.499c-3.364,8.114 -7.619,16.227 -12.863,24.638c-0.891,1.484 -2.474,3.463 -0.891,5.145c0.891,0.891 2.375,0.891 3.463,-0.198c6.63,-6.728 12.27,-12.368 18.899,-18.602c0.297,-0.198 0.693,-0.099 0.693,0.198l0,30.08c0,3.958 5.64,3.958 5.64,0l0,-34.928c0,-0.198 0.099,-0.495 0.297,-0.693c3.562,-3.859 11.478,-10.588 18.503,-15.337c3.661,-2.474 10.983,-4.453 12.467,1.781c1.188,5.838 -0.395,12.171 -1.286,19.889c-0.396,3.364 -1.088,7.816 -0.89,11.181c0.395,8.41 7.816,12.566 16.029,10.191c5.442,-1.583 10.291,-4.848 12.962,-8.41Z" style="fill:#00616a;fill-rule:nonzero;"/><path d="M503.195,127.364c-1.188,-0.198 -1.781,1.385 -0.693,1.979c3.859,2.77 8.312,6.234 11.28,12.269c1.187,2.177 3.661,1.979 4.057,-0.89c0.792,-7.718 -12.764,-13.16 -14.644,-13.358ZM512.001,121.922c-1.187,-0.099 -1.781,1.484 -0.594,2.177c4.057,2.473 8.609,5.739 11.874,11.478c1.187,2.275 3.859,1.88 3.958,-0.99c0.396,-7.817 -13.259,-12.467 -15.238,-12.665ZM508.835,183.863c-7.619,1.385 -15.238,1.88 -22.857,1.781c-8.015,0 -21.472,-1.88 -20.087,-12.665c1.089,-8.807 12.27,-15.04 19.592,-18.899c7.025,-3.562 14.347,-6.036 21.867,-8.708c4.156,-1.385 1.683,-8.113 -2.473,-6.233c-7.124,2.869 -14.348,5.936 -19.79,9.202c-0.198,0.099 -0.396,0 -0.396,-0.297l0,-23.846c0,-5.443 -3.166,-8.708 -8.707,-8.708l-2.77,0c-2.573,0 -2.573,3.76 0,3.76l2.77,0c2.672,0 2.969,2.276 2.969,4.453l0,28.002c0,0.198 -0.099,0.495 -0.396,0.594c-9.005,5.64 -17.316,12.665 -17.316,21.966c0,11.082 11.478,15.931 21.274,16.821c8.608,0.594 18.008,1.089 26.715,-0.495c4.552,-0.494 4.057,-7.223 -0.395,-6.728Z" style="fill:#00616a;fill-rule:nonzero;"/><path d="M538.816,176.145c-0.495,0.594 -0.297,1.187 0.396,1.88c5.838,4.651 9.993,10.093 12.467,16.524c1.088,2.474 2.375,3.76 3.958,3.76c3.166,0 4.749,-1.682 4.749,-4.947c0,-2.177 -0.89,-4.552 -2.869,-6.827c-3.76,-4.552 -9.4,-8.015 -16.821,-10.786c-0.891,-0.396 -1.484,-0.198 -1.88,0.396Z" style="fill:#00616a;fill-rule:nonzero;"/><path d="M-1102.53,263.677c2.77,-6.234 5.442,-13.754 8.015,-22.659c2.869,-0.495 4.353,-1.188 4.353,-2.078c0,-1.287 -2.572,-2.573 -7.817,-3.76c-0.989,-0.198 -1.682,0.198 -1.88,1.187c-4.353,20.284 -10.884,37.402 -19.69,51.453c-0.495,0.89 -0.396,1.583 0.198,1.979c0.791,0.692 1.583,0.593 2.177,-0.198c3.858,-5.244 7.322,-10.884 10.389,-16.722l0,49.078c0,0.989 0.495,1.583 1.484,1.583l2.573,0c0.989,0 1.583,-0.594 1.583,-1.583l0,-53.036c2.672,-0.99 4.057,-1.88 4.057,-2.672c0,-0.989 -1.781,-1.88 -5.442,-2.572ZM-1042.66,266.645l0,17.019l-16.425,0l0,-17.019l16.425,0ZM-1064.83,283.664l-17.118,0l0,-17.019l17.118,0l0,17.019ZM-1081.15,264.171c-1.385,-0.89 -2.869,-1.781 -4.65,-2.572c-0.99,-0.594 -1.781,-0.099 -1.781,1.187l0,27.112c0,1.088 0.495,1.583 1.583,1.583l2.474,0c0.989,0 1.583,-0.495 1.583,-1.583l0,-3.76l17.118,0c-0.099,4.65 -0.891,8.905 -2.375,12.764c-2.177,-1.781 -4.749,-4.156 -7.619,-7.025c-0.791,-0.693 -1.385,-0.891 -1.88,-0.396c-0.594,0.692 -0.693,1.484 -0.099,2.177c2.474,3.067 5.145,6.036 7.916,8.806c-4.453,8.213 -12.962,14.347 -25.825,18.305c-1.089,0.396 -1.485,0.99 -1.089,1.781c0.495,0.792 1.188,1.089 2.078,0.891c14.051,-3.265 23.748,-9.004 28.992,-17.316c8.113,6.531 18.503,11.676 31.366,15.337c0.891,0.198 1.484,-0.099 1.979,-0.891c0.594,-1.088 1.385,-2.176 2.276,-3.265c0.89,-0.89 0.693,-1.682 -0.594,-1.88c-13.259,-2.572 -24.341,-6.926 -32.949,-12.962c2.275,-4.848 3.463,-10.291 3.562,-16.326l16.425,0l0,3.76c0,1.088 0.495,1.583 1.583,1.583l2.474,0c0.989,0 1.484,-0.495 1.484,-1.583l0,-21.472l2.573,-1.682c0.593,-0.396 0.89,-0.792 0.89,-1.187c0,-0.792 -1.583,-2.573 -4.848,-5.245c-0.792,-0.692 -1.583,-0.593 -2.177,0.198l-2.968,3.661l-15.436,0l0,-11.676l27.903,0c0.792,0 1.286,-0.197 1.682,-0.791c0.396,-0.792 0.297,-1.484 -0.297,-2.177c-1.286,-1.583 -2.77,-3.166 -4.551,-4.749c-0.693,-0.693 -1.485,-0.594 -2.177,0.197l-3.958,5.047l-18.602,0l0,-9.994c2.869,-0.89 4.255,-1.781 4.255,-2.671c0,-1.287 -2.672,-2.078 -8.312,-2.474c-1.089,-0.099 -1.682,0.495 -1.682,1.484l0,13.655l-28.2,0c-1.188,0 -1.682,0.495 -1.386,1.187c0.198,0.891 0.792,1.286 1.683,1.286l27.903,0l0,11.676l-16.327,0Z" style="fill:#00616a;fill-rule:nonzero;"/><path d="M-937.977,294.251c0,-10.389 -6.135,-28.002 -18.899,-30.179c-10.093,-1.682 -19.196,5.047 -24.045,13.754c-3.76,6.234 -6.332,13.556 -8.806,20.284c-0.495,1.485 -1.583,4.75 -3.364,5.047c-2.474,0.297 -4.849,-2.87 -6.036,-4.552c-5.343,-7.52 -5.64,-17.316 -5.64,-26.221c0,-3.76 0.891,-8.51 -1.385,-11.874c-1.979,-2.77 -5.244,-3.166 -8.411,-3.166c-2.473,0 -2.473,3.76 0,3.76c3.265,-0.297 3.364,3.067 3.364,5.343c0.099,8.609 -0.296,17.316 2.276,25.628c1.781,5.64 8.905,19.69 16.821,16.821c2.87,-0.99 4.255,-4.156 5.146,-6.729c1.385,-3.661 2.473,-7.421 3.76,-11.181c2.968,-8.608 6.827,-17.613 14.941,-21.373c7.025,-3.067 14.347,-1.088 18.503,5.344c3.859,5.739 3.859,13.16 4.354,19.888c0.494,4.75 7.816,4.354 7.421,-0.594Z" style="fill:#00616a;fill-rule:nonzero;"/><path d="M-921.75,253.683c-1.187,0 -1.682,0.495 -1.385,1.187c0.198,0.891 0.791,1.287 1.682,1.287l30.872,0c0,1.682 0,3.265 -0.099,4.947l-0.099,1.583l0,1.88c0,9.994 -1.781,18.305 -3.958,24.935c-4.057,12.665 -12.567,22.956 -25.331,30.872c-0.89,0.494 -1.088,1.187 -0.692,1.979c0.593,0.791 1.286,1.088 2.176,0.593c10.192,-4.848 18.009,-11.181 23.055,-18.899c4.75,-7.124 7.916,-15.93 9.598,-26.419l30.377,0c-0.099,14.051 -1.187,24.539 -3.265,31.466c-0.891,3.265 -3.364,4.848 -7.421,4.848c-4.057,0 -9.301,-0.396 -15.634,-1.286c-1.088,-0.099 -1.781,0.296 -1.781,1.187c0,0.891 0.495,1.484 1.484,1.583c5.64,0.99 9.4,1.88 11.082,2.474c2.177,0.791 3.661,1.781 4.156,3.067c0.396,0.891 0.792,1.484 1.781,1.386c3.562,-0.198 6.234,-1.287 8.312,-3.266c4.254,-4.156 6.629,-17.217 7.124,-39.579l2.573,-1.583c0.593,-0.396 0.89,-0.792 0.89,-1.286c0,-0.891 -1.583,-2.672 -4.947,-5.343c-0.792,-0.594 -1.583,-0.495 -2.177,0.197l-3.068,3.661l-29.09,0c0.791,-5.244 1.187,-11.576 1.187,-18.997l42.746,0c0.89,0 1.286,-0.198 1.583,-0.693c0.396,-0.792 0.396,-1.484 -0.297,-2.177c-1.88,-2.177 -3.661,-4.057 -5.343,-5.64c-0.792,-0.693 -1.484,-0.594 -2.177,0.297l-4.453,5.739l-26.815,0l0,-13.556c3.068,-1.088 4.552,-2.078 4.552,-3.067c0,-1.287 -2.869,-2.177 -8.707,-2.474c-1.089,-0.099 -1.682,0.495 -1.682,1.484l0,17.613l-36.809,0Z" style="fill:#00616a;fill-rule:nonzero;"/><path d="M-763.83,253.386c-1.286,0.198 -1.484,1.781 -0.296,2.177c4.551,1.682 9.696,3.859 14.05,8.905c1.781,1.88 4.057,0.99 3.76,-1.88c-1.187,-7.619 -15.634,-9.499 -17.514,-9.202ZM-758.19,245.173c-1.187,0.297 -1.385,1.88 -0.098,2.276c4.551,1.484 9.795,3.364 14.446,8.114c1.682,1.88 4.156,0.89 3.562,-1.979c-1.583,-7.619 -16.03,-8.707 -17.91,-8.411ZM-793.613,264.666c-0.198,0 -0.297,-0.198 -0.297,-0.396c1.188,-6.036 2.078,-13.16 2.177,-18.998c0.099,-4.057 -6.036,-4.254 -6.036,-0.099c-0.099,5.047 -0.296,9.598 -0.989,14.051c-0.297,1.781 -0.693,3.562 -1.286,5.838c-0.099,0.297 -0.297,0.396 -0.495,0.396c-0.792,0.099 -22.956,0.099 -22.956,0.099c-2.869,0 -2.869,3.859 0,3.859l21.67,-0.099c0.197,0 0.395,0.197 0.296,0.395c-0.89,2.672 -1.88,5.344 -2.968,7.916c-4.453,10.884 -11.379,20.383 -18.206,29.388c-0.297,0.395 -0.693,0.791 -1.089,1.385c-0.989,1.385 -0.495,3.265 0.792,4.255c1.385,1.088 3.364,0.791 4.452,-0.693c7.323,-10.291 14.843,-20.878 19.691,-32.95c1.286,-3.067 2.375,-6.332 3.463,-9.597c0,-0.198 0.297,-0.396 0.495,-0.396c7.52,-0.297 14.941,0 15.832,7.817c0.89,7.718 -3.365,15.831 -7.916,23.549c-1.682,2.672 -3.266,4.948 -4.552,6.531c-0.594,0.791 -1.781,0.791 -2.276,0c-0.989,-1.583 -2.473,-3.068 -3.958,-4.651l-1.286,-1.187c-1.781,-1.682 -4.551,0.89 -2.77,2.671l1.286,1.287c3.166,3.067 4.551,4.452 4.749,8.014c0,0.792 0.396,1.683 1.089,2.474c1.286,1.187 3.265,1.089 4.353,-0.198l0.099,-0.099c1.089,-1.088 2.573,-3.067 2.573,-3.067c1.583,-1.979 3.661,-4.849 5.838,-8.609c5.343,-8.905 12.566,-24.736 6.234,-33.444c-3.76,-5.046 -10.687,-5.541 -18.009,-5.442ZM-743.347,282.773c-4.354,-9.202 -13.853,-16.128 -23.055,-19.888c-2.375,-0.792 -3.76,2.375 -1.682,3.463c7.52,3.76 15.04,9.796 18.899,17.316c2.078,3.76 2.473,7.421 -1.386,9.895c-2.968,1.979 -6.926,2.177 -10.488,2.473c-2.177,0.198 -1.979,3.464 0.099,3.464c4.749,0.099 10.29,0.198 14.545,-2.276c5.146,-3.068 5.343,-9.499 3.068,-14.447Z" style="fill:#00616a;fill-rule:nonzero;"/><path d="M-653.701,276.738c-3.76,-6.828 -11.082,-10.588 -18.899,-11.082c-8.806,-0.594 -20.086,3.562 -28.398,10.389c-0.198,0.099 -0.495,0 -0.495,-0.297l0,-32.059c0,-3.859 -5.64,-3.859 -5.64,0l0,36.71c0,0.297 -0.197,0.494 -0.395,0.692c-4.156,3.661 -8.213,7.322 -11.775,11.181c-0.396,0.495 -1.089,0 -0.792,-0.494c2.672,-4.948 5.343,-9.895 7.619,-15.04c1.583,-3.464 2.771,-7.421 2.474,-11.379c-0.396,-8.411 -10.587,-9.994 -17.316,-9.4l-0.099,0l-0.099,0.099c-3.265,0.395 -2.572,5.046 0.594,4.947c4.255,-0.198 12.17,-0.891 12.764,4.749c0.297,2.87 -0.495,6.234 -1.88,9.499c-2.572,6.135 -5.64,12.171 -8.806,18.009l-4.057,6.728c-0.891,1.485 -2.474,3.464 -0.891,5.146c0.891,0.89 2.375,0.89 3.365,0l0.099,-0.198c6.233,-6.432 11.675,-11.973 18.701,-18.503c0.198,-0.198 0.494,0 0.494,0.197l0,29.982c0,3.957 5.64,3.957 5.64,0l0,-35.325c0,-0.198 0.198,-0.396 0.396,-0.593c9.994,-8.312 20.285,-12.072 28.101,-11.083c6.036,0.792 11.478,3.958 14.051,9.796c1.088,2.672 1.583,5.64 1.286,8.411c-0.593,5.343 -3.463,10.587 -8.113,13.951c-6.729,4.75 -13.259,5.64 -21.571,5.739l-0.099,0c-2.276,-0.099 -2.276,3.464 -0.099,3.464c8.806,0.395 16.722,0.395 24.737,-4.75c6.333,-3.661 11.181,-10.192 11.775,-17.909c0.198,-3.958 -0.693,-8.114 -2.672,-11.577Z" style="fill:#00616a;fill-rule:nonzero;"/><path d="M-551.389,282.773c-4.354,-9.202 -13.853,-16.128 -23.055,-19.888c-2.375,-0.792 -3.76,2.375 -1.682,3.463c7.52,3.76 15.04,9.796 18.899,17.316c2.078,3.76 2.474,7.421 -1.385,9.895c-2.969,1.979 -6.927,2.177 -10.489,2.473c-2.176,0.198 -1.979,3.464 0.099,3.464c4.75,0.099 10.291,0.198 14.546,-2.276c5.145,-3.068 5.343,-9.499 3.067,-14.447ZM-601.555,264.765c-0.198,0 -0.297,-0.198 -0.297,-0.396c1.484,-7.322 1.88,-12.863 2.078,-19.097c0.099,-4.057 -6.036,-4.254 -6.036,-0.099c-0.099,5.047 -0.297,9.598 -0.891,13.952c-0.297,1.781 -0.692,3.562 -1.286,5.64c-0.099,0.297 -0.297,0.396 -0.495,0.396c-0.791,0.099 -22.956,0.099 -22.956,0.099c-2.869,0 -2.869,4.057 0,4.057l21.67,-0.099c0.198,0 0.396,0.198 0.297,0.395c-0.891,2.672 -1.88,5.344 -2.969,7.916c-4.551,10.983 -11.478,20.482 -18.305,29.487c-0.297,0.395 -0.693,0.791 -1.088,1.385c-0.99,1.385 -0.495,3.265 0.791,4.255c1.385,1.088 3.364,0.791 4.453,-0.693c7.322,-10.291 14.842,-20.878 19.789,-33.048c1.287,-3.068 2.474,-6.333 3.463,-9.499c0,-0.198 0.297,-0.396 0.495,-0.396c7.223,-0.396 14.941,0.099 15.832,7.718c0.89,7.817 -3.463,15.93 -8.015,23.648c-1.682,2.672 -3.265,4.948 -4.552,6.531c-0.593,0.791 -1.781,0.791 -2.275,0c-0.99,-1.583 -2.474,-3.068 -3.958,-4.651l-1.287,-1.187c-1.781,-1.682 -4.551,0.89 -2.77,2.671l1.286,1.287c3.167,3.067 4.552,4.452 4.75,8.014c0,0.792 0.396,1.683 1.088,2.474c1.286,1.187 3.265,1.089 4.354,-0.198l0.099,-0.099c1.088,-1.088 2.572,-3.067 2.572,-3.067c1.584,-1.979 3.662,-4.849 5.838,-8.609c5.344,-8.905 12.567,-24.736 6.333,-33.543c-3.76,-5.046 -10.686,-5.442 -18.008,-5.244Z" style="fill:#00616a;fill-rule:nonzero;"/><path d="M-468.273,297.912c0.891,-5.244 -1.187,-10.785 -5.541,-14.644c-2.672,-1.979 -5.937,-3.265 -9.202,-3.562c-10.687,-0.89 -18.998,1.583 -29.19,7.421c-0.692,0.396 -1.682,-0.099 -1.682,-0.89l-0.099,-21.175c0.792,-10.588 16.92,-10.192 25.826,-10.192c2.176,0 3.76,-1.979 3.364,-4.057c-0.396,-1.781 -2.078,-2.77 -3.958,-2.671c-8.015,0.593 -15.337,-2.078 -20.087,-7.124c-1.385,-1.683 -4.353,0.593 -2.869,2.473c1.88,3.167 4.848,5.64 9.499,7.718c0.693,0.396 0.495,1.484 -0.297,1.583c-2.968,0.198 -5.145,0.594 -7.223,1.188c-7.223,2.177 -10.192,6.926 -10.192,15.436l0,21.768c0,1.682 1.386,3.067 3.068,3.067c2.078,0.099 3.661,-2.078 5.244,-3.067c9.202,-5.64 17.019,-8.509 28.002,-7.322c2.474,0.297 4.75,1.385 6.531,3.166c3.265,3.265 3.265,9.004 1.088,12.962c-3.265,6.333 -10.093,10.192 -18.602,12.171c-6.036,1.286 -10.983,2.177 -17.316,1.88c-1.979,-0.297 -2.375,3.067 -0.297,3.265l0.099,0c6.135,0.792 11.28,0.495 18.701,-0.692c9.697,-1.683 19.295,-5.443 23.352,-13.556c0.89,-1.682 1.484,-3.266 1.781,-5.146Z" style="fill:#00616a;fill-rule:nonzero;"/><path d="M-364.675,265.754c-6.53,-3.265 -13.16,-7.025 -18.008,-12.962c-1.485,-1.781 -4.057,0.396 -2.87,2.276c2.177,3.068 4.948,6.036 11.082,11.379c0.693,0.495 0.297,1.484 -0.494,1.484l-3.464,0c-9.103,0 -14.644,2.672 -14.644,12.962l0,16.92c0,0.198 -0.198,0.396 -0.396,0.396c-2.374,-0.396 -4.947,-0.692 -7.619,-0.593c-3.957,0 -8.806,0.494 -12.368,3.067c-2.276,1.583 -3.76,4.255 -3.562,7.124c0.198,2.87 2.276,5.047 4.947,6.531c2.276,1.088 4.552,1.682 6.927,2.078c2.275,0.296 4.947,0.296 7.322,-0.099c2.374,-0.495 4.947,-1.287 7.124,-3.266c0.989,-0.989 1.979,-2.176 2.474,-3.661c0.692,-1.583 0.791,-2.77 0.89,-4.056c0.099,-0.297 0,-0.594 0.099,-0.891c0,-0.198 0.198,-0.297 0.297,-0.198c4.354,1.88 8.509,4.156 12.566,7.718c0,0 0.792,0.693 1.583,1.187c2.87,2.177 6.531,-3.166 3.167,-5.244c-0.495,-0.297 -1.287,-0.89 -1.287,-0.89c-4.947,-2.771 -9.894,-5.442 -15.93,-7.224c-0.198,-0.098 -0.396,-0.296 -0.396,-0.494l0,-18.405c0,-6.035 1.781,-9.597 8.905,-9.597l12.468,0c0.297,0 0.495,0 0.89,-0.099c0.792,-0.297 1.485,-0.792 1.88,-1.683c0.594,-1.385 -0.099,-3.067 -1.583,-3.76ZM-410.29,260.807c10.687,0 13.952,-6.728 14.15,-7.025c1.88,-2.474 -2.375,-4.453 -3.76,-1.781c-0.099,0.198 -2.375,4.749 -10.39,4.749l-4.156,0c-0.197,0 -0.395,-0.198 -0.395,-0.396c0.395,-5.244 0.593,-9.597 0.593,-12.566c0.198,-4.156 -6.53,-4.156 -6.134,0.099c0,2.87 0,6.827 -0.297,12.467c0,0.198 -0.198,0.396 -0.495,0.396l-14.149,0c-2.474,0 -2.672,4.057 0,4.057l13.852,0c0.198,0 0.396,0.198 0.297,0.396c-1.484,12.467 -7.322,23.846 -16.623,33.642c-2.771,2.771 1.781,6.926 4.452,4.057c10.093,-11.775 16.129,-22.659 18.009,-37.699c0,-0.198 0.198,-0.396 0.495,-0.396l4.551,0ZM-393.469,307.214c-0.593,2.374 -3.265,3.364 -5.442,3.858c-3.562,0.891 -7.916,0.495 -11.082,-0.89c-1.682,-0.693 -2.671,-1.781 -2.77,-2.771c-0.198,-1.385 0.593,-2.671 1.682,-3.463c2.572,-1.88 6.629,-2.374 10.092,-2.473c2.573,0 5.047,0.296 7.421,0.791c0.198,0 0.396,0.297 0.396,0.495c0,2.671 -0.099,3.76 -0.297,4.453Z" style="fill:#00616a;fill-rule:nonzero;"/><path d="M-266.123,294.251c0,-10.389 -6.135,-28.002 -18.899,-30.179c-10.093,-1.682 -19.196,5.047 -24.044,13.754c-3.76,6.234 -6.333,13.556 -8.807,20.284c-0.494,1.485 -1.583,4.75 -3.364,5.047c-2.474,0.297 -4.848,-2.87 -6.036,-4.552c-5.343,-7.52 -5.64,-17.316 -5.64,-26.221c0,-3.76 0.891,-8.51 -1.385,-11.874c-1.979,-2.77 -5.244,-3.166 -8.41,-3.166c-2.474,0 -2.474,3.76 0,3.76c3.265,-0.297 3.364,3.067 3.364,5.343c0.099,8.609 -0.297,17.316 2.276,25.628c1.781,5.64 8.905,19.69 16.821,16.821c2.869,-0.99 4.254,-4.156 5.145,-6.729c1.385,-3.661 2.474,-7.421 3.76,-11.181c2.968,-8.608 6.827,-17.613 14.941,-21.373c7.025,-3.067 14.347,-1.088 18.503,5.344c3.859,5.739 3.859,13.16 4.354,19.888c0.495,4.75 7.817,4.354 7.421,-0.594Z" style="fill:#00616a;fill-rule:nonzero;"/><path d="M-176.971,272.681c-1.484,0 -2.771,0.495 -3.859,1.484c-1.484,1.286 -2.177,2.869 -2.177,4.651c0,2.473 1.088,4.254 3.265,5.343c0.891,0.494 1.88,0.791 2.87,0.791c1.781,0 3.265,-0.692 4.452,-1.979c1.089,-1.187 1.682,-2.572 1.682,-4.155c0,-2.177 -0.989,-3.859 -2.869,-5.146c-1.088,-0.593 -2.177,-0.989 -3.364,-0.989ZM-209.921,272.681c-1.583,0 -2.77,0.495 -3.859,1.484c-1.484,1.286 -2.177,2.869 -2.177,4.651c0,2.473 1.089,4.254 3.266,5.343c0.89,0.494 1.88,0.791 2.869,0.791c1.781,0 3.265,-0.692 4.453,-1.979c1.088,-1.187 1.682,-2.572 1.682,-4.155c0,-2.177 -0.99,-3.859 -2.87,-5.146c-1.088,-0.593 -2.176,-0.989 -3.364,-0.989ZM-242.87,272.681c-1.485,0 -2.771,0.495 -3.859,1.484c-1.485,1.286 -2.177,2.869 -2.177,4.651c0,2.473 1.088,4.254 3.265,5.343c0.891,0.494 1.88,0.791 2.87,0.791c1.781,0 3.265,-0.692 4.452,-1.979c1.089,-1.187 1.682,-2.572 1.682,-4.155c0,-2.177 -0.989,-3.859 -2.869,-5.146c-1.089,-0.593 -2.177,-0.989 -3.364,-0.989Z" style="fill:#00616a;fill-rule:nonzero;"/><path d="M-1080.66,403.947c-0.594,-0.099 -0.495,-0.396 -0.198,-0.692c8.708,-4.948 25.826,-11.874 25.826,-23.946c0,-12.665 -20.878,-10.884 -28.398,-9.598c-3.562,0.594 -3.365,6.432 0.494,6.135c4.156,-0.297 22.066,-3.859 22.066,3.859c0,8.114 -17.316,17.811 -23.55,21.175c-1.484,0.89 -3.661,2.177 -5.541,2.671c-2.078,0.495 -18.602,0.198 -18.602,0.198c-2.672,0.099 -2.375,3.958 -0.099,3.859l40.371,0.099c0.395,0.099 0.395,0.396 0.198,0.594c-5.344,3.562 -8.708,10.29 -8.708,17.019c0,9.103 7.421,18.305 17.316,18.305c4.453,0 4.255,-5.838 0.198,-6.431c-7.619,-1.188 -12.566,-6.333 -12.566,-13.952c0,-5.541 3.858,-13.754 9.795,-15.436c0.693,-0.198 14.645,-0.099 14.645,-0.099c10.587,0 14.149,-6.135 14.842,-7.718c1.187,-2.374 -2.375,-3.958 -3.76,-1.781c-0.693,1.089 -3.167,5.739 -10.983,5.64l-33.346,0.099Z" style="fill:#00616a;fill-rule:nonzero;"/><path d="M-937.483,409.785c0.594,-1.88 -2.671,-2.869 -3.166,-0.89c-1.781,7.619 -5.244,15.732 -10.686,21.768c-3.661,3.958 -8.51,6.531 -14.15,5.64c-2.078,-0.495 -3.958,-1.781 -4.848,-4.255c-0.99,-2.572 -0.693,-5.64 -0.891,-9.4c-0.396,-7.916 -6.135,-14.545 -15.238,-12.764c-1.385,0.297 -2.572,0.891 -3.661,1.484c-0.494,0.297 -1.088,-0.198 -0.791,-0.692c6.926,-11.874 12.665,-23.055 13.852,-36.017c0.099,-1.188 0.099,-2.078 0.099,-3.76c0,-4.255 -6.431,-4.156 -6.728,0.099c-0.693,14.842 -4.849,23.252 -11.181,35.126c-8.015,15.238 -20.383,32.95 -20.186,32.653c-2.275,3.661 3.563,6.728 5.937,2.968c0.693,-0.989 1.485,-2.968 1.485,-2.968c2.869,-5.442 6.629,-12.27 10.686,-17.514c3.166,-4.156 6.135,-6.629 11.28,-7.817c5.64,-1.286 8.707,3.562 9.004,9.4c0.198,3.562 -0.495,7.223 0.594,10.983c0.791,2.969 2.77,6.036 6.234,7.817c8.212,3.958 17.216,-0.297 22.856,-7.322c5.443,-6.926 7.718,-15.634 9.499,-24.539Z" style="fill:#00616a;fill-rule:nonzero;"/><path d="M-844.571,390.985c-6.53,-3.265 -13.16,-7.025 -18.008,-12.962c-1.484,-1.781 -4.057,0.396 -2.87,2.276c2.177,3.067 4.948,6.036 11.082,11.379c0.693,0.494 0.297,1.484 -0.494,1.484l-3.464,0c-9.103,0 -14.644,2.671 -14.644,12.962l0,16.92c0,0.198 -0.198,0.396 -0.396,0.396c-2.374,-0.396 -4.947,-0.693 -7.619,-0.594c-3.957,0 -8.806,0.495 -12.368,3.068c-2.276,1.583 -3.76,4.254 -3.562,7.124c0.198,2.869 2.276,5.046 4.947,6.53c2.276,1.089 4.552,1.682 6.927,2.078c2.275,0.297 4.947,0.297 7.322,-0.099c2.374,-0.494 4.947,-1.286 7.124,-3.265c0.989,-0.989 1.979,-2.177 2.474,-3.661c0.692,-1.583 0.791,-2.771 0.89,-4.057c0.099,-0.297 0,-0.594 0.099,-0.89c0,-0.198 0.198,-0.297 0.297,-0.198c4.354,1.88 8.509,4.155 12.566,7.718c0,0 0.792,0.692 1.583,1.187c2.87,2.177 6.531,-3.166 3.167,-5.244c-0.495,-0.297 -1.287,-0.891 -1.287,-0.891c-4.947,-2.77 -9.894,-5.442 -15.93,-7.223c-0.198,-0.099 -0.396,-0.297 -0.396,-0.495l0,-18.404c0,-6.036 1.781,-9.598 8.905,-9.598l12.468,0c0.297,0 0.495,0 0.89,-0.099c0.792,-0.297 1.485,-0.791 1.88,-1.682c0.594,-1.385 -0.099,-3.067 -1.583,-3.76ZM-890.186,386.038c10.687,0 13.952,-6.729 14.15,-7.026c1.88,-2.473 -2.375,-4.452 -3.76,-1.781c-0.099,0.198 -2.375,4.75 -10.39,4.75l-4.155,0c-0.198,0 -0.396,-0.198 -0.396,-0.396c0.396,-5.244 0.593,-9.598 0.593,-12.566c0.198,-4.156 -6.53,-4.156 -6.134,0.099c0,2.869 0,6.827 -0.297,12.467c0,0.198 -0.198,0.396 -0.495,0.396l-14.149,0c-2.474,0 -2.672,4.057 0,4.057l13.852,0c0.198,0 0.396,0.198 0.297,0.395c-1.484,12.468 -7.322,23.847 -16.623,33.643c-2.771,2.77 1.781,6.926 4.453,4.056c10.092,-11.774 16.128,-22.659 18.008,-37.699c0,-0.197 0.198,-0.395 0.495,-0.395l4.551,0ZM-873.365,432.444c-0.593,2.375 -3.265,3.364 -5.442,3.859c-3.562,0.891 -7.915,0.495 -11.082,-0.89c-1.682,-0.693 -2.671,-1.782 -2.77,-2.771c-0.198,-1.385 0.593,-2.672 1.682,-3.463c2.572,-1.88 6.629,-2.375 10.092,-2.474c2.573,0 5.047,0.297 7.421,0.792c0.198,0 0.396,0.297 0.396,0.494c0,2.672 -0.099,3.76 -0.297,4.453Z" style="fill:#00616a;fill-rule:nonzero;"/><path d="M-758.882,405.332c-11.874,-7.223 -27.211,-1.286 -37.996,3.464c-0.198,0.099 -0.396,-0.099 -0.396,-0.297l0,-14.941c0,-0.198 0.198,-0.396 0.396,-0.396c8.41,-0.594 12.467,-3.463 12.665,-3.661c1.979,-1.385 -0.099,-4.75 -2.374,-3.265c-0.099,0 -3.365,2.275 -10.291,2.77c-0.198,0.099 -0.396,-0.099 -0.396,-0.297l0,-14.743c0,-3.463 -5.442,-3.562 -5.442,0l0,14.842c0,0.198 -0.198,0.396 -0.495,0.396l-12.071,0c-2.672,0 -2.474,4.057 0,4.057l12.071,0c0.297,0 0.495,0.198 0.495,0.396l0,17.513c0,0.297 -0.198,0.495 -0.396,0.594c-2.572,1.385 -5.145,2.87 -7.619,4.453c-4.452,2.671 -11.28,6.332 -9.993,12.665c0.89,4.749 7.619,9.4 12.071,10.488c4.651,1.188 9.202,-1.484 10.489,-6.035c1.088,-3.661 0.89,-6.729 0.89,-9.697l0,-10.39c0,-0.198 0.198,-0.494 0.396,-0.593c9.301,-4.552 24.341,-10.093 34.038,-3.859c4.552,2.968 6.926,8.014 6.432,13.358c-1.287,12.665 -16.426,15.237 -26.123,10.587c-2.572,-1.286 -4.65,-2.968 -6.332,-5.244l-0.099,0c-1.188,-1.781 -3.958,0.198 -2.771,1.979c0.099,0 0.594,0.791 1.682,2.078c1.089,1.286 2.969,3.067 5.739,4.551c12.962,7.223 33.939,2.474 34.434,-14.941c0.198,-6.728 -3.364,-12.467 -9.004,-15.832ZM-802.815,423.638c0,2.869 -0.099,5.739 -0.791,7.916c-0.693,2.176 -2.474,2.869 -4.453,2.176c-2.375,-0.692 -7.817,-3.661 -8.213,-6.233c-0.495,-3.365 4.255,-6.036 6.63,-7.52c2.078,-1.386 4.254,-2.771 6.431,-4.057c0.198,-0.099 0.396,0 0.396,0.198c0,2.473 0.099,4.947 0,7.52ZM-746.415,383.663c-8.806,-7.916 -20.482,-9.301 -30.179,-2.078c-1.583,1.385 -0.198,3.958 1.781,2.968c9.796,-5.64 16.821,-3.661 25.034,3.266c2.672,2.177 5.838,-1.88 3.364,-4.156Z" style="fill:#00616a;fill-rule:nonzero;"/><path d="M-717.423,448.77c0.989,0 1.484,-0.593 1.484,-1.583l0,-81.928c2.771,-1.089 4.156,-2.078 4.156,-2.969c0,-1.286 -2.672,-2.177 -8.114,-2.375c-1.088,0 -1.682,0.495 -1.682,1.485l0,85.787c0,0.99 0.594,1.583 1.583,1.583l2.573,0ZM-703.867,366.545c-0.495,0.594 -0.396,1.187 0.198,1.979c4.749,5.442 7.718,10.587 8.905,15.535c0.693,2.671 1.781,4.057 3.166,4.057c2.573,0 3.76,-1.287 3.76,-3.859c0,-1.88 -0.791,-4.057 -2.375,-6.531c-2.473,-3.958 -6.431,-7.718 -11.774,-11.181c-0.693,-0.594 -1.386,-0.495 -1.88,0ZM-666.762,390.688c0.792,0.396 1.484,0.297 1.979,-0.495c5.64,-6.926 10.093,-13.753 13.358,-20.185c2.968,0 4.453,-0.495 4.453,-1.484c0,-1.385 -2.474,-3.166 -7.421,-5.541c-0.99,-0.495 -1.782,-0.099 -2.078,0.791c-2.969,9.203 -6.531,17.514 -10.588,24.935c-0.495,0.891 -0.396,1.484 0.297,1.979ZM-728.604,379.309c-0.792,0 -1.287,0.495 -1.287,1.484c-0.395,9.994 -2.176,17.613 -5.343,22.857c-0.395,0.792 -0.692,1.485 -0.692,2.078c0,1.88 1.088,2.87 3.166,2.87c2.375,0 4.057,-1.979 5.244,-5.739c0.99,-2.969 1.484,-6.531 1.484,-10.884c0,-3.068 -0.296,-6.828 -0.989,-11.182c-0.198,-0.989 -0.693,-1.385 -1.583,-1.484ZM-685.76,361.993c-0.594,0.495 -0.693,1.287 -0.099,2.078c3.958,5.64 6.135,10.885 6.531,15.535c0.297,3.166 1.385,4.75 3.265,4.75c2.474,0 3.661,-1.485 3.661,-4.453c0,-5.442 -3.76,-11.28 -11.28,-17.712c-0.792,-0.593 -1.484,-0.692 -2.078,-0.198ZM-713.267,376.44c-0.594,0.396 -0.594,0.989 -0.099,1.88c2.276,4.254 3.364,8.608 3.463,12.962c0.099,2.177 0.89,3.265 2.276,3.265c2.473,0 3.661,-1.385 3.661,-4.255c0,-4.452 -2.474,-8.905 -7.421,-13.555c-0.792,-0.594 -1.386,-0.693 -1.88,-0.297ZM-696.644,399.198c2.671,-0.99 3.958,-1.88 3.958,-2.672c0,-1.187 -2.672,-1.979 -8.015,-2.375c-1.088,-0.099 -1.682,0.396 -1.682,1.386l0,51.65c0,0.99 0.495,1.583 1.583,1.583l2.672,0c0.989,0 1.484,-0.593 1.484,-1.583l0,-5.343l40.371,0l0,5.343c0,0.99 0.494,1.583 1.583,1.583l2.572,0c1.089,0 1.583,-0.593 1.583,-1.583l0,-48.187c2.573,-0.99 3.859,-1.979 3.859,-2.771c0,-1.187 -2.572,-2.078 -7.915,-2.572c-1.089,0 -1.682,0.494 -1.682,1.484l0,44.229l-40.371,0l0,-40.172ZM-678.141,413.941c-3.859,7.322 -8.707,13.556 -14.248,18.602c-0.693,0.594 -0.792,1.187 -0.297,1.781c0.593,0.792 1.385,0.99 2.177,0.396c6.233,-4.255 11.675,-9.697 16.128,-16.425c2.276,2.77 3.958,5.343 5.442,7.816c1.682,2.771 3.167,4.156 4.255,4.156c1.88,0 2.869,-1.088 2.869,-3.166c0,-3.364 -3.364,-7.916 -10.092,-13.754c2.473,-4.353 4.452,-8.806 5.838,-13.655c2.77,-0.099 4.057,-0.593 4.057,-1.484c0,-1.286 -2.177,-2.77 -6.63,-4.65c-0.989,-0.396 -1.682,0 -1.979,0.989c-1.286,5.343 -3.166,10.39 -5.343,15.436c-4.057,-3.265 -8.213,-6.036 -12.369,-8.51c-0.89,-0.494 -1.385,-0.494 -1.781,-0.098c-0.593,0.89 -0.494,1.583 0.396,2.176c4.453,3.464 8.312,6.927 11.577,10.39Z" style="fill:#00616a;fill-rule:nonzero;"/><path d="M-552.082,406.025c0,-0.594 -0.395,-1.385 -0.989,-1.781c-1.979,-2.177 -11.28,-11.379 -15.238,-22.263c-0.495,-1.484 -2.078,-2.771 -3.76,-2.771c-1.88,0 -3.463,1.682 -3.364,3.562c0.099,4.057 0.099,9.796 0.099,9.796c0.099,3.661 0,7.025 0,11.082c-0.099,0.297 -0.297,0.396 -0.495,0.396l-23.352,0.099c-0.198,0 -0.396,-0.198 -0.297,-0.396c1.88,-6.728 2.969,-13.16 2.969,-19.196c0,-5.541 -2.969,-8.905 -8.312,-8.905l-18.206,0c-2.573,0 -2.771,4.057 -0.099,4.057l17.316,0c1.682,0 2.968,1.286 2.968,2.968c0,7.224 -1.088,13.853 -3.067,20.977c-0.099,0.198 -0.297,0.396 -0.495,0.396c-2.869,0.099 -5.343,0.396 -7.718,0.99c-7.322,1.781 -14.644,6.233 -17.415,13.753c-0.89,2.474 -1.484,5.343 -0.494,8.51c0.989,3.067 3.859,5.343 7.322,5.739c3.265,0.297 5.937,-0.99 8.015,-2.276c7.816,-5.046 12.269,-13.952 15.831,-22.362c0,-0.198 0.297,-0.396 0.495,-0.396l24.44,0c0.198,0 0.396,0.198 0.396,0.396c-0.495,11.181 -3.958,24.44 -12.863,33.345l-0.099,0.099c-1.386,1.88 1.088,4.255 2.671,2.474c9.895,-9.895 14.644,-21.868 16.03,-35.918c0,-0.198 0.198,-0.396 0.494,-0.396l15.337,0c1.089,0 1.979,-0.89 1.88,-1.979ZM-607.492,408.4c-2.573,6.332 -6.135,13.16 -12.27,17.711c-5.145,3.76 -9.4,0.693 -7.322,-5.739c2.078,-5.936 7.718,-9.696 13.952,-11.378c1.781,-0.495 3.562,-0.792 5.343,-0.99c0.297,0 0.396,0.198 0.297,0.396ZM-569.002,404.244c-0.297,0 -0.395,-0.198 -0.395,-0.396c0.296,-4.353 0.098,-8.113 0.098,-13.061c0,-0.989 0.693,-1.385 1.386,-0.198c3.166,5.343 6.53,9.301 9.598,12.567c0.494,0.494 0.099,1.088 -0.297,1.088l-10.39,0Z" style="fill:#00616a;fill-rule:nonzero;"/><path d="M-463.919,429.871c-1.583,0.099 -4.156,0.495 -4.156,0.495c-6.828,0.594 -15.436,1.385 -23.451,-1.385c-4.551,-1.979 -7.817,-5.442 -7.322,-10.884c0.495,-5.442 4.552,-9.895 8.807,-13.952c6.233,-5.937 13.753,-10.983 21.57,-15.634c1.781,-1.088 4.947,-2.473 4.947,-5.145c-0.098,-1.583 -1.583,-2.869 -3.364,-2.672c-9.499,0.891 -18.8,2.177 -28.596,-2.275c-2.473,-1.089 -4.353,2.374 -2.176,3.661c6.728,4.353 13.951,5.145 22.56,4.452c0.89,-0.099 1.088,1.287 0.395,1.781c-5.442,3.859 -11.28,7.52 -17.711,13.062c-4.849,3.859 -9.499,9.597 -10.884,16.029c-1.386,7.025 1.88,13.754 9.4,16.92c8.509,3.463 18.008,3.364 26.32,2.474c0,0 2.671,-0.396 4.155,-0.594c4.057,-0.396 3.661,-6.431 -0.494,-6.333ZM-518.341,426.309c-1.286,1.287 -2.374,2.375 -3.265,3.562c-0.593,0.693 -1.682,0.594 -1.979,-0.296c-6.134,-16.723 -2.671,-35.127 2.771,-51.651c1.187,-3.958 -4.75,-5.937 -6.135,-1.979c-6.53,20.68 -8.905,42.547 1.286,62.436c1.287,2.375 5.344,1.682 5.344,-1.286c0,-3.464 1.484,-4.948 4.65,-8.015l1.187,-1.286c1.88,-1.584 -0.593,-4.651 -2.671,-2.672l-1.188,1.187Z" style="fill:#00616a;fill-rule:nonzero;"/><path d="M-374.965,405.332c-11.874,-7.223 -27.211,-1.286 -37.996,3.464c-0.198,0.099 -0.396,-0.099 -0.396,-0.297l0,-14.941c0,-0.198 0.198,-0.396 0.396,-0.396c8.41,-0.594 12.467,-3.463 12.665,-3.661c1.979,-1.385 -0.099,-4.75 -2.375,-3.265c-0.099,0 -3.364,2.275 -10.29,2.77c-0.198,0.099 -0.396,-0.099 -0.396,-0.297l0,-14.743c0,-3.463 -5.442,-3.562 -5.442,0l0,14.842c0,0.198 -0.198,0.396 -0.495,0.396l-12.072,0c-2.671,0 -2.473,4.057 0,4.057l12.072,0c0.297,0 0.495,0.198 0.495,0.396l0,17.513c0,0.297 -0.198,0.495 -0.396,0.594c-2.573,1.385 -5.145,2.87 -7.619,4.453c-4.453,2.671 -11.28,6.332 -9.994,12.665c0.891,4.749 7.619,9.4 12.072,10.488c4.65,1.188 9.202,-1.484 10.488,-6.035c1.089,-3.661 0.891,-6.729 0.891,-9.697l0,-10.39c0,-0.198 0.198,-0.494 0.396,-0.593c9.301,-4.552 24.341,-10.093 34.038,-3.859c4.551,2.968 6.926,8.014 6.431,13.358c-1.286,12.665 -16.425,15.237 -26.122,10.587c-2.573,-1.286 -4.65,-2.968 -6.333,-5.244l-0.098,0c-1.188,-1.781 -3.958,0.198 -2.771,1.979c0.099,0 0.594,0.791 1.682,2.078c1.089,1.286 2.969,3.067 5.739,4.551c12.962,7.223 33.939,2.474 34.434,-14.941c0.198,-6.728 -3.364,-12.467 -9.004,-15.832ZM-418.898,423.638c0,2.869 -0.099,5.739 -0.792,7.916c-0.692,2.176 -2.473,2.869 -4.452,2.176c-2.375,-0.692 -7.817,-3.661 -8.213,-6.233c-0.495,-3.365 4.255,-6.036 6.629,-7.52c2.078,-1.386 4.255,-2.771 6.432,-4.057c0.198,-0.099 0.396,0 0.396,0.198c0,2.473 0.099,4.947 0,7.52ZM-362.498,383.663c-8.806,-7.916 -20.482,-9.301 -30.179,-2.078c-1.583,1.385 -0.198,3.958 1.781,2.968c9.796,-5.64 16.821,-3.661 25.034,3.266c2.671,2.177 5.838,-1.88 3.364,-4.156Z" style="fill:#00616a;fill-rule:nonzero;"/><path d="M-321.831,407.212c-1.088,0 -1.682,0.495 -1.385,1.287c0.396,0.791 0.891,1.187 1.781,1.187l30.08,0c0.891,0 1.287,-0.198 1.583,-0.594c0.594,-0.692 0.495,-1.484 -0.098,-2.176c-1.386,-1.386 -2.87,-2.672 -4.255,-3.76c-0.792,-0.594 -1.484,-0.495 -2.177,0.197l-3.463,3.859l-22.066,0ZM-285.715,422.055l0,18.602l-41.558,0l0,-18.602l41.558,0ZM-325.788,419.581c-1.584,-0.693 -3.167,-1.385 -4.849,-1.979l-0.693,-0.297c-1.088,-0.396 -1.781,0.099 -1.781,1.286l0,28.695c0,0.99 0.495,1.484 1.584,1.484l2.77,0c0.99,0 1.484,-0.494 1.484,-1.484l0,-4.156l41.558,0l0,4.156c0,0.99 0.495,1.484 1.584,1.484l2.77,0c0.99,0 1.484,-0.494 1.484,-1.484l0,-23.549l2.276,-1.583c0.594,-0.495 0.891,-0.891 0.891,-1.287c0,-0.692 -1.584,-2.177 -4.75,-4.551c-0.89,-0.594 -1.682,-0.495 -2.276,0.198l-2.77,3.067l-39.282,0ZM-332.418,371.492c1.583,-3.265 2.573,-5.541 3.067,-6.728c2.771,-0.495 4.156,-1.187 4.156,-1.88c0,-1.286 -2.572,-2.474 -7.817,-3.463c-0.989,-0.198 -1.682,0.198 -1.88,1.088c-3.562,11.28 -8.707,20.68 -15.633,28.2c-0.594,0.792 -0.792,1.386 -0.396,1.781c0.692,0.792 1.484,0.891 2.177,0.198c6.233,-4.749 11.28,-10.389 14.941,-16.722l1.583,0c3.166,3.562 4.947,7.223 5.64,11.181c0.396,2.573 1.484,3.859 3.067,3.859c2.474,0 3.661,-1.187 3.661,-3.661c0,-3.958 -2.968,-7.718 -8.905,-11.379l20.581,0c0.792,0 1.287,-0.198 1.682,-0.693c0.495,-0.791 0.495,-1.484 -0.099,-2.176c-1.286,-1.584 -2.572,-2.969 -3.76,-4.156c-0.791,-0.693 -1.583,-0.594 -2.176,0.198l-3.167,4.353l-16.722,0ZM-306.494,380.299c-0.297,-0.099 -0.593,-0.198 -0.791,-0.198c-0.594,-0.198 -1.089,0.099 -1.583,0.89c-9.499,15.238 -22.857,26.914 -39.876,35.127c-0.891,0.494 -1.188,0.989 -0.792,1.682c0.495,0.791 1.089,1.088 1.979,0.692c17.316,-7.025 31.268,-17.216 41.756,-30.772c8.806,11.181 21.67,20.086 38.491,26.914c0.89,0.395 1.583,0.098 2.077,-0.792c0.594,-1.187 1.287,-2.276 2.276,-3.265c0.891,-0.891 0.693,-1.682 -0.494,-1.979c-17.514,-5.245 -31.07,-12.962 -40.668,-23.055c2.771,-0.297 4.156,-0.891 4.156,-1.682c0,-0.594 -0.891,-1.385 -2.672,-2.276c2.276,-2.474 4.255,-4.947 5.937,-7.619l2.87,0c4.452,4.057 6.827,8.114 7.619,12.171c0.494,2.374 1.583,3.562 3.265,3.562c2.474,0 3.661,-1.287 3.661,-3.76c0,-3.76 -3.463,-7.718 -10.39,-11.973l24.935,0c0.792,0 1.287,-0.198 1.583,-0.693c0.495,-0.791 0.495,-1.484 -0.099,-2.077c-1.286,-1.485 -2.671,-3.068 -4.254,-4.552c-0.792,-0.792 -1.583,-0.693 -2.177,0.099l-3.562,4.749l-21.967,0c0.99,-1.88 1.979,-3.958 2.771,-6.332c2.77,-0.495 4.057,-1.188 4.057,-1.979c0,-1.188 -2.375,-2.276 -7.223,-3.463c-0.99,-0.198 -1.683,0.197 -1.88,1.286c-1.584,7.619 -4.255,14.149 -7.916,19.592l-1.089,-0.297Z" style="fill:#00616a;fill-rule:nonzero;"/><path d="M-176.971,435.907c-6.828,0 -11.775,0.99 -17.019,-1.088c-5.244,-2.177 -5.442,-8.213 -9.4,-11.775c-4.354,-3.859 -9.994,-3.364 -15.436,-1.187c-0.495,0.198 -0.99,-0.396 -0.594,-0.792l21.868,-19.987c2.473,-2.177 3.859,-3.958 3.76,-6.63c-0.099,-3.067 -3.661,-4.156 -6.531,-4.156l-18.701,0c-0.89,-0.099 -0.989,-0.89 -0.099,-1.187c10.39,-3.661 22.461,-7.619 18.899,-15.931c-2.573,-6.134 -12.269,-6.728 -17.81,-6.431c-3.859,0.198 -3.266,6.036 0.296,5.541c3.562,-0.297 10.885,-0.792 13.259,2.573c2.969,4.056 -7.817,8.41 -10.686,9.598c-4.848,2.176 -9.796,3.858 -14.941,5.738c-2.078,0.594 -1.682,3.859 0.693,3.859l28.397,0c1.683,-0.099 1.386,0.891 0.396,1.88c-1.286,1.287 -2.572,2.573 -43.537,41.064c-2.275,2.275 1.287,6.035 3.562,3.859l8.807,-8.213c7.817,-7.025 16.128,-10.291 22.857,-7.817c2.572,1.089 3.463,3.562 4.353,6.036c2.078,5.937 6.036,9.598 12.369,10.884c5.046,0.99 8.806,0.594 15.337,0.594c4.156,0 4.156,-6.432 -0.099,-6.432Z" style="fill:#00616a;fill-rule:nonzero;"/><path d="M-97.219,440.162c-14.843,2.375 -20.186,-13.655 -20.186,-25.627l0,-37.897c0,-5.541 -3.166,-8.609 -8.707,-8.609l-2.87,0c-2.374,0 -2.473,3.76 0,3.76l3.068,0c1.286,0.099 2.177,1.089 2.177,2.276l0,40.766c0,16.03 9.4,33.148 27.21,28.893c2.078,-0.594 1.583,-4.057 -0.692,-3.562Z" style="fill:#00616a;fill-rule:nonzero;"/><path d="M1.827,401.968c10.686,0 13.952,-6.827 14.051,-7.025c1.088,-2.474 -2.474,-4.156 -3.661,-1.781c-0.099,0.198 -2.474,4.749 -10.39,4.749l-11.577,0c-0.297,0 -0.494,-0.198 -0.494,-0.395l0,-28.596c0,-4.156 -5.937,-4.057 -5.937,0.099l0,28.596c0,0.197 -0.198,0.395 -0.396,0.395l-15.931,0c-0.494,0 -0.692,-0.791 -0.099,-0.989c4.849,-2.078 10.885,-4.552 11.775,-11.577c1.979,-12.368 -17.118,-11.676 -24.044,-10.983c-2.87,0.297 -2.573,5.145 0.297,4.947c3.265,-0.198 20.581,-1.979 19.69,5.64c-0.692,7.322 -14.446,11.478 -19.591,12.764c-2.474,0.495 -2.474,4.156 0.198,4.156l27.705,0c0.198,0 0.396,0.198 0.396,0.396l0,21.373c0,0.198 -0.198,0.395 -0.396,0.297c-8.015,-1.188 -16.326,-2.276 -23.253,0.593c-4.551,1.979 -8.311,5.937 -6.53,11.28c1.484,4.255 6.134,6.135 10.191,7.124c2.672,0.693 5.442,0.792 8.213,0.693c5.739,-0.198 13.259,-1.385 16.227,-7.421c0.99,-1.979 1.287,-3.958 1.386,-5.838c0,-0.198 0.296,-0.297 0.494,-0.198c8.807,3.068 12.072,5.739 17.91,9.004c3.76,1.88 6.827,-3.858 3.067,-5.738c-6.332,-3.365 -11.181,-5.64 -20.977,-7.916c-0.198,-0.099 -0.395,-0.297 -0.395,-0.495l0,-22.758c0,-0.198 0.197,-0.396 0.494,-0.396l11.577,0ZM-16.973,433.829c-1.781,3.76 -7.223,5.047 -11.181,5.344c-4.651,0.395 -9.994,-0.297 -13.16,-2.87c-2.672,-2.276 -1.385,-5.937 1.286,-7.619c2.375,-1.583 5.541,-1.979 8.411,-2.078c4.848,-0.198 9.598,0.792 14.941,1.88c0.297,0 0.396,0.198 0.396,0.495c0,1.88 -0.198,3.562 -0.693,4.848Z" style="fill:#00616a;fill-rule:nonzero;"/><path d="M118.091,376.836c0.89,-2.276 -2.573,-4.156 -3.76,-1.782c-0.099,0.198 -2.375,4.75 -10.291,4.75l-18.107,0c-0.198,0 -0.396,-0.198 -0.396,-0.396l0,-10.488c0,-4.255 -6.333,-4.255 -6.333,0l0,10.488c0,0.198 -0.198,0.396 -0.495,0.396l-36.907,0c-2.672,0 -2.672,4.156 0,4.156l36.907,0c0.297,0 0.495,0.099 0.495,0.396l0,13.456c0,0.198 -0.198,0.396 -0.396,0.297c-1.484,-0.297 -3.067,-0.593 -4.65,-0.297c-4.354,0.792 -7.817,3.958 -9.697,7.619c-1.88,3.76 -2.177,8.015 -0.99,11.973c1.188,3.958 4.156,6.926 8.807,7.817c3.562,0.495 7.322,-0.495 9.697,-3.661c0.692,-0.891 1.286,-1.781 1.781,-2.771c0.198,-0.297 0.593,-0.198 0.593,0.099c-0.197,10.39 -7.124,17.811 -15.831,22.956c-1.88,0.891 -0.396,3.859 1.583,2.969c8.905,-4.156 16.722,-10.588 18.998,-20.582c1.583,-6.728 0.693,-15.633 -3.364,-21.273c-0.099,-0.198 -0.198,-0.396 -0.198,-0.594l0,-18.008c0,-0.297 0.198,-0.396 0.396,-0.396l18.107,0c10.587,0 13.853,-6.828 14.051,-7.124ZM81.975,408.004c0.297,3.562 -0.396,8.114 -3.068,11.082c-1.484,1.781 -3.661,2.375 -5.937,1.88c-2.374,-0.495 -3.957,-2.375 -4.551,-4.947c-0.693,-2.672 -0.495,-5.838 0.396,-8.609c0.989,-2.77 3.166,-5.541 6.035,-6.035c4.255,-0.792 6.927,3.265 7.125,6.629Z" style="fill:#00616a;fill-rule:nonzero;"/></g></svg>