<?xml version="1.0" encoding="UTF-8" standalone="no"?><!DOCTYPE svg PUBLIC "-//W3C//DTD SVG 1.1//EN" "http://www.w3.org/Graphics/SVG/1.1/DTD/svg11.dtd"><svg width="709px" height="176px" version="1.1" xmlns="http://www.w3.org/2000/svg" xmlns:xlink="http://www.w3.org/1999/xlink" xml:space="preserve" style="fill-rule:evenodd;clip-rule:evenodd;stroke-linejoin:round;stroke-miterlimit:1.41421;"><g id="phone-title"><g><path d="M621.7,15.927c0.393,-1.032 -0.126,-2.188 -1.157,-2.581l-1.974,-0.751c-1.032,-0.393 -2.188,0.126 -2.581,1.157l-2.497,6.561c-0.393,1.032 0.126,2.188 1.158,2.581l1.973,0.751c1.032,0.393 2.188,-0.126 2.581,-1.157l2.497,-6.561Z" style="fill:#000;"/><path d="M615.243,32.891c0.393,-1.032 -0.126,-2.188 -1.158,-2.581l-1.973,-0.751c-1.032,-0.393 -2.188,0.126 -2.581,1.157l-2.497,6.561c-0.393,1.032 0.126,2.188 1.157,2.581l1.974,0.751c1.032,0.393 2.188,-0.126 2.581,-1.158l2.497,-6.56Z" style="fill:#000;"/><path d="M691.678,65.741c0.393,-1.031 -0.126,-2.188 -1.158,-2.58l-1.973,-0.752c-1.032,-0.392 -2.188,0.126 -2.581,1.158l-3.256,8.555c-0.393,1.031 0.126,2.188 1.157,2.58l1.974,0.752c1.032,0.392 2.188,-0.126 2.581,-1.158l3.256,-8.555Z" style="fill:#000;"/><path d="M701.321,34.909c1.27,-3.337 -0.408,-7.077 -3.745,-8.348l-67.532,-25.706c-3.337,-1.27 -7.078,0.408 -8.348,3.745l-50.8,133.456c-1.27,3.337 0.408,7.078 3.745,8.348l67.531,25.706c3.337,1.27 7.078,-0.408 8.348,-3.745l50.801,-133.456Z" style="fill:#424348;"/><path d="M688.359,50.773c0.589,-1.547 -0.189,-3.282 -1.736,-3.871l-62.296,-23.713c-1.548,-0.589 -3.282,0.189 -3.871,1.737l-36.998,97.195c-0.589,1.548 0.189,3.282 1.737,3.871l62.296,23.713c1.547,0.589 3.282,-0.189 3.871,-1.736l36.997,-97.196Z" style="fill:#bfe3f8;"/><path d="M636.283,33.528c0.393,-1.032 -0.126,-2.188 -1.157,-2.581l-9.346,-3.557c-1.032,-0.393 -2.188,0.126 -2.581,1.157l-3.557,9.346c-0.393,1.032 0.126,2.188 1.157,2.581l9.346,3.557c1.032,0.393 2.188,-0.126 2.581,-1.157l3.557,-9.346Z" style="fill:#f18b00;"/><path d="M628.851,53.053c0.393,-1.031 -0.126,-2.188 -1.158,-2.58l-9.346,-3.558c-1.031,-0.393 -2.187,0.126 -2.58,1.158l-3.558,9.346c-0.392,1.031 0.126,2.188 1.158,2.58l9.346,3.558c1.031,0.392 2.188,-0.126 2.58,-1.158l3.558,-9.346Z" style="fill:#5aab2a;"/><path d="M621.4,72.627c0.393,-1.032 -0.126,-2.188 -1.157,-2.581l-9.346,-3.557c-1.032,-0.393 -2.188,0.126 -2.581,1.157l-3.557,9.346c-0.393,1.032 0.126,2.188 1.157,2.581l9.346,3.557c1.032,0.393 2.188,-0.126 2.581,-1.157l3.557,-9.346Z" style="fill:#b15598;"/><path d="M613.984,92.111c0.392,-1.032 -0.126,-2.188 -1.158,-2.581l-9.346,-3.557c-1.031,-0.393 -2.188,0.126 -2.58,1.157l-3.558,9.346c-0.393,1.032 0.126,2.188 1.158,2.581l9.346,3.557c1.031,0.393 2.188,-0.126 2.58,-1.157l3.558,-9.346Z" style="fill:#006cbb;"/><path d="M604.582,116.808c0.393,-1.031 -0.126,-2.187 -1.157,-2.58l-9.346,-3.558c-1.032,-0.392 -2.188,0.126 -2.581,1.158l-3.557,9.346c-0.393,1.031 0.126,2.188 1.158,2.58l9.345,3.558c1.032,0.393 2.188,-0.126 2.581,-1.158l3.557,-9.346Z" style="fill:#006cbb;"/><path d="M652.312,39.629c0.393,-1.031 -0.126,-2.188 -1.157,-2.58l-9.346,-3.558c-1.032,-0.393 -2.188,0.126 -2.581,1.158l-3.557,9.346c-0.393,1.031 0.126,2.188 1.157,2.58l9.346,3.558c1.032,0.392 2.188,-0.126 2.581,-1.158l3.557,-9.346Z" style="fill:#e20010;"/><path d="M644.88,59.155c0.393,-1.032 -0.126,-2.188 -1.158,-2.581l-9.345,-3.557c-1.032,-0.393 -2.188,0.126 -2.581,1.157l-3.558,9.346c-0.392,1.032 0.126,2.188 1.158,2.581l9.346,3.557c1.031,0.393 2.188,-0.126 2.581,-1.157l3.557,-9.346Z" style="fill:#0094d7;"/><path d="M637.429,78.728c0.393,-1.031 -0.126,-2.188 -1.157,-2.58l-9.346,-3.558c-1.032,-0.392 -2.188,0.126 -2.581,1.158l-3.557,9.346c-0.393,1.031 0.126,2.188 1.157,2.58l9.346,3.558c1.032,0.393 2.188,-0.126 2.581,-1.158l3.557,-9.346Z" style="fill:#ed7400;"/><path d="M630.013,98.212c0.392,-1.031 -0.126,-2.188 -1.158,-2.58l-9.346,-3.558c-1.031,-0.393 -2.188,0.126 -2.58,1.158l-3.558,9.345c-0.393,1.032 0.126,2.188 1.158,2.581l9.346,3.558c1.031,0.392 2.188,-0.126 2.58,-1.158l3.558,-9.346Z" style="fill:#e40011;"/><path d="M620.612,122.91c0.392,-1.032 -0.127,-2.188 -1.158,-2.581l-9.346,-3.557c-1.032,-0.393 -2.188,0.126 -2.581,1.157l-3.557,9.346c-0.393,1.032 0.126,2.188 1.158,2.581l9.345,3.557c1.032,0.393 2.188,-0.126 2.581,-1.157l3.558,-9.346Z" style="fill:#b15598;"/><path d="M668.341,45.731c0.393,-1.032 -0.126,-2.188 -1.157,-2.581l-9.346,-3.557c-1.032,-0.393 -2.188,0.126 -2.581,1.157l-3.557,9.346c-0.393,1.032 0.126,2.188 1.157,2.581l9.346,3.557c1.032,0.393 2.188,-0.126 2.581,-1.157l3.557,-9.346Z" style="fill:#5aab2a;"/><path d="M660.909,65.256c0.393,-1.031 -0.126,-2.188 -1.158,-2.58l-9.345,-3.558c-1.032,-0.393 -2.188,0.126 -2.581,1.158l-3.558,9.345c-0.392,1.032 0.126,2.188 1.158,2.581l9.346,3.558c1.032,0.392 2.188,-0.126 2.581,-1.158l3.557,-9.346Z" style="fill:#ee8eb7;"/><path d="M653.458,84.83c0.393,-1.032 -0.126,-2.188 -1.157,-2.581l-9.346,-3.557c-1.032,-0.393 -2.188,0.126 -2.581,1.157l-3.557,9.346c-0.393,1.032 0.126,2.188 1.157,2.581l9.346,3.557c1.032,0.393 2.188,-0.126 2.581,-1.157l3.557,-9.346Z" style="fill:#5aab2a;"/><path d="M646.042,104.314c0.392,-1.032 -0.126,-2.188 -1.158,-2.581l-9.346,-3.558c-1.031,-0.392 -2.188,0.127 -2.58,1.158l-3.558,9.346c-0.393,1.032 0.126,2.188 1.158,2.581l9.346,3.557c1.031,0.393 2.188,-0.126 2.58,-1.158l3.558,-9.345Z" style="fill:#ee8eb7;"/><path d="M636.641,129.011c0.392,-1.031 -0.126,-2.188 -1.158,-2.58l-9.346,-3.558c-1.032,-0.392 -2.188,0.126 -2.581,1.158l-3.557,9.346c-0.393,1.031 0.126,2.188 1.158,2.58l9.345,3.558c1.032,0.393 2.188,-0.126 2.581,-1.158l3.558,-9.346Z" style="fill:#ee8eb7;"/><path d="M684.37,51.832c0.393,-1.031 -0.126,-2.188 -1.157,-2.58l-9.346,-3.558c-1.032,-0.393 -2.188,0.126 -2.581,1.158l-3.557,9.346c-0.393,1.031 0.126,2.187 1.158,2.58l9.345,3.558c1.032,0.392 2.188,-0.126 2.581,-1.158l3.557,-9.346Z" style="fill:#006cbb;"/><path d="M676.938,71.358c0.393,-1.032 -0.126,-2.188 -1.158,-2.581l-9.345,-3.558c-1.032,-0.392 -2.188,0.127 -2.581,1.158l-3.558,9.346c-0.392,1.032 0.127,2.188 1.158,2.581l9.346,3.557c1.032,0.393 2.188,-0.126 2.581,-1.158l3.557,-9.345Z" style="fill:#f18b00;"/><path d="M669.487,90.931c0.393,-1.031 -0.126,-2.188 -1.157,-2.58l-9.346,-3.558c-1.032,-0.393 -2.188,0.126 -2.581,1.158l-3.557,9.346c-0.393,1.031 0.126,2.188 1.157,2.58l9.346,3.558c1.032,0.392 2.188,-0.126 2.581,-1.158l3.557,-9.346Z" style="fill:#e20010;"/><path d="M662.071,110.415c0.393,-1.032 -0.126,-2.188 -1.158,-2.581l-9.346,-3.557c-1.031,-0.393 -2.188,0.126 -2.58,1.158l-3.558,9.345c-0.392,1.032 0.126,2.188 1.158,2.581l9.346,3.558c1.031,0.392 2.188,-0.126 2.58,-1.158l3.558,-9.346Z" style="fill:#0094d7;"/><path d="M652.67,135.113c0.392,-1.032 -0.126,-2.188 -1.158,-2.581l-9.346,-3.557c-1.031,-0.393 -2.188,0.126 -2.581,1.157l-3.557,9.346c-0.393,1.032 0.126,2.188 1.158,2.581l9.345,3.557c1.032,0.393 2.188,-0.126 2.581,-1.157l3.558,-9.346Z" style="fill:#f39900;"/><path d="M661.662,18.79c1.127,0.429 1.694,1.693 1.265,2.819c-0.429,1.127 -1.692,1.694 -2.819,1.265c-1.127,-0.429 -1.694,-1.692 -1.265,-2.819c0.429,-1.127 1.692,-1.693 2.819,-1.265Z" style="fill:#000;"/><path d="M666.43,31.076c0.225,-0.591 -0.073,-1.254 -0.664,-1.48l-14.417,-5.487c-0.592,-0.226 -1.255,0.072 -1.48,0.664c-0.225,0.591 0.072,1.254 0.664,1.48l14.417,5.487c0.591,0.226 1.254,-0.072 1.48,-0.664Z" style="fill:#000;"/><path d="M614.894,141.654c3.822,1.454 5.743,5.738 4.289,9.559c-1.455,3.822 -5.738,5.743 -9.56,4.289c-3.821,-1.455 -5.743,-5.739 -4.288,-9.56c1.454,-3.821 5.738,-5.743 9.559,-4.288Z" style="fill:none;stroke-width:2px;stroke:#666;"/><path d="M624.327,23.189l61.259,23.319l-88.285,39.247l23.155,-60.829c0.589,-1.547 2.323,-2.326 3.871,-1.737Z" style="fill:#fff;fill-opacity:0.5;"/></g><g transform="matrix(0.677495,-4.72306e-27,2.85825e-27,0.717792,857.543,-1492.71)"><g transform="matrix(1.00651,0,0,1,6.89121,0)"><path d="M-981.011,2130.22c5.448,21.279 17.989,37.52 37.52,48.622c0.925,0.617 1.747,0.411 2.261,-0.514c1.028,-1.233 2.056,-2.467 3.393,-3.495c0.925,-0.822 0.822,-1.645 -0.309,-2.261c-21.175,-10.177 -34.95,-26.11 -41.22,-47.492l38.445,0c0.925,0 1.542,-0.308 1.747,-0.822c0.514,-0.822 0.412,-1.439 -0.102,-2.159c-1.748,-2.056 -3.393,-4.009 -5.243,-5.859c-0.822,-0.72 -1.542,-0.617 -2.261,0.206l-4.421,6.065l-29.091,0c0.206,-3.29 0.206,-5.654 0.206,-7.196l0,-15.728c2.981,-0.925 4.42,-1.85 4.42,-2.878c0,-1.439 -2.981,-2.261 -8.943,-2.673c-1.131,-0.102 -1.748,0.514 -1.748,1.542l0,19.942c0,1.542 -0.102,3.804 -0.205,6.991l-37.212,0c-1.233,0 -1.747,0.514 -1.439,1.233c0.206,0.925 0.822,1.336 1.747,1.336l36.698,0c-2.467,26.213 -15.419,44.099 -38.651,53.762c-1.028,0.411 -1.336,1.234 -0.719,2.056c0.514,0.72 1.131,1.028 2.056,0.72c25.082,-8.121 39.37,-25.185 43.071,-51.398Z" style="fill:#fff;fill-rule:nonzero;"/><path d="M-881.711,2100.21c2.981,-0.925 4.523,-1.85 4.523,-2.878c0,-1.439 -3.084,-2.365 -9.252,-2.673c-1.233,-0.103 -1.747,0.514 -1.747,1.542l0,8.121c0,17.167 -2.879,31.558 -8.43,43.071c-6.167,12.644 -16.652,22.82 -31.558,30.427c-0.925,0.514 -1.336,1.131 -0.822,1.851c0.514,0.719 1.234,1.028 2.159,0.616c13.774,-5.448 24.259,-12.952 31.249,-22.717c6.785,-9.458 11.102,-21.896 13.055,-37.109c1.234,9.148 3.495,17.269 6.785,24.362c5.859,12.747 16.241,23.951 31.25,33.511c0.925,0.514 1.644,0.309 2.261,-0.411c0.925,-1.233 1.953,-2.364 3.392,-3.598c1.028,-0.719 0.925,-1.542 -0.205,-2.158c-28.475,-14.392 -42.66,-37.212 -42.66,-68.565l0,-3.392Z" style="fill:#fff;fill-rule:nonzero;"/><path d="M-746.022,2138.76c-0.617,-7.195 -3.392,-14.597 -8.635,-20.353c-5.551,-6.168 -13.055,-9.046 -20.764,-10.074c-7.71,-1.028 -15.831,-0.103 -23.335,2.878c-9.971,4.009 -18.4,11.513 -22.512,21.587c-3.598,8.429 -4.42,21.793 4.42,27.446c9.869,6.374 20.354,-2.158 25.699,-10.382c5.551,-8.532 8.121,-18.606 8.738,-28.68c0.205,-3.495 0.205,-6.065 0.103,-7.915l0,-1.234c0,-0.205 0.205,-0.411 0.411,-0.411c1.953,0 3.906,0.103 5.859,0.514c6.99,1.234 13.261,4.729 17.27,9.766c4.009,5.14 5.859,11.41 6.064,17.167c-0.102,5.756 -1.233,11.101 -4.009,15.727c-2.672,4.318 -6.27,7.607 -9.971,9.868c-6.476,3.907 -13.569,5.963 -20.353,6.785c-2.159,0.206 -1.748,3.598 0.411,3.392c9.971,-1.028 16.447,-2.775 22.409,-5.962c4.215,-2.261 8.944,-5.654 12.644,-10.896c4.112,-5.654 5.962,-12.438 5.551,-19.017l0,-0.206ZM-786.626,2113.26c-0.103,1.748 -0.103,4.215 -0.411,7.504c-0.925,8.121 -3.084,16.139 -7.401,23.232c-3.29,5.345 -8.943,13.055 -16.242,11.821c-7.401,-1.439 -7.504,-10.896 -6.373,-16.755c2.364,-11.102 10.691,-19.532 19.942,-24.157c3.187,-1.439 6.579,-2.467 10.074,-2.981c0.206,0 0.411,0.205 0.411,0.411l0,0.925Z" style="fill:#fff;fill-rule:nonzero;"/><path d="M-697.194,2117.27c-0.309,0 -0.411,-0.206 -0.411,-0.514c0.102,-3.084 0.308,-6.168 0.308,-9.252l0,-3.289c0,-4.42 -6.887,-4.317 -6.887,0.103c0,1.131 0.103,3.186 0.103,3.186c0,3.084 0,6.168 -0.103,9.252c0,0.308 -0.206,0.514 -0.514,0.514l-15.111,0c-2.57,0 -2.57,3.701 0,3.701l15.008,0c0.206,0 0.411,0.205 0.411,0.514c-0.411,6.373 -1.233,12.643 -2.981,19.017c-2.981,10.485 -7.812,20.25 -15.419,30.221l-0.103,0.103c-2.57,3.29 2.776,7.299 5.243,3.804c7.195,-9.869 12.746,-20.971 16.138,-32.689c2.056,-6.785 2.981,-13.569 3.598,-20.456c0,-0.309 0.206,-0.514 0.411,-0.514l13.878,0c2.364,0 2.364,-3.701 0,-3.701l-13.569,0ZM-650.525,2167.64c-0.103,0 -0.103,-0.103 -0.103,-0.103l-0.72,0c-5.345,0.103 -17.166,0.925 -21.998,-3.084c-5.242,-4.317 -3.7,-11.924 -0.205,-16.653c5.139,-6.99 12.027,-11.924 18.708,-16.755c1.851,-1.337 5.448,-3.598 2.57,-6.271c-5.859,-5.756 -14.802,-7.093 -22.615,-7.298c-2.261,-0.206 -2.57,3.392 -0.308,3.597c6.579,0.72 11.924,2.57 16.858,6.374c0.823,0.616 0.823,1.953 0,2.57c-1.439,1.028 -4.009,2.878 -5.859,4.317c-7.298,5.654 -15.419,12.335 -16.756,22.306c-0.925,6.168 1.851,11.925 7.504,14.7c5.037,2.467 11.308,2.776 16.756,2.776c1.953,0 5.037,0.411 6.887,-0.514c2.673,-1.439 1.953,-5.346 -0.719,-5.962Z" style="fill:#fff;fill-rule:nonzero;"/><path d="M-592.754,2123.75c-1.337,7.813 -3.907,15.317 -8.532,22.615c-0.206,0.103 -0.412,0.103 -0.514,0c-3.084,-3.803 -5.346,-7.915 -7.196,-12.335c-0.103,-0.309 0,-0.514 0.206,-0.72c4.522,-4.112 9.662,-7.401 15.522,-9.971c0.308,0 0.514,0.103 0.514,0.411ZM-605.193,2150.99c-2.364,2.672 -5.551,5.14 -9.354,6.579c-5.654,1.747 -8.429,-1.337 -5.962,-7.607c1.542,-4.215 4.214,-8.635 7.298,-12.027c0.103,-0.206 0.411,-0.103 0.617,0.103c1.953,4.317 4.42,8.532 7.401,12.335c0.103,0.206 0.103,0.411 0,0.617ZM-547.216,2135.67c-1.748,-7.093 -6.682,-13.157 -13.364,-16.447c-7.812,-3.701 -16.858,-4.009 -25.39,-1.85c-0.206,0 -0.411,-0.103 -0.308,-0.309c0,-0.411 0,-0.822 0.102,-1.233c0.309,-3.392 0.514,-6.682 0.514,-10.382c0,-4.215 -6.99,-3.907 -6.579,0.411c0.103,0.822 0.206,2.467 0.206,2.467c0.411,3.392 0.206,6.887 -0.206,10.382c0,0.309 -0.205,0.514 -0.411,0.617c-6.27,2.159 -12.335,5.345 -17.68,9.56c-0.206,0.205 -0.412,0.103 -0.514,-0.103c-0.823,-2.775 -1.44,-5.654 -2.159,-8.635l0,-0.103c-0.72,-3.289 -5.757,-2.055 -5.037,1.131c0.822,3.804 1.747,7.401 3.084,10.999c0,0.309 0,0.514 -0.206,0.72c-5.448,5.551 -10.999,12.541 -12.13,20.764c-0.514,8.532 7.196,10.794 14.289,8.018c3.906,-1.541 7.915,-4.111 10.485,-7.504c0.308,-0.102 0.617,-0.102 0.72,0c2.364,2.467 4.831,4.729 7.709,6.579c2.776,1.953 5.86,-2.261 2.981,-4.214c-2.775,-1.953 -5.14,-4.009 -7.298,-6.271c-0.206,-0.103 -0.206,-0.411 0,-0.617c5.962,-7.915 9.765,-17.372 11.513,-27.96c0,-0.308 0.205,-0.514 0.411,-0.514c7.504,-1.953 16.139,-1.747 23.334,2.467c5.346,3.187 8.327,8.327 9.56,13.672c1.131,5.14 0.309,10.485 -1.13,15.111c-3.393,10.691 -12.952,17.681 -23.952,22.101l-0.102,0.103c-1.953,0.719 -0.72,4.009 1.336,3.289c11.616,-4.215 23.232,-11.102 28.783,-23.334c2.467,-5.654 3.186,-12.644 1.439,-18.915Z" style="fill:#fff;fill-rule:nonzero;"/><path d="M-449.972,2138.76c-0.617,-7.195 -3.392,-14.597 -8.635,-20.353c-5.551,-6.168 -13.055,-9.046 -20.765,-10.074c-7.709,-1.028 -15.83,-0.103 -23.334,2.878c-9.971,4.009 -18.4,11.513 -22.512,21.587c-3.598,8.429 -4.42,21.793 4.42,27.446c9.868,6.374 20.353,-2.158 25.699,-10.382c5.551,-8.532 8.121,-18.606 8.737,-28.68c0.206,-3.495 0.206,-6.065 0.103,-7.915l0,-1.234c0,-0.205 0.206,-0.411 0.411,-0.411c1.953,0 3.907,0.103 5.86,0.514c6.99,1.234 13.26,4.729 17.269,9.766c4.009,5.14 5.86,11.41 6.065,17.167c-0.103,5.756 -1.233,11.101 -4.009,15.727c-2.673,4.318 -6.27,7.607 -9.971,9.868c-6.476,3.907 -13.569,5.963 -20.353,6.785c-2.159,0.206 -1.748,3.598 0.411,3.392c9.971,-1.028 16.447,-2.775 22.409,-5.962c4.215,-2.261 8.943,-5.654 12.644,-10.896c4.112,-5.654 5.962,-12.438 5.551,-19.017l0,-0.206ZM-490.576,2113.26c-0.103,1.748 -0.103,4.215 -0.411,7.504c-0.926,8.121 -3.084,16.139 -7.402,23.232c-3.289,5.345 -8.943,13.055 -16.241,11.821c-7.402,-1.439 -7.504,-10.896 -6.374,-16.755c2.365,-11.102 10.691,-19.532 19.943,-24.157c3.186,-1.439 6.579,-2.467 10.074,-2.981c0.205,0 0.411,0.205 0.411,0.411l0,0.925Z" style="fill:#fff;fill-rule:nonzero;"/></g><g transform="matrix(1.00651,0,0,1,6.80707,0)"><path d="M-955.229,2278.26c-7.607,-9.56 -18.297,-16.55 -30.119,-19.84c-0.205,-0.103 -0.308,-0.411 -0.103,-0.514c7.916,-7.915 12.953,-17.372 13.672,-28.371l0,-0.206c0.103,-1.85 -1.439,-3.7 -3.289,-3.7l-3.907,-0.103l-35.464,0c-1.131,0 -2.056,1.028 -2.056,2.159c0,1.13 0.925,2.158 2.056,2.158l34.334,0c0.719,0 1.233,0.514 1.13,1.234c-1.233,13.98 -10.176,23.848 -21.072,31.866c-6.888,5.14 -14.392,9.355 -21.999,13.261c-4.728,2.261 -9.457,4.831 -14.494,6.784c-2.261,0.925 -1.542,4.318 1.337,3.392c13.569,-5.448 27.446,-11.513 39.37,-20.045c2.159,-1.439 4.215,-3.083 6.168,-4.728c0.205,-0.206 0.514,-0.206 0.719,-0.103c11.411,3.598 21.793,11.102 28.269,21.073c2.878,3.598 8.121,-0.72 5.448,-4.317Z" style="fill:#fff;fill-rule:nonzero;"/><path d="M-930.25,2231.39c-2.878,0 -2.775,4.215 0,4.215l62.5,0c0.616,0 1.028,0.617 0.925,1.233c-4.009,12.233 -15.111,19.017 -26.521,22.718c-2.673,0.925 -5.551,0.617 -8.018,-0.617l-10.794,-5.242c-2.056,-1.028 -3.598,1.953 -1.747,3.084c5.962,3.597 12.027,6.99 17.578,11.101c3.186,2.467 6.476,5.14 8.532,8.738c1.13,2.056 1.336,4.009 1.747,6.27c0.72,4.215 7.401,3.187 6.682,-1.13c-1.439,-8.224 -6.99,-13.775 -13.877,-18.195c-0.206,-0.206 -0.103,-0.514 0.102,-0.617c6.271,-1.131 12.439,-2.981 17.784,-6.681c7.196,-4.729 13.363,-11.719 15.933,-20.457c0.514,-1.953 -0.514,-4.42 -3.187,-4.42l-67.639,0Z" style="fill:#fff;fill-rule:nonzero;"/><path d="M-774.824,2241.88c11.102,0 14.494,-7.093 14.597,-7.401c1.234,-2.364 -2.57,-4.215 -3.803,-1.748c-0.103,0.206 -2.57,4.935 -10.794,4.935l-18.4,0c-0.206,0 -0.411,-0.206 -0.411,-0.514l0,-17.784c0,-4.009 -5.859,-4.009 -5.859,0l0,17.784c0,0.308 -0.206,0.514 -0.412,0.514l-31.249,0c-2.776,0 -2.57,4.214 0,4.214l31.249,0c0.206,0 0.412,0.206 0.412,0.411l0,33.512c0,0.822 -0.926,1.336 -1.645,0.822l-5.345,-3.803c-1.954,-1.44 -4.318,1.439 -2.365,3.186l3.29,2.262c4.009,2.775 6.065,4.42 6.065,7.093c0,0.308 0.102,0.616 0.205,0.822c1.028,3.392 5.654,2.775 5.654,-0.925l0,-42.969c0,-0.205 0.205,-0.411 0.411,-0.411l18.4,0ZM-764.03,2260.38c-3.495,-3.803 -7.607,-6.99 -11.41,-10.279c-1.44,-1.439 -3.907,0.822 -2.365,2.364c3.29,3.701 6.99,7.196 9.766,11.205c1.645,2.261 2.981,4.831 3.392,7.607c0.206,1.233 0,2.467 0.206,3.7c0.514,4.318 7.093,3.392 6.579,-0.925c-0.72,-5.345 -2.57,-9.56 -6.168,-13.672ZM-818.306,2253.39c0,-4.112 -6.27,-4.317 -6.579,-0.103c0,4.729 -0.925,8.635 -3.598,12.541c-2.364,3.393 -5.345,6.374 -8.12,9.458c-1.44,1.747 1.028,3.906 2.569,2.569c3.701,-3.392 7.71,-6.681 10.794,-10.69c3.084,-4.009 4.523,-8.429 4.934,-13.775Z" style="fill:#fff;fill-rule:nonzero;"/><path d="M-727.538,2295.43c0,1.028 0.617,1.645 1.645,1.645l2.57,0c1.028,0 1.542,-0.617 1.542,-1.645l0,-50.883c4.625,4.831 7.812,9.663 9.56,14.494c0.822,2.364 1.953,3.598 3.392,3.598c2.261,0 3.495,-1.234 3.495,-3.701c0,-5.448 -5.551,-11.307 -16.447,-17.578l0,-11.204l16.241,0c0.925,0 1.439,-0.309 1.748,-0.823c0.411,-0.822 0.308,-1.439 -0.206,-2.158c-1.233,-1.748 -2.673,-3.393 -4.317,-5.14c-0.72,-0.925 -1.645,-0.823 -2.262,0.103l-3.7,5.448l-7.504,0l0,-17.373c2.878,-1.13 4.214,-2.056 4.214,-2.878c0,-1.233 -2.672,-1.953 -8.223,-2.261c-1.131,-0.103 -1.748,0.514 -1.748,1.542l0,20.97l-15.522,0c-1.234,0 -1.85,0.514 -1.542,1.336c0.411,0.822 0.925,1.234 1.85,1.234l14.7,0l-0.308,1.233c-3.804,15.831 -9.355,30.016 -17.064,42.249c-0.514,0.925 -0.514,1.542 0.103,2.056c0.822,0.719 1.541,0.617 2.261,-0.309c6.682,-9.046 11.924,-18.708 15.522,-28.885l0,48.93ZM-693.307,2286.8l0,-23.026l28.988,0l0,23.026l-28.988,0ZM-693.307,2237.35l0,-20.867l28.988,0l0,20.867l-28.988,0ZM-664.319,2261.2l-28.988,0l0,-21.176l28.988,0l0,21.176ZM-692.382,2213.91c-1.85,-0.925 -3.495,-1.748 -5.14,-2.364c-1.131,-0.514 -1.85,0 -1.85,1.233l0,82.339c0,1.028 0.514,1.645 1.645,1.645l2.878,0c1.028,0 1.542,-0.617 1.542,-1.645l0,-5.756l28.988,0l0,5.756c0,1.028 0.514,1.645 1.645,1.645l2.672,0c1.131,0 1.645,-0.617 1.645,-1.645l0,-76.582l2.776,-2.056c0.411,-0.309 0.616,-0.617 0.616,-0.925c0,-0.823 -1.542,-2.673 -4.934,-5.551c-0.822,-0.72 -1.645,-0.617 -2.261,0.205l-2.981,3.701l-27.241,0Z" style="fill:#fff;fill-rule:nonzero;"/><path d="M-608.81,2228.31c0.925,0 1.439,-0.205 1.645,-0.719c0.411,-0.823 0.411,-1.439 -0.206,-2.159c-1.233,-1.542 -2.775,-3.084 -4.42,-4.729c-0.822,-0.719 -1.644,-0.719 -2.261,0.103l-4.112,4.934l-26.624,0c-1.131,0 -1.747,0.514 -1.542,1.234c0.309,0.925 0.925,1.336 1.85,1.336l35.67,0ZM-613.744,2254.01c0.823,0 1.336,-0.308 1.748,-0.822c0.616,-0.823 0.616,-1.542 0,-2.262c-1.131,-1.439 -2.467,-2.775 -3.907,-4.214c-0.822,-0.823 -1.644,-0.823 -2.261,0.102l-3.803,4.626l-17.887,0c-1.131,0 -1.747,0.514 -1.439,1.234c0.308,0.925 0.822,1.336 1.85,1.336l25.699,0ZM-614.258,2215.35c0.823,0 1.337,-0.205 1.645,-0.719c0.514,-0.823 0.411,-1.542 -0.206,-2.159c-1.13,-1.439 -2.467,-2.981 -4.214,-4.523c-0.72,-0.72 -1.542,-0.72 -2.262,0.205l-3.803,4.626l-15.111,0c-1.131,0 -1.748,0.411 -1.542,1.234c0.308,0.822 0.822,1.336 1.748,1.336l23.745,0ZM-613.538,2241.16c0.822,0 1.336,-0.206 1.644,-0.617c0.514,-0.822 0.514,-1.542 -0.102,-2.262c-1.131,-1.439 -2.57,-2.981 -4.009,-4.42c-0.823,-0.822 -1.645,-0.822 -2.262,0.103l-3.803,4.626l-17.784,0c-1.131,0 -1.747,0.514 -1.439,1.233c0.308,0.925 0.822,1.337 1.85,1.337l25.905,0ZM-605.52,2278.16c1.85,0 3.7,-1.336 5.551,-4.112c2.467,-3.803 3.906,-9.251 4.42,-16.344c0.103,-0.925 -0.309,-1.542 -0.925,-1.748c-1.028,-0.205 -1.645,0.206 -1.851,1.336c-1.542,6.477 -4.214,11.102 -7.915,13.775c-1.85,1.439 -2.775,2.57 -2.775,3.495c0,2.364 1.13,3.598 3.495,3.598ZM-603.773,2236.02c1.748,0 3.392,-1.336 4.832,-3.804c1.85,-3.289 2.878,-7.504 2.878,-12.849c0,-0.822 0,-2.056 -0.206,-3.392c-0.103,-1.028 -0.411,-1.439 -0.822,-1.542c-1.028,-0.206 -1.748,0.308 -1.85,1.439c-0.72,5.962 -2.673,10.485 -5.962,13.363c-1.542,1.337 -2.262,2.468 -2.262,3.495c0,2.159 1.131,3.29 3.392,3.29ZM-635.434,2267.16l15.111,0l0,20.764l-15.111,0l0,-20.764ZM-620.323,2290.5l0,3.393c0,1.027 0.514,1.644 1.542,1.644l2.467,0c1.131,0 1.645,-0.617 1.645,-1.644l0,-24.774l2.261,-1.645c0.412,-0.308 0.72,-0.719 0.72,-1.131c0,-0.925 -1.542,-2.569 -4.626,-5.139c-0.822,-0.823 -1.644,-0.72 -2.261,0.102l-2.57,3.29l-13.158,0c-1.542,-0.822 -3.187,-1.748 -4.934,-2.57c-1.234,-0.514 -1.953,0 -1.953,1.234l0,32.174c0,1.028 0.514,1.645 1.645,1.645l2.569,0c1.028,0 1.542,-0.617 1.542,-1.645l0,-4.934l15.111,0ZM-577.046,2228.92c-2.262,-2.981 -3.803,-6.373 -4.523,-10.074l0,-8.737c2.467,-0.926 3.701,-1.851 3.701,-2.673c0,-1.234 -2.57,-2.056 -7.71,-2.467c-1.131,-0.103 -1.748,0.514 -1.748,1.542l0,13.671c0,14.392 -7.092,25.185 -21.175,32.484c-0.925,0.616 -1.337,1.13 -0.925,1.747c0.616,0.823 1.233,1.028 2.158,0.72c15.419,-5.654 23.849,-15.522 25.391,-29.811c2.775,9.457 10.074,17.784 21.792,24.979c0.925,0.514 1.645,0.309 2.262,-0.514c0.719,-1.13 1.542,-2.158 2.467,-3.083c0.822,-0.926 0.719,-1.748 -0.411,-2.159c-8.738,-4.009 -15.317,-8.532 -19.84,-13.775c4.934,-3.906 9.354,-8.12 13.158,-12.643c0.514,0.102 1.028,0.102 1.645,0.102c1.953,0 2.878,-0.308 2.878,-1.13c0,-1.028 -1.953,-2.879 -5.962,-5.654c-0.925,-0.72 -1.748,-0.514 -2.262,0.514c-4.317,7.812 -8.018,13.466 -10.896,16.961ZM-578.177,2272.51c-2.261,-4.112 -3.598,-9.251 -3.598,-15.316l0,-8.018c2.57,-0.925 3.804,-1.748 3.804,-2.57c0,-1.234 -2.673,-1.953 -7.813,-2.364c-1.13,-0.103 -1.747,0.513 -1.747,1.541l0,13.672c0,6.99 -1.336,12.952 -3.804,17.887c-3.597,7.092 -10.073,12.746 -19.428,17.063c-1.028,0.514 -1.336,1.131 -0.925,1.851c0.617,0.822 1.234,1.028 2.159,0.719c15.522,-5.448 24.465,-15.008 27.035,-28.679c1.439,6.27 3.7,11.307 7.093,15.316c3.495,4.317 9.046,8.121 16.344,11.41c1.028,0.411 1.748,0.206 2.262,-0.719c0.719,-1.028 1.542,-2.159 2.364,-3.084c0.925,-0.925 0.719,-1.645 -0.514,-2.056c-10.177,-3.598 -17.372,-8.326 -21.69,-14.391c5.757,-4.215 10.794,-8.635 15.214,-13.569c2.775,0 4.112,-0.411 4.112,-1.234c0,-1.131 -1.954,-2.878 -5.757,-5.242c-0.925,-0.514 -1.747,-0.309 -2.261,0.616c-3.701,6.271 -8.018,12.027 -12.85,17.167Z" style="fill:#fff;fill-rule:nonzero;"/><path d="M-524.107,2241.46c-1.13,0 -1.747,0.514 -1.439,1.336c0.411,0.823 0.925,1.234 1.851,1.234l43.071,0c0.822,0 1.336,-0.206 1.747,-0.822c0.411,-0.823 0.309,-1.542 -0.308,-2.262c-1.439,-1.336 -2.981,-2.775 -4.729,-4.317c-0.719,-0.72 -1.542,-0.617 -2.261,0.205l-3.804,4.626l-34.128,0ZM-521.948,2285.87c-3.392,0.103 -8.224,0.206 -14.288,0.309c-1.954,0.103 -3.084,0.822 -2.776,1.953c1.439,5.243 2.878,7.812 4.318,7.812c0.719,0 1.233,-1.233 1.85,-3.597c19.736,-1.748 38.342,-3.598 55.92,-6.065l2.159,-0.309c2.261,2.673 4.215,5.448 5.654,8.327c0.719,1.439 1.747,2.158 3.084,2.158c2.364,0 3.495,-1.336 3.495,-3.906c0,-2.159 -1.44,-4.831 -4.215,-7.812c-4.626,-5.037 -11.821,-9.869 -21.895,-14.7c-0.925,-0.411 -1.542,-0.411 -1.851,0.103c-0.616,0.822 -0.411,1.645 0.412,2.261c5.345,3.598 9.662,7.299 12.952,10.897l-3.187,0.205c-12.952,0.823 -23.746,1.645 -32.175,1.953l-5.756,0.206c0.205,-0.308 0.411,-0.617 0.822,-1.131c3.803,-5.962 7.915,-13.26 12.335,-21.998l41.941,0c0.822,0 1.336,-0.308 1.747,-0.822c0.514,-0.823 0.412,-1.645 -0.205,-2.262c-1.542,-1.85 -3.392,-3.598 -5.346,-5.242l0.103,0.102c-0.719,-0.719 -1.542,-0.616 -2.261,0.206l-4.523,5.448l-66.611,0c-1.337,0 -1.851,0.617 -1.44,1.439c0.514,0.72 1.131,1.131 1.954,1.131l26.932,0l-0.103,0.411l-0.103,0.103c0,0.103 -0.103,0.411 -0.308,1.131c-1.953,6.681 -4.832,13.877 -8.635,21.689ZM-499.95,2209.49c2.878,-0.309 4.42,-0.925 4.42,-1.748c0,-1.233 -2.672,-2.364 -8.018,-3.392c-0.925,-0.206 -1.644,0.103 -2.056,1.028c-8.737,18.914 -22.306,33.717 -40.706,44.613c-0.925,0.514 -1.234,1.131 -0.72,1.748c0.514,0.822 1.234,1.027 2.159,0.616c19.017,-9.251 33.203,-22.306 42.763,-39.062c0.205,-0.411 0.411,-0.719 0.719,-1.131c8.635,13.569 21.998,25.288 39.885,35.156c0.925,0.514 1.644,0.206 2.261,-0.616c0.822,-1.337 1.748,-2.57 2.776,-3.598c0.925,-0.925 0.822,-1.748 -0.309,-2.262c-17.167,-6.99 -31.558,-17.064 -42.557,-30.53l-0.617,-0.822Z" style="fill:#fff;fill-rule:nonzero;"/></g></g><g><clipPath id="_clip1"><polygon points="93.024,-23.741 181.345,123.592 91.261,177.594 2.941,30.261 93.024,-23.741 "/></clipPath><g clip-path="url(#_clip1)"><g opacity="0.4"><path d="M96.741,141.325c-1.552,-2.712 -2.872,-4.886 -3.98,-6.623c-2.985,-4.655 -4.486,-6.153 -5.225,-6.591c-0.202,-0.274 -0.406,-0.551 -0.618,-0.83c0.121,0.234 0.227,0.471 0.342,0.699c-0.017,-0.003 -0.029,-0.005 -0.044,-0.009c-0.257,-0.073 -0.335,0.054 -0.335,0.054c0,0 0.135,0.309 0.344,0.924c0.662,1.972 2.117,7.206 2.702,16.554c-0.858,-3.843 -2.575,-12.943 -4.738,-17.702c-0.256,-0.562 -0.512,-1.057 -0.78,-1.483c-0.394,-0.626 -0.795,-1.091 -1.212,-1.339c0.032,0.191 0.051,0.388 0.078,0.582c0.189,1.342 0.314,2.755 0.384,4.204c0.271,5.947 -0.491,12.396 -2.642,16.243c0.93,-2.454 1.003,-9.371 0.977,-12.711c-2.951,7.021 -0.577,-6.539 -0.785,-8.397c-0.006,-0.048 -0.013,-0.091 -0.023,-0.124c0,0.016 -0.012,0.027 -0.015,0.045c-0.22,0.665 -0.716,1.824 -1.294,2.867c-0.55,0.99 -1.17,1.866 -1.698,2.125c-0.191,0.098 -0.367,0.118 -0.523,0.033c0.376,-0.548 0.693,-1.08 0.98,-1.597c1.091,-1.966 1.543,-3.699 1.485,-5.085c-0.132,-2.988 -2.614,-4.37 -6.111,-2.983c0.319,-0.261 0.62,-0.489 0.905,-0.711c0.443,-0.342 0.842,-0.646 1.204,-0.91c4.286,-3.106 3.212,-1.112 3.099,-4.326c-0.249,-1.597 0.114,-1.402 -0.693,-1.774c-0.222,-0.097 -0.53,-0.238 -0.96,-0.472c-0.19,-0.103 -0.41,-0.226 -0.656,-0.37c-0.141,-0.081 -0.285,-0.167 -0.446,-0.265c-0.624,-0.38 -1.394,-0.892 -2.361,-1.573c0,0 0.807,-0.05 1.764,0.025c0.216,0.017 0.447,0.041 0.674,0.074c1.095,0.155 2.188,0.508 2.414,1.296c0.177,-0.643 0.137,-1.455 -0.051,-2.37c-0.007,-0.028 -0.017,-0.051 -0.016,-0.096c-0.008,-0.04 -0.014,-0.078 -0.025,-0.122c-0.538,-2.378 -2.042,-5.419 -3.686,-8.178c-1.819,-3.06 -3.8,-5.764 -4.796,-6.808c-0.169,-0.148 -0.333,-0.295 -0.508,-0.442c0.108,0.053 0.286,0.205 0.508,0.442c1.611,1.394 3.074,2.85 4.341,4.319c2.259,2.623 3.898,5.277 4.689,7.619c0.238,0.712 0.398,1.389 0.476,2.035c0.018,0.184 0.033,0.379 0.051,0.607c0.003,0.015 -0.001,0.03 -0.001,0.046c0.016,0.16 0.025,0.324 0.037,0.504c0.008,0.152 -0.007,0.458 -0.041,0.82c-0.077,0.735 -0.258,1.738 -0.599,2.357c0.018,0.041 0.033,0.086 0.048,0.122c0.509,1.233 0.827,2.524 0.753,3.398c-0.144,1.628 -0.367,1.532 0.127,1.76c0.087,0.04 0.163,0.097 0.249,0.144c0.014,0.014 0.031,0.02 0.05,0.025c0.235,0.152 0.449,0.324 0.645,0.532c0.061,0.066 0.125,0.136 0.189,0.209c0.686,0.847 1.082,2.008 1.311,3.023c0.065,0.274 0.111,0.527 0.153,0.767c0.048,0.261 0.083,0.496 0.112,0.699c0.063,0.425 0.095,0.706 0.127,0.728c0.094,0.055 0.176,0.112 0.262,0.175c0.103,0.066 0.206,0.142 0.303,0.214c0.134,0.105 0.271,0.211 0.397,0.321c0.322,0.282 0.632,0.601 0.967,1.006c0.259,0.315 0.537,0.678 0.836,1.118c0.063,-0.002 0.121,-0.006 0.185,-0.006c0.358,-0.01 0.775,0.025 1.404,0.595c0.737,0.666 0.54,0.433 0.737,0.542c0.035,0.017 0.128,0.006 0.238,-0.018c0.355,0.518 0.706,0.895 1.2,0.777c0.249,-0.053 0.537,-0.232 0.89,-0.587c0.104,-0.108 0.213,-0.23 0.329,-0.367c0.008,-0.008 0.008,-0.008 0.01,-0.015c0.015,-0.012 0.021,-0.023 0.03,-0.034c-0.051,-0.187 0.003,-0.337 0.095,-0.476c0.238,-0.327 0.78,-0.499 0.92,-0.564c0.365,-0.174 0.596,-0.331 0.743,-0.486c0.179,-0.191 0.237,-0.366 0.249,-0.543c2.311,1.07 4.765,2.485 7.228,4.475c2.331,1.881 4.669,4.285 6.895,7.375c0.507,0.702 1.009,1.432 1.507,2.209c-0.913,-1.096 -2.885,-2.826 -4.996,-4.51c-4.222,-3.378 -8.969,-6.569 -6.763,-4.14c0.546,0.601 1.494,1.533 3.001,2.897c-1.923,-1.067 -4.251,-2.688 -6.176,-4.11c-0.435,-0.32 -0.856,-0.629 -1.234,-0.923c-0.482,-0.356 -0.916,-0.693 -1.287,-0.981c0.275,0.25 0.528,0.497 0.76,0.757c1.708,1.9 2.495,4.337 4.431,9.749c0.76,2.143 1.698,4.741 2.95,7.962c-0.885,-1.615 -1.702,-3.063 -2.467,-4.402ZM68.907,87.423c-0.765,-0.403 -1.46,-0.721 -2.099,-0.967c0.21,-1.029 0.374,-2.13 0.488,-3.287c0.037,-0.396 0.004,-0.819 -0.071,-1.263c1,1.21 1.974,2.414 2.915,3.6c0.378,0.743 0.792,1.562 1.27,2.498c0.763,1.496 1.388,3.075 1.917,4.661c-1.474,-2.044 -3.019,-3.87 -4.42,-5.242ZM56.144,73.086c1.003,7.552 -3.806,-5.348 -4.922,-6.847c-0.03,-0.04 -0.061,-0.075 -0.084,-0.097c0.005,0.013 0.007,0.031 0.009,0.046c0.147,0.687 0.308,1.935 0.334,3.129c0.026,1.131 -0.068,2.199 -0.389,2.695c-0.121,0.177 -0.258,0.289 -0.44,0.289c0.049,-0.664 0.053,-1.28 0.04,-1.872c-0.057,-2.246 -0.536,-3.972 -1.289,-5.137c-1.622,-2.513 -4.457,-2.451 -6.779,0.514c0.149,-0.386 0.285,-0.739 0.418,-1.071c0.212,-0.52 0.406,-0.984 0.585,-1.394c2.128,-4.848 2.211,-2.58 0.482,-5.298c-1.014,-1.25 -0.608,-1.27 -1.487,-1.177c-0.241,0.023 -0.581,0.058 -1.068,0.072c-0.22,0.011 -0.47,0.014 -0.755,0.012c-0.165,0.003 -0.332,0.001 -0.52,-0.004c-0.732,-0.012 -1.658,-0.06 -2.832,-0.16c0,0 0.674,-0.452 1.536,-0.873c0.195,-0.095 0.404,-0.188 0.615,-0.273c1.026,-0.424 2.148,-0.672 2.738,-0.103c-0.172,-0.644 -0.615,-1.33 -1.238,-2.022c-0.021,-0.02 -0.045,-0.037 -0.067,-0.075c-0.023,-0.028 -0.051,-0.059 -0.081,-0.092c-1.664,-1.78 -4.502,-3.644 -7.31,-5.192c-3.119,-1.721 -6.195,-3.054 -7.582,-3.451c-0.222,-0.04 -0.437,-0.09 -0.662,-0.124c0.121,-0.012 0.353,0.028 0.662,0.124c2.096,0.387 4.094,0.907 5.929,1.534c3.276,1.12 6.028,2.58 7.896,4.205c0.563,0.492 1.045,0.998 1.438,1.51c0.108,0.153 0.222,0.317 0.347,0.504c0.011,0.013 0.02,0.023 0.029,0.037c0.091,0.131 0.185,0.266 0.282,0.418c0.088,0.126 0.231,0.395 0.382,0.722c0.305,0.679 0.658,1.636 0.678,2.34c0.039,0.027 0.065,0.056 0.103,0.081c1.061,0.807 1.989,1.764 2.366,2.557c0.7,1.476 0.457,1.503 0.995,1.452c0.098,-0.007 0.194,-0.001 0.286,-0.002c0.02,0.001 0.04,-0.002 0.058,0.001c0.278,0.005 0.552,0.048 0.824,0.128c0.09,0.023 0.182,0.054 0.272,0.086c1.018,0.379 1.946,1.186 2.66,1.946c0.191,0.201 0.356,0.396 0.518,0.583c0.172,0.2 0.319,0.387 0.45,0.547c0.27,0.333 0.441,0.56 0.482,0.564c0.103,0.002 0.209,0.009 0.307,0.017c0.123,0.009 0.248,0.02 0.372,0.035c0.171,0.019 0.341,0.042 0.511,0.074c0.413,0.078 0.841,0.201 1.332,0.38c0.389,0.143 0.811,0.315 1.293,0.539c0.052,-0.031 0.104,-0.062 0.156,-0.096c0.303,-0.188 0.682,-0.371 1.508,-0.196c0.974,0.202 0.692,0.1 0.916,0.096c0.035,-0.001 0.111,-0.06 0.197,-0.14c0.565,0.271 1.053,0.419 1.423,0.073c0.188,-0.177 0.351,-0.479 0.468,-0.961c0.039,-0.148 0.075,-0.306 0.102,-0.485c-0.001,-0.006 0,-0.01 0.003,-0.015c0.005,-0.019 0.004,-0.031 0.008,-0.046c-0.136,-0.136 -0.171,-0.297 -0.157,-0.459c0.039,-0.403 0.418,-0.825 0.508,-0.952c0.228,-0.335 0.343,-0.589 0.396,-0.799c0.058,-0.249 0.018,-0.433 -0.061,-0.592c2.533,-0.242 5.369,-0.257 8.495,0.209c2.966,0.447 6.198,1.338 9.684,2.878c0.788,0.351 1.592,0.728 2.414,1.145c-1.342,-0.485 -3.917,-0.978 -6.588,-1.366c-5.351,-0.779 -11.059,-1.131 -7.929,-0.153c0.769,0.244 2.062,0.564 4.051,0.984c-2.196,0.049 -5.028,-0.175 -7.41,-0.426c-0.537,-0.055 -1.05,-0.112 -1.527,-0.167c-0.596,-0.074 -1.144,-0.141 -1.603,-0.204c0.362,0.077 0.703,0.166 1.035,0.273c2.433,0.779 4.347,2.48 8.751,6.173c1.74,1.46 3.863,3.229 6.57,5.374c-0.978,-0.582 -1.889,-1.116 -2.768,-1.629c-0.379,-0.377 -0.779,-0.794 -1.215,-1.271c-2.637,-2.881 -4.289,-3.459 -5.178,-2.316c-0.696,-0.374 -1.364,-0.727 -1.97,-1.034c-4.927,-2.512 -6.99,-3.044 -7.841,-3.048c-0.317,-0.135 -0.631,-0.269 -0.953,-0.402c0.216,0.142 0.43,0.285 0.647,0.429c-0.019,0.006 -0.03,0.009 -0.047,0.013c-0.248,0.071 -0.258,0.218 -0.258,0.218c0,0 0.268,0.197 0.759,0.627c1.37,1.19 4.518,4.226 8.777,10.148c0.006,0.239 0.015,0.473 0.031,0.696c-3.062,-3.361 -7.681,-8.372 -11.143,-10.813c-0.501,-0.351 -0.976,-0.654 -1.42,-0.883c-0.655,-0.341 -1.237,-0.541 -1.721,-0.545c0.122,0.151 0.242,0.308 0.363,0.462c0.837,1.066 1.663,2.221 2.455,3.435c3.237,4.996 5.837,10.946 5.927,15.352c-0.437,-2.589 -3.87,-8.591 -5.579,-11.464ZM33.432,40.205c-3.981,-4.458 -8.151,-8.155 -9.8,-9.516c1.181,0.224 3.454,1.288 6.116,3.194c0.139,0.099 0.281,0.208 0.421,0.309c1.496,1.105 3.099,2.459 4.694,4.076c1.64,1.66 2.014,3.348 3.24,5.346c0.087,0.145 0.171,0.29 0.271,0.441c0.683,1.017 1.836,2.819 2.742,4.361c-0.926,-0.059 -0.841,1.148 -0.692,1.924c-0.555,-0.835 -1.309,-1.843 -2.188,-2.931c-1.349,-1.659 -2.995,-3.51 -4.735,-5.209c-5.993,-5.85 -14.21,-13.63 -0.069,-1.995ZM43.645,49.169c-0.042,-0.125 -0.25,-0.29 -0.477,-0.461c-0.421,-0.319 -0.927,-0.651 -0.675,-0.764c0.098,-0.039 0.177,-0.067 0.269,-0.1c2.042,-0.736 1.004,1.664 0.883,1.325ZM32.942,19.716c1.856,1.898 3.375,3.825 4.627,5.715c1.407,2.119 2.485,4.189 3.3,6.118c2.578,6.052 2.69,10.687 3.077,10.937c0.995,-10.209 -3.057,-20.836 -4.745,-24.631c-1.065,-2.069 -0.803,-1.808 0,0c0.084,0.163 0.168,0.329 0.27,0.52c1.993,1.781 6.207,12.889 6.964,16.1c0.356,1.511 0.184,-6.807 0.406,-4.482c-0.086,-0.846 0.551,1.441 0.767,4.746c0.013,0.219 0.025,0.442 0.034,0.669c0.036,0.017 0.066,0.041 0.101,0.061c0.38,0.242 0.709,0.651 0.714,0.622c0.563,5.84 1.45,-0.061 2.537,2.432c1.749,-4.11 2.25,-13.787 2.155,-16.124c1.805,5.248 1.028,11.231 -0.41,16.326c-0.795,2.81 -1.787,5.352 -2.663,7.352c-0.092,0.208 -0.177,0.403 -0.265,0.596c-0.737,-0.254 -1.25,-1.121 -1.25,-1.121c0,0 -0.195,-0.101 -0.457,-0.25c-0.056,-0.03 -0.121,-0.064 -0.178,-0.101c-0.115,-0.065 -0.236,-0.133 -0.357,-0.201c-0.136,-0.078 -0.268,-0.155 -0.389,-0.229c-0.138,-0.08 -0.31,-0.048 -0.498,0.027c-0.313,0.117 -0.686,0.347 -1.068,0.397c0.34,0.205 0.642,0.548 0.811,0.826c0.066,0.104 0.117,0.205 0.137,0.276c0.067,0.228 0.539,0.526 1.036,0.822c0.274,0.164 0.556,0.327 0.781,0.473c0.627,0.413 -0.299,1.242 -0.299,1.242c-0.05,-0.046 -0.233,-0.176 -0.46,-0.346c-0.54,-0.401 -1.314,-1.048 -1.141,-1.51c0.079,-0.209 0.003,-0.4 -0.149,-0.562c-0.305,-0.328 -0.922,-0.532 -1.208,-0.546c-0.407,-0.024 -0.728,-0.725 -0.16,-0.826c-0.01,-0.011 -0.026,-0.011 -0.031,-0.02c-0.907,-0.692 -2.369,0.229 -2.743,0.734c-0.014,0.003 -0.029,0.005 -0.042,0.01c-0.012,0.001 -0.027,0.003 -0.04,0.008c-0.037,0.044 -0.075,0.099 -0.109,0.148c-0.065,-0.497 -0.137,-1 -0.222,-1.514c-0.45,-2.85 -1.111,-5.901 -1.919,-8.197c-0.367,-2.12 -0.759,-3.918 -1.315,-5.676c-1.01,-3.171 -2.571,-6.223 -5.599,-10.821ZM49.865,47.228c0,0 0.93,-0.404 1.273,0.029c0.035,0.043 0.065,0.098 0.095,0.154c0.282,0.507 0.472,1.453 0.822,1.594c0,0 -0.798,-0.249 -1.256,-0.619c-0.169,-0.138 -0.291,-0.289 -0.312,-0.452c-0.064,-0.606 -0.622,-0.706 -0.622,-0.706ZM47.117,49.507c0.074,0.033 0.246,-0.09 0.52,-0.113c0.216,-0.018 0.494,0.026 0.852,0.277c0.253,0.187 0.385,0.462 0.461,0.742c0.144,0.597 0.002,1.234 0.002,1.234c-0.076,-0.031 -0.148,-0.07 -0.229,-0.111c-0.387,-0.209 -0.819,-0.514 -1.068,-0.886c-0.069,-0.105 -0.132,-0.221 -0.164,-0.339c-0.176,-0.612 -0.508,-0.867 -0.374,-0.804ZM46.214,55.983c-0.022,-0.015 -0.037,-0.029 -0.061,-0.037c-0.717,-0.505 -1.13,-0.858 -1.544,-1.005c-0.044,-0.015 -0.093,-0.037 -0.138,-0.049c0,0 0.044,0.003 0.113,0.006c0.111,0.01 0.309,0.026 0.54,0.044c0.391,0.03 0.856,0.064 1.074,0.093c0.414,0.052 0.858,1.522 0.016,0.948ZM62.525,31.847c-2.363,7.325 -2.966,10.703 -5.232,13.431c2.02,-1.977 3.553,-3.467 4.72,-4.604c4.468,-4.342 3.496,-3.328 3.1,-2.912c-0.251,0.262 -2.615,3.189 -4.938,6.076c-2.353,2.929 -4.658,5.809 -4.658,5.809c0,0 6.908,-7.631 9.852,-9.233l-4.917,6.192c0,0 7.817,-5.21 10.412,-7.915c-6.909,7.656 -9.527,11.058 -9.527,11.058c0,0 6.934,-2.88 7.159,-2.472c0.017,0.028 0.007,0.069 -0.05,0.129c-0.514,0.602 -4.146,3.245 -6.807,5.121c2.799,-1.694 7.247,-3.983 11.826,-4.976c1.613,-0.35 3.233,-0.523 4.813,-0.471c0.009,0.016 0.018,0.03 0.028,0.047c-3.229,0.716 -6.174,1.741 -8.766,2.838c-1.251,0.529 -2.421,1.068 -3.502,1.604c-2.879,1.427 -5.135,2.782 -6.625,3.56c-0.169,-0.196 -0.37,-0.41 -0.599,-0.669c-0.008,-0.002 -0.012,-0.009 -0.015,-0.013l-0.002,0.001c0.015,-0.028 0.024,-0.056 0.04,-0.082c0.133,-0.216 0.171,-0.402 0.152,-0.566c-0.035,-0.346 -0.275,-0.62 -0.361,-0.923c-0.458,-1.664 -2.912,-0.234 -2.591,-1.282c0.171,-0.556 -0.377,-1.054 -0.926,-1.395c-0.228,-0.141 -0.458,-0.259 -0.635,-0.341c-0.192,-0.086 -0.325,-0.137 -0.325,-0.137c0.17,-1.223 -1.091,-3.247 -2.466,-3.352c-0.284,-0.021 -0.571,0.033 -0.854,0.199c-0.284,0.167 -0.56,0.202 -0.812,0.158c2.955,-4.756 4.741,-9.957 6.329,-13.783c0.031,0.212 0.049,0.444 0.052,0.694c0.074,3.617 -2.463,10.961 -2.463,10.961c0,0 5.821,-6.366 8.588,-12.752c0.347,-1.077 0.728,-2.231 1.16,-3.486c-0.244,1.136 -0.651,2.312 -1.16,3.486ZM85.569,40.583c0.525,0.598 1.016,1.226 1.491,1.87c-0.568,-0.202 -1.137,-0.39 -1.728,-0.492c-0.713,-0.496 -1.408,-0.948 -2.054,-1.323c-1.509,-0.36 -2.709,-0.487 -3.659,-0.437c0.874,-1.632 1.483,-3.054 2.082,-4.105c0.871,1.102 2.079,2.456 3.868,4.487ZM91.739,37.28c0.095,0.116 0.188,0.245 0.281,0.368c1.014,1.314 2.058,2.868 3.029,4.642c0.999,1.827 0.901,3.367 1.465,5.379c0.037,0.147 0.075,0.29 0.125,0.442c0.335,1.044 0.878,2.871 1.279,4.414c-0.782,-0.278 -1.001,0.779 -1.065,1.482c-0.274,-0.851 -0.67,-1.9 -1.158,-3.051c-0.746,-1.755 -1.708,-3.742 -2.784,-5.628c-3.699,-6.485 -8.835,-15.17 0.434,-1.726c-2.316,-4.801 -4.991,-8.992 -6.067,-10.562c0.958,0.479 2.64,1.948 4.461,4.24ZM97.955,25.912c1.126,2.086 1.952,4.109 2.567,6.039c0.684,2.16 1.097,4.201 1.328,6.055c0.721,5.821 -0.322,9.821 -0.048,10.129c3.356,-8.508 2.489,-18.613 1.978,-22.284c-0.41,-2.03 -0.252,-1.745 0,0c0.029,0.162 0.064,0.326 0.098,0.516c1.276,2.016 2.158,12.574 2.022,15.515c-0.066,1.381 1.825,-5.796 1.448,-3.747c0.137,-0.746 0.118,1.369 -0.508,4.26c-0.046,0.19 -0.09,0.383 -0.135,0.579c0.024,0.024 0.048,0.054 0.075,0.076c0.263,0.302 0.444,0.736 0.456,0.713c-0.949,5.144 1.258,0.306 1.576,2.71c2.509,-3.1 5.316,-11.272 5.806,-13.299c0.26,4.945 -1.872,9.882 -4.359,13.897c-1.37,2.214 -2.846,4.152 -4.087,5.649c-0.127,0.156 -0.253,0.302 -0.373,0.447c-0.569,-0.399 -0.796,-1.269 -0.796,-1.269c0,0 -0.142,-0.135 -0.33,-0.326c-0.041,-0.042 -0.085,-0.083 -0.131,-0.128c-0.083,-0.085 -0.167,-0.172 -0.256,-0.262c-0.095,-0.1 -0.191,-0.202 -0.276,-0.291c-0.096,-0.102 -0.252,-0.117 -0.434,-0.1c-0.3,0.026 -0.672,0.131 -1.011,0.082c0.24,0.261 0.412,0.628 0.491,0.903c0.033,0.108 0.051,0.202 0.05,0.27c0.003,0.212 0.334,0.585 0.687,0.96c0.193,0.21 0.397,0.417 0.553,0.598c0.436,0.508 -0.564,0.992 -0.564,0.992c-0.026,-0.054 -0.157,-0.209 -0.306,-0.41c-0.366,-0.476 -0.871,-1.218 -0.608,-1.573c0.119,-0.164 0.1,-0.344 0.013,-0.522c-0.184,-0.355 -0.664,-0.681 -0.906,-0.765c-0.34,-0.119 -0.441,-0.799 0.073,-0.746c-0.012,-0.009 -0.02,-0.017 -0.027,-0.029c-0.602,-0.814 -2.088,-0.379 -2.533,-0.04c-0.011,-0.002 -0.027,-0.002 -0.039,-0.002c-0.011,-0.002 -0.023,-0.005 -0.031,-0.003c-0.048,0.032 -0.091,0.067 -0.137,0.101c0.067,-0.442 0.129,-0.892 0.186,-1.35c0.312,-2.559 0.494,-5.333 0.366,-7.501c0.206,-1.908 0.311,-3.545 0.266,-5.191c-0.086,-2.965 -0.678,-5.965 -2.144,-10.653ZM114.647,43.608c-0.823,3.121 -4.8,8.793 -4.8,8.793c0,0 6.551,-4.03 10.49,-8.823c0.561,-0.838 1.174,-1.738 1.856,-2.709c-0.493,0.914 -1.128,1.825 -1.856,2.709c-3.824,5.698 -5.167,8.447 -7.783,10.229c2.218,-1.199 3.902,-2.102 5.184,-2.791c4.893,-2.627 3.81,-1.994 3.368,-1.735c-0.278,0.163 -3.023,2.093 -5.722,3.995c-2.738,1.935 -5.423,3.842 -5.423,3.842c0,0 7.797,-4.85 10.709,-5.498l-5.732,4.097c0,0 7.985,-2.542 10.874,-4.226c-7.805,4.867 -10.883,7.14 -10.883,7.14c0,0 6.65,-0.765 6.747,-0.364c0.006,0.032 -0.016,0.064 -0.077,0.1c-0.589,0.392 -4.352,1.767 -7.095,2.724c2.813,-0.766 7.19,-1.638 11.361,-1.364c1.542,0.101 3.058,0.351 4.455,0.828c-3.023,-0.196 -5.861,-0.036 -8.416,0.276c-1.196,0.146 -2.338,0.323 -3.394,0.515c-2.818,0.518 -5.082,1.125 -6.553,1.429c-0.097,-0.21 -0.216,-0.445 -0.352,-0.721c-0.003,-0.005 -0.006,-0.01 -0.009,-0.014l-0.002,-0.005c0.024,-0.018 0.035,-0.037 0.059,-0.055c0.163,-0.155 0.24,-0.303 0.271,-0.453c0.052,-0.302 -0.092,-0.596 -0.089,-0.878c0.016,-1.539 -2.438,-0.914 -1.905,-1.735c0.285,-0.435 -0.066,-0.994 -0.452,-1.42c-0.163,-0.181 -0.329,-0.336 -0.461,-0.449c-0.144,-0.124 -0.24,-0.198 -0.24,-0.198c0.448,-1.006 -0.144,-3.052 -1.295,-3.482c-0.242,-0.088 -0.498,-0.11 -0.785,-0.037c-0.282,0.073 -0.526,0.034 -0.731,-0.063c3.701,-3.358 6.508,-7.377 8.81,-10.268c-0.023,0.19 -0.069,0.396 -0.129,0.611ZM129.544,66.684c2.63,0.868 4.922,2.029 6.633,3.519c-5.701,-2.891 -13.146,-2.779 -15.765,-3.395c4.107,1.234 5.986,2.802 9.839,4.432c-4.08,-1.06 -13.866,-3.235 -17.975,-3.641c-0.074,-0.24 -0.171,-0.472 -0.047,-0.792c0.076,-0.203 0.119,-0.372 0.15,-0.522c0.287,-1.455 -1.401,-0.851 -0.857,-1.637c0.042,-0.064 0.095,-0.13 0.168,-0.21c0.548,-0.615 0.539,-1.018 0.3,-1.581c17.498,-0.829 5.088,0.669 1.845,1.751c-0.025,0.012 -0.05,0.018 -0.075,0.029c5.485,-0.111 11.162,0.514 15.784,2.047ZM104.218,63.296c0,0 -0.407,-0.691 -0.684,-1.221c-0.058,-0.109 -0.113,-0.216 -0.155,-0.303c-0.042,-0.074 -0.073,-0.142 -0.091,-0.188c-0.096,-0.278 0.645,-0.32 1.067,-0.142c0.156,0.063 0.27,0.157 0.277,0.281c0.009,0.1 -0.011,0.237 -0.039,0.381c-0.108,0.518 -0.375,1.192 -0.375,1.192ZM108.226,65.193c-0.369,-0.098 -0.516,-0.236 -0.567,-0.349c-0.056,-0.104 -0.027,-0.188 -0.027,-0.188c-0.489,-0.081 -1.136,-0.676 -1.431,-1.061c-0.162,-0.213 -0.217,-0.368 -0.064,-0.326c0.158,0.04 0.448,0.023 0.756,0.01c0.529,-0.023 1.12,-0.033 1.229,0.288c0.101,0.284 0.344,0.828 0.412,1.219c0.047,0.287 0.001,0.487 -0.308,0.407ZM109.288,62.747c0.075,-0.045 0.12,-0.2 0.134,-0.378c0.01,-0.095 0.012,-0.192 0.008,-0.295c-0.015,-0.265 -0.073,-0.511 -0.181,-0.542c-0.223,-0.058 -1.42,-0.643 -1.237,-0.657c0.182,-0.01 0.295,-1.122 0.921,-0.536c0.628,0.584 0.576,1.563 0.751,1.701c0.013,0.005 0.038,0.015 0.058,0.026c0.072,0.03 0.18,0.061 0.314,0.099c0.363,0.105 0.842,0.281 0.772,0.776c-0.102,0.725 -0.408,1.093 -0.408,1.093c-0.335,-0.089 -1.343,-1.164 -1.132,-1.287ZM103.927,55.413c0.176,0.224 0.221,0.49 0.214,0.75c-0.019,0.544 -0.298,1.059 -0.298,1.059c-0.051,-0.049 -0.112,-0.102 -0.169,-0.154c-0.278,-0.273 -0.576,-0.641 -0.698,-1.021c-0.034,-0.11 -0.059,-0.22 -0.057,-0.33c-0.001,-0.571 -0.224,-0.868 -0.125,-0.783c0.056,0.046 0.231,-0.014 0.469,0.031c0.194,0.037 0.425,0.145 0.664,0.448ZM100.435,60.265c-0.018,-0.015 -0.028,-0.031 -0.042,-0.049c-0.498,-0.608 -0.762,-1.011 -1.083,-1.237c-0.039,-0.022 -0.066,-0.056 -0.105,-0.074c0,0 0.04,0.014 0.093,0.033c0.094,0.033 0.26,0.093 0.454,0.166c0.326,0.123 0.715,0.267 0.899,0.345c0.343,0.145 0.362,1.519 -0.216,0.816ZM106.227,54.877c-0.108,-0.159 -0.184,-0.317 -0.156,-0.462c0.089,-0.538 -0.359,-0.758 -0.359,-0.758c0,0 0.896,-0.119 1.082,0.334c0.018,0.047 0.03,0.104 0.046,0.158c0.116,0.502 0.048,1.363 0.312,1.569c0,0 -0.62,-0.411 -0.925,-0.841ZM99.215,52.463c0.094,-0.015 0.172,-0.017 0.255,-0.022c1.932,-0.133 0.454,1.672 0.432,1.353c-0.008,-0.119 -0.143,-0.313 -0.295,-0.513c-0.284,-0.378 -0.631,-0.786 -0.392,-0.818ZM116.854,71.577c0.606,0.394 1.635,0.987 3.24,1.838c-1.905,-0.499 -4.273,-1.388 -6.253,-2.189c-0.444,-0.175 -0.871,-0.35 -1.266,-0.519c-0.497,-0.206 -0.944,-0.398 -1.327,-0.564c0.291,0.151 0.561,0.315 0.82,0.485c1.894,1.269 3.12,3.197 5.988,7.443c1.133,1.677 2.519,3.713 4.314,6.222c-1.123,-1.197 -2.148,-2.272 -3.108,-3.257c-1.94,-1.995 -3.559,-3.588 -4.903,-4.834c-3.608,-3.367 -5.244,-4.327 -5.975,-4.54c-0.237,-0.193 -0.472,-0.384 -0.719,-0.578c0.156,0.175 0.299,0.351 0.451,0.525c-0.014,0.002 -0.024,0.002 -0.04,0.001c-0.235,-0.002 -0.276,0.121 -0.276,0.121c0,0 0.183,0.235 0.499,0.726c1.008,1.553 3.426,5.751 6.004,13.7c-1.591,-3.133 -5.089,-10.609 -8.017,-14.246c-0.344,-0.426 -0.677,-0.801 -1.002,-1.107c-0.475,-0.453 -0.929,-0.768 -1.34,-0.889c0.066,0.158 0.13,0.324 0.196,0.486c0.46,1.119 0.881,2.313 1.259,3.549c0.731,2.386 1.278,4.912 1.557,7.328c-0.38,0.1 -0.766,0.233 -1.16,0.395c-0.359,-1.636 -0.755,-3.202 -1.048,-4.304c-0.994,6.719 -1.953,-5.52 -2.541,-7.077c-0.015,-0.045 -0.033,-0.082 -0.047,-0.105c0.003,0.011 -0.003,0.027 -0.004,0.037c-0.043,0.626 -0.213,1.737 -0.485,2.768c-0.253,0.975 -0.598,1.868 -0.994,2.214c-0.14,0.123 -0.292,0.185 -0.447,0.144c0.206,-0.561 0.362,-1.089 0.496,-1.6c0.505,-1.937 0.513,-3.538 0.156,-4.719c-0.773,-2.553 -3.223,-3.195 -5.94,-1.224c0.221,-0.292 0.426,-0.562 0.621,-0.817c0.31,-0.393 0.592,-0.744 0.846,-1.049c3.014,-3.636 2.526,-1.671 1.713,-4.427c-0.561,-1.32 -0.212,-1.233 -0.987,-1.375c-0.158,-0.03 -0.388,-0.074 -0.666,-0.137c0.97,-0.725 1.55,-1.68 0.313,-2.77c-0.049,-0.118 -0.073,-0.222 -0.131,-0.34c-0.015,-0.02 -0.032,-0.038 -0.04,-0.078c-0.015,-0.029 -0.032,-0.064 -0.046,-0.097c-0.988,-1.936 -2.964,-4.231 -4.993,-6.248c-0.459,-0.456 -0.919,-0.893 -1.368,-1.313c0.091,-0.077 0.181,-0.15 0.289,-0.231c0.147,-0.107 0.265,-0.213 0.377,-0.318c2.409,1.713 4.33,3.569 5.489,5.354c0.365,0.56 0.655,1.114 0.866,1.652c0.055,0.155 0.112,0.325 0.177,0.513c0.004,0.017 0.011,0.029 0.014,0.04c0.041,0.138 0.092,0.276 0.138,0.427c0.041,0.132 0.099,0.394 0.145,0.715c0.099,0.656 0.165,1.564 0.01,2.174c0.027,0.029 0.046,0.062 0.069,0.093c0.715,0.954 1.271,1.999 1.401,2.774c0.238,1.437 0.02,1.402 0.503,1.489c0.082,0.015 0.16,0.044 0.241,0.067c0.017,0.008 0.036,0.007 0.05,0.014c0.237,0.075 0.46,0.177 0.675,0.311c0.07,0.043 0.138,0.092 0.209,0.142c0.779,0.574 1.38,1.497 1.806,2.32c0.114,0.223 0.211,0.433 0.304,0.629c0.094,0.215 0.181,0.409 0.25,0.578c0.148,0.352 0.237,0.592 0.271,0.601c0.088,0.03 0.174,0.061 0.26,0.093c0.107,0.035 0.211,0.075 0.313,0.122c0.137,0.058 0.282,0.118 0.417,0.19c0.336,0.166 0.676,0.377 1.051,0.651c0.297,0.218 0.615,0.467 0.974,0.779c0.054,-0.013 0.104,-0.03 0.159,-0.045c0.305,-0.087 0.673,-0.15 1.343,0.201c0.783,0.412 0.566,0.258 0.759,0.308c0.032,0.01 0.108,-0.023 0.204,-0.071c0.416,0.37 0.799,0.616 1.204,0.411c0.206,-0.107 0.415,-0.325 0.637,-0.71c0.066,-0.113 0.136,-0.242 0.205,-0.388c0.003,-0.005 0.006,-0.01 0.008,-0.018c0.007,-0.01 0.011,-0.019 0.016,-0.032c-0.084,-0.151 -0.075,-0.296 -0.021,-0.434c0.134,-0.336 0.562,-0.602 0.666,-0.69c0.281,-0.229 0.442,-0.418 0.534,-0.585c0.114,-0.202 0.126,-0.369 0.093,-0.525c2.237,0.415 4.67,1.095 7.241,2.264c2.43,1.114 4.979,2.666 7.589,4.843c0.593,0.5 1.188,1.012 1.788,1.571c-1.029,-0.743 -3.115,-1.794 -5.308,-2.784c-4.402,-1.981 -9.207,-3.685 -6.766,-2.074ZM114.469,93.358c-1.56,0.006 -3.658,0.453 -6.253,1.507c1.339,-1.281 2.588,-3.505 3.618,-6.117c0.128,-0.329 0.204,-0.697 0.251,-1.099c0.852,1.954 1.656,3.882 2.384,5.709ZM89.871,109.282c-0.075,-0.205 -0.109,-0.395 -0.045,-0.548c0.253,-0.558 -0.176,-0.923 -0.176,-0.923c0,0 1.008,0.121 1.083,0.667c0.006,0.053 0.007,0.12 0.002,0.18c-0.01,0.584 -0.328,1.493 -0.094,1.797c0,0 -0.563,-0.624 -0.77,-1.173ZM81.209,111.757c0.095,0.068 0.261,0.179 0.445,0.311c0.326,0.223 0.71,0.491 0.886,0.625c0.329,0.256 -0.032,1.753 -0.463,0.826c-0.014,-0.023 -0.02,-0.039 -0.033,-0.066c-0.369,-0.791 -0.548,-1.309 -0.832,-1.643c-0.031,-0.036 -0.059,-0.083 -0.088,-0.11c0,0 0.036,0.023 0.085,0.057ZM86.127,108.388c0.041,0.064 0.252,0.043 0.5,0.163c0.197,0.096 0.417,0.277 0.598,0.673c0.126,0.291 0.103,0.593 0.022,0.874c-0.175,0.581 -0.622,1.065 -0.622,1.065c-0.045,-0.065 -0.094,-0.135 -0.142,-0.215c-0.223,-0.373 -0.444,-0.853 -0.471,-1.303c-0.01,-0.122 0,-0.256 0.027,-0.375c0.159,-0.618 0.002,-1.003 0.088,-0.882ZM81.482,94.116c0.092,1.518 -0.195,2.881 -0.162,4.63c0.007,0.171 0.005,0.339 0.015,0.515c0.076,1.228 0.159,3.365 0.163,5.15c-0.772,-0.521 -1.302,0.57 -1.568,1.314c-0.058,-1.003 -0.199,-2.25 -0.407,-3.635c-0.324,-2.117 -0.817,-4.541 -1.46,-6.892c-0.194,-0.723 -0.401,-1.474 -0.607,-2.222c1.472,0.8 2.839,1.12 4.026,1.14ZM80.417,77.535c-0.108,0.321 -0.204,0.64 -0.31,0.965c-0.973,-0.905 -2.389,-2.134 -4.109,-3.532c-0.113,-0.114 -0.225,-0.232 -0.343,-0.35c1.668,0.957 3.279,1.935 4.762,2.917ZM91.081,76.084c-0.6,-1.287 -1.18,-2.345 -1.744,-3.238c0.708,0.147 1.435,0.295 2.178,0.443c-0.178,1.045 -0.285,2.023 -0.31,2.934c-0.038,-0.031 -0.07,-0.059 -0.108,-0.091c-0.007,-0.015 -0.01,-0.032 -0.016,-0.048ZM100.582,80.741c0.006,1.762 0.062,3.484 0.188,5.091c-1.309,1.692 -2.748,3.764 -4.227,6.042c2.11,-3.956 3.509,-7.629 3.651,-9.997c0.015,-0.242 0.016,-0.485 0.028,-0.725c0.123,-0.131 0.257,-0.237 0.36,-0.411ZM84.386,53.467c-0.905,-0.083 -1.831,-0.131 -2.773,-0.141c0.664,-0.197 1.245,-0.373 1.788,-0.538c0.333,0.253 0.662,0.481 0.985,0.679ZM87.724,43.422c0.175,0.255 0.365,0.509 0.532,0.77c-0.233,-0.196 -0.467,-0.375 -0.7,-0.561c0.065,-0.067 0.12,-0.139 0.168,-0.209ZM59.475,55.207c18.613,-6.293 5.691,-0.848 2.532,1.32c-0.025,0.018 -0.055,0.036 -0.073,0.05c5.876,-1.808 12.191,-2.887 17.644,-2.663c3.103,0.128 5.933,0.673 8.237,1.753c-7.036,-1.362 -15.023,1.06 -18.044,1.202c4.748,0.065 7.262,1.144 11.804,1.718c-0.01,0.01 -0.021,0.019 -0.03,0.031c-4.827,0.126 -15.799,0.798 -20.302,1.614c-0.15,-0.233 -0.327,-0.455 -0.291,-0.841c0.02,-0.239 0.015,-0.434 0,-0.603c-0.14,-1.66 -1.773,-0.486 -1.43,-1.506c0.03,-0.078 0.066,-0.167 0.116,-0.28c0.401,-0.828 0.268,-1.258 -0.163,-1.795ZM54.107,57.237c0.564,-0.188 1.2,-0.384 1.416,-0.076c0.195,0.282 0.627,0.796 0.817,1.192c0.146,0.296 0.153,0.528 -0.201,0.539c-0.429,0.008 -0.627,-0.099 -0.723,-0.205c-0.091,-0.099 -0.085,-0.195 -0.085,-0.195c-0.551,0.066 -1.437,-0.374 -1.87,-0.702c-0.239,-0.182 -0.344,-0.33 -0.165,-0.335c0.178,-0.001 0.486,-0.109 0.811,-0.218ZM51.231,58.08c0,0 -0.651,-0.618 -1.117,-1.102c-0.092,-0.101 -0.186,-0.198 -0.258,-0.276c-0.063,-0.074 -0.118,-0.134 -0.152,-0.184c-0.193,-0.264 0.59,-0.539 1.101,-0.481c0.191,0.02 0.339,0.087 0.388,0.221c0.037,0.105 0.061,0.257 0.074,0.422c0.047,0.59 -0.036,1.4 -0.036,1.4ZM56.11,54.625c-0.261,0.007 -1.732,-0.254 -1.538,-0.323c0.195,-0.069 -0.027,-1.302 0.83,-0.864c0.858,0.437 1.105,1.508 1.335,1.6c0.017,0.006 0.046,0.008 0.069,0.013c0.085,0.01 0.213,0.01 0.371,0.007c0.424,0.005 0.99,0.043 1.074,0.599c0.112,0.81 -0.108,1.306 -0.108,1.306c-0.387,0.009 -1.807,-0.842 -1.615,-1.039c0.068,-0.073 0.064,-0.25 0.026,-0.451c-0.015,-0.105 -0.043,-0.21 -0.082,-0.318c-0.095,-0.281 -0.236,-0.528 -0.362,-0.53ZM83.299,106.339c0.026,-0.127 -0.066,-0.376 -0.173,-0.634c-0.203,-0.488 -0.472,-1.033 -0.204,-1.001c0.109,0.011 0.193,0.034 0.285,0.049c2.136,0.395 0.028,1.943 0.092,1.586ZM86.241,104.24c-0.339,-0.221 -0.262,-0.986 0.283,-0.796c-0.005,-0.009 -0.017,-0.018 -0.024,-0.03c-0.427,-1.059 -2.157,-0.999 -2.735,-0.755c-0.014,-0.001 -0.026,-0.006 -0.039,-0.011c-0.013,-0.005 -0.024,-0.008 -0.037,-0.013c-0.061,0.02 -0.114,0.049 -0.174,0.076c0.193,-0.461 0.385,-0.934 0.576,-1.425c1.053,-2.684 2.021,-5.649 2.49,-8.037c0.754,-2.016 1.323,-3.762 1.733,-5.565c0.249,-1.101 0.426,-2.228 0.554,-3.442c0.382,0.244 0.787,0.483 1.207,0.714c-0.003,1.689 -0.073,3.318 -0.26,4.781c-0.838,6.526 -3.086,10.577 -2.875,10.987c3.226,-4.449 5.235,-9.714 6.502,-14.295c0.462,0.148 0.91,0.272 1.332,0.354c-0.505,3.428 -1.186,6.802 -1.639,8.29c-0.458,1.481 3.596,-5.782 2.615,-3.665c0.354,-0.771 -0.254,1.521 -1.739,4.487c-0.102,0.192 -0.203,0.39 -0.307,0.589c0.023,0.038 0.038,0.07 0.056,0.11c0.208,0.399 0.282,0.917 0.301,0.896c-2.466,5.322 1.286,0.681 0.96,3.38c2.188,-1.622 5.018,-5.272 7.149,-8.337c0.067,0.148 0.128,0.316 0.2,0.451c0.163,0.308 0.325,0.569 0.491,0.824c-1.689,3.068 -4.036,5.809 -6.436,8.116c-2.105,2.022 -4.247,3.714 -6.015,4.998c-0.182,0.134 -0.357,0.262 -0.53,0.384c-0.508,-0.592 -0.514,-1.603 -0.514,-1.603c0,0 -0.111,-0.186 -0.263,-0.443c-0.035,-0.059 -0.069,-0.115 -0.104,-0.174c-0.07,-0.118 -0.133,-0.239 -0.205,-0.359c-0.078,-0.135 -0.152,-0.27 -0.219,-0.392c-0.077,-0.139 -0.243,-0.196 -0.445,-0.231c-0.334,-0.056 -0.765,-0.046 -1.123,-0.196c0.192,0.348 0.273,0.797 0.281,1.125c0.003,0.122 -0.002,0.231 -0.018,0.304c-0.064,0.23 0.197,0.728 0.474,1.229c0.156,0.286 0.316,0.564 0.438,0.81c0.334,0.668 -0.889,0.919 -0.889,0.919c-0.015,-0.064 -0.113,-0.274 -0.22,-0.528c-0.262,-0.622 -0.603,-1.57 -0.222,-1.882c0.178,-0.145 0.203,-0.348 0.156,-0.559c-0.094,-0.435 -0.528,-0.929 -0.766,-1.086ZM85.342,117.864c0,0 -0.247,-0.861 -0.404,-1.517c-0.034,-0.136 -0.063,-0.259 -0.086,-0.366c-0.017,-0.099 -0.033,-0.178 -0.04,-0.238c-0.034,-0.322 0.788,-0.166 1.198,0.146c0.148,0.113 0.245,0.243 0.221,0.385c-0.023,0.11 -0.076,0.25 -0.15,0.403c-0.261,0.53 -0.739,1.187 -0.739,1.187ZM89.166,121.046c-0.375,-0.209 -0.494,-0.403 -0.523,-0.542c-0.024,-0.129 0.031,-0.209 0.031,-0.209c-0.511,-0.224 -1.049,-1.051 -1.263,-1.552c-0.112,-0.278 -0.133,-0.463 0.022,-0.374c0.162,0.089 0.48,0.15 0.815,0.22c0.583,0.126 1.23,0.278 1.261,0.655c0.027,0.339 0.141,1.002 0.104,1.442c-0.025,0.325 -0.136,0.528 -0.447,0.36ZM91.003,118.675c0.093,-0.021 0.182,-0.177 0.247,-0.366c0.042,-0.101 0.07,-0.208 0.092,-0.32c0.062,-0.292 0.067,-0.576 -0.046,-0.636c-0.227,-0.129 -1.363,-1.098 -1.161,-1.063c0.199,0.043 0.633,-1.133 1.155,-0.322c0.514,0.809 0.191,1.858 0.341,2.055c0.007,0.012 0.033,0.029 0.054,0.048c0.069,0.051 0.176,0.112 0.312,0.19c0.368,0.22 0.837,0.539 0.625,1.058c-0.314,0.76 -0.752,1.074 -0.752,1.074c-0.334,-0.186 -1.133,-1.635 -0.867,-1.718ZM103.448,108.293c6.044,-1.49 4.697,-1.101 4.142,-0.941c-0.348,0.097 -3.868,1.429 -7.33,2.747c-3.511,1.332 -6.956,2.657 -6.956,2.657c0,0 9.817,-3.092 13.165,-2.992l-7.372,2.858c0,0 9.383,-0.542 12.99,-1.565c-9.837,3.113 -13.817,4.723 -13.817,4.723c0,0 7.444,1.022 7.435,1.491c-0.005,0.034 -0.037,0.06 -0.117,0.086c-0.743,0.257 -5.212,0.705 -8.463,0.974c3.272,-0.046 8.269,0.231 12.723,1.682c1.65,0.546 3.221,1.239 4.604,2.146c-3.222,-1.056 -6.349,-1.671 -9.212,-2.043c-1.345,-0.177 -2.629,-0.301 -3.826,-0.381c-3.208,-0.229 -5.843,-0.204 -7.523,-0.279c-0.042,-0.256 -0.109,-0.545 -0.182,-0.884c0.002,-0.008 0.002,-0.008 -0.003,-0.017c0,0 0.002,-0.002 0,0c0.03,-0.018 0.053,-0.039 0.08,-0.052c0.219,-0.115 0.348,-0.256 0.413,-0.413c0.148,-0.312 0.07,-0.677 0.153,-0.976c0.446,-1.669 -2.397,-1.676 -1.586,-2.417c0.426,-0.396 0.207,-1.098 -0.093,-1.672c-0.13,-0.238 -0.265,-0.453 -0.376,-0.611c-0.12,-0.173 -0.21,-0.282 -0.21,-0.282c0.767,-0.967 0.7,-3.353 -0.436,-4.141c-0.236,-0.165 -0.513,-0.264 -0.839,-0.26c-0.327,-0.002 -0.583,-0.11 -0.774,-0.273c4.953,-2.618 9.123,-6.2 12.424,-8.697c-0.078,0.194 -0.186,0.409 -0.308,0.626c-1.759,3.158 -7.665,8.211 -7.665,8.211c0,0 8.239,-2.551 13.858,-6.663c0.839,-0.751 1.755,-1.556 2.762,-2.421c-0.786,0.857 -1.73,1.668 -2.762,2.421c-5.743,5.129 -7.972,7.738 -11.305,8.945c2.745,-0.682 4.819,-1.2 6.406,-1.587ZM118.127,134.271c-5.381,-4.727 -13.501,-6.681 -16.169,-8.079c4.111,2.49 5.717,4.713 9.444,7.548c-4.132,-2.286 -14.156,-7.367 -18.509,-8.958c-0.011,-0.278 -0.054,-0.558 0.17,-0.871c0.14,-0.203 0.236,-0.369 0.307,-0.526c0.719,-1.501 -1.279,-1.315 -0.467,-2.015c0.062,-0.057 0.132,-0.115 0.239,-0.182c0.761,-0.514 0.864,-0.955 0.766,-1.63c19.239,3.971 5.341,2.135 1.52,2.414c-0.032,0.004 -0.064,0.004 -0.097,0.008c5.989,1.406 11.983,3.667 16.579,6.616c2.612,1.678 4.775,3.577 6.217,5.675ZM112.008,158.736c-0.47,-3.666 -2.279,-7.855 -4.783,-12.085c2.378,2.134 4.517,4.165 7.346,6.572c5.997,5.126 4.895,-1.415 0.118,-11.764c-0.107,-0.227 -0.233,-0.458 -0.373,-0.69c4.628,1.845 6.173,1.733 8.56,1.662c2.578,-0.08 5.11,-1.454 -4.485,-10.1c-1.296,-1.167 -2.801,-2.234 -4.433,-3.216c8.765,2.177 6.743,1.046 9.888,0.696c3.779,-0.423 1.17,-3.906 -0.157,-5.151c-1.33,-1.249 1.504,-0.425 0.775,-1.843c-1.863,-2.449 -4.719,-3.885 -8.053,-4.686c3.145,-1.483 5.239,-3.348 6.85,-4.144c3.139,-1.531 0.008,-4.545 0.008,-4.545l-1.027,-1.334c-1.576,-2.187 -6.242,-2.787 -11.892,-1.759c0.569,-0.351 1.093,-0.716 1.595,-1.084c0.15,-0.116 0.288,-0.233 0.434,-0.346c0.331,-0.262 0.653,-0.523 0.952,-0.791c0.152,-0.136 0.298,-0.271 0.437,-0.406c0.267,-0.246 0.517,-0.495 0.755,-0.743c0.134,-0.138 0.263,-0.275 0.385,-0.406c0.219,-0.243 0.419,-0.478 0.609,-0.716c0.111,-0.128 0.227,-0.264 0.328,-0.395c0.17,-0.217 0.321,-0.422 0.469,-0.629c0.094,-0.13 0.2,-0.267 0.282,-0.392c0.034,-0.05 0.057,-0.092 0.092,-0.139c0.344,-0.519 0.611,-0.979 0.801,-1.348c1.969,2.315 4.138,2.994 5.719,2.915c0.012,-0.001 0.022,-0.001 0.036,-0.003c0.595,-0.031 1.095,-0.171 1.476,-0.361c0.038,-0.016 0.068,-0.035 0.103,-0.056c0.166,-0.096 0.314,-0.201 0.416,-0.319c1.162,-1.326 1.45,-8.582 -0.939,-12.679c-0.649,-1.121 -1.852,-3.011 -3.414,-5.2c3.389,3.453 6.343,6.997 7.766,9.748c2.016,3.896 12.448,11.788 7.652,-0.303c-1.212,-3.066 -3.703,-6.284 -6.803,-9.383c2.526,1.317 4.826,2.597 7.8,4.055c6.317,3.092 3.919,-2.308 -2.505,-10.192c-0.145,-0.172 -0.301,-0.343 -0.472,-0.515c4.404,0.568 5.713,0.131 7.762,-0.462c2.208,-0.64 4.092,-2.386 -6.113,-7.732c-1.375,-0.717 -2.916,-1.307 -4.539,-1.793c8.048,-0.064 6.056,-0.591 8.693,-1.591c3.169,-1.2 0.143,-3.629 -1.279,-4.414c-1.423,-0.781 1.206,-0.698 0.266,-1.765c-2.157,-1.698 -4.942,-2.308 -7.996,-2.262c2.387,-1.977 3.78,-4.053 4.998,-5.093c2.37,-2.028 -1.001,-3.933 -1.001,-3.933l-1.18,-0.925c-1.848,-1.538 -6.013,-1.027 -10.66,1.117c3.521,-3.633 4.534,-7.608 4.659,-8.657c0.158,-1.381 0.603,-2.286 -1.339,-3.411c-1.449,-0.836 -4.937,0.051 -9.688,4.208c0.827,-1.415 1.431,-2.511 1.897,-3.289c1.813,-2.989 0.432,-7.023 -0.35,-9.472c-0.776,-2.45 -5.551,-0.079 -7.364,3.617c-0.953,1.94 -1.963,4.611 -2.956,7.562c0.949,-3.892 1.342,-7.374 0.941,-9.448c-0.881,-4.564 -2.551,-8.932 -5.52,-9.48c-2.387,-0.196 -2.585,2.786 -2.8,7.812c-0.243,-0.48 -0.514,-0.928 -0.838,-1.318c-5.552,-6.765 -8.198,-5.224 -8.443,-1.208c-0.203,3.32 -0.92,6.505 -0.28,10.284c-2.065,-6.235 -3.363,-5.78 -7.494,-8.481c-4.51,-2.943 -5.777,-1.68 -4.958,2.177c0.117,0.553 0.225,1.047 0.327,1.499c0.005,0.02 0.012,0.041 0.011,0.061c0.103,0.455 0.204,0.874 0.305,1.25c-0.215,-0.088 -0.565,-0.229 -1.244,-0.505c-2.466,-1.089 -6.797,0.751 -11.149,4.493c2.678,-5.002 2.545,-9.596 2.351,-10.766c-0.251,-1.541 -0.051,-2.651 -2.496,-3.263c-1.817,-0.459 -5.302,1.576 -9.141,7.522c0.46,-1.779 0.764,-3.146 1.034,-4.134c1.026,-3.779 -1.705,-7.7 -3.303,-10.1c-1.595,-2.399 -6.01,1.627 -6.828,6.168c-0.424,2.387 -0.688,5.578 -0.852,9.07c-0.175,-4.489 -0.827,-8.363 -1.897,-10.477c-2.362,-4.649 -5.505,-8.843 -8.875,-8.515c-2.637,0.521 -1.929,3.8 -0.609,9.288c-0.409,-0.448 -0.842,-0.846 -1.311,-1.165c-8.071,-5.582 -10.45,-3.102 -9.472,1.298c0.803,3.646 1.009,7.303 2.872,11.176c-4.151,-6.083 -5.41,-5.195 -10.702,-6.829c-5.764,-1.781 -6.74,-0.028 -4.671,3.875c3.098,5.824 3.099,5.612 11.025,10.703c1.415,0.907 2.756,1.955 4.01,3.058c-2.307,-1.021 -4.558,-1.816 -6.461,-2.291c-14.598,0.646 -1.433,12 5.676,13.622c2.003,0.456 3.529,0.68 4.803,0.808c-1.293,0.506 -2.537,1.157 -3.674,1.934c-4.256,2.928 -5.363,7.758 -0.163,9.994c0.294,2.371 6.003,3.108 8.081,2.718c1.908,-0.358 3.607,-1.476 4.983,-2.725c-0.659,1.269 -1.074,2.686 -0.954,4.207c0.285,3.533 0.646,6.461 2.09,8.481c2.959,4.138 7.366,2.719 9.736,-0.202c0.205,-0.25 0.35,-0.577 0.453,-0.948c1.541,5.317 3.374,10.229 5.706,12.649c0.314,0.326 0.618,0.604 0.913,0.857c0.191,0.164 0.377,0.298 0.566,0.434c0.086,0.063 0.179,0.132 0.262,0.191c0.232,0.158 0.462,0.281 0.683,0.388c0.027,0.013 0.055,0.028 0.082,0.041c0.238,0.109 0.471,0.196 0.695,0.254c0.006,-0.001 0.011,0.002 0.011,0.002c0.004,0.008 0.008,0.015 0.01,0.023c0.252,0.842 0.573,1.706 0.948,2.56c0.007,0.018 0.015,0.036 0.02,0.055c0.371,0.844 0.79,1.675 1.241,2.465c0.017,0.028 0.03,0.055 0.047,0.083c0.222,0.387 0.451,0.764 0.688,1.127c0.014,0.023 0.029,0.043 0.041,0.064c0.227,0.346 0.455,0.679 0.692,0.993c0.021,0.026 0.039,0.05 0.057,0.075c0.233,0.313 0.471,0.605 0.707,0.881c0.044,0.047 0.088,0.098 0.134,0.15c0.241,0.267 0.48,0.523 0.72,0.746c1.496,1.405 2.706,2.375 3.738,3.126c-1.378,-0.215 -2.776,-0.284 -4.152,-0.183c-5.148,0.369 -8.547,3.981 -5.189,8.534c-0.947,2.196 3.612,5.716 5.599,6.431c1.827,0.651 3.858,0.551 5.676,0.166c-1.215,0.764 -2.286,1.773 -2.948,3.15c-1.539,3.195 -2.705,5.899 -2.478,8.375c0.456,5.064 4.978,6.069 8.5,4.743c0.303,-0.112 0.592,-0.317 0.867,-0.587c-1.355,5.371 -2.254,10.532 -1.47,13.8c1.834,7.597 7.025,4.156 11.458,-1.968c0.233,-0.321 0.419,-0.708 0.58,-1.127c0.463,2.871 0.882,5.732 1.194,8.287c1.223,10.044 7.701,11.131 9.338,10.022c1.634,-1.113 3.966,-8.922 2.516,-14.035c-0.394,-1.404 -1.176,-3.783 -2.259,-6.597c2.717,4.692 4.94,9.364 5.717,12.748c1.105,4.799 10.235,16.274 8.401,1.804Z" style="fill:#fff;fill-rule:nonzero;"/><path d="M96.741,141.325c-1.552,-2.712 -2.872,-4.886 -3.98,-6.623c-2.985,-4.655 -4.486,-6.153 -5.225,-6.591c-0.202,-0.274 -0.406,-0.551 -0.618,-0.83c0.121,0.234 0.227,0.471 0.342,0.699c-0.017,-0.003 -0.029,-0.005 -0.044,-0.009c-0.257,-0.073 -0.335,0.054 -0.335,0.054c0,0 0.135,0.309 0.344,0.924c0.662,1.972 2.117,7.206 2.702,16.554c-0.858,-3.843 -2.575,-12.943 -4.738,-17.702c-0.256,-0.562 -0.512,-1.057 -0.78,-1.483c-0.394,-0.626 -0.795,-1.091 -1.212,-1.339c0.032,0.191 0.051,0.388 0.078,0.582c0.189,1.342 0.314,2.755 0.384,4.204c0.271,5.947 -0.491,12.396 -2.642,16.243c0.93,-2.454 1.003,-9.371 0.977,-12.711c-2.951,7.021 -0.577,-6.539 -0.785,-8.397c-0.006,-0.048 -0.013,-0.091 -0.023,-0.124c0,0.016 -0.012,0.027 -0.015,0.045c-0.22,0.665 -0.716,1.824 -1.294,2.867c-0.55,0.99 -1.17,1.866 -1.698,2.125c-0.191,0.098 -0.367,0.118 -0.523,0.033c0.376,-0.548 0.693,-1.08 0.98,-1.597c1.091,-1.966 1.543,-3.699 1.485,-5.085c-0.132,-2.988 -2.614,-4.37 -6.111,-2.983c0.319,-0.261 0.62,-0.489 0.905,-0.711c0.443,-0.342 0.842,-0.646 1.204,-0.91c4.286,-3.106 3.212,-1.112 3.099,-4.326c-0.249,-1.597 0.114,-1.402 -0.693,-1.774c-0.222,-0.097 -0.53,-0.238 -0.96,-0.472c-0.19,-0.103 -0.41,-0.226 -0.656,-0.37c-0.141,-0.081 -0.285,-0.167 -0.446,-0.265c-0.624,-0.38 -1.394,-0.892 -2.361,-1.573c0,0 0.807,-0.05 1.764,0.025c0.216,0.017 0.447,0.041 0.674,0.074c1.095,0.155 2.188,0.508 2.414,1.296c0.177,-0.643 0.137,-1.455 -0.051,-2.37c-0.007,-0.028 -0.017,-0.051 -0.016,-0.096c-0.008,-0.04 -0.014,-0.078 -0.025,-0.122c-0.538,-2.378 -2.042,-5.419 -3.686,-8.178c-1.819,-3.06 -3.8,-5.764 -4.796,-6.808c-0.169,-0.148 -0.333,-0.295 -0.508,-0.442c0.108,0.053 0.286,0.205 0.508,0.442c1.611,1.394 3.074,2.85 4.341,4.319c2.259,2.623 3.898,5.277 4.689,7.619c0.238,0.712 0.398,1.389 0.476,2.035c0.018,0.184 0.033,0.379 0.051,0.607c0.003,0.015 -0.001,0.03 -0.001,0.046c0.016,0.16 0.025,0.324 0.037,0.504c0.008,0.152 -0.007,0.458 -0.041,0.82c-0.077,0.735 -0.258,1.738 -0.599,2.357c0.018,0.041 0.033,0.086 0.048,0.122c0.509,1.233 0.827,2.524 0.753,3.398c-0.144,1.628 -0.367,1.532 0.127,1.76c0.087,0.04 0.163,0.097 0.249,0.144c0.014,0.014 0.031,0.02 0.05,0.025c0.235,0.152 0.449,0.324 0.645,0.532c0.061,0.066 0.125,0.136 0.189,0.209c0.686,0.847 1.082,2.008 1.311,3.023c0.065,0.274 0.111,0.527 0.153,0.767c0.048,0.261 0.083,0.496 0.112,0.699c0.063,0.425 0.095,0.706 0.127,0.728c0.094,0.055 0.176,0.112 0.262,0.175c0.103,0.066 0.206,0.142 0.303,0.214c0.134,0.105 0.271,0.211 0.397,0.321c0.322,0.282 0.632,0.601 0.967,1.006c0.259,0.315 0.537,0.678 0.836,1.118c0.063,-0.002 0.121,-0.006 0.185,-0.006c0.358,-0.01 0.775,0.025 1.404,0.595c0.737,0.666 0.54,0.433 0.737,0.542c0.035,0.017 0.128,0.006 0.238,-0.018c0.355,0.518 0.706,0.895 1.2,0.777c0.249,-0.053 0.537,-0.232 0.89,-0.587c0.104,-0.108 0.213,-0.23 0.329,-0.367c0.008,-0.008 0.008,-0.008 0.01,-0.015c0.015,-0.012 0.021,-0.023 0.03,-0.034c-0.051,-0.187 0.003,-0.337 0.095,-0.476c0.238,-0.327 0.78,-0.499 0.92,-0.564c0.365,-0.174 0.596,-0.331 0.743,-0.486c0.179,-0.191 0.237,-0.366 0.249,-0.543c2.311,1.07 4.765,2.485 7.228,4.475c2.331,1.881 4.669,4.285 6.895,7.375c0.507,0.702 1.009,1.432 1.507,2.209c-0.913,-1.096 -2.885,-2.826 -4.996,-4.51c-4.222,-3.378 -8.969,-6.569 -6.763,-4.14c0.546,0.601 1.494,1.533 3.001,2.897c-1.923,-1.067 -4.251,-2.688 -6.176,-4.11c-0.435,-0.32 -0.856,-0.629 -1.234,-0.923c-0.482,-0.356 -0.916,-0.693 -1.287,-0.981c0.275,0.25 0.528,0.497 0.76,0.757c1.708,1.9 2.495,4.337 4.431,9.749c0.76,2.143 1.698,4.741 2.95,7.962c-0.885,-1.615 -1.702,-3.063 -2.467,-4.402ZM68.907,87.423c-0.765,-0.403 -1.46,-0.721 -2.099,-0.967c0.21,-1.029 0.374,-2.13 0.488,-3.287c0.037,-0.396 0.004,-0.819 -0.071,-1.263c1,1.21 1.974,2.414 2.915,3.6c0.378,0.743 0.792,1.562 1.27,2.498c0.763,1.496 1.388,3.075 1.917,4.661c-1.474,-2.044 -3.019,-3.87 -4.42,-5.242ZM56.144,73.086c1.003,7.552 -3.806,-5.348 -4.922,-6.847c-0.03,-0.04 -0.061,-0.075 -0.084,-0.097c0.005,0.013 0.007,0.031 0.009,0.046c0.147,0.687 0.308,1.935 0.334,3.129c0.026,1.131 -0.068,2.199 -0.389,2.695c-0.121,0.177 -0.258,0.289 -0.44,0.289c0.049,-0.664 0.053,-1.28 0.04,-1.872c-0.057,-2.246 -0.536,-3.972 -1.289,-5.137c-1.622,-2.513 -4.457,-2.451 -6.779,0.514c0.149,-0.386 0.285,-0.739 0.418,-1.071c0.212,-0.52 0.406,-0.984 0.585,-1.394c2.128,-4.848 2.211,-2.58 0.482,-5.298c-1.014,-1.25 -0.608,-1.27 -1.487,-1.177c-0.241,0.023 -0.581,0.058 -1.068,0.072c-0.22,0.011 -0.47,0.014 -0.755,0.012c-0.165,0.003 -0.332,0.001 -0.52,-0.004c-0.732,-0.012 -1.658,-0.06 -2.832,-0.16c0,0 0.674,-0.452 1.536,-0.873c0.195,-0.095 0.404,-0.188 0.615,-0.273c1.026,-0.424 2.148,-0.672 2.738,-0.103c-0.172,-0.644 -0.615,-1.33 -1.238,-2.022c-0.021,-0.02 -0.045,-0.037 -0.067,-0.075c-0.023,-0.028 -0.051,-0.059 -0.081,-0.092c-1.664,-1.78 -4.502,-3.644 -7.31,-5.192c-3.119,-1.721 -6.195,-3.054 -7.582,-3.451c-0.222,-0.04 -0.437,-0.09 -0.662,-0.124c0.121,-0.012 0.353,0.028 0.662,0.124c2.096,0.387 4.094,0.907 5.929,1.534c3.276,1.12 6.028,2.58 7.896,4.205c0.563,0.492 1.045,0.998 1.438,1.51c0.108,0.153 0.222,0.317 0.347,0.504c0.011,0.013 0.02,0.023 0.029,0.037c0.091,0.131 0.185,0.266 0.282,0.418c0.088,0.126 0.231,0.395 0.382,0.722c0.305,0.679 0.658,1.636 0.678,2.34c0.039,0.027 0.065,0.056 0.103,0.081c1.061,0.807 1.989,1.764 2.366,2.557c0.7,1.476 0.457,1.503 0.995,1.452c0.098,-0.007 0.194,-0.001 0.286,-0.002c0.02,0.001 0.04,-0.002 0.058,0.001c0.278,0.005 0.552,0.048 0.824,0.128c0.09,0.023 0.182,0.054 0.272,0.086c1.018,0.379 1.946,1.186 2.66,1.946c0.191,0.201 0.356,0.396 0.518,0.583c0.172,0.2 0.319,0.387 0.45,0.547c0.27,0.333 0.441,0.56 0.482,0.564c0.103,0.002 0.209,0.009 0.307,0.017c0.123,0.009 0.248,0.02 0.372,0.035c0.171,0.019 0.341,0.042 0.511,0.074c0.413,0.078 0.841,0.201 1.332,0.38c0.389,0.143 0.811,0.315 1.293,0.539c0.052,-0.031 0.104,-0.062 0.156,-0.096c0.303,-0.188 0.682,-0.371 1.508,-0.196c0.974,0.202 0.692,0.1 0.916,0.096c0.035,-0.001 0.111,-0.06 0.197,-0.14c0.565,0.271 1.053,0.419 1.423,0.073c0.188,-0.177 0.351,-0.479 0.468,-0.961c0.039,-0.148 0.075,-0.306 0.102,-0.485c-0.001,-0.006 0,-0.01 0.003,-0.015c0.005,-0.019 0.004,-0.031 0.008,-0.046c-0.136,-0.136 -0.171,-0.297 -0.157,-0.459c0.039,-0.403 0.418,-0.825 0.508,-0.952c0.228,-0.335 0.343,-0.589 0.396,-0.799c0.058,-0.249 0.018,-0.433 -0.061,-0.592c2.533,-0.242 5.369,-0.257 8.495,0.209c2.966,0.447 6.198,1.338 9.684,2.878c0.788,0.351 1.592,0.728 2.414,1.145c-1.342,-0.485 -3.917,-0.978 -6.588,-1.366c-5.351,-0.779 -11.059,-1.131 -7.929,-0.153c0.769,0.244 2.062,0.564 4.051,0.984c-2.196,0.049 -5.028,-0.175 -7.41,-0.426c-0.537,-0.055 -1.05,-0.112 -1.527,-0.167c-0.596,-0.074 -1.144,-0.141 -1.603,-0.204c0.362,0.077 0.703,0.166 1.035,0.273c2.433,0.779 4.347,2.48 8.751,6.173c1.74,1.46 3.863,3.229 6.57,5.374c-0.978,-0.582 -1.889,-1.116 -2.768,-1.629c-0.379,-0.377 -0.779,-0.794 -1.215,-1.271c-2.637,-2.881 -4.289,-3.459 -5.178,-2.316c-0.696,-0.374 -1.364,-0.727 -1.97,-1.034c-4.927,-2.512 -6.99,-3.044 -7.841,-3.048c-0.317,-0.135 -0.631,-0.269 -0.953,-0.402c0.216,0.142 0.43,0.285 0.647,0.429c-0.019,0.006 -0.03,0.009 -0.047,0.013c-0.248,0.071 -0.258,0.218 -0.258,0.218c0,0 0.268,0.197 0.759,0.627c1.37,1.19 4.518,4.226 8.777,10.148c0.006,0.239 0.015,0.473 0.031,0.696c-3.062,-3.361 -7.681,-8.372 -11.143,-10.813c-0.501,-0.351 -0.976,-0.654 -1.42,-0.883c-0.655,-0.341 -1.237,-0.541 -1.721,-0.545c0.122,0.151 0.242,0.308 0.363,0.462c0.837,1.066 1.663,2.221 2.455,3.435c3.237,4.996 5.837,10.946 5.927,15.352c-0.437,-2.589 -3.87,-8.591 -5.579,-11.464ZM33.432,40.205c-3.981,-4.458 -8.151,-8.155 -9.8,-9.516c1.181,0.224 3.454,1.288 6.116,3.194c0.139,0.099 0.281,0.208 0.421,0.309c1.496,1.105 3.099,2.459 4.694,4.076c1.64,1.66 2.014,3.348 3.24,5.346c0.087,0.145 0.171,0.29 0.271,0.441c0.683,1.017 1.836,2.819 2.742,4.361c-0.926,-0.059 -0.841,1.148 -0.692,1.924c-0.555,-0.835 -1.309,-1.843 -2.188,-2.931c-1.349,-1.659 -2.995,-3.51 -4.735,-5.209c-5.993,-5.85 -14.21,-13.63 -0.069,-1.995ZM43.645,49.169c-0.042,-0.125 -0.25,-0.29 -0.477,-0.461c-0.421,-0.319 -0.927,-0.651 -0.675,-0.764c0.098,-0.039 0.177,-0.067 0.269,-0.1c2.042,-0.736 1.004,1.664 0.883,1.325ZM32.942,19.716c1.856,1.898 3.375,3.825 4.627,5.715c1.407,2.119 2.485,4.189 3.3,6.118c2.578,6.052 2.69,10.687 3.077,10.937c0.995,-10.209 -3.057,-20.836 -4.745,-24.631c-1.065,-2.069 -0.803,-1.808 0,0c0.084,0.163 0.168,0.329 0.27,0.52c1.993,1.781 6.207,12.889 6.964,16.1c0.356,1.511 0.184,-6.807 0.406,-4.482c-0.086,-0.846 0.551,1.441 0.767,4.746c0.013,0.219 0.025,0.442 0.034,0.669c0.036,0.017 0.066,0.041 0.101,0.061c0.38,0.242 0.709,0.651 0.714,0.622c0.563,5.84 1.45,-0.061 2.537,2.432c1.749,-4.11 2.25,-13.787 2.155,-16.124c1.805,5.248 1.028,11.231 -0.41,16.326c-0.795,2.81 -1.787,5.352 -2.663,7.352c-0.092,0.208 -0.177,0.403 -0.265,0.596c-0.737,-0.254 -1.25,-1.121 -1.25,-1.121c0,0 -0.195,-0.101 -0.457,-0.25c-0.056,-0.03 -0.121,-0.064 -0.178,-0.101c-0.115,-0.065 -0.236,-0.133 -0.357,-0.201c-0.136,-0.078 -0.268,-0.155 -0.389,-0.229c-0.138,-0.08 -0.31,-0.048 -0.498,0.027c-0.313,0.117 -0.686,0.347 -1.068,0.397c0.34,0.205 0.642,0.548 0.811,0.826c0.066,0.104 0.117,0.205 0.137,0.276c0.067,0.228 0.539,0.526 1.036,0.822c0.274,0.164 0.556,0.327 0.781,0.473c0.627,0.413 -0.299,1.242 -0.299,1.242c-0.05,-0.046 -0.233,-0.176 -0.46,-0.346c-0.54,-0.401 -1.314,-1.048 -1.141,-1.51c0.079,-0.209 0.003,-0.4 -0.149,-0.562c-0.305,-0.328 -0.922,-0.532 -1.208,-0.546c-0.407,-0.024 -0.728,-0.725 -0.16,-0.826c-0.01,-0.011 -0.026,-0.011 -0.031,-0.02c-0.907,-0.692 -2.369,0.229 -2.743,0.734c-0.014,0.003 -0.029,0.005 -0.042,0.01c-0.012,0.001 -0.027,0.003 -0.04,0.008c-0.037,0.044 -0.075,0.099 -0.109,0.148c-0.065,-0.497 -0.137,-1 -0.222,-1.514c-0.45,-2.85 -1.111,-5.901 -1.919,-8.197c-0.367,-2.12 -0.759,-3.918 -1.315,-5.676c-1.01,-3.171 -2.571,-6.223 -5.599,-10.821ZM49.865,47.228c0,0 0.93,-0.404 1.273,0.029c0.035,0.043 0.065,0.098 0.095,0.154c0.282,0.507 0.472,1.453 0.822,1.594c0,0 -0.798,-0.249 -1.256,-0.619c-0.169,-0.138 -0.291,-0.289 -0.312,-0.452c-0.064,-0.606 -0.622,-0.706 -0.622,-0.706ZM47.117,49.507c0.074,0.033 0.246,-0.09 0.52,-0.113c0.216,-0.018 0.494,0.026 0.852,0.277c0.253,0.187 0.385,0.462 0.461,0.742c0.144,0.597 0.002,1.234 0.002,1.234c-0.076,-0.031 -0.148,-0.07 -0.229,-0.111c-0.387,-0.209 -0.819,-0.514 -1.068,-0.886c-0.069,-0.105 -0.132,-0.221 -0.164,-0.339c-0.176,-0.612 -0.508,-0.867 -0.374,-0.804ZM46.214,55.983c-0.022,-0.015 -0.037,-0.029 -0.061,-0.037c-0.717,-0.505 -1.13,-0.858 -1.544,-1.005c-0.044,-0.015 -0.093,-0.037 -0.138,-0.049c0,0 0.044,0.003 0.113,0.006c0.111,0.01 0.309,0.026 0.54,0.044c0.391,0.03 0.856,0.064 1.074,0.093c0.414,0.052 0.858,1.522 0.016,0.948ZM62.525,31.847c-2.363,7.325 -2.966,10.703 -5.232,13.431c2.02,-1.977 3.553,-3.467 4.72,-4.604c4.468,-4.342 3.496,-3.328 3.1,-2.912c-0.251,0.262 -2.615,3.189 -4.938,6.076c-2.353,2.929 -4.658,5.809 -4.658,5.809c0,0 6.908,-7.631 9.852,-9.233l-4.917,6.192c0,0 7.817,-5.21 10.412,-7.915c-6.909,7.656 -9.527,11.058 -9.527,11.058c0,0 6.934,-2.88 7.159,-2.472c0.017,0.028 0.007,0.069 -0.05,0.129c-0.514,0.602 -4.146,3.245 -6.807,5.121c2.799,-1.694 7.247,-3.983 11.826,-4.976c1.613,-0.35 3.233,-0.523 4.813,-0.471c0.009,0.016 0.018,0.03 0.028,0.047c-3.229,0.716 -6.174,1.741 -8.766,2.838c-1.251,0.529 -2.421,1.068 -3.502,1.604c-2.879,1.427 -5.135,2.782 -6.625,3.56c-0.169,-0.196 -0.37,-0.41 -0.599,-0.669c-0.008,-0.002 -0.012,-0.009 -0.015,-0.013l-0.002,0.001c0.015,-0.028 0.024,-0.056 0.04,-0.082c0.133,-0.216 0.171,-0.402 0.152,-0.566c-0.035,-0.346 -0.275,-0.62 -0.361,-0.923c-0.458,-1.664 -2.912,-0.234 -2.591,-1.282c0.171,-0.556 -0.377,-1.054 -0.926,-1.395c-0.228,-0.141 -0.458,-0.259 -0.635,-0.341c-0.192,-0.086 -0.325,-0.137 -0.325,-0.137c0.17,-1.223 -1.091,-3.247 -2.466,-3.352c-0.284,-0.021 -0.571,0.033 -0.854,0.199c-0.284,0.167 -0.56,0.202 -0.812,0.158c2.955,-4.756 4.741,-9.957 6.329,-13.783c0.031,0.212 0.049,0.444 0.052,0.694c0.074,3.617 -2.463,10.961 -2.463,10.961c0,0 5.821,-6.366 8.588,-12.752c0.347,-1.077 0.728,-2.231 1.16,-3.486c-0.244,1.136 -0.651,2.312 -1.16,3.486ZM85.569,40.583c0.525,0.598 1.016,1.226 1.491,1.87c-0.568,-0.202 -1.137,-0.39 -1.728,-0.492c-0.713,-0.496 -1.408,-0.948 -2.054,-1.323c-1.509,-0.36 -2.709,-0.487 -3.659,-0.437c0.874,-1.632 1.483,-3.054 2.082,-4.105c0.871,1.102 2.079,2.456 3.868,4.487ZM91.739,37.28c0.095,0.116 0.188,0.245 0.281,0.368c1.014,1.314 2.058,2.868 3.029,4.642c0.999,1.827 0.901,3.367 1.465,5.379c0.037,0.147 0.075,0.29 0.125,0.442c0.335,1.044 0.878,2.871 1.279,4.414c-0.782,-0.278 -1.001,0.779 -1.065,1.482c-0.274,-0.851 -0.67,-1.9 -1.158,-3.051c-0.746,-1.755 -1.708,-3.742 -2.784,-5.628c-3.699,-6.485 -8.835,-15.17 0.434,-1.726c-2.316,-4.801 -4.991,-8.992 -6.067,-10.562c0.958,0.479 2.64,1.948 4.461,4.24ZM97.955,25.912c1.126,2.086 1.952,4.109 2.567,6.039c0.684,2.16 1.097,4.201 1.328,6.055c0.721,5.821 -0.322,9.821 -0.048,10.129c3.356,-8.508 2.489,-18.613 1.978,-22.284c-0.41,-2.03 -0.252,-1.745 0,0c0.029,0.162 0.064,0.326 0.098,0.516c1.276,2.016 2.158,12.574 2.022,15.515c-0.066,1.381 1.825,-5.796 1.448,-3.747c0.137,-0.746 0.118,1.369 -0.508,4.26c-0.046,0.19 -0.09,0.383 -0.135,0.579c0.024,0.024 0.048,0.054 0.075,0.076c0.263,0.302 0.444,0.736 0.456,0.713c-0.949,5.144 1.258,0.306 1.576,2.71c2.509,-3.1 5.316,-11.272 5.806,-13.299c0.26,4.945 -1.872,9.882 -4.359,13.897c-1.37,2.214 -2.846,4.152 -4.087,5.649c-0.127,0.156 -0.253,0.302 -0.373,0.447c-0.569,-0.399 -0.796,-1.269 -0.796,-1.269c0,0 -0.142,-0.135 -0.33,-0.326c-0.041,-0.042 -0.085,-0.083 -0.131,-0.128c-0.083,-0.085 -0.167,-0.172 -0.256,-0.262c-0.095,-0.1 -0.191,-0.202 -0.276,-0.291c-0.096,-0.102 -0.252,-0.117 -0.434,-0.1c-0.3,0.026 -0.672,0.131 -1.011,0.082c0.24,0.261 0.412,0.628 0.491,0.903c0.033,0.108 0.051,0.202 0.05,0.27c0.003,0.212 0.334,0.585 0.687,0.96c0.193,0.21 0.397,0.417 0.553,0.598c0.436,0.508 -0.564,0.992 -0.564,0.992c-0.026,-0.054 -0.157,-0.209 -0.306,-0.41c-0.366,-0.476 -0.871,-1.218 -0.608,-1.573c0.119,-0.164 0.1,-0.344 0.013,-0.522c-0.184,-0.355 -0.664,-0.681 -0.906,-0.765c-0.34,-0.119 -0.441,-0.799 0.073,-0.746c-0.012,-0.009 -0.02,-0.017 -0.027,-0.029c-0.602,-0.814 -2.088,-0.379 -2.533,-0.04c-0.011,-0.002 -0.027,-0.002 -0.039,-0.002c-0.011,-0.002 -0.023,-0.005 -0.031,-0.003c-0.048,0.032 -0.091,0.067 -0.137,0.101c0.067,-0.442 0.129,-0.892 0.186,-1.35c0.312,-2.559 0.494,-5.333 0.366,-7.501c0.206,-1.908 0.311,-3.545 0.266,-5.191c-0.086,-2.965 -0.678,-5.965 -2.144,-10.653ZM114.647,43.608c-0.823,3.121 -4.8,8.793 -4.8,8.793c0,0 6.551,-4.03 10.49,-8.823c0.561,-0.838 1.174,-1.738 1.856,-2.709c-0.493,0.914 -1.128,1.825 -1.856,2.709c-3.824,5.698 -5.167,8.447 -7.783,10.229c2.218,-1.199 3.902,-2.102 5.184,-2.791c4.893,-2.627 3.81,-1.994 3.368,-1.735c-0.278,0.163 -3.023,2.093 -5.722,3.995c-2.738,1.935 -5.423,3.842 -5.423,3.842c0,0 7.797,-4.85 10.709,-5.498l-5.732,4.097c0,0 7.985,-2.542 10.874,-4.226c-7.805,4.867 -10.883,7.14 -10.883,7.14c0,0 6.65,-0.765 6.747,-0.364c0.006,0.032 -0.016,0.064 -0.077,0.1c-0.589,0.392 -4.352,1.767 -7.095,2.724c2.813,-0.766 7.19,-1.638 11.361,-1.364c1.542,0.101 3.058,0.351 4.455,0.828c-3.023,-0.196 -5.861,-0.036 -8.416,0.276c-1.196,0.146 -2.338,0.323 -3.394,0.515c-2.818,0.518 -5.082,1.125 -6.553,1.429c-0.097,-0.21 -0.216,-0.445 -0.352,-0.721c-0.003,-0.005 -0.006,-0.01 -0.009,-0.014l-0.002,-0.005c0.024,-0.018 0.035,-0.037 0.059,-0.055c0.163,-0.155 0.24,-0.303 0.271,-0.453c0.052,-0.302 -0.092,-0.596 -0.089,-0.878c0.016,-1.539 -2.438,-0.914 -1.905,-1.735c0.285,-0.435 -0.066,-0.994 -0.452,-1.42c-0.163,-0.181 -0.329,-0.336 -0.461,-0.449c-0.144,-0.124 -0.24,-0.198 -0.24,-0.198c0.448,-1.006 -0.144,-3.052 -1.295,-3.482c-0.242,-0.088 -0.498,-0.11 -0.785,-0.037c-0.282,0.073 -0.526,0.034 -0.731,-0.063c3.701,-3.358 6.508,-7.377 8.81,-10.268c-0.023,0.19 -0.069,0.396 -0.129,0.611ZM129.544,66.684c2.63,0.868 4.922,2.029 6.633,3.519c-5.701,-2.891 -13.146,-2.779 -15.765,-3.395c4.107,1.234 5.986,2.802 9.839,4.432c-4.08,-1.06 -13.866,-3.235 -17.975,-3.641c-0.074,-0.24 -0.171,-0.472 -0.047,-0.792c0.076,-0.203 0.119,-0.372 0.15,-0.522c0.287,-1.455 -1.401,-0.851 -0.857,-1.637c0.042,-0.064 0.095,-0.13 0.168,-0.21c0.548,-0.615 0.539,-1.018 0.3,-1.581c17.498,-0.829 5.088,0.669 1.845,1.751c-0.025,0.012 -0.05,0.018 -0.075,0.029c5.485,-0.111 11.162,0.514 15.784,2.047ZM104.218,63.296c0,0 -0.407,-0.691 -0.684,-1.221c-0.058,-0.109 -0.113,-0.216 -0.155,-0.303c-0.042,-0.074 -0.073,-0.142 -0.091,-0.188c-0.096,-0.278 0.645,-0.32 1.067,-0.142c0.156,0.063 0.27,0.157 0.277,0.281c0.009,0.1 -0.011,0.237 -0.039,0.381c-0.108,0.518 -0.375,1.192 -0.375,1.192ZM108.226,65.193c-0.369,-0.098 -0.516,-0.236 -0.567,-0.349c-0.056,-0.104 -0.027,-0.188 -0.027,-0.188c-0.489,-0.081 -1.136,-0.676 -1.431,-1.061c-0.162,-0.213 -0.217,-0.368 -0.064,-0.326c0.158,0.04 0.448,0.023 0.756,0.01c0.529,-0.023 1.12,-0.033 1.229,0.288c0.101,0.284 0.344,0.828 0.412,1.219c0.047,0.287 0.001,0.487 -0.308,0.407ZM109.288,62.747c0.075,-0.045 0.12,-0.2 0.134,-0.378c0.01,-0.095 0.012,-0.192 0.008,-0.295c-0.015,-0.265 -0.073,-0.511 -0.181,-0.542c-0.223,-0.058 -1.42,-0.643 -1.237,-0.657c0.182,-0.01 0.295,-1.122 0.921,-0.536c0.628,0.584 0.576,1.563 0.751,1.701c0.013,0.005 0.038,0.015 0.058,0.026c0.072,0.03 0.18,0.061 0.314,0.099c0.363,0.105 0.842,0.281 0.772,0.776c-0.102,0.725 -0.408,1.093 -0.408,1.093c-0.335,-0.089 -1.343,-1.164 -1.132,-1.287ZM103.927,55.413c0.176,0.224 0.221,0.49 0.214,0.75c-0.019,0.544 -0.298,1.059 -0.298,1.059c-0.051,-0.049 -0.112,-0.102 -0.169,-0.154c-0.278,-0.273 -0.576,-0.641 -0.698,-1.021c-0.034,-0.11 -0.059,-0.22 -0.057,-0.33c-0.001,-0.571 -0.224,-0.868 -0.125,-0.783c0.056,0.046 0.231,-0.014 0.469,0.031c0.194,0.037 0.425,0.145 0.664,0.448ZM100.435,60.265c-0.018,-0.015 -0.028,-0.031 -0.042,-0.049c-0.498,-0.608 -0.762,-1.011 -1.083,-1.237c-0.039,-0.022 -0.066,-0.056 -0.105,-0.074c0,0 0.04,0.014 0.093,0.033c0.094,0.033 0.26,0.093 0.454,0.166c0.326,0.123 0.715,0.267 0.899,0.345c0.343,0.145 0.362,1.519 -0.216,0.816ZM106.227,54.877c-0.108,-0.159 -0.184,-0.317 -0.156,-0.462c0.089,-0.538 -0.359,-0.758 -0.359,-0.758c0,0 0.896,-0.119 1.082,0.334c0.018,0.047 0.03,0.104 0.046,0.158c0.116,0.502 0.048,1.363 0.312,1.569c0,0 -0.62,-0.411 -0.925,-0.841ZM99.215,52.463c0.094,-0.015 0.172,-0.017 0.255,-0.022c1.932,-0.133 0.454,1.672 0.432,1.353c-0.008,-0.119 -0.143,-0.313 -0.295,-0.513c-0.284,-0.378 -0.631,-0.786 -0.392,-0.818ZM116.854,71.577c0.606,0.394 1.635,0.987 3.24,1.838c-1.905,-0.499 -4.273,-1.388 -6.253,-2.189c-0.444,-0.175 -0.871,-0.35 -1.266,-0.519c-0.497,-0.206 -0.944,-0.398 -1.327,-0.564c0.291,0.151 0.561,0.315 0.82,0.485c1.894,1.269 3.12,3.197 5.988,7.443c1.133,1.677 2.519,3.713 4.314,6.222c-1.123,-1.197 -2.148,-2.272 -3.108,-3.257c-1.94,-1.995 -3.559,-3.588 -4.903,-4.834c-3.608,-3.367 -5.244,-4.327 -5.975,-4.54c-0.237,-0.193 -0.472,-0.384 -0.719,-0.578c0.156,0.175 0.299,0.351 0.451,0.525c-0.014,0.002 -0.024,0.002 -0.04,0.001c-0.235,-0.002 -0.276,0.121 -0.276,0.121c0,0 0.183,0.235 0.499,0.726c1.008,1.553 3.426,5.751 6.004,13.7c-1.591,-3.133 -5.089,-10.609 -8.017,-14.246c-0.344,-0.426 -0.677,-0.801 -1.002,-1.107c-0.475,-0.453 -0.929,-0.768 -1.34,-0.889c0.066,0.158 0.13,0.324 0.196,0.486c0.46,1.119 0.881,2.313 1.259,3.549c0.731,2.386 1.278,4.912 1.557,7.328c-0.38,0.1 -0.766,0.233 -1.16,0.395c-0.359,-1.636 -0.755,-3.202 -1.048,-4.304c-0.994,6.719 -1.953,-5.52 -2.541,-7.077c-0.015,-0.045 -0.033,-0.082 -0.047,-0.105c0.003,0.011 -0.003,0.027 -0.004,0.037c-0.043,0.626 -0.213,1.737 -0.485,2.768c-0.253,0.975 -0.598,1.868 -0.994,2.214c-0.14,0.123 -0.292,0.185 -0.447,0.144c0.206,-0.561 0.362,-1.089 0.496,-1.6c0.505,-1.937 0.513,-3.538 0.156,-4.719c-0.773,-2.553 -3.223,-3.195 -5.94,-1.224c0.221,-0.292 0.426,-0.562 0.621,-0.817c0.31,-0.393 0.592,-0.744 0.846,-1.049c3.014,-3.636 2.526,-1.671 1.713,-4.427c-0.561,-1.32 -0.212,-1.233 -0.987,-1.375c-0.158,-0.03 -0.388,-0.074 -0.666,-0.137c0.97,-0.725 1.55,-1.68 0.313,-2.77c-0.049,-0.118 -0.073,-0.222 -0.131,-0.34c-0.015,-0.02 -0.032,-0.038 -0.04,-0.078c-0.015,-0.029 -0.032,-0.064 -0.046,-0.097c-0.988,-1.936 -2.964,-4.231 -4.993,-6.248c-0.459,-0.456 -0.919,-0.893 -1.368,-1.313c0.091,-0.077 0.181,-0.15 0.289,-0.231c0.147,-0.107 0.265,-0.213 0.377,-0.318c2.409,1.713 4.33,3.569 5.489,5.354c0.365,0.56 0.655,1.114 0.866,1.652c0.055,0.155 0.112,0.325 0.177,0.513c0.004,0.017 0.011,0.029 0.014,0.04c0.041,0.138 0.092,0.276 0.138,0.427c0.041,0.132 0.099,0.394 0.145,0.715c0.099,0.656 0.165,1.564 0.01,2.174c0.027,0.029 0.046,0.062 0.069,0.093c0.715,0.954 1.271,1.999 1.401,2.774c0.238,1.437 0.02,1.402 0.503,1.489c0.082,0.015 0.16,0.044 0.241,0.067c0.017,0.008 0.036,0.007 0.05,0.014c0.237,0.075 0.46,0.177 0.675,0.311c0.07,0.043 0.138,0.092 0.209,0.142c0.779,0.574 1.38,1.497 1.806,2.32c0.114,0.223 0.211,0.433 0.304,0.629c0.094,0.215 0.181,0.409 0.25,0.578c0.148,0.352 0.237,0.592 0.271,0.601c0.088,0.03 0.174,0.061 0.26,0.093c0.107,0.035 0.211,0.075 0.313,0.122c0.137,0.058 0.282,0.118 0.417,0.19c0.336,0.166 0.676,0.377 1.051,0.651c0.297,0.218 0.615,0.467 0.974,0.779c0.054,-0.013 0.104,-0.03 0.159,-0.045c0.305,-0.087 0.673,-0.15 1.343,0.201c0.783,0.412 0.566,0.258 0.759,0.308c0.032,0.01 0.108,-0.023 0.204,-0.071c0.416,0.37 0.799,0.616 1.204,0.411c0.206,-0.107 0.415,-0.325 0.637,-0.71c0.066,-0.113 0.136,-0.242 0.205,-0.388c0.003,-0.005 0.006,-0.01 0.008,-0.018c0.007,-0.01 0.011,-0.019 0.016,-0.032c-0.084,-0.151 -0.075,-0.296 -0.021,-0.434c0.134,-0.336 0.562,-0.602 0.666,-0.69c0.281,-0.229 0.442,-0.418 0.534,-0.585c0.114,-0.202 0.126,-0.369 0.093,-0.525c2.237,0.415 4.67,1.095 7.241,2.264c2.43,1.114 4.979,2.666 7.589,4.843c0.593,0.5 1.188,1.012 1.788,1.571c-1.029,-0.743 -3.115,-1.794 -5.308,-2.784c-4.402,-1.981 -9.207,-3.685 -6.766,-2.074ZM114.469,93.358c-1.56,0.006 -3.658,0.453 -6.253,1.507c1.339,-1.281 2.588,-3.505 3.618,-6.117c0.128,-0.329 0.204,-0.697 0.251,-1.099c0.852,1.954 1.656,3.882 2.384,5.709ZM89.871,109.282c-0.075,-0.205 -0.109,-0.395 -0.045,-0.548c0.253,-0.558 -0.176,-0.923 -0.176,-0.923c0,0 1.008,0.121 1.083,0.667c0.006,0.053 0.007,0.12 0.002,0.18c-0.01,0.584 -0.328,1.493 -0.094,1.797c0,0 -0.563,-0.624 -0.77,-1.173ZM81.209,111.757c0.095,0.068 0.261,0.179 0.445,0.311c0.326,0.223 0.71,0.491 0.886,0.625c0.329,0.256 -0.032,1.753 -0.463,0.826c-0.014,-0.023 -0.02,-0.039 -0.033,-0.066c-0.369,-0.791 -0.548,-1.309 -0.832,-1.643c-0.031,-0.036 -0.059,-0.083 -0.088,-0.11c0,0 0.036,0.023 0.085,0.057ZM86.127,108.388c0.041,0.064 0.252,0.043 0.5,0.163c0.197,0.096 0.417,0.277 0.598,0.673c0.126,0.291 0.103,0.593 0.022,0.874c-0.175,0.581 -0.622,1.065 -0.622,1.065c-0.045,-0.065 -0.094,-0.135 -0.142,-0.215c-0.223,-0.373 -0.444,-0.853 -0.471,-1.303c-0.01,-0.122 0,-0.256 0.027,-0.375c0.159,-0.618 0.002,-1.003 0.088,-0.882ZM81.482,94.116c0.092,1.518 -0.195,2.881 -0.162,4.63c0.007,0.171 0.005,0.339 0.015,0.515c0.076,1.228 0.159,3.365 0.163,5.15c-0.772,-0.521 -1.302,0.57 -1.568,1.314c-0.058,-1.003 -0.199,-2.25 -0.407,-3.635c-0.324,-2.117 -0.817,-4.541 -1.46,-6.892c-0.194,-0.723 -0.401,-1.474 -0.607,-2.222c1.472,0.8 2.839,1.12 4.026,1.14ZM80.417,77.535c-0.108,0.321 -0.204,0.64 -0.31,0.965c-0.973,-0.905 -2.389,-2.134 -4.109,-3.532c-0.113,-0.114 -0.225,-0.232 -0.343,-0.35c1.668,0.957 3.279,1.935 4.762,2.917ZM91.081,76.084c-0.6,-1.287 -1.18,-2.345 -1.744,-3.238c0.708,0.147 1.435,0.295 2.178,0.443c-0.178,1.045 -0.285,2.023 -0.31,2.934c-0.038,-0.031 -0.07,-0.059 -0.108,-0.091c-0.007,-0.015 -0.01,-0.032 -0.016,-0.048ZM100.582,80.741c0.006,1.762 0.062,3.484 0.188,5.091c-1.309,1.692 -2.748,3.764 -4.227,6.042c2.11,-3.956 3.509,-7.629 3.651,-9.997c0.015,-0.242 0.016,-0.485 0.028,-0.725c0.123,-0.131 0.257,-0.237 0.36,-0.411ZM84.386,53.467c-0.905,-0.083 -1.831,-0.131 -2.773,-0.141c0.664,-0.197 1.245,-0.373 1.788,-0.538c0.333,0.253 0.662,0.481 0.985,0.679ZM87.724,43.422c0.175,0.255 0.365,0.509 0.532,0.77c-0.233,-0.196 -0.467,-0.375 -0.7,-0.561c0.065,-0.067 0.12,-0.139 0.168,-0.209ZM59.475,55.207c18.613,-6.293 5.691,-0.848 2.532,1.32c-0.025,0.018 -0.055,0.036 -0.073,0.05c5.876,-1.808 12.191,-2.887 17.644,-2.663c3.103,0.128 5.933,0.673 8.237,1.753c-7.036,-1.362 -15.023,1.06 -18.044,1.202c4.748,0.065 7.262,1.144 11.804,1.718c-0.01,0.01 -0.021,0.019 -0.03,0.031c-4.827,0.126 -15.799,0.798 -20.302,1.614c-0.15,-0.233 -0.327,-0.455 -0.291,-0.841c0.02,-0.239 0.015,-0.434 0,-0.603c-0.14,-1.66 -1.773,-0.486 -1.43,-1.506c0.03,-0.078 0.066,-0.167 0.116,-0.28c0.401,-0.828 0.268,-1.258 -0.163,-1.795ZM54.107,57.237c0.564,-0.188 1.2,-0.384 1.416,-0.076c0.195,0.282 0.627,0.796 0.817,1.192c0.146,0.296 0.153,0.528 -0.201,0.539c-0.429,0.008 -0.627,-0.099 -0.723,-0.205c-0.091,-0.099 -0.085,-0.195 -0.085,-0.195c-0.551,0.066 -1.437,-0.374 -1.87,-0.702c-0.239,-0.182 -0.344,-0.33 -0.165,-0.335c0.178,-0.001 0.486,-0.109 0.811,-0.218ZM51.231,58.08c0,0 -0.651,-0.618 -1.117,-1.102c-0.092,-0.101 -0.186,-0.198 -0.258,-0.276c-0.063,-0.074 -0.118,-0.134 -0.152,-0.184c-0.193,-0.264 0.59,-0.539 1.101,-0.481c0.191,0.02 0.339,0.087 0.388,0.221c0.037,0.105 0.061,0.257 0.074,0.422c0.047,0.59 -0.036,1.4 -0.036,1.4ZM56.11,54.625c-0.261,0.007 -1.732,-0.254 -1.538,-0.323c0.195,-0.069 -0.027,-1.302 0.83,-0.864c0.858,0.437 1.105,1.508 1.335,1.6c0.017,0.006 0.046,0.008 0.069,0.013c0.085,0.01 0.213,0.01 0.371,0.007c0.424,0.005 0.99,0.043 1.074,0.599c0.112,0.81 -0.108,1.306 -0.108,1.306c-0.387,0.009 -1.807,-0.842 -1.615,-1.039c0.068,-0.073 0.064,-0.25 0.026,-0.451c-0.015,-0.105 -0.043,-0.21 -0.082,-0.318c-0.095,-0.281 -0.236,-0.528 -0.362,-0.53ZM83.299,106.339c0.026,-0.127 -0.066,-0.376 -0.173,-0.634c-0.203,-0.488 -0.472,-1.033 -0.204,-1.001c0.109,0.011 0.193,0.034 0.285,0.049c2.136,0.395 0.028,1.943 0.092,1.586ZM86.241,104.24c-0.339,-0.221 -0.262,-0.986 0.283,-0.796c-0.005,-0.009 -0.017,-0.018 -0.024,-0.03c-0.427,-1.059 -2.157,-0.999 -2.735,-0.755c-0.014,-0.001 -0.026,-0.006 -0.039,-0.011c-0.013,-0.005 -0.024,-0.008 -0.037,-0.013c-0.061,0.02 -0.114,0.049 -0.174,0.076c0.193,-0.461 0.385,-0.934 0.576,-1.425c1.053,-2.684 2.021,-5.649 2.49,-8.037c0.754,-2.016 1.323,-3.762 1.733,-5.565c0.249,-1.101 0.426,-2.228 0.554,-3.442c0.382,0.244 0.787,0.483 1.207,0.714c-0.003,1.689 -0.073,3.318 -0.26,4.781c-0.838,6.526 -3.086,10.577 -2.875,10.987c3.226,-4.449 5.235,-9.714 6.502,-14.295c0.462,0.148 0.91,0.272 1.332,0.354c-0.505,3.428 -1.186,6.802 -1.639,8.29c-0.458,1.481 3.596,-5.782 2.615,-3.665c0.354,-0.771 -0.254,1.521 -1.739,4.487c-0.102,0.192 -0.203,0.39 -0.307,0.589c0.023,0.038 0.038,0.07 0.056,0.11c0.208,0.399 0.282,0.917 0.301,0.896c-2.466,5.322 1.286,0.681 0.96,3.38c2.188,-1.622 5.018,-5.272 7.149,-8.337c0.067,0.148 0.128,0.316 0.2,0.451c0.163,0.308 0.325,0.569 0.491,0.824c-1.689,3.068 -4.036,5.809 -6.436,8.116c-2.105,2.022 -4.247,3.714 -6.015,4.998c-0.182,0.134 -0.357,0.262 -0.53,0.384c-0.508,-0.592 -0.514,-1.603 -0.514,-1.603c0,0 -0.111,-0.186 -0.263,-0.443c-0.035,-0.059 -0.069,-0.115 -0.104,-0.174c-0.07,-0.118 -0.133,-0.239 -0.205,-0.359c-0.078,-0.135 -0.152,-0.27 -0.219,-0.392c-0.077,-0.139 -0.243,-0.196 -0.445,-0.231c-0.334,-0.056 -0.765,-0.046 -1.123,-0.196c0.192,0.348 0.273,0.797 0.281,1.125c0.003,0.122 -0.002,0.231 -0.018,0.304c-0.064,0.23 0.197,0.728 0.474,1.229c0.156,0.286 0.316,0.564 0.438,0.81c0.334,0.668 -0.889,0.919 -0.889,0.919c-0.015,-0.064 -0.113,-0.274 -0.22,-0.528c-0.262,-0.622 -0.603,-1.57 -0.222,-1.882c0.178,-0.145 0.203,-0.348 0.156,-0.559c-0.094,-0.435 -0.528,-0.929 -0.766,-1.086ZM85.342,117.864c0,0 -0.247,-0.861 -0.404,-1.517c-0.034,-0.136 -0.063,-0.259 -0.086,-0.366c-0.017,-0.099 -0.033,-0.178 -0.04,-0.238c-0.034,-0.322 0.788,-0.166 1.198,0.146c0.148,0.113 0.245,0.243 0.221,0.385c-0.023,0.11 -0.076,0.25 -0.15,0.403c-0.261,0.53 -0.739,1.187 -0.739,1.187ZM89.166,121.046c-0.375,-0.209 -0.494,-0.403 -0.523,-0.542c-0.024,-0.129 0.031,-0.209 0.031,-0.209c-0.511,-0.224 -1.049,-1.051 -1.263,-1.552c-0.112,-0.278 -0.133,-0.463 0.022,-0.374c0.162,0.089 0.48,0.15 0.815,0.22c0.583,0.126 1.23,0.278 1.261,0.655c0.027,0.339 0.141,1.002 0.104,1.442c-0.025,0.325 -0.136,0.528 -0.447,0.36ZM91.003,118.675c0.093,-0.021 0.182,-0.177 0.247,-0.366c0.042,-0.101 0.07,-0.208 0.092,-0.32c0.062,-0.292 0.067,-0.576 -0.046,-0.636c-0.227,-0.129 -1.363,-1.098 -1.161,-1.063c0.199,0.043 0.633,-1.133 1.155,-0.322c0.514,0.809 0.191,1.858 0.341,2.055c0.007,0.012 0.033,0.029 0.054,0.048c0.069,0.051 0.176,0.112 0.312,0.19c0.368,0.22 0.837,0.539 0.625,1.058c-0.314,0.76 -0.752,1.074 -0.752,1.074c-0.334,-0.186 -1.133,-1.635 -0.867,-1.718ZM103.448,108.293c6.044,-1.49 4.697,-1.101 4.142,-0.941c-0.348,0.097 -3.868,1.429 -7.33,2.747c-3.511,1.332 -6.956,2.657 -6.956,2.657c0,0 9.817,-3.092 13.165,-2.992l-7.372,2.858c0,0 9.383,-0.542 12.99,-1.565c-9.837,3.113 -13.817,4.723 -13.817,4.723c0,0 7.444,1.022 7.435,1.491c-0.005,0.034 -0.037,0.06 -0.117,0.086c-0.743,0.257 -5.212,0.705 -8.463,0.974c3.272,-0.046 8.269,0.231 12.723,1.682c1.65,0.546 3.221,1.239 4.604,2.146c-3.222,-1.056 -6.349,-1.671 -9.212,-2.043c-1.345,-0.177 -2.629,-0.301 -3.826,-0.381c-3.208,-0.229 -5.843,-0.204 -7.523,-0.279c-0.042,-0.256 -0.109,-0.545 -0.182,-0.884c0.002,-0.008 0.002,-0.008 -0.003,-0.017c0,0 0.002,-0.002 0,0c0.03,-0.018 0.053,-0.039 0.08,-0.052c0.219,-0.115 0.348,-0.256 0.413,-0.413c0.148,-0.312 0.07,-0.677 0.153,-0.976c0.446,-1.669 -2.397,-1.676 -1.586,-2.417c0.426,-0.396 0.207,-1.098 -0.093,-1.672c-0.13,-0.238 -0.265,-0.453 -0.376,-0.611c-0.12,-0.173 -0.21,-0.282 -0.21,-0.282c0.767,-0.967 0.7,-3.353 -0.436,-4.141c-0.236,-0.165 -0.513,-0.264 -0.839,-0.26c-0.327,-0.002 -0.583,-0.11 -0.774,-0.273c4.953,-2.618 9.123,-6.2 12.424,-8.697c-0.078,0.194 -0.186,0.409 -0.308,0.626c-1.759,3.158 -7.665,8.211 -7.665,8.211c0,0 8.239,-2.551 13.858,-6.663c0.839,-0.751 1.755,-1.556 2.762,-2.421c-0.786,0.857 -1.73,1.668 -2.762,2.421c-5.743,5.129 -7.972,7.738 -11.305,8.945c2.745,-0.682 4.819,-1.2 6.406,-1.587ZM118.127,134.271c-5.381,-4.727 -13.501,-6.681 -16.169,-8.079c4.111,2.49 5.717,4.713 9.444,7.548c-4.132,-2.286 -14.156,-7.367 -18.509,-8.958c-0.011,-0.278 -0.054,-0.558 0.17,-0.871c0.14,-0.203 0.236,-0.369 0.307,-0.526c0.719,-1.501 -1.279,-1.315 -0.467,-2.015c0.062,-0.057 0.132,-0.115 0.239,-0.182c0.761,-0.514 0.864,-0.955 0.766,-1.63c19.239,3.971 5.341,2.135 1.52,2.414c-0.032,0.004 -0.064,0.004 -0.097,0.008c5.989,1.406 11.983,3.667 16.579,6.616c2.612,1.678 4.775,3.577 6.217,5.675ZM112.008,158.736c-0.47,-3.666 -2.279,-7.855 -4.783,-12.085c2.378,2.134 4.517,4.165 7.346,6.572c5.997,5.126 4.895,-1.415 0.118,-11.764c-0.107,-0.227 -0.233,-0.458 -0.373,-0.69c4.628,1.845 6.173,1.733 8.56,1.662c2.578,-0.08 5.11,-1.454 -4.485,-10.1c-1.296,-1.167 -2.801,-2.234 -4.433,-3.216c8.765,2.177 6.743,1.046 9.888,0.696c3.779,-0.423 1.17,-3.906 -0.157,-5.151c-1.33,-1.249 1.504,-0.425 0.775,-1.843c-1.863,-2.449 -4.719,-3.885 -8.053,-4.686c3.145,-1.483 5.239,-3.348 6.85,-4.144c3.139,-1.531 0.008,-4.545 0.008,-4.545l-1.027,-1.334c-1.576,-2.187 -6.242,-2.787 -11.892,-1.759c0.569,-0.351 1.093,-0.716 1.595,-1.084c0.15,-0.116 0.288,-0.233 0.434,-0.346c0.331,-0.262 0.653,-0.523 0.952,-0.791c0.152,-0.136 0.298,-0.271 0.437,-0.406c0.267,-0.246 0.517,-0.495 0.755,-0.743c0.134,-0.138 0.263,-0.275 0.385,-0.406c0.219,-0.243 0.419,-0.478 0.609,-0.716c0.111,-0.128 0.227,-0.264 0.328,-0.395c0.17,-0.217 0.321,-0.422 0.469,-0.629c0.094,-0.13 0.2,-0.267 0.282,-0.392c0.034,-0.05 0.057,-0.092 0.092,-0.139c0.344,-0.519 0.611,-0.979 0.801,-1.348c1.969,2.315 4.138,2.994 5.719,2.915c0.012,-0.001 0.022,-0.001 0.036,-0.003c0.595,-0.031 1.095,-0.171 1.476,-0.361c0.038,-0.016 0.068,-0.035 0.103,-0.056c0.166,-0.096 0.314,-0.201 0.416,-0.319c1.162,-1.326 1.45,-8.582 -0.939,-12.679c-0.649,-1.121 -1.852,-3.011 -3.414,-5.2c3.389,3.453 6.343,6.997 7.766,9.748c2.016,3.896 12.448,11.788 7.652,-0.303c-1.212,-3.066 -3.703,-6.284 -6.803,-9.383c2.526,1.317 4.826,2.597 7.8,4.055c6.317,3.092 3.919,-2.308 -2.505,-10.192c-0.145,-0.172 -0.301,-0.343 -0.472,-0.515c4.404,0.568 5.713,0.131 7.762,-0.462c2.208,-0.64 4.092,-2.386 -6.113,-7.732c-1.375,-0.717 -2.916,-1.307 -4.539,-1.793c8.048,-0.064 6.056,-0.591 8.693,-1.591c3.169,-1.2 0.143,-3.629 -1.279,-4.414c-1.423,-0.781 1.206,-0.698 0.266,-1.765c-2.157,-1.698 -4.942,-2.308 -7.996,-2.262c2.387,-1.977 3.78,-4.053 4.998,-5.093c2.37,-2.028 -1.001,-3.933 -1.001,-3.933l-1.18,-0.925c-1.848,-1.538 -6.013,-1.027 -10.66,1.117c3.521,-3.633 4.534,-7.608 4.659,-8.657c0.158,-1.381 0.603,-2.286 -1.339,-3.411c-1.449,-0.836 -4.937,0.051 -9.688,4.208c0.827,-1.415 1.431,-2.511 1.897,-3.289c1.813,-2.989 0.432,-7.023 -0.35,-9.472c-0.776,-2.45 -5.551,-0.079 -7.364,3.617c-0.953,1.94 -1.963,4.611 -2.956,7.562c0.949,-3.892 1.342,-7.374 0.941,-9.448c-0.881,-4.564 -2.551,-8.932 -5.52,-9.48c-2.387,-0.196 -2.585,2.786 -2.8,7.812c-0.243,-0.48 -0.514,-0.928 -0.838,-1.318c-5.552,-6.765 -8.198,-5.224 -8.443,-1.208c-0.203,3.32 -0.92,6.505 -0.28,10.284c-2.065,-6.235 -3.363,-5.78 -7.494,-8.481c-4.51,-2.943 -5.777,-1.68 -4.958,2.177c0.117,0.553 0.225,1.047 0.327,1.499c0.005,0.02 0.012,0.041 0.011,0.061c0.103,0.455 0.204,0.874 0.305,1.25c-0.215,-0.088 -0.565,-0.229 -1.244,-0.505c-2.466,-1.089 -6.797,0.751 -11.149,4.493c2.678,-5.002 2.545,-9.596 2.351,-10.766c-0.251,-1.541 -0.051,-2.651 -2.496,-3.263c-1.817,-0.459 -5.302,1.576 -9.141,7.522c0.46,-1.779 0.764,-3.146 1.034,-4.134c1.026,-3.779 -1.705,-7.7 -3.303,-10.1c-1.595,-2.399 -6.01,1.627 -6.828,6.168c-0.424,2.387 -0.688,5.578 -0.852,9.07c-0.175,-4.489 -0.827,-8.363 -1.897,-10.477c-2.362,-4.649 -5.505,-8.843 -8.875,-8.515c-2.637,0.521 -1.929,3.8 -0.609,9.288c-0.409,-0.448 -0.842,-0.846 -1.311,-1.165c-8.071,-5.582 -10.45,-3.102 -9.472,1.298c0.803,3.646 1.009,7.303 2.872,11.176c-4.151,-6.083 -5.41,-5.195 -10.702,-6.829c-5.764,-1.781 -6.74,-0.028 -4.671,3.875c3.098,5.824 3.099,5.612 11.025,10.703c1.415,0.907 2.756,1.955 4.01,3.058c-2.307,-1.021 -4.558,-1.816 -6.461,-2.291c-14.598,0.646 -1.433,12 5.676,13.622c2.003,0.456 3.529,0.68 4.803,0.808c-1.293,0.506 -2.537,1.157 -3.674,1.934c-4.256,2.928 -5.363,7.758 -0.163,9.994c0.294,2.371 6.003,3.108 8.081,2.718c1.908,-0.358 3.607,-1.476 4.983,-2.725c-0.659,1.269 -1.074,2.686 -0.954,4.207c0.285,3.533 0.646,6.461 2.09,8.481c2.959,4.138 7.366,2.719 9.736,-0.202c0.205,-0.25 0.35,-0.577 0.453,-0.948c1.541,5.317 3.374,10.229 5.706,12.649c0.314,0.326 0.618,0.604 0.913,0.857c0.191,0.164 0.377,0.298 0.566,0.434c0.086,0.063 0.179,0.132 0.262,0.191c0.232,0.158 0.462,0.281 0.683,0.388c0.027,0.013 0.055,0.028 0.082,0.041c0.238,0.109 0.471,0.196 0.695,0.254c0.006,-0.001 0.011,0.002 0.011,0.002c0.004,0.008 0.008,0.015 0.01,0.023c0.252,0.842 0.573,1.706 0.948,2.56c0.007,0.018 0.015,0.036 0.02,0.055c0.371,0.844 0.79,1.675 1.241,2.465c0.017,0.028 0.03,0.055 0.047,0.083c0.222,0.387 0.451,0.764 0.688,1.127c0.014,0.023 0.029,0.043 0.041,0.064c0.227,0.346 0.455,0.679 0.692,0.993c0.021,0.026 0.039,0.05 0.057,0.075c0.233,0.313 0.471,0.605 0.707,0.881c0.044,0.047 0.088,0.098 0.134,0.15c0.241,0.267 0.48,0.523 0.72,0.746c1.496,1.405 2.706,2.375 3.738,3.126c-1.378,-0.215 -2.776,-0.284 -4.152,-0.183c-5.148,0.369 -8.547,3.981 -5.189,8.534c-0.947,2.196 3.612,5.716 5.599,6.431c1.827,0.651 3.858,0.551 5.676,0.166c-1.215,0.764 -2.286,1.773 -2.948,3.15c-1.539,3.195 -2.705,5.899 -2.478,8.375c0.456,5.064 4.978,6.069 8.5,4.743c0.303,-0.112 0.592,-0.317 0.867,-0.587c-1.355,5.371 -2.254,10.532 -1.47,13.8c1.834,7.597 7.025,4.156 11.458,-1.968c0.233,-0.321 0.419,-0.708 0.58,-1.127c0.463,2.871 0.882,5.732 1.194,8.287c1.223,10.044 7.701,11.131 9.338,10.022c1.634,-1.113 3.966,-8.922 2.516,-14.035c-0.394,-1.404 -1.176,-3.783 -2.259,-6.597c2.717,4.692 4.94,9.364 5.717,12.748c1.105,4.799 10.235,16.274 8.401,1.804Z" style="fill:#fff;fill-rule:nonzero;"/></g></g></g></g></svg>