<?xml version="1.0" encoding="utf-8"?>
<!-- Generator: Adobe Illustrator 19.0.0, SVG Export Plug-In . SVG Version: 6.00 Build 0)  -->
<svg version="1.1" id="L1" xmlns="http://www.w3.org/2000/svg" xmlns:xlink="http://www.w3.org/1999/xlink" x="0px" y="0px"
	 viewBox="-129 1451 700 80" style="enable-background:new -129 1451 700 80;" xml:space="preserve">
<style type="text/css">
	.st0{fill:none;}
	.st1{fill:#FFFFFF;}
	.st2{fill:#10A7AC;fill-opacity:0.36;}
	.st3{fill:#007DB8;fill-opacity:0.356;}
	.st4{fill:#158CCC;}
	.st5{opacity:0.1;fill:url(#SVGID_2_);enable-background:new    ;}
</style>
<pattern  x="-129" y="1551" width="24" height="150" patternUnits="userSpaceOnUse" id="SVGID_1_" viewBox="0 -150 24 150" style="overflow:visible;">
	<g>
		<polygon class="st0" points="0,0 24,0 24,-150 0,-150 		"/>
		<g>
			<polygon class="st0" points="0,-150 24,-150 24,0 0,0 			"/>
			<polygon class="st1" points="12,-150 0,-150 0,0 12,0 			"/>
			<polygon class="st0" points="24,-150 0,-150 0,0 24,0 			"/>
		</g>
	</g>
</pattern>
<path class="st2" d="M571,1451v78.6c-59.3,5.9-115.1-7.8-181-18.9c-65.9-11.1-171-33.7-252.6-33.7c-81.2,0-124.4,17.9-147.3,25
	c-20.7,6.5-59.3,22.3-119.1,27.6V1451H571z"/>
<path class="st3" d="M-129,1451v66.2c60.8,6.3,108.9,0,162.2-12.1C86.5,1493,137,1495,210,1507s112.5,2.2,158.2-6.8
	c32.5-6.4,72.3-3.3,101.6,1.2c28.9,4.5,68.2,12.2,101.1,15.8V1451H-129z"/>
<path class="st4" d="M-129,1451h700v37.9c-29.5,0.1-56.5-5.9-96.5-14.4s-87.7-8.4-137.5-2.5c-55,6.5-129.5,1.5-190-6
	s-111.5-3.3-176.3,11.3c-32.6,7.3-67.3,11.5-99.7,11.6L-129,1451z"/>
<pattern  id="SVGID_2_" xlink:href="#SVGID_1_" patternTransform="matrix(0.3646 0 0 -0.3348 -9858.1631 -5073.6133)">
</pattern>
<path class="st5" d="M571,1451h-700v78.6c24.7-2.2,52.3-7.3,70-12.2c37.2-3.1,47.9-1.9,92.2-12.4c44.3-10.5,105.3-12,172.8,1
	s110,4,142.8-2.9c16,3.3,26.7,5.2,41.2,7.6c65.9,11.1,121.6,24.7,181,18.9V1451z"/>
</svg>
