<?xml version="1.0" standalone="no"?><!DOCTYPE svg PUBLIC "-//W3C//DTD SVG 1.1//EN" "http://www.w3.org/Graphics/SVG/1.1/DTD/svg11.dtd"><svg width="100%" height="100%" viewBox="0 0 18 18" version="1.1" xmlns="http://www.w3.org/2000/svg" xmlns:xlink="http://www.w3.org/1999/xlink" xml:space="preserve" style="fill-rule:evenodd;clip-rule:evenodd;stroke-linejoin:round;stroke-miterlimit:1.41421;"><path d="M17.578,3.785c-0.645,0.277 -1.346,0.476 -2.068,0.553c0.745,-0.442 1.312,-1.14 1.579,-1.97c-0.69,0.41 -1.468,0.709 -2.28,0.864c-0.656,-0.698 -1.59,-1.129 -2.624,-1.129c-1.99,0 -3.591,1.605 -3.591,3.575c0,0.276 0.033,0.553 0.089,0.819c-2.98,-0.155 -5.637,-1.572 -7.405,-3.741c-0.311,0.531 -0.489,1.14 -0.489,1.804c0,1.239 0.634,2.335 1.601,2.977c-0.589,-0.022 -1.145,-0.188 -1.623,-0.454c0,0.011 0,0.033 0,0.044c0,1.738 1.234,3.177 2.879,3.509c-0.3,0.077 -0.622,0.122 -0.945,0.122c-0.233,0 -0.455,-0.022 -0.678,-0.056c0.456,1.417 1.779,2.446 3.358,2.479c-1.234,0.963 -2.78,1.528 -4.459,1.528c-0.3,0 -0.578,-0.011 -0.867,-0.044c1.59,1.018 3.48,1.604 5.515,1.604c6.604,0 10.218,-5.445 10.218,-10.171c0,-0.155 0,-0.31 -0.011,-0.465c0.7,-0.509 1.312,-1.14 1.801,-1.848Z" style="fill:#000;fill-rule:nonzero;"/></svg>