<?xml version="1.0" standalone="no"?><!DOCTYPE svg PUBLIC "-//W3C//DTD SVG 1.1//EN" "http://www.w3.org/Graphics/SVG/1.1/DTD/svg11.dtd"><svg width="100%" height="100%" viewBox="0 0 18 18" version="1.1" xmlns="http://www.w3.org/2000/svg" xmlns:xlink="http://www.w3.org/1999/xlink" xml:space="preserve" style="fill-rule:evenodd;clip-rule:evenodd;stroke-linejoin:round;stroke-miterlimit:1.41421;"><path d="M13.995,0.686l-10.674,0c-1.768,0 -3.202,1.428 -3.202,3.188l0,10.625c0,1.759 1.434,3.187 3.202,3.187l5.915,0l0,-6.585l-2.224,0l0,-2.568l2.224,0l0,-1.893c0,-2.191 1.357,-3.386 3.324,-3.386c0.934,0 1.746,0.066 1.98,0.099l0,2.291l-1.357,0.011c-1.078,0 -1.279,0.498 -1.279,1.24l0,1.638l2.547,0l-0.334,2.568l-2.213,0l0,6.585l2.091,0c1.768,0 3.202,-1.428 3.202,-3.187l0,-10.625c0,-1.76 -1.434,-3.188 -3.202,-3.188Z" style="fill:#000;fill-rule:nonzero;"/></svg>