<?xml version="1.0" standalone="no"?><!DOCTYPE svg PUBLIC "-//W3C//DTD SVG 1.1//EN" "http://www.w3.org/Graphics/SVG/1.1/DTD/svg11.dtd"><svg width="100%" height="100%" viewBox="0 0 104 370" version="1.1" xmlns="http://www.w3.org/2000/svg" xmlns:xlink="http://www.w3.org/1999/xlink" xml:space="preserve" style="fill-rule:evenodd;clip-rule:evenodd;stroke-linejoin:round;stroke-miterlimit:1.41421;"><g id="top-title01"><g transform="matrix(0.146645,-4.03897e-28,2.52435e-28,0.146645,-1739.3,-43.731)"><path d="M12354.2,367.645c1.867,-6.933 4.8,-18.933 4.8,-26.667c0,-8 -4.266,-12.8 -12.266,-12.8c-11.734,0 -13.6,6.934 -13.867,14.934c-1.067,22.4 -5.333,44.533 -9.067,58.4c-0.8,3.2 -6.133,19.2 -6.133,22.133c0,3.733 2.933,5.867 5.867,5.867c4,0 5.866,-2.4 9.333,-8.534c3.2,-5.866 10.133,-18.666 17.6,-41.066l18.933,0l0,71.733c-6.133,2.667 -33.6,12.533 -41.066,15.2c-6.667,2.4 -10.667,5.333 -10.667,12c0,6.933 5.867,12.267 11.733,12.267c6.134,0 32.534,-15.2 40,-19.467l0,68.8c0,6.133 0,16.267 13.334,16.267c13.066,0 13.066,-10.4 13.066,-16.267l0,-84c4.534,-2.933 12.8,-8 19.2,-12.267c2.934,-1.866 5.334,-3.466 5.334,-6.933c0,-3.467 -3.2,-6.133 -6.134,-6.133c-1.866,0 -3.733,1.066 -4.8,1.6c-2.133,1.066 -11.466,5.866 -13.6,6.933l0,-59.733l17.334,0c2.133,0 7.466,-0.267 7.466,-6.134c0,-5.333 -5.066,-6.133 -7.466,-6.133l-17.334,0l0,-40.533c0,-6.134 0,-16.267 -13.333,-16.267c-13.067,0 -13.067,10.133 -13.067,16.267l0,40.533l-15.2,0ZM12506.5,361.245l42.933,0c2.4,0 7.467,-0.533 7.467,-6.133c0,-5.334 -5.067,-6.134 -7.467,-6.134l-42.933,0l0,-21.066c0,-5.6 -0.533,-17.334 -14.133,-17.334c-13.867,0 -13.867,13.334 -13.867,17.334l0,21.066l-42.933,0c-2.134,0 -7.467,0.534 -7.467,6.134c0,5.6 5.067,6.133 7.467,6.133l42.933,0l0,38.4l-52,0c-2.4,0 -7.467,0.533 -7.467,5.867c0,5.333 4.8,6.133 7.467,6.133l128.8,0c2.4,0 7.467,-0.533 7.467,-6.133c0,-5.334 -4.8,-5.867 -7.467,-5.867l-48.8,0l0,-38.4ZM12532.1,460.978l23.2,0c2.4,0 7.467,-0.533 7.467,-6.133c0,-5.333 -4.8,-6.133 -7.467,-6.133l-23.2,0l0,-13.334c0,-5.066 -0.267,-17.333 -14.4,-17.333c-13.867,0 -13.867,13.067 -13.867,17.333l0,13.334l-78.133,0c-2.4,0 -7.467,0.533 -7.467,6.133c0,5.6 4.8,6.133 7.467,6.133l78.133,0l0,68.267c0,10.4 -2.4,13.867 -13.866,13.867l-18.134,0c-1.866,0 -8.266,0 -8.266,6.133c0,5.867 6.133,5.867 8.266,5.867l32.267,0c16.267,0 28,-4.534 28,-24.267l0,-69.867ZM12428.1,475.912c0,1.066 0.533,2.4 2.4,5.6c4.8,8.533 7.467,16 10.4,25.333c3.467,11.2 5.333,16.8 14.667,16.8c8.266,0 15.2,-7.2 15.2,-14.667c0,-12.8 -31.734,-39.466 -36.534,-39.466c-2.933,0 -6.133,2.666 -6.133,6.4Z" style="fill:#231f20;fill-rule:nonzero;"/><path d="M12502.8,693.112l0,-45.067l54.133,0c2.4,0 7.467,-0.8 7.467,-6.133c0,-5.6 -5.067,-6.134 -7.467,-6.134l-54.133,0l0,-25.333c0,-9.333 -3.734,-16.533 -14.4,-16.533c-11.2,0 -14.134,8.266 -14.134,16.533l0,25.333l-54.4,0c-2.4,0 -7.466,0.534 -7.466,6.134c0,5.333 4.8,6.133 7.466,6.133l54.4,0l0,45.067l-46.933,0c-2.4,0 -7.467,0.533 -7.467,6.133c0,5.333 5.067,6.133 7.467,6.133l84.8,0c4.267,0 6.4,1.867 6.4,4.8c0,1.867 -0.533,4.534 -0.8,6.134c-5.333,30.666 -19.467,49.6 -27.467,59.2c-6.666,-8.8 -17.333,-24.8 -22.666,-49.334c-1.067,-4.8 -2.934,-13.333 -14.934,-13.333c-8.533,0 -16,6.4 -16,13.6c0,7.733 11.467,38.133 37.867,65.067c-25.333,21.866 -48.533,29.066 -71.2,36c-1.6,0.533 -5.067,1.6 -5.067,6.133c0,3.467 2.934,6.133 5.867,6.133c3.467,0 48.533,-8.8 84.8,-35.2c32.533,25.867 68.8,33.6 70.133,33.6c2.934,0 5.867,-2.4 5.867,-6.133c0,-4 -2.667,-5.067 -4.267,-5.867c-22.4,-9.333 -36.533,-15.2 -56.266,-34.133c22.133,-20.8 36.266,-43.733 43.466,-72.8c0.8,-3.733 2.134,-8.8 2.134,-12.533c0,-8 -6.134,-13.6 -16.8,-13.6l-30.4,0ZM12354.2,651.245l-27.733,0c-2.4,0 -7.467,0.533 -7.467,6.133c0,5.067 4.534,5.867 7.467,5.867l27.733,0l0,67.2c-4.8,1.6 -27.733,9.6 -32.8,11.733c-3.466,1.6 -6.4,4.8 -6.4,9.867c0,7.467 5.6,12.8 11.2,12.8c4,0 21.6,-9.333 28,-12.8l0,62.933c0,9.067 -1.866,11.2 -11.2,11.2l-9.6,0c-2.4,0 -7.466,0.534 -7.466,6.134c0,5.333 5.066,6.133 7.466,6.133l24.534,0c16.266,0 24.266,-5.333 24.266,-21.067l0,-81.333c6.667,-4.267 20.534,-12.267 26.667,-16.533c2.133,-1.334 3.2,-2.934 3.2,-5.334c0,-3.733 -2.933,-6.133 -5.867,-6.133c-1.333,0 -2.4,0.267 -4,1.067c-2.933,1.333 -16.8,8 -20,9.6l0,-55.467l20.534,0c2.133,0 7.466,-0.533 7.466,-6.133c0,-5.6 -5.333,-5.867 -7.466,-5.867l-20.534,0l0,-40c0,-5.6 -0.533,-17.6 -14.133,-17.6c-13.867,0 -13.867,13.067 -13.867,17.6l0,40Z" style="fill:#231f20;fill-rule:nonzero;"/><path d="M12505.2,942.845c0,-5.867 1.333,-34.4 1.333,-40.8c0,-3.733 0,-16.267 -15.467,-16.267c-14.933,0 -14.666,12.8 -14.666,22.4l0,36c-6.667,0 -39.734,1.067 -47.2,1.067c-3.467,0 -20.534,-0.267 -24.534,-0.267c-4.266,0 -7.733,2.667 -7.733,7.467c0,3.2 1.867,6.933 6.133,7.467c2.134,0.266 17.867,0.266 26.667,0.266c6.667,0 39.467,-1.066 46.667,-1.333c0,23.2 1.066,51.2 2.666,74.133c-3.733,-0.8 -8.8,-1.6 -17.333,-1.6c-31.467,0 -61.6,13.6 -61.6,41.867c0,33.867 40,37.6 55.2,37.6c21.067,0 41.333,-6.4 49.333,-23.2c3.734,-8 4.267,-14.4 3.734,-23.2c2.666,1.6 7.733,4.8 14.666,10.667c13.867,11.733 15.734,13.066 20.267,13.066c6.4,0 12.267,-7.2 12.267,-14.133c0,-6.133 -3.2,-9.067 -12.8,-15.467c-6.4,-4.266 -18.667,-12 -35.734,-18.666c-1.6,-23.734 -2.666,-45.867 -2.133,-82.4c10.133,-0.534 28.533,-1.867 37.333,-2.934c3.467,-0.533 8.8,-1.333 8.8,-7.733c0,-4.267 -3.2,-7.467 -6.4,-7.467c-1.6,0 -4.8,0.534 -7.2,0.8c-9.333,1.067 -19.466,1.867 -32.266,2.667ZM12479.6,1050.05c0.266,3.467 0.533,13.067 0.533,16c0,9.6 0,28.8 -26.133,28.8c-4,0 -28,-0.533 -28,-21.067c0,-14.933 13.866,-26.666 35.2,-26.666c8.266,0 14.133,1.6 18.4,2.933ZM12359.6,891.912c-13.334,0 -14.134,7.2 -16.534,26.666c-3.466,29.6 -6.4,63.2 -6.4,92.8c0,29.067 1.067,57.067 2.667,72.8c1.067,12.534 2.133,22.934 14.933,22.934c8.534,0 15.467,-4 15.467,-12c0,-2.134 -2.133,-17.067 -2.133,-18.134c-2.134,-18.666 -3.2,-41.6 -3.2,-59.466c0,-30.667 3.2,-58.667 5.066,-73.6c0.8,-6.134 5.6,-36 5.6,-38.934c0,-8.8 -7.733,-13.066 -15.466,-13.066Z" style="fill:#231f20;fill-rule:nonzero;"/></g><g transform="matrix(0.146645,-4.03897e-28,2.52435e-28,0.146645,-1807.19,-43.731)"><path d="M12549.2,300.712c-13.334,0 -25.6,10.933 -25.6,25.866c0,14.4 11.733,25.6 25.6,25.6c14.4,0 25.866,-12 25.866,-25.6c-0.266,-14.4 -11.733,-25.866 -25.866,-25.866ZM12549.2,312.445c7.466,0 14.133,6.133 14.133,14.133c0,7.467 -6.133,13.867 -14.133,13.867c-7.734,0 -13.867,-6.133 -13.867,-13.867c0,-8.266 6.667,-14.133 13.867,-14.133ZM12348.6,343.912c-2.933,0 -9.6,0 -9.6,7.2c0,7.466 6.667,7.466 9.6,7.466l137.867,0c6.933,0 9.867,4.8 9.867,9.867c0,6.667 -8.267,38.933 -22.134,65.333c-36,69.067 -96.266,85.067 -120,90.934c-3.466,0.8 -9.066,2.133 -9.066,8c0,4.266 3.466,7.2 6.933,7.2c1.867,0 5.6,-1.067 6.933,-1.334c34.667,-8.266 53.867,-14.933 76.534,-28.266c81.066,-48.267 94.133,-144.534 94.133,-145.067c0,-11.733 -8.8,-21.333 -21.6,-21.333l-159.467,0Z" style="fill:#231f20;fill-rule:nonzero;"/><path d="M12535,646.712c0,-13.067 -9.866,-21.867 -22.133,-21.867l-142.4,0c-13.067,0 -22.133,9.6 -22.133,21.867l0,140.266c0,13.334 10.133,21.867 22.133,21.867l142.4,0c12.533,0 22.133,-9.067 22.133,-21.867l0,-140.266ZM12494.5,639.512c6.133,0 10.667,4 10.667,10.666l0,133.6c0,5.334 -3.467,10.667 -10.667,10.667l-105.6,0c-6.667,0 -10.667,-4.533 -10.667,-10.667l0,-133.6c0,-6.666 4.267,-10.666 10.667,-10.666l105.6,0Z" style="fill:#231f20;fill-rule:nonzero;"/><path d="M12547.3,868.712c-4.533,-0.8 -8,2.666 -8,6.133c0,2.667 1.333,4.267 2.4,5.333c3.467,4 9.6,11.734 10.133,12.534c7.467,10.4 8.267,11.466 12.267,11.466c4.8,0 9.067,-4 9.067,-8.533c0,-7.733 -22.4,-26.4 -25.867,-26.933ZM12425.2,925.778c1.866,-4 10.666,-24 10.666,-30.4c0,-9.6 -10.133,-13.333 -17.066,-13.333c-12,0 -14.134,8.267 -16,16.267c-13.867,60.533 -44.534,82.666 -62.134,94.4c-6.133,4 -7.466,4.8 -7.466,8.8c0,4 2.933,7.2 7.2,7.2c4.533,0 21.866,-10.4 30.4,-16.534c21.866,-15.2 35.466,-31.466 46.666,-52l80.534,0c1.333,0 6.666,0.534 6.666,7.734c0,1.6 -2.933,36.8 -24.8,73.866c-32.533,55.467 -80.533,68.534 -123.466,75.2c-7.734,1.067 -12,1.867 -12,8.267c0,4.267 3.466,7.2 7.2,7.2c2.4,0 14.666,-1.6 18.133,-2.133c37.067,-5.067 64.533,-14.667 87.2,-29.067c70.667,-44.533 81.067,-136 81.067,-138.133c0,-6.4 -4.534,-17.334 -20.534,-17.334l-92.266,0ZM12522,879.912c-3.734,-0.8 -8,2.133 -8,6.133c0,2.133 1.066,3.733 2.4,5.333c4,4.8 8.533,10.934 12.8,17.867c5.066,8.267 6.133,9.6 10.4,9.6c5.333,0 9.866,-4.533 9.866,-9.6c0,-6.933 -23.2,-28.533 -27.466,-29.333Z" style="fill:#231f20;fill-rule:nonzero;"/><path d="M12375.6,1185.11c-3.2,0 -9.6,0 -9.6,7.466c0,7.2 6.666,7.2 9.6,7.2l134.4,0c2.933,0 9.6,0 9.6,-7.466c0,-7.2 -6.667,-7.2 -9.6,-7.2l-134.4,0ZM12346.5,1240.85c-2.933,0 -9.867,0 -9.867,7.467c0,7.2 6.934,7.2 9.867,7.2l153.333,0c5.867,0 8,3.733 8,8.266c0,9.334 -6.133,30.934 -17.333,49.867c-19.733,32.533 -49.333,52.8 -97.333,58.667c-9.334,1.066 -13.867,1.6 -13.867,8c0,4.266 3.467,7.2 7.467,7.2c21.333,0 54.133,-8.267 74.666,-18.134c64,-30.666 79.734,-94.666 79.734,-110.933c0,-10.4 -6.934,-17.6 -17.6,-17.6l-177.067,0Z" style="fill:#231f20;fill-rule:nonzero;"/><path d="M12496.9,1506.85c7.733,0 12.533,-7.733 12.533,-14.133c0,-12 -8.266,-14.934 -41.066,-19.467c-37.6,-5.333 -80.8,-6.4 -93.6,-6.4c-2.667,0 -9.067,0.533 -9.067,7.467c0,7.466 4.8,7.733 22.667,8.266c1.333,0 48,2.134 94.4,20c9.866,3.734 10.933,4.267 14.133,4.267ZM12488.1,1578.85c9.6,0 13.067,-8.267 13.067,-14.133c0,-11.2 -6.667,-13.334 -34.4,-20.267c-40.267,-9.867 -84,-13.6 -86.134,-13.6c-6.4,0 -8,4 -8,6.933c0,6.134 5.6,7.2 11.2,8.267c46.4,8.267 71.467,19.2 85.334,25.333c3.466,1.6 16.8,7.467 18.933,7.467ZM12513.7,1668.71c13.067,-0.267 15.733,-11.734 15.733,-16.267c0,-10.4 -2.933,-11.733 -29.6,-22.667c-48.8,-20 -124.8,-29.066 -141.6,-29.066c-1.866,0 -8.8,0 -8.8,6.933c0,6.667 5.067,7.2 13.6,8.533c58.934,8.534 99.467,24.534 128.534,41.067c19.2,11.2 19.466,11.467 22.133,11.467Z" style="fill:#231f20;fill-rule:nonzero;"/><path d="M12429.2,1800.85c6.933,0 15.2,-6.667 15.2,-16.533c0,-6.934 -1.067,-11.734 -33.334,-28.267c-26.666,-13.867 -48.266,-18.933 -50.933,-18.933c-3.2,0 -6.667,2.933 -6.667,6.666c0,3.734 2.934,5.334 7.2,7.734c16.267,8.8 33.6,18.666 48.267,35.2c10.133,11.733 12.267,14.133 20.267,14.133ZM12345.7,1943.25c0,6.667 4,17.067 14.933,17.067c5.867,0 82.134,-17.334 137.334,-68.8c38.4,-36 55.733,-78.934 55.733,-83.2c0,-3.467 -2.933,-6.667 -6.933,-6.667c-4.534,0 -6.134,3.2 -7.734,6.667c-6.133,12.533 -22.133,34.4 -34.4,47.2c-51.733,54.133 -115.2,66.933 -136,71.2c-14.4,2.933 -22.933,4.8 -22.933,16.533Z" style="fill:#231f20;fill-rule:nonzero;"/><path d="M12547.3,2002.05c-4.533,-0.8 -8,2.667 -8,6.133c0,2.667 1.333,4.267 2.4,5.334c3.467,4 9.6,11.733 10.133,12.533c7.467,10.4 8.267,11.467 12.267,11.467c4.8,0 9.067,-4 9.067,-8.534c0,-7.733 -22.4,-26.4 -25.867,-26.933ZM12425.2,2059.11c1.866,-4 10.666,-24 10.666,-30.4c0,-9.6 -10.133,-13.334 -17.066,-13.334c-12,0 -14.134,8.267 -16,16.267c-13.867,60.533 -44.534,82.667 -62.134,94.4c-6.133,4 -7.466,4.8 -7.466,8.8c0,4 2.933,7.2 7.2,7.2c4.533,0 21.866,-10.4 30.4,-16.533c21.866,-15.2 35.466,-31.467 46.666,-52l80.534,0c1.333,0 6.666,0.533 6.666,7.733c0,1.6 -2.933,36.8 -24.8,73.867c-32.533,55.466 -80.533,68.533 -123.466,75.2c-7.734,1.066 -12,1.866 -12,8.266c0,4.267 3.466,7.2 7.2,7.2c2.4,0 14.666,-1.6 18.133,-2.133c37.067,-5.067 64.533,-14.667 87.2,-29.067c70.667,-44.533 81.067,-136 81.067,-138.133c0,-6.4 -4.534,-17.333 -20.534,-17.333l-92.266,0ZM12522,2013.25c-3.734,-0.8 -8,2.133 -8,6.133c0,2.134 1.066,3.734 2.4,5.334c4,4.8 8.533,10.933 12.8,17.866c5.066,8.267 6.133,9.6 10.4,9.6c5.333,0 9.866,-4.533 9.866,-9.6c0,-6.933 -23.2,-28.533 -27.466,-29.333Z" style="fill:#231f20;fill-rule:nonzero;"/><path d="M12543.3,2358.45c-4.533,-0.8 -8,2.667 -8,6.133c0,1.6 0.533,3.467 2.133,5.067c6.667,7.467 7.2,8 10.667,12.8c7.467,10.133 8.267,11.2 11.733,11.2c5.334,0 9.334,-4.267 9.334,-9.067c0,-7.2 -22.4,-25.6 -25.867,-26.133ZM12518,2369.38c-4.8,-1.066 -8.534,2.134 -8.534,6.134c0,2.133 1.6,4.266 2.934,5.866c4.266,5.067 9.866,13.867 12,17.334c5.066,8.533 5.866,9.866 10.4,9.866c5.333,0 9.866,-4.266 9.866,-9.333c0,-6.667 -22.4,-28.8 -26.666,-29.867ZM12463,2336.31c-18.133,9.333 -70.4,36.533 -70.4,96.8c0,69.6 65.334,89.333 112,89.333c3.467,0 11.467,0 11.467,-8.8c0,-7.733 -7.2,-8 -12.267,-8.267c-52.533,-1.333 -78.933,-34.4 -78.933,-78.666c0,-48.267 33.067,-89.867 105.867,-92c14.666,-0.534 18.666,-0.534 18.666,-8c0,-8.267 -7.733,-8.267 -9.866,-8.267c-5.6,0 -41.867,2.133 -52.267,2.933c-19.2,1.334 -103.2,5.334 -122.4,6.4c-32.267,2.134 -34.667,1.867 -34.667,9.6c0,4.534 3.467,7.734 7.467,7.734c1.067,0 33.067,-2.667 39.467,-3.2c1.866,0 63.466,-4.8 85.866,-5.6Z" style="fill:#231f20;fill-rule:nonzero;"/><path d="M12480.9,2618.85c0,-4.533 -0.267,-24.8 -0.533,-28c-0.8,-8 -5.867,-13.6 -15.2,-13.6c-7.2,0 -15.2,3.733 -15.2,15.2c0,1.067 1.066,16.8 1.6,27.467c-29.6,0.8 -78.667,3.733 -108.8,5.6c-6.934,0.533 -12.267,1.066 -12.267,8c0,5.066 3.467,7.466 7.2,7.466c3.2,0 27.733,-1.866 33.067,-2.133c27.733,-1.6 53.6,-2.933 81.6,-4c0.266,10.4 0.533,21.6 0.533,32c-12.8,-10.4 -26.4,-10.4 -29.333,-10.4c-24.8,0 -42.934,21.6 -42.934,53.333c0,32.534 18.667,48.8 39.467,48.8c9.867,0 24,-4.266 32.533,-15.733c-1.6,9.867 -6.666,44.533 -47.2,59.733c-14.133,5.334 -15.733,5.867 -15.733,10.4c0,4 3.2,6.934 6.933,6.934c2.134,0 22.667,-4.8 40,-15.2c27.2,-16.534 45.6,-43.734 45.6,-98.667c0,-10.4 -1.066,-60.533 -1.066,-72c27.466,-0.8 61.6,-1.067 65.333,-1.067c8.267,0 8.8,-5.866 8.8,-7.466c0,-7.467 -6.667,-7.467 -9.067,-7.467c-20.533,0 -45.066,0.533 -65.333,0.8ZM12430.5,2672.98c23.2,0 23.2,25.867 23.2,32.534c0,32.266 -21.333,33.866 -25.333,33.866c-14.667,0 -22.134,-13.866 -22.134,-32c0,-34.133 21.867,-34.4 24.267,-34.4Z" style="fill:#231f20;fill-rule:nonzero;"/></g></g></svg>