<?xml version="1.0" encoding="UTF-8" standalone="no"?><!DOCTYPE svg PUBLIC "-//W3C//DTD SVG 1.1//EN" "http://www.w3.org/Graphics/SVG/1.1/DTD/svg11.dtd"><svg width="100%" height="100%" viewBox="0 0 1536 240" version="1.1" xmlns="http://www.w3.org/2000/svg" xmlns:xlink="http://www.w3.org/1999/xlink" xml:space="preserve" style="fill-rule:evenodd;clip-rule:evenodd;stroke-linejoin:round;stroke-miterlimit:1.41421;"><g id="top-wave"><path d="M0,128.257l0,-121.792c130.165,-14.044 267.986,5.654 397.099,45.056c178.115,54.357 284.61,58.632 401.436,27.063c116.826,-31.568 227.836,-28.998 323.883,-5.917c59.11,14.205 113.025,21.081 163.979,10.526c69.583,-14.414 118.405,-64.059 249.603,-76.728l0,124.242l-462.351,69.198l-376.903,-47.815l-332.204,37.014l-364.542,-60.847Z" style="fill:#10a7ac;fill-opacity:0.36;"/><path d="M1536,141.012l0,-104.806c-133.482,-15.134 -269.292,6.219 -389.613,44.464c-182.159,57.901 -362.613,19.395 -435.874,-2.944c-76.812,-23.422 -184.283,-24.79 -263.117,-10.452c-78.834,14.338 -167.541,11.664 -259.478,-4.906c-48.563,-8.752 -115.712,-17.492 -187.918,-26.162l0,84.647l396.475,69.24l293.752,-35.038l389.886,44.85l455.887,-58.893Z" style="fill:#007db8;fill-opacity:0.356;"/><rect x="0" y="167.981" width="1536" height="74" style="fill:#fff;"/><path d="M1535.93,171.268c-71.262,0.158 -147.214,7.416 -218.777,24.922c-142.065,34.751 -262.087,44.462 -373.87,20.283c-175.063,-37.866 -342.378,-30.13 -451.36,-10.447c-108.982,19.683 -203.204,12.496 -310.073,-15.704c-51.334,-13.546 -117.505,-19.087 -181.846,-19.054l0,-67.483c64.671,-0.122 130.238,8.14 181.846,21.759c106.869,28.2 201.091,35.387 310.073,15.704c108.982,-19.683 276.297,-27.419 451.36,10.447c111.783,24.179 231.805,14.467 373.87,-20.284c71.588,-17.511 147.568,-27.473 218.851,-27.626l-0.074,67.483Z" style="fill:#158ccc;"/><path d="M1056.02,60.436c4.02,0.521 8.02,1.078 12,1.672l0,167.715c-4.015,-0.03 -8.015,-0.095 -12,-0.194l0,-169.193ZM1080.02,64.013c4.022,0.678 8.022,1.392 12,2.142l0,163.443c-4.015,0.104 -8.015,0.175 -12,0.212l0,-165.797ZM1032.02,57.786c4.018,0.367 8.018,0.771 12,1.211l0,170.223c-4.015,-0.173 -8.015,-0.382 -12,-0.628l0,-170.806ZM1104.02,68.538c4.024,0.839 8.024,1.715 12,2.627l0,157.433c-4.016,0.229 -8.016,0.427 -12,0.593l0,-160.653ZM1128.02,73.994c4.023,0.94 8.023,1.844 12,2.708l0,150.168c-4.017,0.347 -8.017,0.664 -12,0.951l0,-153.827ZM1008.02,56.046c4.017,0.215 8.017,0.468 12,0.757l0,170.933c-4.014,-0.324 -8.013,-0.687 -12,-1.088l0,-170.602ZM1164.02,75.223l0,149.246c-4.017,0.455 -8.017,0.883 -12,1.282l0,-146.853c3.983,-1.244 7.983,-2.469 12,-3.675ZM984.016,55.203c4.015,0.066 8.015,0.17 12,0.309l0,169.808c-4.013,-0.485 -8.012,-1.01 -12,-1.575l0,-168.542ZM1188.02,68.306l0,153.133c-4.017,0.557 -8.017,1.087 -12,1.59l0,-151.336c3.985,-1.149 7.985,-2.278 12,-3.387ZM972.016,55.116l0,166.801c-4.012,-0.654 -8.012,-1.35 -12,-2.088l0,-164.58c4.014,-0.082 8.014,-0.126 12,-0.133ZM1212.02,61.963l0,155.864c-4.018,0.651 -8.018,1.277 -12,1.876l0,-154.64c3.987,-1.054 7.987,-2.088 12,-3.1ZM948.016,55.603l0,161.873c-1.58,-0.327 -3.16,-0.662 -4.737,-1.003c-2.423,-0.524 -4.844,-1.039 -7.263,-1.545l0,-158.748c4.012,-0.23 8.012,-0.421 12,-0.577ZM360.016,40.82c4.007,1.09 8.007,2.199 12,3.328l0,172.998c-4.007,0.001 -8.006,-0.037 -12,-0.112l0,-176.214ZM384.016,47.606c4.007,1.175 8.008,2.371 12,3.586l0,165.493c-4.009,0.153 -8.009,0.268 -12,0.345l0,-169.424ZM336.016,34.551c4.006,1.003 8.006,2.026 12,3.07l0,179.073c-4.003,-0.152 -8.002,-0.341 -12,-0.568l0,-181.575ZM408.016,54.816c4.036,1.205 8.036,2.384 12,3.536l0,156.966c-4.013,0.304 -8.012,0.569 -12,0.796l0,-161.298ZM1236.02,56.194l0,157.483c-4.018,0.738 -8.018,1.451 -12,2.14l0,-156.811c3.988,-0.958 7.988,-1.896 12,-2.812ZM312.016,28.805c4.005,0.916 8.005,1.852 12,2.808l0,183.72c-4,-0.302 -7.999,-0.641 -12,-1.017l0,-185.511ZM432.016,61.791c4.037,1.141 8.037,2.254 12,3.338l0,147.934c-4.015,0.45 -8.015,0.862 -12,1.237l0,-152.509ZM288.016,23.585c4.004,0.827 8.004,1.675 12,2.544l0,186.951c-3.996,-0.447 -7.996,-0.931 -12,-1.451l0,-188.044ZM924.016,56.975l0,155.508c-4.005,-0.794 -8.005,-1.564 -12,-2.311l0,-152.181c4.011,-0.376 8.012,-0.715 12,-1.016ZM468.016,63.973l0,145.974c-4.018,0.592 -8.017,1.146 -12,1.663l0,-145.822c3.939,-0.643 7.941,-1.249 12,-1.815ZM1260.02,51.004l0,158.025c-4.018,0.817 -8.018,1.612 -12,2.383l0,-157.885c3.99,-0.863 7.99,-1.704 12,-2.523ZM264.016,18.898c4.003,0.737 8.003,1.496 12,2.277l0,188.792c-3.993,-0.587 -7.992,-1.209 -12,-1.867l0,-189.202ZM492.016,61.134l0,144.875l-0.097,0.017c-3.987,0.72 -7.954,1.404 -11.903,2.052l0,-145.65c3.957,-0.467 7.96,-0.899 12,-1.294ZM900.016,59.228l0,148.764c-4.007,-0.705 -8.007,-1.388 -12,-2.049l0,-145.258c4.01,-0.524 8.01,-1.009 12,-1.457ZM1284.02,46.397l0,157.526c-4.017,0.891 -8.017,1.761 -12,2.608l0,-157.904c3.991,-0.766 7.99,-1.51 12,-2.23ZM240.016,14.754c4.002,0.645 8.002,1.313 12,2.003l0,189.277c-3.99,-0.72 -7.989,-1.473 -12,-2.26l0,-189.02ZM876.016,62.365l0,141.657c-4.008,-0.62 -8.008,-1.219 -12,-1.795l0,-137.962c4.009,-0.672 8.009,-1.306 12,-1.9ZM516.016,59.241l0,142.783c-4.067,0.619 -8.068,1.255 -12,1.908l0,-143.856c3.971,-0.313 7.973,-0.592 12,-0.835ZM216.016,11.163c4.001,0.552 8.001,1.127 12,1.726l0,188.44c-3.987,-0.843 -7.987,-1.717 -12,-2.624l0,-187.542ZM1308.02,42.38l0,156.016c-4.018,0.958 -8.017,1.896 -12,2.814l0,-156.896c3.992,-0.668 7.992,-1.313 12,-1.934ZM852.016,66.389l0,134.168c-4.01,-0.537 -8.01,-1.052 -12,-1.546l0,-130.275c4.008,-0.822 8.008,-1.604 12,-2.347ZM540.016,58.214l0,140.463c-4.056,0.516 -8.056,1.048 -12,1.598l0,-141.653c3.982,-0.17 7.984,-0.306 12,-0.408ZM828.016,71.307l0,126.279c-4.011,-0.456 -8.011,-0.89 -12,-1.303l0,-122.178c4.007,-0.972 8.007,-1.905 12,-2.798ZM552.016,58.014c3.992,-0.033 7.994,-0.031 12,0.005l0,137.889c-4.047,0.421 -8.047,0.86 -12,1.316l0,-139.21ZM192.016,8.137c4,0.456 8,0.937 12,1.442l0,186.331c-3.984,-0.956 -7.984,-1.942 -12,-2.959l0,-184.814ZM1332.02,38.963l0,153.75c-4.013,0.896 -8.013,1.823 -12,2.782l0,-154.899c3.993,-0.569 7.993,-1.114 12,-1.633ZM804.016,77.127l0,117.971c-4.013,-0.376 -8.014,-0.731 -12,-1.065l0,-113.722c2.17,-0.563 4.343,-1.138 6.519,-1.727c1.829,-0.494 3.656,-0.979 5.481,-1.457ZM576.016,58.233c4.002,0.106 8.003,0.247 12,0.423l0,135.02c-4.041,0.332 -8.041,0.683 -12,1.051l0,-136.494ZM780.016,83.304l0,109.78c-4.014,-0.297 -8.014,-0.574 -12,-0.831l0,-106.208c3.995,-0.869 7.994,-1.783 12,-2.741ZM600.016,59.296c4.011,0.25 8.013,0.537 12,0.861l0,131.795c-4.035,0.249 -8.035,0.515 -12,0.8l0,-133.456ZM744.016,86.943c2.908,0.722 5.897,1.446 8.963,2.168c1.012,-0.192 2.024,-0.387 3.037,-0.585l0,103.011c-4.017,-0.22 -8.017,-0.42 -12,-0.599l0,-103.995ZM624.016,61.25c4.022,0.407 8.024,0.853 12,1.339l0,128.128c-4.031,0.167 -8.031,0.353 -12,0.558l0,-130.025ZM720.016,80.535c3.783,1.085 7.786,2.195 12,3.318l0,106.601c-4.019,-0.143 -8.02,-0.267 -12,-0.37l0,-109.549ZM648.016,64.187c4.035,0.583 8.037,1.208 12,1.878l0,123.891c-4.027,0.089 -8.027,0.196 -12,0.322l0,-126.091ZM1356.02,36.156l0,151.587c-4.009,0.767 -8.01,1.563 -12,2.389l0,-152.65c3.994,-0.468 7.994,-0.91 12,-1.326ZM168.016,5.69c3.999,0.359 7.999,0.742 12,1.15l0,183.005c-3.919,-1.013 -7.921,-1.98 -12,-2.902l0,-181.253ZM696.016,73.656c4.071,1.05 8.074,2.157 12,3.321l0,112.851c-4.021,-0.066 -8.022,-0.113 -12,-0.141l0,-116.031ZM672.016,68.247c4.05,0.791 8.052,1.629 12,2.517l0,118.898c-4.024,0.011 -8.024,0.041 -12,0.089l0,-121.504ZM1380.02,33.972l0,149.542c-4.006,0.647 -8.007,1.322 -12,2.026l0,-150.556c3.995,-0.363 7.996,-0.701 12,-1.012ZM144.016,3.841c3.998,0.257 7.999,0.541 12,0.849l0,179.712c-3.941,-0.782 -7.943,-1.525 -12,-2.231l0,-178.33ZM1404.02,32.426l0,147.546c-4.003,0.536 -8.004,1.098 -12,1.688l0,-148.542c3.996,-0.258 7.997,-0.489 12,-0.692ZM120.016,2.605c3.998,0.153 7.998,0.333 12,0.54l0,177.07c-3.957,-0.603 -7.959,-1.173 -12,-1.711l0,-175.899ZM1428.02,28.928l0,148.148c-4,0.431 -8.001,0.887 -12,1.37l0,-146.548c1.26,-0.048 2.52,-0.092 3.78,-0.133c2.693,-0.957 5.432,-1.904 8.22,-2.837ZM96.016,2.004c3.996,0.045 7.996,0.119 12,0.219l0,174.791c-3.97,-0.459 -7.971,-0.888 -12,-1.29l0,-173.72ZM1452.02,21.613l0,153.179c-3.997,0.331 -7.998,0.687 -12,1.067l0,-150.769c3.903,-1.19 7.9,-2.351 12,-3.477ZM84.016,1.949l0,172.673c-3.98,-0.337 -7.981,-0.646 -12,-0.93l0,-171.63c3.996,-0.066 7.996,-0.103 12,-0.113ZM1476.02,15.715l0,157.375c-3.994,0.236 -7.995,0.496 -12,0.779l0,-155.378c3.907,-0.959 7.905,-1.886 12,-2.776ZM60.016,2.346l0,170.579c-3.989,-0.229 -7.99,-0.433 -12,-0.613l0,-169.507c3.994,-0.182 7.994,-0.335 12,-0.459ZM1500.02,11.136l0,160.816c-3.991,0.143 -7.991,0.31 -12,0.5l0,-159.184c3.913,-0.746 7.912,-1.457 12,-2.132ZM36.016,3.441l0,168.404c-3.997,-0.132 -7.998,-0.241 -12,-0.327l0,-167.258c3.994,-0.303 7.994,-0.576 12,-0.819ZM1524.02,7.751l0,163.611c-3.988,0.053 -7.988,0.128 -12,0.226l0,-162.286c3.919,-0.552 7.917,-1.07 12,-1.551ZM12.016,5.266l0,166.061c-4.005,-0.042 -8.007,-0.061 -12,-0.059l0,-164.804c3.993,-0.431 7.993,-0.83 12,-1.198Z" style="fill:#fff;fill-opacity:0.1;"/></g></svg>