<?xml version="1.0" standalone="no"?><!DOCTYPE svg PUBLIC "-//W3C//DTD SVG 1.1//EN" "http://www.w3.org/Graphics/SVG/1.1/DTD/svg11.dtd"><svg width="100%" height="100%" viewBox="0 0 313 80" version="1.1" xmlns="http://www.w3.org/2000/svg" xmlns:xlink="http://www.w3.org/1999/xlink" xml:space="preserve" style="fill-rule:evenodd;clip-rule:evenodd;stroke-linecap:round;stroke-linejoin:round;stroke-miterlimit:10;"><g id="top-logo"><path d="M171.493,10.932c0.323,0.009 0.323,0.005 0.643,0.038c0.162,0.017 0.326,0.045 0.485,0.077c0.623,0.124 1.22,0.348 1.775,0.658c0.147,-0.066 0.296,-0.128 0.446,-0.19c0.754,-0.304 1.527,-0.559 2.316,-0.755c1.443,-0.359 2.932,-0.526 4.418,-0.511c1.631,0.018 3.261,0.263 4.812,0.77c1.681,0.549 3.263,1.396 4.654,2.488c0.715,0.561 1.38,1.186 1.982,1.867c0.275,0.311 0.535,0.634 0.785,0.966l0.093,0.127l0.044,0.061c0.111,-0.119 0.224,-0.236 0.337,-0.352c0.528,-0.53 1.081,-1.034 1.664,-1.502c0.945,-0.76 1.96,-1.431 3.025,-2.011c1.593,-0.868 3.303,-1.527 5.072,-1.931c2.431,-0.556 4.975,-0.635 7.437,-0.234c0.964,0.157 1.915,0.389 2.843,0.695c0.492,0.163 0.977,0.349 1.455,0.55l0.045,0.02l0.152,-0.087l0.159,-0.084c0.16,-0.079 0.321,-0.155 0.487,-0.223c0.277,-0.112 0.562,-0.203 0.853,-0.273c0.326,-0.078 0.661,-0.129 0.997,-0.151c0.12,-0.008 0.24,-0.01 0.361,-0.013l2.861,0l0,-3.391c0.005,-0.158 0.005,-0.158 0.011,-0.316c0.045,-0.675 0.195,-1.339 0.458,-1.963c0.604,-1.435 1.771,-2.602 3.205,-3.206c0.551,-0.232 1.136,-0.38 1.73,-0.44c0.183,-0.019 0.367,-0.023 0.551,-0.029l3.756,0c0.118,0.004 0.235,0.005 0.353,0.012c0.075,0.004 0.149,0.015 0.224,0.022c0.108,0.011 0.156,0.016 0.26,0.031c0.465,0.069 0.924,0.196 1.36,0.372c0.617,0.249 1.19,0.602 1.691,1.039c0.706,0.617 1.266,1.398 1.62,2.266c0.162,0.399 0.281,0.815 0.354,1.239c0.035,0.204 0.057,0.408 0.074,0.613l0,0.008l4.262,-4.008l0.267,-0.234c0.129,-0.099 0.256,-0.2 0.39,-0.293c0.199,-0.139 0.407,-0.264 0.622,-0.377c0.615,-0.323 1.285,-0.539 1.974,-0.634c0.26,-0.036 0.52,-0.049 0.782,-0.056l4.683,0c0.132,-0.092 0.132,-0.091 0.265,-0.18l0.156,-0.1c0.265,-0.161 0.534,-0.313 0.813,-0.448c0.64,-0.309 1.319,-0.537 2.015,-0.679c1.81,-0.371 3.738,-0.166 5.422,0.596c1.032,0.468 1.966,1.142 2.749,1.959c0.522,0.546 0.977,1.159 1.345,1.819c0.496,0.891 0.83,1.868 0.989,2.875c0.177,1.118 0.14,2.27 -0.111,3.374c-0.187,0.816 -0.493,1.605 -0.906,2.334c-0.188,0.331 -0.399,0.648 -0.626,0.954l-0.037,0.049l0.032,0.061c0.149,-0.114 0.148,-0.113 0.299,-0.225c0.456,-0.333 0.921,-0.65 1.402,-0.944c1.03,-0.63 2.119,-1.163 3.25,-1.584c1.855,-0.691 3.819,-1.076 5.795,-1.175c1.321,-0.066 2.65,-0.009 3.959,0.183c0.552,0.08 1.099,0.187 1.643,0.314l0.017,0.005l0,-4.142l0.012,-0.346c0.023,-0.243 0.048,-0.483 0.093,-0.723c0.089,-0.468 0.234,-0.926 0.432,-1.36c0.434,-0.955 1.122,-1.789 1.975,-2.4c0.495,-0.355 1.045,-0.634 1.624,-0.823c0.412,-0.135 0.838,-0.224 1.269,-0.268c0.183,-0.018 0.366,-0.023 0.55,-0.029l3.463,0c0.116,0.004 0.231,0.006 0.346,0.012c0.137,0.008 0.28,0.024 0.417,0.043c0.463,0.064 0.919,0.181 1.355,0.35c1.032,0.401 1.944,1.092 2.613,1.974c0.371,0.488 0.665,1.032 0.871,1.609c0.163,0.457 0.27,0.934 0.318,1.417c0.019,0.183 0.024,0.367 0.029,0.55l0,4.582c0.166,-0.066 0.166,-0.065 0.332,-0.128l0.201,-0.073c0.337,-0.115 0.675,-0.221 1.018,-0.312c0.633,-0.166 1.278,-0.286 1.928,-0.361c0.977,-0.112 1.964,-0.13 2.943,-0.042c0.606,0.054 1.207,0.147 1.8,0.281c1.503,0.338 2.943,0.925 4.28,1.688c1.05,0.6 2.037,1.306 2.963,2.084c0.336,0.282 0.663,0.575 0.984,0.874c0.23,0.215 0.458,0.431 0.664,0.669c0.278,0.32 0.521,0.669 0.726,1.04c0.439,0.797 0.69,1.693 0.734,2.602c0.044,0.908 -0.118,1.825 -0.478,2.661c-0.217,0.505 -0.504,0.981 -0.85,1.409c-0.103,0.126 -0.213,0.246 -0.323,0.366l-2.252,2.327c-0.117,0.114 -0.233,0.227 -0.355,0.334l-0.022,0.018c0.126,0.114 0.249,0.23 0.371,0.346c0.114,0.112 0.227,0.224 0.339,0.338c0.319,0.333 0.627,0.676 0.911,1.039c0.54,0.693 1.002,1.45 1.386,2.239c0.493,1.013 0.854,2.091 1.068,3.197c0.191,0.99 0.263,2 0.232,3.008c-0.064,2.06 -0.569,4.111 -1.536,5.936c-1.185,2.24 -3.001,4.152 -5.176,5.453c-0.622,0.372 -1.275,0.693 -1.949,0.959c-1.862,0.737 -3.873,1.044 -5.871,0.979c-1.293,-0.041 -2.582,-0.237 -3.828,-0.586c-0.961,-0.269 -1.89,-0.633 -2.787,-1.069l-0.096,-0.048c-0.096,0.065 -0.096,0.064 -0.194,0.126l-0.136,0.082c-0.185,0.106 -0.373,0.206 -0.567,0.293c-0.428,0.193 -0.879,0.335 -1.34,0.423c-0.211,0.039 -0.424,0.069 -0.638,0.086c-0.145,0.011 -0.29,0.014 -0.436,0.019l-3.451,0c-0.123,-0.004 -0.245,-0.005 -0.368,-0.014c-0.205,-0.014 -0.41,-0.038 -0.613,-0.073c-0.506,-0.088 -1,-0.24 -1.468,-0.453c-0.186,-0.085 -0.366,-0.181 -0.543,-0.282l-0.031,-0.019c-0.16,0.069 -0.321,0.134 -0.483,0.199c-0.144,0.056 -0.288,0.111 -0.433,0.165c-0.76,0.276 -1.534,0.507 -2.324,0.684c-1.588,0.357 -3.219,0.505 -4.846,0.47c-2.221,-0.047 -4.434,-0.461 -6.508,-1.26c-1.066,-0.411 -2.093,-0.921 -3.065,-1.52c-0.571,-0.352 -1.121,-0.737 -1.654,-1.144l-0.002,-0.001c-0.03,0.059 -0.063,0.117 -0.095,0.176l-0.083,0.144c-0.088,0.141 -0.176,0.281 -0.273,0.416c-0.16,0.223 -0.335,0.435 -0.524,0.635c-0.756,0.798 -1.727,1.381 -2.788,1.668c-0.354,0.096 -0.719,0.161 -1.086,0.19c-0.145,0.011 -0.29,0.014 -0.436,0.019l-3.532,0c-0.146,-0.005 -0.291,-0.008 -0.436,-0.019c-0.114,-0.009 -0.228,-0.023 -0.341,-0.038l-0.063,-0.009c-0.096,0.014 -0.192,0.026 -0.288,0.036c-0.118,0.011 -0.118,0.011 -0.236,0.019l-0.316,0.011l-4.849,0c-0.144,-0.005 -0.289,-0.008 -0.434,-0.019c-0.29,-0.023 -0.578,-0.068 -0.862,-0.133c-0.819,-0.188 -1.596,-0.55 -2.268,-1.056c-0.166,-0.124 -0.326,-0.258 -0.477,-0.399c-0.088,-0.082 -0.171,-0.167 -0.255,-0.252l-5.42,-5.756l0,1.666l-0.012,0.345c-0.023,0.243 -0.048,0.484 -0.093,0.724c-0.089,0.468 -0.234,0.926 -0.432,1.36c-0.457,1.005 -1.195,1.875 -2.11,2.494c-0.459,0.31 -0.962,0.556 -1.489,0.729c-0.411,0.134 -0.838,0.224 -1.269,0.268c-0.183,0.018 -0.366,0.023 -0.55,0.029l-3.75,0c-0.146,-0.005 -0.291,-0.008 -0.437,-0.019c-0.214,-0.017 -0.427,-0.049 -0.639,-0.087l-0.023,-0.005c-0.036,0.083 -0.074,0.164 -0.11,0.246c-0.095,0.204 -0.095,0.204 -0.193,0.406c-0.369,0.744 -0.781,1.463 -1.252,2.148c-0.645,0.939 -1.39,1.802 -2.212,2.591l-0.015,0.013l0.111,0.002l0.619,0.007c0.173,0.008 0.346,0.017 0.519,0.032c0.258,0.023 0.515,0.062 0.769,0.114c0.658,0.133 1.298,0.355 1.897,0.66c0.287,0.146 0.561,0.312 0.828,0.492l0.028,0.019c0.075,-0.1 0.075,-0.099 0.152,-0.197l0.101,-0.123c0.105,-0.122 0.211,-0.242 0.322,-0.357c0.226,-0.233 0.469,-0.449 0.726,-0.648c0.836,-0.646 1.82,-1.088 2.854,-1.304c0.465,-0.097 0.936,-0.147 1.41,-0.159c0.133,-0.002 0.265,-0.002 0.398,0.002c0.495,0.018 0.987,0.076 1.471,0.182c0.501,0.111 0.988,0.271 1.46,0.473l0.066,0.03c0.089,-0.049 0.089,-0.048 0.18,-0.095c0.128,-0.064 0.128,-0.064 0.257,-0.124c0.26,-0.114 0.523,-0.214 0.793,-0.299l0.077,-0.022c0.108,-0.064 0.108,-0.064 0.217,-0.125c0.112,-0.059 0.111,-0.059 0.224,-0.117c0.491,-0.238 1.003,-0.423 1.537,-0.537c0.573,-0.123 1.158,-0.165 1.742,-0.135c0.045,0.003 0.259,0.023 0.321,0.03c0.305,0.033 0.607,0.083 0.904,0.16c0.131,0.034 0.26,0.074 0.388,0.117c0.171,0.058 0.341,0.12 0.507,0.191c0.736,0.314 1.395,0.777 2.01,1.283l0.094,0.079l0.128,0.109c0.106,-0.012 0.212,-0.022 0.318,-0.031c0.113,-0.008 0.225,-0.014 0.339,-0.02c0.912,-0.011 1.825,-0.021 2.738,-0.029c1.446,-0.01 2.891,-0.013 4.337,0.004c0.375,0.004 0.716,0.009 1.091,0.017c0.206,0.004 0.413,0.006 0.62,0.012c0.057,0.002 0.115,0.009 0.172,0.013c0.116,0.009 0.231,0.02 0.347,0.034c0.711,0.084 1.409,0.282 2.057,0.588c0.264,0.124 0.517,0.268 0.763,0.424l0.04,0.026c0.083,-0.064 0.167,-0.127 0.252,-0.188c0.088,-0.062 0.177,-0.122 0.267,-0.181c0.236,-0.147 0.478,-0.284 0.73,-0.403c0.563,-0.266 1.165,-0.451 1.78,-0.551c0.286,-0.046 0.577,-0.075 0.866,-0.084c0.161,-0.006 0.263,-0.003 0.42,-0.001c0.227,0.006 0.454,0.014 0.68,0.022c1.762,0.074 3.525,0.203 5.274,0.436c0.414,0.055 0.827,0.115 1.24,0.181c0.466,0.073 0.931,0.162 1.388,0.283c0.481,0.128 0.95,0.294 1.404,0.5l0.076,0.036l0.059,-0.061l0.134,-0.133c0.123,-0.115 0.152,-0.144 0.28,-0.254c0.24,-0.204 0.494,-0.39 0.76,-0.558c0.7,-0.443 1.488,-0.748 2.302,-0.896c0.267,-0.048 0.535,-0.075 0.805,-0.091l0.11,-0.006c0.334,-0.01 0.334,-0.014 0.684,0.01c0.177,0.011 0.356,0.035 0.532,0.062c0.444,0.067 0.88,0.173 1.312,0.293c0.442,0.123 0.879,0.261 1.311,0.412c0.774,0.269 1.531,0.582 2.273,0.928c0.944,0.44 1.869,0.942 2.683,1.596c0.301,0.242 0.582,0.504 0.848,0.784l0.05,0.054c0.109,-0.032 0.109,-0.032 0.22,-0.062c0.115,-0.029 0.114,-0.029 0.23,-0.056c0.518,-0.112 1.044,-0.169 1.575,-0.157c0.427,0.009 0.849,0.065 1.267,0.152l0.087,0.02l0.056,-0.134l0.064,-0.143c0.112,-0.235 0.23,-0.464 0.364,-0.687c0.272,-0.452 0.595,-0.873 0.962,-1.252c0.366,-0.376 0.774,-0.71 1.216,-0.993c0.336,-0.216 0.692,-0.401 1.061,-0.555c1.378,-0.577 2.925,-0.703 4.388,-0.419c0.534,0.104 1.053,0.264 1.556,0.471l0.097,0.042l0.067,0.03c0.09,-0.049 0.09,-0.048 0.181,-0.096c0.171,-0.084 0.343,-0.165 0.52,-0.236c0.174,-0.069 0.35,-0.13 0.528,-0.186l0.079,-0.022c0.107,-0.063 0.107,-0.063 0.216,-0.124c0.112,-0.06 0.111,-0.06 0.225,-0.118c0.377,-0.184 0.767,-0.337 1.172,-0.448c0.686,-0.189 1.397,-0.26 2.106,-0.224c0.045,0.003 0.259,0.023 0.321,0.03c0.304,0.033 0.606,0.083 0.902,0.159c0.132,0.034 0.262,0.075 0.391,0.118c0.298,0.101 0.588,0.218 0.868,0.361c0.629,0.32 1.205,0.736 1.743,1.192c0.923,0.783 1.756,1.695 2.312,2.779c0.384,0.749 0.627,1.568 0.701,2.407c0.114,1.282 -0.172,2.588 -0.792,3.714c-0.379,0.688 -0.882,1.308 -1.477,1.822c-0.029,0.15 -0.061,0.3 -0.094,0.45c-0.107,0.474 -0.231,0.943 -0.375,1.407c-0.355,1.136 -0.822,2.238 -1.377,3.29c-0.543,1.028 -1.166,2.019 -1.898,2.923c-0.943,1.164 -2.058,2.186 -3.299,3.026c-1.023,0.692 -2.127,1.263 -3.279,1.71c-1.112,0.432 -2.267,0.749 -3.437,0.98c-0.631,0.124 -1.267,0.225 -1.904,0.312c-0.664,0.09 -1.331,0.167 -2.002,0.121c-0.695,-0.048 -1.382,-0.206 -2.027,-0.469c-0.923,-0.376 -1.762,-0.967 -2.42,-1.717c-0.234,-0.266 -0.447,-0.549 -0.635,-0.85c-0.126,-0.201 -0.237,-0.408 -0.343,-0.62l-0.017,-0.034c-0.148,0.096 -0.299,0.189 -0.45,0.282c-0.147,0.089 -0.295,0.177 -0.443,0.264c-1.517,0.873 -3.121,1.598 -4.781,2.154c-0.572,0.192 -1.15,0.367 -1.737,0.504c-0.506,0.118 -1.018,0.209 -1.537,0.246c-1.068,0.075 -2.16,-0.112 -3.147,-0.521c-0.308,-0.127 -0.603,-0.278 -0.89,-0.446l-0.08,-0.048c-0.072,0.036 -0.147,0.07 -0.221,0.104l-0.148,0.064c-0.354,0.143 -0.714,0.265 -1.085,0.354c-0.447,0.107 -0.903,0.171 -1.361,0.194c-0.313,0.017 -0.626,0.014 -0.938,-0.013c-0.575,-0.05 -1.142,-0.179 -1.684,-0.379c-0.835,-0.309 -1.597,-0.781 -2.375,-1.207c-0.177,-0.093 -0.176,-0.093 -0.354,-0.185c-0.775,-0.379 -1.577,-0.697 -2.405,-0.937c-0.898,-0.261 -1.818,-0.429 -2.742,-0.562l-0.223,-0.035c-0.368,-0.07 -0.73,-0.151 -1.087,-0.264c-0.469,-0.148 -0.918,-0.355 -1.343,-0.601l-0.019,-0.011c-0.119,0.104 -0.239,0.207 -0.36,0.308c-0.137,0.113 -0.137,0.112 -0.275,0.224c-0.282,0.219 -0.568,0.434 -0.862,0.638c-0.438,0.304 -0.892,0.586 -1.359,0.845c-1.57,0.872 -3.282,1.476 -5.039,1.835c-0.563,0.115 -1.13,0.204 -1.701,0.269c-0.367,0.042 -0.734,0.079 -1.103,0.084c-0.56,0.008 -1.12,-0.054 -1.664,-0.186c-0.671,-0.164 -1.316,-0.434 -1.902,-0.798c-0.727,-0.45 -1.362,-1.046 -1.86,-1.74c-0.313,-0.436 -0.565,-0.908 -0.766,-1.405l-0.003,-0.007c-0.125,0.119 -0.125,0.118 -0.252,0.234l-0.178,0.158c-0.443,0.381 -0.9,0.743 -1.382,1.075c-1.053,0.727 -2.197,1.322 -3.39,1.786c-1.462,0.567 -2.992,0.93 -4.539,1.174c-0.395,0.062 -0.791,0.119 -1.188,0.167c-0.414,0.05 -0.829,0.092 -1.247,0.087c-0.943,-0.012 -1.882,-0.228 -2.734,-0.633c-0.39,-0.186 -0.757,-0.411 -1.105,-0.667l-0.082,-0.062l-0.066,-0.052c-0.088,0.024 -0.176,0.044 -0.265,0.065c-0.266,0.057 -0.533,0.105 -0.803,0.134c-0.214,0.024 -0.428,0.035 -0.642,0.045c-0.587,0.007 -1.174,0.012 -1.76,0.015c-0.57,0.002 -1.14,0.003 -1.709,0.003c-1.891,-0.004 -3.781,-0.015 -5.671,-0.016c-0.26,-0.006 -0.518,-0.019 -0.775,-0.048c-0.477,-0.053 -0.949,-0.15 -1.407,-0.293c-1.224,-0.383 -2.34,-1.089 -3.211,-2.031c-0.348,-0.375 -0.651,-0.786 -0.918,-1.223l-0.035,-0.06c-0.138,0.118 -0.279,0.233 -0.421,0.346c-0.132,0.104 -0.265,0.207 -0.399,0.308c-0.674,0.5 -1.38,0.954 -2.115,1.359c-0.866,0.478 -1.769,0.889 -2.694,1.239c-0.714,0.269 -1.441,0.503 -2.18,0.696c-0.486,0.127 -0.976,0.238 -1.471,0.323c-0.468,0.08 -0.942,0.138 -1.417,0.136c-1.274,-0.005 -2.535,-0.372 -3.6,-1.074c-0.414,-0.273 -0.792,-0.594 -1.135,-0.953l-0.09,0.081c-0.185,0.156 -0.372,0.308 -0.57,0.448c-0.451,0.322 -0.939,0.592 -1.452,0.804c-0.994,0.411 -2.079,0.603 -3.154,0.538c-0.964,-0.059 -1.912,-0.328 -2.766,-0.778c-0.084,0.046 -0.169,0.088 -0.255,0.131c-0.233,0.11 -0.469,0.212 -0.713,0.297c-0.586,0.204 -1.202,0.325 -1.822,0.356c-0.609,0.029 -1.221,-0.027 -1.814,-0.167c-0.794,-0.186 -1.551,-0.522 -2.221,-0.986c-0.733,-0.507 -1.36,-1.166 -1.829,-1.923c-0.307,-0.496 -0.547,-1.032 -0.712,-1.591c-0.165,-0.558 -0.256,-1.139 -0.268,-1.721c-0.005,-0.27 0.009,-0.538 0.034,-0.807l0.006,-0.048c-0.107,0.15 -0.217,0.297 -0.329,0.443c-0.1,0.13 -0.201,0.258 -0.304,0.385c-0.738,0.9 -1.557,1.73 -2.468,2.455c-0.713,0.567 -1.468,1.078 -2.256,1.533c-0.609,0.352 -1.237,0.67 -1.879,0.955c-1.112,0.495 -2.267,0.897 -3.447,1.197c-0.443,0.112 -0.89,0.212 -1.341,0.289c-0.418,0.072 -0.841,0.126 -1.265,0.135c-0.884,0.018 -1.774,-0.14 -2.595,-0.468c-0.482,-0.193 -0.941,-0.445 -1.363,-0.747c-0.451,-0.323 -0.859,-0.705 -1.212,-1.133c-0.308,-0.372 -0.573,-0.778 -0.791,-1.209c-0.087,-0.171 -0.163,-0.346 -0.237,-0.524l-0.021,-0.054c-0.094,0.1 -0.19,0.198 -0.286,0.295c-0.086,0.084 -0.172,0.167 -0.259,0.25c-0.522,0.485 -1.08,0.926 -1.676,1.317c-1.324,0.867 -2.801,1.486 -4.315,1.932c-0.465,0.136 -0.934,0.256 -1.409,0.352c-0.514,0.105 -1.033,0.185 -1.559,0.197c-1.266,0.029 -2.53,-0.329 -3.596,-1.01c-0.456,-0.291 -0.87,-0.64 -1.243,-1.031l-0.031,-0.033c-0.088,0.074 -0.178,0.145 -0.269,0.216c-0.086,0.064 -0.172,0.127 -0.259,0.188c-0.24,0.164 -0.485,0.317 -0.741,0.454c-0.579,0.309 -1.198,0.54 -1.837,0.685c-0.575,0.131 -1.165,0.189 -1.755,0.178c-0.763,-0.014 -1.521,-0.145 -2.237,-0.406c-0.621,-0.227 -1.205,-0.55 -1.729,-0.952c-0.545,-0.418 -1.021,-0.919 -1.426,-1.473c-0.177,-0.242 -0.341,-0.493 -0.499,-0.748c-0.124,-0.198 -0.242,-0.399 -0.367,-0.595c-0.07,-0.106 -0.141,-0.211 -0.213,-0.315c-0.466,-0.659 -0.991,-1.282 -1.606,-1.807c-0.096,-0.082 -0.194,-0.161 -0.295,-0.237c-0.1,-0.075 -0.205,-0.145 -0.307,-0.218c-0.16,-0.119 -0.16,-0.119 -0.317,-0.243c-0.002,0.076 -0.006,0.152 -0.01,0.228c-0.008,0.115 -0.008,0.114 -0.018,0.229c-0.032,0.305 -0.079,0.607 -0.147,0.906c-0.164,0.709 -0.437,1.391 -0.807,2.018c-0.555,0.941 -1.324,1.754 -2.229,2.365c-1.112,0.751 -2.436,1.195 -3.778,1.245c-0.455,0.017 -0.91,-0.01 -1.359,-0.084c-0.727,-0.119 -1.435,-0.357 -2.086,-0.701c-0.084,0.046 -0.169,0.088 -0.255,0.131c-0.233,0.11 -0.469,0.212 -0.713,0.297c-0.587,0.204 -1.202,0.325 -1.822,0.356c-0.609,0.029 -1.221,-0.027 -1.814,-0.167c-0.794,-0.186 -1.551,-0.522 -2.221,-0.986c-0.733,-0.507 -1.36,-1.165 -1.829,-1.923c-0.307,-0.495 -0.547,-1.032 -0.712,-1.591c-0.165,-0.558 -0.256,-1.139 -0.268,-1.721c-0.005,-0.27 0.009,-0.538 0.034,-0.806l0.006,-0.049c-0.107,0.15 -0.217,0.297 -0.329,0.443c-0.1,0.129 -0.201,0.257 -0.303,0.385c-0.703,0.856 -1.479,1.649 -2.338,2.349c-0.699,0.57 -1.444,1.083 -2.221,1.542c-0.66,0.39 -1.344,0.74 -2.045,1.052c-1.112,0.495 -2.267,0.897 -3.447,1.197c-0.443,0.112 -0.89,0.212 -1.341,0.289c-0.418,0.072 -0.841,0.126 -1.265,0.135c-1.196,0.025 -2.395,-0.275 -3.431,-0.875c-0.449,-0.26 -0.866,-0.574 -1.24,-0.933c-0.316,-0.305 -0.601,-0.642 -0.849,-1.004c-0.109,-0.159 -0.208,-0.323 -0.305,-0.49l-0.007,-0.013c-0.159,0.116 -0.159,0.116 -0.319,0.23c-0.175,0.121 -0.175,0.121 -0.351,0.24c-0.76,0.501 -1.549,0.953 -2.37,1.347c-0.567,0.272 -1.148,0.511 -1.736,0.737c-0.273,0.099 -0.546,0.197 -0.821,0.292c-0.687,0.233 -1.381,0.469 -2.097,0.596c-0.67,0.118 -1.356,0.129 -2.029,0.031c-0.767,-0.111 -1.512,-0.361 -2.192,-0.733c-0.818,-0.448 -1.538,-1.074 -2.096,-1.822c-0.409,-0.549 -0.729,-1.161 -0.948,-1.809c-0.21,-0.62 -0.323,-1.272 -0.339,-1.925c-0.006,-0.242 0.003,-0.483 0.022,-0.724c-0.058,0.106 -0.117,0.211 -0.177,0.316c-0.157,0.265 -0.321,0.525 -0.497,0.778c-0.369,0.528 -0.782,1.024 -1.236,1.482c-0.781,0.789 -1.676,1.45 -2.634,2.009c-1.056,0.614 -2.18,1.106 -3.342,1.482c-0.48,0.155 -0.968,0.289 -1.461,0.397c-0.451,0.098 -0.908,0.172 -1.37,0.194c-0.963,0.046 -1.937,-0.125 -2.828,-0.494c-0.696,-0.289 -1.34,-0.7 -1.896,-1.209c-0.727,-0.665 -1.298,-1.498 -1.658,-2.415c-0.222,-0.563 -0.364,-1.157 -0.424,-1.759c-0.067,-0.666 -0.032,-1.343 0.106,-1.998c0.145,-0.689 0.403,-1.353 0.763,-1.958c0.329,-0.554 0.742,-1.056 1.222,-1.485c0.24,-0.215 0.496,-0.409 0.763,-0.588l0.017,-0.011c-0.06,-0.035 -0.119,-0.073 -0.179,-0.11l-0.145,-0.095c-0.251,-0.174 -0.492,-0.358 -0.718,-0.563c-0.548,-0.496 -1.009,-1.086 -1.356,-1.738c-0.294,-0.554 -0.507,-1.15 -0.631,-1.764c-0.147,-0.725 -0.172,-1.475 -0.073,-2.208c0.079,-0.585 0.237,-1.159 0.47,-1.702c0.362,-0.841 0.905,-1.603 1.584,-2.218c0.848,-0.768 1.899,-1.301 3.018,-1.543c0.24,-0.052 0.484,-0.09 0.728,-0.116c0.173,-0.018 0.345,-0.027 0.519,-0.037c0.777,-0.011 1.554,-0.021 2.331,-0.03c2.276,-0.021 4.552,-0.029 6.828,-0.011c0.76,0.007 1.52,0.016 2.28,0.028c0.274,0.004 0.549,0.007 0.823,0.014c0.073,0.002 0.146,0.009 0.219,0.014c0.208,0.014 0.415,0.037 0.621,0.067c0.051,-0.025 0.102,-0.048 0.153,-0.073c0.471,-0.21 0.958,-0.374 1.465,-0.476c0.606,-0.121 1.234,-0.161 1.85,-0.106c0.852,0.076 1.686,0.332 2.441,0.731c0.314,0.165 0.616,0.349 0.908,0.55c0.374,0.259 0.728,0.543 1.076,0.835l0.123,0.105l0.091,0.078c0.062,-0.076 0.125,-0.151 0.19,-0.225c0.451,-0.505 0.966,-0.943 1.546,-1.295c0.678,-0.412 1.427,-0.701 2.202,-0.865c0.469,-0.1 0.947,-0.153 1.426,-0.169c0.237,-0.008 0.472,-0.008 0.71,0.004c0.062,0.004 0.241,0.021 0.315,0.029c0.18,0.019 0.36,0.043 0.538,0.074c0.988,0.169 1.936,0.525 2.785,1.057c0.113,-0.019 0.112,-0.018 0.226,-0.035c0.307,-0.037 0.613,-0.058 0.922,-0.064l6.148,0c0.046,-0.045 0.093,-0.088 0.14,-0.132l0.142,-0.124c0.24,-0.2 0.487,-0.388 0.751,-0.555c0.551,-0.349 1.15,-0.607 1.777,-0.782l0.028,-0.007c0.083,-0.048 0.083,-0.047 0.168,-0.093c0.116,-0.06 0.115,-0.06 0.232,-0.118c0.389,-0.183 0.79,-0.334 1.207,-0.441c1.061,-0.271 2.194,-0.272 3.253,0.01c0.629,0.167 1.225,0.438 1.776,0.784c0.46,0.288 0.887,0.626 1.293,0.986c0.74,0.656 1.418,1.395 1.931,2.244c0.185,0.305 0.346,0.623 0.484,0.952c0.099,-0.023 0.199,-0.045 0.299,-0.066c0.263,-0.05 0.528,-0.089 0.795,-0.111c0.691,-0.057 1.391,-0.009 2.068,0.146c0.548,0.127 1.073,0.325 1.575,0.577l0.047,0.024c0.066,-0.036 0.134,-0.069 0.201,-0.103l0.168,-0.079c0.171,-0.076 0.343,-0.148 0.52,-0.211c0.294,-0.105 0.596,-0.189 0.903,-0.25c0.949,-0.191 1.946,-0.165 2.884,0.073c0.405,0.103 0.796,0.248 1.176,0.423c0.05,-0.087 0.051,-0.087 0.103,-0.173c0.238,-0.376 0.506,-0.729 0.814,-1.05c0.784,-0.819 1.785,-1.419 2.871,-1.74c0.419,-0.124 0.851,-0.207 1.286,-0.249c0.145,-0.014 0.29,-0.02 0.435,-0.028c0.726,-0.011 1.452,-0.021 2.178,-0.028c3.078,-0.025 6.155,-0.01 9.233,0.027c0.124,0.005 0.247,0.012 0.371,0.02c0.54,0.045 1.074,0.134 1.593,0.29c0.829,0.249 1.612,0.646 2.301,1.171c0.278,0.212 0.537,0.445 0.783,0.692c0.049,-0.084 0.099,-0.168 0.151,-0.251c0.204,-0.319 0.429,-0.623 0.68,-0.907c0.515,-0.578 1.128,-1.066 1.805,-1.441c1.216,-0.672 2.61,-0.956 3.992,-0.894c1.019,0.045 2.027,0.276 2.947,0.72c0.93,0.448 1.748,1.103 2.39,1.911c0.074,-0.052 0.148,-0.102 0.223,-0.151c0.234,-0.149 0.474,-0.286 0.724,-0.406c0.521,-0.249 1.075,-0.431 1.643,-0.538c0.421,-0.08 0.847,-0.113 1.275,-0.122l6.151,0c0.046,-0.045 0.094,-0.088 0.141,-0.132l0.14,-0.124c0.241,-0.2 0.488,-0.388 0.752,-0.555c0.551,-0.349 1.15,-0.607 1.777,-0.782l0.035,-0.009c0.092,-0.051 0.092,-0.051 0.185,-0.101c0.114,-0.06 0.113,-0.06 0.229,-0.117c0.51,-0.24 1.044,-0.419 1.598,-0.523c0.369,-0.069 0.742,-0.106 1.117,-0.109c0.06,-0.001 0.12,-0.003 0.18,-0.002c0.73,0.017 1.453,0.143 2.137,0.402c1.089,0.413 2.031,1.136 2.864,1.937c0.555,0.534 1.063,1.122 1.474,1.775c0.214,0.339 0.398,0.695 0.553,1.064c0.099,-0.023 0.199,-0.045 0.299,-0.066c0.301,-0.057 0.604,-0.1 0.911,-0.12c0.697,-0.045 1.401,0.016 2.079,0.186c0.503,0.126 0.985,0.314 1.448,0.545l0.047,0.025c0.066,-0.036 0.134,-0.069 0.201,-0.103l0.168,-0.079c0.171,-0.076 0.343,-0.148 0.52,-0.211c0.294,-0.105 0.596,-0.189 0.903,-0.25c0.995,-0.2 2.042,-0.162 3.02,0.11c0.406,0.112 0.796,0.267 1.175,0.451l0.005,0.003c0.046,-0.081 0.096,-0.159 0.145,-0.238c0.067,-0.102 0.067,-0.101 0.135,-0.202c0.219,-0.307 0.458,-0.597 0.725,-0.863c0.495,-0.493 1.07,-0.904 1.696,-1.215c0.246,-0.122 0.5,-0.226 0.759,-0.319c-0.124,-0.103 -0.245,-0.208 -0.366,-0.314c-0.557,-0.499 -1.08,-1.032 -1.564,-1.602c-1.007,-1.187 -1.84,-2.505 -2.571,-3.877l-0.041,-0.077l-2.461,0c-0.135,-0.004 -0.134,-0.004 -0.269,-0.008c-0.079,-0.005 -0.157,-0.009 -0.235,-0.017c-0.774,-0.012 -1.548,-0.009 -2.323,-0.011c-3.87,-0.007 -7.741,-0.008 -11.611,0.003c-0.442,0.002 -0.885,0.001 -1.327,0.008c-0.078,0.008 -0.156,0.012 -0.235,0.017l-0.12,0.004l-0.149,0.004l-3.494,0c-0.279,-0.008 -0.555,-0.023 -0.831,-0.064c-0.487,-0.071 -0.964,-0.203 -1.418,-0.39c-0.093,0.037 -0.092,0.037 -0.185,0.073c-0.453,0.165 -0.919,0.281 -1.397,0.339c-0.22,0.027 -0.44,0.035 -0.661,0.042l-3.532,0c-0.262,-0.008 -0.521,-0.021 -0.781,-0.057c-0.511,-0.073 -1.007,-0.212 -1.485,-0.407l-0.05,-0.021c-0.083,0.035 -0.167,0.068 -0.251,0.101c-0.123,0.045 -0.123,0.045 -0.247,0.087c-0.414,0.129 -0.836,0.224 -1.268,0.268c-0.183,0.018 -0.366,0.023 -0.55,0.029l-3.452,0c-0.122,-0.004 -0.244,-0.005 -0.367,-0.014c-0.205,-0.014 -0.41,-0.038 -0.613,-0.073c-0.506,-0.088 -1,-0.24 -1.468,-0.453c-0.186,-0.085 -0.366,-0.181 -0.543,-0.282l-0.031,-0.019c-0.16,0.069 -0.321,0.134 -0.483,0.199c-0.144,0.056 -0.288,0.111 -0.433,0.165c-0.695,0.252 -1.403,0.468 -2.124,0.638c-1.586,0.374 -3.218,0.542 -4.847,0.52c-1.411,-0.019 -2.822,-0.18 -4.197,-0.496c-1.607,-0.37 -3.166,-0.953 -4.617,-1.736c-1.501,-0.809 -2.886,-1.822 -4.13,-2.987c-0.584,-0.546 -1.132,-1.127 -1.654,-1.733l-0.063,-0.074c-0.11,0.132 -0.222,0.263 -0.335,0.394c-0.138,0.158 -0.138,0.157 -0.277,0.313c-0.566,0.619 -1.16,1.21 -1.796,1.758c-1.317,1.134 -2.79,2.09 -4.372,2.814c-1.404,0.643 -2.889,1.105 -4.406,1.389c-1.315,0.246 -2.653,0.36 -3.99,0.36c-1.384,0 -2.77,-0.122 -4.129,-0.385c-1.603,-0.309 -3.168,-0.819 -4.638,-1.529c-1.184,-0.573 -2.305,-1.274 -3.34,-2.085c-0.909,-0.712 -1.748,-1.508 -2.519,-2.366c-0.078,0.072 -0.156,0.142 -0.235,0.214c-0.278,0.246 -0.559,0.489 -0.847,0.724c-0.604,0.492 -1.232,0.954 -1.881,1.385c-2.433,1.616 -5.153,2.79 -7.99,3.478c-2.769,0.671 -5.641,0.887 -8.483,0.74c-1.681,-0.086 -3.356,-0.306 -4.996,-0.686c-2.263,-0.525 -4.459,-1.353 -6.481,-2.497c-2.725,-1.541 -5.12,-3.642 -7.041,-6.11c-0.492,-0.632 -0.953,-1.289 -1.381,-1.966c-0.238,-0.376 -0.463,-0.76 -0.682,-1.147l-0.018,-0.034l-0.004,0.285l-0.01,0.211c-0.022,0.366 -0.058,0.73 -0.118,1.091c-0.117,0.7 -0.311,1.387 -0.581,2.043c-0.925,2.243 -2.726,4.089 -4.946,5.069c-0.662,0.292 -1.357,0.505 -2.068,0.638c-0.247,0.047 -0.495,0.081 -0.744,0.109l-0.026,0.003c-0.023,0.139 -0.023,0.139 -0.049,0.278c-0.028,0.139 -0.028,0.139 -0.06,0.278c-0.047,0.185 -0.097,0.369 -0.158,0.551c-0.136,0.408 -0.313,0.803 -0.525,1.178c-0.754,1.331 -1.966,2.378 -3.392,2.931c-0.423,0.165 -0.863,0.285 -1.31,0.361c-0.206,0.035 -0.412,0.056 -0.62,0.072l-0.107,0.007l-0.235,0.012l-6.572,0c-0.339,0.013 -0.677,0.024 -1.015,0.034c-0.381,0.011 -0.762,0.02 -1.142,0.028c-3.158,0.054 -6.316,-0.018 -9.473,-0.055c-0.398,-0.002 -0.797,-0.005 -1.196,-0.007l-0.407,0l-6.68,0c-0.275,-0.014 -0.549,-0.03 -0.822,-0.07c-0.57,-0.081 -1.129,-0.24 -1.659,-0.467c-0.925,-0.395 -1.757,-1.002 -2.417,-1.762c-0.822,-0.946 -1.37,-2.129 -1.556,-3.369c-0.103,-0.011 -0.206,-0.024 -0.309,-0.037c-0.95,-0.135 -1.876,-0.401 -2.745,-0.811c-2.122,-1.002 -3.837,-2.802 -4.731,-4.971c-0.294,-0.714 -0.499,-1.464 -0.61,-2.228c-0.054,-0.369 -0.081,-0.739 -0.1,-1.111c-0.014,-1.218 -0.028,-2.435 -0.041,-3.653c-0.035,-4.142 -0.058,-8.285 -0.051,-12.427c0.007,-4.176 0.044,-8.351 0.092,-12.527l0.01,-0.208c0.022,-0.365 0.059,-0.73 0.119,-1.091c0.103,-0.619 0.267,-1.228 0.491,-1.814c0.908,-2.38 2.8,-4.349 5.146,-5.345c0.718,-0.305 1.473,-0.521 2.245,-0.64c0.395,-0.062 0.793,-0.093 1.193,-0.113c1.609,-0.02 3.218,-0.038 4.827,-0.055c5.113,-0.046 10.227,-0.072 15.341,-0.069c5.935,0.004 11.87,0.051 17.804,0.124l0.22,0.01c0.351,0.022 0.701,0.058 1.049,0.114c0.626,0.102 1.243,0.267 1.835,0.493c0.973,0.371 1.882,0.903 2.682,1.569c1.172,0.976 2.106,2.234 2.694,3.641c0.304,0.726 0.514,1.491 0.628,2.27c0.053,0.369 0.081,0.74 0.099,1.112l0.021,1.854l0.018,1.664c0.088,-0.154 0.179,-0.304 0.271,-0.456c0.406,-0.658 0.836,-1.299 1.3,-1.918c0.797,-1.062 1.68,-2.058 2.632,-2.983c1.766,-1.714 3.774,-3.175 5.967,-4.296c2.095,-1.071 4.342,-1.825 6.653,-2.266c1.475,-0.282 2.97,-0.432 4.47,-0.479c2.655,-0.082 5.323,0.179 7.897,0.839c2.371,0.607 4.653,1.572 6.741,2.848c1.306,0.798 2.537,1.719 3.665,2.753c0.816,0.749 1.579,1.557 2.281,2.414c0.328,0.399 0.647,0.808 0.944,1.231c0.054,0.076 0.104,0.155 0.157,0.232c0.436,0.633 0.852,1.278 1.251,1.935l0.075,0.125c0.111,-0.069 0.224,-0.136 0.337,-0.203c0.167,-0.098 0.167,-0.098 0.335,-0.194c0.34,-0.188 0.683,-0.369 1.033,-0.538c0.627,-0.302 1.272,-0.568 1.929,-0.797c2.471,-0.862 5.108,-1.193 7.718,-1.07c0.94,0.044 1.878,0.145 2.804,0.316c1.664,0.307 3.289,0.83 4.813,1.567c1.617,0.783 3.115,1.805 4.45,3.006c0.709,0.639 1.368,1.329 1.988,2.055l0.078,0.093c0.087,-0.103 0.175,-0.205 0.264,-0.306c0.131,-0.148 0.263,-0.294 0.397,-0.439c0.696,-0.74 1.434,-1.437 2.226,-2.075c1.099,-0.885 2.293,-1.653 3.558,-2.28c0.853,-0.423 1.738,-0.78 2.646,-1.067c1.591,-0.501 3.247,-0.788 4.912,-0.871c1.321,-0.066 2.65,-0.009 3.959,0.183c0.552,0.08 1.099,0.187 1.642,0.314l0.018,0.005l0,-4.142l0.012,-0.345c0.023,-0.244 0.048,-0.484 0.093,-0.725c0.09,-0.468 0.234,-0.925 0.432,-1.359c0.434,-0.955 1.122,-1.789 1.975,-2.4c0.495,-0.355 1.045,-0.634 1.624,-0.823c0.412,-0.135 0.838,-0.224 1.269,-0.268c0.183,-0.018 0.366,-0.023 0.55,-0.029l3.463,0c0.118,0.004 0.236,0.005 0.353,0.012c0.075,0.005 0.149,0.015 0.224,0.022c0.107,0.011 0.156,0.016 0.26,0.032c0.417,0.061 0.822,0.173 1.217,0.315l0.077,0.03l0.105,-0.058l0.174,-0.092c0.241,-0.119 0.485,-0.233 0.735,-0.332c0.608,-0.241 1.244,-0.414 1.891,-0.511c0.969,-0.146 1.967,-0.135 2.932,0.038c0.761,0.136 1.5,0.375 2.199,0.705c1.656,0.782 3.056,2.112 3.947,3.709c0.496,0.891 0.83,1.868 0.989,2.875c0.185,1.165 0.133,2.356 -0.142,3.503l1.188,0Z" style="fill:#fff;"/><g><g transform="matrix(1.06456,-7.75563e-27,6.5497e-27,0.998924,-125.708,-280.925)"><g transform="matrix(0.938348,0,0,1,10.7274,0)"><path d="M176.24,342.05c-0.16,0 -0.608,0.032 -0.608,0.512c0,0.384 0.288,0.512 0.608,0.512l9.408,0c0.32,0 0.32,0.224 0.32,0.24c0,0.112 -0.176,0.656 -0.384,1.12c-0.496,1.12 -1.104,1.968 -1.616,2.592c-0.192,0.224 -0.304,0.368 -0.304,0.576c0,0.272 0.24,0.56 0.56,0.56c0.832,0 4.704,-4.128 4.704,-5.312c0,-0.464 -0.352,-0.8 -0.928,-0.8l-11.76,0ZM182.992,345.682c0,-0.528 -0.192,-1.136 -1.232,-1.136c-0.816,0 -1.216,0.384 -1.216,1.136l0,1.344c0,1.664 -0.192,4.848 -3.984,5.968c-0.416,0.128 -0.672,0.192 -0.672,0.576c0,0.176 0.128,0.512 0.544,0.512c0.256,0 2.224,-0.416 3.936,-1.568c2.432,-1.616 2.624,-4.192 2.624,-6.032l0,-0.8Z" style="fill:#3498db;fill-rule:nonzero;"/><path d="M192.048,341.458c-0.352,0 -0.608,0.272 -0.608,0.576c0,0.16 0.032,0.208 0.352,0.624c0.592,0.752 1.04,1.344 1.616,2.656c0.416,0.96 0.56,1.28 1.184,1.28c0.656,0 1.312,-0.576 1.312,-1.184c0,-0.608 -0.992,-1.6 -1.776,-2.352c-0.528,-0.496 -1.728,-1.6 -2.08,-1.6ZM202.928,341.218c-1.104,0 -1.168,0.48 -1.248,1.136c-0.208,1.952 -0.368,3.216 -1.072,4.96c-1.648,4.048 -5.024,5.552 -6.48,6.064c-0.416,0.144 -0.688,0.24 -0.688,0.608c0,0.32 0.272,0.512 0.496,0.512c0.208,0 1.328,-0.384 1.936,-0.608c4.144,-1.552 5.92,-4.16 6.848,-5.984c1.232,-2.432 1.52,-5.552 1.52,-5.584c0,-0.976 -1.12,-1.104 -1.312,-1.104Z" style="fill:#3498db;fill-rule:nonzero;"/><path d="M220.416,339.842c-0.288,-0.048 -0.544,0.144 -0.544,0.448c0,0.208 0.672,1.008 0.8,1.2c0.32,0.48 0.384,0.576 0.656,0.576c0.336,0 0.624,-0.288 0.624,-0.592c0,-0.48 -1.312,-1.584 -1.536,-1.632ZM208.16,342.29c-0.192,0 -0.624,0.032 -0.624,0.512c0,0.064 0,0.512 0.624,0.512l8.064,0c0.32,0 0.528,0.208 0.528,0.576c0,0.352 -0.384,2.224 -1.248,3.904c-2.112,4.064 -5.84,5.088 -6.976,5.392c-0.224,0.064 -0.608,0.16 -0.608,0.576c0,0.16 0.096,0.512 0.528,0.512c0.4,0 4.48,-0.72 7.264,-3.392c2.896,-2.768 3.648,-6.864 3.648,-7.12c0,-0.976 -0.72,-1.472 -1.424,-1.472l-9.776,0ZM218.88,340.482c-0.256,-0.064 -0.576,0.128 -0.576,0.432c0,0.144 0.08,0.24 0.144,0.336c0.256,0.336 0.464,0.608 0.704,1.04c0.304,0.528 0.368,0.656 0.672,0.656c0.352,0 0.656,-0.288 0.656,-0.624c0,-0.416 -1.296,-1.76 -1.6,-1.84Z" style="fill:#3498db;fill-rule:nonzero;"/><path d="M233.008,349.074l2.72,-3.408c0.064,-0.08 0.128,-0.192 0.128,-0.32c0,-0.288 -0.24,-0.528 -0.528,-0.528c-0.128,0 -0.288,0.048 -0.416,0.208l-2.576,3.216l-2.448,-2.976c-0.192,-0.24 -0.448,-0.448 -0.752,-0.448c-0.624,0 -1.28,0.576 -1.28,1.2c0,0.304 0.176,0.512 0.288,0.64l2.592,3.168l-2.768,3.456c-0.064,0.096 -0.112,0.224 -0.112,0.32c0,0.288 0.224,0.528 0.528,0.528c0.192,0 0.336,-0.112 0.4,-0.192l2.64,-3.28l2.48,3.04c0.192,0.224 0.432,0.432 0.768,0.432c0.624,0 1.264,-0.56 1.264,-1.2c0,-0.288 -0.16,-0.496 -0.288,-0.64l-2.64,-3.216Z" style="fill:#3498db;fill-rule:nonzero;"/><path d="M252.864,343.218c0.208,0 0.368,0.112 0.368,0.304c0,0.336 -0.896,2.016 -2.24,3.568c-0.624,0.72 -0.976,1.024 -2.128,2.064c-0.144,-0.112 -2.384,-1.712 -2.928,-1.712c-0.304,0 -0.528,0.272 -0.528,0.528c0,0.272 0.16,0.4 0.624,0.72c1.264,0.912 2.752,2.448 3.92,4.368c0.576,0.944 0.656,1.072 1.152,1.072c0.704,0 1.328,-0.624 1.328,-1.264c0,-0.416 -0.272,-0.72 -0.464,-0.912c-1.2,-1.28 -1.456,-1.488 -2.064,-2c1.088,-0.672 2.784,-1.76 4.72,-4.064c0.624,-0.752 1.52,-1.904 1.52,-2.512c0,-0.432 -0.32,-1.184 -1.296,-1.184l-10.976,0c-0.192,0 -0.624,0.048 -0.624,0.512c0,0.08 0,0.512 0.624,0.512l8.992,0Z" style="fill:#3498db;fill-rule:nonzero;"/><path d="M265.184,346.002c0,2.432 -0.064,5.984 -4.192,7.248c-0.816,0.256 -0.944,0.288 -0.944,0.656c0,0.288 0.224,0.576 0.496,0.576c0.352,0 2.8,-0.512 4.4,-1.68c2.384,-1.728 2.576,-4.288 2.624,-6.8l4.592,0c0.608,0 0.608,-0.416 0.608,-0.512c0,-0.064 0,-0.512 -0.608,-0.512l-4.592,0l0,-2.992c0,-0.352 0,-1.12 -1.2,-1.12c-1.168,0 -1.184,0.816 -1.184,1.12l0,2.992l-5.568,0c-0.624,0 -0.624,0.432 -0.624,0.528c0,0.368 0.288,0.496 0.624,0.496l5.568,0Z" style="fill:#3498db;fill-rule:nonzero;"/><path d="M288.256,339.842c-0.288,-0.048 -0.544,0.144 -0.544,0.448c0,0.208 0.672,1.008 0.8,1.2c0.32,0.48 0.384,0.576 0.656,0.576c0.336,0 0.624,-0.288 0.624,-0.592c0,-0.48 -1.312,-1.584 -1.536,-1.632ZM276,342.29c-0.192,0 -0.624,0.032 -0.624,0.512c0,0.064 0,0.512 0.624,0.512l8.064,0c0.32,0 0.528,0.208 0.528,0.576c0,0.352 -0.384,2.224 -1.248,3.904c-2.112,4.064 -5.84,5.088 -6.976,5.392c-0.224,0.064 -0.608,0.16 -0.608,0.576c0,0.16 0.096,0.512 0.528,0.512c0.4,0 4.48,-0.72 7.264,-3.392c2.896,-2.768 3.648,-6.864 3.648,-7.12c0,-0.976 -0.72,-1.472 -1.424,-1.472l-9.776,0ZM286.72,340.482c-0.256,-0.064 -0.576,0.128 -0.576,0.432c0,0.144 0.08,0.24 0.144,0.336c0.256,0.336 0.464,0.608 0.704,1.04c0.304,0.528 0.368,0.656 0.672,0.656c0.352,0 0.656,-0.288 0.656,-0.624c0,-0.416 -1.296,-1.76 -1.6,-1.84Z" style="fill:#3498db;fill-rule:nonzero;"/><path d="M300.848,349.074l2.72,-3.408c0.064,-0.08 0.128,-0.192 0.128,-0.32c0,-0.288 -0.24,-0.528 -0.528,-0.528c-0.128,0 -0.288,0.048 -0.416,0.208l-2.576,3.216l-2.448,-2.976c-0.192,-0.24 -0.448,-0.448 -0.752,-0.448c-0.624,0 -1.28,0.576 -1.28,1.2c0,0.304 0.176,0.512 0.288,0.64l2.592,3.168l-2.768,3.456c-0.064,0.096 -0.112,0.224 -0.112,0.32c0,0.288 0.224,0.528 0.528,0.528c0.192,0 0.336,-0.112 0.4,-0.192l2.64,-3.28l2.48,3.04c0.192,0.224 0.432,0.432 0.768,0.432c0.624,0 1.264,-0.56 1.264,-1.2c0,-0.288 -0.16,-0.496 -0.288,-0.64l-2.64,-3.216Z" style="fill:#3498db;fill-rule:nonzero;"/></g><g transform="matrix(0.938348,0,0,1,18.5766,0)"><path d="M315.683,339.842c-0.912,0 -1.632,0.736 -1.632,1.632c0,0.88 0.704,1.632 1.632,1.632c0.912,0 1.632,-0.736 1.632,-1.632c0,-0.912 -0.736,-1.632 -1.632,-1.632ZM315.683,340.674c0.432,0 0.784,0.368 0.784,0.8c0,0.432 -0.336,0.784 -0.784,0.784c-0.448,0 -0.8,-0.352 -0.8,-0.784c0,-0.448 0.368,-0.8 0.8,-0.8ZM303.475,342.29c-0.192,0 -0.624,0.032 -0.624,0.512c0,0.064 0,0.512 0.624,0.512l8.064,0c0.32,0 0.528,0.208 0.528,0.576c0,0.352 -0.384,2.224 -1.248,3.904c-2.112,4.064 -5.84,5.088 -6.976,5.392c-0.224,0.064 -0.608,0.16 -0.608,0.576c0,0.16 0.096,0.512 0.528,0.512c0.4,0 4.48,-0.72 7.264,-3.392c2.896,-2.768 3.648,-6.864 3.648,-7.12c0,-0.976 -0.72,-1.472 -1.424,-1.472l-9.776,0Z" style="fill:#3498db;fill-rule:nonzero;"/><path d="M331.187,343.522c0,-0.8 -0.624,-1.424 -1.424,-1.424l-8.896,0c-0.816,0 -1.424,0.64 -1.424,1.424l0,8.576c0,0.784 0.608,1.424 1.424,1.424l8.896,0c0.848,0 1.424,-0.672 1.424,-1.424l0,-8.576ZM328.259,343.122c0.368,0 0.56,0.272 0.56,0.544l0,8.288c0,0.288 -0.224,0.544 -0.56,0.544l-5.888,0c-0.352,0 -0.56,-0.256 -0.56,-0.544l0,-8.288c0,-0.256 0.176,-0.544 0.56,-0.544l5.888,0Z" style="fill:#3498db;fill-rule:nonzero;"/><path d="M347.715,339.858c-0.304,-0.048 -0.56,0.16 -0.56,0.432c0,0.16 0.08,0.256 0.144,0.32c0.288,0.352 0.576,0.688 0.704,0.88c0.32,0.48 0.384,0.56 0.656,0.56c0.336,0 0.608,-0.288 0.608,-0.592c0,-0.496 -1.36,-1.568 -1.552,-1.6ZM346.179,340.53c-0.24,-0.064 -0.56,0.128 -0.56,0.432c0,0.16 0.096,0.272 0.144,0.336c0.4,0.48 0.432,0.512 0.736,1.04c0.304,0.512 0.384,0.64 0.672,0.64c0.336,0 0.656,-0.288 0.656,-0.624c0,-0.464 -1.36,-1.76 -1.648,-1.824ZM340.563,343.266c0.192,-0.416 0.576,-1.232 0.576,-1.616c0,-0.768 -0.88,-1.024 -1.392,-1.024c-0.944,0 -1.088,0.576 -1.2,1.104c-0.752,3.296 -2.176,4.64 -3.424,5.52c-0.448,0.32 -0.544,0.384 -0.544,0.656c0,0.32 0.256,0.512 0.528,0.512c0.144,0 3.024,-1.024 4.896,-4.128l4.208,0c0.336,0 0.4,0.304 0.4,0.48c0,0.224 -0.224,2.16 -1.248,4.016c-1.744,3.168 -4.096,4.256 -7.328,4.816c-0.512,0.08 -0.816,0.144 -0.816,0.576c0,0.272 0.208,0.512 0.528,0.512c0.176,0 1.376,-0.144 2.544,-0.384c1.792,-0.384 4.848,-1.28 6.848,-4.352c1.936,-2.976 2.064,-5.472 2.064,-5.52c0,-0.608 -0.464,-1.168 -1.264,-1.168l-5.376,0Z" style="fill:#3498db;fill-rule:nonzero;"/><path d="M353.219,341.778c-0.352,0 -0.624,0.144 -0.624,0.512c0,0.352 0.272,0.512 0.624,0.512l8.256,0c0.624,0 0.624,-0.432 0.624,-0.512c0,-0.064 0,-0.512 -0.624,-0.512l-8.256,0ZM351.539,345.122c-0.176,0 -0.624,0.032 -0.624,0.512c0,0.384 0.304,0.512 0.624,0.512l8.8,0c0.224,0 0.432,0.128 0.432,0.464c0,0.32 -0.208,1.52 -0.688,2.496c-1.12,2.288 -2.88,3.456 -5.808,3.936c-0.544,0.08 -0.864,0.144 -0.864,0.592c0,0.272 0.224,0.512 0.544,0.512c0.16,0 0.864,-0.08 1.136,-0.128c2.768,-0.448 4.336,-1.536 4.96,-1.984c3.312,-2.384 3.328,-5.648 3.328,-5.68c0,-0.816 -0.528,-1.232 -1.168,-1.232l-10.672,0Z" style="fill:#3498db;fill-rule:nonzero;"/><path d="M376.611,344.37c0.736,0 0.96,-0.72 0.96,-1.104c0,-0.96 -0.736,-1.088 -2.368,-1.328c-2.72,-0.4 -5.696,-0.48 -5.872,-0.48c-0.336,0 -0.608,0.176 -0.608,0.56c0,0.528 0.464,0.576 0.976,0.608c2.352,0.176 4.416,0.88 4.832,1.024c0.304,0.096 1.744,0.72 2.08,0.72ZM376.035,348.77c0.832,0 0.976,-0.8 0.976,-1.104c0,-0.832 -0.416,-1.04 -2.608,-1.504c-1.104,-0.224 -3.84,-0.688 -4.784,-0.688c-0.56,0 -0.56,0.464 -0.56,0.512c0,0.432 0.224,0.48 0.976,0.656c1.568,0.368 2.88,0.752 4.592,1.536c1.152,0.528 1.28,0.592 1.408,0.592ZM377.571,354.146c1.136,0 1.184,-1.104 1.184,-1.248c0,-0.864 -0.448,-1.008 -2.288,-1.648c-2.384,-0.816 -6.944,-1.424 -8.256,-1.424c-0.592,0 -0.592,0.448 -0.592,0.512c0,0.48 0.32,0.528 0.928,0.608c2.176,0.32 4.784,0.928 7.504,2.448c1.2,0.672 1.344,0.752 1.52,0.752Z" style="fill:#3498db;fill-rule:nonzero;"/><path d="M388.403,344.994c0.512,0 1.152,-0.544 1.152,-1.248c0,-0.416 -0.048,-0.864 -2.384,-1.888c-1.408,-0.624 -2.704,-0.944 -2.896,-0.944c-0.224,0 -0.48,0.192 -0.48,0.48c0,0.256 0.144,0.336 0.544,0.576c0.544,0.304 1.632,0.928 2.624,2.016c0.832,0.912 0.912,1.008 1.44,1.008ZM383.315,353.138c0,0.464 0.288,1.312 1.136,1.312c0.624,0 4.752,-1.152 7.664,-3.632c3.168,-2.688 4.032,-5.456 4.032,-5.552c0,-0.24 -0.224,-0.48 -0.512,-0.48c-0.288,0 -0.4,0.192 -0.512,0.4c-0.352,0.624 -0.912,1.472 -1.744,2.32c-3.36,3.408 -6.848,4.08 -8.352,4.368c-1.12,0.208 -1.712,0.32 -1.712,1.264Z" style="fill:#3498db;fill-rule:nonzero;"/><path d="M411.715,339.858c-0.304,-0.048 -0.56,0.16 -0.56,0.432c0,0.16 0.08,0.256 0.144,0.32c0.288,0.352 0.576,0.688 0.704,0.88c0.32,0.48 0.384,0.56 0.656,0.56c0.336,0 0.608,-0.288 0.608,-0.592c0,-0.496 -1.36,-1.568 -1.552,-1.6ZM410.179,340.53c-0.24,-0.064 -0.56,0.128 -0.56,0.432c0,0.16 0.096,0.272 0.144,0.336c0.4,0.48 0.432,0.512 0.736,1.04c0.304,0.512 0.384,0.64 0.672,0.64c0.336,0 0.656,-0.288 0.656,-0.624c0,-0.464 -1.36,-1.76 -1.648,-1.824ZM404.563,343.266c0.192,-0.416 0.576,-1.232 0.576,-1.616c0,-0.768 -0.88,-1.024 -1.392,-1.024c-0.944,0 -1.088,0.576 -1.2,1.104c-0.752,3.296 -2.176,4.64 -3.424,5.52c-0.448,0.32 -0.544,0.384 -0.544,0.656c0,0.32 0.256,0.512 0.528,0.512c0.144,0 3.024,-1.024 4.896,-4.128l4.208,0c0.336,0 0.4,0.304 0.4,0.48c0,0.224 -0.224,2.16 -1.248,4.016c-1.744,3.168 -4.096,4.256 -7.328,4.816c-0.512,0.08 -0.816,0.144 -0.816,0.576c0,0.272 0.208,0.512 0.528,0.512c0.176,0 1.376,-0.144 2.544,-0.384c1.792,-0.384 4.848,-1.28 6.848,-4.352c1.936,-2.976 2.064,-5.472 2.064,-5.52c0,-0.608 -0.464,-1.168 -1.264,-1.168l-5.376,0Z" style="fill:#3498db;fill-rule:nonzero;"/></g></g><g transform="matrix(2.39647,-1.7459e-26,1.5713e-26,2.39647,-35.4649,-22.6735)"><path d="M54.278,15.418l-1.181,0.906c-0.652,-0.849 -1.434,-1.492 -2.347,-1.929c-0.913,-0.438 -1.916,-0.657 -3.008,-0.657c-1.195,0 -2.301,0.287 -3.319,0.86c-1.019,0.574 -1.808,1.344 -2.368,2.311c-0.56,0.968 -0.84,2.055 -0.84,3.263c0,1.826 0.627,3.35 1.879,4.572c1.252,1.221 2.832,1.832 4.739,1.832c2.098,0 3.852,-0.821 5.264,-2.464l1.181,0.896c-0.747,0.951 -1.678,1.685 -2.795,2.205c-1.116,0.519 -2.364,0.779 -3.741,0.779c-2.62,0 -4.687,-0.873 -6.201,-2.617c-1.269,-1.473 -1.904,-3.251 -1.904,-5.335c0,-2.192 0.769,-4.037 2.306,-5.533c1.538,-1.497 3.464,-2.245 5.778,-2.245c1.398,0 2.661,0.276 3.788,0.829c1.126,0.554 2.049,1.329 2.769,2.327Z" style="fill:#e74c3c;fill-rule:nonzero;"/><path d="M61.248,16.253c1.704,0 3.115,0.617 4.235,1.853c1.018,1.126 1.527,2.46 1.527,4.001c0,1.547 -0.537,2.9 -1.613,4.057c-1.076,1.157 -2.459,1.736 -4.149,1.736c-1.697,0 -3.083,-0.579 -4.159,-1.736c-1.076,-1.157 -1.614,-2.51 -1.614,-4.057c0,-1.534 0.509,-2.865 1.527,-3.991c1.12,-1.242 2.535,-1.863 4.246,-1.863ZM61.248,17.647c-1.181,0 -2.196,0.438 -3.044,1.314c-0.849,0.875 -1.273,1.934 -1.273,3.176c0,0.801 0.194,1.548 0.58,2.24c0.387,0.693 0.91,1.227 1.568,1.604c0.659,0.376 1.382,0.565 2.169,0.565c0.787,0 1.51,-0.189 2.169,-0.565c0.658,-0.377 1.181,-0.911 1.567,-1.604c0.387,-0.692 0.581,-1.439 0.581,-2.24c0,-1.242 -0.426,-2.301 -1.278,-3.176c-0.852,-0.876 -1.865,-1.314 -3.039,-1.314Z" style="fill:#f39c12;fill-rule:nonzero;"/><path d="M79.672,12.262l0,15.353l-1.405,0l0,-1.904c-0.598,0.726 -1.268,1.273 -2.011,1.639c-0.743,0.367 -1.556,0.55 -2.438,0.55c-1.568,0 -2.907,-0.569 -4.017,-1.705c-1.11,-1.137 -1.665,-2.52 -1.665,-4.149c0,-1.595 0.56,-2.96 1.68,-4.093c1.12,-1.134 2.468,-1.7 4.042,-1.7c0.91,0 1.733,0.193 2.469,0.58c0.737,0.387 1.383,0.967 1.94,1.741l0,-6.312l1.405,0ZM73.97,17.627c-0.794,0 -1.527,0.195 -2.199,0.586c-0.672,0.39 -1.206,0.938 -1.603,1.644c-0.397,0.706 -0.596,1.452 -0.596,2.24c0,0.78 0.2,1.527 0.601,2.239c0.4,0.713 0.938,1.268 1.613,1.665c0.676,0.397 1.4,0.596 2.174,0.596c0.781,0 1.52,-0.197 2.22,-0.591c0.699,-0.393 1.237,-0.926 1.613,-1.598c0.377,-0.672 0.565,-1.429 0.565,-2.271c0,-1.282 -0.422,-2.355 -1.267,-3.217c-0.845,-0.862 -1.885,-1.293 -3.121,-1.293Z" style="fill:#f5c20f;fill-rule:nonzero;"/><path d="M82.355,11.977c0.326,0 0.605,0.115 0.835,0.346c0.231,0.23 0.347,0.509 0.347,0.835c0,0.319 -0.116,0.593 -0.347,0.824c-0.23,0.231 -0.509,0.346 -0.835,0.346c-0.319,0 -0.593,-0.115 -0.824,-0.346c-0.231,-0.231 -0.346,-0.505 -0.346,-0.824c0,-0.326 0.115,-0.605 0.346,-0.835c0.231,-0.231 0.505,-0.346 0.824,-0.346ZM81.643,16.538l1.435,0l0,11.077l-1.435,0l0,-11.077Z" style="fill:#27ae60;fill-rule:nonzero;"/><path d="M84.988,16.538l1.426,0l0,1.985c0.57,-0.76 1.201,-1.329 1.893,-1.705c0.693,-0.377 1.446,-0.565 2.261,-0.565c0.828,0 1.562,0.21 2.204,0.631c0.641,0.421 1.115,0.987 1.42,1.7c0.306,0.713 0.458,1.823 0.458,3.329l0,5.702l-1.415,0l0,-5.284c0,-1.276 -0.054,-2.128 -0.163,-2.556c-0.17,-0.733 -0.489,-1.284 -0.957,-1.654c-0.468,-0.37 -1.079,-0.555 -1.832,-0.555c-0.862,0 -1.635,0.285 -2.317,0.855c-0.682,0.57 -1.131,1.276 -1.349,2.118c-0.135,0.55 -0.203,1.554 -0.203,3.014l0,4.062l-1.426,0l0,-11.077Z" style="fill:#3498db;fill-rule:nonzero;"/><path d="M106.202,16.538l1.435,0l0,8.827c0,1.554 -0.135,2.691 -0.407,3.41c-0.373,1.019 -1.021,1.803 -1.945,2.352c-0.923,0.55 -2.032,0.825 -3.329,0.825c-0.95,0 -1.804,-0.134 -2.56,-0.402c-0.757,-0.268 -1.373,-0.628 -1.848,-1.079c-0.475,-0.452 -0.913,-1.112 -1.314,-1.981l1.548,0c0.421,0.733 0.964,1.276 1.629,1.629c0.665,0.353 1.49,0.53 2.474,0.53c0.971,0 1.79,-0.182 2.459,-0.545c0.668,-0.363 1.145,-0.819 1.43,-1.369c0.285,-0.55 0.428,-1.436 0.428,-2.658l0,-0.57c-0.536,0.679 -1.191,1.2 -1.965,1.563c-0.774,0.363 -1.595,0.545 -2.464,0.545c-1.018,0 -1.975,-0.253 -2.871,-0.759c-0.896,-0.505 -1.588,-1.186 -2.077,-2.041c-0.489,-0.855 -0.733,-1.795 -0.733,-2.82c0,-1.025 0.254,-1.98 0.763,-2.866c0.51,-0.886 1.214,-1.587 2.113,-2.103c0.899,-0.515 1.848,-0.773 2.846,-0.773c0.828,0 1.6,0.171 2.316,0.514c0.716,0.343 1.407,0.908 2.072,1.695l0,-1.924ZM101.997,17.627c-0.808,0 -1.558,0.195 -2.25,0.586c-0.692,0.39 -1.235,0.929 -1.629,1.618c-0.394,0.689 -0.591,1.434 -0.591,2.235c0,1.215 0.408,2.22 1.222,3.014c0.815,0.794 1.87,1.191 3.167,1.191c1.309,0 2.363,-0.394 3.161,-1.181c0.797,-0.787 1.196,-1.823 1.196,-3.105c0,-0.835 -0.183,-1.58 -0.55,-2.235c-0.366,-0.655 -0.885,-1.173 -1.557,-1.553c-0.672,-0.38 -1.395,-0.57 -2.169,-0.57Z" style="fill:#9b59b6;fill-rule:nonzero;"/><path d="M109.883,12.638l1.527,0l0,5.62l5.977,-5.62l2.026,0l-7.198,6.72l7.758,8.257l-1.986,0l-6.577,-6.984l0,6.984l-1.527,0l0,-14.977Z" style="fill:#e74c3c;fill-rule:nonzero;"/><path d="M121.425,11.977c0.325,0 0.604,0.115 0.834,0.346c0.231,0.23 0.347,0.509 0.347,0.835c0,0.319 -0.116,0.593 -0.347,0.824c-0.23,0.231 -0.509,0.346 -0.834,0.346c-0.319,0 -0.594,-0.115 -0.825,-0.346c-0.231,-0.231 -0.346,-0.505 -0.346,-0.824c0,-0.326 0.115,-0.605 0.346,-0.835c0.231,-0.231 0.506,-0.346 0.825,-0.346ZM120.712,16.538l1.436,0l0,11.077l-1.436,0l0,-11.077Z" style="fill:#f39c12;fill-rule:nonzero;"/><path d="M135.114,12.262l0,15.353l-1.405,0l0,-1.904c-0.597,0.726 -1.267,1.273 -2.011,1.639c-0.743,0.367 -1.556,0.55 -2.438,0.55c-1.568,0 -2.907,-0.569 -4.016,-1.705c-1.11,-1.137 -1.665,-2.52 -1.665,-4.149c0,-1.595 0.56,-2.96 1.68,-4.093c1.12,-1.134 2.467,-1.7 4.042,-1.7c0.909,0 1.732,0.193 2.469,0.58c0.736,0.387 1.383,0.967 1.939,1.741l0,-6.312l1.405,0ZM129.413,17.627c-0.794,0 -1.527,0.195 -2.199,0.586c-0.672,0.39 -1.207,0.938 -1.604,1.644c-0.397,0.706 -0.595,1.452 -0.595,2.24c0,0.78 0.2,1.527 0.6,2.239c0.401,0.713 0.939,1.268 1.614,1.665c0.675,0.397 1.4,0.596 2.174,0.596c0.78,0 1.52,-0.197 2.219,-0.591c0.699,-0.393 1.237,-0.926 1.614,-1.598c0.376,-0.672 0.565,-1.429 0.565,-2.271c0,-1.282 -0.423,-2.355 -1.268,-3.217c-0.845,-0.862 -1.885,-1.293 -3.12,-1.293Z" style="fill:#f5c20f;fill-rule:nonzero;"/><path d="M142.868,17.749l-0.916,0.947c-0.76,-0.74 -1.504,-1.11 -2.23,-1.11c-0.461,0 -0.857,0.153 -1.186,0.459c-0.329,0.305 -0.494,0.661 -0.494,1.069c0,0.359 0.136,0.702 0.408,1.028c0.271,0.332 0.841,0.723 1.71,1.171c1.059,0.549 1.778,1.079 2.158,1.588c0.374,0.516 0.56,1.096 0.56,1.741c0,0.909 -0.319,1.68 -0.957,2.311c-0.638,0.631 -1.435,0.947 -2.392,0.947c-0.638,0 -1.247,-0.139 -1.828,-0.418c-0.58,-0.278 -1.06,-0.661 -1.44,-1.15l0.896,-1.018c0.726,0.821 1.496,1.232 2.311,1.232c0.57,0 1.055,-0.183 1.456,-0.55c0.4,-0.367 0.6,-0.798 0.6,-1.293c0,-0.407 -0.132,-0.77 -0.397,-1.089c-0.265,-0.313 -0.862,-0.706 -1.792,-1.181c-0.997,-0.516 -1.676,-1.025 -2.036,-1.528c-0.36,-0.502 -0.54,-1.075 -0.54,-1.72c0,-0.842 0.287,-1.541 0.861,-2.098c0.573,-0.556 1.298,-0.834 2.173,-0.834c1.019,0 2.043,0.499 3.075,1.496Z" style="fill:#27ae60;fill-rule:nonzero;"/></g><path d="M15.358,46.366l26.198,0" style="fill:none;stroke-width:2px;stroke:#e74c3c;"/><path d="M35.006,46.366l-13.099,0l1.872,-5.615l9.356,0l1.871,5.615Z" style="fill:none;stroke-width:2px;stroke:#e74c3c;"/><path d="M49.977,37.945c0,1.55 -1.256,2.806 -2.807,2.806l-37.425,0c-1.551,0 -2.807,-1.256 -2.807,-2.806l0,-28.07c0,-1.548 1.256,-2.806 2.807,-2.806l37.425,0c1.551,0 2.807,1.258 2.807,2.806l0,28.07Z" style="fill:none;stroke-width:2px;stroke:#1575e4;"/><rect x="10.68" y="10.811" width="35.554" height="22.455" style="fill:none;stroke-width:2px;stroke:#27ae60;"/><path d="M29.393,37.009c0,0.518 -0.42,0.935 -0.935,0.935c-0.518,0 -0.937,-0.417 -0.937,-0.935c0,-0.517 0.419,-0.934 0.937,-0.934c0.515,0 0.935,0.417 0.935,0.934Z" style="fill:none;stroke-width:2px;stroke:#1575e4;"/></g></g></svg>