<?xml version="1.0" encoding="UTF-8" standalone="no"?><!DOCTYPE svg PUBLIC "-//W3C//DTD SVG 1.1//EN" "http://www.w3.org/Graphics/SVG/1.1/DTD/svg11.dtd"><svg width="14px" height="14px" version="1.1" xmlns="http://www.w3.org/2000/svg" xmlns:xlink="http://www.w3.org/1999/xlink" xml:space="preserve" style="fill-rule:evenodd;clip-rule:evenodd;stroke-linejoin:round;stroke-miterlimit:1.41421;"><g><path d="M10.045,14l-6.09,0c-1.079,0 -1.955,-0.876 -1.955,-1.955l0,-1.045l-1,0l0,-4l1,0l0,-1.045c0,-1.079 0.876,-1.955 1.955,-1.955l2.045,0l2.251,-1.669c-0.159,-0.238 -0.251,-0.523 -0.251,-0.831c0,-0.831 0.672,-1.5 1.502,-1.5c0.826,0 1.498,0.669 1.498,1.5c0,0.831 -0.672,1.5 -1.498,1.5c-0.254,0 -0.493,-0.063 -0.702,-0.173l-0.8,1.173l2.045,0c1.079,0 1.955,0.876 1.955,1.955l0,1.045l1,0l0,4l-1,0l0,1.045c0,1.079 -0.876,1.955 -1.955,1.955ZM10,11l-6,0l0,1l6,0l0,-1ZM6,7.492c0,0.831 -0.672,1.5 -1.498,1.5c-0.83,0 -1.502,-0.669 -1.502,-1.5c0,-0.83 0.672,-1.5 1.502,-1.5c0.826,0 1.498,0.67 1.498,1.5ZM11,7.492c0,0.831 -0.672,1.5 -1.498,1.5c-0.83,0 -1.502,-0.669 -1.502,-1.5c0,-0.83 0.672,-1.5 1.502,-1.5c0.826,0 1.498,0.67 1.498,1.5Z" style="fill:#1575e4;"/></g></svg>