<?xml version="1.0" encoding="UTF-8" standalone="no"?><!DOCTYPE svg PUBLIC "-//W3C//DTD SVG 1.1//EN" "http://www.w3.org/Graphics/SVG/1.1/DTD/svg11.dtd"><svg width="273px" height="44px" viewBox="0 0 273 44" version="1.1" xmlns="http://www.w3.org/2000/svg" xmlns:xlink="http://www.w3.org/1999/xlink" xml:space="preserve" style="fill-rule:evenodd;clip-rule:evenodd;stroke-linejoin:round;stroke-miterlimit:1.41421;"><g><g><clipPath id="_clip1"><rect x="0.062" y="0.709" width="272.251" height="42.986"/></clipPath><g clip-path="url(#_clip1)"><path d="M34.756,6.068c0.946,-0.53 1.978,-0.908 3.036,-1.138c1.004,-0.217 2.796,0.014 3.588,-0.451c0.37,-0.218 0.761,-0.914 1.084,-1.216c0.348,-0.327 0.725,-0.628 1.121,-0.895c0.978,-0.66 2.084,-1.128 3.235,-1.387c2.171,-0.489 4.592,-0.325 6.65,0.541c0.975,0.411 1.887,0.98 2.669,1.695c0.338,0.309 0.605,0.69 0.936,1c0.549,0.513 0.937,0.387 1.703,0.432c1.126,0.066 2.232,0.546 3.321,0.608c0.582,0.034 0.495,-0.032 0.936,-0.526c0.414,-0.463 0.871,-0.883 1.37,-1.252c1.768,-1.307 3.93,-1.912 6.114,-1.942c4.445,-0.062 8.501,2.557 9.744,6.918c0.341,1.195 0.421,2.403 0.393,3.639c-0.021,0.956 -0.156,1.443 0.742,1.944c1.946,1.084 3.648,-0.354 5.593,-0.634c-1.045,-3.68 0.426,-7.782 3.368,-10.159c1.485,-1.201 3.31,-1.97 5.213,-2.158c0.974,-0.096 1.966,-0.043 2.923,0.165c0.958,0.208 1.742,0.719 2.653,1.004c0.807,0.253 0.17,0.132 0.756,0.083c0.81,-0.068 1.66,-0.56 2.5,-0.675c2.038,-0.279 4.176,-0.107 6.228,-0.1c3.688,0.013 7.265,1.007 9.532,4.134c3.296,-3.9 8.301,-3.292 12.888,-3.432c2.267,-0.07 4.48,-0.134 6.639,0.688c1.022,0.389 1.991,0.938 2.836,1.633c0.656,0.54 1.141,1.452 1.899,1.667c0.819,0.232 1.771,0.136 2.619,0.364c0.163,0.044 0.505,0.222 0.668,0.206c0.394,-0.038 0.26,-0.166 0.539,-0.485c0.374,-0.426 0.639,-0.955 1.023,-1.383c1.477,-1.645 3.52,-2.699 5.706,-3.006c2.359,-0.332 4.914,0.085 6.976,1.301c0.442,0.261 1.465,1.337 1.837,1.299c0.469,-0.05 1.429,-1.167 1.887,-1.431c4.494,-2.58 10.798,-1.365 13.632,3.066c2.287,-1.985 5.012,-2.342 7.928,-2.36c2.93,-0.018 5.86,-0.021 8.789,-0.014c2.781,0.007 5.713,-0.247 8.461,0.257c1.266,0.231 2.495,0.668 3.608,1.315c0.314,0.183 0.785,0.656 1.094,0.655c0.418,-0.001 1.453,-0.83 1.899,-1.004c2.457,-0.962 5.211,-0.731 7.799,-0.922c2.922,-0.215 5.805,-0.589 8.668,-1.216c2.431,-0.533 4.779,-0.983 7.217,-0.204c1.156,0.369 2.241,0.963 3.171,1.741c0.766,0.642 0.684,0.401 1.551,-0.139c0.546,-0.339 1.125,-0.624 1.729,-0.845c2.54,-0.93 5.424,-0.618 8.079,-0.624c3.076,-0.008 6.153,-0.002 9.229,0.009c2.636,0.01 5.191,-0.08 7.568,1.257c2.4,1.35 4.036,3.724 4.555,6.415c0.242,1.257 -0.001,2.42 0.078,3.656c0.045,0.689 0.545,1.273 0.821,1.949c1.015,2.486 0.895,5.139 0.303,7.711c-1.251,5.436 -4.385,10.402 -8.938,13.659c-2.464,1.762 -5.292,2.982 -8.193,3.817c-2.75,0.793 -5.866,1.492 -8.744,1.223c-5.916,-0.552 -9.916,-6.342 -8.663,-12.1c-1.016,0.269 -2.038,0.332 -3.082,0.335c-0.236,0.001 -0.888,-0.126 -1.089,0c-0.287,0.179 -0.664,1.282 -0.851,1.618c-1.601,2.879 -4.012,5.212 -6.853,6.86c-2.968,1.721 -6.59,3.056 -10.05,3.129c-1.638,0.034 -3.266,-0.306 -4.732,-1.042c-0.679,-0.34 -1.317,-0.766 -1.894,-1.26c-0.167,-0.144 -0.715,-0.855 -0.905,-0.889c-0.232,-0.041 -0.969,0.473 -1.184,0.559c-3.229,1.289 -6.966,0.874 -10.369,0.874c-3.641,0.001 -7.307,0.11 -10.946,-0.016c-1.848,-0.064 -3.206,-0.698 -4.889,-1.296c-0.736,-0.262 -0.268,-0.15 -0.898,-0.081c-0.456,0.05 -0.938,0.279 -1.398,0.36c-0.682,0.12 -1.557,-0.047 -2.192,0.132c-0.419,0.118 -0.964,0.676 -1.331,0.886c-0.621,0.356 -1.275,0.658 -1.947,0.903c-1.811,0.661 -3.746,0.929 -5.669,0.931c-1.779,0.003 -3.566,-0.224 -5.266,-0.756c-0.948,-0.297 -1.05,-0.148 -1.955,0.163c-0.864,0.297 -1.761,0.47 -2.672,0.535c-3.689,0.262 -7.337,-1.314 -9.273,-4.548c-2.42,2.592 -5.645,4.637 -9.258,4.874c-1.791,0.118 -3.58,-0.255 -5.171,-1.089c-0.281,-0.148 -0.56,-0.371 -0.844,-0.498c-0.628,-0.281 -0.566,-0.218 -1.276,-0.097c-1.138,0.193 -2.301,0.214 -3.447,0.075c-0.574,-0.069 -1.708,-0.563 -2.229,-0.444c-0.514,0.117 -1.253,0.906 -1.742,1.156c-1.966,1.007 -4.008,1.063 -6.167,1.067c-4.133,0.007 -8.328,0.226 -12.453,-0.054c-0.986,-0.066 -1.969,-0.203 -2.933,-0.423c-0.375,-0.085 -1.088,-0.437 -1.458,-0.401c-0.254,0.024 -0.662,0.356 -0.899,0.462c-1.689,0.757 -3.587,0.992 -5.414,0.704c-1.722,-0.271 -3.347,-1.01 -4.696,-2.111c-0.255,-0.208 -0.526,-0.583 -0.807,-0.731c-0.589,-0.312 -0.463,-0.212 -1.149,0.115c-1.004,0.479 -2.051,0.867 -3.121,1.17c-3.869,1.096 -8.207,1.227 -12.137,0.388c-1.712,-0.366 -3.378,-0.953 -4.9,-1.824c-0.829,-0.475 -1.612,-1.029 -2.334,-1.656c-0.663,-0.577 -1.242,-1.562 -1.937,-2.044c-0.578,-0.401 -0.38,-0.297 -1.119,-0.028c-0.421,0.153 -0.851,0.278 -1.287,0.381c-0.672,0.157 -2.036,0.089 -2.462,0.473c-0.352,0.318 -0.593,1.442 -0.872,1.909c-0.518,0.864 -1.189,1.64 -1.962,2.286c-2.807,2.344 -6.969,2.798 -10.343,1.512c-1.545,-0.589 -2.923,-1.578 -3.945,-2.881c-0.523,-0.667 -0.947,-1.406 -1.266,-2.191c0.007,0.017 -0.303,-0.804 -0.279,-0.784c-0.205,-0.165 -1.21,-0.11 -1.513,-0.159c-0.325,-0.052 -0.731,-0.215 -1.05,-0.212c-0.698,0.008 -0.579,0.06 -1.11,0.614c-0.685,0.713 -1.442,1.358 -2.253,1.924c-1.572,1.098 -3.342,1.897 -5.185,2.417c-1.916,0.539 -3.914,0.783 -5.902,0.793c-0.788,0.004 -1.578,-0.025 -2.357,-0.149c-0.827,-0.132 -1.661,-0.546 -2.457,-0.487c-1.805,0.134 -3.458,0.622 -5.312,0.464c-2.09,-0.178 -4.145,-0.784 -5.962,-1.838c-3.095,-1.794 -5.351,-4.797 -6.293,-8.241c-0.52,-1.899 -0.639,-3.901 -0.387,-5.851c0.13,-1 0.358,-1.988 0.685,-2.942c0.109,-0.318 0.23,-0.633 0.36,-0.943c0.165,-0.393 0.928,-1.403 0.902,-1.79c-0.012,-0.182 -0.402,-0.584 -0.499,-0.745c-0.325,-0.542 -0.592,-1.117 -0.801,-1.713c-0.306,-0.873 -0.485,-1.789 -0.546,-2.711c-0.148,-2.217 0.372,-4.473 1.633,-6.318c1.142,-1.671 2.836,-2.907 4.756,-3.537c0.919,-0.302 2.412,-0.212 3.095,-0.721c0.644,-0.478 1.107,-1.249 1.777,-1.746c1.878,-1.393 4.227,-1.967 6.542,-1.871c0.964,0.04 1.922,0.196 2.84,0.494c0.849,0.275 1.775,1.001 2.579,0.998c1.007,-0.005 2.029,-0.477 3.087,-0.454c0.893,0.019 1.778,0.17 2.632,0.429c2.059,0.626 3.891,1.856 5.525,3.229c0.673,-0.377 -0.255,-0.214 0,0M162.929,39.981l-0.04,0.045c0.016,-0.016 0.116,-0.133 0.04,-0.045" style="fill:#f9c;"/><path d="M34.56,9.972c1.991,-2.06 4.668,-2.352 7.385,-2.352c0.894,0 0.92,0.111 1.347,-0.559c0.85,-1.332 1.825,-2.348 3.349,-2.905c2.993,-1.093 6.837,-0.224 8.552,2.593c0.546,0.896 0.341,0.87 1.45,0.869c0.97,-0.002 1.944,-0.019 2.907,0.116c1.565,0.219 3.072,0.834 4.245,1.911c1.069,-4.628 6.784,-6.484 10.724,-4.131c2.17,1.296 3.147,3.635 3.151,6.085c0.003,2.647 -0.244,5.307 -0.36,7.95c-0.06,1.371 -0.095,2.743 -0.103,4.116c-0.003,0.502 -0.099,1.133 0,1.624c0.178,0.88 -0.241,0.371 0.35,0.631c0.762,0.337 2.67,-0.187 3.229,-0.732c0.728,-0.711 0.796,-1.981 0.993,-2.912c0.491,-2.313 1.618,-4.4 3.87,-5.398c1.06,-0.47 2.228,-0.631 3.38,-0.577c0.429,0.021 1.356,0.366 1.731,0.258c0.266,-0.077 0.755,-0.753 0.989,-0.934c-3.048,-2.89 -2.59,-7.814 0.784,-10.266c1.697,-1.234 3.936,-1.665 5.945,-1.006c1.001,0.328 1.766,1.137 2.709,1.485c0.511,0.188 0.252,0.155 0.78,-0.134c2.36,-1.296 4.651,-1.139 7.248,-1.139c2.768,0 5.645,-0.044 7.785,2.043c1.683,1.642 2.063,3.856 2.279,6.096c0.234,2.418 0.849,4.814 2.128,6.904c0.579,-0.764 1.255,-1.454 2,-2.056c-2.555,-1.949 -3.183,-5.807 -1.792,-8.63c1.927,-3.91 6.087,-3.506 9.77,-3.606c3.616,-0.098 7.743,-0.6 10.245,2.628c0.252,0.324 0.412,0.834 0.692,1.105c0.395,0.383 0.04,0.246 0.681,0.27c0.698,0.026 1.375,-0.094 2.086,-0.016c1.767,0.194 3.432,0.975 4.563,2.374c0.36,-2.358 1.126,-4.604 3.284,-5.898c2.12,-1.271 5.071,-1.237 7.238,-0.088c1.049,0.557 1.929,1.399 2.499,2.445c0.323,0.591 0.374,1.761 0.939,1.906c0.668,0.171 0.592,-0.391 0.752,-0.871c0.371,-1.112 1.045,-2.115 1.952,-2.861c1.786,-1.467 4.342,-1.824 6.55,-1.285c1.19,0.29 2.304,0.899 3.152,1.787c0.36,0.377 0.673,0.804 0.926,1.259c0.204,0.367 0.356,1.393 0.633,1.634c0.204,0.178 2.044,0.778 2.171,0.744c0.184,-0.048 0.764,-1.214 0.959,-1.433c0.414,-0.466 0.898,-0.861 1.429,-1.186c2.43,-1.486 5.65,-1.012 8.37,-1.019c3.538,-0.009 7.077,0.001 10.615,0.02c3.141,0.017 6.279,0.737 7.988,3.647c1.491,-2.653 4.225,-3.101 7.007,-3.201c3.087,-0.111 6.197,-0.373 9.245,-0.88c2.392,-0.398 4.935,-1.436 7.384,-1.097c2.867,0.396 5.034,2.641 5.58,5.444c0.669,-2.797 3.031,-4.66 5.865,-4.878c3.621,-0.28 7.354,-0.049 10.985,-0.042c3.194,0.006 7.374,-0.726 10.107,1.299c1.195,0.886 2.014,2.185 2.363,3.626c0.178,0.737 0.232,1.499 0.193,2.254c-0.039,0.738 -0.476,1.707 -0.262,2.308c0.146,0.408 0.677,0.868 0.889,1.263c0.392,0.728 0.648,1.526 0.776,2.342c0.233,1.482 -0.004,2.986 -0.351,4.431c-0.746,3.112 -2.201,6.086 -4.276,8.53c-4.128,4.86 -11.107,7.6 -17.431,7.694c-3.287,0.049 -6.044,-1.987 -6.863,-5.189c-0.867,-3.388 0.854,-6.899 4.246,-7.964c-0.975,0 -1.968,0.062 -2.94,-0.053c-0.488,-0.057 -0.971,-0.162 -1.436,-0.32c-0.574,-0.195 -0.446,-0.225 -0.985,0.046c-1.044,0.525 -1.702,1.229 -2.934,1.499c-0.616,0.135 -1.237,0.161 -1.866,0.167c-0.861,0.007 -2.226,-0.269 -3.034,0c-0.524,0.173 -0.211,-0.061 -0.52,0.462c-0.478,0.809 -0.691,1.833 -1.155,2.671c-2.154,3.882 -5.969,6.33 -10.119,7.651c-4.285,1.364 -9.314,1.029 -10.922,-3.919c-3.025,3.979 -8.894,2.987 -13.266,2.984c-2.558,-0.002 -5.115,-0.01 -7.672,-0.013c-2.341,-0.003 -4.633,0.072 -6.573,-1.457c-0.307,-0.242 -0.557,-0.612 -0.857,-0.612c-0.228,0 -0.886,0.526 -1.088,0.617c-0.974,0.438 -2.049,0.631 -3.115,0.564c-0.4,-0.025 -0.809,-0.176 -1.146,-0.046c-0.34,0.131 -0.785,0.684 -1.088,0.896c-0.893,0.626 -1.902,1.074 -2.949,1.374c-2.131,0.61 -4.492,0.648 -6.666,0.258c-1.099,-0.197 -2.075,-0.776 -3.133,-1c-0.458,-0.098 -0.257,-0.119 -0.618,-0.028c-0.424,0.107 -0.893,0.546 -1.318,0.719c-2.207,0.896 -5.016,0.683 -6.971,-0.708c-2.027,-1.443 -2.641,-3.749 -2.914,-6.1c-0.945,0.244 -0.989,0.13 -1.544,1.014c-0.313,0.5 -0.649,0.986 -1.009,1.453c-0.958,1.245 -2.084,2.38 -3.372,3.284c-2.378,1.667 -5.476,2.549 -8.228,1.267c-0.746,-0.347 -1.786,-1.54 -2.433,-1.584c-0.507,-0.035 -1.492,0.493 -2.039,0.575c-0.838,0.125 -1.695,0.123 -2.535,0.011c-0.807,-0.107 -1.602,-0.321 -2.358,-0.621c-0.169,-0.067 -0.782,-0.422 -0.891,-0.404c-0.096,0.015 -0.308,0.456 -0.399,0.528c-1.173,0.93 -2.013,1.775 -3.556,2.107c-2.469,0.531 -5.315,0.161 -7.813,0.161c-2.68,0 -5.438,0.175 -8.111,-0.086c-0.819,-0.08 -1.634,-0.216 -2.429,-0.426c-0.442,-0.117 -1.665,-0.795 -2.081,-0.744c-0.074,0.009 -0.767,0.582 -0.707,0.541c-0.654,0.439 -1.375,0.769 -2.143,0.951c-3.328,0.786 -6.713,-1.167 -7.984,-4.277c-6.882,5.603 -22,5.625 -25.393,-4.132c-1.205,1.331 -2.87,2.088 -4.629,2.346c-0.649,0.095 -1.301,0.119 -1.956,0.124c-0.307,0.002 -1.092,-0.149 -1.357,0c-0.377,0.212 -0.387,1.784 -0.564,2.289c-0.568,1.619 -1.755,2.925 -3.322,3.63c-3.222,1.45 -7.649,0.375 -9.241,-2.928c-0.351,-0.727 -0.544,-1.514 -0.624,-2.314c-0.102,-1.008 -0.415,-0.67 -1.396,-0.676c-1.843,-0.012 -3.67,-0.244 -5.266,-1.243c-2.021,3.615 -5.8,5.694 -9.801,6.341c-2.114,0.341 -4.564,0.526 -6.598,-0.282c-0.416,-0.165 -0.691,-0.366 -1.09,-0.355c-0.517,0.014 -1.23,0.421 -1.754,0.531c-1.108,0.232 -2.254,0.29 -3.383,0.212c-9.512,-0.66 -13.216,-12.077 -7.205,-18.968c-3.673,-2.355 -3.725,-8.354 -0.269,-10.906c0.816,-0.603 1.787,-1.001 2.785,-1.174c0.74,-0.128 1.859,0.153 2.499,-0.136c0.391,-0.176 0.356,-0.218 0.624,-0.686c0.516,-0.902 1.25,-1.645 2.142,-2.177c1.513,-0.902 3.399,-1.133 5.123,-0.846c1.05,0.174 2.067,0.577 2.918,1.222c0.194,0.147 0.575,0.672 0.801,0.73c0.245,0.063 0.625,-0.246 0.914,-0.38c4.136,-1.917 8.151,1.076 10.953,3.93" style="fill:#fff;"/><path d="M19.808,16.684c1.694,-0.076 4.322,0.34 4.497,-2.001c0.211,-2.818 -2.627,-2.325 -4.497,-2.247c0,-0.896 0.194,-2.165 -0.437,-2.898c-0.873,-1.015 -3.201,-0.891 -3.793,0.379c-0.305,0.651 0.182,2.275 -0.193,2.722c-0.152,0.182 -1.468,0.032 -1.76,0.038c-0.793,0.017 -1.587,0.034 -2.38,0.053c-0.901,0.022 -2.16,-0.147 -2.88,0.539c-1.019,0.97 -0.672,3.065 0.668,3.541c0.732,0.26 1.652,0.141 2.413,0.135c1.312,-0.009 2.628,-0.029 3.939,-0.086c0,0.733 0.299,2.452 -0.144,2.934c-0.262,0.284 -1.128,0.444 -1.489,0.608c-0.675,0.306 -1.333,0.652 -1.958,1.052c-3.062,1.961 -5.027,5.466 -3.837,9.124c1.214,3.731 6.322,5.687 9.64,3.332c2.141,-1.52 2.208,-4.412 2.211,-6.784c0.002,-1.195 -0.265,-2.703 0,-3.861c0.147,-0.64 0.163,-0.529 0.982,-0.6c1,-0.087 2.039,-0.074 3.036,0.052c1.661,0.209 3.364,0.864 3.945,2.58c0.547,1.616 0.144,3.601 -1.291,4.606c-1.024,0.717 -2.324,0.88 -3.542,0.92c-1.402,0.046 -2.932,0.078 -2.955,1.895c-0.051,3.995 7.054,1.92 8.966,0.868c3.721,-2.047 5.044,-6.936 3.062,-10.687c-2.223,-4.208 -8.025,-4.583 -12.203,-4.119l0,-2.095ZM15.443,27.13c0,0.966 0.058,2.665 -0.915,3.255c-1.116,0.677 -2.279,-0.45 -2.544,-1.483c-0.619,-2.412 1.543,-4.068 3.459,-4.944l0,3.172ZM24.784,10.661c-2.299,1.532 1.607,3.823 2.475,4.68c1.429,1.41 2.97,5 5.378,2.885c2.153,-1.893 -0.657,-4.486 -2.074,-5.788c-1.516,-1.393 -3.776,-3.447 -5.779,-1.777c-0.088,0.058 0.174,-0.146 0,0" style="fill:#e00;fill-rule:nonzero;"/><path d="M47.073,12.174l-4.427,0c-1.424,0 -3.251,-0.24 -4.459,0.652c-1.305,0.963 -1.211,2.724 -1.211,4.181l0,5.539c0,1.31 -0.101,2.672 0.036,3.98c0.242,2.302 1.785,3.047 3.925,3.078c1.614,0.023 3.229,0 4.843,0c0.226,0 1.123,-0.133 1.293,0.022c0.235,0.214 0,1.804 0,2.16c0,1.417 -0.431,3.707 1.313,4.22c2.016,0.593 3.175,-0.494 3.197,-2.361c0.011,-0.886 0,-1.774 0,-2.66c0,-0.33 -0.135,-1.203 0.063,-1.381c0.236,-0.215 1.695,0 1.982,0l2.906,0c1.434,0 3.232,0.2 4.31,-0.935c1.047,-1.103 0.865,-2.829 0.865,-4.241l0,-5.684c0,-1.334 0.17,-2.878 -0.152,-4.185c-0.558,-2.264 -2.632,-2.385 -4.594,-2.385l-3.071,0c-0.352,0 -2.001,0.232 -2.246,0c-0.292,-0.277 -0.024,-1.571 -0.072,-2.051c-0.139,-1.36 -1.064,-1.873 -2.377,-1.848c-2.39,0.045 -2.124,2.15 -2.124,3.899M41.37,16.946c0,-1.359 3.474,-0.815 4.312,-0.815c0.405,0 1.197,-0.136 1.391,0.123c0.177,0.237 0.13,2.194 0,2.466c-0.19,0.395 -0.354,0.263 -0.943,0.263l-2.858,0c-0.319,0 -1.626,0.213 -1.885,0c-0.219,-0.181 -0.017,-1.712 -0.017,-2.037M56.472,16.131c1.069,0 0.852,1.519 0.814,2.24c-0.038,0.737 0.008,0.612 -0.741,0.612l-2.794,0c-0.329,0 -1.867,0.227 -2.125,0c-0.212,-0.187 -0.043,-1.52 -0.043,-1.821c0,-0.767 -0.178,-0.832 0.366,-1.031c0.674,-0.246 1.903,0 2.617,0l1.906,0ZM42.185,25.617c-1.064,0 -0.815,-1.304 -0.815,-2.024c0,-0.898 -0.19,-0.835 0.558,-0.944c0.86,-0.125 1.838,0 2.706,0c0.44,0 1.983,-0.266 2.33,0c0.263,0.202 0.109,1.217 0.109,1.623c0,0.686 0.202,1.13 -0.29,1.345c-0.6,0.263 -1.906,0 -2.56,0l-2.038,0ZM57.286,24.802c0,1.373 -3.584,0.815 -4.435,0.815c-0.386,0 -1.097,0.132 -1.268,-0.127c-0.169,-0.257 -0.154,-2.367 0,-2.64c0.328,-0.58 3.268,-0.201 4.059,-0.201c0.2,0 1.491,-0.162 1.644,0c0.231,0.244 0,1.789 0,2.153" style="fill:#e00;fill-rule:nonzero;"/><path d="M70.729,9.09c-3.169,0 -2.624,3.202 -2.67,5.448c-0.062,2.961 -0.135,5.923 -0.151,8.884c-0.014,2.626 -0.227,5.973 1.424,8.219c2.452,3.333 7.247,3.597 11.013,3.152c4.732,-0.56 8.31,-3.24 10.006,-7.735c0.495,-1.31 1.342,-3.626 0.681,-5.016c-0.514,-1.079 -2.078,-1.408 -3.162,-1.124c-1.823,0.478 -1.662,2.972 -2.121,4.427c-0.494,1.57 -1.369,2.995 -2.775,3.898c-2.464,1.582 -8.204,2.322 -9.785,-0.828c-0.778,-1.551 -0.548,-3.582 -0.533,-5.254c0.021,-2.332 0.148,-4.659 0.26,-6.988c0.107,-2.206 1.314,-7.083 -2.187,-7.083" style="fill:#e00;fill-rule:nonzero;"/><path d="M94.211,11.039c0,0.945 1.06,1.635 1.695,2.192c0.774,0.677 1.528,1.37 2.284,2.066c0.525,0.485 1.007,0.995 1.752,1.036c1.114,0.06 2.183,-0.902 2.413,-1.962c0.461,-2.128 -3.09,-4.557 -4.713,-5.424c-1.567,-0.837 -3.431,0.224 -3.431,2.092M106.636,31.087c-1.952,0 -4.449,-0.511 -5.127,-2.63c-0.365,-1.142 -0.14,-2.569 -0.14,-3.744c0,-1.217 0.111,-2.536 -0.082,-3.742c-0.296,-1.85 -1.676,-2.044 -3.336,-2.074c-1.126,-0.02 -3.074,-0.337 -3.806,0.728c-0.473,0.687 -0.498,2.005 -0.054,2.708c0.54,0.854 1.383,0.685 2.23,0.811c1.149,0.17 0.8,1.524 0.8,2.492l0,2.291c0,0.333 0.137,1.038 0,1.347c-0.37,0.833 -2.078,1.569 -2.724,2.206c-0.883,0.872 -0.951,2.087 -0.256,3.123c1.91,2.847 4.644,-0.463 5.744,-2.235c1.841,2.53 4.817,2.939 7.759,2.939l9.21,0c1.877,0 4.979,0.335 4.602,-2.503c-0.328,-2.474 -4.398,-1.717 -6.14,-1.717l-8.68,0ZM109.487,13.425c1.828,0 -1.181,6.14 -1.563,6.806c-0.789,1.379 -1.725,2.694 -2.83,3.838c-0.843,0.872 -2.45,1.744 -2.833,2.923c-0.36,1.108 0.374,2.41 1.423,2.841c1.407,0.579 2.712,-0.489 3.673,-1.414c2.243,-2.161 3.926,-4.933 5.011,-7.836c0.686,2.816 1.991,5.601 3.873,7.822c0.966,1.141 2.318,2.169 3.811,1.243c1.996,-1.238 1.219,-3.04 0.01,-4.416c-1.802,-2.051 -3.252,-4.129 -4.173,-6.727c-0.489,-1.377 -0.84,-2.804 -1.028,-4.254c-0.132,-1.023 -0.117,-2.093 -0.379,-3.096c-0.443,-1.692 -1.819,-2.008 -3.412,-2.036c-1.326,-0.024 -2.655,0 -3.982,0c-0.946,0 -2.165,-0.173 -2.861,0.618c-1.397,1.586 -0.087,3.607 1.711,3.688c1.178,0.053 2.369,0 3.549,0" style="fill:#e00;fill-rule:nonzero;"/><path d="M141.728,20.205c-1.501,-0.429 -3.006,-0.808 -4.539,-1.106c0.515,-2.196 2.684,-7.446 0.193,-8.91c-0.877,-0.516 -1.965,-0.437 -2.943,-0.407c-1.496,0.045 -2.992,0.106 -4.488,0.122c-1.023,0.01 -2.329,-0.2 -3.301,0.188c-1.511,0.604 -1.651,3.176 -0.252,3.984c1.013,0.586 2.634,0.226 3.721,0.16c0.794,-0.048 1.597,-0.134 2.393,-0.133c0.874,0 1.214,0.155 1.137,1.084c-0.054,0.655 -0.214,1.331 -0.359,1.973c-0.155,0.686 -0.19,1.523 -0.761,1.753c-0.837,0.336 -2.027,0.245 -2.925,0.51c-1.173,0.346 -2.304,0.855 -3.268,1.617c-3.082,2.438 -3.878,7.436 -1.241,10.505c1.094,1.273 2.771,2.159 4.478,2.064c2.29,-0.128 3.508,-2.08 4.381,-3.965c0.527,-1.14 0.984,-2.313 1.379,-3.505c0.209,-0.632 0.343,-2.239 0.788,-2.716c0.382,-0.41 2.1,0.245 2.732,0.449c0.531,0.17 1.052,0.369 1.569,0.579c0.172,0.069 0.839,0.28 0.899,0.381c0.11,0.182 -0.195,0.943 -0.246,1.124c-0.584,2.089 -1.72,3.221 -3.455,4.373c-1.376,0.915 -2.861,2.06 -1.548,3.827c1.458,1.961 3.974,0.592 5.4,-0.637c1.98,-1.708 3.399,-4.135 4.068,-6.651c1.134,0.627 2.347,1.327 3.479,0.282c0.81,-0.747 1.217,-2.091 0.623,-3.08c-0.29,-0.483 -0.782,-0.815 -1.25,-1.102c-0.436,-0.267 -1.827,-0.632 -2.038,-1.017c-0.239,-0.437 0.158,-2.06 0.189,-2.553c0.051,-0.798 0.099,-1.599 0.1,-2.399c0.001,-1.032 -0.022,-2.247 -0.999,-2.853c-0.975,-0.605 -2.821,-0.523 -3.522,0.474c-0.962,1.368 -0.334,4.013 -0.394,5.585c-1.426,-0.407 0.029,-0.757 0,0M131.835,22.911c-0.286,1.366 -1.557,7.102 -3.494,6.129c-1.315,-0.66 -1.046,-2.785 -0.472,-3.84c0.821,-1.509 2.398,-1.976 3.966,-2.289c-0.146,0.698 -0.728,0.146 0,0" style="fill:#e00;fill-rule:nonzero;"/><path d="M168.614,14.502c-1.488,0.038 -2.976,0.056 -4.464,0.084c-1.009,0.019 -2.589,-0.243 -3.49,0.359c-1.493,0.997 -0.919,3.642 0.802,3.967c0.893,0.169 1.891,0.043 2.793,0.039c1.492,-0.006 2.985,-0.02 4.476,-0.084c0.029,1.455 0.058,2.909 0.087,4.364c-2.996,-0.374 -6.574,-0.053 -8.195,2.907c-1.203,2.198 -0.815,5.231 1.017,6.967c2.161,2.05 6.355,2.371 8.97,1.085c1.832,-0.9 2.412,-2.649 2.514,-4.557c0.905,0.678 1.684,1.98 2.718,2.407c1.507,0.624 3.022,-0.992 3.015,-2.436c-0.007,-1.461 -1.436,-2.484 -2.502,-3.269c-0.876,-0.644 -2.691,-1.227 -2.946,-2.205c-0.233,-0.898 -0.032,-2.143 -0.046,-3.071c-0.005,-0.354 -0.281,-2.059 -0.035,-2.35c0.366,-0.434 2.795,-0.074 3.519,-0.207c0.834,-0.153 1.364,-0.594 1.563,-1.469c0.785,-3.447 -3.056,-2.865 -5.14,-2.735c-0.025,-2.192 0.447,-5.288 -2.796,-4.928c-2.569,0.285 -1.899,3.298 -1.86,5.132M168.905,27.305c0.018,1.275 0.338,2.857 -1.044,3.528c-0.856,0.416 -2.219,0.356 -3.037,-0.137c-1.259,-0.76 -1.202,-2.643 0.022,-3.408c1.182,-0.737 2.865,-0.495 4.059,0.017c0.029,2.037 -0.611,-0.262 0,0M157.092,9.439c-3.303,-0.437 -3.097,3.756 -3.321,6.007c-0.476,4.77 -0.501,9.601 -0.128,14.38c0.102,1.311 -0.011,3.74 1.186,4.628c1.053,0.781 3.097,0.49 3.585,-0.792c0.308,-0.809 0.06,-1.837 -0.042,-2.662c-0.171,-1.384 -0.315,-2.767 -0.394,-4.161c-0.151,-2.663 -0.13,-5.338 0.031,-8.001c0.12,-1.973 0.391,-3.895 0.677,-5.847c0.232,-1.588 0.482,-3.255 -1.594,-3.552c-1.979,-0.262 1.425,0.204 0,0" style="fill:#e00;fill-rule:nonzero;"/><path d="M185.549,28.469c-3.087,0 -2.974,4.416 0.016,4.568c1.39,0.071 2.802,0 4.194,0c3.981,0 7.968,0.063 11.949,0c2.701,-0.042 3.982,-1.292 4.035,-4.015c0.031,-1.585 0,-3.174 0,-4.759l0,-7.054c0,-1.585 0.274,-3.667 -0.921,-4.884c-1.13,-1.152 -2.991,-0.936 -4.481,-0.936l-6.499,0l-6.581,0c-1.691,0 -3.665,-0.016 -3.661,2.269c0.004,2.225 1.831,2.27 3.494,2.27l6.762,0c1.885,0 3.783,-0.065 5.667,0c1.661,0.057 1.303,1.621 1.303,2.89l0,7.083c0,0.514 0.074,1.097 0,1.608c-0.131,0.901 -0.704,0.947 -1.447,0.96c-4.218,0.076 -8.444,0 -12.663,0l-1.167,0Z" style="fill:#e00;fill-rule:nonzero;"/><path d="M227.275,15.026c1.169,-0.175 2.34,-0.341 3.502,-0.561c1.017,-0.193 2.46,-0.329 2.959,-1.379c0.463,-0.974 0.054,-2.463 -0.874,-3.02c-0.933,-0.559 -2.147,-0.125 -3.12,0.084c-3.491,0.751 -6.975,1.259 -10.538,1.515c-1.945,0.141 -6.516,-0.638 -6.351,2.336c0.08,1.44 1.034,1.982 2.344,2.043c2.456,0.113 4.984,-0.201 7.423,-0.465c0,0.815 0.298,2.246 0,2.985c-0.141,0.349 0.08,0.189 -0.128,0.332c-0.163,0.112 -0.793,0 -0.988,0l-7.109,0c-0.534,0 -1.123,-0.057 -1.654,0.029c-1.448,0.235 -2.011,1.873 -1.441,3.175c0.68,1.555 3.099,1.102 4.461,1.102l6.772,0c-0.183,2.428 -1.158,4.396 -3.328,5.61c-1.201,0.672 -2.549,1.079 -3.878,1.412c-1.219,0.305 -2.537,0.592 -2.508,2.126c0.056,2.897 2.971,2.554 4.957,1.979c3.22,-0.934 6.34,-2.704 7.982,-5.731c0.566,-1.041 0.932,-2.176 1.155,-3.337c0.114,-0.592 0.044,-1.831 0.483,-2.059c0.457,-0.236 1.639,0 2.14,0l3.469,0c1.253,0 2.96,0.289 3.559,-1.128c0.867,-2.047 -0.635,-3.172 -2.401,-3.178c-2.077,-0.008 -4.225,0.175 -6.293,0c-0.808,-0.068 -0.595,-0.096 -0.595,-1.003l0,-2.867Z" style="fill:#e00;fill-rule:nonzero;"/><path d="M244.821,10.399c-2.109,0 -3.191,3.077 -1.166,4.117c0.716,0.367 1.805,0.219 2.586,0.219l11.448,0c1.121,0 2.251,0.038 3.371,0c0.51,-0.018 1.035,-0.035 1.469,-0.343c0.952,-0.674 1.062,-2.485 0.314,-3.355c-0.665,-0.773 -1.772,-0.638 -2.689,-0.638l-4.988,0l-10.345,0ZM258.759,21.864c2.249,0 -1.533,4.825 -2.266,5.448c-1.826,1.554 -4.162,2.306 -6.478,2.766c-1.454,0.288 -4.673,0.056 -5.269,1.796c-0.689,2.011 1.113,3.228 2.865,3.106c7.999,-0.558 16.589,-5.676 17.155,-14.438c0.195,-3.022 -2.396,-2.985 -4.587,-2.985l-9.322,0c-2.612,0 -5.228,-0.04 -7.839,0c-1.031,0.016 -2.038,0.137 -2.449,1.249c-0.632,1.708 0.415,2.988 2.057,3.058c5.357,0.228 10.77,0 16.133,0" style="fill:#e00;fill-rule:nonzero;"/></g></g></g></svg>
