<?xml version="1.0" encoding="UTF-8" standalone="no"?><!DOCTYPE svg PUBLIC "-//W3C//DTD SVG 1.1//EN" "http://www.w3.org/Graphics/SVG/1.1/DTD/svg11.dtd"><svg width="193px" height="45px" viewBox="0 0 193 45" version="1.1" xmlns="http://www.w3.org/2000/svg" xmlns:xlink="http://www.w3.org/1999/xlink" xml:space="preserve" style="fill-rule:evenodd;clip-rule:evenodd;stroke-linejoin:round;stroke-miterlimit:1.41421;"><g><g><clipPath id="_clip1"><rect x="0.706" y="0.358" width="192.08" height="43.931"/></clipPath><g clip-path="url(#_clip1)"><path d="M96.349,8.534c1.859,-0.954 3.493,-2.048 5.05,-3.444c1.472,-1.321 2.852,-2.709 4.657,-3.585c4.191,-2.033 9.28,-1.28 12.86,1.606c1.778,1.433 3.338,3.099 5.276,4.335c0.669,0.427 0.707,0.282 1.339,-0.044c0.475,-0.244 0.969,-0.444 1.476,-0.609c1.094,-0.356 1.431,-1.512 2.222,-2.367c3.179,-3.44 8.858,-4.014 12.824,-1.633c1.099,0.66 1.763,1.549 2.656,2.419c0.526,0.513 0.16,0.295 0.835,0.384c0.652,0.085 1.341,0.03 2.001,0.096c2.646,0.266 5.245,1.109 7.488,2.549c1.268,-3.825 4.87,-6.249 8.83,-6.414c2.125,-0.089 4.286,0.36 6.093,1.511c0.874,0.557 0.7,0.615 1.473,0.019c0.853,-0.658 1.813,-1.16 2.836,-1.496c4.16,-1.37 9.197,-0.159 11.711,3.568c0.527,0.78 0.7,1.824 1.21,2.56c0.286,0.415 0.632,0.511 1.122,0.809c1.727,1.05 3.057,2.654 3.786,4.539c1.793,4.634 0.035,10.326 -4.513,12.583c2.368,2.797 2.982,6.848 1.672,10.259c-1.468,3.823 -5.016,5.733 -8.909,6.221c-7.614,0.954 -18.121,1.359 -23.161,-5.605c-3.815,3.907 -9.802,5.757 -15.185,5.624c-0.474,-0.011 -0.834,-0.049 -1.268,0.069c-0.654,0.178 -1.258,0.523 -1.928,0.686c-1.276,0.309 -2.624,0.374 -3.926,0.221c-2.59,-0.304 -4.989,-1.587 -6.582,-3.667c-3.104,4.032 -7.787,4.134 -12.446,4.148c-2.688,0.008 -5.375,0.009 -8.063,0.002c-2.226,-0.005 -4.542,0.157 -6.744,-0.232c-2.363,-0.417 -3.97,-1.53 -5.81,-2.951c-0.529,-0.409 -0.451,-0.453 -1.159,-0.33c-0.557,0.097 -1.12,0.15 -1.686,0.164c-1.204,0.03 -2.422,-0.12 -3.575,-0.471c-0.989,-0.301 -1.922,-0.749 -2.769,-1.343c-0.834,-0.584 -0.655,-0.396 -1.443,0.322c-1.567,1.427 -3.441,2.498 -5.481,3.081c-2.169,0.62 -4.511,0.686 -6.71,0.178c-0.556,-0.128 -1.103,-0.296 -1.636,-0.498c-0.292,-0.111 -1.293,-0.781 -1.609,-0.742c-0.286,0.035 -0.859,0.799 -1.136,1.009c-0.47,0.357 -0.971,0.669 -1.498,0.935c-2.169,1.094 -4.587,1.154 -6.967,1.186c-2.403,0.033 -4.815,-0.031 -7.005,-1.14c-0.48,-0.242 -0.936,-0.529 -1.366,-0.852c-0.331,-0.249 -0.804,-0.89 -1.161,-1.03c-0.406,-0.159 -2.057,-0.183 -2.449,-0.03c-0.607,0.236 -1.238,1.145 -1.823,1.536c-1.023,0.685 -2.183,1.151 -3.388,1.398c-2.315,0.474 -4.855,0.192 -6.962,-0.899c-0.778,-0.403 -1.501,-1.352 -2.259,-1.645c-0.666,-0.257 -2.149,0.607 -2.958,0.839c-2.217,0.635 -4.563,0.903 -6.867,0.833c-1.026,-0.031 -2.045,-0.168 -3.032,-0.46c-1.099,-0.325 -1.555,-0.052 -2.721,0.14c-4.487,0.742 -9.271,-0.498 -12.58,-3.679c-3.367,-3.236 -4.8,-8.036 -4.121,-12.617c0.162,-1.09 0.439,-2.163 0.832,-3.193c0.226,-0.591 1.209,-1.974 1.127,-2.493c-0.095,-0.596 -0.904,-1.429 -1.147,-2.012c-0.488,-1.173 -0.74,-2.44 -0.769,-3.709c-0.109,-4.658 2.875,-8.729 7.473,-9.733c0.734,-0.16 1.654,-0.053 2.205,-0.45c0.883,-0.636 1.473,-1.639 2.447,-2.251c1.941,-1.217 4.301,-1.655 6.568,-1.449c1.084,0.099 2.155,0.351 3.155,0.782c0.396,0.17 0.778,0.47 1.179,0.608c0.64,0.22 0.901,0.037 1.604,-0.122c1.935,-0.439 3.927,-0.225 5.766,0.496c0.525,0.206 1.035,0.448 1.53,0.719c0.603,0.329 0.595,0.449 1.146,0.212c0.992,-0.427 1.809,-1.302 2.866,-1.718c1.745,-0.688 3.567,-0.81 5.418,-0.816c2.218,-0.008 4.522,-0.173 6.725,0.141c0.881,0.126 1.749,0.534 2.591,0.434c1.028,-0.123 1.996,-0.477 3.051,-0.541c2.186,-0.133 4.424,-0.087 6.613,-0.027c1.191,0.032 2.364,0.168 3.509,0.508c0.952,0.283 2.044,1.102 2.947,1.036c1.048,-0.077 2.064,-0.44 3.144,-0.463c1.057,-0.023 2.113,0.078 3.137,0.355c1.016,0.275 1.998,0.723 2.866,1.32c0.56,0.384 1.726,1.866 2.197,1.838c0.194,-0.011 0.721,-0.504 0.896,-0.608c0.402,-0.238 0.822,-0.449 1.254,-0.628c1.062,-0.439 2.197,-0.683 3.342,-0.757c2.261,-0.146 4.584,0.315 6.679,1.157c1.898,0.762 3.666,1.884 5.128,3.318" style="fill:#f9c;"/><path d="M95.631,12.285c1.376,-0.815 2.866,-1.427 4.237,-2.256c1.545,-0.935 2.901,-2.116 4.224,-3.336c2.259,-2.084 4.538,-3.47 7.726,-3.305c3.53,0.183 5.63,2.526 8.167,4.655c1.19,0.999 2.441,1.902 3.807,2.646c0.283,0.154 0.684,0.467 0.997,0.517c0.738,0.119 0.146,0.11 0.714,-0.165c0.796,-0.386 1.4,-1.039 2.273,-1.347c0.567,-0.2 1.328,-0.16 1.855,-0.399c0.464,-0.211 0.142,-0.002 0.386,-0.381c0.783,-1.215 1.105,-2.392 2.379,-3.297c2.291,-1.626 5.78,-1.695 8.164,-0.221c0.65,0.402 1.227,0.923 1.689,1.533c0.309,0.408 0.619,1.616 0.963,1.842c0.314,0.207 1.814,-0.169 2.234,-0.173c0.914,-0.01 1.829,0.054 2.732,0.201c1.594,0.261 3.15,0.776 4.562,1.563c0.612,0.341 1.195,0.733 1.741,1.172c0.144,0.116 0.736,0.788 0.896,0.796c0.142,0.007 0.895,-0.562 1.008,-0.617c1.004,-0.491 1.023,-0.216 1.203,-1.333c0.138,-0.854 0.415,-1.683 0.858,-2.428c0.898,-1.511 2.392,-2.539 4.095,-2.936c3.494,-0.815 7.28,0.745 8.427,4.3c1.434,-5.822 10.314,-6.887 12.967,-1.428c0.291,0.599 0.483,1.237 0.602,1.891c0.132,0.728 0.014,0.597 0.575,0.885c1.289,0.662 2.399,0.99 3.329,2.213c1.769,2.328 1.798,5.957 0.137,8.347c-0.723,1.041 -1.761,1.838 -2.952,2.27c-0.695,0.252 -0.748,0.087 -1.012,0.62c-0.223,0.448 -0.323,1.674 -0.373,2.151c-0.078,0.752 -0.145,0.333 0.307,0.861c0.4,0.468 0.859,0.827 1.212,1.353c0.814,1.215 1.196,2.681 1.166,4.139c-0.154,7.531 -9.136,7.228 -14.565,7.158c-3.125,-0.041 -6.409,-0.275 -9.23,-1.744c-2.957,-1.54 -4.786,-4.3 -5.35,-7.551c-1.355,3.212 -3.775,5.631 -6.924,7.104c-1.575,0.736 -3.266,1.201 -4.978,1.49c-0.92,0.155 -1.852,0.27 -2.784,0.322c-0.775,0.043 -1.713,-0.225 -2.447,-0.124c-0.794,0.11 -1.541,0.717 -2.391,0.943c-1.724,0.458 -3.685,0.331 -5.299,-0.447c-1.494,-0.721 -2.666,-2.043 -3.235,-3.598c-0.156,-0.426 -0.151,-0.86 -0.453,-1.078c-0.376,-0.271 -1.444,-0.296 -1.899,-0.482c-0.576,2.815 -2.516,5.046 -5.296,5.855c-3.079,0.895 -6.749,0.415 -9.928,0.417c-3.204,0.003 -6.518,0.225 -9.709,-0.075c-2.772,-0.26 -5.286,-1.689 -6.504,-4.261c-3.679,2.185 -8.998,0.74 -10.503,-3.388c-1.612,2.839 -4.037,5.226 -7.251,6.106c-3.439,0.941 -7.203,0.045 -9.75,-2.472c-1.582,3.686 -5.031,4.328 -8.652,4.389c-1.783,0.03 -3.653,0.105 -5.338,-0.574c-0.641,-0.258 -1.243,-0.615 -1.767,-1.065c-0.346,-0.297 -0.593,-0.686 -0.924,-0.986c-0.532,-0.483 -0.505,-0.395 -1.288,-0.394c-0.895,0.001 -1.794,0.022 -2.688,-0.025c-0.544,-0.029 -1.367,-0.264 -1.756,-0.021c-0.547,0.343 -0.98,1.335 -1.544,1.777c-0.665,0.521 -1.428,0.903 -2.242,1.126c-3.255,0.895 -7.052,-0.447 -8.34,-3.719c-3.135,2.297 -7.512,3.28 -11.361,2.837c-0.858,-0.099 -1.617,-0.374 -2.42,-0.674c-0.845,-0.317 -1.079,-0.008 -2.035,0.244c-1.924,0.507 -4.023,0.499 -5.955,0.043c-8.653,-2.041 -10.824,-12.871 -5.245,-19.149c-3.258,-2.028 -3.921,-6.95 -1.605,-9.934c1.129,-1.456 2.859,-2.276 4.674,-2.431c0.552,-0.048 1.801,0.223 2.276,-0.067c0.391,-0.238 0.763,-1.401 1.108,-1.789c1.304,-1.462 3.195,-2.117 5.119,-2.137c0.792,-0.008 1.58,0.083 2.341,0.305c0.558,0.163 1.092,0.387 1.589,0.69c0.423,0.259 0.881,0.905 1.305,1.077c0.513,0.209 1.752,-0.65 2.456,-0.815c1.062,-0.248 2.139,-0.223 3.192,0.054c1.854,0.489 3.492,1.647 4.933,2.876c2.32,-4.702 7.946,-4.032 12.336,-3.98c1.167,0.014 2.317,0.08 3.437,0.446c0.629,0.205 0.932,0.437 1.514,0.359c0.783,-0.105 1.565,-0.577 2.384,-0.694c1.196,-0.171 2.423,-0.115 3.627,-0.121c2.279,-0.011 4.737,-0.242 6.907,0.588c0.545,0.208 1.066,0.477 1.545,0.81c0.24,0.167 0.717,0.762 0.947,0.792c0.285,0.037 1.286,-0.658 1.63,-0.763c0.477,-0.145 0.969,-0.234 1.464,-0.286c1.842,-0.196 3.763,0.112 5.281,1.232c0.804,0.592 1.453,1.379 1.895,2.274c0.271,0.549 0.46,1.135 0.575,1.735c0.033,0.172 0.05,1.336 0.155,1.402c0.05,0.031 2.045,-3.004 2.244,-3.204c1.364,-1.371 3.231,-1.987 5.139,-1.984c3.988,0.006 7.96,2.011 10.288,5.248c0.105,-0.062 -0.207,-0.288 0,0" style="fill:#fff;"/><path d="M20.824,16.807c1.623,-0.073 4.3,0.348 4.624,-1.847c0.454,-3.084 -2.646,-2.615 -4.624,-2.533c0,-0.878 0.192,-2.128 -0.37,-2.884c-0.783,-1.056 -3.037,-1.06 -3.82,-0.018c-0.365,0.486 -0.355,1.126 -0.37,1.702c-0.007,0.269 0.16,1.185 0,1.349c-0.463,0.476 -3.246,0.13 -3.958,0.147c-0.916,0.022 -2.26,-0.17 -3.071,0.397c-1.234,0.863 -1.005,3.193 0.373,3.776c0.765,0.323 1.78,0.186 2.594,0.18c1.354,-0.01 2.71,-0.03 4.062,-0.089c0,0.724 0.309,2.553 -0.146,3.024c-0.294,0.306 -1.207,0.476 -1.603,0.658c-0.725,0.333 -1.43,0.709 -2.097,1.148c-3.148,2.073 -5.113,5.812 -3.728,9.558c1.381,3.736 6.727,5.633 10.013,3.073c2.104,-1.638 2.12,-4.587 2.121,-7.01c0,-0.622 0,-1.244 0,-1.867c0,-0.569 -0.213,-1.612 0,-2.145c0.024,-0.06 -0.042,-0.263 0,-0.319c0.124,-0.167 1.165,-0.146 1.335,-0.156c0.959,-0.057 1.946,-0.043 2.899,0.085c1.773,0.239 3.525,0.994 4.035,2.862c0.464,1.696 0.009,3.638 -1.517,4.621c-1.067,0.687 -2.378,0.833 -3.618,0.866c-1.585,0.043 -3.192,0.28 -2.935,2.336c0.46,3.671 7.378,1.552 9.289,0.476c3.79,-2.133 5.125,-7.14 3.094,-10.983c-2.293,-4.34 -8.275,-4.726 -12.582,-4.247l0,-2.16ZM16.324,27.577c0,0.996 0.06,2.747 -0.943,3.356c-1.151,0.698 -2.35,-0.464 -2.623,-1.529c-0.638,-2.487 1.59,-4.194 3.566,-5.097l0,3.27ZM25.954,10.597c-2.333,1.555 1.53,3.843 2.434,4.71c1.484,1.425 2.855,4.973 5.387,3.298c2.671,-1.765 -0.245,-4.66 -1.718,-6.04c-1.569,-1.471 -3.991,-3.728 -6.103,-1.968c-0.09,0.06 0.18,-0.15 0,0" style="fill:#e00;fill-rule:nonzero;"/><path d="M53.734,33.607c0.41,0 0.82,-0.03 1.23,-0.03c-0.459,2.752 1.716,3.064 3.84,3.06c1.572,-0.003 4.06,0.355 5.121,-1.076c1.036,-1.398 0.639,-4.061 0.639,-5.704l0,-16.507c0,-0.805 0.046,-1.647 -0.208,-2.419c-0.521,-1.584 -1.966,-1.897 -3.473,-1.924c-1.303,-0.023 -2.608,0 -3.911,0c-1.196,0 -2.63,-0.169 -3.688,0.479c-2.079,1.273 -1.29,5.804 -1.29,7.85c0,1.315 -0.051,2.886 1.133,3.745c1.024,0.744 2.461,0.586 3.662,0.586c0.571,0 3.045,-0.304 3.335,0.096c0.157,0.218 0,1.205 0,1.458l0,2.526c0,1.565 0.005,3.131 0,4.696c-0.002,0.329 0.079,0.893 -0.097,1.162c-0.42,0.639 -1.994,0.262 -2.663,0.262c0.301,-1.328 0.15,-2.831 0.15,-4.189c0,-1.172 0.206,-2.692 -0.415,-3.735c-1.058,-1.777 -5.151,-1.076 -6.906,-1.076c-1.155,0 -2.491,-0.15 -3.595,0.213c-1.442,0.475 -1.559,1.849 -1.591,3.19c-0.042,1.795 -0.701,5.842 1.086,6.92c1.041,0.629 2.558,0.417 3.737,0.417l3.904,0ZM56.284,14.047c0,-1.074 0.213,-1.32 1.27,-1.32c0.804,0 2.294,-0.345 2.57,0.57c0.31,1.031 -0.542,0.75 -1.248,0.75l-2.592,0ZM56.854,18.337c-0.453,0 -0.854,-0.906 -0.57,-1.296c0.114,-0.157 0.51,-0.084 0.761,-0.084c0.568,0 2.591,-0.342 3.017,0c0.109,0.087 0.109,0.742 0.062,0.943c-0.143,0.609 0.137,0.293 -0.413,0.437c-0.839,0.22 -1.98,0 -2.857,0M53.374,29.137c0,0.959 -2.811,0.675 -3.447,0.6c-0.654,-0.077 -0.716,-0.236 -0.783,-0.867c-0.05,-0.47 -0.161,-1.388 0.017,-1.844c0.338,-0.865 2.554,-0.589 3.363,-0.499c1.255,0.139 0.85,1.59 0.85,2.61M42.364,21.667c1.921,0 5.717,0.674 7.249,-0.772c1.006,-0.951 0.881,-2.495 0.881,-3.766c0,-1.405 0.009,-2.809 0,-4.213c-0.009,-1.338 -0.125,-2.828 -1.451,-3.519c-1.064,-0.555 -2.462,-0.39 -3.629,-0.39c-2.237,0 -6.467,-0.795 -7.28,2.018c-0.453,1.566 -0.18,3.588 -0.18,5.191l0,17.057c0,0.452 -0.028,0.915 0.003,1.368c0.126,1.788 2.256,2.961 3.776,1.617c0.699,-0.618 0.631,-1.57 0.631,-2.416c0.001,-1.411 0,-2.822 0,-4.233l0,-7.942ZM42.364,14.047c0,-1.079 0.206,-1.32 1.27,-1.32c0.803,0 2.296,-0.344 2.57,0.57c0.31,1.032 -0.541,0.75 -1.247,0.75l-2.593,0ZM42.364,16.957l2.844,0c0.132,0 0.891,-0.109 0.996,0c0.172,0.178 -0.053,1.147 -0.195,1.275c-0.472,0.424 -2.244,0.105 -2.797,0.105c-1.131,0 -0.848,-0.236 -0.848,-1.38" style="fill:#e00;fill-rule:nonzero;"/><path d="M71.223,10.087c-3.116,0 -2.835,3.128 -2.937,5.483c-0.087,2.022 -0.129,4.05 -0.065,6.074c0.126,3.98 0.458,9.644 3.881,12.326c4.88,3.823 10.236,-2.338 10.886,-6.987c0.213,-1.52 -0.545,-2.69 -2.125,-2.867c-1.71,-0.191 -2.06,0.903 -2.53,2.291c-0.412,1.216 -1.112,3.171 -2.7,3.15c-1.358,-0.018 -1.776,-1.459 -2.059,-2.531c-1.001,-3.794 -0.746,-7.937 -0.444,-11.806c0.144,-1.856 1.018,-5.133 -1.907,-5.133M92.133,32.977c1.842,0 2.477,-1.257 2.519,-2.898c0.061,-2.389 -0.093,-4.822 -0.368,-7.194c-0.47,-4.065 -1.394,-8.608 -5.484,-10.49c-1.276,-0.588 -3.264,-1.185 -4.651,-0.624c-1.416,0.574 -1.867,2.957 -0.7,4.007c1.02,0.918 2.681,0.393 3.774,1.323c1.306,1.109 1.701,3.101 1.947,4.705c0.381,2.485 0.378,5.024 0.383,7.532c0.003,1.941 0.157,3.639 2.58,3.639" style="fill:#e00;fill-rule:nonzero;"/><path d="M116.763,20.947c1.376,0 2.19,-0.733 2.19,-2.13c1.348,0.908 3.667,2.706 5.376,1.76c1.493,-0.825 1.774,-3.297 0.381,-4.31c-1.169,-0.849 -2.694,-1.316 -3.945,-2.059c-1.652,-0.983 -3.166,-2.174 -4.603,-3.447c-1.359,-1.204 -2.596,-2.698 -4.523,-2.824c-1.948,-0.127 -3.091,0.837 -4.446,2.09c-2.68,2.478 -5.49,4.209 -8.704,5.895c-0.862,0.452 -1.479,0.914 -1.571,1.956c-0.082,0.948 0.314,2.015 1.111,2.57c1.695,1.18 4.091,-0.718 5.504,-1.601c0,2.892 4.132,2.1 6.076,2.1l7.154,0ZM106.473,16.807c1.419,-1.068 2.657,-2.269 3.992,-3.419c0.952,-0.821 1.28,-0.289 2.079,0.497c1.091,1.072 2.314,1.997 3.529,2.922l-9.6,0ZM123.033,26.707c0,-3.026 -1.765,-3.981 -4.523,-3.99c-2.207,-0.007 -4.415,0 -6.622,0l-7.223,0c-1.978,0 -4.216,0.028 -4.843,2.326c-0.58,2.131 -0.204,4.789 -0.189,6.973c0.02,2.898 1.285,4.254 4.181,4.291c4.508,0.058 9.021,0 13.53,0c2.083,0 4.724,0.23 5.473,-2.233c0.674,-2.217 0.216,-5.081 0.216,-7.367M118.293,31.177c0,1.191 -1.448,0.93 -2.249,0.93l-4.557,0l-4.55,0c-0.69,0 -2.104,0.242 -2.496,-0.473c-0.45,-0.82 -0.187,-2.846 -0.098,-3.742c0.114,-1.152 0.957,-1.035 1.854,-1.035l9.032,0c0.661,0 2.438,-0.302 2.911,0.343c0.312,0.426 0.153,1.406 0.153,1.884l0,2.093Z" style="fill:#e00;fill-rule:nonzero;"/><path d="M133.983,19.177c-1.297,2.17 -2.9,4.135 -4.608,5.993c-1.055,1.147 -2.604,2.377 -1.619,4.084c2.221,3.849 5.027,-1.275 6.137,-2.997c-0.035,2.499 -0.324,5.169 -0.027,7.653c0.209,1.751 2.249,2.657 3.772,1.663c1.007,-0.657 0.941,-1.956 0.93,-3.018c-0.015,-1.621 -0.056,-3.241 -0.055,-4.862c0.001,-1.362 0.004,-2.725 0.015,-4.087c0.005,-0.635 0.012,-1.27 0.021,-1.905c0.013,-0.853 -0.071,-1.298 0.623,-1.852c1.373,-1.094 2.962,-2.035 4.731,-2.264c3.678,-0.475 5.987,2.007 6.039,5.598c0.059,4.066 -2.663,6.671 -6.588,7.032c-1.011,0.093 -2.425,-0.016 -3.177,0.804c-1.083,1.178 -0.436,3.261 1.028,3.713c1.425,0.441 3.277,0.002 4.67,-0.29c1.751,-0.368 3.463,-1.007 4.913,-2.073c2.832,-2.081 3.802,-5.795 3.914,-9.151c0.122,-3.648 -1.078,-7.336 -4.521,-9.057c-3.741,-1.871 -8.081,-0.992 -11.398,1.326c0.259,-2.331 1.187,-6.991 -2.585,-6.55c-1.862,0.218 -1.971,1.735 -2.048,3.269c-0.028,0.573 0.112,1.19 -0.273,1.432c-0.338,0.212 -1.373,0.066 -1.773,0.086c-0.905,0.044 -2.078,-0.062 -2.929,0.311c-1.38,0.606 -1.7,2.746 -0.555,3.755c1.217,1.072 3.974,0.395 5.393,0.307c-0.01,0.36 -0.02,0.72 -0.03,1.08" style="fill:#e00;fill-rule:nonzero;"/><path d="M166.713,19.807c2.91,-0.084 5.819,-0.176 8.73,-0.24c0,1.456 0.526,4.531 -1.717,4.293c-1.206,-0.127 -2.44,-1.126 -3.65,-0.464c-0.974,0.533 -1.329,1.911 -0.832,2.881c1.291,2.524 7.273,2.694 9.258,1.126c1.396,-1.104 1.559,-3.123 1.666,-4.763c0.035,-0.533 0.053,-1.066 0.069,-1.599c0.009,-0.325 -0.078,-0.877 0.028,-1.18c0.237,-0.684 -0.097,-0.251 0.508,-0.424c0.858,-0.246 1.901,0.073 2.795,-0.1c1.815,-0.351 2.417,-3.287 0.673,-4.164c-0.636,-0.32 -1.446,-0.229 -2.135,-0.224c-0.313,0.002 -1.728,0.185 -1.893,0.028c-0.202,-0.193 -0.044,-1.938 -0.051,-2.278c-0.047,-2.11 -0.227,-4.109 -2.916,-3.792c-2.825,0.332 -1.929,4.266 -1.833,6.19c-2.891,0.059 -5.78,0.149 -8.67,0.24c0.014,-1.611 0.687,-5.08 -1.233,-5.81c-1.604,-0.61 -3.267,0.122 -3.457,1.833c-0.109,0.975 -0.02,1.999 -0.02,2.977c0,0.167 0.122,1.03 0,1.15c-0.281,0.277 -2.007,0.054 -2.435,0.087c-0.706,0.053 -1.354,0.131 -1.82,0.742c-0.901,1.179 -0.459,3.196 1.006,3.628c1.021,0.3 2.21,0.013 3.249,0.013c0,2.834 -0.12,5.693 0.109,8.52c0.194,2.388 0.972,4.474 3.232,5.589c2.146,1.059 4.726,1.126 7.07,1.156c2.591,0.034 5.447,0.118 7.984,-0.485c0.74,-0.176 1.419,-0.475 1.749,-1.21c0.454,-1.009 0.186,-2.537 -0.834,-3.1c-1.04,-0.573 -2.617,-0.128 -3.738,0.018c-1.521,0.199 -3.055,0.292 -4.589,0.309c-1.668,0.019 -4.583,0.305 -5.756,-1.245c-0.898,-1.186 -0.612,-3.084 -0.598,-4.487c0.017,-1.738 0.034,-3.477 0.051,-5.215" style="fill:#e00;fill-rule:nonzero;"/></g></g></g></svg>
