<?xml version="1.0" encoding="UTF-8" standalone="no"?><!DOCTYPE svg PUBLIC "-//W3C//DTD SVG 1.1//EN" "http://www.w3.org/Graphics/SVG/1.1/DTD/svg11.dtd"><svg width="455px" height="299px" version="1.1" xmlns="http://www.w3.org/2000/svg" xmlns:xlink="http://www.w3.org/1999/xlink" xml:space="preserve" style="fill-rule:evenodd;clip-rule:evenodd;stroke-linejoin:round;stroke-miterlimit:1.41421;"><g><g><g><path d="M294.598,171.634c-0.766,-0.333 -1.299,-1.046 -1.402,-1.875c-0.743,-5.989 -3.766,-30.349 -4.657,-37.535c-0.143,-1.154 0.575,-2.24 1.692,-2.561c6.12,-1.757 24.816,-7.123 28.383,-8.147c0.388,-0.111 0.798,-0.121 1.191,-0.029c3.942,0.923 26.213,6.14 32.999,7.73c1.131,0.265 1.901,1.312 1.817,2.471c-0.515,7.104 -2.24,30.908 -2.659,36.688c-0.057,0.794 -0.511,1.505 -1.207,1.893c-4.426,2.464 -20.725,11.539 -24.977,13.907c-0.643,0.358 -1.416,0.395 -2.091,0.102c-4.762,-2.07 -24.005,-10.434 -29.089,-12.644Z" style="fill:#f93;"/><path d="M296.248,171.067c-0.783,-0.325 -1.332,-1.044 -1.438,-1.884c-0.683,-5.374 -3.207,-25.247 -4.271,-33.627c-0.103,-0.81 0.219,-1.615 0.852,-2.13c0.633,-0.515 1.488,-0.667 2.259,-0.401c7.331,2.521 23.759,8.171 28.889,9.935c0.938,0.322 1.574,1.196 1.594,2.187c0.116,5.883 0.513,25.916 0.677,34.183c0.016,0.798 -0.371,1.549 -1.03,1.999c-0.659,0.449 -1.5,0.536 -2.236,0.23c-6.579,-2.728 -20.955,-8.692 -25.296,-10.492Z" style="fill:#ff8000;"/><path d="M323.668,141.576c1.234,0.427 2.582,0.389 3.791,-0.105c4.642,-1.898 16.714,-6.834 22.625,-9.252c0.474,-0.193 0.769,-0.67 0.731,-1.18c-0.037,-0.51 -0.399,-0.938 -0.896,-1.06c-7.823,-1.921 -26.22,-6.438 -29.796,-7.316c-0.399,-0.097 -0.816,-0.09 -1.211,0.023c-3.065,0.874 -17.044,4.858 -23.747,6.769c-0.495,0.141 -0.842,0.588 -0.856,1.103c-0.015,0.516 0.307,0.981 0.795,1.149c7.143,2.468 23.061,7.968 28.564,9.869Z" style="fill:#ffb066;"/></g><g><g><g><path d="M227.27,175.66c-1.876,0.946 -2.192,1.795 -2.192,3.149c0,1.354 0,4.768 0,6.189c0,1.42 0.611,2.007 1.685,2.555c1.074,0.547 25.814,18.03 27.201,18.852c1.386,0.822 1.226,1.024 4.192,-0.552c2.636,-1.4 13.915,-8.437 15.618,-9.804c1.109,-0.89 1.885,-1.838 2.069,-3.12c0.198,-1.38 0.335,-3.062 0.302,-4.53c-0.028,-1.233 -0.599,-2.386 -2.052,-2.974c-1.453,-0.587 -18.427,-7.742 -18.427,-7.742c0,0 -25.199,-3.636 -28.396,-2.023Z" style="fill:#fe7600;"/><path d="M228.027,181.338c1.003,0.866 25.186,14.172 26.347,14.787c1.16,0.614 2.829,0.298 4.533,-0.848c2.291,-1.54 12.193,-6.579 14.353,-7.796c1.129,-0.636 0.273,-1.44 -1.366,-2.259c-1.638,-0.819 -10.51,-5.103 -10.51,-5.103c0,0 -32.52,-4.096 -34.09,-3.618c-1.57,0.478 -1.393,3 0.733,4.837Z" style="fill:#ff9030;"/><path d="M255.8,204.679c0,0 0.339,-4.893 0.339,-5.992c0,-1.098 1.818,-2.049 3.533,-3.196c1.715,-1.147 11.293,-6.503 12.715,-7.161c1.62,-0.75 3.059,-0.924 3.169,0.154c0.17,1.678 0.066,3.523 -0.045,4.427c-0.111,0.905 -0.652,1.669 -1.751,2.584c-1.751,1.457 -13.206,9.06 -16.217,10.414c-0.926,0.416 -1.76,0.32 -1.743,-1.23Z" style="fill:#de6700;"/></g><path d="M229.833,163.174l-0.396,14.302c0,0 16.635,11.709 19.011,12.234c2.375,0.525 14.059,-5.289 15.743,-6.349c1.716,-1.081 1.32,-1.835 1.65,-5.959c0.33,-4.125 -36.008,-24.954 -36.008,-14.228Z" style="fill:#c30f3c;"/><path d="M247.321,186.253c-0.165,2.167 2.019,3.332 4.475,2.331c4.873,-1.985 10.09,-4.23 11.595,-5.239c1.024,-0.687 1.849,-1.095 1.849,-3.645c0,-2.55 -0.594,-6.026 -0.594,-6.026c0,0 -16.709,-12.526 -17.039,-5.701c-0.33,6.825 -0.045,15.103 -0.286,18.28Z" style="fill:#9b0c2f;"/></g><g><g><path d="M203.983,185.898c-1.939,1.1 -2.265,2.087 -2.265,3.661c0,1.575 0,5.544 0,7.195c0,1.651 0.631,2.333 1.741,2.97c1.11,0.637 26.683,20.961 28.116,21.917c1.433,0.956 1.267,1.191 4.333,-0.641c2.725,-1.628 14.384,-9.809 16.144,-11.398c1.146,-1.036 1.914,-1.119 2.104,-2.609c0.204,-1.605 0.512,-5.691 0.478,-7.397c-0.029,-1.434 -0.751,-1.662 -2.253,-2.345c-1.502,-0.683 -19.047,-9.001 -19.047,-9.001c0,0 -26.046,-4.226 -29.351,-2.352Z" style="fill:#fe7600;"/><path d="M204.667,192.083c1.002,0.867 25.759,16.979 26.92,17.594c1.161,0.614 2.319,0.745 4.024,-0.401c2.29,-1.54 14.998,-8.174 17.159,-9.391c1.129,-0.636 0.91,-1.248 -0.728,-2.068c-1.639,-0.819 -14.019,-6.952 -14.019,-6.952c0,0 -32.519,-4.097 -34.089,-3.619c-1.57,0.478 -1.394,3.001 0.733,4.837Z" style="fill:#ff9030;"/><path d="M232.439,219.962c0,0 0.366,-5.765 0.366,-7.062c0,-1.297 1.962,-2.359 3.812,-3.655c1.851,-1.296 13.793,-7.958 15.327,-8.687c1.748,-0.83 2.363,-0.227 2.246,1.042c-0.159,1.738 -0.361,4.069 -0.481,5.132c-0.12,1.064 -0.559,1.459 -1.745,2.502c-1.89,1.661 -14.394,10.741 -17.644,12.238c-0.998,0.46 -1.899,0.318 -1.881,-1.51Z" style="fill:#de6700;"/></g><path d="M203.274,173.919l-0.45,14.303c0,0 18.908,11.709 21.608,12.234c2.7,0.525 15.981,-5.289 17.895,-6.35c1.951,-1.081 1.5,-1.834 1.875,-5.959c0.375,-4.125 -40.928,-24.953 -40.928,-14.228Z" style="fill:#c30f3c;"/><path d="M223.151,196.998c-0.187,2.167 2.295,3.333 5.087,2.332c5.539,-1.985 11.469,-4.23 13.179,-5.24c1.165,-0.687 2.103,-1.094 2.103,-3.644c0,-2.55 -0.675,-6.027 -0.675,-6.027c0,0 -18.993,-12.525 -19.368,-5.7c-0.375,6.825 -0.052,15.103 -0.326,18.279Z" style="fill:#9b0c2f;"/></g><g><path d="M246.723,116.037c0.567,-6.431 14.384,-8.002 14.963,1.085c0.579,9.087 2.348,14.911 5.467,17.372c3.119,2.461 12.581,1.454 17.027,0.895c4.445,-0.558 9.2,10.755 2.682,12.051c-6.519,1.295 -17.746,2.68 -24.407,1.999c-3.25,-0.332 -8.755,-3.179 -11.481,-8.782c-2.726,-5.604 -5.232,-13.501 -4.251,-24.62Z" style="fill:#c6ff40;"/><path d="M248.186,117.352c0.555,-2.746 4.408,-4.753 4.852,-0.157c0.445,4.597 2.275,13.492 5.576,19.593c1.674,3.094 -4.704,8.237 -7.174,2.013c-2.471,-6.224 -4.43,-15.631 -3.254,-21.449Z" style="fill:#d8ff7d;"/><path d="M282.12,147.829c-0.381,-0.029 -10.855,1.092 -14.807,0.767c-3.953,-0.324 -3.675,-2.208 0.324,-2.735c5.299,-0.699 13.684,-1.757 13.684,-1.757c0,0 1.18,3.753 0.799,3.725Z" style="fill:#b1c30f;"/><path d="M278.415,146.025c-5.665,-8.279 -4.323,-16.898 0.389,-22.775c6.068,-7.568 18.527,-9.132 26.627,-4.242c-0.119,1.437 -2.107,6.932 -2.107,6.932c0,0 -3.764,2.217 -6.276,3.581c-2.858,-1.792 -6.785,-2.846 -9.064,-1.157c-1.142,0.847 -2.502,4.856 2.091,11.41c4.299,6.136 10.789,6.778 11.559,5.637c0.77,-1.141 0.335,-4.602 -1.384,-7.471c1.165,-2.474 5.804,-6.301 5.804,-6.301c0,0 5.459,0.728 7.67,1.603c0.601,1.782 0.265,14.486 -8.856,19.399c-10.374,5.589 -21.774,0.22 -26.453,-6.616Z" style="fill:#004fd7;"/><path d="M275.984,130.849c0.591,-4.79 4.437,-9.505 10.17,-12.233c5.733,-2.727 12.441,-2.096 18.291,0.559c-1.413,0.898 -7.146,3.993 -7.66,4.218c-8.525,-7.176 -20.074,1.562 -20.801,7.456Z" style="fill:#5e99ff;"/><path d="M287.347,145.913c-4.155,-3.313 0.067,-6.461 3.759,-3.494c3.693,2.968 7.833,5.349 9.926,3.867c-2.578,2.296 -8.007,4.153 -13.685,-0.373Z" style="fill:#3680ff;"/><path d="M301.158,137.595c2.005,0.556 6.755,0.939 6.755,0.939l5.141,-4.853l-6.809,-1.448c0,0 -4.069,2.77 -5.087,5.362Z" style="fill:#8fb8ff;"/></g><path d="M198.921,168.793c0,0 2.961,-53.438 2.961,-59.363c0,-5.925 3.323,-9.132 10.534,-11.964c18.433,-7.241 27.548,-5.266 39.727,2.304c12.18,7.571 12.179,9.33 12.838,15.585c0.66,6.255 4.065,39.499 5.382,49.374c1.317,9.875 0.873,11.52 -14.598,19.42c-15.47,7.9 -22.169,8.887 -41.259,-0.328c-11.288,-5.449 -16.358,-8.643 -15.585,-15.028Z" style="fill:#65d1ff;"/><path d="M234.808,183.642c-0.038,-8.729 -0.881,-53.978 -6.569,-63.836c-3.31,-5.736 -8.958,-8.474 -13.13,-13.025c-4.171,-4.55 33.559,-6.134 40.573,-2.721c7.015,3.413 7.272,6.646 7.65,12.144c0.379,5.498 3.223,44.374 3.792,51.01c0.569,6.636 0.502,9.481 -10.494,14.599c-10.996,5.118 -21.774,12.76 -21.822,1.829Z" style="fill:#23bdff;"/><circle cx="236.695" cy="68.844" r="40.194" style="fill:#66d1ff;"/><circle cx="234.609" cy="64.483" r="34.127" style="fill:#99e0ff;"/><circle cx="218.259" cy="46.368" r="6.116" style="fill:#fff;"/><circle cx="238.449" cy="78.939" r="12.561" style="fill:#ff7811;"/><ellipse cx="267.667" cy="69.815" rx="8.095" ry="10.328" style="fill:#ff7811;"/><circle cx="239.694" cy="78.713" r="10.665" style="fill:#ffb53e;"/><path d="M241.055,69.305c4.461,1.371 6.897,6.345 5.436,11.101c-1.461,4.756 -6.27,7.505 -10.731,6.135c-4.461,-1.371 -6.897,-6.345 -5.436,-11.102c1.461,-4.756 6.27,-7.505 10.731,-6.134Z" style="fill:#ffc363;"/><ellipse cx="268.469" cy="69.629" rx="6.873" ry="8.769" style="fill:#ffaf2f;"/><path d="M269.567,61.248c3.011,0.742 4.625,4.714 3.602,8.866c-1.023,4.151 -4.298,6.92 -7.309,6.178c-3.011,-0.742 -4.625,-4.715 -3.602,-8.866c1.023,-4.152 4.298,-6.92 7.309,-6.178Z" style="fill:#ffc363;"/><path d="M228.689,32.508c-0.335,2.199 6.212,2.842 6.464,0.315c0.252,-2.526 0.204,-7.381 -4.407,-10.412c-4.611,-3.032 -6.36,0.566 -4.086,2.713c2.274,2.148 2.471,4.482 2.029,7.384Z" style="fill:#ff7811;"/><path d="M230.394,32.436c-0.3,1.099 2.904,1.298 3.125,0.139c0.489,-2.565 0.113,-5.193 -1.672,-6.363c-1.214,-0.795 -2.358,0.602 -1.99,1.341c0.657,1.318 1.309,2.052 0.537,4.883Z" style="fill:#ff9340;"/><circle cx="221.997" cy="17.216" r="10.216" style="fill:#ffa30e;"/><circle cx="220.347" cy="14.692" r="6.188" style="fill:#ffc260;"/><g><path d="M201.899,116.696c3.653,-5.324 16.46,0.094 12.502,8.294c-3.959,8.199 -5.278,14.141 -3.77,17.817c1.508,3.676 10.245,7.446 14.392,9.142c4.147,1.697 2.733,13.887 -3.582,11.814c-6.314,-2.073 -16.774,-6.381 -22.242,-10.245c-2.668,-1.886 -6.065,-7.068 -5.688,-13.289c0.377,-6.22 2.073,-14.33 8.388,-23.533Z" style="fill:#c6ff40;"/><path d="M202.528,118.559c1.832,-2.119 6.174,-1.975 4.304,2.247c-1.87,4.223 -4.645,12.87 -4.766,19.806c-0.061,3.516 -8.143,4.864 -7.238,-1.771c0.905,-6.634 3.818,-15.791 7.7,-20.282Z" style="fill:#d8ff7d;"/><path d="M217.12,161.773c-0.318,-0.212 -9.992,-4.379 -13.276,-6.603c-3.283,-2.224 -2.115,-3.729 1.626,-2.224c4.959,1.994 12.783,5.19 12.783,5.19c0,0 -0.815,3.849 -1.133,3.637Z" style="fill:#b1c30f;"/><path d="M214.779,158.382c0.279,-10.028 2.86,-16.717 11.524,-19.648c10.451,-3.535 20.527,0.322 25.278,9.382c-0.81,1.193 -5.24,5.003 -5.24,5.003c0,0 -4.368,0.083 -7.226,0.038c-1.609,-2.965 -4.513,-5.811 -7.328,-5.459c-1.41,0.176 -4.564,3.001 -3.782,10.966c0.731,7.456 6.069,11.203 7.301,10.587c1.231,-0.616 2.551,-3.845 2.463,-7.187c2.23,-1.584 8.151,-2.64 8.151,-2.64c0,0 4.398,3.317 5.893,5.164c-0.351,1.848 -4.221,12.11 -17.241,12.549c-13.019,0.44 -20.083,-8.342 -19.793,-18.755Z" style="fill:#004fd7;"/><path d="M220.114,143.968c2.867,-3.881 8.533,-6.1 14.867,-5.66c6.333,0.44 12.315,3.488 15.658,9.47c-1.672,0.088 -8.186,-0.031 -8.744,-0.088c-3.902,-10.438 -18.253,-8.498 -21.781,-3.722Z" style="fill:#5e99ff;"/><path d="M222.614,162.671c-1.993,-4.926 3.231,-5.595 4.99,-1.196c1.76,4.398 4.197,8.506 6.748,8.242c-3.374,0.734 -9.015,-0.314 -11.738,-7.046Z" style="fill:#3680ff;"/><path d="M238.729,162.209c1.474,1.469 5.424,4.135 5.424,4.135l6.861,-1.703l-5.22,-4.605c0,0 -4.905,0.414 -7.065,2.173Z" style="fill:#8fb8ff;"/></g><ellipse cx="218.745" cy="12.373" rx="1.882" ry="1.808" style="fill:#fff;"/><ellipse cx="265.061" cy="66.659" rx="1.245" ry="1.197" style="fill:#fff;"/><circle cx="235.337" cy="75.159" r="2.69" style="fill:#fff;"/></g><g><path d="M66.557,217.679c-0.766,-0.333 -1.3,-1.046 -1.402,-1.875c-1.302,-10.493 -9.862,-79.483 -11.437,-92.174c-0.143,-1.154 0.575,-2.24 1.693,-2.561c10.831,-3.109 63.531,-18.236 69.708,-20.009c0.388,-0.111 0.797,-0.122 1.19,-0.03c6.76,1.584 68.664,16.086 80.534,18.867c1.131,0.265 1.901,1.312 1.817,2.47c-0.91,12.557 -5.798,79.994 -6.532,90.117c-0.057,0.795 -0.511,1.506 -1.207,1.894c-7.771,4.326 -53.764,29.935 -61.218,34.084c-0.643,0.358 -1.416,0.396 -2.09,0.103c-8.292,-3.604 -62.18,-27.028 -71.056,-30.886Z" style="fill:#ff8fc1;"/><path d="M70.373,216.371c-0.783,-0.325 -1.331,-1.044 -1.438,-1.885c-1.245,-9.8 -8.856,-69.72 -10.85,-85.426c-0.103,-0.81 0.219,-1.615 0.852,-2.13c0.633,-0.515 1.487,-0.667 2.259,-0.402c14.026,4.824 64.82,22.293 74.389,25.584c0.938,0.322 1.574,1.196 1.594,2.187c0.214,10.798 1.416,71.406 1.723,86.912c0.016,0.798 -0.372,1.549 -1.03,1.999c-0.659,0.449 -1.5,0.536 -2.237,0.23c-12.628,-5.238 -57.171,-23.713 -65.262,-27.069Z" style="fill:#ff64ac;"/><path d="M138.697,149.046c1.235,0.426 2.582,0.389 3.791,-0.105c8.304,-3.396 41.981,-17.167 56.508,-23.107c0.947,-0.387 1.537,-1.34 1.461,-2.36c-0.075,-1.02 -0.799,-1.876 -1.792,-2.12c-18.194,-4.467 -65.706,-16.132 -71.626,-17.586c-0.398,-0.097 -0.816,-0.09 -1.211,0.023c-5.133,1.463 -41.727,11.895 -57.507,16.393c-0.991,0.283 -1.685,1.176 -1.713,2.207c-0.029,1.031 0.615,1.961 1.589,2.298c17.275,5.968 60.842,21.02 70.5,24.357Z" style="fill:#ffabd1;"/></g><g><path d="M312.422,211.092c-0.767,-0.333 -1.3,-1.046 -1.403,-1.875c-0.825,-6.652 -4.486,-36.156 -5.478,-44.151c-0.143,-1.154 0.575,-2.241 1.693,-2.562c6.813,-1.955 29.436,-8.449 33.387,-9.583c0.388,-0.112 0.798,-0.122 1.191,-0.03c4.357,1.021 31.221,7.314 38.755,9.079c1.131,0.265 1.901,1.313 1.817,2.471c-0.573,7.907 -2.662,36.739 -3.128,43.158c-0.057,0.794 -0.511,1.506 -1.207,1.893c-4.918,2.739 -24.642,13.721 -29.366,16.35c-0.643,0.358 -1.416,0.396 -2.091,0.103c-5.281,-2.296 -28.529,-12.401 -34.17,-14.853Z" style="fill:#ffd500;"/><path d="M314.334,210.435c-0.783,-0.325 -1.332,-1.044 -1.438,-1.884c-0.766,-6.026 -3.867,-30.444 -5.068,-39.9c-0.103,-0.809 0.219,-1.615 0.852,-2.13c0.634,-0.515 1.488,-0.667 2.259,-0.401c8.313,2.859 28.616,9.841 34.399,11.83c0.938,0.323 1.574,1.196 1.594,2.187c0.131,6.606 0.619,31.238 0.804,40.569c0.016,0.797 -0.372,1.549 -1.03,1.998c-0.659,0.449 -1.5,0.536 -2.237,0.231c-7.466,-3.097 -25.242,-10.47 -30.135,-12.5Z" style="fill:#e6bf00;"/><path d="M346.707,176.363c1.234,0.426 2.582,0.389 3.791,-0.106c5.288,-2.162 20.366,-8.327 27.135,-11.095c0.474,-0.194 0.769,-0.67 0.731,-1.181c-0.037,-0.51 -0.399,-0.938 -0.896,-1.06c-8.799,-2.16 -31.302,-7.685 -35.289,-8.664c-0.398,-0.098 -0.816,-0.09 -1.21,0.023c-3.437,0.979 -20.674,5.893 -28.272,8.059c-0.496,0.141 -0.842,0.588 -0.857,1.103c-0.014,0.516 0.308,0.981 0.795,1.149c8.12,2.805 27.846,9.621 34.072,11.772Z" style="fill:#ffe666;"/></g></g><path d="M6.384,293.844l0,-7.691c0,-0.156 -0.056,-0.29 -0.169,-0.403c-0.112,-0.112 -0.246,-0.168 -0.403,-0.168l-0.585,0c-0.606,-0.039 -1.099,0.112 -1.48,0.454c-0.381,0.352 -0.586,0.943 -0.615,1.773l0,5.888l0.014,0.205c0.186,1.065 0.777,1.587 1.773,1.568c0.977,-0.01 1.465,-0.552 1.465,-1.626ZM15.686,288.966l0,6.914c0,0.283 -0.098,0.522 -0.293,0.718c-0.196,0.195 -0.43,0.293 -0.704,0.293c-0.283,0 -0.522,-0.098 -0.717,-0.293c-0.196,-0.196 -0.293,-0.435 -0.293,-0.718l0,-7.266c-0.01,-1.133 -0.259,-1.914 -0.747,-2.343c-0.489,-0.43 -1.138,-0.66 -1.949,-0.689l-1.303,0c-0.362,0 -0.669,0.127 -0.923,0.381c-0.254,0.254 -0.381,0.561 -0.381,0.923l0,7.339c-0.029,0.898 -0.298,1.616 -0.806,2.153c-0.517,0.547 -1.362,0.81 -2.534,0.791c-1.387,0 -2.397,-0.234 -3.032,-0.703c-0.635,-0.459 -0.952,-1.367 -0.952,-2.725l0,-5.346c-0.01,-1.475 0.273,-2.627 0.849,-3.457c0.557,-0.801 1.421,-1.26 2.593,-1.377c0,0 0.025,-0.003 0.073,-0.008c0.049,-0.005 0.074,-0.007 0.074,-0.007l0.82,0c0.234,0 0.437,-0.086 0.608,-0.256c0.171,-0.171 0.256,-0.379 0.256,-0.623l0,-2.666c0,-0.205 -0.039,-0.398 -0.117,-0.579c-0.078,-0.18 -0.186,-0.339 -0.322,-0.476c-0.137,-0.136 -0.296,-0.244 -0.476,-0.322c-0.181,-0.078 -0.374,-0.117 -0.579,-0.117l-2.842,0c-0.283,0 -0.525,-0.1 -0.725,-0.3c-0.2,-0.201 -0.3,-0.442 -0.3,-0.726c0,-0.273 0.1,-0.51 0.3,-0.71c0.2,-0.2 0.442,-0.3 0.725,-0.3l2.842,0c0.205,0 0.398,-0.039 0.579,-0.117c0.18,-0.079 0.339,-0.186 0.476,-0.323c0.136,-0.136 0.244,-0.295 0.322,-0.476c0.078,-0.18 0.117,-0.373 0.117,-0.578l0,-1.231c0,-0.283 0.098,-0.522 0.293,-0.718c0.195,-0.195 0.435,-0.293 0.718,-0.293c0.283,0 0.522,0.098 0.718,0.293c0.195,0.196 0.293,0.435 0.293,0.718l0,1.231c0,0.205 0.039,0.398 0.117,0.578c0.078,0.181 0.185,0.34 0.322,0.476c0.137,0.137 0.296,0.244 0.476,0.323c0.181,0.078 0.374,0.117 0.579,0.117l2.651,0c0.274,0 0.51,0.1 0.711,0.3c0.2,0.2 0.3,0.437 0.3,0.71c0,0.284 -0.1,0.525 -0.3,0.726c-0.201,0.2 -0.437,0.3 -0.711,0.3l-2.651,0c-0.205,0 -0.398,0.039 -0.579,0.117c-0.18,0.078 -0.339,0.186 -0.476,0.322c-0.137,0.137 -0.244,0.296 -0.322,0.476c-0.078,0.181 -0.117,0.374 -0.117,0.579l0,2.27c0,0.352 0.124,0.652 0.373,0.901c0.249,0.249 0.55,0.374 0.901,0.374l1.275,0c1.757,0.127 2.993,0.649 3.706,1.567c0.771,1.016 1.132,2.3 1.084,3.853ZM17.854,275.196l0,4.82c0,0.283 -0.098,0.522 -0.293,0.717c-0.196,0.196 -0.435,0.293 -0.718,0.293c-0.283,0 -0.523,-0.097 -0.718,-0.293c-0.195,-0.195 -0.293,-0.434 -0.293,-0.717l0,-4.82c0,-0.283 0.098,-0.522 0.293,-0.717c0.195,-0.196 0.435,-0.293 0.718,-0.293c0.283,0 0.522,0.097 0.718,0.293c0.195,0.195 0.293,0.434 0.293,0.717Z" style="fill:#f08;fill-rule:nonzero;"/><path d="M44.162,290.68c1.387,2.177 3.198,3.857 5.435,5.039c0.273,0.136 0.432,0.351 0.476,0.644c0.044,0.293 -0.022,0.567 -0.198,0.821c-0.205,0.293 -0.481,0.473 -0.828,0.542c-0.346,0.068 -0.671,0.004 -0.974,-0.191c-1.777,-1.123 -3.315,-2.549 -4.614,-4.277c-0.107,-0.147 -0.242,-0.235 -0.403,-0.264c-0.161,-0.029 -0.317,-0.019 -0.469,0.029c-0.151,0.049 -0.283,0.137 -0.395,0.264c-0.112,0.127 -0.169,0.278 -0.169,0.454l0,4.204c0,0.293 -0.102,0.542 -0.307,0.747c-0.205,0.205 -0.454,0.308 -0.747,0.308c-0.293,0 -0.542,-0.103 -0.747,-0.308c-0.205,-0.205 -0.308,-0.454 -0.308,-0.747l0,-4.292c0,-0.175 -0.059,-0.327 -0.176,-0.454c-0.117,-0.127 -0.254,-0.217 -0.41,-0.271c-0.156,-0.053 -0.32,-0.066 -0.491,-0.036c-0.17,0.029 -0.31,0.117 -0.417,0.263c-1.426,1.875 -3.179,3.384 -5.259,4.527c-0.303,0.166 -0.608,0.202 -0.915,0.11c-0.308,-0.093 -0.564,-0.276 -0.769,-0.55c-0.176,-0.234 -0.225,-0.495 -0.147,-0.784c0.078,-0.288 0.249,-0.5 0.513,-0.637c2.431,-1.181 4.36,-2.881 5.786,-5.097c0.176,-0.274 0.271,-0.533 0.286,-0.777c0.014,-0.244 -0.037,-0.459 -0.154,-0.644c-0.117,-0.186 -0.293,-0.335 -0.528,-0.447c-0.234,-0.112 -0.507,-0.168 -0.82,-0.168l-2.417,0c-0.244,0 -0.452,-0.086 -0.622,-0.257c-0.171,-0.171 -0.257,-0.378 -0.257,-0.622c0,-0.245 0.086,-0.452 0.257,-0.623c0.17,-0.171 0.378,-0.256 0.622,-0.256l4.424,0c0.205,0 0.398,-0.039 0.579,-0.117c0.18,-0.079 0.339,-0.186 0.476,-0.323c0.136,-0.136 0.244,-0.295 0.322,-0.476c0.078,-0.181 0.117,-0.373 0.117,-0.578l0,-0.85c0,-0.293 0.103,-0.542 0.308,-0.747c0.205,-0.205 0.454,-0.308 0.747,-0.308c0.293,0 0.542,0.103 0.747,0.308c0.205,0.205 0.307,0.454 0.307,0.747l0,0.85c0,0.205 0.039,0.397 0.118,0.578c0.078,0.181 0.185,0.34 0.322,0.476c0.137,0.137 0.295,0.244 0.476,0.323c0.181,0.078 0.373,0.117 0.579,0.117l5.244,0c0.244,0 0.451,0.085 0.622,0.256c0.171,0.171 0.257,0.378 0.257,0.623c0,0.244 -0.086,0.451 -0.257,0.622c-0.171,0.171 -0.378,0.257 -0.622,0.257l-3.325,0c-0.323,0 -0.601,0.053 -0.835,0.161c-0.235,0.107 -0.413,0.251 -0.535,0.432c-0.122,0.18 -0.178,0.39 -0.169,0.63c0.01,0.239 0.098,0.495 0.264,0.769ZM35.344,276.354l0,1.201c0,0.293 -0.103,0.542 -0.308,0.747c-0.205,0.205 -0.454,0.307 -0.747,0.307c-0.293,0 -0.542,-0.102 -0.747,-0.307c-0.205,-0.205 -0.308,-0.454 -0.308,-0.747l0,-2.959c0,-0.205 0.039,-0.398 0.118,-0.579c0.078,-0.181 0.185,-0.339 0.322,-0.476c0.137,-0.137 0.295,-0.244 0.476,-0.322c0.181,-0.078 0.373,-0.117 0.579,-0.117l13.417,0c0.206,0 0.398,0.039 0.579,0.117c0.181,0.078 0.339,0.185 0.476,0.322c0.137,0.137 0.244,0.295 0.322,0.476c0.079,0.181 0.118,0.374 0.118,0.579l0,2.959c0,0.293 -0.103,0.542 -0.308,0.747c-0.205,0.205 -0.454,0.307 -0.747,0.307c-0.293,0 -0.542,-0.102 -0.747,-0.307c-0.205,-0.205 -0.308,-0.454 -0.308,-0.747l0,-1.201c0,-0.206 -0.039,-0.398 -0.117,-0.579c-0.078,-0.181 -0.185,-0.339 -0.322,-0.476c-0.137,-0.137 -0.296,-0.244 -0.476,-0.322c-0.181,-0.079 -0.374,-0.118 -0.579,-0.118l-9.199,0c-0.205,0 -0.398,0.039 -0.579,0.118c-0.18,0.078 -0.339,0.185 -0.476,0.322c-0.137,0.137 -0.244,0.295 -0.322,0.476c-0.078,0.181 -0.117,0.373 -0.117,0.579ZM33.586,282.916c2.275,-1.133 3.73,-2.969 4.365,-5.508c0.069,-0.263 0.23,-0.483 0.484,-0.659c0.253,-0.176 0.512,-0.239 0.776,-0.19c0.312,0.048 0.552,0.168 0.718,0.358c0.166,0.191 0.215,0.437 0.146,0.74c-0.81,3.311 -2.495,5.694 -5.054,7.149c-0.283,0.166 -0.581,0.212 -0.893,0.139c-0.313,-0.073 -0.581,-0.237 -0.806,-0.491l-0.088,-0.102c-0.097,-0.108 -0.158,-0.232 -0.183,-0.374c-0.024,-0.142 -0.019,-0.278 0.015,-0.41c0.034,-0.132 0.095,-0.256 0.183,-0.374c0.088,-0.117 0.2,-0.21 0.337,-0.278ZM44.484,277.555l0,4.453c0,0.469 0.196,0.703 0.586,0.703l0.938,0c0.547,0 0.957,-0.215 1.23,-0.645c0.205,-0.322 0.357,-0.678 0.454,-1.069c0.02,-0.098 0.079,-0.178 0.176,-0.242c0.098,-0.063 0.2,-0.085 0.308,-0.066l0.893,0.206c0.254,0.048 0.442,0.156 0.564,0.322c0.122,0.166 0.149,0.376 0.081,0.63c-0.195,0.732 -0.513,1.333 -0.952,1.801c-0.586,0.625 -1.465,0.938 -2.637,0.938l-1.172,0c-1.719,0 -2.578,-0.859 -2.578,-2.578l0,-4.453c0,-0.293 0.103,-0.542 0.308,-0.747c0.205,-0.205 0.454,-0.308 0.747,-0.308c0.293,0 0.542,0.103 0.747,0.308c0.205,0.205 0.307,0.454 0.307,0.747ZM28.43,272.281c0.293,0 0.542,0.103 0.747,0.308c0.205,0.205 0.307,0.454 0.307,0.747l0,3.31c0,0.206 0.039,0.398 0.118,0.579c0.078,0.181 0.185,0.339 0.322,0.476c0.137,0.137 0.295,0.244 0.476,0.322c0.181,0.079 0.373,0.118 0.579,0.118l0.732,0c0.264,0 0.486,0.09 0.666,0.271c0.181,0.18 0.271,0.402 0.271,0.666c0,0.264 -0.09,0.486 -0.271,0.667c-0.18,0.18 -0.402,0.271 -0.666,0.271l-0.732,0c-0.206,0 -0.398,0.039 -0.579,0.117c-0.181,0.078 -0.339,0.185 -0.476,0.322c-0.137,0.137 -0.244,0.295 -0.322,0.476c-0.079,0.181 -0.118,0.374 -0.118,0.579l0,4.043c0,0.215 0.078,0.376 0.235,0.483c0.156,0.108 0.337,0.122 0.542,0.044c0.527,-0.205 1.054,-0.425 1.582,-0.659c0.205,-0.088 0.39,-0.078 0.556,0.029c0.166,0.108 0.249,0.274 0.249,0.498l0,0.352c0,0.224 -0.08,0.464 -0.241,0.718c-0.161,0.253 -0.34,0.424 -0.535,0.512c-0.527,0.244 -1.055,0.479 -1.582,0.703c-0.098,0.039 -0.195,0.103 -0.293,0.191c-0.098,0.088 -0.185,0.188 -0.264,0.3c-0.078,0.112 -0.139,0.23 -0.183,0.352c-0.044,0.122 -0.066,0.237 -0.066,0.344l0,7.002c0,1.719 -0.742,2.578 -2.226,2.578l-0.879,0c-0.244,0 -0.469,-0.085 -0.674,-0.256c-0.205,-0.171 -0.327,-0.374 -0.366,-0.608l-0.044,-0.205c-0.039,-0.215 0.007,-0.403 0.139,-0.564c0.132,-0.161 0.31,-0.242 0.535,-0.242l0.82,0c0.391,0 0.586,-0.234 0.586,-0.703l0,-6.358c0,-0.195 -0.071,-0.341 -0.212,-0.439c-0.142,-0.098 -0.301,-0.117 -0.476,-0.059c-0.469,0.157 -0.938,0.303 -1.407,0.44c-0.205,0.058 -0.393,0.039 -0.564,-0.059c-0.171,-0.097 -0.285,-0.249 -0.344,-0.454l-0.176,-0.688c-0.058,-0.225 -0.027,-0.435 0.096,-0.63c0.122,-0.196 0.295,-0.318 0.52,-0.366c0.566,-0.137 1.132,-0.284 1.699,-0.44c0.244,-0.068 0.449,-0.217 0.615,-0.447c0.166,-0.229 0.249,-0.471 0.249,-0.725l0,-4.687c0,-0.205 -0.039,-0.398 -0.117,-0.579c-0.078,-0.181 -0.186,-0.339 -0.322,-0.476c-0.137,-0.137 -0.296,-0.244 -0.477,-0.322c-0.18,-0.078 -0.373,-0.117 -0.578,-0.117l-0.615,0c-0.264,0 -0.486,-0.091 -0.667,-0.271c-0.181,-0.181 -0.271,-0.403 -0.271,-0.667c0,-0.264 0.09,-0.486 0.271,-0.666c0.181,-0.181 0.403,-0.271 0.667,-0.271l0.615,0c0.205,0 0.398,-0.039 0.578,-0.118c0.181,-0.078 0.34,-0.185 0.477,-0.322c0.136,-0.137 0.244,-0.295 0.322,-0.476c0.078,-0.181 0.117,-0.373 0.117,-0.579l0,-3.31c0,-0.293 0.103,-0.542 0.308,-0.747c0.205,-0.205 0.454,-0.308 0.747,-0.308Z" style="fill:#f08;fill-rule:nonzero;"/><path d="M69.782,296.202c-0.166,0.264 -0.393,0.43 -0.681,0.498c-0.288,0.069 -0.559,0.029 -0.813,-0.117l-3.94,-2.329c-1.27,-0.85 -1.934,-2.217 -1.993,-4.102l-0.014,-9.419c0,-0.761 -0.166,-1.318 -0.498,-1.67c-0.342,-0.341 -0.84,-0.527 -1.494,-0.556l-0.777,0c-0.215,0 -0.398,-0.076 -0.549,-0.227c-0.151,-0.152 -0.227,-0.335 -0.227,-0.55l0,-0.263c0,-0.274 0.1,-0.51 0.3,-0.711c0.2,-0.2 0.442,-0.3 0.725,-0.3l0.938,0l0.249,0.015c2.187,0.254 3.32,1.469 3.398,3.647l0,9.038c-0.117,1.533 0.269,2.647 1.157,3.34c0.01,0.01 0.035,0.029 0.074,0.059c0.039,0.029 0.063,0.044 0.073,0.044l3.706,2.153c0.254,0.146 0.417,0.361 0.491,0.644c0.073,0.284 0.031,0.552 -0.125,0.806Z" style="fill:#f08;fill-rule:nonzero;"/><path d="M96.501,281.261l0,14.619c0,0.283 -0.1,0.525 -0.3,0.725c-0.201,0.2 -0.437,0.3 -0.711,0.3c-0.283,0 -0.525,-0.1 -0.725,-0.3c-0.2,-0.2 -0.3,-0.442 -0.3,-0.725l0,-14.678c0,-0.83 -0.23,-1.494 -0.689,-1.992c-0.459,-0.488 -1.079,-0.732 -1.86,-0.732l-4.087,0c-0.82,0.019 -1.484,0.249 -1.992,0.688c-0.518,0.449 -0.772,1.138 -0.762,2.065l0,12.364c0.01,0.566 0.166,0.991 0.469,1.274c0.283,0.274 0.698,0.391 1.245,0.352l0.176,0c0.488,0.009 0.84,-0.122 1.055,-0.396c0.214,-0.273 0.332,-0.664 0.351,-1.172l0,-10.796c0,-0.283 0.1,-0.524 0.3,-0.725c0.201,-0.2 0.447,-0.3 0.74,-0.3c0.283,0 0.525,0.1 0.725,0.3c0.2,0.201 0.301,0.442 0.301,0.725l0,11.119c0,0.927 -0.284,1.709 -0.85,2.343c-0.576,0.635 -1.528,0.923 -2.857,0.865c-1.386,0.009 -2.343,-0.288 -2.871,-0.894c-0.537,-0.605 -0.805,-1.387 -0.805,-2.344l0.029,-12.715c0,-1.435 0.43,-2.607 1.289,-3.515c0.859,-0.899 2.002,-1.309 3.428,-1.231l4.204,0c1.631,0.118 2.788,0.655 3.472,1.612c0.683,0.966 1.025,2.021 1.025,3.164Z" style="fill:#f08;fill-rule:nonzero;"/><path d="M119.089,277.716c0,0.459 0.151,0.84 0.454,1.142c0.293,0.303 0.669,0.455 1.128,0.455c0.498,0 0.869,-0.157 1.113,-0.469c0.283,-0.313 0.425,-0.689 0.425,-1.128c0,-0.44 -0.151,-0.82 -0.454,-1.143c-0.303,-0.312 -0.674,-0.469 -1.113,-0.469c-0.44,0 -0.806,0.157 -1.099,0.469c-0.303,0.323 -0.454,0.703 -0.454,1.143ZM123.469,277.745c0,0.752 -0.269,1.397 -0.806,1.934c-0.537,0.537 -1.182,0.805 -1.934,0.805c-0.751,0 -1.406,-0.268 -1.962,-0.805c-0.528,-0.508 -0.791,-1.153 -0.791,-1.934c0,-0.781 0.263,-1.44 0.791,-1.977c0.517,-0.538 1.171,-0.806 1.962,-0.806c0.762,0 1.412,0.273 1.949,0.82c0.527,0.547 0.791,1.201 0.791,1.963ZM121.755,288.131l0,5.683c0,0.293 -0.1,0.54 -0.3,0.74c-0.201,0.2 -0.447,0.3 -0.74,0.3c-0.293,0 -0.54,-0.1 -0.74,-0.3c-0.2,-0.2 -0.3,-0.447 -0.3,-0.74l0,-5.053c0.068,-1.582 -0.23,-2.72 -0.894,-3.413l-4.511,-5.391c-0.743,-0.937 -1.626,-1.421 -2.652,-1.45l-2.49,0c-0.283,0 -0.525,-0.1 -0.725,-0.3c-0.2,-0.201 -0.3,-0.442 -0.3,-0.726c0,-0.283 0.1,-0.524 0.3,-0.725c0.2,-0.2 0.442,-0.3 0.725,-0.3l2.505,0c1.445,-0.039 2.578,0.425 3.398,1.392l5.2,6.108c0.586,0.645 0.997,1.284 1.231,1.919c0.225,0.645 0.322,1.396 0.293,2.256Z" style="fill:#f08;fill-rule:nonzero;"/><path d="M147.58,286.754l-15.366,0c-0.283,0 -0.525,-0.1 -0.725,-0.3c-0.2,-0.201 -0.301,-0.442 -0.301,-0.725c0,-0.274 0.101,-0.511 0.301,-0.711c0.2,-0.2 0.442,-0.3 0.725,-0.3l15.366,0c0.274,0 0.51,0.1 0.711,0.3c0.2,0.2 0.3,0.437 0.3,0.711c0,0.283 -0.1,0.524 -0.3,0.725c-0.201,0.2 -0.437,0.3 -0.711,0.3Z" style="fill:#f08;fill-rule:nonzero;"/><path d="M172.497,275.035l0,5.244c0,0.205 -0.068,0.376 -0.205,0.513c-0.137,0.137 -0.303,0.205 -0.498,0.205c-0.205,0 -0.376,-0.068 -0.513,-0.205c-0.136,-0.137 -0.205,-0.308 -0.205,-0.513l0,-5.244c0,-0.195 0.069,-0.361 0.205,-0.498c0.137,-0.137 0.308,-0.205 0.513,-0.205c0.195,0 0.361,0.068 0.498,0.205c0.137,0.137 0.205,0.303 0.205,0.498ZM175.397,275.035l0,5.259c0,0.195 -0.068,0.361 -0.205,0.498c-0.136,0.137 -0.302,0.205 -0.498,0.205c-0.195,0 -0.361,-0.068 -0.498,-0.205c-0.136,-0.137 -0.205,-0.303 -0.205,-0.498l0,-5.259c0,-0.195 0.069,-0.361 0.205,-0.498c0.137,-0.137 0.303,-0.205 0.498,-0.205c0.196,0 0.362,0.068 0.498,0.205c0.137,0.137 0.205,0.303 0.205,0.498ZM160.852,283.414c0,0.283 -0.098,0.523 -0.293,0.718c-0.196,0.195 -0.435,0.293 -0.718,0.293l-2.739,0c-0.284,0 -0.523,-0.098 -0.718,-0.293c-0.196,-0.195 -0.293,-0.435 -0.293,-0.718c0,-0.283 0.097,-0.522 0.293,-0.718c0.195,-0.195 0.434,-0.293 0.718,-0.293l2.739,0c0.283,0 0.522,0.098 0.718,0.293c0.195,0.196 0.293,0.435 0.293,0.718ZM169.831,276.896l0,1.318c0,0.078 -0.024,0.141 -0.073,0.19c-0.049,0.049 -0.108,0.074 -0.176,0.074c-0.078,0 -0.161,0.009 -0.249,0.029c-0.088,0.019 -0.161,0.054 -0.22,0.102c-0.293,0.245 -0.517,0.713 -0.674,1.407l-3.75,12.861c-0.849,2.861 -2.768,4.209 -5.756,4.043l-1.436,0c-0.283,0 -0.525,-0.1 -0.725,-0.3c-0.2,-0.201 -0.3,-0.442 -0.3,-0.725c0,-0.274 0.1,-0.511 0.3,-0.711c0.2,-0.2 0.442,-0.3 0.725,-0.3l1.904,0c1.084,0.039 2.032,-0.552 2.842,-1.773l0.191,-0.395l4.277,-14.165c0.41,-1.348 1.133,-2.056 2.168,-2.124l0.483,0c0.127,0 0.237,0.046 0.33,0.139c0.093,0.093 0.139,0.203 0.139,0.33ZM160.852,277.481c0,0.284 -0.101,0.525 -0.301,0.726c-0.2,0.2 -0.442,0.3 -0.725,0.3l-2.71,0c-0.283,0 -0.525,-0.1 -0.725,-0.3c-0.2,-0.201 -0.3,-0.442 -0.3,-0.726c0,-0.283 0.1,-0.524 0.3,-0.725c0.2,-0.2 0.442,-0.3 0.725,-0.3l2.71,0c0.283,0 0.525,0.1 0.725,0.3c0.2,0.201 0.301,0.442 0.301,0.725Z" style="fill:#f08;fill-rule:nonzero;"/><path d="M193.225,293.507l0,-6.944c0,-0.234 -0.081,-0.432 -0.242,-0.593c-0.161,-0.161 -0.359,-0.241 -0.593,-0.241l-0.835,0c-0.508,-0.02 -0.879,0.112 -1.114,0.395c-0.234,0.293 -0.337,0.757 -0.307,1.392l0,5.962c0.088,1.015 0.62,1.547 1.596,1.596c0.557,0 0.943,-0.122 1.158,-0.366c0.205,-0.244 0.317,-0.645 0.337,-1.201ZM197.238,277.423l0,0.102c0,0.274 -0.095,0.506 -0.285,0.696c-0.191,0.191 -0.418,0.286 -0.682,0.286c-0.273,0 -0.505,0.095 -0.695,0.285c-0.191,0.191 -0.286,0.418 -0.286,0.682l0,3.325c0,0.244 0.083,0.449 0.249,0.615c0.166,0.166 0.371,0.249 0.615,0.249c0.235,0 0.435,0.083 0.601,0.249c0.166,0.166 0.249,0.366 0.249,0.601l0,0.351c0,0.244 -0.083,0.449 -0.249,0.615c-0.166,0.167 -0.366,0.25 -0.601,0.25c-0.244,0 -0.449,0.083 -0.615,0.249c-0.166,0.166 -0.249,0.366 -0.249,0.6l0,7.559c-0.068,1.211 -0.4,2.036 -0.996,2.475c-0.576,0.43 -1.294,0.62 -2.153,0.572c0,0 -0.03,0 -0.088,0c-0.059,0 -0.093,0 -0.103,0c-1.611,0.058 -2.768,-0.557 -3.471,-1.846c-0.274,-0.567 -0.401,-1.26 -0.381,-2.08l0,-6.387c0.048,-1.182 0.454,-2.041 1.215,-2.578c0.557,-0.391 1.392,-0.61 2.505,-0.659c0.176,0 0.347,-0.039 0.513,-0.117c0.166,-0.079 0.315,-0.181 0.447,-0.308c0.132,-0.127 0.239,-0.271 0.322,-0.432c0.083,-0.161 0.125,-0.33 0.125,-0.506l0,-2.27c0,-0.205 -0.039,-0.398 -0.118,-0.579c-0.078,-0.18 -0.185,-0.339 -0.322,-0.476c-0.137,-0.136 -0.295,-0.244 -0.476,-0.322c-0.181,-0.078 -0.373,-0.117 -0.579,-0.117l-2.739,0c-0.283,0 -0.525,-0.1 -0.725,-0.3c-0.2,-0.201 -0.3,-0.442 -0.3,-0.726c0,-0.283 0.1,-0.524 0.3,-0.725c0.2,-0.2 0.442,-0.3 0.725,-0.3l2.739,0c0.206,0 0.398,-0.039 0.579,-0.117c0.181,-0.078 0.339,-0.186 0.476,-0.322c0.137,-0.137 0.244,-0.296 0.322,-0.476c0.079,-0.181 0.118,-0.374 0.118,-0.579l0,-1.069c0,-0.284 0.1,-0.525 0.3,-0.726c0.2,-0.2 0.447,-0.3 0.74,-0.3c0.283,0 0.525,0.1 0.725,0.3c0.2,0.201 0.3,0.442 0.3,0.726l0,1.582c0,0.273 0.095,0.505 0.286,0.695c0.19,0.191 0.422,0.286 0.695,0.286c0.264,0 0.491,0.095 0.682,0.286c0.19,0.19 0.285,0.417 0.285,0.681ZM186.516,295.309l0,1.069c0,0.146 -0.052,0.271 -0.154,0.373c-0.103,0.103 -0.222,0.154 -0.359,0.154l-0.527,0c-0.743,0.03 -1.368,-0.224 -1.875,-0.761c-0.508,-0.528 -0.772,-1.27 -0.791,-2.227l0,-20.024c0,-0.284 0.1,-0.525 0.3,-0.726c0.2,-0.2 0.442,-0.3 0.725,-0.3c0.283,0 0.525,0.1 0.725,0.3c0.2,0.201 0.3,0.442 0.3,0.726l0.015,19.834c-0.01,0.41 0.093,0.703 0.308,0.878c0.146,0.127 0.42,0.196 0.82,0.206c0.127,0 0.244,0.051 0.351,0.153c0.108,0.103 0.162,0.218 0.162,0.345Z" style="fill:#f08;fill-rule:nonzero;"/><path d="M210.773,276.354l0,0.175c0,0.205 0.039,0.398 0.118,0.579c0.078,0.181 0.185,0.339 0.322,0.476c0.137,0.137 0.295,0.244 0.476,0.322c0.181,0.078 0.373,0.117 0.579,0.117l10.371,0c0.205,0 0.398,-0.039 0.578,-0.117c0.181,-0.078 0.34,-0.185 0.476,-0.322c0.137,-0.137 0.244,-0.295 0.323,-0.476c0.078,-0.181 0.117,-0.374 0.117,-0.579l0,-0.175c0,-0.206 -0.039,-0.398 -0.117,-0.579c-0.079,-0.181 -0.186,-0.339 -0.323,-0.476c-0.136,-0.137 -0.295,-0.244 -0.476,-0.322c-0.18,-0.079 -0.373,-0.118 -0.578,-0.118l-10.371,0c-0.206,0 -0.398,0.039 -0.579,0.118c-0.181,0.078 -0.339,0.185 -0.476,0.322c-0.137,0.137 -0.244,0.295 -0.322,0.476c-0.079,0.181 -0.118,0.373 -0.118,0.579ZM221.672,290.738l0,4.981c0,0.469 0.234,0.703 0.703,0.703l3.867,0c0.703,0 1.211,-0.371 1.524,-1.113c0.234,-0.557 0.38,-1.167 0.439,-1.831c0.02,-0.176 0.1,-0.313 0.242,-0.411c0.141,-0.097 0.295,-0.122 0.461,-0.073l0.777,0.235c0.273,0.078 0.485,0.222 0.637,0.432c0.151,0.21 0.202,0.456 0.154,0.739c-0.147,0.889 -0.425,1.7 -0.835,2.432c-0.547,0.977 -1.563,1.465 -3.047,1.465l-4.336,0c-1.797,0 -2.696,-0.859 -2.696,-2.578l0,-4.717c0,-0.205 -0.039,-0.398 -0.117,-0.579c-0.078,-0.18 -0.185,-0.339 -0.322,-0.476c-0.137,-0.136 -0.295,-0.244 -0.476,-0.322c-0.181,-0.078 -0.374,-0.117 -0.579,-0.117l-1.538,0c-0.146,0 -0.298,0.034 -0.454,0.102c-0.156,0.069 -0.305,0.157 -0.447,0.264c-0.141,0.107 -0.266,0.23 -0.373,0.366c-0.108,0.137 -0.186,0.274 -0.235,0.41c-1.318,4.19 -4.106,6.88 -8.364,8.072c-0.146,0.039 -0.303,0.053 -0.469,0.044c-0.166,-0.01 -0.327,-0.044 -0.483,-0.103c-0.156,-0.059 -0.3,-0.139 -0.432,-0.242c-0.132,-0.102 -0.237,-0.222 -0.315,-0.358l-0.103,-0.176c-0.078,-0.137 -0.109,-0.276 -0.095,-0.418c0.015,-0.141 0.061,-0.276 0.139,-0.403c0.079,-0.127 0.184,-0.236 0.315,-0.329c0.132,-0.093 0.271,-0.154 0.418,-0.183c3.633,-0.742 6.04,-2.681 7.222,-5.816c0.126,-0.332 0.107,-0.62 -0.059,-0.864c-0.166,-0.244 -0.43,-0.366 -0.791,-0.366l-0.996,0c-0.156,0 -0.235,0.078 -0.235,0.234c0,0.156 -0.078,0.235 -0.234,0.235l-0.82,0c-0.293,0 -0.542,-0.103 -0.747,-0.308c-0.205,-0.205 -0.308,-0.454 -0.308,-0.747l0,-14.326c0,-0.205 0.039,-0.398 0.117,-0.579c0.078,-0.181 0.186,-0.339 0.323,-0.476c0.136,-0.137 0.295,-0.244 0.476,-0.322c0.18,-0.078 0.373,-0.117 0.578,-0.117l14.59,0c0.205,0 0.398,0.039 0.579,0.117c0.18,0.078 0.339,0.185 0.476,0.322c0.136,0.137 0.244,0.295 0.322,0.476c0.078,0.181 0.117,0.374 0.117,0.579l0,14.326c0,0.293 -0.102,0.542 -0.307,0.747c-0.206,0.205 -0.455,0.308 -0.748,0.308l-0.82,0c-0.156,0 -0.234,-0.079 -0.234,-0.235c0,-0.156 -0.078,-0.234 -0.235,-0.234l-0.996,0c-0.341,0 -0.632,0.119 -0.871,0.359c-0.239,0.239 -0.359,0.529 -0.359,0.871ZM210.773,286.197l0,0.059c0,0.205 0.039,0.398 0.118,0.578c0.078,0.181 0.185,0.34 0.322,0.477c0.137,0.136 0.295,0.244 0.476,0.322c0.181,0.078 0.373,0.117 0.579,0.117l10.371,0c0.205,0 0.398,-0.039 0.578,-0.117c0.181,-0.078 0.34,-0.186 0.476,-0.322c0.137,-0.137 0.244,-0.296 0.323,-0.477c0.078,-0.18 0.117,-0.373 0.117,-0.578l0,-0.059c0,-0.205 -0.039,-0.398 -0.117,-0.578c-0.079,-0.181 -0.186,-0.34 -0.323,-0.476c-0.136,-0.137 -0.295,-0.245 -0.476,-0.323c-0.18,-0.078 -0.373,-0.117 -0.578,-0.117l-10.371,0c-0.206,0 -0.398,0.039 -0.579,0.117c-0.181,0.078 -0.339,0.186 -0.476,0.323c-0.137,0.136 -0.244,0.295 -0.322,0.476c-0.079,0.18 -0.118,0.373 -0.118,0.578ZM224.133,281.451l0,-0.176c0,-0.205 -0.039,-0.398 -0.117,-0.578c-0.079,-0.181 -0.186,-0.34 -0.323,-0.476c-0.136,-0.137 -0.295,-0.244 -0.476,-0.323c-0.18,-0.078 -0.373,-0.117 -0.578,-0.117l-10.371,0c-0.206,0 -0.398,0.039 -0.579,0.117c-0.181,0.079 -0.339,0.186 -0.476,0.323c-0.137,0.136 -0.244,0.295 -0.322,0.476c-0.079,0.18 -0.118,0.373 -0.118,0.578l0,0.176c0,0.205 0.039,0.398 0.118,0.579c0.078,0.18 0.185,0.339 0.322,0.476c0.137,0.137 0.295,0.244 0.476,0.322c0.181,0.078 0.373,0.117 0.579,0.117l10.371,0c0.205,0 0.398,-0.039 0.578,-0.117c0.181,-0.078 0.34,-0.185 0.476,-0.322c0.137,-0.137 0.244,-0.296 0.323,-0.476c0.078,-0.181 0.117,-0.374 0.117,-0.579Z" style="fill:#f08;fill-rule:nonzero;"/><path d="M252.258,280.235l0,3.413c-0.039,1.27 -0.401,2.413 -1.084,3.428l-6.153,9.829c-0.146,0.244 -0.358,0.401 -0.637,0.469c-0.278,0.068 -0.539,0.024 -0.783,-0.132c-0.254,-0.146 -0.413,-0.356 -0.476,-0.63c-0.064,-0.273 -0.018,-0.532 0.139,-0.776l6.24,-9.961c0.459,-0.703 0.698,-1.504 0.718,-2.402l0,-2.652c-0.039,-1.474 -0.786,-2.246 -2.242,-2.314l-9.067,0c-0.283,0 -0.525,-0.1 -0.725,-0.3c-0.2,-0.201 -0.3,-0.442 -0.3,-0.726c0,-0.283 0.1,-0.524 0.3,-0.725c0.2,-0.2 0.442,-0.3 0.725,-0.3l9.126,0c2.432,0.156 3.828,1.323 4.19,3.501c0,0.01 0.004,0.059 0.014,0.147c0.01,0.087 0.015,0.131 0.015,0.131Z" style="fill:#f08;fill-rule:nonzero;"/><path d="M277.541,280.719l0,15.102c0,0.293 -0.105,0.545 -0.315,0.755c-0.21,0.21 -0.461,0.315 -0.754,0.315c-0.293,0 -0.545,-0.105 -0.755,-0.315c-0.21,-0.21 -0.315,-0.462 -0.315,-0.755l0,-14.985c-0.068,-1.484 -0.927,-2.251 -2.578,-2.3l-1.509,0c-0.205,0 -0.398,0.039 -0.578,0.117c-0.181,0.078 -0.34,0.186 -0.476,0.323c-0.137,0.136 -0.244,0.295 -0.323,0.476c-0.078,0.18 -0.117,0.373 -0.117,0.578l0,15.865c0,0.283 -0.095,0.52 -0.285,0.71c-0.191,0.19 -0.423,0.286 -0.696,0.286c-0.283,0 -0.52,-0.096 -0.711,-0.286c-0.19,-0.19 -0.285,-0.427 -0.285,-0.71l0,-15.865c0,-0.205 -0.039,-0.398 -0.117,-0.578c-0.079,-0.181 -0.186,-0.34 -0.323,-0.476c-0.136,-0.137 -0.295,-0.245 -0.476,-0.323c-0.18,-0.078 -0.373,-0.117 -0.578,-0.117l-2.388,0c-0.293,0 -0.54,-0.1 -0.74,-0.3c-0.2,-0.2 -0.3,-0.447 -0.3,-0.74c0,-0.293 0.1,-0.539 0.3,-0.74c0.2,-0.2 0.447,-0.3 0.74,-0.3l2.388,0c0.205,0 0.398,-0.039 0.578,-0.117c0.181,-0.078 0.34,-0.186 0.476,-0.322c0.137,-0.137 0.244,-0.296 0.323,-0.476c0.078,-0.181 0.117,-0.374 0.117,-0.579l0,-1.245c0,-0.274 0.095,-0.506 0.285,-0.696c0.191,-0.19 0.428,-0.286 0.711,-0.286c0.273,0 0.505,0.096 0.696,0.286c0.19,0.19 0.285,0.422 0.285,0.696l0,1.245c0,0.205 0.039,0.398 0.117,0.579c0.079,0.18 0.186,0.339 0.323,0.476c0.136,0.136 0.295,0.244 0.476,0.322c0.18,0.078 0.373,0.117 0.578,0.117l1.875,0c1.25,0 2.29,0.396 3.121,1.187c0.82,0.8 1.23,1.826 1.23,3.076ZM277.424,273.849l0,0.293c0,0.302 -0.105,0.559 -0.315,0.769c-0.21,0.21 -0.466,0.315 -0.769,0.315c-0.303,0 -0.559,-0.105 -0.769,-0.315c-0.21,-0.21 -0.315,-0.467 -0.315,-0.769l0,-0.293c0,-0.303 0.105,-0.559 0.315,-0.769c0.21,-0.21 0.466,-0.315 0.769,-0.315c0.303,0 0.559,0.105 0.769,0.315c0.21,0.21 0.315,0.466 0.315,0.769Z" style="fill:#f08;fill-rule:nonzero;"/><path d="M294.987,286.256c0,0.293 -0.1,0.539 -0.3,0.74c-0.2,0.2 -0.447,0.3 -0.74,0.3l-1.845,0c-1.104,0 -1.968,-0.313 -2.593,-0.938c-0.635,-0.625 -0.947,-1.499 -0.938,-2.622l0,-6.196c0,-0.283 0.1,-0.525 0.301,-0.725c0.2,-0.2 0.441,-0.3 0.725,-0.3c0.283,0 0.525,0.1 0.725,0.3c0.2,0.2 0.3,0.442 0.3,0.725l0,5.786c-0.049,0.762 0.122,1.275 0.513,1.538c0.381,0.274 0.849,0.391 1.406,0.352l1.406,0c0.293,0 0.54,0.1 0.74,0.3c0.2,0.2 0.3,0.447 0.3,0.74ZM302.399,273.922l0,9.126c0.01,1.767 -0.278,3.452 -0.864,5.054l-3.34,8.554c-0.107,0.264 -0.293,0.459 -0.556,0.586c-0.264,0.127 -0.533,0.152 -0.806,0.073c-0.273,-0.087 -0.469,-0.253 -0.586,-0.498c-0.117,-0.244 -0.127,-0.498 -0.029,-0.761l3.266,-8.54c0.528,-1.26 0.796,-2.769 0.806,-4.527l0,-9.067c0,-0.293 0.103,-0.542 0.308,-0.747c0.205,-0.205 0.454,-0.308 0.747,-0.308c0.293,0 0.542,0.103 0.747,0.308c0.205,0.205 0.307,0.454 0.307,0.747Z" style="fill:#f08;fill-rule:nonzero;"/><path d="M321.076,293.507l0,-2.842c0,-0.361 -0.127,-0.669 -0.381,-0.923c-0.254,-0.254 -0.561,-0.381 -0.923,-0.381l-1.303,0c-0.508,-0.019 -0.879,0.113 -1.114,0.396c-0.234,0.293 -0.336,0.757 -0.307,1.391l0,2.33c0.088,1.015 0.62,1.547 1.597,1.596l1.04,0c0.488,0 0.839,-0.122 1.054,-0.366c0.205,-0.244 0.318,-0.645 0.337,-1.201ZM327.258,277.481c0,0.284 -0.1,0.525 -0.3,0.726c-0.201,0.2 -0.442,0.3 -0.726,0.3l-1.582,0c-0.205,0 -0.398,0.039 -0.578,0.117c-0.181,0.078 -0.34,0.186 -0.476,0.322c-0.137,0.137 -0.244,0.296 -0.323,0.476c-0.078,0.181 -0.117,0.374 -0.117,0.579l-0.014,0.791c0,0.205 0.039,0.4 0.117,0.586c0.078,0.185 0.185,0.347 0.322,0.483c0.137,0.137 0.298,0.244 0.483,0.323c0.186,0.078 0.381,0.117 0.586,0.117l1.582,0c0.284,0 0.525,0.1 0.726,0.3c0.2,0.2 0.3,0.442 0.3,0.725c0,0.293 -0.1,0.54 -0.3,0.74c-0.201,0.2 -0.442,0.3 -0.726,0.3l-1.626,0c-0.205,0 -0.395,0.039 -0.571,0.117c-0.176,0.079 -0.329,0.184 -0.461,0.315c-0.132,0.132 -0.237,0.286 -0.315,0.462c-0.078,0.176 -0.117,0.366 -0.117,0.571c0,0.205 0.039,0.396 0.117,0.571c0.078,0.176 0.183,0.33 0.315,0.462c0.132,0.132 0.285,0.237 0.461,0.315c0.176,0.078 0.366,0.117 0.571,0.117l1.392,0c0.283,0 0.525,0.1 0.725,0.3c0.2,0.2 0.3,0.442 0.3,0.725c0,0.293 -0.1,0.54 -0.3,0.74c-0.2,0.2 -0.442,0.3 -0.725,0.3l-1.362,0c-0.205,0 -0.398,0.039 -0.579,0.118c-0.181,0.078 -0.339,0.185 -0.476,0.322c-0.137,0.136 -0.244,0.295 -0.322,0.476c-0.078,0.181 -0.117,0.373 -0.117,0.578l0,3.282c-0.069,1.211 -0.401,2.036 -0.996,2.475c-0.596,0.44 -1.334,0.63 -2.212,0.572l-1.597,-0.015l-0.161,0c-1.153,0.068 -2.08,-0.542 -2.783,-1.831c-0.274,-0.567 -0.401,-1.26 -0.381,-2.08l0,-2.754c0.049,-1.182 0.454,-2.041 1.216,-2.578c0.722,-0.508 1.479,-0.723 2.27,-0.645l0.22,0.015l1.128,0c0.341,0 0.632,-0.12 0.871,-0.359c0.24,-0.239 0.359,-0.53 0.359,-0.872l0,-0.234c0,-0.205 -0.039,-0.395 -0.117,-0.571c-0.078,-0.176 -0.183,-0.33 -0.315,-0.462c-0.132,-0.131 -0.286,-0.236 -0.461,-0.315c-0.176,-0.078 -0.367,-0.117 -0.572,-0.117l-3.691,0c-0.293,0 -0.54,-0.1 -0.74,-0.3c-0.2,-0.2 -0.3,-0.447 -0.3,-0.74c0,-0.283 0.1,-0.525 0.3,-0.725c0.2,-0.2 0.447,-0.3 0.74,-0.3l3.662,0c0.205,0 0.398,-0.039 0.579,-0.117c0.18,-0.079 0.339,-0.186 0.476,-0.323c0.136,-0.136 0.244,-0.295 0.322,-0.476c0.078,-0.18 0.117,-0.373 0.117,-0.578l0,-0.806c0,-0.205 -0.039,-0.398 -0.117,-0.579c-0.078,-0.18 -0.186,-0.339 -0.322,-0.476c-0.137,-0.136 -0.296,-0.244 -0.476,-0.322c-0.181,-0.078 -0.374,-0.117 -0.579,-0.117l-3.677,0c-0.283,0 -0.525,-0.1 -0.725,-0.3c-0.2,-0.201 -0.3,-0.442 -0.3,-0.726c0,-0.283 0.1,-0.524 0.3,-0.725c0.2,-0.2 0.442,-0.3 0.725,-0.3l3.706,0c0.205,0 0.398,-0.039 0.579,-0.117c0.181,-0.078 0.339,-0.186 0.476,-0.322c0.137,-0.137 0.244,-0.296 0.322,-0.476c0.078,-0.181 0.117,-0.374 0.117,-0.579l0,-1.069c0,-0.284 0.101,-0.525 0.301,-0.726c0.2,-0.2 0.442,-0.3 0.725,-0.3c0.283,0 0.525,0.1 0.725,0.3c0.2,0.201 0.3,0.442 0.3,0.726l0,1.069c0,0.205 0.039,0.398 0.117,0.579c0.079,0.18 0.186,0.339 0.323,0.476c0.136,0.136 0.295,0.244 0.476,0.322c0.18,0.078 0.373,0.117 0.578,0.117l1.582,0c0.284,0 0.525,0.1 0.726,0.3c0.2,0.201 0.3,0.442 0.3,0.725Z" style="fill:#f08;fill-rule:nonzero;"/><path d="M353.215,277.496c0,0.293 -0.1,0.54 -0.3,0.74c-0.201,0.2 -0.447,0.3 -0.74,0.3l-0.088,0c-0.313,0 -0.579,0.11 -0.798,0.33c-0.22,0.219 -0.33,0.486 -0.33,0.798l0,5.801c0,0.293 -0.1,0.539 -0.3,0.74c-0.201,0.2 -0.442,0.3 -0.725,0.3c-0.293,0 -0.54,-0.1 -0.74,-0.3c-0.2,-0.201 -0.3,-0.447 -0.3,-0.74l0,-5.435c0,-0.205 -0.04,-0.398 -0.118,-0.578c-0.078,-0.181 -0.185,-0.34 -0.322,-0.476c-0.137,-0.137 -0.295,-0.245 -0.476,-0.323c-0.181,-0.078 -0.374,-0.117 -0.579,-0.117l-2.944,0c-0.205,0 -0.398,0.039 -0.579,0.117c-0.18,0.078 -0.339,0.186 -0.476,0.323c-0.136,0.136 -0.244,0.295 -0.322,0.476c-0.078,0.18 -0.117,0.373 -0.117,0.578l0,12.408c0.029,0.917 0.351,1.557 0.967,1.918c0.615,0.362 1.333,0.513 2.153,0.455l4.409,0c0.293,0 0.54,0.1 0.74,0.3c0.2,0.2 0.3,0.447 0.3,0.74c0,0.293 -0.1,0.539 -0.3,0.739c-0.2,0.201 -0.447,0.301 -0.74,0.301l-5.083,0c-1.455,0.039 -2.578,-0.362 -3.369,-1.202c-0.801,-0.83 -1.186,-2.001 -1.157,-3.515l0,-12.422c0,-0.342 -0.117,-0.63 -0.352,-0.864c-0.234,-0.235 -0.522,-0.352 -0.864,-0.352l-0.176,0c-0.293,0 -0.539,-0.1 -0.739,-0.3c-0.201,-0.2 -0.301,-0.447 -0.301,-0.74c0,-0.293 0.1,-0.539 0.301,-0.74c0.2,-0.2 0.446,-0.3 0.739,-0.3l0.176,0c0.342,0 0.63,-0.117 0.864,-0.352c0.235,-0.234 0.352,-0.522 0.352,-0.864l0,-1.362c0,-0.293 0.1,-0.54 0.3,-0.74c0.2,-0.2 0.447,-0.3 0.74,-0.3c0.293,0 0.539,0.1 0.74,0.3c0.2,0.2 0.3,0.447 0.3,0.74l0,1.084c0,0.205 0.039,0.398 0.117,0.579c0.078,0.18 0.186,0.339 0.322,0.476c0.137,0.136 0.296,0.244 0.476,0.322c0.181,0.078 0.374,0.117 0.579,0.117l2.944,0c0.205,0 0.398,-0.039 0.579,-0.117c0.181,-0.078 0.339,-0.186 0.476,-0.322c0.137,-0.137 0.244,-0.296 0.322,-0.476c0.078,-0.181 0.118,-0.374 0.118,-0.579l0,-1.099c0,-0.283 0.1,-0.525 0.3,-0.725c0.2,-0.2 0.447,-0.3 0.74,-0.3c0.283,0 0.524,0.1 0.725,0.3c0.2,0.2 0.3,0.442 0.3,0.725l0,1.465c0,0.313 0.11,0.579 0.33,0.798c0.219,0.22 0.485,0.33 0.798,0.33l0.088,0c0.293,0 0.539,0.1 0.74,0.3c0.2,0.201 0.3,0.447 0.3,0.74Z" style="fill:#f08;fill-rule:nonzero;"/><path d="M378.923,295.88c0,0.283 -0.098,0.522 -0.293,0.718c-0.195,0.195 -0.43,0.293 -0.703,0.293l-2.74,0c0,0 -0.024,0 -0.073,0c-0.049,0 -0.073,0 -0.073,0c-0.791,0.078 -1.538,-0.201 -2.241,-0.835c-0.703,-0.635 -1.006,-1.538 -0.908,-2.71c0,0 0.002,-0.027 0.007,-0.081c0.005,-0.054 0.007,-0.08 0.007,-0.08l0,-6.431c0.049,-0.918 -0.112,-1.528 -0.483,-1.831c-0.371,-0.303 -0.874,-0.474 -1.509,-0.513l-1.113,0c-0.303,0 -0.584,0.108 -0.843,0.322c-0.258,0.215 -0.417,0.474 -0.476,0.777l-2.065,10.649c-0.049,0.283 -0.193,0.51 -0.432,0.681c-0.239,0.171 -0.501,0.232 -0.784,0.183c-0.293,-0.048 -0.52,-0.188 -0.681,-0.417c-0.161,-0.23 -0.217,-0.486 -0.168,-0.769l4.116,-22.192c0.058,-0.313 0.217,-0.562 0.476,-0.748c0.259,-0.185 0.544,-0.263 0.857,-0.234c0.303,0.039 0.544,0.181 0.725,0.425c0.181,0.244 0.242,0.522 0.183,0.835l-1.436,7.529c-0.048,0.244 0,0.457 0.147,0.637c0.146,0.181 0.347,0.271 0.601,0.271l0.922,0c1.348,-0.029 2.373,0.332 3.077,1.084c0.683,0.733 0.981,1.744 0.893,3.033c0,0 -0.002,0.026 -0.007,0.08c-0.005,0.054 -0.008,0.081 -0.008,0.081l0,6.211c0.039,1.347 0.601,2.026 1.685,2.036l2.344,0c0.273,0 0.508,0.097 0.703,0.293c0.195,0.195 0.293,0.429 0.293,0.703Z" style="fill:#f08;fill-rule:nonzero;"/><path d="M403.591,275.035l0,5.259c0,0.195 -0.069,0.361 -0.205,0.498c-0.137,0.137 -0.303,0.205 -0.498,0.205c-0.196,0 -0.362,-0.068 -0.498,-0.205c-0.137,-0.137 -0.205,-0.303 -0.205,-0.498l0,-5.259c0,-0.195 0.068,-0.361 0.205,-0.498c0.136,-0.137 0.302,-0.205 0.498,-0.205c0.195,0 0.361,0.068 0.498,0.205c0.136,0.137 0.205,0.303 0.205,0.498ZM406.506,275.035l0,5.259c0,0.195 -0.069,0.361 -0.205,0.498c-0.137,0.137 -0.303,0.205 -0.498,0.205c-0.196,0 -0.362,-0.068 -0.498,-0.205c-0.137,-0.137 -0.205,-0.303 -0.205,-0.498l0,-5.259c0,-0.195 0.068,-0.361 0.205,-0.498c0.136,-0.137 0.302,-0.205 0.498,-0.205c0.195,0 0.361,0.068 0.498,0.205c0.136,0.137 0.205,0.303 0.205,0.498ZM400.617,277.496l0,0.132c0,0.244 -0.085,0.452 -0.256,0.622c-0.171,0.171 -0.374,0.257 -0.608,0.257l-0.029,0c-0.098,0 -0.21,0.022 -0.337,0.066c-0.127,0.044 -0.252,0.1 -0.374,0.168c-0.122,0.069 -0.234,0.147 -0.337,0.235c-0.102,0.087 -0.183,0.175 -0.241,0.263l-4.761,7.998c-0.869,1.436 -1.367,2.642 -1.494,3.618c-0.078,0.625 -0.039,1.192 0.117,1.7c0.517,1.474 1.982,2.236 4.394,2.285l2.535,0c0.293,0 0.537,0.1 0.732,0.3c0.195,0.2 0.293,0.442 0.293,0.725c0,0.293 -0.103,0.54 -0.308,0.74c-0.205,0.2 -0.454,0.3 -0.747,0.3l-2.959,0c-2.06,-0.078 -3.672,-0.591 -4.834,-1.538c0,0 -0.024,-0.024 -0.073,-0.073c-0.049,-0.049 -0.078,-0.073 -0.088,-0.073c-0.869,-0.967 -1.304,-2.11 -1.304,-3.428c0,-1.494 0.542,-3.184 1.626,-5.068l3.56,-5.948c0.166,-0.273 0.249,-0.544 0.249,-0.813c0,-0.268 -0.061,-0.51 -0.183,-0.725c-0.122,-0.215 -0.3,-0.39 -0.535,-0.527c-0.234,-0.137 -0.508,-0.205 -0.82,-0.205l-4.717,0c-0.283,0 -0.522,-0.098 -0.718,-0.293c-0.195,-0.195 -0.293,-0.435 -0.293,-0.718c0,-0.283 0.098,-0.522 0.293,-0.718c0.196,-0.195 0.435,-0.293 0.718,-0.293l10.488,0c0.284,0 0.523,0.098 0.718,0.293c0.196,0.196 0.293,0.435 0.293,0.718Z" style="fill:#f08;fill-rule:nonzero;"/><path d="M426.618,296.202c-0.166,0.264 -0.393,0.43 -0.681,0.498c-0.288,0.069 -0.559,0.029 -0.813,-0.117l-3.94,-2.329c-1.27,-0.85 -1.934,-2.217 -1.993,-4.102l-0.014,-9.419c0,-0.761 -0.166,-1.318 -0.498,-1.67c-0.342,-0.341 -0.84,-0.527 -1.494,-0.556l-0.777,0c-0.215,0 -0.398,-0.076 -0.549,-0.227c-0.151,-0.152 -0.227,-0.335 -0.227,-0.55l0,-0.263c0,-0.274 0.1,-0.51 0.3,-0.711c0.2,-0.2 0.442,-0.3 0.725,-0.3l0.938,0l0.249,0.015c2.187,0.254 3.32,1.469 3.398,3.647l0,9.038c-0.117,1.533 0.269,2.647 1.157,3.34c0.01,0.01 0.035,0.029 0.074,0.059c0.039,0.029 0.063,0.044 0.073,0.044l3.706,2.153c0.254,0.146 0.417,0.361 0.491,0.644c0.073,0.284 0.031,0.552 -0.125,0.806Z" style="fill:#f08;fill-rule:nonzero;"/><path d="M454.055,295.865c0,0.283 -0.1,0.525 -0.301,0.725c-0.2,0.201 -0.437,0.301 -0.71,0.301l-1.685,0c-2.021,0 -3.383,-0.44 -4.087,-1.319c-0.781,-0.927 -1.171,-2.109 -1.171,-3.545l0,-2.592c0,-0.293 0.105,-0.545 0.315,-0.755c0.209,-0.21 0.461,-0.315 0.754,-0.315c0.293,0 0.544,0.105 0.754,0.315c0.21,0.21 0.315,0.462 0.315,0.755l0,2.592c0,0.948 0.283,1.656 0.85,2.124c0.566,0.469 1.323,0.703 2.27,0.703l1.685,0c0.273,0 0.51,0.101 0.71,0.301c0.201,0.2 0.301,0.437 0.301,0.71ZM453.996,277.481c0,0.284 -0.1,0.525 -0.3,0.726c-0.2,0.2 -0.442,0.3 -0.725,0.3l-8.189,0c-0.205,0 -0.398,0.039 -0.578,0.117c-0.181,0.078 -0.34,0.186 -0.476,0.322c-0.137,0.137 -0.245,0.296 -0.323,0.476c-0.078,0.181 -0.117,0.374 -0.117,0.579l0,15.85c0,0.293 -0.1,0.539 -0.3,0.739c-0.2,0.201 -0.442,0.301 -0.725,0.301c-0.293,0 -0.54,-0.1 -0.74,-0.301c-0.2,-0.2 -0.3,-0.446 -0.3,-0.739l0,-16.333c0,-0.284 -0.098,-0.523 -0.293,-0.718c-0.196,-0.196 -0.435,-0.293 -0.718,-0.293c-0.283,0 -0.523,-0.098 -0.718,-0.293c-0.195,-0.195 -0.293,-0.435 -0.293,-0.718l0,-0.029c0,-0.283 0.098,-0.523 0.293,-0.718c0.195,-0.195 0.435,-0.293 0.718,-0.293c0.283,0 0.522,-0.098 0.718,-0.293c0.195,-0.195 0.293,-0.434 0.293,-0.718l0,-1.626c0,-0.283 0.1,-0.525 0.3,-0.725c0.2,-0.2 0.447,-0.3 0.74,-0.3c0.283,0 0.525,0.1 0.725,0.3c0.2,0.2 0.3,0.442 0.3,0.725l0,1.143c0,0.205 0.039,0.398 0.117,0.579c0.078,0.18 0.186,0.339 0.323,0.476c0.136,0.136 0.295,0.244 0.476,0.322c0.18,0.078 0.373,0.117 0.578,0.117l8.189,0c0.283,0 0.525,0.1 0.725,0.3c0.2,0.201 0.3,0.442 0.3,0.725ZM453.85,283.429c0,0.293 -0.1,0.539 -0.301,0.739c-0.2,0.201 -0.442,0.301 -0.725,0.301l-4.262,0c-0.293,0 -0.54,-0.1 -0.74,-0.301c-0.2,-0.2 -0.301,-0.446 -0.301,-0.739c0,-0.283 0.101,-0.525 0.301,-0.725c0.2,-0.201 0.447,-0.301 0.74,-0.301l4.262,0c0.283,0 0.525,0.1 0.725,0.301c0.201,0.2 0.301,0.442 0.301,0.725Z" style="fill:#f08;fill-rule:nonzero;"/><path d="M286.199,28.014c0.604,-3.346 0.924,-5.117 4.244,-8.023c2.654,-2.315 5.639,-4.773 6.377,-8.857c0.782,-4.33 -1.356,-9.086 -8.441,-10.367c-3.395,-0.613 -6.583,-0.122 -8.492,0.6l0.565,5.589c1.497,-0.694 3.563,-0.88 5.236,-0.578c2.805,0.507 3.956,2.29 3.547,4.554c-0.382,2.115 -2.008,3.803 -4.323,5.925c-2.738,2.503 -4.261,5.023 -4.759,7.778c-0.08,0.443 -0.066,0.649 -0.252,2.241l6.298,1.138ZM280.728,39.728c2.657,0.48 4.677,-1.137 5.139,-3.695c0.489,-2.706 -0.944,-4.896 -3.503,-5.359c-2.46,-0.444 -4.667,1.088 -5.156,3.794c-0.445,2.46 0.814,4.771 3.52,5.26Z" style="fill:#f08;fill-rule:nonzero;"/><path d="M299.825,40.698c1.196,-1.653 1.829,-2.528 4.379,-3.239c2.036,-0.563 4.289,-1.118 5.748,-3.136c1.547,-2.139 1.625,-5.267 -1.876,-7.799c-1.677,-1.213 -3.529,-1.774 -4.749,-1.879l-1.145,3.17c0.99,0.013 2.156,0.449 2.982,1.046c1.386,1.002 1.546,2.266 0.737,3.384c-0.756,1.045 -2.073,1.536 -3.876,2.084c-2.131,0.643 -3.609,1.611 -4.593,2.972c-0.158,0.219 -0.204,0.334 -0.718,1.147l3.111,2.25ZM293.826,45.615c1.313,0.949 2.825,0.599 3.739,-0.665c0.967,-1.337 0.76,-2.894 -0.504,-3.808c-1.216,-0.879 -2.808,-0.623 -3.774,0.714c-0.879,1.215 -0.798,2.792 0.539,3.759Z" style="fill:#ff7811;fill-rule:nonzero;"/></g></svg>