<?xml version="1.0" encoding="UTF-8" standalone="no"?><!DOCTYPE svg PUBLIC "-//W3C//DTD SVG 1.1//EN" "http://www.w3.org/Graphics/SVG/1.1/DTD/svg11.dtd"><svg width="120px" height="90px" viewBox="0 0 120 90" version="1.1" xmlns="http://www.w3.org/2000/svg" xmlns:xlink="http://www.w3.org/1999/xlink" xml:space="preserve" style="fill-rule:evenodd;clip-rule:evenodd;stroke-linejoin:round;stroke-miterlimit:1.41421;"><g id="school-feat4-img"><g><path d="M83.246,68.094c-0.767,-0.333 -1.3,-1.046 -1.403,-1.876c-0.254,-2.052 -0.743,-5.989 -1.04,-8.383c-0.143,-1.154 0.575,-2.241 1.693,-2.561c2.02,-0.58 5.063,-1.454 6.335,-1.819c0.388,-0.111 0.798,-0.122 1.191,-0.03c1.465,0.344 5.283,1.238 7.639,1.79c1.131,0.265 1.901,1.312 1.817,2.471c-0.171,2.359 -0.449,6.201 -0.593,8.182c-0.058,0.795 -0.511,1.506 -1.207,1.894c-1.51,0.84 -4.183,2.329 -5.643,3.141c-0.642,0.358 -1.415,0.396 -2.09,0.103c-1.679,-0.73 -4.923,-2.14 -6.699,-2.912Z" style="fill:#f93;"/><path d="M83.74,67.922c-0.783,-0.324 -1.332,-1.043 -1.439,-1.884c-0.188,-1.483 -0.498,-3.922 -0.76,-5.991c-0.103,-0.81 0.219,-1.615 0.852,-2.13c0.633,-0.515 1.487,-0.667 2.259,-0.401c1.588,0.546 3.373,1.16 4.614,1.586c0.937,0.323 1.574,1.196 1.593,2.187c0.032,1.581 0.08,4.02 0.12,6.052c0.016,0.798 -0.371,1.549 -1.03,1.999c-0.659,0.449 -1.5,0.536 -2.236,0.23c-1.393,-0.578 -2.927,-1.214 -3.973,-1.648Z" style="fill:#ff8000;"/><path d="M89.337,58.616c1.234,0.427 2.582,0.389 3.791,-0.105c0.822,-0.336 1.813,-0.741 2.756,-1.127c0.473,-0.193 0.768,-0.67 0.73,-1.18c-0.037,-0.51 -0.399,-0.938 -0.896,-1.06c-2.07,-0.508 -4.491,-1.103 -5.598,-1.374c-0.399,-0.098 -0.816,-0.091 -1.211,0.022c-0.82,0.234 -2.351,0.67 -3.811,1.086c-0.496,0.142 -0.843,0.588 -0.857,1.104c-0.014,0.515 0.308,0.98 0.795,1.148c1.453,0.502 3.077,1.064 4.301,1.486Z" style="fill:#ffb066;"/></g><g><g><g><path d="M63.05,68.865c-0.538,0.272 -0.629,0.515 -0.629,0.904c0,0.388 0,1.368 0,1.775c0,0.408 0.176,0.576 0.484,0.733c0.308,0.157 7.405,5.172 7.803,5.408c0.397,0.236 0.351,0.294 1.202,-0.158c0.756,-0.402 3.992,-2.42 4.48,-2.813c0.318,-0.255 0.541,-0.527 0.594,-0.895c0.057,-0.395 0.096,-0.878 0.086,-1.299c-0.008,-0.354 -0.171,-0.685 -0.588,-0.853c-0.417,-0.169 -5.286,-2.221 -5.286,-2.221c0,0 -7.229,-1.043 -8.146,-0.581Z" style="fill:#fe7600;"/><path d="M63.267,70.494c0.288,0.249 7.225,4.066 7.558,4.242c0.333,0.176 0.812,0.086 1.301,-0.243c0.657,-0.442 3.497,-1.887 4.117,-2.237c0.324,-0.182 0.078,-0.413 -0.392,-0.648c-0.47,-0.235 -3.015,-1.463 -3.015,-1.463c0,0 -9.328,-1.175 -9.779,-1.038c-0.45,0.137 -0.4,0.86 0.21,1.387Z" style="fill:#ff9030;"/><path d="M71.234,77.19c0,0 0.098,-1.404 0.098,-1.719c0,-0.315 0.521,-0.588 1.013,-0.917c0.492,-0.329 3.239,-1.865 3.647,-2.054c0.465,-0.215 0.878,-0.265 0.909,0.044c0.049,0.481 0.019,1.011 -0.012,1.27c-0.032,0.26 -0.187,0.479 -0.503,0.741c-0.502,0.418 -3.788,2.599 -4.652,2.988c-0.265,0.119 -0.505,0.092 -0.5,-0.353Z" style="fill:#de6700;"/></g><path d="M63.786,65.284l-0.114,4.103c0,0 4.772,3.358 5.453,3.509c0.682,0.151 4.033,-1.517 4.516,-1.821c0.493,-0.311 0.379,-0.527 0.474,-1.71c0.094,-1.183 -10.329,-7.158 -10.329,-4.081Z" style="fill:#c30f3c;"/><path d="M68.802,71.904c-0.047,0.622 0.579,0.956 1.284,0.669c1.398,-0.569 2.894,-1.213 3.326,-1.503c0.294,-0.197 0.53,-0.314 0.53,-1.045c0,-0.732 -0.17,-1.729 -0.17,-1.729c0,0 -4.793,-3.593 -4.888,-1.635c-0.095,1.957 -0.013,4.332 -0.082,5.243Z" style="fill:#9b0c2f;"/></g><g><g><path d="M56.37,71.802c-0.556,0.316 -0.65,0.599 -0.65,1.051c0,0.451 0,1.59 0,2.063c0,0.474 0.181,0.67 0.5,0.853c0.318,0.182 7.654,6.012 8.065,6.287c0.411,0.274 0.364,0.341 1.243,-0.184c0.782,-0.467 4.126,-2.814 4.631,-3.27c0.329,-0.297 0.549,-0.321 0.604,-0.748c0.058,-0.461 0.147,-1.633 0.137,-2.122c-0.008,-0.411 -0.216,-0.477 -0.646,-0.673c-0.431,-0.196 -5.464,-2.582 -5.464,-2.582c0,0 -7.472,-1.212 -8.42,-0.675Z" style="fill:#fe7600;"/><path d="M56.566,73.577c0.288,0.248 7.39,4.87 7.723,5.047c0.333,0.176 0.665,0.213 1.154,-0.115c0.657,-0.442 4.302,-2.345 4.922,-2.694c0.324,-0.183 0.261,-0.358 -0.209,-0.593c-0.47,-0.235 -4.021,-1.995 -4.021,-1.995c0,0 -9.329,-1.175 -9.779,-1.038c-0.45,0.137 -0.4,0.861 0.21,1.388Z" style="fill:#ff9030;"/><path d="M64.533,81.574c0,0 0.105,-1.654 0.105,-2.026c0,-0.372 0.563,-0.676 1.094,-1.048c0.53,-0.372 3.956,-2.283 4.396,-2.492c0.502,-0.238 0.678,-0.065 0.645,0.299c-0.046,0.498 -0.104,1.167 -0.139,1.472c-0.034,0.305 -0.16,0.418 -0.5,0.718c-0.542,0.476 -4.129,3.081 -5.061,3.51c-0.287,0.132 -0.545,0.091 -0.54,-0.433Z" style="fill:#de6700;"/></g><path d="M56.167,68.366l-0.129,4.103c0,0 5.424,3.359 6.198,3.509c0.775,0.151 4.584,-1.517 5.133,-1.821c0.56,-0.31 0.431,-0.526 0.538,-1.709c0.108,-1.184 -11.74,-7.159 -11.74,-4.082Z" style="fill:#c30f3c;"/><path d="M61.869,74.987c-0.054,0.621 0.658,0.956 1.459,0.668c1.589,-0.569 3.29,-1.213 3.781,-1.503c0.334,-0.197 0.603,-0.314 0.603,-1.045c0,-0.732 -0.194,-1.729 -0.194,-1.729c0,0 -5.448,-3.593 -5.556,-1.635c-0.108,1.958 -0.015,4.332 -0.093,5.244Z" style="fill:#9b0c2f;"/></g><g><path d="M68.63,51.762c0.163,-1.845 4.127,-2.295 4.293,0.311c0.166,2.607 0.673,4.278 1.568,4.984c0.895,0.706 3.609,0.417 4.884,0.257c1.275,-0.161 2.64,3.085 0.77,3.456c-1.87,0.372 -5.091,0.769 -7.002,0.574c-0.932,-0.096 -2.511,-0.912 -3.293,-2.519c-0.782,-1.608 -1.501,-3.873 -1.22,-7.063Z" style="fill:#c6ff40;"/><path d="M69.05,52.139c0.159,-0.787 1.265,-1.363 1.392,-0.045c0.128,1.319 0.653,3.871 1.6,5.621c0.48,0.887 -1.35,2.363 -2.059,0.577c-0.708,-1.785 -1.27,-4.484 -0.933,-6.153Z" style="fill:#d8ff7d;"/><path d="M78.784,60.882c-0.109,-0.008 -3.113,0.313 -4.247,0.22c-1.134,-0.093 -1.054,-0.633 0.093,-0.785c1.52,-0.2 3.925,-0.504 3.925,-0.504c0,0 0.339,1.077 0.229,1.069Z" style="fill:#b1c30f;"/><path d="M77.722,60.364c-1.626,-2.375 -1.241,-4.847 0.111,-6.533c1.741,-2.171 5.315,-2.619 7.638,-1.217c-0.034,0.413 -0.604,1.989 -0.604,1.989c0,0 -1.08,0.636 -1.8,1.027c-0.82,-0.514 -1.947,-0.816 -2.6,-0.332c-0.328,0.243 -0.718,1.393 0.599,3.273c1.233,1.76 3.095,1.945 3.316,1.617c0.221,-0.327 0.096,-1.32 -0.397,-2.143c0.334,-0.71 1.665,-1.807 1.665,-1.807c0,0 1.566,0.209 2.2,0.46c0.173,0.511 0.076,4.155 -2.54,5.564c-2.976,1.604 -6.246,0.064 -7.588,-1.898Z" style="fill:#004fd7;"/><path d="M77.024,56.011c0.17,-1.374 1.273,-2.727 2.918,-3.509c1.644,-0.782 3.568,-0.601 5.246,0.16c-0.405,0.258 -2.049,1.146 -2.197,1.21c-2.445,-2.058 -5.758,0.448 -5.967,2.139Z" style="fill:#5e99ff;"/><path d="M80.284,60.332c-1.192,-0.95 0.019,-1.853 1.078,-1.002c1.059,0.851 2.247,1.535 2.847,1.109c-0.739,0.659 -2.296,1.192 -3.925,-0.107Z" style="fill:#3680ff;"/><path d="M84.246,57.946c0.575,0.16 1.937,0.27 1.937,0.27l1.475,-1.393l-1.953,-0.415c0,0 -1.167,0.795 -1.459,1.538Z" style="fill:#8fb8ff;"/></g><path d="M54.918,66.896c0,0 0.849,-15.329 0.849,-17.029c0,-1.7 0.954,-2.62 3.022,-3.432c5.288,-2.077 7.903,-1.511 11.396,0.661c3.494,2.172 3.494,2.676 3.683,4.471c0.189,1.794 1.166,11.33 1.544,14.163c0.378,2.833 0.25,3.304 -4.188,5.571c-4.437,2.266 -6.359,2.549 -11.835,-0.094c-3.238,-1.563 -4.693,-2.48 -4.471,-4.311Z" style="fill:#65d1ff;"/><path d="M65.213,71.155c-0.011,-2.504 -0.253,-15.484 -1.885,-18.312c-0.949,-1.645 -2.57,-2.431 -3.766,-3.736c-1.197,-1.305 9.626,-1.759 11.638,-0.78c2.013,0.979 2.086,1.906 2.195,3.483c0.109,1.577 0.925,12.729 1.088,14.633c0.163,1.903 0.144,2.719 -3.011,4.188c-3.154,1.468 -6.246,3.66 -6.259,0.524Z" style="fill:#23bdff;"/><circle cx="65.754" cy="38.224" r="11.53" style="fill:#66d1ff;"/><circle cx="65.156" cy="36.973" r="9.79" style="fill:#99e0ff;"/><circle cx="60.465" cy="31.777" r="1.754" style="fill:#fff;"/><circle cx="66.257" cy="41.12" r="3.603" style="fill:#ff7811;"/><ellipse cx="74.639" cy="38.503" rx="2.322" ry="2.963" style="fill:#ff7811;"/><circle cx="66.614" cy="41.055" r="3.059" style="fill:#ffb53e;"/><path d="M67.005,38.357c1.279,0.393 1.978,1.82 1.559,3.184c-0.419,1.365 -1.799,2.153 -3.078,1.76c-1.28,-0.393 -1.979,-1.82 -1.56,-3.185c0.419,-1.364 1.799,-2.152 3.079,-1.759Z" style="fill:#ffc363;"/><ellipse cx="74.869" cy="38.45" rx="1.972" ry="2.515" style="fill:#ffaf2f;"/><path d="M75.184,36.045c0.863,0.213 1.326,1.353 1.033,2.544c-0.294,1.191 -1.233,1.985 -2.097,1.772c-0.864,-0.213 -1.327,-1.353 -1.033,-2.543c0.293,-1.191 1.233,-1.985 2.097,-1.773Z" style="fill:#ffc363;"/><path d="M63.457,27.801c-0.096,0.631 1.782,0.815 1.855,0.091c0.072,-0.725 0.058,-2.118 -1.265,-2.987c-1.322,-0.87 -1.824,0.162 -1.172,0.778c0.652,0.616 0.709,1.286 0.582,2.118Z" style="fill:#ff7811;"/><path d="M63.946,27.781c-0.086,0.315 0.833,0.372 0.897,0.039c0.14,-0.735 0.032,-1.489 -0.48,-1.825c-0.348,-0.228 -0.676,0.173 -0.571,0.385c0.189,0.378 0.376,0.588 0.154,1.401Z" style="fill:#ff9340;"/><circle cx="61.538" cy="23.415" r="2.931" style="fill:#ffa30e;"/><circle cx="61.064" cy="22.691" r="1.775" style="fill:#ffc260;"/><g><path d="M55.772,51.951c1.048,-1.527 4.722,0.027 3.587,2.379c-1.136,2.352 -1.514,4.057 -1.082,5.111c0.433,1.055 2.939,2.136 4.129,2.623c1.189,0.487 0.784,3.984 -1.028,3.389c-1.811,-0.595 -4.812,-1.831 -6.38,-2.939c-0.766,-0.541 -1.74,-2.028 -1.632,-3.812c0.108,-1.784 0.595,-4.111 2.406,-6.751Z" style="fill:#c6ff40;"/><path d="M55.953,52.486c0.525,-0.608 1.771,-0.567 1.234,0.644c-0.536,1.211 -1.332,3.692 -1.367,5.682c-0.017,1.008 -2.336,1.395 -2.076,-0.508c0.26,-1.903 1.095,-4.53 2.209,-5.818Z" style="fill:#d8ff7d;"/><path d="M60.139,64.882c-0.092,-0.061 -2.867,-1.256 -3.809,-1.894c-0.942,-0.638 -0.607,-1.07 0.467,-0.638c1.422,0.572 3.667,1.489 3.667,1.489c0,0 -0.234,1.104 -0.325,1.043Z" style="fill:#b1c30f;"/><path d="M59.467,63.909c0.08,-2.876 0.82,-4.795 3.306,-5.636c2.998,-1.014 5.888,0.092 7.251,2.691c-0.232,0.343 -1.503,1.436 -1.503,1.436c0,0 -1.253,0.023 -2.073,0.01c-0.462,-0.85 -1.294,-1.667 -2.102,-1.566c-0.405,0.051 -1.309,0.861 -1.085,3.146c0.21,2.139 1.741,3.214 2.094,3.037c0.354,-0.177 0.732,-1.103 0.707,-2.062c0.64,-0.454 2.338,-0.757 2.338,-0.757c0,0 1.262,0.952 1.691,1.482c-0.101,0.529 -1.211,3.473 -4.946,3.599c-3.735,0.126 -5.761,-2.393 -5.678,-5.38Z" style="fill:#004fd7;"/><path d="M60.997,59.775c0.823,-1.114 2.448,-1.75 4.265,-1.624c1.817,0.126 3.533,1 4.492,2.716c-0.48,0.026 -2.348,-0.009 -2.508,-0.025c-1.12,-2.994 -5.237,-2.438 -6.249,-1.067Z" style="fill:#5e99ff;"/><path d="M61.715,65.14c-0.572,-1.414 0.926,-1.605 1.431,-0.344c0.505,1.262 1.204,2.441 1.936,2.365c-0.968,0.21 -2.586,-0.09 -3.367,-2.021Z" style="fill:#3680ff;"/><path d="M66.337,65.007c0.423,0.421 1.556,1.186 1.556,1.186l1.968,-0.488l-1.497,-1.321c0,0 -1.407,0.119 -2.027,0.623Z" style="fill:#8fb8ff;"/></g><ellipse cx="60.605" cy="22.025" rx="0.54" ry="0.519" style="fill:#fff;"/><ellipse cx="73.891" cy="37.598" rx="0.357" ry="0.343" style="fill:#fff;"/><circle cx="65.364" cy="40.036" r="0.772" style="fill:#fff;"/></g><g><path d="M17.83,81.302c-0.766,-0.333 -1.3,-1.046 -1.402,-1.875c-0.552,-4.447 -2.327,-18.752 -2.985,-24.057c-0.143,-1.154 0.575,-2.241 1.692,-2.562c4.511,-1.294 15.519,-4.454 18.19,-5.221c0.388,-0.111 0.798,-0.122 1.191,-0.03c2.976,0.698 16.226,3.802 21.275,4.984c1.13,0.265 1.901,1.313 1.817,2.471c-0.38,5.242 -1.393,19.216 -1.704,23.51c-0.058,0.794 -0.511,1.505 -1.207,1.893c-3.283,1.827 -12.881,7.171 -16.039,8.93c-0.643,0.357 -1.416,0.395 -2.09,0.102c-3.555,-1.545 -14.951,-6.498 -18.738,-8.145Z" style="fill:#ff8fc1;"/><path d="M18.946,80.918c-0.783,-0.325 -1.332,-1.044 -1.439,-1.884c-0.489,-3.856 -1.9,-14.964 -2.648,-20.85c-0.103,-0.81 0.22,-1.615 0.853,-2.13c0.633,-0.515 1.487,-0.667 2.259,-0.402c5.055,1.739 14.056,4.834 17.666,6.076c0.937,0.322 1.573,1.196 1.593,2.187c0.083,4.2 0.305,15.374 0.42,21.178c0.016,0.797 -0.372,1.548 -1.03,1.998c-0.659,0.449 -1.5,0.536 -2.237,0.23c-4.522,-1.876 -12.382,-5.136 -15.437,-6.403Z" style="fill:#ff64ac;"/><path d="M36.276,60.759c1.235,0.427 2.583,0.389 3.792,-0.105c2.346,-0.96 6.492,-2.655 10.077,-4.121c0.947,-0.387 1.537,-1.34 1.462,-2.36c-0.075,-1.021 -0.799,-1.877 -1.792,-2.121c-5.643,-1.385 -12.951,-3.179 -15.083,-3.703c-0.399,-0.098 -0.816,-0.09 -1.211,0.023c-1.689,0.481 -6.627,1.889 -10.924,3.114c-0.992,0.282 -1.685,1.176 -1.714,2.207c-0.028,1.03 0.616,1.96 1.59,2.297c4.798,1.658 10.791,3.729 13.803,4.769Z" style="fill:#ffabd1;"/></g><path id="school-feat4-title" d="M29.677,4.701l0,-1.833l0.546,0c0.154,0 0.461,-0.042 0.461,-0.391c0,-0.336 -0.293,-0.392 -0.461,-0.392l-0.546,0l0,-0.531c0,-0.546 0,-1.161 -0.909,-1.161c-0.881,0 -0.881,0.629 -0.881,1.161l0,0.531l-1.049,0c-0.266,0 -0.475,0.126 -0.475,0.392c0,0.349 0.307,0.391 0.475,0.391l1.049,0l0,1.833l-1.51,0c-0.154,0 -0.476,0.042 -0.476,0.391c0,0.336 0.308,0.378 0.476,0.378l2.839,0c-1.161,1.468 -2.504,2.378 -3.161,2.797c-0.112,0.07 -0.21,0.154 -0.21,0.336c0,0.168 0.14,0.377 0.392,0.377c0.209,0 1.468,-0.783 2.307,-1.426l1.175,0c0.084,0 0.112,0.042 0.112,0.098c0,0.07 -0.21,0.461 -0.364,0.713c-0.923,-0.014 -0.923,0.629 -0.923,1.147l0,0.266c-0.377,0.028 -2.07,0.153 -2.335,0.195c-0.294,0.042 -0.434,0.238 -0.434,0.574c0,0.294 0.126,0.825 0.685,0.825c0.336,0 1.665,-0.252 2.084,-0.322l0,1.161c0,0.294 -0.056,0.378 -0.363,0.378l-0.658,0c-0.153,0 -0.475,0.042 -0.475,0.391c0,0.336 0.308,0.378 0.475,0.378l1.553,0c0.629,0 1.231,-0.224 1.231,-1.063l0,-1.65c1.091,-0.28 2.279,-0.7 2.377,-0.783c0.112,-0.098 0.126,-0.154 0.126,-0.224c0,-0.238 -0.196,-0.42 -0.391,-0.42c-0.07,0 -0.182,0.028 -0.21,0.028c-0.741,0.168 -1.651,0.294 -1.902,0.322c0,-0.28 0,-0.476 -0.028,-0.644c0.587,-0.461 1.79,-1.398 1.79,-1.734c0,-0.266 -0.168,-0.419 -0.657,-0.419l-1.917,0c0.728,-0.63 1.273,-1.231 1.329,-1.301l1.077,0c0.154,0 0.476,-0.028 0.476,-0.378c0,-0.349 -0.308,-0.391 -0.476,-0.391l-0.406,0c0.742,-0.895 1.525,-2.126 1.525,-2.56c0,-0.447 -0.629,-0.769 -1.133,-0.769c-0.378,0 -0.587,0.21 -0.699,0.503c-0.49,1.315 -0.644,1.735 -1.399,2.826l-0.112,0ZM38.433,4.057c0.167,0 0.475,-0.056 0.475,-0.391c0,-0.35 -0.322,-0.392 -0.475,-0.392l-3.371,0c0.21,-0.378 0.839,-1.58 0.839,-2.014c0,-0.531 -0.657,-0.839 -1.231,-0.839c-0.727,0 -0.811,0.419 -0.867,0.727c-0.238,1.147 -0.629,2.937 -1.776,5.091c-0.084,0.168 -0.098,0.21 -0.098,0.266c0,0.224 0.182,0.391 0.392,0.391c0.167,0 0.251,-0.069 0.741,-0.657c0.07,1.259 0.517,2.769 1.51,4.196c-1.021,1.371 -2.517,2.014 -3.174,2.266c-0.154,0.056 -0.378,0.14 -0.378,0.405c0,0.266 0.224,0.392 0.378,0.392c0.139,0 0.867,-0.196 1.426,-0.448c1.203,-0.531 2.042,-1.202 2.56,-1.65c1.356,1.441 2.993,2.056 3.216,2.056c0.21,0 0.378,-0.182 0.378,-0.392c0,-0.111 -0.056,-0.223 -0.168,-0.293c-1.245,-0.798 -1.762,-1.161 -2.545,-2.294c1.217,-1.525 1.762,-3.986 1.804,-6.42l0.364,0ZM36.041,4.057c0,1.846 -0.168,3.441 -0.601,4.728c-0.406,-1.175 -0.434,-1.623 -0.546,-3.021c-0.028,-0.28 -0.07,-0.812 -0.839,-0.84c0.168,-0.237 0.35,-0.517 0.573,-0.867l1.413,0Z" style="fill:#231f20;fill-rule:nonzero;"/><path d="M52.447,4.155c0.154,0 0.475,-0.028 0.475,-0.377c0,-0.364 -0.335,-0.392 -0.475,-0.392l-1.049,0l0,-1.93c0,-0.322 0,-1.105 -0.951,-1.105c-0.965,0 -0.965,0.755 -0.965,1.133l0,1.902l-3.133,0c-0.168,0 -0.476,0.042 -0.476,0.378c0,0.363 0.322,0.391 0.476,0.391l2.196,0c-0.462,2.993 -1.874,5.245 -3.035,6.574c-0.112,0.126 -0.196,0.21 -0.196,0.363c0,0.224 0.182,0.392 0.391,0.392c0.252,0 0.854,-0.573 1.105,-0.825c1.343,-1.273 2.196,-2.7 2.672,-3.749l0,5.273c0,0.266 -0.07,0.406 -0.406,0.406l-1.398,0c-0.154,0 -0.476,0.042 -0.476,0.391c0,0.35 0.322,0.392 0.476,0.392l2.265,0c1.063,0 1.455,-0.587 1.455,-1.343l0,-7.874l1.049,0ZM43.845,7.498c0.686,1.007 1.105,1.468 1.287,1.664c0.056,0.056 0.14,0.14 0.308,0.14c0.196,0 0.377,-0.168 0.377,-0.391c0,-0.098 -0.028,-0.154 -0.349,-0.644c-1.035,-1.622 -1.483,-3.161 -1.623,-3.874l0,-0.238l1.161,0c0.14,0 0.462,-0.028 0.462,-0.391c0,-0.35 -0.322,-0.378 -0.462,-0.378l-1.161,0l0,-1.86c0,-0.504 0,-1.133 -0.937,-1.133c-0.909,0 -0.909,0.657 -0.909,1.133l0,1.86l-1.622,0c-0.154,0 -0.476,0.028 -0.476,0.392c0,0.335 0.308,0.377 0.476,0.377l1.524,0c-0.279,2.042 -0.923,3.818 -2,5.595c-0.07,0.112 -0.112,0.195 -0.112,0.307c0,0.196 0.154,0.392 0.392,0.392c0.168,0 0.266,-0.098 0.336,-0.182c0.307,-0.336 0.853,-1.077 1.482,-2.21l0,4.322c0,0.504 0,1.133 0.923,1.133c0.923,0 0.923,-0.699 0.923,-1.133l0,-4.881Z" style="fill:#231f20;fill-rule:nonzero;"/><path d="M64.545,0.924c-0.406,0 -0.448,0.322 -0.448,0.392c0,0.14 0.07,0.21 0.14,0.294c0.462,0.503 0.546,0.587 0.742,0.867c0.307,0.433 0.377,0.503 0.615,0.503c0.294,0 0.545,-0.251 0.545,-0.531c0,-0.448 -1.398,-1.525 -1.594,-1.525ZM59.034,3.68c0.056,-0.168 0.378,-1.105 0.406,-1.175c0.238,-0.713 0.252,-0.797 0.252,-0.965c0,-0.532 -0.602,-0.825 -1.049,-0.825c-0.546,0 -0.714,0.335 -0.839,0.657c-0.14,0.364 -0.756,2.168 -0.896,2.573c-0.867,0.154 -1.916,0.406 -2.405,0.532c-0.196,0.056 -0.532,0.154 -0.532,0.573c0,0.266 0.168,0.546 0.49,0.546c0.126,0 0.168,-0.028 0.601,-0.168c0.154,-0.056 0.28,-0.084 1.497,-0.448c-0.727,2.126 -1.399,3.972 -1.93,5.469c-0.126,0.336 -0.364,1.063 -0.364,1.343c0,0.741 0.797,0.923 1.119,0.923c0.685,0 0.881,-0.546 1.035,-1.049c0.769,-2.378 1.538,-4.756 2.336,-7.119c0.279,-0.042 0.699,-0.098 0.951,-0.098c1.077,0 1.23,0.615 1.23,2.224c0,2.825 -0.839,4.993 -1.538,4.993c-0.14,0 -0.336,-0.028 -0.909,-0.35c-0.112,-0.07 -0.434,-0.252 -0.532,-0.252c-0.251,0 -0.489,0.224 -0.489,0.518c0,0.28 0.182,0.419 0.797,0.727c0.378,0.182 1.175,0.588 1.874,0.588c2.238,0 2.784,-3.861 2.784,-6.042c0,-2.252 -0.616,-3.245 -2.742,-3.245c-0.126,0 -0.937,0.056 -1.147,0.07ZM65.832,0.211c-0.322,0 -0.448,0.21 -0.448,0.392c0,0.14 0.084,0.237 0.112,0.265c0.084,0.098 0.517,0.518 0.615,0.616c0.448,0.503 0.49,0.559 0.686,0.559c0.279,0 0.531,-0.251 0.531,-0.517c0,-0.476 -1.342,-1.315 -1.496,-1.315ZM63.482,2.099c-0.28,0 -0.573,0.196 -0.573,0.532c0,0.168 0.028,0.223 0.279,0.629c0.658,1.049 0.867,1.72 1.105,2.532c0.322,1.118 0.392,1.37 1.021,1.37c0.672,0 1.175,-0.531 1.175,-1.091c0,-0.573 -0.811,-1.622 -1.287,-2.237c-0.489,-0.63 -1.328,-1.735 -1.72,-1.735Z" style="fill:#231f20;fill-rule:nonzero;"/><path d="M73.762,1.33c0,-0.322 0,-0.909 -0.811,-0.909c-0.826,0 -0.826,0.671 -0.826,0.909l-1.818,0c-0.629,0 -1.245,0.238 -1.245,1.063l0,2.238c0,0.769 0.56,1.063 1.245,1.063l8.154,0c0.616,0 1.231,-0.238 1.231,-1.063l0,-2.238c0,-0.755 -0.517,-1.063 -1.231,-1.063l-1.86,0c0,-0.238 0,-0.909 -0.825,-0.909c-0.811,0 -0.811,0.601 -0.811,0.909l-1.203,0ZM74.965,3.861l0,1.049l-1.203,0l0,-1.049l1.203,0ZM73.762,3.148l0,-1.035l1.203,0l0,1.035l-1.203,0ZM77.846,3.861l0,0.686c0,0.28 -0.056,0.363 -0.364,0.363l-0.881,0l0,-1.049l1.245,0ZM76.601,3.148l0,-1.035l0.881,0c0.308,0 0.364,0.084 0.364,0.364l0,0.671l-1.245,0ZM72.125,3.861l0,1.049l-0.839,0c-0.307,0 -0.377,-0.083 -0.377,-0.363l0,-0.686l1.216,0ZM70.909,3.148l0,-0.671c0,-0.28 0.07,-0.364 0.377,-0.364l0.839,0l0,1.035l-1.216,0ZM76.265,12.239c1.343,-0.629 1.539,-0.951 1.539,-1.314c0,-0.182 -0.07,-0.28 -0.112,-0.35l0.406,0c0.629,0 1.23,-0.238 1.23,-1.063l0,-0.643c0,-0.77 -0.517,-1.063 -1.23,-1.063l-7.483,0c-0.615,0 -1.231,0.223 -1.231,1.063l0,0.643c0,1.063 0.909,1.063 1.427,1.063c-0.042,0.154 0.07,0.252 0.196,0.419c0.181,0.224 0.727,1.077 0.909,1.245l-3.623,0c-0.154,0 -0.475,0.042 -0.475,0.392c0,0.336 0.293,0.377 0.475,0.377l12.154,0c0.154,0 0.476,-0.028 0.476,-0.391c0,-0.336 -0.308,-0.378 -0.476,-0.378l-4.182,0ZM73.146,12.239c0.224,-0.14 0.364,-0.349 0.364,-0.615c0,-0.504 -0.475,-0.755 -1.217,-1.049l3.763,0c-0.126,0.154 -0.364,0.615 -0.588,0.979c-0.112,0.182 -0.308,0.461 -0.308,0.559c0,0.042 0.014,0.084 0.028,0.126l-2.042,0ZM77.426,9.428c0,0.28 -0.056,0.378 -0.363,0.378l-5.357,0c-0.308,0 -0.364,-0.098 -0.364,-0.378l0,-0.49c0,-0.265 0.056,-0.363 0.364,-0.363l5.357,0c0.293,0 0.363,0.084 0.363,0.363l0,0.49ZM68.601,6.351c-0.154,0 -0.476,0.042 -0.476,0.392c0,0.349 0.308,0.391 0.476,0.391l11.525,0c0.153,0 0.475,-0.042 0.475,-0.391c0,-0.336 -0.308,-0.392 -0.475,-0.392l-11.525,0Z" style="fill:#231f20;fill-rule:nonzero;"/><path d="M93.79,9.316c0,-0.755 -0.391,-1.343 -1.454,-1.343l-7.931,0c-1.091,0 -1.454,0.602 -1.454,1.343l0,2.378c0,0.755 0.377,1.342 1.454,1.342l7.931,0c1.077,0 1.454,-0.601 1.454,-1.342l0,-2.378ZM89.287,8.743l2.223,0c0.322,0 0.406,0.154 0.406,0.419l0,0.923l-2.629,0l0,-1.342ZM87.412,10.085l-2.615,0l0,-0.923c0,-0.265 0.084,-0.419 0.406,-0.419l2.209,0l0,1.342ZM89.287,10.869l2.629,0l0,0.979c0,0.265 -0.084,0.405 -0.406,0.405l-2.223,0l0,-1.384ZM87.412,12.253l-2.209,0c-0.322,0 -0.406,-0.14 -0.406,-0.405l0,-0.979l2.615,0l0,1.384ZM92.545,5.582c0,-0.895 -0.713,-1.007 -1.119,-1.007l-6.139,0c-0.63,0 -1.119,0.279 -1.119,1.007l0,0.657c0,0.895 0.727,1.007 1.119,1.007l6.139,0c0.644,0 1.119,-0.28 1.119,-1.007l0,-0.657ZM83.608,1.582c-1.077,0 -1.468,0.573 -1.468,1.342l0,1.119c0,0.448 0.056,1.063 0.923,1.063c0.951,0 0.951,-0.713 0.951,-1.063l0,-1.272c0,-0.266 0.07,-0.406 0.405,-0.406l7.875,0c0.321,0 0.405,0.14 0.405,0.406l0,1.272c0,0.336 0,1.063 0.937,1.063c0.923,0 0.937,-0.713 0.937,-1.063l0,-1.119c0,-0.741 -0.377,-1.342 -1.454,-1.342l-3.79,0l0,-0.322c0,-0.629 -0.406,-0.923 -0.952,-0.923c-0.153,0 -0.979,0 -0.979,0.923l0,0.322l-3.79,0ZM90.699,6.127c0,0.322 -0.084,0.336 -0.335,0.336l-4.015,0c-0.251,0 -0.335,-0.014 -0.335,-0.336l0,-0.433c0,-0.322 0.084,-0.336 0.335,-0.336l4.015,0c0.251,0 0.335,0.014 0.335,0.336l0,0.433ZM85.007,3.148c-0.154,0 -0.476,0.042 -0.476,0.392c0,0.335 0.308,0.391 0.476,0.391l6.657,0c0.154,0 0.476,-0.042 0.476,-0.391c0,-0.336 -0.308,-0.392 -0.476,-0.392l-6.657,0Z" style="fill:#231f20;fill-rule:nonzero;"/><g><path d="M88.359,79.413c-0.767,-0.333 -1.3,-1.046 -1.403,-1.876c-0.298,-2.403 -0.926,-7.462 -1.276,-10.281c-0.143,-1.154 0.575,-2.241 1.693,-2.562c2.384,-0.684 6.293,-1.806 7.771,-2.23c0.388,-0.112 0.798,-0.122 1.191,-0.03c1.688,0.396 6.54,1.532 9.29,2.177c1.131,0.265 1.901,1.312 1.817,2.47c-0.201,2.781 -0.559,7.718 -0.727,10.039c-0.058,0.794 -0.512,1.506 -1.207,1.893c-1.769,0.985 -5.194,2.892 -6.902,3.843c-0.643,0.358 -1.416,0.396 -2.091,0.102c-1.954,-0.849 -6.086,-2.645 -8.156,-3.545Z" style="fill:#ffd500;"/><path d="M88.928,79.215c-0.783,-0.324 -1.332,-1.043 -1.438,-1.884c-0.233,-1.834 -0.657,-5.172 -0.99,-7.79c-0.103,-0.81 0.22,-1.615 0.853,-2.13c0.633,-0.515 1.487,-0.667 2.259,-0.402c2.084,0.717 4.605,1.584 6.194,2.131c0.937,0.322 1.574,1.196 1.594,2.187c0.038,1.966 0.105,5.308 0.156,7.883c0.016,0.798 -0.372,1.549 -1.031,1.999c-0.658,0.449 -1.499,0.536 -2.236,0.23c-1.841,-0.763 -4.018,-1.667 -5.361,-2.224Z" style="fill:#e6bf00;"/><path d="M95.946,68.595c1.234,0.427 2.582,0.389 3.791,-0.105c1.161,-0.475 2.685,-1.098 4.049,-1.656c0.474,-0.193 0.769,-0.67 0.731,-1.18c-0.038,-0.51 -0.399,-0.938 -0.896,-1.06c-2.576,-0.632 -5.841,-1.434 -7.174,-1.761c-0.399,-0.098 -0.816,-0.091 -1.211,0.022c-1.027,0.293 -3.193,0.91 -5.109,1.456c-0.496,0.142 -0.843,0.588 -0.857,1.104c-0.014,0.515 0.308,0.98 0.795,1.148c1.943,0.672 4.276,1.478 5.881,2.032Z" style="fill:#ffe666;"/></g></g></svg>
