<?xml version="1.0" encoding="UTF-8" standalone="no"?><!DOCTYPE svg PUBLIC "-//W3C//DTD SVG 1.1//EN" "http://www.w3.org/Graphics/SVG/1.1/DTD/svg11.dtd"><svg width="120px" height="90px" viewBox="0 0 120 90" version="1.1" xmlns="http://www.w3.org/2000/svg" xmlns:xlink="http://www.w3.org/1999/xlink" xml:space="preserve" style="fill-rule:evenodd;clip-rule:evenodd;stroke-linejoin:round;stroke-miterlimit:1.41421;"><g><path id="school-feat3-img" d="M43.883,45.262c-2.476,-3.77 -1.181,-10.842 4.278,-13.64c5.129,-2.629 11.878,-1.59 14.816,4.098c9.757,-6.071 18.935,1.615 17.023,9.948c8.712,4.069 6.082,15.183 -0.954,17.254c4.843,6.433 4.843,12.023 -0.65,17.732c-5.493,5.709 -14.747,4.026 -17.132,0.217c-0.795,2.168 -3.567,6.071 -9.059,5.131c-5.493,-0.939 -9.034,-4.434 -8.214,-9.807c-2.602,2.096 -8.698,2.963 -11.444,-0.723c-2.746,-3.686 -1.951,-10.143 3.422,-14.913c-4.336,-1.301 -5.276,-11.614 1.59,-14.433c2.279,-0.935 4.417,-1.122 6.324,-0.864ZM47.757,51.573c-2.811,-3.414 -8.958,-3.393 -11.03,0.061c-2.169,3.613 0.433,6.985 2.385,6.985c1.951,0 2.168,1.229 1.951,3.036c-4.77,-0.868 -10.624,5.254 -7.516,10.457c3.107,5.203 9.37,1.301 10.671,0.217c1.301,-1.084 3.324,-1.637 2.674,2.338c-0.651,3.975 2.312,7.01 5.42,7.083c3.108,0.072 6.891,-1.807 5.854,-5.565c1.229,-2.096 6.385,-0.868 7.614,2.168c1.229,3.035 6.624,3.83 11.899,-1.373c4.893,-4.827 3.57,-9.386 -1.203,-14.173c-0.856,4.884 -5.049,8.699 -8.444,9.789c4.095,-2.224 8.243,-9.84 3.51,-16.782c-4.732,-6.942 -15.814,-6.627 -20.584,-2.724c-4.77,3.902 -4.192,11.035 -1.591,14.793c2.602,3.759 10.841,6.169 15.756,2.122c4.914,-4.048 0.986,-12.55 -4.217,-13.345c-5.204,-0.795 -8.987,2.988 -5.879,4.939c3.107,1.952 5.037,0.192 5.687,-0.748c0.651,-0.939 3.061,-2.07 4.073,1.038c1.011,3.107 -4.192,5.611 -8.673,4.31c-4.481,-1.3 -6.985,-5.854 -5.467,-9.395c1.517,-3.541 7.469,-6.865 14.624,-1.373c7.155,5.493 5.033,13.923 2.143,16.163c-2.891,2.241 -13.276,6.216 -19.492,-0.866c-5.438,-6.198 -5.207,-14.238 -0.165,-19.155ZM76.627,61.373c6.447,-1.794 6.734,-6.804 4.966,-10.473c-1.883,-3.906 -7.472,-3.668 -8.654,-1.232c-0.723,-1.373 -1.662,-5.012 3.18,-6.53c-2.023,-10.552 -12.481,-3.512 -15.806,1.113c-1.301,-1.301 -2.03,-2.699 -0.874,-5.59c1.157,-2.89 -5.156,-8.289 -10.288,-3.086c-5.131,5.203 0.481,10.118 3.878,6.288c1.357,2.574 -0.667,5.058 -3.557,5.47c0.795,0.547 1.286,1.185 1.795,1.738c7.62,-3.989 18.268,-2.666 23.587,5.995c1.336,2.176 1.843,4.312 1.773,6.307Z" style="fill:#ff1080;"/><path id="school-feat3-title" d="M16.66,6.001c0.685,0.266 1.832,0.714 3.454,2.14c0.448,0.406 0.644,0.588 1.035,0.588c0.63,0 1.021,-0.602 1.021,-1.105c0,-0.42 -0.112,-0.742 -1.734,-1.469c-1.231,-0.559 -2.685,-0.993 -3.776,-1.189l0,-3.119c0,-0.321 0,-0.979 -1.049,-0.979c-1.021,0 -1.021,0.714 -1.021,0.979l0,10.182c0,0.308 0,0.965 1.049,0.965c1.021,0 1.021,-0.699 1.021,-0.979l0,-6.014Z" style="fill:#231f20;fill-rule:nonzero;"/><path d="M27.261,1.666c-0.307,0 -0.545,0.126 -0.545,0.447c0,0.308 0.238,0.448 0.545,0.448l7.217,0c0.546,0 0.546,-0.378 0.546,-0.448c0,-0.056 0,-0.447 -0.546,-0.447l-7.217,0ZM25.793,4.589c-0.154,0 -0.546,0.028 -0.546,0.447c0,0.336 0.266,0.448 0.546,0.448l7.692,0c0.196,0 0.378,0.112 0.378,0.405c0,0.28 -0.182,1.329 -0.602,2.182c-0.979,2 -2.517,3.021 -5.077,3.441c-0.475,0.07 -0.755,0.126 -0.755,0.517c0,0.238 0.196,0.448 0.476,0.448c0.139,0 0.755,-0.07 0.993,-0.112c2.419,-0.392 3.79,-1.343 4.335,-1.734c2.895,-2.084 2.909,-4.937 2.909,-4.965c0,-0.714 -0.461,-1.077 -1.021,-1.077l-9.328,0Z" style="fill:#231f20;fill-rule:nonzero;"/><path d="M46.296,4.771c0.42,-0.322 1.077,-0.826 1.833,-1.553c0.909,-0.867 1.035,-1.077 1.035,-1.44c0,-0.56 -0.56,-1.105 -1.231,-1.105c-0.546,0 -0.783,0.335 -1.105,0.797c-0.699,0.979 -3.175,4.042 -7.986,5.524c-0.182,0.056 -0.42,0.126 -0.42,0.42c0,0.224 0.182,0.434 0.406,0.434c0.21,0 1.217,-0.28 1.58,-0.378c0.672,-0.182 2.042,-0.574 3.819,-1.483l0,6.252c0,0.322 0,0.965 1.048,0.965c1.021,0 1.021,-0.699 1.021,-0.965l0,-7.468Z" style="fill:#231f20;fill-rule:nonzero;"/><path d="M62.451,9.498c0.251,-0.406 0.741,-1.245 0.741,-1.874c0,-0.616 -0.532,-0.951 -1.077,-0.951c-0.448,0 -0.839,0.209 -1.007,0.517c-0.042,0.07 -0.182,0.686 -0.21,0.797l-2.252,-2.251c1.581,-0.77 2.448,-1.287 2.448,-2.658c0,-2.168 -2.504,-2.168 -3.021,-2.168c-0.504,0 -3.329,0.014 -3.329,2.336c0,1.007 0.504,1.804 1.175,2.699c-1.636,0.896 -2.685,1.651 -2.685,3.413c0,2.49 1.958,3.105 4.014,3.105c2,0 2.937,-0.713 3.748,-1.357l0.965,1.007c0.126,0.14 0.336,0.35 0.671,0.35c0.644,0 1.231,-0.601 1.231,-1.203c0,-0.335 -0.224,-0.559 -0.363,-0.699l-1.049,-1.063ZM57.821,4.938c-0.601,-0.713 -0.979,-1.188 -0.979,-1.986c0,-0.559 0.21,-1.147 1.063,-1.147c0.937,0 1.091,0.784 1.091,1.245c0,1.021 -0.657,1.525 -1.175,1.888ZM59.961,10.057c-0.657,0.784 -1.329,1.497 -2.559,1.497c-1.413,0 -1.973,-0.881 -1.973,-2.238c0,-0.559 0.056,-1.748 1.287,-2.573l3.245,3.314Z" style="fill:#231f20;fill-rule:nonzero;"/><path d="M73.01,3.176l3.525,0c0.168,0 0.545,-0.042 0.545,-0.447c0,-0.07 0,-0.448 -0.545,-0.448l-9.147,0c-0.308,0 -0.546,0.126 -0.546,0.448c0,0.307 0.238,0.447 0.546,0.447l3.51,0l0,7.511l-4.447,0c-0.546,0 -0.546,0.377 -0.546,0.447c0,0.322 0.252,0.448 0.546,0.448l11.021,0c0.168,0 0.545,-0.042 0.545,-0.448c0,-0.07 0,-0.447 -0.545,-0.447l-4.462,0l0,-7.511Z" style="fill:#231f20;fill-rule:nonzero;"/><path d="M82.087,1.666c-0.307,0 -0.545,0.126 -0.545,0.447c0,0.308 0.238,0.448 0.545,0.448l7.217,0c0.546,0 0.546,-0.378 0.546,-0.448c0,-0.056 0,-0.447 -0.546,-0.447l-7.217,0ZM80.619,4.589c-0.154,0 -0.546,0.028 -0.546,0.447c0,0.336 0.266,0.448 0.546,0.448l7.692,0c0.196,0 0.378,0.112 0.378,0.405c0,0.28 -0.182,1.329 -0.602,2.182c-0.979,2 -2.517,3.021 -5.077,3.441c-0.475,0.07 -0.755,0.126 -0.755,0.517c0,0.238 0.196,0.448 0.476,0.448c0.139,0 0.755,-0.07 0.993,-0.112c2.419,-0.392 3.79,-1.343 4.335,-1.734c2.896,-2.084 2.91,-4.937 2.91,-4.965c0,-0.714 -0.462,-1.077 -1.021,-1.077l-9.329,0Z" style="fill:#231f20;fill-rule:nonzero;"/><path d="M93.71,6.323c-0.532,0 -0.574,0.49 -0.574,0.601c0,0.168 0.084,0.588 0.574,0.588l11.329,0c0.363,0 0.573,-0.252 0.573,-0.602c0,-0.139 -0.084,-0.587 -0.573,-0.587l-11.329,0Z" style="fill:#231f20;fill-rule:nonzero;"/></g></svg>
