<?xml version="1.0" encoding="UTF-8" standalone="no"?><!DOCTYPE svg PUBLIC "-//W3C//DTD SVG 1.1//EN" "http://www.w3.org/Graphics/SVG/1.1/DTD/svg11.dtd"><svg width="120px" height="90px" viewBox="0 0 120 90" version="1.1" xmlns="http://www.w3.org/2000/svg" xmlns:xlink="http://www.w3.org/1999/xlink" xml:space="preserve" style="fill-rule:evenodd;clip-rule:evenodd;stroke-linejoin:round;stroke-miterlimit:1.41421;"><g id="school-feat5-img"><path d="M101.822,80.533c-5.209,1.997 -13.088,1.194 -15.651,-5.365c-2.562,-6.56 7.277,-6.904 8.405,-2.291c1.127,4.612 1.711,6.667 7.246,7.656Z" style="fill:#fa0;"/><ellipse cx="72.39" cy="61.515" rx="30.614" ry="19.182" style="fill:#fa0;"/><path d="M76.558,43.744c-14.16,-1.484 -26.33,3.736 -27.159,11.648c-0.829,7.913 9.994,15.542 24.154,17.026c14.161,1.484 26.33,-3.736 27.159,-11.648c0.829,-7.913 -9.994,-15.542 -24.154,-17.026Z" style="fill:#fc6;"/><path d="M65.854,55.14c-3.272,0 -5.628,2.682 -5.628,6.821c0,4.172 2.372,6.822 5.628,6.822c3.255,0 5.627,-2.65 5.627,-6.822c0,-4.139 -2.339,-6.821 -5.627,-6.821ZM65.854,56.432c1.177,0 2.372,0.393 2.372,5.529c0,5.235 -1.244,5.529 -2.372,5.529c-1.178,0 -2.356,-0.392 -2.356,-5.529c0,-5.251 1.243,-5.529 2.356,-5.529Z" style="fill:#fff;fill-rule:nonzero;"/><path d="M75.243,59.606l-0.196,1.079c-0.065,0.344 0.294,0.769 0.949,0.769c0.703,0 0.998,-0.458 0.949,-0.769l-0.197,-1.079l0.851,0.703c0.114,0.098 0.213,0.114 0.36,0.114c0.458,0 0.949,-0.605 0.949,-1.112c0,-0.262 -0.131,-0.54 -0.377,-0.638l-1.03,-0.376l1.047,-0.376c0.327,-0.115 0.36,-0.524 0.36,-0.622c0,-0.491 -0.442,-1.129 -0.982,-1.129c-0.131,0 -0.245,0.049 -0.327,0.115l-0.851,0.703l0.197,-1.079c0.065,-0.344 -0.295,-0.769 -0.949,-0.769c-0.704,0 -0.998,0.458 -0.949,0.769l0.196,1.079l-0.834,-0.703c-0.098,-0.082 -0.213,-0.115 -0.376,-0.115c-0.458,0 -0.933,0.606 -0.933,1.129c0,0.229 0.098,0.523 0.36,0.622l1.031,0.376l-1.031,0.376c-0.278,0.098 -0.36,0.376 -0.36,0.622c0,0.49 0.426,1.128 0.965,1.128c0.131,0 0.262,-0.032 0.344,-0.114l0.834,-0.703Z" style="fill:#fff;fill-rule:nonzero;"/><path d="M86.547,56.547c0.343,0.081 1.21,0.294 1.456,1.75c0.196,1.145 1.407,1.145 1.57,1.145c0.802,0 1.538,-0.474 1.538,-1.211c0,-0.654 -0.998,-2.846 -4.564,-3.059l0,-0.392c0,-0.425 -0.327,-0.704 -0.687,-0.704c-0.327,0 -0.671,0.262 -0.671,0.704l0,0.392c-2.077,0.115 -4.531,0.835 -4.531,3.632c0,2.388 1.701,3.239 4.531,4.4l0,4.188c-0.327,-0.082 -1.374,-0.343 -1.554,-2.061c-0.049,-0.376 -0.164,-1.358 -1.587,-1.358c-0.818,0 -1.554,0.458 -1.554,1.227c0,0.245 0.458,3.125 4.695,3.55l0,0.752c0,0.426 0.327,0.704 0.687,0.704c0.327,0 0.671,-0.262 0.671,-0.704l0,-0.719c2.568,-0.115 4.924,-0.966 4.924,-3.779c0,-1.587 -0.769,-2.405 -1.374,-2.896c-0.687,-0.572 -0.982,-0.687 -3.55,-1.815l0,-3.746ZM86.547,63.793c1.096,0.524 1.652,1.178 1.652,2.012c0,1.293 -1.014,1.554 -1.652,1.653l0,-3.665ZM85.189,59.687c-1.309,-0.605 -1.456,-1.096 -1.456,-1.717c0,-1.227 0.884,-1.407 1.456,-1.489l0,3.206Z" style="fill:#fff;fill-rule:nonzero;"/><path d="M17.232,75.101c5.209,1.997 13.089,1.194 15.651,-5.366c2.563,-6.559 -7.277,-6.903 -8.404,-2.291c-1.127,4.613 -1.712,6.668 -7.247,7.657Z" style="fill:#ff60aa;"/><ellipse cx="46.664" cy="56.083" rx="30.614" ry="19.182" style="fill:#ff60aa;"/><path d="M42.497,38.312c14.16,-1.484 26.329,3.735 27.159,11.648c0.829,7.913 -9.994,15.542 -24.155,17.026c-14.16,1.483 -26.329,-3.736 -27.159,-11.649c-0.829,-7.912 9.994,-15.541 24.155,-17.025Z" style="fill:#ff85be;"/><path d="M33.216,49.55c0.082,-0.933 -0.769,-1.44 -1.603,-1.44c-0.949,0 -1.701,0.556 -1.619,1.44l0.605,7.05c0.065,0.687 0.344,0.998 1.031,0.998c0.85,0 0.932,-0.687 0.965,-0.998l0.621,-7.05ZM31.597,58.285c-0.949,0.017 -1.734,0.785 -1.734,1.734c0,0.965 0.785,1.734 1.734,1.734c0.949,0 1.734,-0.769 1.734,-1.734c0,-0.965 -0.785,-1.75 -1.734,-1.734Z" style="fill:#fff;fill-rule:nonzero;"/><path d="M40.25,51.153l0.311,-2.143c0.017,-0.065 0.033,-0.164 0.033,-0.245c0,-0.36 -0.425,-0.655 -0.867,-0.655c-0.654,0 -0.72,0.409 -0.753,0.671l-0.343,2.372l-1.423,0c-0.262,0 -1.145,0 -1.145,1.21c0,0.753 0.392,1.178 1.145,1.178l1.063,0l-0.409,2.798l-1.521,0c-0.262,0 -1.145,0 -1.145,1.21c0,0.753 0.392,1.161 1.145,1.161l1.178,0l-0.328,2.16c-0.016,0.082 -0.016,0.18 -0.016,0.245c0,0.36 0.409,0.638 0.867,0.638c0.654,0 0.72,-0.392 0.753,-0.654l0.343,-2.389l2.274,0l-0.311,2.16c-0.016,0.098 -0.033,0.18 -0.033,0.245c0,0.36 0.426,0.638 0.867,0.638c0.655,0 0.72,-0.392 0.753,-0.654l0.36,-2.389l1.406,0c0.262,0 1.146,0 1.146,-1.194c0,-0.769 -0.393,-1.177 -1.146,-1.177l-1.063,0l0.409,-2.798l1.521,0c0.262,0 1.146,0 1.146,-1.21c0,-0.753 -0.393,-1.178 -1.146,-1.178l-1.161,0l0.311,-2.143c0.016,-0.065 0.033,-0.18 0.033,-0.245c0,-0.36 -0.426,-0.655 -0.867,-0.655c-0.671,0 -0.72,0.409 -0.753,0.671l-0.36,2.372l-2.274,0ZM42.181,53.541l-0.426,2.798l-2.273,0l0.425,-2.798l2.274,0Z" style="fill:#fff;fill-rule:nonzero;"/><path d="M50.065,58.285c-0.948,0.017 -1.734,0.785 -1.734,1.734c0,0.965 0.786,1.734 1.734,1.734c0.949,0 1.734,-0.769 1.734,-1.734c0,-0.965 -0.785,-1.75 -1.734,-1.734Z" style="fill:#fff;fill-rule:nonzero;"/><path d="M58.326,57.598c1.244,0 1.374,-0.801 1.473,-1.341c0.196,-1.162 0.997,-1.783 1.063,-1.832c1.489,-1.162 2.29,-1.783 2.29,-3.19c0,-2.961 -3.55,-3.125 -4.417,-3.125c-2.846,0 -4.793,1.342 -4.793,2.863c0,0.752 0.606,1.21 1.424,1.21c1.308,0 1.406,-0.916 1.455,-1.292c0.115,-1.047 0.573,-1.57 1.702,-1.57c1.374,0 1.668,1.063 1.668,1.587c0,0.736 -0.229,0.916 -1.096,1.668c-0.572,0.474 -2.175,1.881 -2.175,3.713c0,1.047 0.67,1.309 1.406,1.309ZM58.326,58.285c-0.965,0.017 -1.734,0.785 -1.734,1.734c0,0.965 0.769,1.734 1.734,1.734c0.949,0 1.734,-0.769 1.734,-1.734c0,-0.965 -0.785,-1.734 -1.734,-1.734Z" style="fill:#fff;fill-rule:nonzero;"/><g id="school-feat5-title" transform="matrix(0.239764,-2.17095e-27,2.01948e-27,0.239764,-1775.64,-1863.51)"><path d="M7451.51,7817.73l0,5.192c0,1.108 -0.35,1.75 -1.692,1.75l-3.325,0c-0.583,0 -1.983,0.116 -1.983,1.575c0,1.516 1.342,1.633 1.983,1.633l6.709,0c4.491,0 6.066,-2.508 6.066,-5.6l0,-17.267c0,-3.15 -1.633,-5.6 -6.066,-5.6l-17.384,0c-4.55,0 -6.066,2.509 -6.066,5.6l0,18.609c0,2.275 0,4.9 3.85,4.9c3.85,0 3.85,-2.742 3.85,-4.9l0,-5.892l14.058,0ZM7437.45,7814.53l0,-4.375l14.058,0l0,4.375l-14.058,0ZM7437.45,7806.88l0,-2.508c0,-1.109 0.291,-1.75 1.691,-1.75l10.675,0c1.342,0 1.692,0.583 1.692,1.75l0,2.508l-14.058,0ZM7428.76,7792.83c-0.642,0 -1.983,0.116 -1.983,1.575c0,1.516 1.4,1.633 1.983,1.633l31.733,0c0.642,0 1.984,-0.175 1.984,-1.575c0,-1.517 -1.342,-1.633 -1.984,-1.633l-11.9,0l0,-4.2l8.75,0c0.7,0 1.984,-0.175 1.984,-1.634c0,-1.458 -1.342,-1.633 -1.984,-1.633l-8.75,0l0,-3.675l10.5,0c0.7,0 1.984,-0.175 1.984,-1.575c0,-1.458 -1.342,-1.633 -1.984,-1.633l-10.5,0c0,-1.517 0,-4.667 -4.025,-4.667c-1.283,0 -4.025,0.35 -4.025,4.025l0,0.642l-10.5,0c-0.641,0 -1.983,0.116 -1.983,1.633c0,1.458 1.4,1.575 1.983,1.575l10.5,0l0,3.675l-8.341,0c-0.642,0 -1.984,0.175 -1.984,1.633c0,1.517 1.4,1.634 1.984,1.634l8.341,0l0,4.2l-11.783,0ZM7430.86,7789.68c0,-1.4 -2.333,-4.609 -3.5,-6.067c-1.342,-1.692 -1.692,-1.925 -2.275,-1.925c-0.875,0 -1.633,0.7 -1.633,1.517c0,0.175 0,0.408 0.116,0.7c0.817,2.041 1.05,3.15 1.342,4.375c0.758,3.616 0.875,4.258 2.683,4.258c1.517,0 3.267,-1.167 3.267,-2.858ZM7423.1,7778.77c0,-2.333 0,-4.9 -3.734,-4.9c-3.675,0 -3.675,2.625 -3.675,4.9l0,44.8c0,2.392 0,4.959 3.734,4.959c3.675,0 3.675,-2.684 3.675,-4.959l0,-44.8ZM7410.97,7806.59c1.4,0 1.809,-1.108 1.984,-1.866c0.466,-1.75 1.05,-6.65 1.05,-13.067c0,-6.183 -0.117,-7 -1.867,-7c-1.342,0 -1.458,1.108 -1.517,1.575c-0.816,7.058 -1.05,8.225 -1.341,9.625c-0.234,1.05 -1.634,6.125 -1.634,7.292c0,1.925 1.342,3.441 3.325,3.441Z" style="fill:#231f20;fill-rule:nonzero;"/><path d="M7498.47,7780.81c0,-1.108 0.234,-1.517 1.517,-1.517l6.767,0c0.758,0 1.633,0 1.633,1.459c0,0.233 0,3.033 -0.467,6.416c-0.291,1.984 -0.641,2.859 -2.741,2.859l-2.742,0c-0.7,0 -1.983,0.175 -1.983,1.575c0,1.458 1.341,1.633 1.983,1.633l5.775,0c4.958,0 8.167,-0.758 8.167,-12.483c0,-4.667 -4.2,-4.725 -5.309,-4.725l-15.108,0c-2.975,0 -5.133,1.283 -5.133,4.433l0,43.108c0,1.867 0,4.959 3.733,4.959c3.908,0 3.908,-2.975 3.908,-4.959l0,-18.316c0.7,3.266 2.917,8.925 6.184,13.241c-1.925,3.384 -3.734,4.959 -5.192,6.242c-0.292,0.233 -0.7,0.583 -0.7,1.342c0,0.933 0.758,1.633 1.575,1.633c1.108,0 4.608,-2.508 7.525,-5.6c3.792,3.792 8.05,5.775 9.042,5.775c0.758,0 1.575,-0.7 1.575,-1.692c0,-0.875 -0.584,-1.283 -0.992,-1.516c-2.975,-1.984 -4.55,-3.384 -6.65,-6.242c3.5,-5.133 6.067,-12.542 6.067,-18.433c0,-2.042 -1.575,-3.675 -4.2,-3.675l-14.234,0l0,-15.517ZM7498.47,7799.59l9.1,0c0.817,0 1.167,0.409 1.167,1.225c0,3.559 -0.467,7.467 -1.517,11.317c-0.933,-2.158 -1.633,-4.667 -1.983,-6.767c-0.525,-3.208 -0.992,-4.141 -3.15,-4.141c-1.4,0 -3.267,0.641 -3.617,2.741l0,-4.375ZM7481.09,7807.35l7.292,0c0.641,0 1.925,-0.175 1.925,-1.634c0,-1.4 -1.225,-1.633 -1.925,-1.633l-6.884,0c2.917,-1.692 6.534,-5.483 6.534,-7.467c0,-2.041 -2.742,-3.15 -4.317,-3.15c-1.342,0 -2.45,0.642 -2.742,1.634c-0.291,0.933 -0.875,3.441 -1.05,4.141c-0.175,0.525 -1.225,3.325 -1.225,3.734c0,0.35 0.117,0.816 0.642,1.108l-13.883,0c-0.642,0 -1.984,0.175 -1.984,1.633c0,1.4 1.284,1.634 1.984,1.634l7.816,0l0,6.125l-6.883,0c-0.642,0 -1.983,0.175 -1.983,1.633c0,1.4 1.283,1.575 1.983,1.575l6.883,0l0,6.883c0,2.275 0,4.959 3.909,4.959c3.908,0 3.908,-2.917 3.908,-4.959l0,-6.883l6.417,0c0.641,0 1.983,-0.117 1.983,-1.575c0,-1.458 -1.225,-1.633 -1.983,-1.633l-6.417,0l0,-6.125ZM7467.49,7793.41c-0.35,0.233 -0.7,0.758 -0.7,1.225c0,0.292 0.292,0.933 0.467,1.4c0.642,1.517 0.933,2.683 1.283,4.2c0.584,2.742 0.817,3.792 3.267,3.792c2.333,0 4.025,-1.517 4.025,-3.15c0,-1.984 -3.967,-5.892 -6.417,-7.467l18.959,0c0.641,0 1.925,-0.175 1.925,-1.633c0,-1.4 -1.225,-1.634 -1.925,-1.634l-7.292,0l0,-5.95l6.417,0c0.641,0 1.983,-0.175 1.983,-1.633c0,-1.4 -1.225,-1.633 -1.983,-1.633l-6.417,0l0,-1.925c0,-2.334 0,-4.959 -3.967,-4.959c-3.85,0 -3.85,2.684 -3.85,4.959l0,1.925l-6.475,0c-0.7,0 -1.983,0.175 -1.983,1.633c0,1.4 1.225,1.633 1.983,1.633l6.475,0l0,5.95l-7.875,0c-0.641,0 -1.983,0.175 -1.983,1.634c0,1.458 1.283,1.633 1.983,1.633l2.1,0Z" style="fill:#231f20;fill-rule:nonzero;"/><path d="M7537.09,7780.4c0,-1.284 0,-4.084 -4.375,-4.084c-4.258,0 -4.258,2.975 -4.258,4.084l0,24.325c0,1.225 0,4.083 4.375,4.083c4.258,0 4.258,-3.033 4.258,-4.142l0,-24.266ZM7563.4,7779.99c0,-1.283 0,-4.083 -4.375,-4.083c-4.258,0 -4.258,2.975 -4.258,4.083l0,16.859c0,11.491 -0.817,22.75 -16.683,26.016c-0.875,0.175 -2.159,0.467 -2.159,2.042c0,1.167 0.992,1.867 1.925,1.867c1.167,0 11.842,-1.4 18.084,-6.825c5.891,-5.192 7.466,-13.3 7.466,-23.859l0,-16.1Z" style="fill:#231f20;fill-rule:nonzero;"/><path d="M7585.33,7778.42c-2.275,0 -2.275,1.575 -2.275,1.867c0,0.233 0,1.867 2.275,1.867l30.158,0c1.283,0 2.275,-0.525 2.275,-1.867c0,-1.283 -0.992,-1.867 -2.275,-1.867l-30.158,0ZM7596.12,7796.44c-0.058,11.55 -0.116,21.584 -13.475,25.259c-1.341,0.35 -2.45,0.641 -2.45,2.158c0,0.875 0.7,1.867 1.925,1.867c0.117,0 8.225,-1.109 14.467,-5.484c8.633,-6.125 8.75,-14.875 8.808,-23.8l18.025,0c0.642,0 2.275,-0.116 2.275,-1.866c0,-1.342 -1.108,-1.809 -2.275,-1.809l-46.2,0c-0.641,0 -2.275,0.117 -2.275,1.867c0,1.342 1.109,1.808 2.275,1.808l18.9,0Z" style="fill:#231f20;fill-rule:nonzero;"/><path d="M7639.69,7779.23c-1.283,0 -2.275,0.525 -2.275,1.867c0,1.283 0.992,1.866 2.275,1.866l30.1,0c2.275,0 2.275,-1.575 2.275,-1.866c0,-0.234 0,-1.867 -2.275,-1.867l-30.1,0ZM7633.57,7791.43c-0.641,0 -2.275,0.116 -2.275,1.866c0,1.4 1.109,1.867 2.275,1.867l32.084,0c0.816,0 1.575,0.467 1.575,1.692c0,1.166 -0.759,5.541 -2.509,9.1c-4.083,8.341 -10.5,12.6 -21.175,14.35c-1.983,0.291 -3.15,0.525 -3.15,2.158c0,0.992 0.817,1.867 1.984,1.867c0.583,0 3.15,-0.292 4.141,-0.467c10.092,-1.633 15.809,-5.6 18.084,-7.233c12.075,-8.692 12.133,-20.592 12.133,-20.709c0,-2.975 -1.925,-4.491 -4.258,-4.491l-38.909,0Z" style="fill:#231f20;fill-rule:nonzero;"/><path d="M7706.66,7788.98c2.1,0 4.083,-2.042 4.083,-4.375c0,-1.634 -0.641,-2.8 -5.716,-5.075c-1.109,-0.525 -8.459,-3.5 -9.8,-3.5c-1.225,0 -1.984,0.991 -1.984,1.983c0,0.467 0.059,1.167 1.517,1.983c1.867,1.05 3.733,2.159 7.583,5.95c2.742,2.742 3.034,3.034 4.317,3.034ZM7700.77,7802.86c1.925,0 4.025,-1.867 4.025,-4.258c0,-2.917 -2.333,-3.617 -7.116,-5.192c-4.784,-1.517 -9.917,-2.1 -9.975,-2.1c-2.042,0 -2.275,1.4 -2.275,1.867c0,1.4 0.875,1.75 2.45,2.391c2.975,1.225 6.008,3.092 8.75,5.017c2.858,2.042 3.15,2.275 4.141,2.275ZM7688.69,7820.24c0,0.35 0.35,4.609 4.2,4.609c0.409,0 14.584,-2.217 25.9,-11.842c10.15,-8.633 15.167,-21.058 15.167,-21.7c0,-0.875 -0.817,-1.808 -1.983,-1.808c-0.992,0 -1.225,0.35 -3.267,3.441c-9.217,14.292 -21.467,21.059 -35.058,22.692c-2.8,0.35 -4.959,0.7 -4.959,4.608Z" style="fill:#231f20;fill-rule:nonzero;"/><path d="M7739.5,7798.66c-2.217,0 -2.392,2.042 -2.392,2.508c0,0.7 0.35,2.45 2.392,2.45l47.25,0c1.516,0 2.391,-1.05 2.391,-2.508c0,-0.583 -0.35,-2.45 -2.391,-2.45l-47.25,0Z" style="fill:#231f20;fill-rule:nonzero;"/><path d="M7805.94,7791.89l0,-7.641l2.275,0c0.642,0 1.925,-0.175 1.925,-1.634c0,-1.4 -1.225,-1.633 -1.925,-1.633l-2.275,0l0,-2.217c0,-2.275 0,-4.841 -3.791,-4.841c-3.675,0 -3.675,2.625 -3.675,4.841l0,2.217l-4.375,0c-1.109,0 -1.984,0.525 -1.984,1.633c0,1.459 1.284,1.634 1.984,1.634l4.375,0l0,7.641l-6.3,0c-0.642,0 -1.984,0.175 -1.984,1.634c0,1.4 1.284,1.575 1.984,1.575l11.841,0c-4.841,6.125 -10.441,9.916 -13.183,11.666c-0.467,0.292 -0.875,0.642 -0.875,1.4c0,0.7 0.583,1.575 1.633,1.575c0.875,0 6.125,-3.266 9.625,-5.95l4.9,0c0.35,0 0.467,0.175 0.467,0.409c0,0.291 -0.875,1.925 -1.517,2.975c-3.85,-0.059 -3.85,2.625 -3.85,4.783l0,1.108c-1.575,0.117 -8.633,0.642 -9.741,0.817c-1.225,0.175 -1.809,0.992 -1.809,2.392c0,1.225 0.525,3.441 2.859,3.441c1.4,0 6.941,-1.05 8.691,-1.341l0,4.841c0,1.225 -0.233,1.575 -1.516,1.575l-2.742,0c-0.642,0 -1.983,0.175 -1.983,1.634c0,1.4 1.283,1.575 1.983,1.575l6.475,0c2.625,0 5.133,-0.934 5.133,-4.434l0,-6.883c4.55,-1.167 9.509,-2.917 9.917,-3.267c0.467,-0.408 0.525,-0.641 0.525,-0.933c0,-0.992 -0.817,-1.75 -1.633,-1.75c-0.292,0 -0.759,0.117 -0.875,0.117c-3.092,0.7 -6.884,1.225 -7.934,1.341c0,-1.166 0,-1.983 -0.116,-2.683c2.45,-1.925 7.466,-5.833 7.466,-7.233c0,-1.109 -0.7,-1.75 -2.741,-1.75l-7.992,0c3.033,-2.625 5.308,-5.134 5.542,-5.425l4.491,0c0.642,0 1.984,-0.117 1.984,-1.575c0,-1.459 -1.284,-1.634 -1.984,-1.634l-1.691,0c3.091,-3.733 6.358,-8.866 6.358,-10.675c0,-1.866 -2.625,-3.208 -4.725,-3.208c-1.575,0 -2.45,0.875 -2.917,2.1c-2.041,5.483 -2.683,7.233 -5.833,11.783l-0.467,0ZM7842.46,7789.21c0.7,0 1.983,-0.233 1.983,-1.633c0,-1.459 -1.341,-1.634 -1.983,-1.634l-14.058,0c0.875,-1.575 3.5,-6.591 3.5,-8.4c0,-2.216 -2.742,-3.5 -5.134,-3.5c-3.033,0 -3.383,1.75 -3.616,3.034c-0.992,4.783 -2.625,12.25 -7.409,21.233c-0.35,0.7 -0.408,0.875 -0.408,1.108c0,0.934 0.758,1.634 1.633,1.634c0.7,0 1.05,-0.292 3.092,-2.742c0.292,5.25 2.158,11.55 6.3,17.5c-4.258,5.717 -10.5,8.4 -13.242,9.45c-0.641,0.233 -1.575,0.583 -1.575,1.692c0,1.108 0.934,1.633 1.575,1.633c0.584,0 3.617,-0.817 5.95,-1.867c5.017,-2.216 8.517,-5.016 10.675,-6.883c5.659,6.008 12.484,8.575 13.417,8.575c0.875,0 1.575,-0.758 1.575,-1.633c0,-0.467 -0.233,-0.934 -0.7,-1.225c-5.192,-3.325 -7.35,-4.842 -10.617,-9.567c5.075,-6.358 7.35,-16.625 7.525,-26.775l1.517,0ZM7832.49,7789.21c0,7.7 -0.7,14.35 -2.508,19.717c-1.692,-4.9 -1.809,-6.767 -2.275,-12.6c-0.117,-1.167 -0.292,-3.384 -3.5,-3.5c0.7,-0.992 1.458,-2.159 2.391,-3.617l5.892,0Z" style="fill:#231f20;fill-rule:nonzero;"/><path d="M7861.54,7805.78l0,-2.917c0,-1.05 0.35,-1.692 1.692,-1.692l18.783,0c1.342,0 1.692,0.584 1.692,1.692l0,2.917l-22.167,0ZM7883.7,7816.86l0,5.6c0,1.4 -0.409,2.275 -2.275,2.275l-5.309,0c-0.641,0 -1.983,0.175 -1.983,1.633c0,1.4 1.225,1.575 1.983,1.575l9.567,0c4.492,0 6.067,-2.508 6.067,-5.6l0,-18.783c0,-3.15 -1.634,-5.6 -6.067,-5.6l-25.9,0c-4.492,0 -6.067,2.508 -6.067,5.6l0,20.358c0,1.692 0,4.609 3.967,4.609c3.85,0 3.85,-2.742 3.85,-4.609l0,-7.058l22.167,0ZM7861.54,7813.65l0,-4.667l22.167,0l0,4.667l-22.167,0ZM7897.94,7782.5c0.7,0 1.983,-0.175 1.983,-1.575c0,-1.517 -1.341,-1.634 -1.983,-1.634l-21.175,0l0,-1.808c0,-2.508 -1.75,-3.675 -3.967,-3.675c-2.391,0 -3.966,1.167 -3.966,3.675l0,1.808l-21.234,0c-0.7,0 -1.983,0.175 -1.983,1.575c0,1.459 1.342,1.634 1.983,1.634l16.159,0c-1.692,2.625 -4.375,5.891 -7,8.633c-4.2,0.117 -7.934,-0.058 -8.809,0.175c-1.05,0.233 -1.691,1.283 -1.691,2.567c0,0.933 0.525,2.8 2.508,2.8c4.608,0 32.2,-2.917 37.858,-3.617c1.167,1.283 2.917,3.442 4.142,4.667c0.817,0.816 1.808,0.875 2.275,0.875c2.275,0 4.608,-2.334 4.608,-4.492c0,-1.458 -0.408,-2.508 -4.9,-5.075c-4.958,-2.8 -11.375,-5.133 -12.133,-5.133c-0.817,0 -1.633,0.641 -1.633,1.633c0,0.467 0.233,0.992 0.583,1.283c0.7,0.584 3.208,2.567 3.733,3.034c-8.516,0.641 -9.625,0.641 -19.658,1.05c5.367,-4.667 6.008,-5.192 7.35,-6.592c0.525,-0.583 0.875,-1.167 0.933,-1.808l26.017,0Z" style="fill:#231f20;fill-rule:nonzero;"/></g></g></svg>
