<?xml version="1.0" encoding="UTF-8" standalone="no"?><!DOCTYPE svg PUBLIC "-//W3C//DTD SVG 1.1//EN" "http://www.w3.org/Graphics/SVG/1.1/DTD/svg11.dtd"><svg width="120px" height="90px" version="1.1" xmlns="http://www.w3.org/2000/svg" xmlns:xlink="http://www.w3.org/1999/xlink" xml:space="preserve" style="fill-rule:evenodd;clip-rule:evenodd;stroke-linejoin:round;stroke-miterlimit:1.41421;"><g id="school-feat6-img"><path d="M44.327,77.628c0,0 12.064,-4.165 13.414,-4.671c1.351,-0.506 1.613,-1.238 0.319,-1.801c-1.295,-0.563 -3.678,-1.334 -3.847,-3.247c-0.169,-1.914 -14.166,3.34 -14.222,5.31c-0.056,1.97 -0.507,2.27 0.563,3.565c1.069,1.295 2.369,1.275 3.773,0.844Z" style="fill:#ff60aa;"/><g><path d="M69.218,69.67c1.752,0.571 2.992,2.136 3.147,3.972c0.156,1.836 -0.802,3.587 -2.433,4.446c-6.134,3.165 -13,6.355 -19.217,8.862c-4.106,1.587 -8.745,0.884 -12.197,-1.848c-0.094,-0.129 -0.209,-0.228 -0.323,-0.327c-0.728,-0.587 -1.083,-1.52 -0.93,-2.442c0.153,-0.922 0.792,-1.691 1.67,-2.01c8.158,-2.975 26.043,-9.476 29.251,-10.643c0.329,-0.119 0.689,-0.126 1.021,-0.017c0.003,0.004 0.007,0.005 0.011,0.007Z" style="fill:#ff9ecb;"/><path d="M74.297,72.224c0.39,0.181 0.645,0.567 0.657,0.997c0.012,0.43 -0.22,0.829 -0.599,1.032c-6.981,3.646 -18.256,8.802 -27.123,12.145c-1.974,0.721 -4.184,0.314 -5.772,-1.062c-1.23,-1.068 -2.569,-2.236 -3.448,-3.002c-0.203,-0.178 -0.298,-0.45 -0.249,-0.715c0.05,-0.266 0.236,-0.486 0.489,-0.578c5.355,-1.957 26.749,-9.774 30.053,-10.981c0.278,-0.102 0.583,-0.097 0.857,0.013c0.925,0.373 3.193,1.294 5.135,2.151Z" style="fill:#ffdfee;"/><path d="M43.393,80.205c-0.157,-0.166 -0.445,-0.242 -0.643,-0.17l-1.466,0.536c-0.198,0.072 -0.23,0.265 -0.072,0.431l0.57,0.602c0.158,0.166 0.446,0.243 0.643,0.171l1.467,-0.536c0.197,-0.072 0.229,-0.266 0.072,-0.432l-0.571,-0.602Z" style="fill:#ffb3d7;"/><path d="M62.819,72.994c-0.28,-0.122 -0.347,-0.279 -0.149,-0.351l1.466,-0.536c0.197,-0.072 0.585,-0.032 0.865,0.09l1.014,0.44c0.28,0.121 0.347,0.278 0.149,0.35l-1.466,0.536c-0.197,0.072 -0.585,0.032 -0.865,-0.089l-1.014,-0.44Z" style="fill:#ffb3d7;"/><path d="M47.323,80.512c-0.158,-0.166 -0.446,-0.243 -0.643,-0.171l-1.466,0.536c-0.198,0.072 -0.23,0.266 -0.073,0.432l0.571,0.602c0.158,0.166 0.446,0.242 0.643,0.17l1.466,-0.536c0.198,-0.072 0.23,-0.265 0.073,-0.431l-0.571,-0.602Z" style="fill:#ffb3d7;"/><path d="M67.564,73.003c-0.284,-0.121 -0.354,-0.277 -0.156,-0.349l1.466,-0.536c0.198,-0.072 0.588,-0.033 0.871,0.088l1.027,0.435c0.283,0.12 0.353,0.276 0.156,0.348l-1.467,0.536c-0.197,0.072 -0.587,0.033 -0.871,-0.087l-1.026,-0.435Z" style="fill:#ffb3d7;"/><path d="M52.282,76.885c-0.203,-0.15 -0.528,-0.213 -0.726,-0.141l-1.466,0.536c-0.198,0.072 -0.193,0.252 0.01,0.402l0.736,0.541c0.203,0.15 0.528,0.212 0.726,0.14l1.466,-0.535c0.197,-0.073 0.193,-0.252 -0.01,-0.402l-0.736,-0.541Z" style="fill:#ffb3d7;"/><path d="M54.889,75.932c-0.21,-0.147 -0.54,-0.208 -0.737,-0.136l-1.467,0.536c-0.197,0.072 -0.187,0.25 0.023,0.397l0.759,0.533c0.21,0.147 0.54,0.208 0.737,0.136l1.467,-0.536c0.197,-0.072 0.187,-0.25 -0.022,-0.397l-0.76,-0.533Z" style="fill:#ffb3d7;"/><path d="M61.98,77.023c-0.223,-0.142 -0.565,-0.199 -0.762,-0.126l-1.532,0.559c-0.197,0.073 -0.176,0.246 0.047,0.389l0.808,0.515c0.224,0.142 0.565,0.199 0.762,0.126l1.532,-0.559c0.198,-0.072 0.177,-0.246 -0.046,-0.389l-0.809,-0.515Z" style="fill:#ffb3d7;"/></g><path d="M53.049,61.942c-0.193,-0.084 -0.327,-0.263 -0.353,-0.472c-0.396,-3.192 -3.484,-28.076 -3.975,-32.036c-0.037,-0.302 0.159,-0.583 0.455,-0.653c2.664,-0.624 14.71,-3.449 16.124,-3.781c0.09,-0.021 0.183,-0.021 0.272,0c1.953,0.457 24.368,5.709 27.995,6.558c0.285,0.067 0.479,0.331 0.458,0.622c-0.279,3.848 -2.059,28.403 -2.275,31.375c-0.013,0.185 -0.112,0.353 -0.268,0.455c-1.684,1.097 -11.454,7.466 -13.204,8.607c-0.167,0.109 -0.379,0.127 -0.562,0.047c-2.622,-1.139 -21.971,-9.55 -24.667,-10.722Z" style="fill:#ff8fc1;"/><path d="M54.361,61.493c-0.197,-0.082 -0.335,-0.263 -0.362,-0.475c-0.383,-3.015 -3.181,-25.04 -3.798,-29.903c-0.026,-0.204 0.055,-0.406 0.214,-0.536c0.16,-0.13 0.375,-0.168 0.569,-0.101c4.362,1.5 23.144,7.96 26.103,8.977c0.236,0.081 0.397,0.301 0.401,0.551c0.066,3.326 0.509,25.625 0.604,30.427c0.004,0.201 -0.094,0.39 -0.26,0.503c-0.166,0.114 -0.377,0.135 -0.563,0.059c-3.93,-1.631 -20.407,-8.465 -22.908,-9.502Z" style="fill:#ff64ac;"/><path d="M78.187,38.409c0.314,0.108 0.657,0.098 0.963,-0.03c1.89,-0.787 8.923,-3.715 12.177,-5.069c0.237,-0.099 0.384,-0.339 0.364,-0.595c-0.019,-0.256 -0.201,-0.471 -0.451,-0.532c-5.742,-1.41 -23.685,-5.816 -25.42,-6.242c-0.089,-0.021 -0.182,-0.022 -0.271,-0.002c-1.096,0.243 -8.533,1.9 -12.211,2.719c-0.26,0.058 -0.45,0.281 -0.465,0.547c-0.015,0.266 0.148,0.509 0.4,0.596c5.7,1.969 21.897,7.565 24.914,8.608Z" style="fill:#ffabd1;"/><path d="M67.61,36.662c-0.058,-0.83 -0.555,-1.567 -1.303,-1.931c-1.905,-0.887 -4.198,-1.664 -5.759,-1.898c-12.032,2.147 -21.515,4.988 -33.574,9.961c-0.831,0.343 -1.388,1.137 -1.426,2.035c-0.418,9.971 -0.334,19.748 0.479,29.31c2.025,1.138 3.687,1.879 5.537,2.405c0.256,0.072 0.528,0.064 0.778,-0.024c3.483,-1.217 29.877,-10.445 34.792,-12.164c0.473,-0.165 0.792,-0.608 0.801,-1.108c0.125,-8.271 -0.002,-20.799 -0.325,-26.586Z" style="fill:#ff8fc1;"/><path d="M66.846,37.752c-0.024,-0.675 -0.339,-1.307 -0.865,-1.731c-0.525,-0.424 -1.209,-0.599 -1.874,-0.48c-11.126,2.008 -21.069,4.628 -32.306,9.209c-0.836,0.341 -1.395,1.138 -1.433,2.04c-0.382,9.353 -0.175,18.5 0.634,27.436c0.037,0.396 0.253,0.754 0.588,0.969c0.335,0.216 0.75,0.266 1.126,0.135c6.206,-2.153 29.051,-10.08 33.659,-11.679c0.486,-0.168 0.809,-0.628 0.804,-1.142c-0.103,-9.188 -0.023,-16 -0.333,-24.757Z" style="fill:#fff;"/><path d="M66.094,39.953c-0.024,-0.669 -0.335,-1.294 -0.853,-1.718c-0.519,-0.423 -1.194,-0.603 -1.854,-0.494c-10.192,1.702 -19.445,4.202 -29.858,8.4c-0.838,0.339 -1.401,1.135 -1.441,2.038c-0.343,8.053 -0.152,15.919 0.582,23.594c0.039,0.395 0.256,0.75 0.59,0.964c0.334,0.214 0.748,0.263 1.123,0.133c5.903,-2.048 26.886,-9.328 31.31,-10.864c0.49,-0.17 0.814,-0.636 0.803,-1.155c-0.171,-7.804 -0.123,-13.472 -0.402,-20.898Z" style="fill:url(#_Linear1);"/><path d="M64.422,41.328c-0.028,-0.662 -0.337,-1.28 -0.849,-1.7c-0.512,-0.42 -1.179,-0.603 -1.833,-0.502c-9.523,1.487 -18.056,3.705 -27.765,7.687c-0.83,0.341 -1.388,1.134 -1.428,2.031c-0.313,7.261 -0.137,14.351 0.538,21.266c0.04,0.394 0.257,0.749 0.591,0.962c0.334,0.213 0.747,0.262 1.122,0.132c5.648,-1.959 25.079,-8.701 29.298,-10.165c0.486,-0.169 0.809,-0.629 0.804,-1.143c-0.079,-7.013 -0.19,-11.953 -0.478,-18.568Z" style="fill:#0df2f2;"/><path d="M63.812,42.214c-0.028,-0.678 -0.35,-1.309 -0.882,-1.73c-0.532,-0.421 -1.22,-0.589 -1.886,-0.461c-8.861,1.706 -17.175,3.5 -26.43,7.144c-0.845,0.334 -1.416,1.133 -1.457,2.041c-0.294,6.746 -0.126,13.329 0.513,19.748c0.04,0.393 0.258,0.747 0.592,0.96c0.334,0.212 0.746,0.261 1.12,0.131c5.487,-1.903 23.974,-8.318 28.123,-9.758c0.494,-0.171 0.819,-0.644 0.803,-1.166c-0.183,-5.832 -0.243,-10.778 -0.496,-16.909Z" style="fill:#7bfafa;"/><path d="M34.175,70.272c-0.49,-0.405 -0.48,-0.923 -0.614,-2.101c-0.594,-5.243 -0.574,-15.713 -0.55,-17.61c0.023,-1.886 0.89,-3.089 2.127,-3.612c6.33,-2.676 19.147,-5.848 26.012,-6.906c-7.472,5.181 -24.33,20.785 -26.975,30.229Z" style="fill:url(#_Linear2);"/><path d="M27.202,43.527c6.033,-3.639 24.164,-9.306 33.45,-10.094c3.321,0.695 4.085,1.698 2.42,1.916c-6.022,0.788 -23.504,5.455 -31.556,9.137c-2.02,0.924 -3.762,0.09 -4.314,-0.959Z" style="fill:#ffc2dd;"/><path d="M42.033,75.327c0.431,0.914 1.565,1.296 3.07,0.83c1.504,-0.467 11.151,-3.822 12.033,-4.133c0.882,-0.311 0.596,-1.046 -1.323,-1.176c-1.919,-0.13 -9.896,2.115 -11.385,2.602c-1.348,0.441 -2.877,0.851 -2.395,1.877Z" style="fill:#ff91c4;"/><g id="school-feat6-title" transform="matrix(0.239764,-2.17095e-27,2.01948e-27,0.239764,-1775.5,-1863.51)"><path d="M7483.24,7774.39c-3.208,0 -5.95,2.567 -5.95,5.95c0,3.267 2.684,5.95 5.95,5.95c3.325,0 5.95,-2.741 5.95,-5.95c0,-3.266 -2.683,-5.95 -5.95,-5.95ZM7483.24,7777.43c1.575,0 2.859,1.283 2.859,2.916c0,1.575 -1.284,2.917 -2.859,2.917c-1.516,0 -2.916,-1.225 -2.916,-2.917c0,-1.691 1.4,-2.916 2.916,-2.916ZM7450.29,7780.69c-4.433,0 -4.492,2.509 -4.608,6.125c-0.35,11.2 -3.967,22.225 -11.492,30.567c-1.108,1.225 -1.225,1.342 -1.225,1.983c0,0.992 0.875,1.925 1.925,1.925c1.517,0 8.983,-6.3 13.417,-13.708c4.725,-7.875 6.825,-18.55 6.825,-22.692c0,-4.2 -4.667,-4.2 -4.842,-4.2ZM7481.79,7819.08c1.692,0 5.192,-1.459 5.192,-4.667c0,-2.45 -5.717,-16.392 -14.642,-29.283c-1.75,-2.567 -3.092,-4.55 -4.375,-4.55c-1.225,0 -2.217,0.933 -2.217,2.1c0,0.408 1.167,2.566 1.459,3.15c4.666,8.75 7.875,18.2 9.916,27.883c0.817,3.733 1.109,5.367 4.667,5.367Z" style="fill:#231f20;fill-rule:nonzero;"/><path d="M7493.51,7778.07c-1.283,0 -2.217,0.992 -2.217,2.1c0,0.584 0.117,0.759 1.284,2.275c2.158,2.742 3.791,4.9 5.891,9.684c1.517,3.5 2.042,4.666 4.317,4.666c2.392,0 4.783,-2.1 4.783,-4.316c0,-2.217 -3.616,-5.834 -6.475,-8.575c-1.925,-1.809 -6.3,-5.834 -7.583,-5.834ZM7533.18,7777.19c-4.025,0 -4.259,1.75 -4.55,4.142c-0.759,7.117 -1.342,11.725 -3.909,18.083c-6.008,14.759 -18.316,20.242 -23.625,22.109c-1.516,0.525 -2.508,0.875 -2.508,2.216c0,1.167 0.992,1.867 1.808,1.867c0.759,0 4.842,-1.4 7.059,-2.217c15.108,-5.658 21.583,-15.166 24.966,-21.816c4.492,-8.867 5.542,-20.242 5.542,-20.359c0,-3.558 -4.083,-4.025 -4.783,-4.025Z" style="fill:#231f20;fill-rule:nonzero;"/><path d="M7551.2,7781.45c-2.275,0 -2.275,1.575 -2.275,1.866c0,1.342 1.108,1.809 2.275,1.809l28.466,0c1.225,0 1.984,0.933 1.984,2.041l0,28.875c0,0.992 -0.7,1.984 -1.984,1.984l-29.341,0c-2.275,0 -2.275,1.633 -2.275,1.925c0,0.233 0,1.808 2.275,1.808l34.591,0c3.442,0 5.367,-2.567 5.367,-5.192l0,-29.925c0,-2.741 -2.042,-5.191 -5.367,-5.191l-33.716,0Z" style="fill:#231f20;fill-rule:nonzero;"/><path d="M7621.55,7790.96c1.866,0 4.2,-1.983 4.2,-4.55c0,-1.517 -0.175,-3.15 -8.692,-6.883c-5.133,-2.275 -9.858,-3.442 -10.558,-3.442c-0.817,0 -1.75,0.7 -1.75,1.75c0,0.933 0.525,1.225 1.983,2.1c1.983,1.108 5.95,3.383 9.567,7.35c3.033,3.325 3.325,3.675 5.25,3.675ZM7603,7820.65c0,1.691 1.05,4.783 4.141,4.783c2.275,0 17.325,-4.2 27.942,-13.242c11.55,-9.8 14.7,-19.891 14.7,-20.241c0,-0.875 -0.817,-1.75 -1.867,-1.75c-1.05,0 -1.458,0.7 -1.866,1.458c-1.284,2.275 -3.325,5.367 -6.359,8.458c-12.25,12.425 -24.966,14.875 -30.45,15.925c-4.083,0.759 -6.241,1.167 -6.241,4.609Z" style="fill:#231f20;fill-rule:nonzero;"/><path d="M7704.85,7804.14c0.7,0 1.983,-0.233 1.983,-1.633c0,-1.458 -1.342,-1.633 -1.983,-1.633l-8.984,0l0,-17.675l7.292,0c0.642,0 1.925,-0.175 1.925,-1.634c0,-1.458 -1.342,-1.575 -1.925,-1.633l-7.292,0l0,-1.283c0,-1.634 0,-4.725 -3.966,-4.725c-4.025,0 -4.025,3.033 -4.025,4.725l0,1.283l-16.217,0l0,-1.283c0,-1.692 -0.058,-4.725 -3.967,-4.725c-3.966,0 -3.966,2.683 -3.966,4.725l0,1.283l-7.292,0c-0.642,0 -1.983,0.175 -1.983,1.633c0,1.517 1.4,1.634 1.983,1.634l7.292,0l0,17.675l-9.217,0c-0.583,0 -1.983,0.175 -1.983,1.633c0,1.517 1.4,1.633 1.983,1.633l10.033,0c-2.333,4.9 -6.241,8.634 -11.608,12.134c-0.292,0.175 -0.875,0.525 -0.875,1.4c0,0.991 0.817,1.633 1.575,1.633c1.225,0 13.533,-5.542 20.358,-15.167l11.492,0c6.3,9.217 19.25,14.934 20.242,14.934c0.875,0 1.633,-0.7 1.633,-1.634c0,-0.816 -0.525,-1.166 -0.875,-1.4c-4.9,-3.325 -8.925,-6.941 -11.258,-11.9l9.625,0ZM7687.88,7790.14l0,3.734l-16.217,0l0,-3.734l16.217,0ZM7687.88,7783.2l0,3.733l-16.217,0l0,-3.733l16.217,0ZM7687.88,7797.14l0,3.734l-16.217,0l0,-3.734l16.217,0ZM7657.08,7823.39c-0.642,0 -1.984,0.175 -1.984,1.634c0,1.516 1.4,1.633 1.984,1.633l44.975,0c0.641,0 1.983,-0.233 1.983,-1.633c0,-1.459 -1.4,-1.634 -1.983,-1.634l-18.434,0l0,-6.825l9.742,0c0.7,0 1.983,-0.175 1.983,-1.575c0,-1.458 -1.341,-1.633 -1.983,-1.633l-9.742,0l0,-2.392c0,-1.341 0,-4.491 -3.966,-4.491c-3.967,0 -3.967,2.975 -3.967,4.491l0,2.392l-9.683,0c-0.584,0 -1.984,0.117 -1.984,1.633c0,1.459 1.4,1.575 1.984,1.575l9.683,0l0,6.825l-18.608,0Z" style="fill:#231f20;fill-rule:nonzero;"/><path d="M7731.98,7783.43c-1.05,3.325 -2.567,5.892 -4.9,8.867c-1.225,1.516 -1.342,1.691 -1.342,2.333c-0.408,-0.642 -1.342,-1.983 -4.492,-1.983l-2.975,0c1.867,-5.484 2.392,-10.5 2.509,-13.125l5.425,0c0.641,0 1.983,-0.175 1.983,-1.634c0,-1.4 -1.283,-1.575 -1.983,-1.575l-15.809,0c-0.641,0 -1.983,0.175 -1.983,1.634c0,1.4 1.283,1.575 1.983,1.575l2.8,0c0,6.883 -1.108,16.041 -4.258,23.158c-0.292,0.7 -1.925,3.617 -1.925,4.2c0,0.875 0.758,1.575 1.633,1.575c1.05,0 1.984,-1.283 3.267,-3.092l0,14.7c0,3.15 2.158,4.434 5.133,4.434l4.2,0c2.567,0 5.134,-0.992 5.134,-4.434l0,-22.983c0,-0.525 -0.059,-0.7 -0.234,-1.4c0.409,0.35 0.817,0.467 1.167,0.467c1.225,0 3.267,-2.1 4.667,-3.675l0,3.15c0,1.691 0,4.141 3.441,4.141c3.5,0 3.5,-2.566 3.5,-4.141l0,-4.317c1.109,1.05 1.925,1.633 2.8,1.633c0.875,0 1.575,-0.7 1.575,-1.633c0,-0.642 -0.175,-0.817 -0.875,-1.633c-1.75,-2.159 -2.625,-3.909 -3.441,-6.242l2.216,0c0.642,0 1.984,-0.175 1.984,-1.633c0,-1.4 -1.284,-1.575 -1.984,-1.575l-2.275,0l0,-2.1c0,-1.692 0,-4.142 -3.558,-4.142c-3.383,0 -3.383,2.567 -3.383,4.142l0,2.1l-3.909,0c-0.641,0 -1.983,0.175 -1.983,1.633c0,1.4 1.283,1.575 1.983,1.575l3.909,0ZM7721.13,7820.24c0,0.525 -0.292,0.992 -0.934,0.992l-1.166,0c-0.642,0 -0.934,-0.467 -0.934,-0.992l0,-23.391c0,-0.467 0.292,-0.934 0.934,-0.934l1.166,0c0.642,0 0.934,0.467 0.934,0.934l0,23.391ZM7748.31,7783.43c-0.875,2.625 -3.442,7.117 -6.067,9.975c-1.225,1.283 -1.225,1.342 -1.225,1.983c0,0.759 0.584,1.575 1.575,1.575c1.4,0 4.784,-3.208 6.359,-4.666l0,3.325c0,1.575 0,4.141 3.558,4.141c3.558,0 3.558,-2.975 3.558,-4.141l0,-3.442c1.459,1.458 4.609,4.608 6.067,4.608c1.05,0 1.633,-0.816 1.633,-1.516c0,-0.7 -0.175,-0.934 -1.283,-2.1c-1.575,-1.634 -4.9,-6.359 -6.125,-9.742l4.142,0c0.641,0 1.983,-0.175 1.983,-1.633c0,-1.4 -1.283,-1.575 -1.983,-1.575l-4.434,0l0,-2.1c0,-1.284 0,-4.142 -3.675,-4.142c-3.441,0 -3.441,2.625 -3.441,4.142l0,2.1l-2.859,0c-0.641,0 -1.983,0.175 -1.983,1.633c0,1.4 1.283,1.575 1.983,1.575l2.217,0ZM7748.14,7814.99l9.858,0c0.7,0 1.984,-0.233 1.984,-1.633c0,-1.458 -1.342,-1.633 -1.984,-1.633l-9.858,0l0,-8.109l5.367,0c0.7,0 0.875,0.525 0.875,0.759c0,0.408 -0.875,1.633 -1.167,2.1c-1.05,1.516 -1.342,1.925 -1.342,2.625c0,0.7 0.7,1.458 1.634,1.458c1.166,0 4.141,-2.45 5.425,-3.5c2.333,-1.983 2.975,-3.092 2.975,-4.083c0,-0.409 -0.234,-2.625 -2.917,-2.625l-29.925,0c-0.7,0 -1.983,0.233 -1.983,1.633c0,1.458 1.341,1.633 1.983,1.633l11.667,0l0,18.842c-3.209,-2.1 -3.85,-4.492 -4.317,-6.3c0.467,-1.575 1.342,-4.433 1.342,-7.058c0,-3.209 -2.975,-3.442 -3.85,-3.442c-3.617,0 -3.675,2.158 -3.792,5.25c-0.175,6.825 -1.458,10.85 -5.133,14.408c-1.109,1.05 -1.225,1.225 -1.225,1.867c0,0.933 0.816,1.633 1.633,1.633c1.283,0 5.133,-2.683 8.108,-6.883c3.209,5.075 9.567,5.6 13.884,5.6l13.591,0c0.7,0 1.984,-0.233 1.984,-1.633c0,-1.459 -1.342,-1.634 -1.984,-1.634l-12.833,0l0,-9.275Z" style="fill:#231f20;fill-rule:nonzero;"/><path d="M7791.19,7803.33c0.7,0 1.983,-0.175 1.983,-1.575c0,-1.517 -1.341,-1.634 -1.983,-1.634l-6.358,0c0.116,-1.866 0.175,-3.675 0.175,-5.775l0,-8.633l5.541,0c0.7,0 1.984,-0.175 1.984,-1.575c0,-1.458 -1.342,-1.633 -1.984,-1.633l-12.95,0c0.934,-1.517 2.275,-4.142 2.275,-5.425c0,-1.984 -2.333,-3.325 -4.958,-3.325c-2.917,0 -3.325,1.75 -3.675,3.208c-0.992,4.083 -2.567,9.1 -5.6,14.292c-1.342,2.333 -1.517,2.625 -1.517,2.916c0,0.759 0.642,1.634 1.634,1.634c0.991,0 5.483,-3.967 9.741,-10.092l1.692,0l0,11.433c0,0.875 -0.058,2.275 -0.117,2.975l-10.616,0c-0.642,0 -1.984,0.117 -1.984,1.575c0,1.517 1.4,1.634 1.984,1.634l10.325,0c-0.409,4.433 -1.342,12.366 -9.8,20.183c-0.409,0.408 -2.567,1.925 -2.859,2.333c-0.175,0.292 -0.233,0.642 -0.233,0.934c0,1.05 0.933,1.633 1.575,1.633c1.4,0 11.317,-6.183 15.867,-14.933c3.85,6.008 9.45,10.325 10.558,10.325c1.05,0 1.633,-0.817 1.633,-1.634c0,-0.583 -0.233,-0.875 -0.525,-1.225c-5.308,-6.066 -7.408,-11.316 -8.633,-17.266l0.058,-0.35l6.767,0ZM7817.49,7784.6c0,-3.092 -1.633,-5.6 -6.066,-5.6l-10.734,0c-4.55,0 -6.066,2.566 -6.066,5.6l0,37.275c0,3.15 1.633,5.6 6.066,5.6l10.734,0c4.55,0 6.066,-2.509 6.066,-5.6l0,-37.275ZM7809.5,7822.52c0,1.109 -0.35,1.692 -1.692,1.692l-3.558,0c-1.342,0 -1.692,-0.583 -1.692,-1.692l0,-38.558c0,-1.05 0.292,-1.692 1.692,-1.692l3.558,0c1.342,0 1.692,0.817 1.692,1.692l0,38.558Z" style="fill:#231f20;fill-rule:nonzero;"/><path d="M7856.75,7804.9c0,-3.734 -3.034,-4.2 -4.667,-4.2l-6.708,0c-2.625,0 -4.667,1.166 -4.667,4.2l0,13.066c0,3.734 3.033,4.2 4.667,4.2l6.708,0c2.625,0 4.667,-1.166 4.667,-4.2l0,-13.066ZM7846.72,7809.68l0,-4.317c0,-1.341 0.35,-1.458 1.4,-1.458l1.225,0c1.167,0 1.459,0.175 1.459,1.458l0,4.317l-4.084,0ZM7850.8,7812.95l0,4.55c0,1.225 -0.292,1.4 -1.459,1.4l-1.225,0c-1.05,0 -1.4,-0.059 -1.4,-1.4l0,-4.55l4.084,0ZM7873.09,7797.78c0.758,0 1.983,-0.175 1.983,-1.575c0,-1.458 -1.283,-1.633 -1.983,-1.633l-7.467,0c-0.058,-3.384 -0.058,-7.117 -0.058,-8.634c0,-1.108 0.117,-7.175 0.117,-8.575c0,-2.975 -2.8,-3.325 -3.734,-3.325c-1.633,0 -3.091,0.875 -3.5,2.217c-0.116,0.408 -0.116,1.692 -0.116,2.8c0,3.967 0.175,12.25 0.35,15.517l-7,0c1.108,-0.525 5.833,-4.492 5.833,-7c0,-1.692 -1.225,-3.034 -3.092,-3.442l1.634,0c0.7,0 1.925,-0.175 1.925,-1.633c0,-1.459 -1.284,-1.634 -1.984,-1.634l-3.5,0l0,-3.033c0,-1.05 0,-4.025 -3.616,-4.025c-3.675,0 -3.675,2.917 -3.675,4.025l0,3.033l-3.967,0c-0.7,0 -1.983,0.234 -1.983,1.634c0,1.458 1.341,1.633 1.983,1.633l11.667,0c-1.692,0.408 -1.809,1.05 -2.392,4.258c-0.117,0.7 -0.992,4.084 -0.992,4.609c0,0.233 0,1.108 1.109,1.575l-5.309,0c2.159,-0.234 3.209,-1.925 3.209,-3.325c0,-2.392 -5.367,-7.059 -6.592,-7.059c-0.933,0 -1.575,0.817 -1.575,1.634c0,0.641 0.992,3.091 1.108,3.616c0.175,0.642 0.817,3.559 1.109,4.084c0.583,0.875 1.4,0.991 1.866,1.05l-4.9,0c-0.7,0 -1.983,0.175 -1.983,1.633c0,1.458 1.342,1.575 1.983,1.575l19.25,0c0.234,6.008 0.584,11.2 2.1,18.667c-3.383,4.316 -5.833,6.008 -9.45,8.575c-0.291,0.233 -0.7,0.466 -0.7,1.225c0,0.991 0.817,1.633 1.634,1.633c0.641,0 4.316,-1.633 9.858,-6.592c0.467,1.4 2.567,7.175 6.883,7.175c3.384,0 4.375,-2.566 4.842,-3.675c0.758,-1.866 1.458,-5.541 1.458,-7.408c0,-1.575 -1.516,-1.983 -2.508,-1.983c-1.575,0 -1.808,1.225 -1.867,1.925c-0.408,3.15 -0.408,3.5 -1.166,3.5c-0.992,0 -1.867,-3.734 -2.275,-5.25c4.025,-4.842 7.291,-11.317 7.291,-13.65c0,-1.984 -1.983,-3.034 -3.616,-3.034c-1.575,0 -2.159,0.934 -2.625,2.392c-0.642,2.217 -1.109,3.675 -2.334,6.358c-0.35,-3.033 -0.525,-7 -0.583,-9.858l7.35,0ZM7823.56,7792.65c-0.7,0 -1.925,0.175 -1.925,1.575c0,1.4 1.167,1.633 1.925,1.633l12.658,0c0.7,0 1.867,-0.175 1.867,-1.633c0,-1.342 -1.108,-1.575 -1.867,-1.575l-12.658,0ZM7837.91,7813.3c0,-3.034 -1.925,-4.434 -4.9,-4.434l-6.475,0c-3.442,0 -4.842,1.809 -4.842,4.434l0,9.858c0,3.092 1.867,4.433 4.842,4.433l6.475,0c3.442,0 4.9,-1.808 4.9,-4.433l0,-9.858ZM7831.79,7822.81c0,1.517 -0.467,1.517 -2.158,1.517c-1.284,0 -1.459,-0.409 -1.459,-1.517l0,-9.158c0,-1.517 0.409,-1.517 2.1,-1.517c1.225,0 1.517,0.35 1.517,1.517l0,9.158ZM7823.56,7776.08c-0.7,0 -1.925,0.233 -1.925,1.633c0,1.342 1.167,1.575 1.925,1.575l12.658,0c0.7,0 1.867,-0.175 1.867,-1.575c0,-1.4 -1.108,-1.633 -1.867,-1.633l-12.658,0ZM7822.51,7784.37c-0.7,0 -1.867,0.234 -1.867,1.634c0,1.341 1.109,1.633 1.867,1.633l15.108,0c0.642,0 1.867,-0.233 1.867,-1.633c0,-1.4 -1.167,-1.634 -1.867,-1.634l-15.108,0ZM7823.56,7800.88c-0.7,0 -1.925,0.233 -1.925,1.633c0,1.342 1.167,1.575 1.925,1.575l12.658,0c0.7,0 1.867,-0.175 1.867,-1.575c0,-1.4 -1.108,-1.633 -1.867,-1.633l-12.658,0ZM7871.63,7789.44c1.341,-0.175 3.5,-1.458 3.5,-3.675c0,-1.691 -3.209,-6.066 -3.384,-6.241c-0.991,-1.225 -2.566,-3.267 -3.558,-3.267c-0.992,0 -1.633,0.817 -1.633,1.575c0,0.35 0.116,0.583 0.408,1.4c0.583,1.692 1.108,3.442 1.4,5.133c0.7,4.142 0.933,5.367 3.267,5.075Z" style="fill:#231f20;fill-rule:nonzero;"/></g></g><defs><linearGradient id="_Linear1" x1="0" y1="0" x2="1" y2="0" gradientUnits="userSpaceOnUse" gradientTransform="matrix(8.21772e-16,-16.4544,13.4206,-4.65665,58.0848,53.5583)"><stop offset="0%" style="stop-color:#fffffe;stop-opacity:1"/><stop offset="100%" style="stop-color:#e2ddee;stop-opacity:1"/></linearGradient><linearGradient id="_Linear2" x1="0" y1="0" x2="1" y2="0" gradientUnits="userSpaceOnUse" gradientTransform="matrix(9.63968,34.4994,-30.8665,22.5289,34.914,33.32)"><stop offset="0%" style="stop-color:#fff;stop-opacity:1"/><stop offset="47%" style="stop-color:#fff;stop-opacity:0.733333"/><stop offset="100%" style="stop-color:#fff;stop-opacity:0"/></linearGradient></defs></svg>