<?xml version="1.0" encoding="UTF-8" standalone="no"?><!DOCTYPE svg PUBLIC "-//W3C//DTD SVG 1.1//EN" "http://www.w3.org/Graphics/SVG/1.1/DTD/svg11.dtd"><svg width="120px" height="90px" version="1.1" xmlns="http://www.w3.org/2000/svg" xmlns:xlink="http://www.w3.org/1999/xlink" xml:space="preserve" style="fill-rule:evenodd;clip-rule:evenodd;stroke-linejoin:round;stroke-miterlimit:1.41421;"><g id="school-feat2-img"><path d="M86.157,33.045c-0.051,-1.25 -1.043,-2.258 -2.293,-2.329c-15.805,-0.882 -31.623,-0.853 -47.452,0.005c-1.233,0.068 -2.215,1.056 -2.276,2.29c-0.495,10.5 -0.178,20.999 0.967,31.494c0.076,0.686 0.655,1.205 1.345,1.205c6.817,0 40.357,0 46.787,0c0.616,0 1.14,-0.449 1.234,-1.057c1.583,-10.276 2.108,-20.821 1.688,-31.608Z" style="fill:#ff8fc1;"/><path d="M84.621,34.24c-0.051,-1.252 -1.045,-2.26 -2.296,-2.33c-14.782,-0.805 -29.576,-0.778 -44.381,0.005c-1.234,0.067 -2.217,1.055 -2.279,2.289c-0.452,9.609 -0.155,19.216 0.908,28.82c0.077,0.684 0.656,1.202 1.345,1.202c6.546,0 37.713,0 43.888,0c0.614,0 1.137,-0.447 1.233,-1.054c1.471,-9.408 1.964,-19.06 1.582,-28.932Z" style="fill:#fff;"/><path d="M91.299,81.465c0.023,0.644 -0.211,1.271 -0.651,1.742c-0.44,0.47 -1.049,0.746 -1.693,0.766c-16.468,0.483 -41.213,0.467 -57.678,0.01c-1.302,-0.039 -2.339,-1.105 -2.34,-2.408c0.041,-5.419 2.106,-11.248 6.104,-15.825c0.257,-0.291 0.626,-0.458 1.014,-0.458c5.199,-0.001 42.401,-0.001 47.467,-0.001c0.365,0 0.712,0.16 0.949,0.438c3.899,4.594 6.577,10.261 6.828,15.736Z" style="fill:#ff78b5;"/><path d="M88.656,78.485c0.039,0.654 -0.189,1.296 -0.631,1.779c-0.443,0.483 -1.063,0.765 -1.718,0.783c-15.035,0.389 -37.465,0.376 -52.491,0.011c-1.314,-0.035 -2.359,-1.115 -2.349,-2.43c0.053,-4.253 1.575,-8.77 5.064,-12.35c0.254,-0.259 0.601,-0.404 0.963,-0.404c4.844,-0.002 39.833,-0.002 44.557,-0.002c0.341,0 0.667,0.139 0.903,0.386c3.393,3.58 5.432,7.957 5.702,12.227Z" style="fill:#fff;"/><path d="M84.678,71.336c0.3,0.744 0.214,1.588 -0.23,2.256c-0.444,0.668 -1.188,1.075 -1.99,1.087c-13.036,0.181 -31.882,0.174 -44.875,-0.004c-0.761,-0.011 -1.472,-0.381 -1.918,-0.998c-0.447,-0.617 -0.575,-1.409 -0.347,-2.135c0.497,-1.591 1.296,-3.202 1.771,-4.096c0.236,-0.439 0.694,-0.712 1.192,-0.712c5.532,-0.001 38.107,-0.001 43.193,-0.001c0.421,0 0.813,0.212 1.044,0.564c0.53,0.82 1.505,2.418 2.16,4.039Z" style="fill:#ff9ecb;"/><path d="M83.357,71.05c0.204,0.567 0.122,1.196 -0.221,1.691c-0.343,0.495 -0.904,0.793 -1.505,0.801c-12.717,0.151 -30.566,0.146 -43.24,0c-0.574,-0.007 -1.112,-0.278 -1.46,-0.734c-0.348,-0.456 -0.466,-1.047 -0.321,-1.602c0.352,-1.141 0.762,-2.333 1.041,-3.122c0.189,-0.544 0.701,-0.908 1.277,-0.908c5.818,-0.002 36.578,-0.002 41.935,-0.002c0.489,0 0.934,0.287 1.137,0.732c0.338,0.742 0.877,1.948 1.357,3.144Z" style="fill:#ffdfee;"/><path d="M70.018,78.461c0.112,0.376 0.039,0.783 -0.195,1.098c-0.235,0.314 -0.604,0.5 -0.997,0.5c-3.921,0 -13.686,0 -17.515,0c-0.381,0 -0.74,-0.175 -0.976,-0.473c-0.236,-0.299 -0.322,-0.69 -0.233,-1.06c0.143,-0.597 0.304,-1.266 0.433,-1.805c0.146,-0.609 0.69,-1.038 1.316,-1.038c3.299,0 13.301,0 16.408,0c0.553,0 1.04,0.363 1.197,0.893c0.162,0.542 0.372,1.249 0.562,1.885Z" style="fill:#ffd772;"/><path d="M83.034,36.171c-0.053,-1.254 -1.051,-2.262 -2.305,-2.327c-13.722,-0.694 -27.454,-0.671 -41.196,0.004c-1.236,0.062 -2.224,1.05 -2.288,2.285c-0.401,8.264 -0.124,16.525 0.846,24.785c0.081,0.68 0.658,1.193 1.343,1.193c6.247,0 35.014,0 40.898,0c0.61,0 1.13,-0.44 1.232,-1.042c1.344,-8.099 1.803,-16.405 1.47,-24.898Z" style="fill:url(#_Linear1);"/><path d="M81.662,37.963c-0.052,-1.256 -1.053,-2.266 -2.309,-2.328c-12.807,-0.625 -25.624,-0.605 -38.451,0.004c-1.237,0.06 -2.227,1.047 -2.291,2.284c-0.361,7.443 -0.102,14.883 0.792,22.321c0.083,0.679 0.659,1.189 1.343,1.189c5.988,0.001 32.673,0.001 38.311,0.001c0.607,0 1.127,-0.438 1.23,-1.037c1.242,-7.3 1.672,-14.785 1.375,-22.434Z" style="fill:#0df2f2;"/><path d="M80.877,38.548c-0.052,-1.257 -1.055,-2.267 -2.313,-2.328c-12.283,-0.581 -24.575,-0.562 -36.877,0.004c-1.238,0.059 -2.231,1.046 -2.295,2.284c-0.337,6.916 -0.087,13.83 0.762,20.743c0.084,0.677 0.66,1.185 1.342,1.185c5.835,0 31.341,0 36.832,0c0.606,0 1.124,-0.434 1.229,-1.031c1.181,-6.788 1.595,-13.746 1.32,-20.857Z" style="fill:#7bfafa;"/><path d="M40.732,60.233c-0.629,-0.6 -0.616,-1.138 -0.787,-2.417c-0.761,-5.695 -0.735,-16.628 -0.705,-18.601c0.03,-1.962 1.14,-2.905 2.725,-3.003c8.11,-0.501 25.591,-0.508 34.645,-0.057c-9.572,2.705 -32.49,15.169 -35.878,24.078Z" style="fill:url(#_Linear2);"/><path d="M41.879,68.146c0.076,-0.234 -0.052,-0.424 -0.286,-0.424l-2.159,0c-0.234,0 -0.486,0.19 -0.561,0.424l-0.276,0.846c-0.076,0.234 0.053,0.424 0.286,0.424l2.16,0c0.233,0 0.485,-0.19 0.561,-0.424l0.275,-0.846Z" style="fill:#ffb3d7;"/><path d="M72.289,68.146c-0.093,-0.234 0.021,-0.424 0.255,-0.424l2.159,0c0.234,0 0.499,0.19 0.592,0.424l0.336,0.846c0.092,0.234 -0.022,0.424 -0.256,0.424l-2.159,0c-0.234,0 -0.499,-0.19 -0.592,-0.424l-0.335,-0.846Z" style="fill:#ffb3d7;"/><path d="M45.012,69.966c0.076,-0.234 -0.052,-0.423 -0.286,-0.423l-2.159,0c-0.234,0 -0.485,0.189 -0.561,0.423l-0.275,0.847c-0.076,0.234 0.052,0.423 0.286,0.423l2.159,0c0.234,0 0.485,-0.189 0.561,-0.423l0.275,-0.847Z" style="fill:#ffb3d7;"/><path d="M76.544,69.966c-0.097,-0.234 0.014,-0.423 0.247,-0.423l2.16,0c0.233,0 0.502,0.189 0.6,0.423l0.353,0.847c0.097,0.234 -0.013,0.423 -0.247,0.423l-2.159,0c-0.234,0 -0.503,-0.189 -0.6,-0.423l-0.354,-0.847Z" style="fill:#ffb3d7;"/><path d="M57.714,68.188c0.013,-0.234 -0.166,-0.423 -0.4,-0.423l-2.159,0c-0.234,0 -0.434,0.189 -0.448,0.423l-0.047,0.847c-0.013,0.234 0.166,0.423 0.4,0.423l2.159,0c0.234,0 0.434,-0.189 0.447,-0.423l0.048,-0.847Z" style="fill:#ffb3d7;"/><path d="M61.307,68.188c0.004,-0.234 -0.182,-0.423 -0.416,-0.423l-2.159,0c-0.234,0 -0.427,0.189 -0.431,0.423l-0.015,0.847c-0.005,0.234 0.182,0.423 0.416,0.423l2.159,0c0.234,0 0.427,-0.189 0.431,-0.423l0.015,-0.847Z" style="fill:#ffb3d7;"/><path d="M66.255,72.036c-0.015,-0.234 -0.216,-0.424 -0.45,-0.424l-2.25,0c-0.234,0 -0.412,0.19 -0.397,0.424l0.053,0.847c0.014,0.233 0.216,0.423 0.45,0.423l2.25,0c0.233,0 0.411,-0.19 0.397,-0.423l-0.053,-0.847Z" style="fill:#ffb3d7;"/><path id="school-feat2-title" d="M16.649,0.505c-0.769,0 -1.426,0.615 -1.426,1.426c0,0.784 0.643,1.427 1.426,1.427c0.797,0 1.427,-0.657 1.427,-1.427c0,-0.783 -0.644,-1.426 -1.427,-1.426ZM16.649,1.232c0.378,0 0.686,0.308 0.686,0.699c0,0.378 -0.308,0.7 -0.686,0.7c-0.363,0 -0.699,-0.294 -0.699,-0.7c0,-0.405 0.336,-0.699 0.699,-0.699ZM8.747,2.015c-1.063,0 -1.077,0.602 -1.105,1.469c-0.084,2.685 -0.951,5.329 -2.755,7.329c-0.266,0.293 -0.294,0.321 -0.294,0.475c0,0.238 0.21,0.462 0.462,0.462c0.363,0 2.153,-1.511 3.216,-3.287c1.133,-1.888 1.637,-4.448 1.637,-5.441c0,-1.007 -1.119,-1.007 -1.161,-1.007ZM16.3,11.218c0.405,0 1.244,-0.349 1.244,-1.119c0,-0.587 -1.37,-3.93 -3.51,-7.021c-0.42,-0.615 -0.742,-1.091 -1.049,-1.091c-0.294,0 -0.532,0.224 -0.532,0.504c0,0.098 0.28,0.615 0.35,0.755c1.119,2.098 1.888,4.364 2.378,6.685c0.195,0.896 0.265,1.287 1.119,1.287Z" style="fill:#231f20;fill-rule:nonzero;"/><path d="M19.95,1.386c-0.308,0 -0.532,0.238 -0.532,0.503c0,0.14 0.028,0.182 0.308,0.546c0.518,0.657 0.909,1.175 1.413,2.322c0.363,0.839 0.489,1.118 1.035,1.118c0.573,0 1.147,-0.503 1.147,-1.034c0,-0.532 -0.868,-1.399 -1.553,-2.056c-0.461,-0.434 -1.51,-1.399 -1.818,-1.399ZM29.461,1.176c-0.965,0 -1.021,0.42 -1.091,0.993c-0.182,1.706 -0.322,2.811 -0.937,4.336c-1.441,3.538 -4.392,4.853 -5.665,5.301c-0.363,0.126 -0.601,0.209 -0.601,0.531c0,0.28 0.238,0.448 0.433,0.448c0.182,0 1.161,-0.336 1.693,-0.532c3.622,-1.356 5.175,-3.636 5.986,-5.231c1.077,-2.126 1.328,-4.853 1.328,-4.881c0,-0.853 -0.979,-0.965 -1.146,-0.965Z" style="fill:#231f20;fill-rule:nonzero;"/><path d="M34.621,2.197c-0.545,0 -0.545,0.378 -0.545,0.448c0,0.321 0.266,0.433 0.545,0.433l6.826,0c0.293,0 0.475,0.224 0.475,0.49l0,6.923c0,0.238 -0.168,0.475 -0.475,0.475l-7.035,0c-0.546,0 -0.546,0.392 -0.546,0.462c0,0.056 0,0.434 0.546,0.434l8.294,0c0.825,0 1.286,-0.616 1.286,-1.245l0,-7.175c0,-0.657 -0.489,-1.245 -1.286,-1.245l-8.085,0Z" style="fill:#231f20;fill-rule:nonzero;"/><path d="M52.328,4.477c0.448,0 1.007,-0.476 1.007,-1.091c0,-0.364 -0.042,-0.755 -2.084,-1.65c-1.231,-0.546 -2.364,-0.826 -2.531,-0.826c-0.196,0 -0.42,0.168 -0.42,0.42c0,0.224 0.126,0.294 0.476,0.503c0.475,0.266 1.426,0.812 2.293,1.763c0.728,0.797 0.798,0.881 1.259,0.881ZM47.88,11.596c0,0.405 0.252,1.147 0.993,1.147c0.546,0 4.154,-1.007 6.7,-3.175c2.769,-2.35 3.524,-4.769 3.524,-4.853c0,-0.21 -0.195,-0.42 -0.447,-0.42c-0.252,0 -0.35,0.168 -0.448,0.35c-0.307,0.545 -0.797,1.286 -1.524,2.028c-2.937,2.979 -5.986,3.566 -7.301,3.818c-0.979,0.182 -1.497,0.28 -1.497,1.105Z" style="fill:#231f20;fill-rule:nonzero;"/><path d="M68.063,2.659c1.272,0.363 3.202,1.119 3.202,3.944c0,1.762 -0.993,4.126 -2.923,4.825c-0.587,0.21 -0.727,0.252 -0.727,0.587c0,0.28 0.224,0.476 0.476,0.476c0.293,0 5.272,-0.601 5.272,-5.636c0,-3.721 -2.811,-5.301 -5.86,-5.301c-4.461,0 -6.587,3.287 -6.587,6.196c0,2.154 1.216,4.265 3.258,4.265c1.511,0 2.238,-1.104 2.854,-2.937c0.657,-1.93 0.755,-3.049 1.035,-6.419ZM66.049,2.659c-0.112,1.72 -0.238,4.196 -0.924,6.405c-0.153,0.518 -0.587,1.875 -1.202,1.875c-0.336,0 -1.231,-0.35 -1.231,-2.434c0,-1.175 0.308,-2.783 1.203,-4.168c0.713,-1.105 1.454,-1.399 2.154,-1.678Z" style="fill:#231f20;fill-rule:nonzero;"/><path d="M82.147,2.896c0.699,1.259 1.133,1.763 1.664,2.196l-6.028,0c-1.077,0 -1.455,0.616 -1.455,1.343l0,3.427c0,0.755 0.392,1.342 1.455,1.342l0.49,0c-0.714,0.434 -1.469,0.895 -2.84,1.301c-0.783,0.224 -0.825,0.238 -0.825,0.503c0,0.294 0.21,0.42 0.462,0.42c0.237,0 1.692,-0.168 3.091,-0.517c0.699,-0.168 1.846,-0.462 1.846,-1.007c0,-0.168 -0.098,-0.476 -0.476,-0.7l3.119,0c-0.266,0.154 -0.475,0.406 -0.475,0.7c0,0.349 0.377,0.601 1.384,0.881c1.539,0.419 3.301,0.643 3.567,0.643c0.363,0 0.461,-0.252 0.461,-0.42c0,-0.251 -0.056,-0.279 -0.853,-0.503c-1.287,-0.378 -1.832,-0.685 -2.881,-1.301l0.587,0c1.091,0 1.455,-0.601 1.455,-1.342l0,-3.427c0,-0.168 -0.028,-0.322 -0.056,-0.42c0.07,0 0.196,0.028 0.322,0.028c1.119,0 1.65,-1.175 1.65,-2.126c0,-0.391 -0.391,-0.615 -0.755,-0.615c-0.546,0 -0.616,0.308 -0.657,0.49c-0.098,0.475 -0.14,0.671 -0.42,0.671c-0.014,0 -0.853,-0.084 -1.888,-1.664l3.063,-0.154c0.182,-0.014 0.461,-0.07 0.461,-0.392c0,-0.35 -0.293,-0.406 -0.503,-0.392l-0.797,0.028c0.125,-0.139 0.195,-0.307 0.195,-0.503c0,-0.266 -0.097,-0.49 -0.461,-0.671c-0.657,-0.322 -1.357,-0.406 -1.511,-0.406c-0.223,0 -0.405,0.168 -0.405,0.392c0,0.125 0.056,0.237 0.14,0.307c0.447,0.406 0.489,0.462 0.881,0.951l-1.469,0.07c-0.21,-0.447 -0.252,-0.657 -0.391,-1.133c-0.126,-0.433 -0.364,-0.545 -0.798,-0.545c-0.797,0 -1.021,0.406 -1.021,0.727c0,0.308 0.154,0.727 0.294,1.049l-2.126,0.112c-0.21,0.014 -0.461,0.098 -0.461,0.378c0,0.321 0.265,0.405 0.503,0.391l2.462,-0.112ZM83.965,7.638l0,0.993l-5.72,0l0,-0.993l5.72,0ZM78.245,6.869l0,-0.588c0,-0.266 0.069,-0.406 0.405,-0.406l4.909,0c0.336,0 0.406,0.14 0.406,0.406l0,0.588l-5.72,0ZM83.965,9.414l0,0.601c0,0.28 -0.07,0.42 -0.406,0.42l-4.909,0c-0.336,0 -0.405,-0.154 -0.405,-0.42l0,-0.601l5.72,0ZM78.51,2.393c0.742,-0.629 0.937,-0.825 0.937,-1.161c0,-0.475 -0.531,-0.881 -1.091,-0.881c-0.419,0 -0.587,0.21 -0.741,0.42c-1.021,1.426 -1.44,2.014 -2.825,2.951c-0.14,0.098 -0.252,0.181 -0.252,0.391c0,0.21 0.154,0.392 0.392,0.392c0.308,0 1.622,-0.741 1.748,-0.825l0,0.517c0,0.811 0.839,0.811 0.923,0.811c0.476,0 0.909,-0.237 0.909,-0.811l0,-1.804Z" style="fill:#231f20;fill-rule:nonzero;"/><path d="M94.105,12.253l-2.741,0c-0.322,0 -0.406,-0.154 -0.406,-0.405l0,-3.105c0,-0.616 0,-0.784 -0.252,-0.965c-0.21,-0.154 -0.461,-0.224 -0.699,-0.224c-0.336,0 -0.657,0.154 -0.797,0.349c-0.126,0.182 -0.126,0.266 -0.126,0.84l0,2.937c0,0.755 0.391,1.342 1.454,1.342l9.105,0c1.077,0 1.455,-0.601 1.455,-1.342l0,-2.937c0,-0.616 0,-0.784 -0.252,-0.965c-0.209,-0.154 -0.475,-0.224 -0.699,-0.224c-0.336,0 -0.657,0.154 -0.797,0.349c-0.126,0.182 -0.126,0.266 -0.126,0.84l0,3.105c0,0.265 -0.084,0.405 -0.406,0.405l-2.769,0l0,-5.65l3.245,0c1.077,0 1.454,-0.616 1.454,-1.343l0,-2.517c0,-0.56 0,-0.77 -0.265,-0.979c-0.21,-0.154 -0.476,-0.224 -0.7,-0.224c-0.335,0 -0.685,0.154 -0.825,0.363c-0.126,0.182 -0.112,0.266 -0.112,0.84l0,2.671c0,0.266 -0.084,0.406 -0.405,0.406l-2.392,0l0,-4.224c0,-0.588 0,-0.798 -0.266,-1.007c-0.21,-0.168 -0.475,-0.224 -0.713,-0.224c-0.336,0 -0.685,0.154 -0.825,0.364c-0.14,0.181 -0.14,0.279 -0.14,0.867l0,4.224l-2.35,0c-0.335,0 -0.405,-0.14 -0.405,-0.406l0,-2.671c0,-0.56 0,-0.77 -0.266,-0.979c-0.21,-0.154 -0.476,-0.224 -0.699,-0.224c-0.336,0 -0.672,0.154 -0.812,0.363c-0.125,0.182 -0.125,0.266 -0.125,0.84l0,2.517c0,0.755 0.391,1.343 1.454,1.343l3.203,0l0,5.65Z" style="fill:#231f20;fill-rule:nonzero;"/><path d="M113.965,7.288c-0.321,0 -0.377,0.126 -0.531,0.588c-1.175,3.384 -3.413,3.454 -4.07,3.454c-2.42,0 -2.546,-1.468 -2.546,-2.769c0,-1.077 0.294,-6.392 0.294,-6.728c0,-0.293 0,-1.104 -1.049,-1.104c-0.993,0 -1.035,0.727 -1.063,1.007c0,0.028 -0.238,5.93 -0.238,7.035c0,1.734 0.154,4.168 3.875,4.168c2.923,0 4.14,-1.637 4.727,-2.602c0.42,-0.713 1.021,-2.224 1.021,-2.657c0,-0.196 -0.168,-0.392 -0.42,-0.392Z" style="fill:#231f20;fill-rule:nonzero;"/></g><defs><linearGradient id="_Linear1" x1="0" y1="0" x2="1" y2="0" gradientUnits="userSpaceOnUse" gradientTransform="matrix(1.05278e-15,-17.1932,17.1932,1.05278e-15,70.5839,50.5253)"><stop offset="0%" style="stop-color:#fffffe;stop-opacity:1"/><stop offset="100%" style="stop-color:#e2ddee;stop-opacity:1"/></linearGradient><linearGradient id="_Linear2" x1="0" y1="0" x2="1" y2="0" gradientUnits="userSpaceOnUse" gradientTransform="matrix(12.3495,39.5433,-39.5433,12.3495,41.6784,21.8903)"><stop offset="0%" style="stop-color:#fff;stop-opacity:1"/><stop offset="47%" style="stop-color:#fff;stop-opacity:0.733333"/><stop offset="100%" style="stop-color:#fff;stop-opacity:0"/></linearGradient></defs></svg>