<?xml version="1.0" encoding="UTF-8" standalone="no"?><!DOCTYPE svg PUBLIC "-//W3C//DTD SVG 1.1//EN" "http://www.w3.org/Graphics/SVG/1.1/DTD/svg11.dtd"><svg width="120px" height="90px" viewBox="0 0 120 90" version="1.1" xmlns="http://www.w3.org/2000/svg" xmlns:xlink="http://www.w3.org/1999/xlink" xml:space="preserve" style="fill-rule:evenodd;clip-rule:evenodd;stroke-linejoin:round;stroke-miterlimit:1.41421;"><g id="school-feat1-img"><path d="M59.982,44.118c0,0 -7.981,-6.812 -10.714,-9.464c-2.733,-2.653 -6.378,-1.423 -6.378,2.194c0,3.617 0,30.495 0,30.495c0,0 10.582,9.995 12.672,11.763c2.089,1.769 2.974,2.062 4.42,2.062c-0.008,-0.002 0,-37.05 0,-37.05Z" style="fill:#27ae60;"/><path d="M59.982,44.118c0,0 7.981,-6.812 10.714,-9.464c2.733,-2.653 6.378,-1.423 6.378,2.194c0,3.617 0,30.495 0,30.495c0,0 -10.582,9.995 -12.671,11.763c-2.09,1.769 -2.975,2.062 -4.421,2.062c0.008,-0.002 0,-37.05 0,-37.05Z" style="fill:#f5c20f;"/><path id="school-feat1-title" d="M28.513,3.554c0.252,0 0.28,0.196 0.28,0.252c0,0.028 -0.602,2.671 -3.217,4.895c-0.196,0.168 -0.28,0.237 -0.28,0.419c0,0.238 0.182,0.392 0.378,0.392c0.405,0 1.79,-1.161 1.804,-1.175l0,4.07c0,0.434 0,1.035 0.909,1.035c0.909,0 0.909,-0.699 0.909,-1.035l0,-4.615c0.448,0.419 1.301,1.202 1.637,1.202c0.209,0 0.377,-0.167 0.377,-0.391c0,-0.154 -0.056,-0.224 -0.112,-0.28c-0.629,-0.657 -1.216,-1.343 -1.692,-2.126c0.643,-0.853 1.371,-2.098 1.371,-2.587c0,-0.196 -0.126,-0.825 -0.909,-0.825l-0.7,0l0,-1.385c0,-0.364 0,-1.021 -0.909,-1.021c-0.881,0 -0.881,0.615 -0.881,1.021l0,1.385l-1.566,0c-0.14,0 -0.476,0.041 -0.476,0.391c0,0.336 0.322,0.378 0.476,0.378l2.601,0ZM34.485,1.889l1.399,0c0.14,0 0.363,0 0.419,0.266c0.014,0.098 0.014,2.252 0.014,2.49c0,1.762 -0.125,4.937 -0.545,6.531c-0.168,0.63 -0.448,1.385 -1.385,1.385l-1.091,0c-0.153,0 -0.475,0.028 -0.475,0.392c0,0.335 0.308,0.377 0.475,0.377l1.735,0c1.133,0 2.321,0.014 2.769,-2.322c0.14,-0.685 0.475,-2.405 0.475,-8.573c0,-1.315 -1.021,-1.315 -1.468,-1.315l-5.553,0c-0.153,0 -0.475,0.028 -0.475,0.378c0,0.349 0.308,0.391 0.475,0.391l1.385,0l0,2.938c0,2.223 -0.028,5.384 -2.322,7.888c-0.07,0.07 -0.154,0.168 -0.154,0.321c0,0.196 0.154,0.392 0.392,0.392c0.252,0 0.895,-0.629 1.133,-0.867c2.517,-2.49 2.797,-4.644 2.797,-8.266l0,-2.406ZM30.471,7.106c0.252,0 1.818,-0.909 1.818,-1.58c0,-0.392 -0.377,-0.713 -0.755,-0.713c-0.294,0 -0.433,0.125 -0.531,0.307c-0.364,0.658 -0.476,0.839 -0.672,1.105c-0.196,0.238 -0.265,0.322 -0.265,0.476c0,0.209 0.167,0.405 0.405,0.405Z" style="fill:#231f20;fill-rule:nonzero;"/><path d="M44.919,4.868c0,-0.559 0,-1.272 -0.993,-1.272c-0.965,0 -0.965,0.699 -0.965,1.272l0,7.105c0,0.756 0.391,1.343 1.454,1.343l3.693,0c0.895,0 1.273,-0.266 1.51,-0.545c0.476,-0.546 0.686,-1.888 0.686,-2.252c0,-0.574 -0.602,-0.783 -1.161,-0.783c-0.756,0 -0.797,0.279 -0.979,1.412c-0.196,1.161 -0.602,1.399 -1.231,1.399l-1.608,0c-0.336,0 -0.406,-0.154 -0.406,-0.42l0,-7.259ZM40.415,11.19c0.476,0 0.798,-0.14 0.979,-0.727c0.392,-1.259 0.588,-3.133 0.588,-4.699c0,-0.448 0,-0.812 -0.462,-0.812c-0.265,0 -0.377,0.14 -0.419,0.35c-0.294,1.357 -0.686,2.685 -1.413,3.86c-0.392,0.63 -0.406,0.686 -0.406,0.923c0,0.7 0.742,1.105 1.133,1.105ZM48.625,2.785c0,-0.406 -0.154,-0.756 -2.028,-1.497c-1.608,-0.629 -3.021,-0.853 -3.133,-0.853c-0.167,0 -0.377,0.154 -0.377,0.377c0,0.154 0.084,0.28 0.237,0.364c0.98,0.532 2.014,1.105 3.231,2.154c0.7,0.615 0.742,0.629 1.021,0.629c0.574,0 1.049,-0.573 1.049,-1.174ZM52.569,9.162c0,-0.797 -2.559,-4.573 -3.258,-4.573c-0.252,0 -0.392,0.224 -0.392,0.377c0,0.084 0.42,1.049 0.489,1.245c0.546,1.413 0.714,2.308 0.91,3.343c0.097,0.517 0.279,0.839 0.909,0.839c0.517,0 1.342,-0.35 1.342,-1.231Z" style="fill:#231f20;fill-rule:nonzero;"/><path d="M63.185,4.701c0.909,-0.714 2.378,-2.042 2.378,-2.77c0,-0.475 -0.532,-0.895 -1.147,-0.895c-0.476,0 -0.714,0.21 -0.951,0.602c-0.462,0.769 -1.077,1.762 -2.616,3.063l-0.923,0l0,-1.972l1.902,0c0.168,0 0.476,-0.042 0.476,-0.392c0,-0.336 -0.294,-0.378 -0.476,-0.378l-1.902,0l0,-0.391c0,-0.588 -0.014,-0.797 -0.28,-1.007c-0.209,-0.154 -0.475,-0.224 -0.699,-0.224c-0.35,0 -0.685,0.154 -0.839,0.364c-0.126,0.195 -0.126,0.279 -0.126,0.867l0,0.391l-2.811,0c-0.154,0 -0.476,0.028 -0.476,0.392c0,0.336 0.308,0.378 0.476,0.378l2.811,0l0,1.972l-4.028,0c-0.126,0 -0.476,0.028 -0.476,0.391c0,0.364 0.336,0.392 0.476,0.392l5.846,0c-1.972,1.315 -4.182,2.14 -5.874,2.545c-0.154,0.042 -0.448,0.098 -0.448,0.406c0,0.196 0.154,0.392 0.378,0.392c0.126,0 1.091,-0.182 2.294,-0.532l0,3.595c0,0.755 0.391,1.342 1.454,1.342l5.777,0c1.091,0 1.454,-0.615 1.454,-1.342l0,-3.497c0,-0.741 -0.391,-1.343 -1.454,-1.343l-3.986,0c0.811,-0.391 1.636,-0.811 2.755,-1.566l3.846,0c0.14,0 0.476,-0.028 0.476,-0.392c0,-0.363 -0.336,-0.391 -0.476,-0.391l-2.811,0ZM58.066,9.736l0,-1.497c0,-0.252 0.07,-0.405 0.406,-0.405l4.014,0c0.321,0 0.405,0.139 0.405,0.405l0,1.497l-4.825,0ZM62.891,10.505l0,1.538c0,0.266 -0.084,0.406 -0.405,0.406l-4.014,0c-0.336,0 -0.406,-0.14 -0.406,-0.406l0,-1.538l4.825,0Z" style="fill:#231f20;fill-rule:nonzero;"/><path d="M72.682,8.085l0,-1.203l1.035,0c0.153,0 0.475,-0.027 0.475,-0.391c0,-0.336 -0.308,-0.378 -0.475,-0.378l-1.301,0c0.503,-0.405 0.755,-0.601 0.755,-0.965c0,-0.349 -0.35,-0.601 -0.811,-0.601c-0.112,0 -0.49,0 -0.699,0.433c-0.084,0.154 -0.434,0.965 -0.532,1.133l-1.273,0c0.714,-0.783 0.979,-1.189 1.245,-1.608l2.839,0c0.154,0 0.476,-0.028 0.476,-0.392c0,-0.335 -0.308,-0.377 -0.476,-0.377l-2.433,0c0.251,-0.546 0.363,-0.965 0.447,-1.287l1.693,0c0.139,0 0.475,-0.028 0.475,-0.378c0,-0.349 -0.322,-0.391 -0.475,-0.391l-3.203,0c0.154,-0.224 0.224,-0.392 0.224,-0.574c0,-0.405 -0.392,-0.769 -0.938,-0.769c-0.587,0 -0.727,0.35 -0.797,0.531c-0.251,0.672 -0.559,1.343 -0.965,1.931c-0.168,0.237 -0.307,0.447 -0.307,0.559c0,0.028 0,0.28 0.279,0.378c-0.168,0 -0.531,0 -0.531,0.391c0,0.35 0.335,0.378 0.475,0.378l1.539,0c-0.112,0.28 -0.839,1.776 -1.972,2.727c-0.126,0.112 -0.224,0.21 -0.224,0.378c0,0.182 0.154,0.391 0.392,0.391c0.153,0 0.209,-0.042 0.643,-0.405l0,4.322c0,0.755 0.517,1.062 1.231,1.062l3.972,0c-0.014,0.238 0.182,0.42 0.391,0.42c0.168,0 0.616,-0.433 0.798,-0.615c1.706,-1.735 2.098,-3.315 2.251,-3.986c0.462,1.398 1.021,2.349 2.028,3.426c0.308,0.322 1.105,1.091 1.315,1.091c0.196,0 0.392,-0.168 0.392,-0.391c0,-0.154 -0.042,-0.196 -0.238,-0.406c-2.615,-2.811 -2.615,-6.35 -2.615,-7.637l0,-1.048l0.601,0c0.224,0 0.392,0.111 0.392,0.307c0,0.322 -0.658,2.266 -0.658,2.378c0,0.182 0.154,0.377 0.392,0.377c0.238,0 0.517,-0.377 0.741,-0.671c0.238,-0.322 1.133,-1.594 1.133,-2.252c0,-0.042 0,-0.909 -1.049,-0.909l-2.671,0c0.251,-0.447 0.685,-1.37 0.685,-1.804c0,-0.755 -0.811,-0.881 -1.119,-0.881c-0.587,0 -0.923,0.28 -1.021,0.867c-0.196,1.133 -0.392,2.294 -0.881,3.343c-0.084,0.168 -0.601,0.951 -0.601,1.161c0,0.209 0.167,0.377 0.377,0.377c0.392,0 1.511,-1.44 1.804,-1.874l0,0.629c0,3.287 -0.643,5.805 -2.042,7.525c-0.111,-0.168 -0.223,-0.21 -0.433,-0.21l-0.755,0l0,-1.328l0.797,0c0.14,0 0.475,-0.042 0.475,-0.392c0,-0.336 -0.321,-0.392 -0.475,-0.392l-0.797,0l0,-1.23l0.797,0c0.14,0 0.475,-0.028 0.475,-0.392c0,-0.336 -0.321,-0.378 -0.475,-0.378l-0.797,0ZM71.017,8.855l0,1.23l-1.007,0l0,-1.23l1.007,0ZM70.01,8.085l0,-0.825c0,-0.28 0.056,-0.378 0.378,-0.378l0.629,0l0,1.203l-1.007,0ZM71.017,10.869l0,1.328l-0.629,0c-0.322,0 -0.378,-0.084 -0.378,-0.363l0,-0.965l1.007,0ZM70.066,2.449c-0.084,0.545 -0.224,0.951 -0.336,1.287l-1.594,0c0.21,-0.112 0.965,-0.588 1.636,-1.287l0.294,0Z" style="fill:#231f20;fill-rule:nonzero;"/><path d="M85.703,9.19c-1.021,0.224 -1.133,0.252 -1.133,0.672c0,0.293 0.14,0.783 0.601,0.783c0.42,0 2.476,-0.895 3.077,-1.161c0.825,-0.35 0.923,-0.392 0.923,-0.671c0,-0.238 -0.195,-0.392 -0.377,-0.392c-0.056,0 -1.105,0.28 -1.385,0.364l0,-6.518c0,-0.35 0.182,-0.392 0.392,-0.42c1.552,-0.251 1.566,-0.405 1.566,-0.727c0,-0.335 -0.28,-0.755 -0.727,-0.755c-0.21,0 -0.266,0.028 -0.657,0.252c-0.378,0.223 -0.98,0.419 -1.119,0.461c-0.7,0.224 -1.161,0.35 -1.161,1.287l0,6.825ZM91.018,2.379c0,-0.252 0.055,-0.35 0.349,-0.35l0.504,0c0.293,0 0.349,0.098 0.349,0.35l0,6.476c0,0.265 -0.07,0.349 -0.349,0.349l-0.35,0c-0.42,0 -0.448,0.336 -0.448,0.406c0,0.349 0.322,0.405 0.49,0.405l1.049,0c0.475,0 1.357,0 1.357,-1.37l0,-6.028c0,-0.476 0,-1.357 -1.357,-1.357l-1.986,0c-0.476,0 -1.371,0 -1.371,1.357l0,8.322c0,0.433 0,1.034 0.881,1.034c0.868,0 0.882,-0.699 0.882,-1.034l0,-8.56ZM83.619,4.757c0.447,0 1.063,-0.462 1.063,-1.077c0,-1.007 -2.476,-3.119 -2.853,-3.119c-0.196,0 -0.392,0.154 -0.392,0.377c0,0.07 0.014,0.112 0.28,0.532c0.363,0.587 0.713,1.356 0.923,2.112c0.252,0.937 0.321,1.175 0.979,1.175ZM82.584,11.148c-0.14,0.084 -0.839,0.434 -0.993,0.518c-0.336,0.196 -0.364,0.461 -0.364,0.699c0,0.643 0.294,0.993 0.672,0.993c0.475,0 1.16,-0.937 1.524,-1.44c0.797,1.076 1.65,1.286 3.287,1.286l7.245,0c0.139,0 0.475,-0.028 0.475,-0.391c0,-0.35 -0.336,-0.392 -0.475,-0.392l-6.56,0c-1.399,0 -2.839,-0.112 -3.007,-1.65l0,-3.329c0,-0.755 -0.517,-1.063 -1.231,-1.063l-1.314,0c-0.154,0 -0.476,0.042 -0.476,0.392c0,0.335 0.308,0.391 0.476,0.391l0.363,0c0.322,0 0.378,0.084 0.378,0.364l0,3.622Z" style="fill:#231f20;fill-rule:nonzero;"/></g></svg>
