<?xml version="1.0" standalone="no"?><!DOCTYPE svg PUBLIC "-//W3C//DTD SVG 1.1//EN" "http://www.w3.org/Graphics/SVG/1.1/DTD/svg11.dtd"><svg width="100%" height="100%" viewBox="0 0 46 8" version="1.1" xmlns="http://www.w3.org/2000/svg" xmlns:xlink="http://www.w3.org/1999/xlink" xml:space="preserve" style="fill-rule:evenodd;clip-rule:evenodd;stroke-linejoin:round;stroke-miterlimit:1.41421;"><g id="school-bar"><path d="M21.013,1.788c1.22,-1.121 3.128,-1.038 4.248,0.198c1.108,1.209 1.025,3.114 -0.2,4.232c-1.22,1.113 -3.128,1.03 -4.233,-0.198c-1.126,-1.225 -1.027,-3.119 0.185,-4.232Z" style="fill:#ffb3d5;fill-rule:nonzero;"/><path d="M38.028,8c4.028,0.018 8,-4 8,-4c0,0 -3.977,-3.989 -8,-4c-4.012,-0.015 -8,4 -8,4c0,0 3.993,3.987 8,4Z" style="fill:#ffb3d5;fill-rule:nonzero;"/><path d="M8,8c4.012,0.018 8,-4 8,-4c0,0 -3.981,-3.989 -8,-4c-4.017,-0.015 -8,4 -8,4c0,0 3.975,3.987 8,4Z" style="fill:#ffb3d5;fill-rule:nonzero;"/></g></svg>