<?xml version="1.0" encoding="UTF-8" standalone="no"?>
<svg width="770px" height="173px" viewBox="0 0 770 173" version="1.1" xmlns="http://www.w3.org/2000/svg" xmlns:xlink="http://www.w3.org/1999/xlink">
    <!-- Generator: Sketch Beta 3.8 (29658) - http://www.bohemiancoding.com/sketch -->
    <title>school-title</title>
    <desc>Created with Sketch Beta.</desc>
    <defs>
        <path d="M85.1298635,16.4667235 L86.1952218,14.6979522 C86.2622867,14.5919795 86.3273038,14.483959 86.3964164,14.3790102 C86.5587031,14.1332765 86.5807167,14.1081911 86.7271331,13.9131399 L86.7307167,13.883959 C86.7511945,13.7595563 86.7691126,13.6341297 86.7921502,13.509727 C86.8382253,13.2614334 86.8940273,13.0146758 86.9605802,12.7704778 C87.225256,11.794198 87.6522184,10.8629693 88.21843,10.0249147 C88.4308874,9.7105802 88.6622867,9.40955631 88.9116041,9.12389078 C89.1337884,8.86996587 89.1967577,8.81313993 89.4337884,8.57354949 L95.1399317,3.03122867 C95.2305461,2.94675768 95.3196246,2.86023891 95.4122867,2.77730375 C95.6892491,2.52901024 95.9820819,2.29761092 96.2872014,2.08464164 C97.3054608,1.37406143 98.4665529,0.87337884 99.6819113,0.61996587 C100.046416,0.544197952 100.415529,0.490443686 100.786689,0.459215017 C101.116382,0.431569966 101.199317,0.434641638 101.530034,0.426962457 C101.653925,0.429010239 101.778328,0.43105802 101.902218,0.433105802 C102.026109,0.440273038 102.15,0.444880546 102.273891,0.454607509 C102.52116,0.473549488 102.767918,0.502730375 103.01314,0.542150171 C103.993515,0.698293515 104.947782,1.01467577 105.827816,1.47440273 C106.157509,1.64692833 106.476962,1.8394198 106.783618,2.0503413 C107.056485,2.23771331 107.118942,2.29300341 107.379522,2.49675768 L109.640273,4.33771331 L109.66843,4.30955631 L109.941297,4.05767918 C110.035495,3.9778157 110.128157,3.89590444 110.223891,3.81757679 C110.511604,3.58259386 110.81314,3.36552901 111.126962,3.1668942 C112.06843,2.57150171 113.117406,2.1496587 114.208874,1.92645051 C114.572355,1.85221843 114.940444,1.8 115.31058,1.77030717 C115.639761,1.74368601 115.722184,1.74726962 116.051877,1.74061433 L122.004778,1.74061433 C122.334471,1.74726962 122.417406,1.74368601 122.746587,1.77030717 C123.486348,1.83020478 124.218942,1.97969283 124.922867,2.21467577 C125.979522,2.56740614 126.970137,3.11313993 127.832765,3.81757679 C128.599659,4.44368601 129.264164,5.19368601 129.793515,6.03020478 C130.057679,6.44846416 130.288567,6.88822526 130.482594,7.34334471 C130.605461,7.63208191 130.621843,7.68993174 130.72116,7.96843003 L130.937713,8.04573379 C131.243857,8.16860068 131.322696,8.19522184 131.620648,8.33651877 C132.179693,8.60170648 132.711604,8.92320819 133.206143,9.29488055 C133.612116,9.6 133.992491,9.93890785 134.342662,10.3064846 C134.641126,10.2445392 134.942662,10.1979522 135.246246,10.1656997 C135.567235,10.1319113 135.887201,10.1211604 136.209215,10.115529 L164.946758,10.115529 C165.053754,10.1170648 165.160751,10.1191126 165.267747,10.1211604 C165.588737,10.1375427 165.907167,10.1600683 166.226109,10.2046075 C166.427816,10.2327645 166.62901,10.2680887 166.828669,10.3095563 L170.387201,4.90341297 C170.57099,4.63617747 170.612969,4.56604096 170.812628,4.30955631 C171.03686,4.02133106 171.278498,3.74641638 171.535495,3.48686007 C172.737543,2.2725256 174.274403,1.40733788 175.935666,1.00904437 C176.409727,0.895392491 176.892491,0.819624573 177.378328,0.78225256 C177.701877,0.757167235 177.783788,0.760750853 178.108362,0.755119454 C178.230205,0.757679181 178.351536,0.760750853 178.473379,0.76331058 C178.79744,0.783788396 178.879352,0.783788396 179.201877,0.823208191 C179.564334,0.867235495 179.924232,0.933276451 180.27901,1.02030717 C180.75256,1.13651877 181.216382,1.29010239 181.665358,1.47952218 C181.964334,1.60546075 182.035495,1.64590444 182.326792,1.78976109 L197.762969,9.79505119 C197.870478,9.85392491 197.97901,9.91023891 198.085495,9.97064846 C198.298464,10.0919795 198.506314,10.2220137 198.708532,10.359727 C199.619795,10.9807167 200.417406,11.765529 201.05273,12.6670648 C201.264164,12.9670648 201.457679,13.2803754 201.632253,13.603413 C201.787372,13.8911263 201.817065,13.9674061 201.954778,14.2638225 L201.980887,14.3273038 L202.06587,14.2807167 L202.393003,14.11843 C202.68942,13.9853242 202.761604,13.9479522 203.065188,13.8327645 C203.748635,13.5737201 204.462799,13.397099 205.187713,13.3064846 C206.396928,13.1554608 207.633788,13.247099 208.807167,13.574744 C209.981058,13.902901 211.086348,14.4650171 212.04215,15.2201365 C212.520307,15.5979522 212.960068,16.0228669 213.354266,16.4872014 C213.564676,16.734471 213.609727,16.8025597 213.804266,17.062116 L218.361604,23.3846416 C218.431229,23.4854949 218.502901,23.5848123 218.570478,23.6866894 C218.705631,23.8914676 218.832594,24.1008532 218.951365,24.3158703 C219.307167,24.9593857 219.585154,25.6453925 219.778157,26.3549488 C220.035666,27.3015358 220.140614,28.2880546 220.087884,29.2674061 C219.981911,31.2312287 219.236007,33.1387372 217.981229,34.6530717 C217.511775,35.2192833 216.974744,35.7286689 216.384471,36.1674061 C216.187884,36.3138225 215.985154,36.4520478 215.777304,36.5820819 C215.673891,36.647099 215.567406,36.7080205 215.461945,36.7709898 L189.872867,51.4116041 C190.366894,51.4464164 190.858362,51.5098976 191.34471,51.6020478 C191.880205,51.7039249 192.010239,51.7489761 192.536519,51.8887372 L208.051024,56.4240614 C208.245563,56.4860068 208.44215,56.5433447 208.635154,56.6104096 C209.215188,56.8105802 209.780887,57.0532423 210.325597,57.3358362 C211.961263,58.1831058 213.404949,59.3897611 214.530205,60.8488055 C214.905973,61.3356655 215.239761,61.8491468 215.544881,62.3825939 C215.599659,62.4793515 215.648805,62.5791809 215.701024,62.6774744 L243.63942,62.6774744 L244.253754,62.6923208 C244.45802,62.7071672 244.662799,62.7220137 244.867065,62.7368601 C244.938225,62.7455631 245.00273,62.7532423 245.061604,62.7604096 C245.426109,62.3242321 245.820307,61.912628 246.240614,61.5291809 C247.53942,60.3450512 249.083959,59.437372 250.750341,58.8788396 C251.675939,58.5691126 252.63686,58.3663823 253.608532,58.2762799 C254.126621,58.228157 254.257679,58.2343003 254.777304,58.2220137 L305.616553,58.2220137 C306.136689,58.2343003 306.267235,58.228157 306.785836,58.2762799 C307.951536,58.3843003 309.101877,58.6546075 310.193857,59.0779863 C311.833106,59.7127986 313.33413,60.6906143 314.576621,61.9336177 C315.95785,63.3148464 317.01041,65.0145051 317.631399,66.8667235 C317.941126,67.7918089 318.143857,68.7527304 318.233959,69.7244027 C318.282082,70.2430034 318.275939,70.3735495 318.288225,70.893686 L318.288225,76.7595563 L323.199317,76.7595563 L323.796246,76.7738908 C323.994881,76.7877133 324.193515,76.8020478 324.39215,76.8158703 C324.919454,76.8783276 325.053072,76.884471 325.574744,76.9843003 C325.75802,77.0191126 325.940273,77.0580205 326.121502,77.1010239 L326.121502,69.3025597 C326.133276,68.7824232 326.127645,68.6518771 326.175256,68.1332765 C326.283788,66.9670648 326.554096,65.8172355 326.976962,64.725256 C327.682935,62.9032423 328.812799,61.2542662 330.256485,59.9380546 C331.55529,58.7539249 333.099829,57.8462457 334.766212,57.2877133 C335.691297,56.9774744 336.652218,56.774744 337.623891,56.6851536 C338.14198,56.6370307 338.273038,56.6431741 338.793174,56.6308874 L389.791126,56.6308874 C389.986177,56.6354949 390.181229,56.6401024 390.37628,56.644198 C390.895392,56.6805461 391.026451,56.6805461 391.54198,56.7522184 C392.50802,56.887372 393.458703,57.1341297 394.36843,57.4863481 C396.007679,58.1216724 397.508703,59.0994881 398.751195,60.3424915 C400.132423,61.7237201 401.184983,63.4233788 401.805973,65.2755973 C402.022014,65.9201365 402.185836,66.5825939 402.295904,67.2532423 L409.041809,57.0051195 C409.155461,56.840785 409.265529,56.6738908 409.383276,56.512116 C409.736007,56.0273038 410.123549,55.5675768 410.541809,55.1375427 C412.217406,53.4143345 414.379352,52.1897611 416.719454,51.6383959 C417.303072,51.5006826 417.896416,51.4044369 418.493857,51.3511945 C419.024744,51.3035836 419.158874,51.3102389 419.691809,51.3005119 C419.891468,51.3061433 420.091126,51.3122867 420.291297,51.3179181 C420.490444,51.3332765 420.690102,51.3435154 420.888737,51.3634812 C421.485666,51.4233788 422.077986,51.525256 422.66058,51.6691126 C423.242662,51.8124573 423.814505,51.9977816 424.370478,52.2220137 C424.865017,52.4216724 424.981229,52.4892491 425.459898,52.7232082 L455.374403,68.2372014 C455.846416,68.4967577 455.969795,68.5535836 456.422355,68.8464164 C457.101195,69.2851536 457.738055,69.7894198 458.320648,70.3494881 C459.195051,71.1895904 459.947611,72.1556314 460.548123,73.209215 C461.249488,74.4383959 461.74198,75.7848123 462,77.1757679 C462.14744,77.9708191 462.218601,78.7796928 462.211945,79.5880546 C462.20785,80.0708191 462.197611,80.1327645 462.164334,80.5459044 L468.06041,77.165529 C468.52884,76.9116041 468.64198,76.8394198 469.127816,76.6187713 C469.855802,76.2885666 470.615017,76.0274744 471.39215,75.8401024 C473.14198,75.4177474 474.978328,75.3742321 476.746587,75.712628 C478.514334,76.0510239 480.204778,76.7697952 481.675085,77.8085324 C482.491126,78.3854949 483.238567,79.0587031 483.896928,79.8107509 C484.248123,80.2116041 484.321331,80.3242321 484.643345,80.7491468 L486.537543,83.3769625 L495.341468,59.644198 C495.543174,59.1383959 495.584642,59.0073379 495.822696,58.5168942 C496.180034,57.7817406 496.60802,57.0808874 497.1,56.4276451 C498.20785,54.9573379 499.636177,53.7358362 501.26058,52.8696246 C502.884983,52.003413 504.695734,51.4986348 506.53413,51.3988055 C507.554437,51.3430034 508.581399,51.4116041 509.585324,51.6020478 C510.120819,51.7039249 510.250853,51.7489761 510.777133,51.8887372 L526.291126,56.4240614 C526.486177,56.4860068 526.682765,56.5433447 526.875768,56.6104096 C527.455802,56.8105802 528.02099,57.0532423 528.566212,57.3358362 C530.201877,58.1836177 531.645563,59.3897611 532.770819,60.8488055 C533.146075,61.3356655 533.480375,61.8491468 533.785495,62.3831058 C533.840273,62.4793515 533.88942,62.5791809 533.941638,62.6774744 L561.879522,62.6774744 L562.494369,62.6923208 C562.698635,62.7071672 562.902901,62.7220137 563.107167,62.7368601 C563.181399,62.7460751 563.247952,62.7542662 563.308874,62.7614334 C563.765529,61.865529 564.328669,61.0244027 564.983959,60.2605802 C566.100512,58.9607509 567.480717,57.8923208 569.019113,57.1382253 C569.788055,56.7609215 570.594881,56.4624573 571.42372,56.2479522 C571.976621,56.1046075 572.119966,56.090273 572.68157,55.9899317 L572.834642,55.9704778 L572.894539,55.6679181 L573.056826,55.03157 C573.229863,54.4745734 573.262116,54.3307167 573.478157,53.7880546 C573.720819,53.1778157 574.011604,52.5865188 574.345904,52.0213311 C575.126109,50.7015358 576.14744,49.5271331 577.345392,48.5703072 C578.543345,47.6139932 579.914846,46.8783276 581.374403,46.4088737 C582.208362,46.1411263 583.069966,45.9598976 583.940785,45.8692833 C584.521843,45.8088737 584.668771,45.816041 585.252389,45.8011945 L595.731399,45.8011945 C596.306826,45.815529 596.451706,45.8083618 597.024061,45.8672355 C597.883106,45.9552901 598.732935,46.1313993 599.555631,46.3919795 C600.996758,46.8481229 602.352901,47.5638225 603.543174,48.4950512 C604.733447,49.4267918 605.753242,50.5720137 606.541638,51.8616041 C606.99215,52.5977816 607.366894,53.3805461 607.658703,54.1930034 C607.837372,54.6916382 607.852218,54.7735495 607.978157,55.2322526 L608.059556,55.2476109 C608.632935,55.3853242 608.779863,55.4083618 609.340956,55.5906143 C609.550853,55.659215 609.757679,55.7385666 609.966041,55.8122867 L609.995222,55.8245734 L610.509727,55.7795222 L611.163993,55.7569966 C611.746075,55.7667235 611.892491,55.7580205 612.472014,55.8133106 C612.909727,55.8547782 613.335666,55.9177474 613.766724,56.0037543 C613.968942,56.044198 614.168601,56.0953925 614.369795,56.1409556 C614.549488,55.7641638 614.732765,55.3889078 614.915529,55.0131399 C615.436177,53.9559727 615.967065,52.9039249 616.51587,51.8605802 L616.654096,51.6 C616.811775,51.3061433 616.912628,51.112628 617.104096,50.7952218 C617.551536,50.0523891 618.07628,49.3556314 618.666041,48.7197952 C619.846587,47.447099 621.288225,46.4232082 622.87884,45.7274744 C624.468942,45.0317406 626.199829,44.6687713 627.935836,44.6656997 C629.020137,44.6641638 630.103925,44.8023891 631.153413,45.0757679 C631.712969,45.2216724 631.847099,45.2795222 632.393345,45.4679181 L641.737372,48.9614334 C642.281058,49.1805461 642.421843,49.2250853 642.947099,49.4866894 C643.734983,49.8788396 644.481399,50.353413 645.17099,50.8996587 C646.724232,52.1308874 647.978498,53.7261092 648.808362,55.5261092 C649.545563,57.1254266 649.943345,58.8757679 649.970478,60.6368601 C649.987372,61.7365188 649.859898,62.8382253 649.593174,63.9051195 C649.505119,64.2573379 649.403242,64.5880546 649.296758,64.9325939 C649.170307,65.3395904 649.039761,65.7455631 648.908191,66.1510239 C649.308532,66.1505119 649.709386,66.15 650.109727,66.15 C650.142491,65.7424915 650.175256,65.3349829 650.209044,64.9279863 L650.259727,64.3197952 C650.319625,63.7648464 650.324744,63.6240614 650.425597,63.074744 C650.577645,62.2505119 650.811604,61.4421502 651.122867,60.6639932 C651.82372,58.912116 652.918771,57.3245734 654.307167,56.0472696 C655.540956,54.9117747 657,54.0261092 658.576792,53.455802 C659.561775,53.0994881 660.590785,52.866041 661.632594,52.762116 C662.189078,52.7068259 662.329352,52.7139932 662.887372,52.7001706 L673.541468,52.7001706 C673.751365,52.7052901 673.961263,52.7052901 674.170648,52.715529 C674.798805,52.7467577 675.424915,52.8250853 676.041297,52.9489761 C677.275085,53.1972696 678.47099,53.6303754 679.577304,54.2298635 C680.046758,54.4837884 680.129693,54.5472696 680.554608,54.8201365 L680.619625,54.815529 L680.698464,54.6327645 L680.824915,54.3532423 C680.958532,54.0706485 681.09471,53.7890785 681.241126,53.512116 C681.431058,53.1527304 681.633788,52.7989761 681.848294,52.452901 C682.540444,51.3348123 683.355461,50.2940273 684.267747,49.3469283 C686.26587,47.2725256 688.719113,45.6650171 691.36843,44.5484642 C692.740956,43.9699659 694.167747,43.5209898 695.623208,43.2040956 C697.059215,42.8912969 698.524915,42.7064846 699.99471,42.665529 C701.256143,42.6307167 702.52116,42.7013652 703.770819,42.8759386 C705.499659,43.1175768 707.200853,43.5598976 708.826792,44.1957338 C711.174061,45.1141638 713.36314,46.4380546 715.247611,48.1131399 C716.220819,48.9783276 717.112628,49.9361775 717.901024,50.9728669 C718.359727,51.5764505 718.777986,52.2066553 719.167577,52.8568259 L719.179863,52.8767918 C720.013311,52.8511945 720.84727,52.828157 721.680717,52.8056314 C722.43942,52.7866894 723.197611,52.7687713 723.956314,52.752901 C728.283788,52.6668942 732.612287,52.6433447 736.940785,52.6131399 L737.573549,52.6244027 C737.783959,52.6387372 737.994369,52.6530717 738.204778,52.6674061 C738.763311,52.7334471 738.904608,52.7395904 739.457509,52.8476109 C740.285836,53.0088737 741.097782,53.2535836 741.877474,53.5766212 C743.437884,54.2226962 744.864164,55.1825939 746.050341,56.3851536 C747.236519,57.5872014 748.176962,59.0262799 748.802048,60.5953925 C749.192662,61.5757679 749.459898,62.6042662 749.595563,63.6506826 C749.668259,64.2087031 749.6657,64.3505119 749.695904,64.912116 C749.757338,66.9947099 749.820307,69.0773038 749.876109,71.1604096 C749.913481,72.6122867 749.947782,74.0641638 749.959044,75.516041 C749.972355,77.2172355 749.961604,78.918942 749.936519,80.6201365 C749.90273,82.9136519 749.834642,85.2071672 749.692321,87.496587 L749.674915,87.7607509 C749.655973,87.9721843 749.64215,88.1836177 749.618089,88.3945392 C749.544881,89.0262799 749.424573,89.652901 749.257679,90.2667235 C748.644369,92.521843 747.400853,94.5885666 745.695563,96.187372 C745.231741,96.6220137 744.734642,97.0223549 744.21041,97.3827645 C743.744539,97.7032423 743.616041,97.7656997 743.127645,98.0498294 L743.054949,98.0877133 L743.235154,98.4578498 L743.484983,99.0450512 C743.680034,99.5774744 743.73942,99.7075085 743.894027,100.253754 C744.1843,101.277133 744.344539,102.33686 744.370648,103.400171 C744.406997,104.888908 744.178157,106.382765 743.698464,107.792662 C743.080546,109.606997 742.048464,111.272355 740.698976,112.633106 C740.399488,112.935154 740.084642,113.221843 739.755973,113.49215 C739.59215,113.627304 739.423208,113.756826 739.253754,113.885324 C739.183618,113.938567 739.109898,113.986689 739.038225,114.03686 L739.596246,114.17099 C740.140444,114.330717 740.280205,114.360922 740.811604,114.561604 C741.607679,114.862628 742.373549,115.244027 743.093857,115.698635 C744.534983,116.60785 745.787201,117.808874 746.755802,119.21058 C747.603072,120.436689 748.231229,121.812287 748.602901,123.255461 C748.762116,123.873891 748.874232,124.504608 748.938737,125.139932 C748.995563,125.704608 748.988396,125.84744 749.00273,126.414676 L749.00273,136.981229 C748.988908,137.538737 748.996075,137.67901 748.940785,138.233959 C748.858362,139.06587 748.693003,139.890102 748.448294,140.689761 C747.896928,142.490785 746.941126,144.161263 745.667406,145.549147 C744.394198,146.936519 742.811775,148.032082 741.064505,148.736007 C740.094881,149.126621 739.076621,149.396416 738.040444,149.537201 C737.488055,149.612457 737.347782,149.610922 736.791297,149.64471 C735.305119,149.698464 733.818942,149.751706 732.332253,149.803925 C728.612457,149.930375 724.892662,150.050171 721.171843,150.155631 C714.481229,150.345051 707.78959,150.496075 701.096928,150.601024 C689.587372,150.782253 678.076792,150.824744 666.566212,150.712116 L665.459386,150.700341 C664.893174,150.679863 664.750341,150.685495 664.186689,150.622526 C663.341468,150.528328 662.506485,150.348123 661.697099,150.086519 C660.697782,149.763993 659.741468,149.315529 658.853242,148.757509 L656.935495,150.414164 C656.493686,150.776621 656.389761,150.875939 655.921331,151.203584 C655.218942,151.695563 654.466894,152.11587 653.679522,152.455802 C651.907167,153.221672 649.963823,153.574403 648.035324,153.480717 C646.321843,153.396758 644.629352,152.961604 643.087884,152.20802 C642.124915,151.737543 641.222867,151.144198 640.408874,150.446928 C639.974744,150.074744 639.880546,149.9657 639.476109,149.562287 C638.915529,148.973549 638.355973,148.383276 637.798464,147.791468 C635.975427,145.851706 634.172867,143.894027 632.401536,141.907167 L632.175256,141.652218 C631.856826,142.030546 631.537884,142.40785 631.21843,142.784642 C630.868259,143.19471 630.517065,143.603754 630.165358,144.012287 C629.107167,145.233788 628.040273,146.447099 626.959044,147.647611 C626.77884,147.847782 626.598123,148.04744 626.417406,148.247099 C626.125085,148.568601 625.753925,148.9843 625.440102,149.296075 C625.133447,149.600171 624.811945,149.887884 624.476109,150.159215 C623.300683,151.10785 621.956314,151.843515 620.523379,152.32116 C619.089932,152.798805 617.573038,153.017406 616.063311,152.963652 C614.769625,152.917065 613.48413,152.671331 612.264676,152.237201 C611.451706,151.947952 610.668942,151.574744 609.931741,151.126792 C609.384471,150.794027 608.012457,149.840785 607.817918,149.708191 L607.533788,149.897099 C607.344881,150.008703 607.158532,150.125939 606.967065,150.232423 C606.391638,150.553413 605.791126,150.829352 605.172696,151.056655 C604.14215,151.436007 603.062969,151.680205 601.969454,151.782082 C601.386348,151.836348 601.238908,151.827133 600.653754,151.835324 C599.282253,151.819966 597.911263,151.803072 596.539761,151.782594 C594.674744,151.751877 592.810239,151.711433 590.946246,151.641809 C588.912799,151.566041 586.881399,151.455461 584.850512,151.327986 C584.204437,151.287543 583.55785,151.246075 582.911775,151.203072 C582.502218,151.175427 581.423549,151.114505 580.87116,151.048464 C580.010068,150.946075 579.160239,150.755119 578.338055,150.479181 C576.898976,149.995904 575.55,149.253072 574.372526,148.295222 C573.362457,147.473038 572.480887,146.49471 571.767747,145.40529 C571.094027,145.798464 570.384471,146.130205 569.649317,146.393345 C568.673038,146.742491 567.654266,146.971331 566.622184,147.072696 C566.071843,147.126962 565.932594,147.120307 565.380205,147.13413 L553.923379,147.13413 C553.716553,147.12901 553.508703,147.12901 553.301877,147.118771 C552.680375,147.088055 552.061433,147.011775 551.451706,146.890444 C550.231229,146.647782 549.047611,146.224403 547.95,145.637713 C546.852901,145.051024 545.843345,144.30256 544.963311,143.422526 C544.523549,142.982765 544.116041,142.510239 543.745392,142.01058 C543.416212,141.566724 543.350171,141.443857 543.054778,140.976962 L543.050171,140.968259 L541.136519,144.771502 L540.853413,145.302389 C540.580034,145.762116 540.519113,145.882423 540.213481,146.32116 C539.63959,147.144369 538.96843,147.898976 538.217406,148.563993 C537.014846,149.628328 535.61058,150.460239 534.099317,151.002901 C532.588055,151.545563 530.975427,151.796928 529.370478,151.740614 C528.568771,151.712457 527.769625,151.607509 526.987372,151.428328 C526.4657,151.309044 526.339761,151.26041 525.828328,151.104266 L510.473549,146.012457 C509.960068,145.828669 509.827986,145.791809 509.329352,145.570648 C508.207167,145.073549 507.158703,144.41314 506.226451,143.615529 C504.82628,142.418601 503.695392,140.916041 502.931058,139.240444 C502.25273,137.751195 501.866724,136.131911 501.800171,134.496758 C501.759215,133.474915 501.84215,132.448464 502.046928,131.447099 C502.149829,130.942321 502.183106,130.85273 502.313652,130.38942 L502.170819,130.366382 C501.570819,130.238396 501.571331,130.238396 500.978498,130.081229 L485.384642,125.546416 C484.866041,125.382082 484.732423,125.349829 484.226621,125.148123 C483.27901,124.769795 482.376962,124.276792 481.547099,123.682423 C480.052218,122.612457 478.79744,121.216382 477.892321,119.615529 C477.667577,119.218259 477.465358,118.809215 477.285154,118.390444 L424.407338,148.643345 C423.939932,148.896246 423.827304,148.967918 423.342491,149.187543 C422.616553,149.516212 421.858874,149.776792 421.083788,149.963652 C419.338567,150.383959 417.50785,150.428498 415.744198,150.092662 C413.981058,149.756826 412.294198,149.042662 410.825939,148.010068 C410.01041,147.437201 409.263481,146.767065 408.604608,146.019113 C408.253413,145.620307 408.179693,145.508191 407.857679,145.085836 L406.346928,143.003754 C406.192833,143.352389 406.134471,143.492662 405.923549,143.890444 C405.477133,144.733618 404.935495,145.526109 404.311433,146.248464 C403.188225,147.548294 401.799829,148.614676 400.253754,149.364164 C398.535154,150.197611 396.631741,150.634812 394.721672,150.634812 C393.767918,150.6343 392.813652,150.52628 391.883959,150.312287 C391.387884,150.198123 391.268089,150.153072 390.781229,150.005631 L328.565529,129.638396 C328.078669,129.466382 327.953242,129.43157 327.479181,129.226792 C326.589932,128.842321 325.745222,128.355461 324.967065,127.77901 C323.877133,126.972184 322.918771,125.989761 322.139078,124.879863 C321.67372,124.217406 321.272355,123.51041 320.941638,122.771672 L310.307509,144.424403 C310.066894,144.886177 310.014676,145.006485 309.742833,145.450853 C309.232935,146.2843 308.62628,147.058362 307.939249,147.75256 C306.701365,149.00273 305.203413,149.989249 303.5657,150.632765 C301.928498,151.275768 300.159215,151.572184 298.401195,151.498464 C297.425427,151.457509 296.454266,151.303413 295.513823,151.039761 C295.012116,150.898976 294.891809,150.846758 294.401365,150.671672 L279.444369,144.943515 C278.950341,144.740785 278.822867,144.698294 278.34471,144.461263 C277.268089,143.927304 276.269283,143.239761 275.386177,142.425256 C274.355631,141.475085 273.484812,140.353413 272.820307,139.119625 C272.250512,138.061945 271.832253,136.923379 271.582423,135.747952 C271.290102,134.376962 271.228157,132.958874 271.398635,131.567406 C271.520478,130.57372 271.76058,129.594881 272.112287,128.65802 C272.300171,128.15785 272.364676,128.040102 272.58686,127.554778 L277.938225,116.582765 L258.062457,116.582765 C258.569795,117.445904 258.974744,118.36843 259.265529,119.327304 C259.506655,120.120819 259.668942,120.938396 259.750341,121.763652 C259.804608,122.313993 259.797952,122.453242 259.811263,123.005631 L259.811263,134.462457 C259.797952,135.014846 259.804608,135.154096 259.750341,135.704437 C259.648976,136.736007 259.420137,137.75529 259.070478,138.731058 C258.441297,140.48959 257.420478,142.101706 256.100171,143.422526 C254.779352,144.743345 253.167235,145.764164 251.408703,146.393345 C250.432423,146.742491 249.413652,146.971331 248.38157,147.072696 C247.831229,147.126962 247.69198,147.120307 247.13959,147.13413 L235.683276,147.13413 C235.475939,147.12901 235.268601,147.12901 235.061263,147.118771 C234.440273,147.088055 233.820819,147.011775 233.211092,146.890444 C231.990614,146.647782 230.806997,146.224403 229.709898,145.637713 C228.612287,145.051024 227.60273,144.30256 226.722696,143.422526 C226.282935,142.982765 225.875427,142.510239 225.50529,142.01058 C225.175597,141.566724 225.110068,141.443857 224.814164,140.976962 L224.809556,140.968259 L222.896416,144.771502 L222.613311,145.302389 C222.33942,145.762116 222.27901,145.882423 221.972867,146.32116 C221.399488,147.144369 220.727816,147.898976 219.976792,148.563993 C218.774744,149.628328 217.369966,150.460239 215.858703,151.002901 C214.34744,151.545563 212.734812,151.796928 211.130375,151.740614 C210.328157,151.712457 209.52901,151.607509 208.746758,151.428328 C208.225085,151.309044 208.099147,151.26041 207.587713,151.104266 L192.232935,146.012457 C191.719966,145.828669 191.587884,145.791809 191.088737,145.570648 C189.967065,145.073549 188.918601,144.41314 187.985836,143.615529 C186.741809,142.551706 185.708703,141.246758 184.958703,139.792321 C184.114505,138.155119 183.6343,136.336689 183.560068,134.496758 C183.518601,133.474915 183.601536,132.448464 183.806314,131.447099 C183.909727,130.942321 183.943003,130.85273 184.073038,130.389932 L183.930205,130.366382 C183.330205,130.238396 183.330717,130.238396 182.737884,130.081229 L169.587543,126.256997 C169.533788,126.410068 169.476962,126.562628 169.417065,126.713652 C168.797099,128.281229 167.861775,129.719795 166.681741,130.923379 C165.501195,132.126962 164.080546,133.089932 162.525256,133.740614 C161.489078,134.174232 160.395563,134.469113 159.28157,134.615017 C158.786519,134.680034 158.66058,134.679522 158.162969,134.711775 L158.138908,134.711775 L158.1343,134.735836 L157.995051,135.287713 C157.849659,135.771502 157.821502,135.895392 157.643857,136.368942 C157.31058,137.256143 156.877986,138.105973 156.355802,138.896928 C155.519795,140.163481 154.455973,141.275939 153.228328,142.167747 C152.001195,143.059556 150.613823,143.727645 149.151195,144.13157 C148.420137,144.333276 147.67116,144.468942 146.916041,144.537031 C146.412287,144.582082 146.285324,144.576451 145.780034,144.588225 L124.833276,144.588225 L124.533276,144.947611 L124.149317,145.367406 C123.79198,145.724744 123.708532,145.820478 123.327645,146.153242 C122.899147,146.527474 122.445563,146.872526 121.97099,147.185836 C120.546246,148.12628 118.932594,148.773379 117.252901,149.078498 C116.693345,149.179863 116.127133,149.243857 115.558874,149.269454 C115.369454,149.277645 115.180034,149.277645 114.990614,149.282253 L98.6011945,149.282253 C98.0959044,149.270478 97.968942,149.276109 97.4651877,149.231058 C96.5211604,149.146075 95.5868601,148.954608 94.6853242,148.661775 C92.8807167,148.075597 91.2153584,147.080887 89.8438567,145.769283 C88.4728669,144.458191 87.4039249,142.83942 86.737372,141.062969 C86.3641638,140.068771 86.1168942,139.028498 86.0027304,137.972867 C83.1199659,139.198464 80.0027304,139.85273 76.8706485,139.89215 C74.5474403,139.921843 72.2216724,139.6157 69.9870307,138.980887 C69.3220137,138.79198 68.6646758,138.574403 68.0186007,138.329181 C67.6515358,138.18942 67.2895904,138.038908 66.9286689,137.883788 L66.9168942,137.878669 L64.2609215,144.071672 L64.0080205,144.624573 C63.759727,145.104266 63.7059727,145.229181 63.4238908,145.690444 C62.8950512,146.555119 62.2622867,147.35529 61.5430034,148.069454 C60.2477816,149.355461 58.6745734,150.354266 56.9600683,150.980375 C55.4360068,151.536348 53.8075085,151.795904 52.1861775,151.741126 C51.3757679,151.713481 50.56843,151.60802 49.7784983,151.426792 C49.2517065,151.305973 49.124744,151.256826 48.6081911,151.098123 L33.3327645,146.006314 C32.8320819,145.826109 32.7030717,145.789761 32.2156997,145.574232 C31.302901,145.170819 30.4382253,144.658874 29.6452218,144.05273 C28.5343003,143.203925 27.5667235,142.170819 26.7921502,141.007679 C26.0175768,139.844027 25.4375427,138.552389 25.0827645,137.200341 C24.7786689,136.041809 24.6404437,134.840273 24.6726962,133.642833 C24.7049488,132.445392 24.9081911,131.253072 25.2742321,130.112457 C25.4370307,129.605631 25.4953925,129.484812 25.6935154,128.990785 L38.9631399,98.0452218 L13.0740614,98.0452218 L12.4709898,98.0308874 C11.9365188,97.9924915 11.8013652,97.9924915 11.2704778,97.9162116 C10.275256,97.7733788 9.29744027,97.5112628 8.36416382,97.1375427 C6.68293515,96.4643345 5.15273038,95.4286689 3.90307167,94.1180887 C2.65341297,92.8075085 1.69146758,91.2296928 1.09914676,89.5182594 C0.770477816,88.5680887 0.554948805,87.5790102 0.459726962,86.578157 C0.408532423,86.044198 0.415187713,85.9095563 0.402389078,85.3735495 L0.402389078,70.8143345 C0.415187713,70.2783276 0.408532423,70.143686 0.459726962,69.609727 C0.554948805,68.6088737 0.770477816,67.6197952 1.09914676,66.6696246 C1.69146758,64.9581911 2.65341297,63.3803754 3.90307167,62.0697952 C5.29197952,60.6127986 7.02696246,59.4977816 8.92935154,58.8394198 C9.87952218,58.5107509 10.8686007,58.2957338 11.8694539,58.2 C12.403413,58.1488055 12.5380546,58.1554608 13.0740614,58.1426621 L81.8933447,58.1426621 C82.097099,58.1472696 82.3003413,58.1523891 82.5040956,58.1575085 C83.0452218,58.1964164 83.1819113,58.1964164 83.718942,58.274744 C84.928157,58.4508532 86.1102389,58.8025597 87.2191126,59.316041 C88.2972696,59.8156997 89.3042662,60.4674061 90.2017065,61.246587 C91.5010239,60.0972696 93.0348123,59.2192833 94.6853242,58.6832765 C95.5059727,58.4165529 96.3542662,58.2337884 97.2122867,58.1395904 C97.1365188,58.1288396 97.0607509,58.1175768 96.9854949,58.1047782 C95.7614334,57.9035836 94.5813993,57.4530717 93.534471,56.7870307 C92.9068259,56.3877133 92.3283276,55.912116 91.8148464,55.3740614 C91.5865188,55.1349829 91.5368601,55.06843 91.3233788,54.815529 L86.3969283,48.7397611 C86.3191126,48.6399317 86.2397611,48.5416382 86.1639932,48.440273 C86.0129693,48.2375427 85.8701365,48.028157 85.7365188,47.8136519 C85.3346416,47.1696246 85.0131399,46.4759386 84.7807167,45.7535836 C84.4377133,44.6836177 84.2953925,43.5568259 84.3552901,42.4392491 C84.2472696,42.4469283 84.1392491,42.4530717 84.0307167,42.4566553 C83.9211604,42.4607509 83.8116041,42.4607509 83.7020478,42.4627986 L53.3631399,42.4627986 C53.2535836,42.4607509 53.1440273,42.4607509 53.034471,42.4566553 C52.8153584,42.4489761 52.5962457,42.4331058 52.378157,42.4095563 C51.7238908,42.3394198 51.0773038,42.1986348 50.4532423,41.990785 C49.0991468,41.540273 47.8561433,40.7728669 46.847099,39.7633106 C46.2609215,39.1776451 45.7561433,38.512628 45.3476109,37.7923208 L42.1075085,50.8249147 C42.0225256,51.140785 42.0056314,51.2216724 41.9017065,51.5324232 C41.6672355,52.2312287 41.3482935,52.9013652 40.9546075,53.5244027 C40.2977816,54.5636519 39.4325939,55.4677474 38.4230375,56.1691126 C37.312628,56.9406143 36.0332765,57.4627986 34.6996587,57.6880546 C33.9732082,57.8109215 33.2313993,57.8457338 32.4962457,57.7924915 C32.2515358,57.7745734 32.0068259,57.7469283 31.7641638,57.7095563 C31.6428328,57.6911263 31.5220137,57.6675768 31.4011945,57.6460751 L23.1906143,56.0452218 C22.866041,55.9750853 22.7836177,55.9622867 22.4636519,55.8726962 C21.7438567,55.6704778 21.0496587,55.3807167 20.4,55.0116041 C19.3162116,54.3952218 18.3619454,53.5587031 17.6093857,52.565529 C16.856314,51.571843 16.3095563,50.4266212 16.0095563,49.2168942 C15.8600683,48.6122867 15.7715017,47.9928328 15.7464164,47.3708191 C15.7331058,47.0385666 15.7397611,46.9556314 15.7469283,46.6233788 L15.7479522,46.6090444 L13.8696246,46.6090444 L13.4984642,46.6013652 C13.1692833,46.5813993 13.0863481,46.5813993 12.7587031,46.5419795 C12.0220137,46.4523891 11.2960751,46.2732082 10.6018771,46.0100683 C9.4443686,45.5713311 8.37901024,44.8976109 7.48617747,44.0401024 C6.50375427,43.0960751 5.73634812,41.9354949 5.25358362,40.6617747 C4.99044369,39.9675768 4.8112628,39.2416382 4.72167235,38.5049488 C4.69197952,38.259215 4.67201365,38.0124573 4.66228669,37.7651877 C4.65716724,37.6412969 4.65716724,37.5174061 4.65460751,37.3940273 L4.65460751,11.5300341 C4.65716724,11.4066553 4.65716724,11.2827645 4.66228669,11.1593857 C4.67201365,10.912116 4.69197952,10.6653584 4.72167235,10.4196246 C4.8112628,9.68242321 4.99044369,8.95648464 5.25358362,8.26228669 C5.73634812,6.9890785 6.50375427,5.82798635 7.48617747,4.88447099 C8.46860068,3.94095563 9.65938567,3.22064846 10.9515358,2.78959044 C11.6559727,2.55409556 12.3880546,2.40460751 13.1283276,2.34522184 C13.4569966,2.31860068 13.5399317,2.32167235 13.8696246,2.31501706 L22.3264505,2.31501706 C22.4503413,2.31757679 22.5742321,2.31757679 22.6976109,2.32269625 C23.0687713,2.33754266 23.4383959,2.37491468 23.8049488,2.43430034 C24.7822526,2.59351536 25.7324232,2.91040956 26.6093857,3.37064846 C26.8361775,3.48993174 27.0343003,3.60511945 27.2518771,3.74180887 C27.3302048,3.79095563 27.4064846,3.84368601 27.4837884,3.89488055 L27.6716724,3.70648464 C27.9117747,3.4837884 27.9686007,3.42440273 28.2220137,3.2165529 C28.5066553,2.98259386 28.8056314,2.76604096 29.1163823,2.56791809 C30.1530717,1.90750853 31.3208191,1.45802048 32.5331058,1.25324232 C32.896587,1.19180887 33.2636519,1.15238908 33.6317406,1.13498294 C33.7546075,1.12935154 33.8774744,1.12832765 33.9998294,1.12474403 C34.1226962,1.12627986 34.2455631,1.1278157 34.36843,1.12935154 C34.6955631,1.14675768 34.7779863,1.14624573 35.1035836,1.1831058 C35.4291809,1.21996587 35.5090444,1.23890785 35.83157,1.29522184 L44.0426621,2.89607509 C44.1639932,2.9221843 44.2863481,2.94624573 44.4076792,2.97491468 C44.6498294,3.03276451 44.8899317,3.09982935 45.1269625,3.17713311 C45.8375427,3.40802048 46.5199659,3.72542662 47.1542662,4.12116041 C48.3179181,4.84658703 49.3136519,5.83259386 50.0503413,6.9890785 C50.8546075,8.25102389 51.3430034,9.7059727 51.4638225,11.1977816 C51.5242321,11.9426621 51.4930034,12.6947099 51.3721843,13.4324232 C51.31843,13.7600683 51.2948805,13.8399317 51.2216724,14.1639932 L50.568942,16.7892491 C51.1571672,16.6023891 51.7643345,16.4744027 52.378157,16.4083618 C52.5962457,16.3848123 52.8153584,16.3694539 53.034471,16.3612628 C53.1440273,16.3576792 53.2535836,16.3576792 53.3631399,16.3556314 L83.7020478,16.3556314 C83.8116041,16.3576792 83.9211604,16.359215 84.0307167,16.3612628 C84.140273,16.3674061 84.2498294,16.3709898 84.3593857,16.3791809 C84.5779863,16.3945392 84.7960751,16.4180887 85.0131399,16.4493174 C85.0520478,16.4549488 85.0909556,16.4605802 85.1298635,16.4667235 L85.1298635,16.4667235 Z M657.624573,103.936177 C656.484983,106.036689 655.321331,108.124403 654.127986,110.195734 C654.741297,111.018942 655.357167,111.83959 655.972526,112.660751 C657.0343,114.073208 658.098123,115.48413 659.162457,116.895051 C659.477304,116.707679 659.641638,116.630887 660.058874,116.414846 L660.126962,116.383618 L659.877133,115.834812 L659.645734,115.252218 C659.466041,114.724915 659.411263,114.595904 659.27099,114.056314 C659.131229,113.516724 659.11587,113.377474 659.016553,112.829693 L657.624573,103.936177 L657.624573,103.936177 Z M402.36041,85.4708191 C402.280034,86.0989761 402.152048,86.7209898 401.97901,87.3296928 C401.658532,88.4559727 401.181399,89.5372014 400.564505,90.5329352 C399.845222,91.6945392 398.937543,92.737884 397.886519,93.6107509 C397.436007,93.9849829 396.959386,94.3274744 396.461775,94.6356655 C396.104949,94.8568259 395.813652,95.015529 395.43942,95.2054608 C395.341638,95.2546075 395.241297,95.2981229 395.14198,95.3447099 L392.825427,108.448464 L404.394369,112.235836 L404.942662,112.429352 C405.369113,112.602389 405.513481,112.653072 405.869283,112.823038 L428.625768,99.7755973 L405.518089,87.7914676 L404.986689,87.4996587 C404.527474,87.2180887 404.407167,87.1551195 403.968942,86.8412969 C403.395563,86.4302048 402.856997,85.9715017 402.36041,85.4708191 L402.36041,85.4708191 Z M132.377304,38.4972696 L103.403242,56.8023891 C103.120137,56.9733788 103.051536,57.0204778 102.758703,57.1740614 C102.099829,57.5196246 101.399488,57.7843003 100.676621,57.9619454 C100.523038,57.9993174 100.367918,58.0331058 100.212287,58.0627986 L161.055973,58.0627986 L161.631911,58.0761092 C162.142833,58.1109215 162.271843,58.1109215 162.779181,58.1805461 C163.730887,58.3116041 164.667747,58.5506826 165.565188,58.8926621 C167.362628,59.5771331 168.995222,60.6732082 170.309386,62.0774744 C171.623038,63.4817406 172.60802,65.183959 173.171672,67.0228669 C173.373891,67.6827645 173.521843,68.3595563 173.613993,69.0435154 L177.100853,59.644198 C177.30256,59.1383959 177.344027,59.0073379 177.582082,58.5168942 C177.812969,58.0423208 178.073038,57.5820819 178.360751,57.1397611 C177.363993,57.2544369 176.349317,57.206314 175.367406,56.9948805 C174.146416,56.7322526 172.981741,56.2197952 171.963993,55.4959044 C171.353754,55.0617747 170.796758,54.553413 170.308874,53.9846416 C170.092321,53.7317406 170.046246,53.662116 169.845051,53.3969283 L167.147099,49.6776451 L167.106143,49.6955631 L167.007338,49.8895904 C166.851195,50.1716724 166.690956,50.4491468 166.510751,50.7163823 C166.210751,51.1612628 165.872355,51.5795222 165.499659,51.9650171 C164.230546,53.2791809 162.574403,54.1976109 160.787201,54.5774744 C160.367406,54.6665529 159.941468,54.7264505 159.513993,54.7561433 C159.22884,54.7761092 159.156655,54.7735495 158.87099,54.7786689 L141.587201,54.7786689 C141.265188,54.7730375 140.945222,54.7617747 140.624232,54.7279863 C139.877816,54.6496587 139.141126,54.4796928 138.435666,54.2226962 C137.124573,53.7455631 135.928157,52.96843 134.958532,51.9650171 C133.98942,50.9610922 133.254778,49.7380546 132.823208,48.4110922 C132.624573,47.7993174 132.489932,47.1665529 132.422867,46.5271331 C132.389078,46.2061433 132.377816,45.8861775 132.372184,45.5636519 L132.372184,38.7895904 C132.374744,38.662116 132.375256,38.5771331 132.377304,38.4972696 L132.377304,38.4972696 Z" id="path-1"></path>
        <filter x="-50%" y="-50%" width="200%" height="200%" filterUnits="objectBoundingBox" id="filter-2">
            <feOffset dx="0" dy="5" in="SourceAlpha" result="shadowOffsetOuter1"></feOffset>
            <feGaussianBlur stdDeviation="5" in="shadowOffsetOuter1" result="shadowBlurOuter1"></feGaussianBlur>
            <feColorMatrix values="0 0 0 0 0   0 0 0 0 0   0 0 0 0 0  0 0 0 0.3 0" type="matrix" in="shadowBlurOuter1"></feColorMatrix>
        </filter>
    </defs>
    <g id="Page-1" stroke="none" stroke-width="1" fill="none" fill-rule="evenodd">
        <g id="school-title" transform="translate(10.000000, 5.000000)">
            <g id="Group">
                <g id="Shape">
                    <use fill="black" fill-opacity="1" filter="url(#filter-2)" xlink:href="#path-1"></use>
                    <use fill="#FFFFFF" fill-rule="evenodd" xlink:href="#path-1"></use>
                </g>
                <path d="M81.8933447,70.8972696 L13.0740614,70.8972696 L13.0740614,85.4569966 L58.1846416,85.4569966 L37.3397611,134.068259 L52.6151877,139.160068 L81.8933447,70.8972696 L81.8933447,70.8972696 Z M76.5629693,104.471672 C70.3571672,104.471672 65.1860068,109.563481 65.1860068,115.928498 C65.1860068,122.213652 70.2778157,127.305461 76.5629693,127.305461 C82.8481229,127.305461 88.0192833,122.213652 88.0192833,115.928498 C88.0192833,109.563481 82.8481229,104.471672 76.5629693,104.471672 L76.5629693,104.471672 Z M76.5629693,108.210922 C80.7793515,108.210922 84.2800341,111.552389 84.2800341,115.928498 C84.2800341,120.144881 80.859215,123.566212 76.5629693,123.566212 C72.3460751,123.566212 68.8453925,120.144881 68.8453925,115.928498 C68.8453925,111.552389 72.4259386,108.210922 76.5629693,108.210922 L76.5629693,108.210922 Z" id="Shape" fill="#E74C3C"></path>
                <polygon id="Shape" fill="#F39C12" points="145.780034 121.577304 157.634642 122.133788 161.055973 70.8179181 98.6011945 70.8179181 98.6011945 136.693515 114.990614 136.693515 114.990614 85.3771331 143.711775 85.3771331 141.643003 117.439761 118.093003 117.439761 118.093003 131.999488 145.780034 131.999488"></polygon>
                <polygon id="Shape" fill="#27AE60" points="236.081058 123.088567 236.081058 112.030034 225.181229 112.030034 243.638908 75.4320819 201.949659 75.4320819 204.495563 68.6697952 188.98157 64.134471 170.682594 113.461945 186.276451 117.996758 200.517747 79.4104096 200.517747 89.9918089 219.850853 89.9918089 196.221502 134.068259 211.57628 139.160068 224.624232 113.223379 224.624232 123.486348 235.683276 123.486348 235.683276 134.545392 247.13959 134.545392 247.13959 123.088567 236.081058 123.088567"></polygon>
                <path d="M305.616553,70.9766212 L254.777304,70.9766212 L254.777304,85.2179181 L305.616553,85.2179181 L305.616553,70.9766212 L305.616553,70.9766212 Z M323.199317,89.5141638 L251.833618,89.5141638 L251.833618,103.994539 L298.217406,103.994539 L283.976109,133.192833 L298.933618,138.92099 L323.199317,89.5141638 L323.199317,89.5141638 Z" id="Shape" fill="#3498DB"></path>
                <path d="M389.791126,69.3854949 L338.793174,69.3854949 L338.793174,83.9452218 L389.791126,83.9452218 L389.791126,69.3854949 L389.791126,69.3854949 Z M382.869113,92.0600683 L342.930205,86.5704778 L340.3843,100.891638 L380.323208,106.46058 L382.869113,92.0600683 L382.869113,92.0600683 Z M400.451877,124.361775 L338.236177,103.994539 L332.50802,117.67884 L394.72372,138.046075 L400.451877,124.361775 L400.451877,124.361775 Z" id="Shape" fill="#9B59B6"></path>
                <path d="M419.62628,64.0551195 L411.351706,76.6254266 L441.266212,92.1399317 L449.540785,79.5691126 L419.62628,64.0551195 L419.62628,64.0551195 Z M483.194539,100.493857 L474.363481,88.2414676 L409.283447,125.555119 L418.114505,137.727645 L483.194539,100.493857 L483.194539,100.493857 Z" id="Shape" fill="#E74C3C"></path>
                <polygon id="Shape" fill="#F39C12" points="554.319113 123.088567 554.319113 112.030034 543.419795 112.030034 561.877474 75.4320819 520.188225 75.4320819 522.73413 68.6697952 507.219625 64.134471 488.92116 113.461945 504.514505 117.996758 518.755802 79.4104096 518.755802 89.9918089 538.088908 89.9918089 514.459556 134.068259 529.814846 139.160068 542.862799 113.223379 542.862799 123.486348 553.921331 123.486348 553.921331 134.545392 565.378157 134.545392 565.378157 123.088567 554.319113 123.088567"></polygon>
                <path d="M642.450512,89.6447099 C644.19727,89.4701365 652.667918,89.1209898 654.501706,88.771843 L654.501706,78.9035836 C640.529181,78.9035836 638.433276,78.9035836 630.486348,79.5148464 C634.241468,69.5590444 636.162799,64.668942 637.298294,60.9138225 L627.953754,57.4203072 C625.42116,62.1363481 622.801536,68.2494881 621.491468,71.305802 C617.998464,79.5148464 617.823891,80.1261092 613.282423,92.2648464 L613.282423,84.9291809 C612.14744,84.9291809 612.059898,84.9291809 610.051536,85.0167235 C612.322014,82.396587 615.815017,78.2047782 618.522184,74.7988055 L611.274061,68.5110922 C610.488225,69.384471 609.963993,69.9087031 605.423038,74.7988055 L605.423038,67.725256 L595.991468,67.725256 C595.904437,62.6600683 595.816894,60.9138225 595.729352,58.555802 L585.249829,58.555802 C585.075256,61.0883959 585.075256,61.7872014 584.813652,67.8998294 C577.827133,68.3365188 577.128328,68.3365188 574.595734,68.5986348 L574.595734,78.2923208 L584.638567,78.2923208 C584.726109,81.2616041 584.813652,82.3095563 584.988225,84.4924915 L595.292662,84.4924915 C595.642321,82.6587031 595.816894,81.5232082 595.904437,77.9426621 C600.183276,77.7680887 601.580375,77.7680887 602.71587,77.681058 C601.580375,78.9035836 600.969113,79.6018771 595.205631,85.6279863 C593.72099,85.6279863 592.498464,85.7150171 589.96587,85.8025597 C584.027304,86.1517065 576.167918,86.5883959 571.976109,87.112628 L571.976109,97.2424915 C573.722867,97.2424915 582.368089,96.9803754 584.28942,96.8933447 C580.185154,100.997611 573.460751,107.54744 569.355973,111.82628 L575.206997,117.764846 C575.818771,117.328157 576.779181,116.542321 584.813652,110.080034 C586.123208,109.032082 586.297782,108.857509 586.559898,108.682423 L586.559898,110.603754 C588.219113,110.516724 591.275939,110.429181 593.022184,110.34215 C592.847611,110.603754 590.839249,113.223891 589.703754,114.708532 L589.703754,116.716894 C588.481229,116.97901 582.542662,118.638225 581.233106,118.987372 C578.001706,119.860751 575.032423,120.646587 572.936519,121.432423 L575.032423,129.903584 C577.128328,129.466894 587.258703,127.37099 589.529181,126.84727 C589.529181,128.681058 589.529181,128.943174 589.441638,129.554437 L583.154437,129.554437 L582.368089,138.549317 C590.053413,139.073038 592.673038,139.16058 600.794539,139.247611 C601.144198,137.326792 601.405802,135.754608 601.405802,130.602389 C601.405802,129.204778 601.405802,128.681058 601.231229,123.703413 C612.58413,120.472014 613.282423,120.122867 614.767065,119.511604 L612.58413,111.127986 C609.527304,111.739249 604.986348,112.874232 601.667918,113.747611 C602.279181,112.787201 605.51058,108.420819 606.208874,107.372867 C606.733106,106.499488 609.2657,102.307679 609.876962,101.34727 C609.614846,102.045563 608.392321,105.276962 608.130205,106.062799 C607.868089,106.761604 607.781058,107.023208 607.606485,107.722014 L616.339249,110.953413 C617.299659,109.381229 618.347611,107.372867 620.094369,103.704778 C620.793174,104.927304 622.0157,107.198294 624.460751,110.953413 C620.094369,117.241126 612.234471,128.593515 608.043174,134.619113 L616.513823,140.383106 C622.0157,134.357509 627.167918,128.069795 631.883959,121.432423 C635.813652,126.497611 639.655802,131.475256 648.650683,140.906826 L656.336007,134.269966 C645.856485,120.384471 644.633959,118.812799 638.869966,110.953413 C641.40256,107.110751 645.157679,100.648464 649.000341,93.225256 L642.450512,89.6447099 L642.450512,89.6447099 Z M622.889078,97.5046075 L626.032935,90.431058 C631.621843,90.3435154 632.407679,90.2564846 639.306655,89.9068259 C637.298294,92.7015358 632.844369,98.9892491 631.5343,100.91058 C628.740102,97.2424915 627.69215,96.1075085 626.731229,94.9720137 L622.889078,97.5046075 L622.889078,97.5046075 Z M610.663823,99.4259386 C609.266724,99.3383959 599.223891,99.6005119 596.778328,99.6875427 C597.38959,99.0762799 598.874232,97.5916382 600.446416,95.9324232 C606.209898,95.5832765 606.908703,95.4957338 612.235495,95.146587 L610.663823,99.4259386 L610.663823,99.4259386 Z" id="Shape" fill="#27AE60"></path>
                <path d="M737.027304,87.0250853 C737.201877,84.4049488 737.28942,81.0865188 737.28942,76.7201365 C737.28942,74.0129693 737.201877,71.305802 737.027304,65.3677474 C724.626451,65.4547782 723.229352,65.4547782 707.335495,66.066041 C708.470478,65.0180887 709.082253,63.7955631 709.082253,62.3109215 C709.082253,58.6433447 705.326621,55.4119454 700.611092,55.4119454 C696.855973,55.4119454 691.878328,57.6824232 691.878328,61.7872014 C691.878328,63.3588737 692.48959,65.1926621 694.235836,66.7648464 C688.384812,67.0269625 687.861092,67.0269625 676.944881,67.8998294 L676.944881,78.5539249 C693.187884,78.1177474 709.431399,77.5935154 725.674403,76.4580205 C725.499829,80.9119454 725.499829,82.5711604 725.674403,87.0250853 L737.027304,87.0250853 L737.027304,87.0250853 Z M731.703072,103.792321 C729.520137,100.037201 727.075085,96.1945392 721.922355,89.8197952 L721.922355,80.737372 C701.662116,81.1740614 686.379522,82.2220137 677.210068,83.0078498 L677.210068,92.7015358 C679.393003,92.7015358 683.061092,92.5269625 685.942833,92.4394198 C684.545734,95.2341297 683.934471,96.543686 683.061092,98.6395904 C681.314334,98.9017065 681.227304,98.9017065 680.353925,99.0762799 C671.708191,100.560922 670.747782,100.735495 669.961945,100.91058 L671.533618,110.953413 C682.624403,109.643345 686.030375,109.206655 695.548976,107.634471 C695.461945,109.206655 695.374403,110.34215 695.28686,112.262969 C685.680717,112.787201 682.449829,112.874232 675.37628,113.485495 L675.37628,123.353754 C683.235666,123.266724 683.759898,123.266724 695.112287,122.917065 C695.199829,125.188055 695.199829,125.973891 695.199829,126.84727 C680.528498,127.283959 678.869283,127.283959 665.595051,127.895222 L665.595051,138.112628 C689.086689,138.374232 712.665358,137.938055 736.33157,137.064676 L736.33157,126.497611 C726.37628,126.41058 724.804096,126.41058 707.51314,126.585154 C707.600683,124.05256 707.600683,123.266724 707.600683,122.480375 C715.285495,122.131229 716.158874,122.131229 723.232423,121.694539 L723.232423,111.477133 C717.293857,111.564676 716.333447,111.564676 707.51314,111.82628 C707.425597,109.817918 707.338567,108.944539 707.251024,107.54744 L696.160239,107.54744 C701.225427,106.674061 709.172355,105.276962 715.460068,103.879352 L713.800853,94.884471 C717.730546,101.259727 720.525256,105.014846 723.843686,109.032082 L731.703072,103.792321 L731.703072,103.792321 Z M713.713311,94.1861775 L713.62628,94.0116041 C708.211945,94.7098976 702.098805,95.5832765 696.334812,96.4566553 C696.771502,95.2341297 697.033618,94.5353242 697.382765,93.3998294 L692.405119,92.1773038 C700.002901,91.828157 707.600683,91.566041 719.389761,90.6056314 L713.713311,94.1861775 L713.713311,94.1861775 Z M662.887372,65.4547782 C662.625768,68.5986348 662.276109,72.702901 662.276109,78.7290102 C662.276109,83.9687713 662.538225,87.0250853 662.712799,90.2564846 L673.10529,90.2564846 C673.279863,86.8505119 673.716553,81.5232082 673.716553,74.5372014 C673.716553,70.4324232 673.62901,68.2494881 673.541468,65.4547782 L662.887372,65.4547782 L662.887372,65.4547782 Z" id="Shape" fill="#3498DB"></path>
                <path d="M22.3269625,11.6134812 L13.8696246,11.6134812 L13.8696246,37.4769625 L22.3269625,37.4769625 L22.3269625,11.6134812 L22.3269625,11.6134812 Z M42.2790102,12.0240614 L34.0679181,10.4226962 L24.9542662,47.0836177 L33.1648464,48.6849829 L42.2790102,12.0240614 L42.2790102,12.0240614 Z" id="Shape" fill="#FF66AB"></path>
                <rect id="Rectangle-path" fill="#FF66AB" x="53.3631399" y="25.6535836" width="30.3383959" height="7.67713311"></rect>
                <path d="M122.004778,16.7452218 L122.004778,11.0385666 L116.051877,11.0385666 L116.051877,16.9914676 L121.758532,16.9914676 L121.758532,22.6566553 L127.670478,22.6566553 L127.670478,16.7452218 L122.004778,16.7452218 L122.004778,16.7452218 Z M101.560239,9.72491468 L95.8535836,15.2672355 L107.800341,24.9967577 L113.506997,19.4544369 L101.560239,9.72491468 L101.560239,9.72491468 Z M94.0883959,19.5368601 L90.1064846,26.1460751 L103.900341,32.6738908 L107.882253,26.1051195 L94.0883959,19.5368601 L94.0883959,19.5368601 Z M129.476621,29.512628 L124.591126,23.3959044 L93.5549488,43.0192833 L98.4813993,49.0950512 L129.476621,29.512628 L129.476621,29.512628 Z" id="Shape" fill="#FF66AB"></path>
                <path d="M158.87099,41.0488055 L163.510239,41.2950512 L164.946758,19.4134812 L136.209215,19.4134812 L136.209215,26.1460751 L156.900512,26.1460751 L156.079352,38.8730375 L141.587201,38.8730375 L141.587201,45.646587 L158.87099,45.646587 L158.87099,41.0488055 L158.87099,41.0488055 Z M154.97099,28.7329352 L142.367406,28.7329352 L142.367406,35.465529 L154.97099,35.465529 L154.97099,28.7329352 L154.97099,28.7329352 Z" id="Shape" fill="#FF66AB"></path>
                <path d="M178.0843,10.0530717 L173.814676,16.5399317 L189.250853,24.5452218 L193.520478,18.0588737 L178.0843,10.0530717 L178.0843,10.0530717 Z M210.886177,28.855802 L206.32884,22.5337884 L172.74727,41.7875427 L177.304096,48.0691126 L210.886177,28.855802 L210.886177,28.855802 Z" id="Shape" fill="#FF66AB"></path>
                <path d="M15.4899317,79.5629693 L15.8278157,73.640785 C15.8278157,73.640785 48.8667235,72.9240614 56.3779863,73.1836177 C35.1931741,74.090785 20.7209898,74.1680887 15.4899317,79.5629693 L15.4899317,79.5629693 Z" id="Shape" fill-opacity="0.4" fill="#FFFFFC"></path>
                <path d="M100.9157,79.3889078 L101.253072,73.4662116 C101.253072,73.4662116 134.292491,72.75 141.803242,73.0095563 C120.618942,73.9167235 106.146246,73.9940273 100.9157,79.3889078 L100.9157,79.3889078 Z" id="Shape" fill-opacity="0.4" fill="#FFFFFC"></path>
                <path d="M256.658191,79.321843 L256.996075,73.3996587 C256.996075,73.3996587 290.034983,72.6834471 297.546246,72.9430034 C276.361433,73.8501706 261.889249,73.9274744 256.658191,79.321843 L256.658191,79.321843 Z" id="Shape" fill-opacity="0.4" fill="#FFFFFC"></path>
                <path d="M196.018259,68.9723549 L190.337201,67.2650171 C190.337201,67.2650171 178.367406,98.0677474 176.043174,105.215017 C184.139078,85.6172355 189.159727,72.0435154 196.018259,68.9723549 L196.018259,68.9723549 Z" id="Shape" fill-opacity="0.4" fill="#FFFFFC"></path>
                <path d="M514.254266,68.9513652 L508.57372,67.2435154 C508.57372,67.2435154 496.603925,98.0467577 494.279693,105.194027 C502.375597,85.5962457 507.396246,72.0225256 514.254266,68.9513652 L514.254266,68.9513652 Z" id="Shape" fill-opacity="0.4" fill="#FFFFFC"></path>
                <path d="M634.750853,62.1972696 L629.158362,60.2196246 C629.158362,60.2196246 615.725427,90.4131399 613.061263,97.4406143 C622.087372,78.253413 627.753072,64.9361775 634.750853,62.1972696 L634.750853,62.1972696 Z" id="Shape" fill-opacity="0.4" fill="#FFFFFC"></path>
                <path d="M670.950512,67.3377133 L665.022696,67.5220137 C665.022696,67.5220137 663.501706,85.1052901 663.578498,89.1025597 C665.001195,77.8274744 665.430717,70.125256 670.950512,67.3377133 L670.950512,67.3377133 Z" id="Shape" fill-opacity="0.4" fill="#FFFFFC"></path>
                <path d="M254.000683,97.3392491 L254.338567,91.4165529 C254.338567,91.4165529 287.377474,90.7003413 294.888737,90.9598976 C273.703925,91.8670648 259.231741,91.9443686 254.000683,97.3392491 L254.000683,97.3392491 Z" id="Shape" fill-opacity="0.4" fill="#FFFFFC"></path>
                <path d="M340.286007,77.6656997 L340.623891,71.7430034 C340.623891,71.7430034 373.662799,71.0267918 381.174061,71.2863481 C359.989249,72.1935154 345.517065,72.2708191 340.286007,77.6656997 L340.286007,77.6656997 Z" id="Shape" fill-opacity="0.4" fill="#FFFFFC"></path>
                <path d="M573.911263,95.7552901 L573.832423,89.8249147 C573.832423,89.8249147 596.189078,87.328157 601.293686,87.1822526 C586.981741,89.2300341 577.176451,90.0875427 573.911263,95.7552901 L573.911263,95.7552901 Z" id="Shape" fill-opacity="0.4" fill="#FFFFFC"></path>
                <path d="M678.296928,75.4986348 L678.218089,69.5682594 C678.218089,69.5682594 700.574744,67.0715017 705.679352,66.9261092 C691.367406,68.9733788 681.562116,69.8308874 678.296928,75.4986348 L678.296928,75.4986348 Z" id="Shape" fill-opacity="0.4" fill="#FFFFFC"></path>
                <path d="M672.911263,109.075085 L672.375768,103.168259 C672.375768,103.168259 694.473891,98.9580205 699.552389,98.4199659 C685.440614,101.563311 675.730034,103.172867 672.911263,109.075085 L672.911263,109.075085 Z" id="Shape" fill-opacity="0.4" fill="#FFFFFC"></path>
                <path d="M576.179181,76.3909556 L576.425939,70.4646758 C576.425939,70.4646758 598.886007,69.1986348 603.990614,69.3327645 C589.588055,70.5926621 579.750512,70.9105802 576.179181,76.3909556 L576.179181,76.3909556 Z" id="Shape" fill-opacity="0.4" fill="#FFFFFC"></path>
                <path d="M415.654608,131.338055 L413.049317,126.008703 C413.049317,126.008703 441.50785,109.209215 448.18413,105.758191 C430.155973,116.920648 417.574403,124.073038 415.654608,131.338055 L415.654608,131.338055 Z" id="Shape" fill-opacity="0.4" fill="#FFFFFC"></path>
                <path d="M426.243686,69.6783276 L421.058703,66.8001706 C421.058703,66.8001706 414.158703,75.2421502 412.955631,77.3728669 C417.766894,72.1843003 420.584642,68.3677474 426.243686,69.6783276 L426.243686,69.6783276 Z" id="Shape" fill-opacity="0.4" fill="#FFFFFC"></path>
            </g>
            <path d="M746.825939,15.9732082 C746.825939,8.18754266 740.504949,1.8665529 732.719283,1.8665529 L255.751024,1.8665529 C247.96587,1.8665529 241.644881,8.18754266 241.644881,15.9732082 L241.644881,16.2317406 C241.644881,24.0174061 247.96587,30.3383959 255.751024,30.3383959 L732.719283,30.3383959 C740.504949,30.3383959 746.825939,24.0174061 746.825939,16.2317406 L746.825939,15.9732082 L746.825939,15.9732082 Z" id="Shape" fill="#FFFFFF"></path>
            <path d="M260.257167,18.0639932 C260.135836,19.2291809 259.995051,20.052901 259.853754,20.755802 C259.793345,21.0573379 259.732935,21.2580205 259.732935,21.5191126 C259.732935,22.9658703 261.123891,22.9658703 261.788908,22.9658703 L270.31587,22.9658703 C270.094198,23.8494881 269.892491,24.4520478 268.501536,24.4520478 L267.030205,24.4520478 C266.808532,24.4520478 266.34471,24.5124573 266.34471,25.0146758 C266.34471,25.4769625 266.788055,25.5568259 267.030205,25.5568259 L270.154608,25.5568259 C271.948976,25.5568259 272.75529,24.6931741 273.077816,22.9658703 L275.012969,22.9658703 C275.254608,22.9658703 275.698464,22.9054608 275.698464,22.4032423 C275.698464,21.9209898 275.275085,21.8406143 275.012969,21.8406143 L273.218601,21.8406143 C273.299488,21.2180887 273.440785,19.9525597 273.501195,18.0639932 L275.254608,18.0639932 C275.476792,18.0639932 275.940102,18.0040956 275.940102,17.5018771 C275.940102,17.0196246 275.496758,16.959215 275.254608,16.959215 L273.541126,16.959215 C273.541126,16.678157 273.622014,14.147099 273.622014,14.1066553 C273.622014,12.2784983 272.150683,12.2784983 271.364334,12.2784983 L262.917747,12.2784983 C261.869795,12.2784983 260.982594,12.2784983 260.700512,13.3633106 C260.660068,13.5240614 260.438396,16.396587 260.377986,16.959215 L257.757338,16.959215 C257.535666,16.959215 257.071843,17.0196246 257.071843,17.521843 C257.071843,18.0040956 257.515188,18.0639932 257.757338,18.0639932 L260.257167,18.0639932 L260.257167,18.0639932 Z M270.739249,18.0639932 C270.67884,19.2895904 270.598464,20.615529 270.477133,21.8406143 L267.695222,21.8406143 C268.017747,19.8522184 268.118601,18.5866894 268.159044,18.0639932 L270.739249,18.0639932 L270.739249,18.0639932 Z M268.259898,16.959215 C268.380717,15.3322526 268.42116,14.3882253 268.461604,13.4037543 L270.255461,13.4037543 C270.820137,13.4037543 270.820137,13.6448805 270.820137,15.0911263 C270.820137,15.3926621 270.820137,16.0151877 270.779693,16.959215 L268.259898,16.959215 L268.259898,16.959215 Z M265.477986,18.0639932 C265.27628,19.9725256 265.054608,21.1576792 264.913311,21.8406143 L263.059044,21.8406143 C262.676109,21.8406143 262.595222,21.5395904 262.595222,21.4187713 C262.595222,21.3788396 262.595222,21.3588737 262.6157,21.2180887 C262.776962,20.4143345 262.938225,19.3699659 263.059044,18.0639932 L265.477986,18.0639932 L265.477986,18.0639932 Z M263.179863,16.959215 C263.341126,15.3721843 263.361604,14.9104096 263.401536,13.8860068 C263.422014,13.4641638 263.704096,13.4037543 263.925768,13.4037543 L265.820478,13.4037543 C265.800512,14.4686007 265.679693,15.8744027 265.598805,16.959215 L263.179863,16.959215 L263.179863,16.959215 Z M275.295051,10.4104096 C275.537201,10.4104096 275.980546,10.3505119 275.980546,9.86825939 C275.980546,9.36604096 275.516724,9.3056314 275.295051,9.3056314 L263.038567,9.3056314 C263.32116,8.86382253 263.461945,8.60273038 263.461945,8.22081911 C263.461945,7.35716724 262.514846,6.93532423 261.768942,6.93532423 C260.760922,6.93532423 260.619625,7.33720137 260.236689,8.42201365 C259.389932,10.7723549 258.200683,12.3793515 257.333959,13.3633106 C257.172696,13.5445392 257.092321,13.6448805 257.092321,13.865529 C257.092321,14.147099 257.313993,14.4081911 257.656485,14.4081911 C258.059898,14.4081911 260.740956,12.459727 262.25273,10.4104096 L275.295051,10.4104096 L275.295051,10.4104096 Z" id="Shape" fill="#FF3388"></path>
            <path d="M292.288567,17.7225256 C292.288567,16.6177474 291.542662,16.1959044 290.514676,16.1959044 L288.156143,16.1959044 C287.248976,16.1959044 286.382253,16.537372 286.382253,17.7225256 L286.382253,19.5506826 C286.382253,20.6554608 287.128157,21.0773038 288.156143,21.0773038 L290.514676,21.0773038 C291.401877,21.0773038 292.288567,20.755802 292.288567,19.5506826 L292.288567,17.7225256 L292.288567,17.7225256 Z M290.273038,19.4303754 C290.273038,19.8317406 290.19215,19.9725256 289.72884,19.9725256 L288.962457,19.9725256 C288.519113,19.9725256 288.418259,19.8522184 288.418259,19.4303754 L288.418259,17.8433447 C288.418259,17.4414676 288.519113,17.3006826 288.962457,17.3006826 L289.748805,17.3006826 C290.172184,17.3006826 290.273038,17.4414676 290.273038,17.8433447 L290.273038,19.4303754 L290.273038,19.4303754 Z M286.846075,14.1670648 C286.583959,14.1670648 286.16058,14.2274744 286.16058,14.709215 C286.16058,15.2114334 286.603925,15.271843 286.846075,15.271843 L292.107338,15.271843 C292.348976,15.271843 292.792833,15.2114334 292.792833,14.7296928 C292.792833,14.2274744 292.32901,14.1670648 292.107338,14.1670648 L290.655973,14.1670648 L290.655973,12.2186007 L291.986519,12.2186007 C292.228157,12.2186007 292.671502,12.1382253 292.671502,11.6559727 C292.671502,11.1537543 292.208191,11.0933447 291.986519,11.0933447 L290.655973,11.0933447 C290.655973,10.1897611 290.655973,9.3056314 289.406314,9.3056314 C288.156143,9.3056314 288.156143,10.1493174 288.156143,11.0933447 L286.906485,11.0933447 C286.664334,11.0933447 286.22099,11.1737201 286.22099,11.6559727 C286.22099,12.1581911 286.684812,12.2186007 286.906485,12.2186007 L288.156143,12.2186007 L288.156143,14.1670648 L286.846075,14.1670648 L286.846075,14.1670648 Z M283.499488,15.1914676 C283.499488,16.6581911 283.519966,19.1288396 282.854437,20.9165529 C282.794027,21.0972696 282.370648,21.9614334 282.370648,22.162116 C282.370648,22.4232082 282.572355,22.7047782 282.935324,22.7047782 C283.378669,22.7047782 284.124573,21.6199659 284.527474,20.9165529 C285.475085,19.2895904 285.999317,17.3411263 285.999317,14.9104096 L285.999317,9.32559727 C285.999317,8.94419795 286.120137,8.74300341 286.583959,8.74300341 L292.348976,8.74300341 C292.832765,8.74300341 292.933618,8.94419795 292.933618,9.32559727 L292.933618,21.4387372 C292.933618,21.8206485 292.832765,22.0418089 292.348976,22.0418089 L290.918089,22.0418089 C290.696416,22.0418089 290.232594,22.0817406 290.232594,22.583959 C290.232594,23.0861775 290.675939,23.146587 290.918089,23.146587 L293.356997,23.146587 C294.909215,23.146587 295.453413,22.2829352 295.453413,21.2180887 L295.453413,9.54675768 C295.453413,8.46194539 294.889249,7.61825939 293.356997,7.61825939 L285.595904,7.61825939 C284.043686,7.61825939 283.499488,8.50238908 283.499488,9.54675768 L283.499488,15.1914676 L283.499488,15.1914676 Z M280.979693,13.0822526 C281.604778,13.0822526 282.491468,12.3588737 282.491468,11.4952218 C282.491468,10.1692833 278.762457,7.17645051 278.238225,7.17645051 C277.895734,7.17645051 277.674061,7.45750853 277.674061,7.73856655 C277.674061,7.89931741 277.734471,8.00017065 277.835324,8.12047782 C278.137372,8.48191126 279.065017,9.66706485 279.770478,12.1382253 C280.05256,13.0822526 280.596758,13.0822526 280.979693,13.0822526 L280.979693,13.0822526 Z M286.382253,24.2713311 C283.25785,24.2713311 282.330205,23.56843 282.048123,22.0213311 L282.048123,17.0800341 C282.048123,15.9952218 281.302218,15.552901 280.274232,15.552901 L278.197782,15.552901 C277.976109,15.552901 277.512799,15.6133106 277.512799,16.115529 C277.512799,16.6177474 277.956143,16.678157 278.197782,16.678157 L279.004096,16.678157 C279.447952,16.678157 279.528328,16.81843 279.528328,17.2003413 L279.528328,22.3832765 C279.286689,22.5035836 278.056997,23.0462457 277.814846,23.2269625 C277.653584,23.3273038 277.371502,23.5484642 277.371502,24.2109215 C277.371502,24.974744 277.734471,25.5773038 278.359044,25.5773038 C279.004096,25.5773038 280.05256,24.3716724 280.75802,23.4680887 C281.746075,24.8539249 282.632765,25.3761092 285.737201,25.3761092 L295.695563,25.3761092 C295.917235,25.3761092 296.381058,25.3162116 296.381058,24.8139932 C296.381058,24.3317406 295.937201,24.2713311 295.695563,24.2713311 L286.382253,24.2713311 L286.382253,24.2713311 Z" id="Shape" fill="#FF3388"></path>
            <path d="M298.961263,23.9703072 C298.719113,23.9703072 298.275768,24.0506826 298.275768,24.5324232 C298.275768,25.0346416 298.73959,25.0950512 298.961263,25.0950512 L316.337713,25.0950512 C316.579863,25.0950512 317.023208,25.0146758 317.023208,24.5324232 C317.023208,24.0302048 316.559386,23.9703072 316.337713,23.9703072 L309.06041,23.9703072 L309.06041,14.85 L315.269283,14.85 C315.511433,14.85 315.954778,14.7895904 315.954778,14.3078498 C315.954778,13.7851536 315.490956,13.7452218 315.269283,13.7452218 L309.06041,13.7452218 L309.06041,8.64266212 C309.06041,7.97969283 309.06041,6.9552901 307.649488,6.9552901 C306.238567,6.9552901 306.238567,7.87935154 306.238567,8.6831058 L306.238567,13.7452218 L300.029693,13.7452218 C299.787543,13.7452218 299.344198,13.8056314 299.344198,14.287372 C299.344198,14.7895904 299.80802,14.85 300.029693,14.85 L306.238567,14.85 L306.238567,23.9703072 L298.961263,23.9703072 L298.961263,23.9703072 Z" id="Shape" fill="#FF3388"></path>
            <path d="M333.532935,18.8877133 L333.532935,17.3610922 L336.556485,17.3610922 C336.778157,17.3610922 337.24198,17.3006826 337.24198,16.7984642 C337.24198,16.3167235 336.798635,16.2363481 336.556485,16.2363481 L333.21041,16.2363481 C333.492491,16.0351536 334.057167,15.6537543 334.057167,15.0711604 C334.057167,14.3882253 333.129522,14.147099 332.625768,14.147099 C331.879863,14.147099 331.678157,14.6088737 331.597782,14.8300341 C331.516894,15.0307167 331.133959,16.0151877 331.033106,16.2363481 L328.81587,16.2363481 C328.977133,15.974744 329.17884,15.6133106 329.17884,15.2319113 C329.17884,14.568942 328.472867,14.1066553 327.706997,14.1066553 C326.73942,14.1066553 326.618601,14.568942 326.316041,15.6133106 C325.85273,17.2807167 325.429352,17.943686 324.481741,19.490273 L324.481741,9.2052901 C324.481741,8.12047782 323.735836,7.67866894 322.70785,7.67866894 L321.074744,7.67866894 C320.188055,7.67866894 319.300853,8.02013652 319.300853,9.2052901 L319.300853,22.7047782 C319.300853,23.7890785 320.046758,24.2313993 321.074744,24.2313993 L322.70785,24.2313993 C323.594539,24.2313993 324.481741,23.8899317 324.481741,22.7047782 L324.481741,20.1133106 C324.522184,20.1732082 324.662969,20.3544369 324.925085,20.3544369 C325.207679,20.3544369 325.691468,19.912116 326.074403,19.5706485 L326.074403,23.9098976 C326.074403,25.0146758 326.820307,25.4165529 327.848294,25.4165529 L336.87901,25.4165529 C337.100683,25.4165529 337.564505,25.3761092 337.564505,24.8738908 C337.564505,24.3716724 337.12116,24.3117747 336.87901,24.3117747 L333.532935,24.3117747 L333.532935,22.6443686 L336.05273,22.6443686 C336.274403,22.6443686 336.738225,22.583959 336.738225,22.0817406 C336.738225,21.5994881 336.294369,21.5191126 336.05273,21.5191126 L333.532935,21.5191126 L333.532935,19.9924915 L336.05273,19.9924915 C336.274403,19.9924915 336.738225,19.9325939 336.738225,19.4303754 C336.738225,18.9481229 336.294369,18.8877133 336.05273,18.8877133 L333.532935,18.8877133 L333.532935,18.8877133 Z M328.734983,21.5191126 L328.734983,19.9924915 L330.932253,19.9924915 L330.932253,21.5191126 L328.734983,21.5191126 L328.734983,21.5191126 Z M330.932253,22.6443686 L330.932253,24.3117747 L329.259215,24.3117747 C328.81587,24.3117747 328.734983,24.1709898 328.734983,23.7890785 L328.734983,22.6443686 L330.932253,22.6443686 L330.932253,22.6443686 Z M328.734983,18.8877133 L328.734983,17.8832765 C328.734983,17.4813993 328.81587,17.3610922 329.259215,17.3610922 L330.932253,17.3610922 L330.932253,18.8877133 L328.734983,18.8877133 L328.734983,18.8877133 Z M321.357338,15.271843 L321.357338,9.28566553 C321.357338,9.04453925 321.357338,8.80341297 321.740273,8.80341297 C322.385324,8.80341297 322.4657,8.80341297 322.4657,9.28566553 L322.4657,15.271843 L321.357338,15.271843 L321.357338,15.271843 Z M322.4657,16.3766212 L322.4657,22.6244027 C322.4657,23.1061433 322.385324,23.1061433 321.740273,23.1061433 C321.357338,23.1061433 321.357338,22.8650171 321.357338,22.6244027 L321.357338,16.3766212 L322.4657,16.3766212 L322.4657,16.3766212 Z M328.11041,11.3544369 L328.11041,12.2784983 C328.11041,12.7003413 328.029522,12.8211604 327.586177,12.8211604 L325.489761,12.8211604 C325.268089,12.8211604 324.804266,12.88157 324.804266,13.3837884 C324.804266,13.865529 325.247611,13.9259386 325.489761,13.9259386 L328.87628,13.9259386 C329.783447,13.9259386 330.650171,13.6044369 330.650171,12.3993174 L330.650171,9.2052901 C330.650171,8.12047782 329.904266,7.67866894 328.87628,7.67866894 L325.408874,7.67866894 C325.187201,7.67866894 324.723891,7.73856655 324.723891,8.24078498 C324.723891,8.72303754 325.167235,8.80341297 325.408874,8.80341297 L327.586177,8.80341297 C328.029522,8.80341297 328.11041,8.92423208 328.11041,9.32559727 L328.11041,10.2296928 L325.651024,10.2296928 C325.429352,10.2296928 324.965529,10.2901024 324.965529,10.7923208 C324.965529,11.2745734 325.408874,11.3544369 325.651024,11.3544369 L328.11041,11.3544369 L328.11041,11.3544369 Z M334.258362,11.3544369 L334.258362,12.2784983 C334.258362,12.7003413 334.15802,12.8211604 333.734642,12.8211604 L331.738567,12.8211604 C331.516894,12.8211604 331.053584,12.88157 331.053584,13.3837884 C331.053584,13.865529 331.496928,13.9259386 331.738567,13.9259386 L335.024744,13.9259386 C335.931911,13.9259386 336.798635,13.6044369 336.798635,12.3993174 L336.798635,9.2052901 C336.798635,8.12047782 336.05273,7.67866894 335.024744,7.67866894 L331.658191,7.67866894 C331.436519,7.67866894 330.972696,7.73856655 330.972696,8.24078498 C330.972696,8.72303754 331.416041,8.80341297 331.658191,8.80341297 L333.734642,8.80341297 C334.177986,8.80341297 334.258362,8.92423208 334.258362,9.32559727 L334.258362,10.2296928 L331.899829,10.2296928 C331.678157,10.2296928 331.214846,10.2901024 331.214846,10.7923208 C331.214846,11.2745734 331.658191,11.3544369 331.899829,11.3544369 L334.258362,11.3544369 L334.258362,11.3544369 Z" id="Shape" fill="#FF3388"></path>
            <path d="M355.908532,10.2901024 C355.908532,8.30119454 354.376792,8.04010239 353.48959,8.04010239 L344.095904,8.04010239 C342.704949,8.04010239 341.676962,8.66262799 341.676962,10.2901024 L341.676962,22.8450512 C341.676962,24.833959 343.208703,25.0950512 344.095904,25.0950512 L353.48959,25.0950512 C354.880546,25.0950512 355.908532,24.4725256 355.908532,22.8450512 L355.908532,10.2901024 L355.908532,10.2901024 Z M353.046246,16.9392491 L353.046246,23.2469283 C353.046246,23.7087031 352.683276,23.990273 352.320307,23.990273 L345.164334,23.990273 C344.821843,23.990273 344.458874,23.7291809 344.458874,23.2469283 L344.458874,16.9392491 L353.046246,16.9392491 L353.046246,16.9392491 Z M344.458874,15.8145051 L344.458874,9.88822526 C344.458874,9.44641638 344.760922,9.16484642 345.164334,9.16484642 L352.320307,9.16484642 C352.72372,9.16484642 353.046246,9.44641638 353.046246,9.88822526 L353.046246,15.8145051 L344.458874,15.8145051 L344.458874,15.8145051 Z" id="Shape" fill="#FF3388"></path>
            <path d="M376.893686,16.9392491 C376.772867,21.3788396 375.80529,22.9858362 373.587543,22.9858362 C371.914505,22.9858362 371.269454,21.9813993 371.027816,21.1177474 C370.846075,20.474744 370.644369,19.7313993 369.414676,19.7313993 C368.56843,19.7313993 367.882935,20.2535836 367.882935,20.9769625 C367.882935,21.9409556 369.616382,24.2912969 373.225085,24.2912969 C376.833276,24.2912969 380.199829,22.2624573 380.199829,16.115529 C380.199829,10.2701365 377.558703,7.69863481 373.547611,7.69863481 C368.930887,7.69863481 367.479522,10.8322526 367.479522,13.4037543 C367.479522,16.5573379 369.575939,18.6266212 373.023379,18.6266212 C374.313481,18.6266212 375.442321,18.3455631 376.893686,16.9392491 L376.893686,16.9392491 Z M376.913652,15.2319113 C376.067406,16.5174061 375.018942,17.2607509 373.66843,17.2607509 C370.725256,17.2607509 370.725256,13.865529 370.725256,13.303413 C370.725256,11.334471 371.249488,9.02457338 373.748805,9.02457338 C375.966553,9.02457338 376.893686,10.6919795 376.913652,15.2319113 L376.913652,15.2319113 Z" id="Shape" fill="#FF3388"></path>
            <path d="M385.078157,12.6 C384.090102,12.6 383.243857,13.3837884 383.243857,14.428157 C383.243857,15.4325939 384.050171,16.256314 385.078157,16.256314 C386.0657,16.256314 386.892491,15.4525597 386.892491,14.428157 C386.892491,13.3837884 386.045734,12.6 385.078157,12.6 L385.078157,12.6 Z M385.078157,20.6554608 C384.050171,20.6554608 383.243857,21.459215 383.243857,22.4836177 C383.243857,23.4680887 384.050171,24.2912969 385.078157,24.2912969 C386.0657,24.2912969 386.892491,23.4880546 386.892491,22.4836177 C386.892491,21.459215 386.0657,20.6554608 385.078157,20.6554608 L385.078157,20.6554608 Z" id="Shape" fill="#FF3388"></path>
            <path d="M396.50785,16.0351536 C398.34215,16.0351536 399.431058,16.9791809 399.431058,19.3899317 C399.431058,20.1332765 399.41058,22.9658703 396.165358,22.9658703 C393.4843,22.9658703 393.161775,20.7358362 393.100853,20.3139932 C392.980034,19.5307167 392.839249,18.6066553 391.427816,18.6066553 C390.64198,18.6066553 389.855631,19.06843 389.855631,19.9525597 C389.855631,20.6959044 391.1657,24.2912969 396.266212,24.2912969 C397.898805,24.2912969 402.67628,24.0906143 402.67628,19.5706485 C402.67628,16.0755973 399.793515,15.552901 398.443003,15.3322526 C399.733106,15.0711604 402.212457,14.6088737 402.212457,11.756314 C402.212457,9.4059727 400.277304,7.69863481 396.669113,7.69863481 C393.141297,7.69863481 390.581058,9.58668942 390.581058,11.0733788 C390.581058,11.7967577 391.326962,12.3389078 392.153754,12.3389078 C393.443857,12.3389078 393.645563,11.5151877 393.826792,10.8522184 C394.250171,9.2052901 395.641126,9.06450512 396.366553,9.06450512 C398.523891,9.06450512 398.967235,10.490785 398.967235,11.9774744 C398.967235,14.0467577 398.040102,14.7496587 396.50785,14.7496587 L394.512287,14.7496587 C394.088908,14.7496587 393.846758,15.0711604 393.846758,15.3926621 C393.846758,15.7136519 394.088908,16.0351536 394.512287,16.0351536 L396.50785,16.0351536 L396.50785,16.0351536 Z" id="Shape" fill="#FF3388"></path>
            <path d="M411.626621,7.69863481 C407.272526,7.69863481 405.196075,11.756314 405.196075,15.9952218 C405.196075,20.2740614 407.292491,24.2912969 411.626621,24.2912969 C415.960751,24.2912969 418.077645,20.2940273 418.077645,15.9952218 C418.077645,11.756314 416.001195,7.69863481 411.626621,7.69863481 L411.626621,7.69863481 Z M411.626621,9.04453925 C413.198805,9.04453925 414.771502,9.76791809 414.771502,15.9952218 C414.771502,22.4032423 413.11843,22.9453925 411.626621,22.9453925 C410.054437,22.9453925 408.502218,22.2025597 408.502218,15.9952218 C408.502218,9.56672355 410.175256,9.04453925 411.626621,9.04453925 L411.626621,9.04453925 Z" id="Shape" fill="#FF3388"></path>
            <path d="M425.435324,13.9863481 C422.834642,13.9863481 420.59744,16.5778157 420.59744,17.2807167 C420.59744,17.5418089 420.839078,17.8228669 421.18157,17.8228669 C421.383276,17.8228669 421.443686,17.7629693 422.109215,17.240785 C423.056314,16.4974403 424.246075,16.2158703 425.435324,16.2158703 C426.302048,16.2158703 426.846246,16.2363481 429.446928,17.4614334 C431.402048,18.3854949 432.390102,18.7269625 433.538908,18.7269625 C436.663311,18.7269625 438.578498,15.9348123 438.578498,15.4325939 C438.578498,15.1715017 438.33686,14.8904437 437.993857,14.8904437 C437.79215,14.8904437 437.711775,14.9503413 437.066724,15.4725256 C436.482082,15.9348123 435.433618,16.4974403 433.740614,16.4974403 C432.833447,16.4974403 432.329181,16.4569966 429.709044,15.2319113 C427.531741,14.2274744 426.745392,13.9863481 425.435324,13.9863481 L425.435324,13.9863481 Z" id="Shape" fill="#FF3388"></path>
            <path d="M449.262287,9.38600683 C449.262287,8.84385666 449.262287,7.69863481 447.488396,7.69863481 C446.64215,7.69863481 446.319625,8.00017065 445.916212,8.3616041 C445.593686,8.64266212 444.867747,9.3056314 443.577645,9.64709898 C442.811775,9.84829352 442.549659,9.90819113 442.549659,10.4104096 C442.549659,10.8122867 442.872184,11.1138225 443.235154,11.1138225 C443.355973,11.1138225 444.303584,11.0334471 445.129863,10.8522184 C445.27116,10.8122867 445.956655,10.63157 445.976621,10.63157 C446.137884,10.63157 446.137884,10.8122867 446.137884,10.912628 L446.137884,22.7846416 C446.137884,23.7491468 446.70256,24.2912969 447.710068,24.2912969 C447.932253,24.2912969 449.262287,24.2912969 449.262287,22.7846416 L449.262287,9.38600683 L449.262287,9.38600683 Z" id="Shape" fill="#FF3388"></path>
            <path d="M460.732423,22.7047782 C460.430375,22.7047782 460.168259,22.583959 460.168259,22.2424915 C460.168259,21.1177474 461.256655,19.9725256 463.816894,18.4858362 C467.001706,16.6581911 469.159044,15.412628 469.159044,12.4192833 C469.159044,9.48634812 467.001706,7.69863481 463.252218,7.69863481 C460.93413,7.69863481 458.958532,8.34163823 457.708874,9.98856655 C456.862116,11.0933447 456.620478,12.3389078 456.620478,12.9015358 C456.620478,14.006314 457.688908,14.2674061 458.313481,14.2674061 C458.958532,14.2674061 460.026962,13.9663823 460.026962,12.8011945 C460.026962,12.6604096 459.946587,11.9974403 459.946587,11.8366894 C459.946587,11.5755973 460.087372,9.00460751 463.01058,9.00460751 C465.691638,9.00460751 465.913311,11.4952218 465.913311,12.1382253 C465.913311,13.8056314 464.9657,14.6892491 463.615188,15.4930034 C460.591638,17.2807167 459.785324,17.7829352 458.414334,19.2291809 C456.66041,21.1177474 456.519625,22.8854949 456.519625,22.9858362 C456.519625,23.2868601 456.721331,23.990273 457.72884,23.990273 L468.553925,23.990273 C468.997782,23.990273 469.219454,23.6488055 469.219454,23.3472696 C469.219454,23.005802 468.957338,22.7047782 468.553925,22.7047782 L460.732423,22.7047782 L460.732423,22.7047782 Z" id="Shape" fill="#FF3388"></path>
            <path d="M474.117747,12.6 C473.130205,12.6 472.283447,13.3837884 472.283447,14.428157 C472.283447,15.4325939 473.089761,16.256314 474.117747,16.256314 C475.105802,16.256314 475.932082,15.4525597 475.932082,14.428157 C475.932082,13.3837884 475.085324,12.6 474.117747,12.6 L474.117747,12.6 Z M474.117747,20.6554608 C473.089761,20.6554608 472.283447,21.459215 472.283447,22.4836177 C472.283447,23.4680887 473.089761,24.2912969 474.117747,24.2912969 C475.105802,24.2912969 475.932082,23.4880546 475.932082,22.4836177 C475.932082,21.459215 475.105802,20.6554608 474.117747,20.6554608 L474.117747,20.6554608 Z" id="Shape" fill="#FF3388"></path>
            <path d="M485.325768,7.69863481 C480.971672,7.69863481 478.895222,11.756314 478.895222,15.9952218 C478.895222,20.2740614 480.991638,24.2912969 485.325768,24.2912969 C489.659898,24.2912969 491.776792,20.2940273 491.776792,15.9952218 C491.776792,11.756314 489.700341,7.69863481 485.325768,7.69863481 L485.325768,7.69863481 Z M485.325768,9.04453925 C486.898464,9.04453925 488.470648,9.76791809 488.470648,15.9952218 C488.470648,22.4032423 486.817577,22.9453925 485.325768,22.9453925 C483.753584,22.9453925 482.201365,22.2025597 482.201365,15.9952218 C482.201365,9.56672355 483.874403,9.04453925 485.325768,9.04453925 L485.325768,9.04453925 Z" id="Shape" fill="#FF3388"></path>
            <path d="M500.666724,7.69863481 C496.312116,7.69863481 494.236177,11.756314 494.236177,15.9952218 C494.236177,20.2740614 496.332594,24.2912969 500.666724,24.2912969 C505.000341,24.2912969 507.117235,20.2940273 507.117235,15.9952218 C507.117235,11.756314 505.040785,7.69863481 500.666724,7.69863481 L500.666724,7.69863481 Z M500.666724,9.04453925 C502.238908,9.04453925 503.811092,9.76791809 503.811092,15.9952218 C503.811092,22.4032423 502.15802,22.9453925 500.666724,22.9453925 C499.094027,22.9453925 497.541809,22.2025597 497.541809,15.9952218 C497.541809,9.56672355 499.215358,9.04453925 500.666724,9.04453925 L500.666724,9.04453925 Z" id="Shape" fill="#FF3388"></path>
            <path d="M520.279863,14.287372 C520.279863,13.2829352 520.259386,12.2989761 520.259386,11.7363481 C521.77116,11.7363481 523.14215,11.6759386 524.775256,11.5955631 C525.27901,11.5755973 525.803242,11.5356655 525.803242,10.912628 C525.803242,10.5711604 525.561092,10.2496587 525.178157,10.2496587 C525.057338,10.2496587 523.96843,10.3100683 523.746758,10.3300341 C521.972867,10.4104096 521.569966,10.4104096 520.259386,10.4104096 L520.259386,9.00460751 C520.259386,8.18088737 520.259386,7.29675768 518.747611,7.29675768 C517.880887,7.29675768 517.296246,7.69863481 517.296246,8.60273038 C517.296246,8.98412969 517.296246,10.2496587 517.316212,10.4303754 L513.607167,10.4303754 C513.385495,10.4303754 511.69198,10.3704778 511.551195,10.3704778 C511.087372,10.3704778 510.906143,10.7518771 510.906143,11.0129693 C510.906143,11.6559727 511.470307,11.6964164 511.752901,11.6964164 C512.297099,11.7163823 515.90529,11.756314 517.316212,11.756314 C517.356655,12.1182594 517.356655,13.8860068 517.356655,14.287372 C516.772014,14.3078498 515.481911,14.287372 514.816894,14.287372 C514.433959,14.287372 512.559215,14.2274744 512.115358,14.2274744 C511.551195,14.2274744 511.429863,14.709215 511.429863,14.8904437 C511.429863,15.0307167 511.470307,15.552901 512.196246,15.5933447 C513.526792,15.6537543 516.953754,15.6332765 517.397099,15.6332765 C517.397099,16.0151877 517.437543,17.8433447 517.457509,18.2651877 C513.526792,18.1848123 511.107338,19.771843 511.107338,22.0213311 C511.107338,24.3517065 513.950171,25.1150171 515.985666,25.1150171 C520.54198,25.1150171 520.481058,22.6244027 520.441126,20.7762799 C521.086177,21.0773038 521.710751,21.3788396 522.799659,22.3428328 C524.150171,23.5080205 524.251024,23.6083618 524.775256,23.6083618 C525.58157,23.6083618 526.125768,22.7646758 526.125768,22.0817406 C526.125768,21.4991468 525.843174,21.1576792 524.633959,20.4547782 C522.819625,19.4303754 521.30785,18.9680887 520.380717,18.6870307 C520.380717,18.5262799 520.299829,15.9547782 520.299829,15.6332765 C521.206997,15.6133106 523.605973,15.552901 524.472696,15.4930034 C524.976451,15.4725256 525.460239,15.4325939 525.460239,14.7696246 C525.460239,14.2674061 525.097782,14.1066553 524.835666,14.1066553 C524.432253,14.1066553 521.00529,14.287372 520.279863,14.287372 L520.279863,14.287372 Z M517.5,19.8117747 C517.539932,22.3627986 517.56041,23.6288396 515.766041,23.6288396 C514.415529,23.6288396 513.649659,22.9054608 513.649659,22.0617747 C513.649659,20.9165529 514.899317,19.771843 516.754096,19.771843 C517.016212,19.771843 517.25785,19.7918089 517.5,19.8117747 L517.5,19.8117747 Z" id="Shape" fill="#FF3388"></path>
            <path d="M546.952218,11.8771331 C546.549317,11.8167235 546.246758,12.0977816 546.246758,12.4192833 C546.246758,12.6204778 546.367577,12.7607509 546.40802,12.8211604 C546.891809,13.3633106 547.033106,13.5240614 547.295222,13.9059727 C547.698123,14.4885666 547.77901,14.6288396 548.121502,14.6288396 C548.524915,14.6288396 548.90785,14.287372 548.90785,13.865529 C548.90785,13.2629693 547.214334,11.9170648 546.952218,11.8771331 L546.952218,11.8771331 Z M545.017065,12.7003413 C544.593686,12.6 544.291638,12.9015358 544.291638,13.2430034 C544.291638,13.4237201 544.392491,13.5645051 544.492833,13.6848123 C544.896246,14.1670648 545.057509,14.428157 545.4,15.0107509 C545.743003,15.6133106 545.843857,15.7940273 546.206314,15.7940273 C546.690102,15.7940273 547.033106,15.3926621 547.033106,15.0107509 C547.033106,14.5085324 545.420478,12.8011945 545.017065,12.7003413 L545.017065,12.7003413 Z M540.296928,10.3300341 C538.583447,11.2745734 535.0157,13.2430034 535.0157,17.7025597 C535.0157,23.3073379 540.679863,24.4924915 544.026451,24.4924915 C544.328498,24.4924915 544.973549,24.4924915 544.973549,23.6887372 C544.973549,22.9858362 544.449829,22.9658703 543.824744,22.9453925 C538.865529,22.7646758 538.200512,19.209215 538.200512,17.2003413 C538.200512,16.396587 538.200512,12.9215017 541.687884,11.1138225 C543.441809,10.1897611 544.973549,10.1897611 546.465358,10.1897611 C546.848294,10.1897611 547.432935,10.1897611 547.432935,9.52679181 C547.432935,8.7834471 546.808362,8.7834471 546.626621,8.7834471 C546.163311,8.7834471 543.32099,8.94419795 543.280546,8.94419795 C541.244539,9.02457338 536.769113,9.18532423 532.334642,9.48634812 C530.983618,9.58668942 530.580717,9.60716724 530.580717,10.2901024 C530.580717,10.7319113 530.903242,11.0129693 531.266212,11.0129693 C531.588737,11.0129693 533.64471,10.7923208 534.108532,10.7518771 C536.164505,10.5911263 538.220478,10.4104096 540.296928,10.3300341 L540.296928,10.3300341 Z" id="Shape" fill="#FF3388"></path>
            <path d="M561.122867,10.209727 C562.957167,10.7319113 565.739078,11.8167235 565.739078,15.8744027 C565.739078,18.4054608 564.307679,21.8006826 561.525768,22.8051195 C560.67901,23.1061433 560.477816,23.1665529 560.477816,23.6488055 C560.477816,24.0506826 560.800341,24.3317406 561.162799,24.3317406 C561.586177,24.3317406 568.762628,23.4680887 568.762628,16.2363481 C568.762628,10.8926621 564.711092,8.62269625 560.316553,8.62269625 C553.886007,8.62269625 550.821502,13.3433447 550.821502,17.521843 C550.821502,20.615529 552.575427,23.6488055 555.518601,23.6488055 C557.695904,23.6488055 558.743857,22.0617747 559.631058,19.4303754 C560.578669,16.6581911 560.719454,15.0506826 561.122867,10.209727 L561.122867,10.209727 Z M558.220137,10.209727 C558.058874,12.6803754 557.877133,16.2363481 556.88959,19.4098976 C556.667918,20.1532423 556.042833,22.1017065 555.155631,22.1017065 C554.671843,22.1017065 553.381741,21.5994881 553.381741,18.6066553 C553.381741,16.9192833 553.825597,14.6088737 555.1157,12.6204778 C556.143686,11.0334471 557.212116,10.6116041 558.220137,10.209727 L558.220137,10.209727 Z" id="Shape" fill="#FF3388"></path>
            <path d="M579,13.1825939 C578.052901,16.1354949 576.198123,19.1088737 572.690785,21.5595563 C571.863993,22.1421502 571.783618,22.2025597 571.783618,22.5235495 C571.783618,22.8854949 572.106143,23.1665529 572.408191,23.1665529 C572.872014,23.1665529 574.948464,21.8406143 576.117747,20.9969283 C578.879181,18.9680887 580.592662,16.7784983 581.802389,14.5284983 L581.802389,22.1421502 C581.802389,23.1665529 581.318601,23.2668942 580.834812,23.2668942 C580.572696,23.2668942 580.209727,23.2269625 579.967577,23.1865188 C579.867235,23.1665529 579.322526,23.0662116 579.201706,23.0662116 C578.597099,23.0662116 578.516212,23.5484642 578.516212,23.7087031 C578.516212,24.2109215 579.020478,24.3517065 579.463823,24.4520478 C580.189761,24.5928328 581.318601,24.7336177 582.286177,24.7336177 C584.725085,24.7336177 584.785495,23.4880546 584.785495,22.0418089 L584.785495,13.1825939 L588.272867,13.1825939 C589.059215,13.1825939 589.059215,12.6404437 589.059215,12.5401024 C589.059215,12.0778157 588.696246,11.897099 588.272867,11.897099 L584.785495,11.897099 L584.785495,8.96416382 C584.785495,8.52235495 584.785495,7.57832765 583.293686,7.57832765 C581.802389,7.57832765 581.802389,8.60273038 581.802389,8.98412969 L581.802389,11.897099 L572.428669,11.897099 C572.186519,11.897099 571.642321,11.9575085 571.642321,12.5401024 C571.642321,12.6404437 571.642321,13.1825939 572.428669,13.1825939 L579,13.1825939 L579,13.1825939 Z" id="Shape" fill="#FF3388"></path>
            <path d="M592.709898,15.4725256 C591.944027,15.4725256 591.883618,16.1759386 591.883618,16.3366894 C591.883618,16.5778157 592.004437,17.1803754 592.709898,17.1803754 L609.038396,17.1803754 C609.562628,17.1803754 609.864676,16.81843 609.864676,16.3167235 C609.864676,16.115529 609.743857,15.4725256 609.038396,15.4725256 L592.709898,15.4725256 L592.709898,15.4725256 Z" id="Shape" fill="#FF3388"></path>
            <path d="M629.457338,6.35273038 C628.30802,6.35273038 627.401365,7.27679181 627.401365,8.40153584 C627.401365,9.50631399 628.288055,10.4508532 629.457338,10.4508532 C630.606143,10.4508532 631.513311,9.52679181 631.513311,8.40153584 C631.513311,7.25682594 630.586177,6.35273038 629.457338,6.35273038 L629.457338,6.35273038 Z M629.457338,7.39709898 C630.001536,7.39709898 630.444881,7.85938567 630.444881,8.40153584 C630.444881,8.94419795 630.021502,9.38600683 629.457338,9.38600683 C628.892662,9.38600683 628.449317,8.94419795 628.449317,8.40153584 C628.449317,7.8394198 628.91314,7.39709898 629.457338,7.39709898 L629.457338,7.39709898 Z M614.078498,9.42645051 C613.836348,9.42645051 613.29215,9.46638225 613.29215,10.068942 C613.29215,10.1493174 613.29215,10.7119454 614.078498,10.7119454 L624.238055,10.7119454 C624.641468,10.7119454 624.903584,10.9730375 624.903584,11.4348123 C624.903584,11.8771331 624.419795,14.2274744 623.331399,16.3366894 C620.670307,21.4387372 615.973208,22.724744 614.542321,23.1061433 C614.259727,23.1865188 613.775939,23.3073379 613.775939,23.8295222 C613.775939,24.0302048 613.896758,24.4725256 614.441468,24.4725256 C614.945222,24.4725256 620.085666,23.56843 623.593003,20.2136519 C627.24215,16.7385666 628.189249,11.5955631 628.189249,11.2745734 C628.189249,10.0489761 627.282082,9.42645051 626.395392,9.42645051 L614.078498,9.42645051 L614.078498,9.42645051 Z" id="Shape" fill="#FF3388"></path>
            <path d="M640.848123,12.8211604 C641.493174,12.8211604 642.299488,12.1382253 642.299488,11.2540956 C642.299488,10.7319113 642.239078,10.1692833 639.295904,8.8837884 C637.522014,8.10051195 635.88942,7.69863481 635.64727,7.69863481 C635.365188,7.69863481 635.042662,7.93976109 635.042662,8.30119454 C635.042662,8.62269625 635.223891,8.72303754 635.728157,9.02457338 C636.413652,9.4059727 637.78413,10.1897611 639.0343,11.5556314 C640.082253,12.7003413 640.183106,12.8211604 640.848123,12.8211604 L640.848123,12.8211604 Z M634.438567,23.0462457 C634.438567,23.6288396 634.801536,24.6931741 635.869966,24.6931741 C636.655802,24.6931741 641.856655,23.2469283 645.525768,20.1332765 C649.516894,16.7585324 650.60529,13.2829352 650.60529,13.162628 C650.60529,12.8610922 650.323208,12.5600683 649.960239,12.5600683 C649.597782,12.5600683 649.456485,12.8011945 649.315188,13.0622867 C648.871843,13.8455631 648.166382,14.9104096 647.117918,15.974744 C642.884642,20.2535836 638.490102,21.0972696 636.595392,21.459215 C635.184471,21.7203072 634.438567,21.8610922 634.438567,23.0462457 L634.438567,23.0462457 Z" id="Shape" fill="#FF3388"></path>
            <path d="M664.131399,10.6715017 C664.514334,10.6715017 664.655631,10.9325939 664.655631,11.194198 C664.655631,11.8167235 664.090956,13.9259386 662.861263,16.0551195 C660.301024,20.474744 656.672867,21.8406143 654.717235,22.583959 C654.536007,22.6643345 654.173038,22.7846416 654.173038,23.2469283 C654.173038,23.6288396 654.455119,23.9098976 654.777645,23.9098976 C655.181058,23.9098976 660.8657,22.3832765 664.090956,18.5262799 C665.522355,19.5906143 666.691638,20.6959044 667.679181,22.0817406 C668.545904,23.3073379 668.747611,23.5883959 669.412628,23.5883959 C670.299829,23.5883959 671.045734,22.8650171 671.045734,22.0617747 C671.045734,21.6399317 670.824061,21.2984642 669.735154,20.4348123 C667.760068,18.8677474 665.744027,17.7629693 665.018089,17.381058 C666.691638,15.0506826 668.122526,11.9575085 668.122526,10.912628 C668.122526,10.2296928 667.598805,9.38600683 666.570307,9.38600683 L655.967406,9.38600683 C655.745222,9.38600683 655.201024,9.38600683 655.201024,10.0290102 C655.201024,10.6715017 655.745222,10.6715017 655.967406,10.6715017 L664.131399,10.6715017 L664.131399,10.6715017 Z" id="Shape" fill="#FF3388"></path>
            <path d="M682.658703,10.6515358 C682.920307,10.1293515 683.38413,9.10494881 683.38413,8.62269625 C683.38413,7.65819113 682.275256,7.33720137 681.630205,7.33720137 C680.440956,7.33720137 680.279693,8.06006826 680.138908,8.72303754 C679.191297,12.8610922 677.376962,14.5484642 675.804778,15.6537543 C675.240102,16.0551195 675.139249,16.1354949 675.139249,16.4769625 C675.139249,16.8788396 675.461775,17.1199659 675.7843,17.1199659 C675.966041,17.1199659 679.594198,15.834471 681.973208,11.9370307 L687.254437,11.9370307 C687.677816,11.9370307 687.758703,12.318942 687.758703,12.5401024 C687.758703,12.8211604 687.496587,15.2518771 686.206485,17.5822526 C683.988737,21.5595563 681.025597,22.9254266 676.953584,23.6288396 C676.308532,23.7291809 675.925597,23.8095563 675.925597,24.3517065 C675.925597,24.6931741 676.187713,24.9947099 676.590614,24.9947099 C676.832765,24.9947099 678.344539,24.8139932 679.816382,24.5124573 C682.074061,24.0302048 685.903925,22.9054608 688.42372,19.0484642 C690.86314,15.3122867 691.024403,12.178157 691.024403,12.1182594 C691.024403,11.3544369 690.459727,10.6515358 689.451706,10.6515358 L682.658703,10.6515358 L682.658703,10.6515358 Z" id="Shape" fill="#FF3388"></path>
            <path d="M695.518771,15.4725256 C694.752389,15.4725256 694.69198,16.1759386 694.69198,16.3366894 C694.69198,16.5778157 694.812799,17.1803754 695.518771,17.1803754 L711.846758,17.1803754 C712.37099,17.1803754 712.673549,16.81843 712.673549,16.3167235 C712.673549,16.115529 712.552218,15.4725256 711.846758,15.4725256 L695.518771,15.4725256 L695.518771,15.4725256 Z" id="Shape" fill="#FF3388"></path>
            <path d="M722.165529,9.3056314 C722.165529,8.94419795 722.165529,7.89931741 720.693686,7.89931741 C719.706143,7.89931741 719.262799,8.40153584 719.262799,9.3056314 L719.262799,14.85 C719.262799,17.4414676 719.101536,21.037372 716.299147,23.005802 C715.311604,23.7087031 715.190785,23.7890785 715.190785,24.1105802 C715.190785,24.5124573 715.533276,24.8139932 715.875768,24.8139932 C716.198294,24.8139932 717.972696,23.990273 719.282765,22.8250853 C721.600853,20.755802 722.165529,18.1244027 722.165529,14.6493174 L722.165529,9.3056314 L722.165529,9.3056314 Z M727.105802,9.3056314 C727.105802,8.92423208 727.105802,7.89931741 725.634471,7.89931741 C724.646416,7.89931741 724.182594,8.38156997 724.182594,9.3056314 L724.182594,22.6843003 C724.182594,24.0102389 725.271502,24.1909556 725.613993,24.1909556 C726.88413,24.1909556 729.464334,22.162116 730.774403,20.5750853 C732.387543,18.6266212 733.334642,16.2158703 733.334642,15.9547782 C733.334642,15.693686 733.072526,15.3522184 732.68959,15.3522184 C732.347099,15.3522184 732.22628,15.552901 731.98413,15.974744 C729.988567,19.4503413 727.690444,20.2940273 727.468771,20.2940273 C727.105802,20.2940273 727.105802,19.9525597 727.105802,19.771843 L727.105802,9.3056314 L727.105802,9.3056314 Z" id="Shape" fill="#FF3388"></path>
        </g>
    </g>
</svg>